<?xml version="1.0" encoding="UTF-8"?>
<svg id="Calque_1" data-name="Calque 1" xmlns="http://www.w3.org/2000/svg" version="1.1" viewBox="0 0 512 512">
  <metadata/>
  <defs>
    <style>
      .cls-1 {
        fill: #f39200;
        stroke: #1d1d1b;
        stroke-miterlimit: 10;
      }

      .cls-2 {
        fill: #2b3d39;
      }

      .cls-2, .cls-3, .cls-4, .cls-5, .cls-6, .cls-7 {
        stroke-width: 0px;
      }

      .cls-3 {
        fill: #f6ca2d;
      }

      .cls-4 {
        fill: #485633;
      }

      .cls-5 {
        fill: #3c4e37;
      }

      .cls-8 {
        display: none;
      }

      .cls-6 {
        fill: #d5d8dd;
      }

      .cls-7 {
        fill: #3b422d;
      }
    </style>
  </defs>
  <g id="Background" class="cls-8">
    <path class="cls-6" d="M511.8.2v511.6H.2V.2h511.6Z"/>
  </g>
  <g>
    <path class="cls-1" d="M244.3,8.7C435.5.5,567.6,207.3,471.3,376.7c-68.2,120-219.4,162.4-339.5,92.7C7.6,397.2-29.7,232.3,53.7,114.4,96.9,53.1,169,11.9,244.3,8.7Z"/>
    <path class="cls-3" d="M395.4,296c-2.7,1-.2-7.1,0-10.2,1.6-31.2-5-64.1-22-90.7,18.9-22.7,46.3-34.1,72.7-45.5,25.9,55,9.3,97.7-35,134.9-3.5,2.9-14,9.3-15.7,11.5Z"/>
    <g>
      <path class="cls-2" d="M373.4,195c17,26.6,23.6,59.5,22,90.7-.2,3.2-2.7,11.2,0,10.2-3.3,4-2.2,8.3-3.5,13.2-26.6,101.5-135.7,144.5-222.1,95.7-54.6-30.9-82.3-82.2-81.2-144.6,0-4.3,2.1-16.6,2-17.5-.3-1.6-9-11-13.5-30-2.1-9-6.7-41.9.7-47.7,7.3-5.7,33.6-6.8,43-6.5,1.4,0,9,1.7,9.5,1.5,2-.7,14.4-36.3,19.5-38,3.3-1.1,23.5,3.2,28,4.5,9.2,2.7,15.6,7,16.5,7,2.1.1,10.6-7.9,40-9,35.4-1.4,69.6,7.6,98.4,28.5,13.3,9.6,31.9,28.2,40.7,42Z"/>
      <path class="cls-3" d="M155.3,136.1c5.6-2.2,36.5,9,43.5,12,14.6,6.3,22.7,14.1,6.2-5.2,80.6-24.3,169.5,33.7,176.9,118.4,7.3,83.4-60,152.6-143.1,149.6-81.8-2.9-142.4-75-136.6-155.6,1.6-.9,6,5.4,6,3-11.7-25.7-21.7-53.2-21-81.9,22.3-6.6,46.2-4.2,68.2,2.2-1.1-6.5-12.1-14.7-12.2-15.7-.2-1.5,10.9-26.2,12.2-26.7Z"/>
      <g>
        <path class="cls-7" d="M242.8,175.6c2.9,1.1,17.6-.3,18.5,0,2,.8-.6,16.9,1.5,18.5,1.7,1.4,21.2,1.8,39.7,17.7q-9.9,13.4-19.7,26.7c-19.7-23.5-53.8-15.8-44.2,3.2,6.7,13.3,39.9,12,58.7,28.2,23.4,20.1,19,57.1-11,73.9-11.9,6.7-19.7,6.3-20.2,7.2-.6,1,.7,22.6-.2,23.2h-19c-.9-.7.4-22.3-.5-23-2.3-1.6-27.1,2.1-50.7-21.7l20.2-28.2c13,20.2,49.5,26,58.7,11.2,13.3-21.4-29.1-26.4-42.2-31.7-38.4-15.6-39.6-56.9-11-76.9,10.7-7.5,20.2-7.7,20.7-8.7.7-1.3-1.1-18.9.7-19.7Z"/>
        <path class="cls-4" d="M177.8,267c4.1-.1-4.3,7.7,6.7,1.7-5.7,9,2,6.4,1.5,8.5-10.5.1-.7,10.8-8.7,2.7l-.7.7c-11,40-46.8,21.3-45.5,17,19.8,10.9,39.1,5.2,42.5-18.5-6.1-.9,1.6-1.5-2-9.5,7,2.9,4-2.7,6.2-2.7Z"/>
        <path class="cls-2" d="M176.3,206c2.4-.1,8.2.5,10.2,1.7-13.9,2.9-20.8,14.2-23.7,27.2-7.3-12.6-2.5-28.2,13.5-29Z"/>
        <path class="cls-5" d="M186.3,183.1c5.7,7.7,8.2-4.1,6.7,5.2,10.5,2.2-4,1.1,4,8.5-10.1-3.2-2.8,8.9-9.7-.2-8.5,6.3,2.3-2.6-5.2-7.7,8,1.2,2.9-4.8,4.2-5.7Z"/>
        <path class="cls-5" d="M141.8,263.5c2.2.7,3.1,3.1,5.5,2.5,6-6.1-1.6,3.6,6.2,3.2-9.1,5.7,5.1,9-5.7,6.7-3.5,9.3-.9-2.2-8.2,1.2,4.8-7-2.4-6.7-1.5-8,.6-.9,7.6,3,3.7-5.7Z"/>
        <g>
          <path class="cls-2" d="M116.6,193.5c1.4-.4,2.6-.6,4-1,.8-.2,7.8-2.1,8-1.7-9.7,8.3-12.6,18-14.7,30.2.2-3.3-6-24.2-5.2-25.2.2-.3,6.8-1.9,8-2.2Z"/>
          <path class="cls-7" d="M116.6,193.5c-1.2.3-7.8,1.9-8,2.2-.7,1.1,5.5,22,5.2,25.2,2.1-12.2,5-22,14.7-30.2-.2-.4-7.1,1.5-8,1.7l15-5.2c-16.1,9-19.7,23.4-21.2,40.7q-3.1-16.4-6.2-32.7l8.5-1.7Z"/>
        </g>
        <path class="cls-2" d="M169.8,157.6l10.2,9.2c-20-5.4-29.4,5.4-10.2-9.2Z"/>
      </g>
    </g>
  </g>
</svg>