<?xml version="1.0" encoding="utf-8"?>
<!-- Generator: Adobe Illustrator 26.5.0, SVG Export Plug-In . SVG Version: 6.00 Build 0)  -->
<svg version="1.1" id="Layer_3" xmlns="http://www.w3.org/2000/svg" xmlns:xlink="http://www.w3.org/1999/xlink" x="0px" y="0px"
	 viewBox="0 0 512 512" style="enable-background:new 0 0 512 512;" xml:space="preserve">
<style type="text/css">
	.st0{fill:#67AC5C;}
	.st1{fill:#85BD7D;}
	.st2{fill:#E0E0E0;}
	.st3{fill:#F5F5F5;}
	.st4{fill:#518C46;}
	.st5{fill:#F7C244;}
	.st6{fill:#FDDFB1;}
	.st7{fill:#F9CE69;}
	.st8{fill:#FDE5C1;}
</style>
<path class="st0" d="M16,176h432l0,0v232c0,22.1-17.9,40-40,40H56c-22.1,0-40-17.9-40-40V176L16,176z"/>
<path class="st1" d="M16,176v176h344c13.3,0,24-10.7,24-24V176H16z"/>
<circle class="st2" cx="392" cy="168" r="104"/>
<path class="st3" d="M392,64c-57.4,0-104,46.6-104,104c0,13.7,2.7,27.3,8,40h136c13.3,0,24-10.7,24-24V86.1
	C437.8,71.8,415.2,64,392,64z"/>
<path class="st2" d="M48,208h224v144H48V208z"/>
<path class="st3" d="M48,208v104h160c13.3,0,24-10.7,24-24v-80H48z"/>
<path class="st4" d="M16,376h432v16H16V376z"/>
<path class="st5" d="M440,224h-96l0,0v-32c0-8.8,7.2-16,16-16h64c8.8,0,16,7.2,16,16V224L440,224z"/>
<path class="st6" d="M392,160L392,160c-13.3,0-24-10.7-24-24v-16c0-13.3,10.7-24,24-24l0,0c13.3,0,24,10.7,24,24v16
	C416,149.3,405.3,160,392,160z"/>
<g>
	<path class="st4" d="M96,256c4.4,0,8,3.6,8,8h16c0-10.1-6.4-19.1-16-22.5V232H88v9.5c-12.5,4.4-19,18.1-14.6,30.5
		c3.4,9.6,12.5,16,22.6,16c4.4,0,8,3.6,8,8s-3.6,8-8,8s-8-3.6-8-8H72c0,10.1,6.4,19.1,16,22.5v9.5h16v-9.5
		c12.5-4.4,19-18.1,14.6-30.5c-3.4-9.6-12.5-16-22.6-16c-4.4,0-8-3.6-8-8S91.6,256,96,256z"/>
	<path class="st4" d="M160,256c4.4,0,8,3.6,8,8h16c0-10.1-6.4-19.1-16-22.5V232h-16v9.5c-12.5,4.4-19,18.1-14.6,30.5
		c3.4,9.6,12.5,16,22.6,16c4.4,0,8,3.6,8,8s-3.6,8-8,8s-8-3.6-8-8h-16c0,10.1,6.4,19.1,16,22.5v9.5h16v-9.5
		c12.5-4.4,19-18.1,14.6-30.5c-3.4-9.6-12.5-16-22.6-16c-4.4,0-8-3.6-8-8S155.6,256,160,256z"/>
	<path class="st4" d="M224,256c4.4,0,8,3.6,8,8h16c0-10.1-6.4-19.1-16-22.5V232h-16v9.5c-12.5,4.4-19,18.1-14.6,30.5
		c3.4,9.6,12.5,16,22.6,16c4.4,0,8,3.6,8,8s-3.6,8-8,8s-8-3.6-8-8h-16c0,10.1,6.4,19.1,16,22.5v9.5h16v-9.5
		c12.5-4.4,19-18.1,14.6-30.5c-3.4-9.6-12.5-16-22.6-16c-4.4,0-8-3.6-8-8S219.6,256,224,256z"/>
	<path class="st4" d="M296,344h128v16H296V344z"/>
	<path class="st4" d="M296,312h56v16h-56V312z"/>
	<path class="st4" d="M368,312h56v16h-56V312z"/>
</g>
<path class="st7" d="M392,208c13.3,0,24-10.7,24-24v-8h-56c-8.8,0-16,7.2-16,16v16H392z"/>
<path class="st8" d="M392,96c-13.3,0-24,10.7-24,24v16c0,2.7,0.5,5.4,1.5,8h6.5c13.3,0,24-10.7,24-24V97.5
	C397.4,96.5,394.7,96,392,96z"/>
</svg>
