<svg id="Layer_3" height="512" viewBox="0 0 64 64" width="512" xmlns="http://www.w3.org/2000/svg" data-name="Layer 3"><path d="m2 22h54a0 0 0 0 1 0 0v29a5 5 0 0 1 -5 5h-44a5 5 0 0 1 -5-5v-29a0 0 0 0 1 0 0z" fill="#67ac5c"/><path d="m2 22v22h43a3 3 0 0 0 3-3v-19z" fill="#85bd7d"/><circle cx="49" cy="21" fill="#e0e0e0" r="13"/><path d="m49 8a13 13 0 0 0 -12 18h17a3 3 0 0 0 3-3v-12.233a12.931 12.931 0 0 0 -8-2.767z" fill="#f5f5f5"/><path d="m6 26h28v18h-28z" fill="#e0e0e0"/><path d="m6 26v13h20a3 3 0 0 0 3-3v-10z" fill="#f5f5f5"/><path d="m2 47h54v2h-54z" fill="#518c46"/><path d="m43 22h12a0 0 0 0 1 0 0v4a2 2 0 0 1 -2 2h-8a2 2 0 0 1 -2-2v-4a0 0 0 0 1 0 0z" fill="#f7c244" transform="matrix(-1 0 0 -1 98 50)"/><rect fill="#fddfb1" height="8" rx="3" transform="matrix(-1 0 0 -1 98 32)" width="6" x="46" y="12"/><g fill="#518c46"><path d="m12 32a1 1 0 0 1 1 1h2a3 3 0 0 0 -2-2.816v-1.184h-2v1.184a2.993 2.993 0 0 0 1 5.816 1 1 0 1 1 -1 1h-2a3 3 0 0 0 2 2.816v1.184h2v-1.184a2.993 2.993 0 0 0 -1-5.816 1 1 0 0 1 0-2z"/><path d="m20 32a1 1 0 0 1 1 1h2a3 3 0 0 0 -2-2.816v-1.184h-2v1.184a2.993 2.993 0 0 0 1 5.816 1 1 0 1 1 -1 1h-2a3 3 0 0 0 2 2.816v1.184h2v-1.184a2.993 2.993 0 0 0 -1-5.816 1 1 0 0 1 0-2z"/><path d="m28 32a1 1 0 0 1 1 1h2a3 3 0 0 0 -2-2.816v-1.184h-2v1.184a2.993 2.993 0 0 0 1 5.816 1 1 0 1 1 -1 1h-2a3 3 0 0 0 2 2.816v1.184h2v-1.184a2.993 2.993 0 0 0 -1-5.816 1 1 0 0 1 0-2z"/><path d="m37 43h16v2h-16z"/><path d="m37 39h7v2h-7z"/><path d="m46 39h7v2h-7z"/></g><path d="m49 26a3 3 0 0 0 3-3v-1h-7a2 2 0 0 0 -2 2v2z" fill="#f9ce69"/><path d="m49 12a3 3 0 0 0 -3 3v2a2.962 2.962 0 0 0 .184 1h.816a3 3 0 0 0 3-3v-2.816a2.962 2.962 0 0 0 -1-.184z" fill="#fde5c1"/></svg>