<svg width="100" height="100" viewBox="0 0 24 24" fill="none" xmlns="http://www.w3.org/2000/svg">
  <path d="M12 2C6.48 2 2 6.48 2 12C2 17.52 6.48 22 12 22C13.1 22 14 21.1 14 20C14 19.5 13.8 19.1 13.5 18.7C13.2 18.4 13 18 13 17.5C13 16.4 13.9 15.5 15 15.5H17C19.76 15.5 22 13.26 22 10.5C22 5.8 17.52 2 12 2Z" fill="#D2B48C"/>
  <circle cx="7" cy="12" r="1.5" fill="#2D2D2D"/>
  <circle cx="9.5" cy="6" r="1.5" fill="#E91E63"/> <circle cx="14.5" cy="6" r="1.5" fill="#FF9800"/> <circle cx="18" cy="9" r="1.5" fill="#FFEB3B"/> <circle cx="17.5" cy="12.5" r="1.5" fill="#4CAF50"/>
</svg>
