<?xml version="1.0" encoding="UTF-8"?>
<svg id="a" data-name="Calque 1" xmlns="http://www.w3.org/2000/svg" viewBox="0 0 37.56 47.67">
  <g>
    <path d="M16.22,8.84c0,.52-.06,2.86-1.92,4.82-2.06,2.17-4.76,2.17-5.2,2.17v30.84l3.43-3.43,3.43,3.43,3.43-3.43,3.43,3.43,3.43-3.43,3.43,3.43,3.43-3.43,3.43,3.43V8.84h-20.35Z" fill="#fff" stroke="#000" stroke-linejoin="round" stroke-width="2"/>
    <line x1="15.99" y1="17.44" x2="29.74" y2="17.44" fill="none" stroke="#f4d35e" stroke-linecap="round" stroke-width="2.5"/>
    <line x1="15.99" y1="27.75" x2="22.86" y2="27.75" fill="none" stroke="#8c8c8c" stroke-dasharray="1 3" stroke-width="2"/>
    <line x1="26.3" y1="27.75" x2="29.74" y2="27.75" fill="none" stroke="#8c8c8c" stroke-width="2"/>
  </g>
  <g>
    <circle cx="9.11" cy="8.77" r="7.08" fill="#fff"/>
    <path d="M8.16,1.95c3.83-.47,7.3,2.25,7.77,6.08.47,3.83-2.25,7.3-6.08,7.77-3.83.47-7.3-2.25-7.77-6.08-.25-2.09.45-4.17,1.89-5.67" fill="none" stroke="#000" stroke-linecap="round" stroke-width="2.5"/>
    <polyline points="1.25 4.03 4.03 4.03 4.03 1.25" fill="none" stroke="#f4d35e" stroke-linecap="round" stroke-linejoin="round" stroke-width="2.5"/>
    <line x1="8.16" y1="8.92" x2="8.16" y2="5.43" fill="none" stroke="#000" stroke-linecap="round" stroke-width="2.5"/>
    <line x1="8.16" y1="8.92" x2="10.25" y2="10.32" fill="none" stroke="#000" stroke-linecap="round" stroke-width="2.5"/>
  </g>
</svg>