<?xml version="1.0" encoding="UTF-8"?>
<svg xmlns="http://www.w3.org/2000/svg" viewBox="0 0 30.02 37.97">
  <g>
    <path d="M13.02,7.22c0,.41-.05,2.25-1.51,3.79-1.62,1.71-3.74,1.71-4.09,1.71v24.25l2.7-2.7,2.7,2.7,2.7-2.7,2.7,2.7,2.7-2.7,2.7,2.7,2.7-2.7,2.7,2.7V7.22H13.02Z" fill="none" stroke="#2f2f2f" stroke-linejoin="round" stroke-width="2"/>
    <line x1="12.84" y1="13.98" x2="23.65" y2="13.98" fill="none" stroke="#f4d35e" stroke-linecap="round" stroke-width="2.5"/>
    <line x1="12.84" y1="22.09" x2="18.24" y2="22.09" fill="none" stroke="#8c8c8c" stroke-dasharray="1 3" stroke-width="2"/>
    <line x1="20.95" y1="22.09" x2="23.65" y2="22.09" fill="none" stroke="#8c8c8c" stroke-width="2"/>
  </g>
  <g>
    <path d="M6.68,1.8c3.01-.37,5.74,1.77,6.11,4.78.37,3.01-1.77,5.74-4.78,6.11-3.01.37-5.74-1.77-6.11-4.78-.2-1.64.35-3.28,1.49-4.46" fill="none" stroke="#2f2f2f" stroke-linecap="round" stroke-width="2.5"/>
    <polyline points="1.25 3.44 3.44 3.44 3.44 1.25" fill="none" stroke="#f4d35e" stroke-linecap="round" stroke-linejoin="round" stroke-width="2.5"/>
    <line x1="6.68" y1="7.28" x2="6.68" y2="4.54" fill="none" stroke="#2f2f2f" stroke-linecap="round" stroke-width="2.5"/>
    <line x1="6.68" y1="7.28" x2="8.33" y2="8.38" fill="none" stroke="#2f2f2f" stroke-linecap="round" stroke-width="2.5"/>
  </g>
</svg>