<?xml version="1.0" encoding="UTF-8"?>
<svg id="a" xmlns="http://www.w3.org/2000/svg" version="1.1" viewBox="0 0 48 48">
  <g>
    <path fill="#5a391e" d="M23.41,19.71c-.02.12-.03.28-.03.41-.98.13-1.91.55-2.62,1.26l-8.42,8.4c-.31.3-.48.7-.58,1.11-.18.76.03,1.57.59,2.12l2.91,2.89c1.2,1.19,3.19,1.26,4.4.05l7.92-7.9c.7-.7,1.15-1.58,1.25-2.58.29-2.71-1.76-5.06-4.41-5.36l.04-.38c.64.03,1.27.24,1.86.54,1.63.81,2.74,2.41,2.92,4.21,0,.08.02.16.03.24,0,.17,0,.35,0,.52,0,.08-.01.17-.02.24-.12.96-.46,1.93-1.16,2.63l-7.99,8.01c-1.49,1.49-3.71,1.48-5.17.03l-2.86-2.84c-.47-.46-.72-1.09-.76-1.75-.05-.83.29-1.6.88-2.19l8.2-8.18c.84-.83,1.89-1.38,3.05-1.48Z"/>
    <path fill="#e2c088" d="M23.38,20.12c0,.86.18,1.68.52,2.47-.51.5-.62,1.33-.26,1.98.33.62,1.03.99,1.77.87.67-.1,1.26-.63,1.39-1.34.11-.58-.06-1.16-.47-1.56s-.98-.56-1.54-.46c-.32-.59-.45-1.3-.38-1.96,2.65.3,4.7,2.65,4.41,5.36-.11,1-.55,1.88-1.25,2.58l-7.92,7.9c-1.21,1.21-3.2,1.14-4.4-.05l-2.91-2.89c-.56-.56-.77-1.36-.59-2.12.1-.41.28-.81.58-1.11l8.42-8.4c.72-.72,1.64-1.14,2.62-1.26Z"/>
    <path fill="#5a391e" d="M23.9,22.59c.05.11.14.28.2.38-.41.5-.34,1.24.1,1.7s1.15.52,1.68.16c.08-.05.16-.11.17-.2.19-.09.25-.31.31-.49.02-.07.03-.16.03-.24.11-.38-.07-.78-.34-1.06-.28-.3-.67-.41-1.07-.38l-.21-.38c.56-.11,1.14.05,1.54.46s.58.98.47,1.56c-.13.72-.72,1.24-1.39,1.34-.74.12-1.44-.26-1.77-.87-.35-.65-.25-1.48.26-1.98Z"/>
  </g>
  <g>
    <path fill="#000000" d="M29.23,25.47c.01-.08.02-.17.02-.24.08.02.16,0,.26,0,.86-.15,1.64-.54,2.31-1.09,1.69-1.41,2.25-3.76,1.37-5.78-1.01-2.31-3.57-3.5-5.98-2.8s-3.92,3.03-3.54,5.52c.23,1.5,1.13,2.74,2.39,3.55-.01.09-.1.15-.17.2.01-.05,0-.08-.06-.11-.71-.45-1.27-1.06-1.73-1.75-.06-.1-.16-.27-.2-.38-.34-.79-.52-1.61-.52-2.47,0-.12.02-.29.03-.41.36-2.42,2.22-4.29,4.66-4.54s4.71,1.2,5.48,3.53c.73,2.18-.08,4.57-1.97,5.89-.71.49-1.51.82-2.36.89Z"/>
    <path fill="#b5c0c2" d="M29.25,25.23c.01-.17.01-.35,0-.52,1.92-.33,3.45-1.78,3.74-3.75.2-1.38-.26-2.77-1.23-3.75s-2.35-1.45-3.75-1.26c-1.26.17-2.4.88-3.1,1.93-1.42,2.15-.72,4.99,1.45,6.25-.05.18-.12.4-.31.49-1.26-.8-2.17-2.05-2.39-3.55-.38-2.49,1.17-4.83,3.54-5.52s4.98.48,5.98,2.8c.88,2.02.32,4.37-1.37,5.78-.67.56-1.45.94-2.31,1.09-.1.02-.18.03-.26,0Z"/>
    <path fill="#000000" d="M29.26,24.72c0-.07-.02-.16-.03-.24,1.63-.22,3-1.46,3.44-3.01.48-1.71-.15-3.52-1.56-4.54s-3.34-1.09-4.83-.11c-1,.66-1.71,1.72-1.83,2.91l-.04.38c-.07.67.06,1.38.38,1.96l.21.38c.32.59.83,1.09,1.4,1.44,0,.08-.01.16-.03.24-2.17-1.27-2.87-4.1-1.45-6.25.69-1.05,1.84-1.76,3.1-1.93,1.4-.19,2.77.28,3.75,1.26s1.43,2.37,1.23,3.75c-.29,1.97-1.82,3.42-3.74,3.75Z"/>
  </g>
</svg>