<?xml version="1.0" encoding="UTF-8"?>
<svg xmlns="http://www.w3.org/2000/svg" viewBox="0 0 14.24 17.23">
  <path d="M5.61.38h3c.41,0,.75.34.75.75h0c0,.41-.34.75-.75.75h-3c-.41,0-.75-.34-.75-.75h0c0-.41.34-.75.75-.75Z" fill="none" stroke="#2f2f2f" stroke-miterlimit="1.5" stroke-width=".75"/>
  <path d="M1.5,1.88h11.25c.62,0,1.12.5,1.12,1.12h0c0,.62-.5,1.12-1.12,1.12H1.5c-.62,0-1.12-.5-1.12-1.12H.38c0-.62.5-1.12,1.12-1.12Z" fill="#f4d35e" stroke="#2f2f2f" stroke-miterlimit="1.5" stroke-width=".75"/>
  <path d="M1.88,4.11h10.5l-1.12,12.75H3L1.88,4.11Z" fill="none" stroke="#2f2f2f" stroke-linejoin="round" stroke-width=".75"/>
  <line x1="4.88" y1="7.11" x2="5.61" y2="15.38" fill="none" stroke="#8c8c8c" stroke-linecap="round" stroke-miterlimit="1.5" stroke-width=".75"/>
  <line x1="9.38" y1="7.11" x2="8.6" y2="15.38" fill="none" stroke="#8c8c8c" stroke-linecap="round" stroke-miterlimit="1.5" stroke-width=".75"/>
</svg>