<?xml version="1.0" encoding="UTF-8"?>
<svg id="Calque_1" data-name="Calque 1" xmlns="http://www.w3.org/2000/svg" viewBox="0 0 512.61 512">
  <path d="M245.51,4.29c151.14-6.12,272.76,114.26,266.9,265.56-3.89,100.41-74.47,185.3-166.43,220.69-85.91,33.06-174.04,18.2-246.47-37.51C-89.65,307.56,12.92,13.71,245.51,4.29Z" style="fill: #192028; stroke-width: 0px;"/>
  <path d="M244.84,27.06c64.62-2.84,119.97,19.1,167.44,62.29,122.59,111.54,92.93,303.85-65.64,374.39-100.9,44.89-214.75,11.12-278.95-77.36C-39.13,239.16,70.34,34.74,244.84,27.06Z" style="fill: #f9fafc; stroke-width: 0px;"/>
  <g>
    <path d="M245.51,35.77c71.25-2.87,133.27,24.17,179.83,78.03,72.56,83.93,74.66,202.68-1.34,285.32-33.39,36.3-90.16,67.75-138.97,74.68-86.12,12.22-177.58-34.81-222.02-108.84C-22.05,223.3,83.71,42.28,245.51,35.77Z" style="fill: #192028; stroke-width: 0px;"/>
    <path d="M187.24,246.74c23.33-2.27,11.27,5.79,14.4,15.74,1.5,4.79,11.93,2.9,12.73,4.69-2.08,11.29,2.7,89.94,0,93.77-.43.6-8.25-.03-10.05,3.35-4.78,8.97,8.93,20.73-14.4,17.75-3.82-10.74,5.26-21.3-11.72-20.43.77-11.83-2.69-90.17-.67-94.44.72-1.52,8.3-2.01,8.71-2.68.83-1.37-1.32-16.72,1-17.75Z" style="fill: #e0e5bc; stroke-width: 0px;"/>
    <path d="M308.47,246.74c26.02-2.97,12.04,8.2,15.74,17.75,1.24,3.2,9.15.75,10.05,2.01,2.71,3.82-2.08,82.48,0,93.77-25.63,2.41,3.6,26.05-24.45,21.77-2.4-1.07-.08-15.48-1-17.75-.93-2.28-8.79-2-9.38-3.35-1.87-4.3.56-82.12-.67-93.77,15.56-.46,5.36-9.21,9.71-20.43Z" style="fill: #e0e5bc; stroke-width: 0px;"/>
    <path d="M248.19,246.74h14.06c4.02,15.38-5.76,19.77,10.38,19.09q-.33,47.89-.67,95.78c-14.33-.43-7.76,2.05-9.71,19.76h-10.05c-1.14-.81.34-16.22-.33-17.75-1.07-2.42-9.65.41-10.72-2.01-1.94-4.38,1.48-83.59,0-95.78,11.38-.2,3.08-11.66,7.03-19.09Z" style="fill: #e0e5bc; stroke-width: 0px;"/>
    <path d="M142.37,405.47l227.38.33c-4.06,2.92-18.65,12.49-21.77,13.06-10.05,1.85-157.24-1.41-185.52,0q-10.05-6.7-20.09-13.4Z" style="fill: #eaf0d9; stroke-width: 0px;"/>
    <g>
      <path d="M247.52,62.56c60.5-2.6,113.06,22.03,153.71,65.97,74.49,80.52,68.69,199.18-17.08,268.91-.31-19.47-11.27-14.55-12.39-16.41-.76-1.26,1.01-11.77-.67-15.4-2.07-4.49-10-3.07-10.72-4.69-1.88-4.26,1.44-81.23,0-93.1,18.21-1.48,7.89-17.37,10.72-21.43.76-1.09,14.39,1.49,11.05-19.76h-252.5c-3.61,23.93,7.79,17.32,9.04,19.09,2.84,4.02-7.88,21.97,12.06,21.43-2.06,11.3,2.69,89.92,0,93.77-.27.39-5.04.43-7.03,1.67-5.48,3.42-1.89,15.2-3.01,17.75-1.34,3.05-12.67-4.15-13.06,17.08C-15.51,273.93,88.51,69.38,247.52,62.56Z" style="fill: #e0e5bc; stroke-width: 0px;"/>
      <path d="M256.9,106.09c28.09,22.49,123.21,71.81,141.32,86.4,19.97,16.09,11.23,33.52-.67,32.15-8.07-.93-122.49-72.85-139.98-82.38-20.82,7.96-133.29,81.42-142.66,83.05-13.22,2.3-20.78-16.13-2.01-31.48,10-8.17,121.22-72.57,144-87.74Z" style="fill: #192028; stroke-width: 0px;"/>
    </g>
  </g>
</svg>