<?xml version="1.0" encoding="UTF-8"?>
<svg id="Calque_1" data-name="Calque 1" xmlns="http://www.w3.org/2000/svg" viewBox="0 0 509.05 507.98">
  <path d="M251.04,1.01c198.13-1.93,322.84,214.31,220.31,385.26-95.95,159.98-334.78,161.16-432.33,2.26C-66.18,217.18,60.73,2.86,251.04,1.01Z" style="fill: #e2e4e6; stroke: #1d1d1b; stroke-miterlimit: 10; stroke-width: 2px;"/>
  <g>
    <path d="M242,28.88c161.04-7.45,280.07,150.51,224.83,303.16-48.37,133.66-209.69,189.21-331.03,114.86C32.65,383.71-1.88,245.96,59.35,141.48,96.87,77.46,167.57,32.32,242,28.88Z" style="fill: #f5a849; stroke: #1d1d1b; stroke-miterlimit: 10; stroke-width: 2px;"/>
    <path d="M236.73,52.23c161.46-11.45,272.59,156.93,196.21,299.39-58.53,109.18-205.84,139.09-303.16,62.89C40.19,344.38,26.61,211.63,99.27,124.16c32.53-39.15,86.64-68.33,137.46-71.93Z" style="fill: #7e5354; stroke-width: 0px;"/>
    <g>
      <path d="M263.46,432.59c-6.94.34-10.98-.53-16.57-.75,1.21-10.71-.24-65.62.75-68.92,1.5-4.96,13.3-6.23,15.06.75,1.79,7.1-1.92,55.99.75,68.92Z" style="fill: #a2a039; stroke-width: 0px;"/>
      <path d="M388.5,372.34c-3.85,4.32-7.85,8.1-12.05,12.05-5-6.86-46.51-43.14-47.45-46.32-1.91-6.42,4.7-12.73,10.92-10.92,3.19.92,41.08,40.88,48.58,45.19Z" style="fill: #a2a039; stroke-width: 0px;"/>
      <path d="M387.74,136.59c-6.81,4.96-45.33,45.16-48.58,45.94-5.66,1.36-11.57-5.61-10.17-10.92.85-3.21,42.16-40.17,47.45-46.32,3.98,3.69,7.64,7.28,11.3,11.3Z" style="fill: #a2a039; stroke-width: 0px;"/>
      <path d="M133.16,384.39c-3.88-3.66-6.99-7.39-10.54-11.3q24.29-23.35,48.58-46.7,5.46,4.71,10.92,9.41-24.48,24.29-48.96,48.58Z" style="fill: #a2a039; stroke-width: 0px;"/>
      <path d="M121.86,136.59c3.66-4.02,7.34-7.59,11.3-11.3,5.08,7.25,46.04,42.6,47.45,45.57,2.54,5.32-5.57,12.69-11.67,10.92-3.13-.91-40.63-40.34-47.07-45.19Z" style="fill: #a2a039; stroke-width: 0px;"/>
      <path d="M263.46,76.33c-4.22,24.19,10.82,85.32-15.82,65.9-1.56-21.84,1.66-43.97-.75-65.9,5.5-.25,11.08-.27,16.57,0Z" style="fill: #a2a039; stroke-width: 0px;"/>
      <g>
        <path d="M246.89,76.33c2.41,21.94-.81,44.06.75,65.9,26.64,19.41,11.6-41.71,15.82-65.9,44.28,2.15,80.76,19.02,112.98,48.96-5.29,6.15-46.6,43.12-47.45,46.32-1.4,5.31,4.5,12.28,10.17,10.92,3.25-.78,41.77-40.98,48.58-45.94,61.45,67.4,61.27,167.77.75,235.75-7.5-4.32-45.39-44.27-48.58-45.19-6.22-1.81-12.83,4.5-10.92,10.92.94,3.18,42.45,39.46,47.45,46.32-32.38,30.39-68.41,46.05-112.98,48.2-2.67-12.93,1.04-61.82-.75-68.92-1.76-6.98-13.57-5.71-15.06-.75-1,3.3.46,58.21-.75,68.92-46.36-1.84-79.79-15.36-113.73-47.45q24.48-24.29,48.96-48.58-5.46-4.71-10.92-9.41-24.29,23.35-48.58,46.7c-62.08-68.18-63.16-167.96-.75-236.5,6.44,4.86,43.94,44.28,47.07,45.19,6.11,1.77,14.21-5.6,11.67-10.92-1.42-2.97-42.37-38.32-47.45-45.57,33.13-31.02,68.04-46.84,113.73-48.96Z" style="fill: #f9df64; stroke-width: 0px;"/>
        <g>
          <g>
            <path d="M342.55,278.94c-.7,9.63.81,21.26-6.03,22.6.74-6.08.41-14.74.75-21.09.3,0-.2-2.18,5.27-1.51Z" style="fill: #fdf8e2; stroke-width: 0px;"/>
            <path d="M341.8,225.46c-1.74.12-3.54-.17-5.27,0-.27-6.56.71-13.06-.75-19.58,7.06-2.39,5.46,13.83,6.03,19.58Z" style="fill: #fdf8e2; stroke-width: 0px;"/>
          </g>
          <g>
            <path d="M309.41,225.46c.22,2.74.05,46.4,0,54.98-.05,8.69,1.01,22.46-1.51,30.13-1.1,3.34-5.14,8.79-8.29,10.54-.4.22-8.21,2.95-8.66,3.01-4.96.72-95.27,1.78-100.17.75-3.11-.65-7.53-4.06-7.91-9.04,18.62-1.79,103.49,2.31,111.1.75,5.31-1.09,10.86-8.91,11.67-13.93,2.04-12.57-2.99-59.08,0-79.84-2.44-7.48-8.83-14.9-16.95-16.19-11.09-1.77-82.57,1.33-104.32,0,0-.36-2.76,1.29-1.13-6.03,11.16.73,22.4-.64,33.52-.75,9.79-.1,70.85.5,74.94,1.51,10.53,2.6,16.89,14.1,17.7,24.1Z" style="fill: #4ab7e0; stroke-width: 0px;"/>
            <path d="M324.47,225.46c1.76-.02,3.46.05,5.27,0,2.36-.06,4.18.25,6.78,0,1.73-.17,3.53.12,5.27,0,0,.08,1.45-.25,1.51.38,1.4,16.55.45,36.45-.75,53.1-5.47-.67-4.97,1.51-5.27,1.51-.44,0,.23-.67-8.29-.75-7.75-.08-15.7-2.35-19.58.75.05-8.59.22-52.24,0-54.98,6.13,2.01,12.64.03,15.06,0Z" style="fill: #666340; stroke-width: 0px;"/>
            <g>
              <path d="M182.87,315.85c-.92-12.11,1.37-86.51,1.51-109.21,21.75,1.33,93.23-1.77,104.32,0,8.11,1.3,14.51,8.71,16.95,16.19-2.99,20.76,2.04,67.27,0,79.84-.81,5.03-6.37,12.85-11.67,13.93-7.61,1.56-92.48-2.54-111.1-.75Z" style="fill: #77cbe5; stroke-width: 0px;"/>
              <path d="M290.58,266.89c-4.64,14.67-14.68,19.16-29.37,17.32-20.12-9.06-16.83-45.08,13.18-41.43,11.11,1.35,16.38,14.36,16.19,24.1Z" style="fill: #666340; stroke-width: 0px;"/>
              <path d="M261.21,284.21c14.7,1.84,24.73-2.65,29.37-17.32-.28,14.73-16.14,23.29-29.37,17.32Z" style="fill: #a9a07f; stroke-width: 0px;"/>
            </g>
            <g>
              <g>
                <path d="M335.77,205.88c1.46,6.52.48,13.02.75,19.58-2.6.25-4.42-.06-6.78,0-.6-2.89,4.38-.63,5.27-1.88.92-1.3,2.3-21.45-8.66-29-8.36-5.76-10.68-2.17-11.3-2.26-.71-.1-.05-2.19-.75-2.26-19.59-1.88-70.33,1.41-95.66,0l-.38,7.91c23.46.56,46.96.55,70.42.38.24,0,1.74,1.84,4.52,1.51.66-.08,4.72-3.49,6.03-3.77,19.58-4.14,30.26,11.39,25.23,29.37-2.43.03-8.94,2.01-15.06,0-.81-10-7.17-21.5-17.7-24.1-4.1-1.01-65.16-1.6-74.94-1.51l.38-10.54c21.84,1.35,87.15-1.8,99.42,0,8.49,1.25,17.31,8.11,19.21,16.57Z" style="fill: #c3253a; stroke-width: 0px;"/>
                <path d="M329.75,225.46c-1.81.05-3.51-.02-5.27,0,5.03-17.98-5.65-33.51-25.23-29.37-1.31.28-5.36,3.69-6.03,3.77-2.78.34-4.28-1.51-4.52-1.51-23.47.18-46.96.18-70.42-.38l.38-7.91c25.32,1.41,76.06-1.88,95.66,0,.71.07.04,2.16.75,2.26.62.09,2.94-3.5,11.3,2.26,10.96,7.55,9.58,27.7,8.66,29-.89,1.26-5.87-1.01-5.27,1.88Z" style="fill: #d33139; stroke-width: 0px;"/>
              </g>
              <g>
                <path d="M337.28,280.45c-.34,6.35-.01,15-.75,21.09-2.74,22.56-17.17,21.37-36.91,19.58,3.14-1.76,7.19-7.2,8.29-10.54l.75,2.26c-5.66,3.58,14.28,4.67,18.83-4.14,3.33-6.45.62-19.23,1.51-26.74v-2.26c8.51.08,7.85.75,8.29.75Z" style="fill: #c3253a; stroke-width: 0px;"/>
                <path d="M328.99,279.69v2.26c-14.5-7.8,7.95,33.09-20.34,30.88l-.75-2.26c2.52-7.67,1.45-21.44,1.51-30.13,3.88-3.11,11.84-.83,19.58-.75Z" style="fill: #c3253a; stroke-width: 0px;"/>
                <path d="M328.99,281.95c-.89,7.51,1.82,20.29-1.51,26.74-4.55,8.81-24.49,7.73-18.83,4.14,28.28,2.21,5.83-38.68,20.34-30.88Z" style="fill: #e54a39; stroke-width: 0px;"/>
              </g>
            </g>
          </g>
        </g>
      </g>
    </g>
  </g>
</svg>