<?xml version="1.0" encoding="UTF-8"?>
<svg id="Calque_1" data-name="Calque 1" xmlns="http://www.w3.org/2000/svg" viewBox="0 0 481.66 512">
  <path d="M268.71.65c14.35-7.17,55.81,47.4,65.52,60.51,2.79,3.77,14.56,23.53,15.68,24.45,3.85,3.19,9.47-3.93,14.42,11.91,3.19,25.62,2.7,3.02,15.68-11.91,15.42-17.73,34.9-2.08,40.13,15.68,4.61,15.66,16.67,101.27,18.81,122.27,1.84,18.08,2.64,36.39,3.14,54.55,1.07,2.25,29.99.7,37.62,22.57,5.82,16.69-2.06,24.67-14.73,34.17-16.67,12.49-55.69,28.73-58.31,30.72-1.87,1.43-14.47,19.29-32.61,33.86-34.26,27.52-81.08,46.72-123.52,57.06-10.65,2.59-27.3,3.92-28.22,5.02-1.53,1.82,3.3,29.45-10.35,45.46-7.27,8.53-13.83,4.7-22.26-.31-20.17-11.98-58.85-65.55-70.85-88.41-8.45,16.89-20.63,39.04-42.01,24.45-37.41-25.52-52.26-168.19-46.71-212.25-27.32-1.22-41.77-24.57-18.5-44.83,14.06-12.24,50.34-29.26,54.55-32.61,4.84-3.84,12-15.95,16.62-21.01,36.52-39.92,87.34-64.63,139.51-76.81,3.64-.85,21.09-3.05,21.95-3.76,3.52-2.91-7.27-39.85,24.45-50.79Z" style="fill: #e0a9af; stroke-width: 0px;"/>
  <path d="M268.71,8.8c1-.12,5.12-.16,5.64,0,5.74,1.72,70.83,79.71,73.05,94.37.16,1.07.17,7.47,0,8.15-1.8,7.18-53.53,28.85-53.3,31.98,44.28,21.13,65.07,27.07,82.14-25.08,2-6.11,5.23-35.72,20.38-32.92,7.35,1.36,10.8,23.75,12.23,30.41,10.08,47.15,18.82,121.27,16.93,169.3,2.16,2.54,45.46-2.16,42.64,21.95-2.31,19.73-67.15,44.45-73.05,48.59-2.14,1.5-21.51,24.56-36.99,36.99-38.99,31.3-100.46,55.04-150.49,57.06-2.22,2.46,6.09,52.16-15.05,49.53-9.31-1.16-49.71-55.08-56.12-65.52-3.44-5.6-12.83-19.9-11.29-25.71,1.02-3.81,42.99-32.48,49.85-36.68v-1.25c-75.52-26.88-58.57,29.28-79.32,55.49-11.24,14.21-17.25,13.12-26.33-1.25-24.65-39.01-36.93-154.42-28.22-201.27-1.2-3.34-37.33,3.1-33.86-20.06,2.46-16.4,61.05-41.24,65.52-44.83,2.08-1.67,17.51-24.42,35.11-40.13,35.33-31.54,97.4-57.65,144.84-59.57,2.63-.99-6.42-46.83,15.68-49.53Z" style="fill: #fcfdfe; stroke-width: 0px;"/>
  <g>
    <path d="M354.93,358.05c-2.42-4.48-16.78-38.39-17.56-42.01-2.64-12.26,4.7-14.67,1.88-31.04.99-2.47,12.78,5.76,18.5,5.33,14.09-22.05,6.73-69.08-8.46-89.35-9.08-12.12-32.1-24.46-33.55-26.02-4.52-4.9,9.78.28,15.68.63,34.88,2.08,56.36-33.58,59.88-64.27h2.51c7.64,53.52,25.87,137.06,10.03,187.48.95,1.98,38.04,2.25,43.26,6.9-14.38,13.99-31.81,24.4-49.22,34.17-4.02,2.26-28.38,13.2-29.47,14.42-.81.9,5.86,1.73-10.66,6.9l-2.82-3.14Z" style="fill: #04576d; stroke-width: 0px;"/>
    <path d="M354.93,358.05l2.82,3.14c16.52-5.17,9.85-5.99,10.66-6.9,1.09-1.22,25.45-12.16,29.47-14.42,17.41-9.77,34.84-20.18,49.22-34.17-5.22-4.65-42.31-4.91-43.26-6.9,15.84-50.42-2.39-133.96-10.03-187.48h-2.51c-3.52,30.69-25,66.35-59.88,64.27-5.89-.35-20.19-5.52-15.68-.63,1.44,1.57,24.46,13.91,33.55,26.02,15.2,20.27,22.56,67.3,8.46,89.35-5.72.43-17.51-7.8-18.5-5.33,2.82,16.36-4.52,18.78-1.88,31.04-2.99-5.5-10.4-38.08-9.41-41.07,2.16-6.5,17.33,8.08,26.96,8.78,15.58-85.7-57.24-103.67-63.02-111.3-1.23-1.62-1.04-2.07-.94-4.08,9.99-17.25,31.17,8.17,59.25-1.57,33.85-11.74,34.59-60.73,41.7-68.66h1.88c14.39,46.54,25.01,133.48,22.57,180.58-.13,2.44-2.79,14.34-2.51,15.05,1.1,2.76,42.12.6,40.76,11.91-21.27,24.41-66.84,43.75-96.87,57.37-.65-.13-2.31-4.07-2.82-5.02Z" style="fill: #04465d; stroke-width: 0px;"/>
    <g>
      <path d="M104.12,153.01c4.71-2.41,9.42-4.55,14.42-6.27,3.25,10.64,14.83,56.84,14.42,63.02-.18,2.66-6.73,16.84-7.84,21.63-4.16-.17-18.26-10.14-21.01-5.33-7.8,40.76-5.7,76.2,29.16,103.14,3.22,2.49,24.52,13.64,22.89,17.24-18.31-3.1-39.71,4.08-50.79,19.44-10.67,14.8-17.69,50.04-21.63,51.1-3.92,1.06-14.7-32.86-15.99-37.31-14.14-48.71-20.32-117.02-10.66-166.79-3.72-2.12-33.13-5.81-33.23-7.52,22.5-18.54,48.02-32.87,73.36-47.03-3.66-1.01-.46-1.57,6.9-5.33Z" style="fill: #04576d; stroke-width: 0px;"/>
      <path d="M104.12,153.01c-7.36,3.76-10.56,4.31-6.9,5.33-25.34,14.16-50.86,28.49-73.36,47.03.1,1.71,29.52,5.4,33.23,7.52-9.66,49.76-3.48,118.08,10.66,166.79,1.29,4.45,12.06,38.37,15.99,37.31,3.95-1.07,10.96-36.31,21.63-51.1,11.07-15.36,32.48-22.54,50.79-19.44,1.63-3.6-19.67-14.76-22.89-17.24-34.86-26.94-36.96-62.39-29.16-103.14,2.75-4.81,16.84,5.16,21.01,5.33,1.11-4.79,7.66-18.98,7.84-21.63.41-6.18-11.17-52.38-14.42-63.02l.94-.63c9.24,31.3,16.3,63.95,17.24,96.87-1.94,4.94-18.17-8.46-27.9-11.6-20.77,93.69,58.55,104.48,67.72,112.24,4.77,4.04.05,10.9-4.39,11.29-3.81.33-46.47-16.72-66.15,17.87-8.44,14.83-8.64,38.92-22.89,51.1-4.65.6-13.78-22.43-15.36-26.65-17.91-47.79-26.72-131.03-16.3-181.21-10.12-3.8-36.23-3.6-34.49-11.29,25.83-21.89,55.52-39.67,87.16-51.73Z" style="fill: #04465d; stroke-width: 0px;"/>
    </g>
    <g>
      <path d="M131.71,189.38c-2.31-11.56-7.04-36.59-10.03-45.77,3.03-11.6-12.84.55-13.17-2.82,42.96-44.79,98.3-62.95,158.95-68.66.4-.55,1.3-1.08,1.57-1.57,1-1.83-1.06-36.38.31-41.7,24.2,22.27,45.7,47.41,63.64,74.93-.19,4.26-65.42,34.1-73.67,38.56-5.38,1.76,1.94-16.31,4.7-24.14l-2.19-1.57c-54.54,6.5-100.51,24.25-125.72,76.18-3.99,3.41-2.01-3.47-4.39-3.45Z" style="fill: #04576d; stroke-width: 0px;"/>
      <path d="M131.71,189.38c2.37-.02.4,6.85,4.39,3.45,25.21-51.94,71.18-69.68,125.72-76.18l2.19,1.57c-2.76,7.83-10.09,25.9-4.7,24.14,8.26-4.47,73.48-34.3,73.67-38.56-17.95-27.52-39.45-52.66-63.64-74.93-1.37,5.31.69,39.87-.31,41.7-.27.49-1.17,1.02-1.57,1.57-60.65,5.71-115.99,23.87-158.95,68.66.33,3.37,16.2-8.77,13.17,2.82-.73-2.24-.35-4.44-2.19-4.39l-29.47,12.54-.94-.94c46.59-52.21,103.24-78.5,172.74-84.33,2.31-13.64-4.12-37.94,5.64-45.77,27.39,25.25,52.16,54.18,72.42,85.59-9.56,8.01-76.4,41.14-81.83,41.7-14.04,1.45-.47-22.26-3.14-24.45-59.64,7.36-91.91,28.76-120.39,81.51-.43-5.32-1.78-10.46-2.82-15.68Z" style="fill: #04465d; stroke-width: 0px;"/>
    </g>
    <g>
      <path d="M358.07,371.22c-1.73,1.18-16.28,14.72-27.28,21.95-41.01,26.97-85.11,38.69-133.24,42.95.15,9.96-.81,6.58,3.14,5.33-5.35,10.91,2.7,48.01-6.27,45.15-.23-1.51,3.52-1.59,3.14-4.08-.71-4.57-50.14-49.09-58.31-71.48,8.07-7.97,64.1-44.51,69.29-45.46,8.92-1.63-7.88,19.51-.63,21.95,43.2-3,74.87-11.49,104.4-44.83,4.66-5.26,24.55-31.2,18.81-32.92.08-.11.15-1.52.94-2.51,7.6,21.41,16.18,43.18,26.02,63.96Z" style="fill: #04576d; stroke-width: 0px;"/>
      <path d="M194.41,486.59c-23.52-22.58-44-48.22-60.82-76.18,7.42-8.12,72.23-50.55,76.81-51.1,12.26-1.48,1.95,19.93,5.02,21.32,57.86-6.73,83.5-24.53,115.69-70.85,5.74,1.72-14.15,27.66-18.81,32.92-29.53,33.34-61.2,41.83-104.4,44.83-7.25-2.44,9.55-23.58.63-21.95-5.18.95-61.22,37.49-69.29,45.46,8.18,22.39,57.6,66.91,58.31,71.48.39,2.49-3.37,2.57-3.14,4.08Z" style="fill: #04465d; stroke-width: 0px;"/>
      <path d="M200.68,441.44c-3.95,1.25-2.99,4.63-3.14-5.33,48.13-4.27,92.24-15.98,133.24-42.95,11-7.23,25.55-20.77,27.28-21.95,5.26-3.59,11.75-5.89,17.56-8.46-33.41,33.77-77.92,60.46-124.46,71.17-16.12,3.71-41.99,4.84-50.48,7.52Z" style="fill: #04465d; stroke-width: 0px;"/>
    </g>
    <g>
      <path d="M225.45,149.25c.64-.45,15.04-.45,15.68,0,1.25.89-.95,14.69,1.25,15.68,3.16,1.41,41.06-1.15,53.61,36.05-6.58.86-33.88,4.41-36.05,4.08-1.15-.18-17.99-12.03-19.12-9.09.53,4.38-.7,29.36,0,30.72.62,1.2,16.52,3.36,26.02,7.21,57.44,23.26,39.92,105.4-23.83,104.09-3.93,19.07,7.12,21.04-17.87,19.12-.52-2.96,1.09-17.92-.94-19.12-4.51-2.67-40.74,6.42-59.25-37.93.31-1.61,30.69-5.05,32.29-4.7,1.42.31,14.31,12.1,26.02,12.23v-36.37c-79.02-11.34-70.32-105.04.94-105.65,2.21-.98,0-15.41,1.25-16.3Z" style="fill: #04576d; stroke-width: 0px;"/>
      <path d="M242.38,272.77c30.2.19,24.01,33.49-.94,34.8l.94-34.8Z" style="fill: #fcfdfe; stroke-width: 0px;"/>
      <path d="M217.93,195.02c.9-.06,4.33-.21,4.7.31q-.16,15.52-.31,31.04c-31.53-5.23-17.64-30.43-4.39-31.35Z" style="fill: #fcfdfe; stroke-width: 0px;"/>
    </g>
  </g>
</svg>