<?xml version="1.0" encoding="UTF-8"?>
<svg id="Calque_1" data-name="Calque 1" xmlns="http://www.w3.org/2000/svg" version="1.1" viewBox="0 0 512 512">
  <defs>
    <style>
      .cls-1 {
        fill: #2d5f7b;
      }

      .cls-1, .cls-2, .cls-3, .cls-4, .cls-5, .cls-6, .cls-7, .cls-8, .cls-9, .cls-10, .cls-11, .cls-12, .cls-13, .cls-14, .cls-15, .cls-16, .cls-17, .cls-18, .cls-19, .cls-20, .cls-21, .cls-22, .cls-23, .cls-24, .cls-25, .cls-26, .cls-27, .cls-28, .cls-29, .cls-30, .cls-31, .cls-32, .cls-33, .cls-34, .cls-35, .cls-36, .cls-37, .cls-38, .cls-39, .cls-40, .cls-41, .cls-42, .cls-43, .cls-44, .cls-45, .cls-46, .cls-47, .cls-48, .cls-49, .cls-50, .cls-51, .cls-52, .cls-53, .cls-54, .cls-55, .cls-56, .cls-57, .cls-58, .cls-59, .cls-60, .cls-61 {
        stroke-width: 0px;
      }

      .cls-2 {
        fill: url(#Dégradé_sans_nom_37);
      }

      .cls-3 {
        fill: #f7d854;
      }

      .cls-4 {
        fill: #f17a84;
      }

      .cls-5 {
        fill: #fcfcfc;
      }

      .cls-6 {
        fill: #3e3c47;
      }

      .cls-7 {
        fill: #ddf3fb;
      }

      .cls-8 {
        fill: #abbb55;
      }

      .cls-9 {
        fill: #591c1f;
      }

      .cls-10 {
        fill: #99ba65;
      }

      .cls-11 {
        fill: #3b2e1f;
      }

      .cls-12 {
        fill: #1c1d31;
      }

      .cls-13 {
        fill: #8d6239;
      }

      .cls-14 {
        fill: #1f2517;
      }

      .cls-15 {
        fill: #ceebe7;
      }

      .cls-16 {
        fill: #22251e;
      }

      .cls-17 {
        fill: #d63536;
      }

      .cls-18 {
        fill: #91c9cc;
      }

      .cls-19 {
        fill: #194b4f;
      }

      .cls-20 {
        fill: #83716b;
      }

      .cls-21 {
        fill: url(#Dégradé_sans_nom_38);
      }

      .cls-22 {
        fill: #fbfbfb;
      }

      .cls-23 {
        fill: #e68125;
      }

      .cls-24 {
        fill: #206943;
      }

      .cls-25 {
        fill: #16324a;
      }

      .cls-26 {
        fill: #ebfdfe;
      }

      .cls-27 {
        fill: #f4a671;
      }

      .cls-28 {
        fill: #f6c746;
      }

      .cls-29 {
        fill: #347d87;
      }

      .cls-30 {
        fill: #cdd0d1;
      }

      .cls-31 {
        fill: #a26278;
      }

      .cls-32 {
        fill: #1e837d;
      }

      .cls-33 {
        fill: #282721;
      }

      .cls-34 {
        fill: #1d171b;
      }

      .cls-35 {
        fill: #f1936b;
      }

      .cls-36 {
        fill: #eaeff2;
      }

      .cls-37 {
        fill: #efe9e9;
      }

      .cls-38 {
        fill: #41a0b9;
      }

      .cls-39 {
        fill: #497234;
      }

      .cls-40 {
        fill: #4b2e2f;
      }

      .cls-41 {
        fill: #53291b;
      }

      .cls-42 {
        fill: #19273d;
      }

      .cls-43 {
        fill: #c4f3d4;
      }

      .cls-44 {
        fill: #3faccd;
      }

      .cls-45 {
        fill: #fdfefe;
      }

      .cls-46 {
        fill: #8e2422;
      }

      .cls-47 {
        fill: #c7eef5;
      }

      .cls-48 {
        fill: #47a1a0;
      }

      .cls-49 {
        fill: #d6dac1;
      }

      .cls-50 {
        fill: #d7ddd6;
      }

      .cls-51 {
        fill: #294d53;
      }

      .cls-52 {
        fill: #fbd7d4;
      }

      .cls-53 {
        fill: #29805f;
      }

      .cls-54 {
        fill: #c25938;
      }

      .cls-55 {
        fill: #5db1ac;
      }

      .cls-56 {
        fill: #e9db97;
      }

      .cls-57 {
        fill: #6e8c1c;
      }

      .cls-58 {
        fill: #e9e9e9;
      }

      .cls-59 {
        fill: #f7f1d0;
      }

      .cls-60 {
        fill: #a6deea;
      }

      .cls-61 {
        fill: #eee5b6;
      }
    </style>
    <linearGradient id="Dégradé_sans_nom_37" x1="137.17" y1="366.98" x2="136.52" y2="414.76" gradientUnits="userSpaceOnUse">
      <stop offset="0" stop-color="#73bfb8"/>
      <stop offset="1" stop-color="#3b8a8f"/>
    </linearGradient>
    <linearGradient id="Dégradé_sans_nom_38" x1="165.83" y1="378.21" x2="163.5" y2="401.35" gradientUnits="userSpaceOnUse">
      <stop offset="0" stop-color="#5ba19e"/>
      <stop offset="1" stop-color="#3d888d"/>
    </linearGradient>
  </defs>
  <path class="cls-6" d="M241.57.3c150.24-7.17,274.5,112.96,270.33,263.77-3.87,139.99-122.77,250.19-262.68,246.83C89.83,507.07-27.16,358.35,6.22,200.66,29.46,90.89,129.53,5.65,241.57.3Z"/>
  <g>
    <path class="cls-49" d="M198.65,63.72c-12.73,37.37,7.86,72.31,45.37,81.73-18.27,5.19-37.59,9.82-52.21,22.69l-.82-.82c13.85-28.97,8.28-62.26-18.86-81.18-1.29-.9-11.63-6.87-12.3-7.11q19.41-7.65,38.81-15.31Z"/>
    <path class="cls-49" d="M323.29,345.81c-10.41,15.9-11.24,43.29-2.19,59.86,4.92,9.01,20.74,22.42,30.07,26.51q-18.04,7.11-36.08,14.21c.63-1.74,2.01-7.37,2.19-9.02,3.71-34.59-17.23-60.73-49.2-71.07,19.53-1.28,38.84-8.48,53.57-21.59.59.26,1.9-.62,1.64,1.09Z"/>
    <path class="cls-49" d="M65.26,198.2c1.85-8.28,12.63-33.99,13.12-38.27,6.7,10.01,12.47,20.84,22.14,28.43,15.23,11.95,37.1,13.42,55.21,8.2,15.56-4.48,13.3-10.55,4.1,6.29-4.26,7.79-8.93,20.33-10.93,28.97-5.31,22.9.82,18.03-8.75-1.09-14.37-28.72-43.8-42.31-74.9-32.53Z"/>
    <path class="cls-49" d="M446.84,197.66c-38.88-9.96-69.84,9-80.64,47.01-1.58-19.33-9.57-37.11-19.95-53.3.93-1.88,13.57,9.79,41,6.29,20.06-2.56,38.51-19.21,45.92-37.72q6.83,18.86,13.67,37.72Z"/>
    <path class="cls-49" d="M446.3,315.74q-7.11,18.59-14.21,37.17c-2.24-5.83-6.96-13.18-10.93-18.04-19.28-23.62-50.82-24.09-76.54-10.93,10.84-16.33,19.27-33.93,21.59-53.57,10.59,32.82,34.82,51.02,69.97,47.56,2.17-.21,7.93-1.48,10.11-2.19Z"/>
    <path class="cls-49" d="M165.3,320.66c-34.08-13.54-70.44-5.13-84.74,31.16-6.77-11.3-10.59-24.19-14.76-36.63,32.18,10.83,62.27-3.55,76.54-33.62,7.18-15.13,2.8-15.26,6.56,1.09,2.23,9.69,6.51,19.82,11.48,28.43,3.05,5.29,7.42,8.57,4.92,9.57Z"/>
    <path class="cls-49" d="M242.93,364.39c.17.02.77.33,3.28.55-.13,1.67-5.88,2.49-9.02,3.83-34.61,14.77-47.41,42.04-39.09,78.72-5.07-3.07-26.89-9.95-34.99-14.76,7.45-2.9,18.88-12.19,24.05-18.31,16.84-19.96,14.87-45.03,5.74-68.06,13.44,11.19,32.34,18.72,49.75,19.13l.27-1.09Z"/>
    <g>
      <path class="cls-18" d="M307.99,118.39c-8.02,12.33-25.43,26.33-40.45,26.79-2.8.09-4.87.37-4.37-1.09,17.29-2.13,33.4-12.69,42.64-27.33l2.19,1.64Z"/>
      <path class="cls-49" d="M353.36,79.03c-8.82,4.78-17.23,9.47-24.05,16.95-17.82,19.53-19.28,47.24-8.2,70.52-.05-.02-.06.92-.82.55-7.27-3.55-16.36-12.68-39.36-18.59-4.61-1.18-12.93-1.44-13.39-3.28,15.03-.46,32.43-14.46,40.45-26.79,10.95-16.83,12.77-35.24,6.01-54.12,8.19,1.33,36.82,14.45,39.36,14.76Z"/>
    </g>
    <g>
      <path class="cls-18" d="M433.18,159.94c-7.42,18.51-25.86,35.16-45.92,37.72l-2.73-1.64c42.89-5.56,66.46-59.7,36.63-95.94-22.93-27.86-66.21-29.08-90.2-1.91l-1.64-2.19c6.82-7.48,15.24-12.17,24.05-16.95,2.43.3,11.26-2.92,15.58-3.28,46.93-3.86,80.93,42.53,64.23,84.19Z"/>
      <path class="cls-18" d="M330.95,98.16c-16.46,18.64-18.56,48.42-5.47,69.43-3.84,1.5-2.83-.43-4.37-1.09-11.08-23.28-9.62-50.99,8.2-70.52l1.64,2.19Z"/>
      <g>
        <path class="cls-32" d="M384.52,196.02c-24.09,3.12-46.31-8.01-59.04-28.43-13.1-21.01-11-50.79,5.47-69.43,24-27.17,67.27-25.94,90.2,1.91,29.83,36.24,6.26,90.38-36.63,95.94Z"/>
        <g>
          <path class="cls-33" d="M405.97,142.4c.92,4.01-2.01,7.26-6.02,7.35,1.26.99,2.57,1.95,3.82,2.95,1.43,1.14,2.79,2.28,4.28,3.36,2.29,1.66,4.67,3.24,7.06,4.74,2.44,1.54,7.93,4.41,8.27,4.74.43.42.64,1.17,0,1.5-.25.13-5.39.27-5.67.23-1.45-.22-7.9-5.06-9.61-6.13-5.78.28-7.65-.95-4.63,1.5,1.84,1.49,3.95,2.68,5.84,4.11.29.59-.41.36-1.39.41-.75.03-5.67.08-5.96,0-.14-.04-1.93-1.69-2.26-1.97-.67-.57-4.12-3.97-4.46-4.05-1.78-.44-31.88.34-36.68,0-.35.09-2.76,2.55-3.3,3.01-.47.41-3.19,2.95-3.41,3.01-.26.06-2.78,0-3.53,0-1.73-.01-3.94.22-3.59-.41,2.38-1.88,4.93-3.53,7.29-5.44-.86-.22-5.86-.28-6.31-.17-.54.13-7.96,5.89-9.26,6.13-.36.07-6.17.25-6.31-.52-.46-.99,2.19-2.03,4.28-3.41,3.77-2.03,7.28-4.47,10.76-6.94.88-.63,1.79-1.2,2.66-1.85,2.07-1.56,4.04-3.26,6.13-4.8,0-.32-3.47.34-5.44-2.84-1.27-2.05-1.2-4.57.23-6.54,2.58-3.56,7.9-1.7,8.1-2.43-1.24-1.6-2.16-3.44-2.55-5.44.49-5.88-.25-20.46.23-25,.78-7.27,7.32-7.25,7.81-7.58.23-.16.76-2.93,3.24-4.51,4.76-3.04,20.46-3.27,24.36,1.56,1.04,1.28,1.32,2.85,1.45,2.95.47.35,6.43-.16,7.81,7.46-.31,5.49.68,21.64.23,25.34-.18,1.47-1.46,4-2.43,5.21.19.67,7.55-1.48,8.91,4.46Z"/>
          <path class="cls-36" d="M369.46,125.96q7.52.06,15.04.12l.41.41v11.57l-.41.29h-15.28q-.09-5.99-.17-11.98l.41-.41Z"/>
          <g>
            <g>
              <g>
                <path class="cls-30" d="M369.81,149.34c.68-.2,13.55-.2,14.23,0,.52.15,6.13,7.13,7.23,7.93q-14.26.03-28.53.06c.94-.9,6.55-7.84,7.06-7.99Z"/>
                <path class="cls-30" d="M360.32,149.46c.24-.07,3.73-.06,3.76.17-1.01.95-6.94,7.56-7.46,7.7-.6.15-4.32-.07-5.38-.06,1.31-.79,8.51-7.65,9.08-7.81Z"/>
              </g>
              <path class="cls-30" d="M389.95,149.46c.94.1,2.97-.19,3.7.12.55.23,7.64,6.86,8.97,7.7-.96-.01-4.75.21-5.27.06-.52-.15-6.77-6.74-7.41-7.87Z"/>
            </g>
            <g>
              <path class="cls-36" d="M353.84,141.82c1.8-.3,15.7.21,19.33.12.18.13-.07,1.84.12,1.97.22.15,5.11.15,5.32,0,.22-.15-.2-1.86.58-2.08.99-.29,19.58-.14,20.6,0,2.69.38,2.92,3.51.12,3.93-3.24.49-38.93-.37-46.06,0-2.48-.4-2.36-3.54,0-3.93Z"/>
              <g>
                <path class="cls-36" d="M360.32,130.36c3.92-.46,4.26,5.26.69,5.55-3.73.31-4.05-5.16-.69-5.55Z"/>
                <path class="cls-36" d="M392.84,130.36c3.78-.3,4.01,5.37.46,5.55-3.72.19-3.88-5.28-.46-5.55Z"/>
                <g>
                  <path class="cls-36" d="M373.17,96.92c.46-.06,6.88-.06,7.41,0,5.02.57,4.86,6.34.81,6.94-.44.07-8.44.07-8.91,0-4.01-.55-4.16-6.32.69-6.94Z"/>
                  <path class="cls-33" d="M372.82,99.12c.4-.07,7.81-.07,8.22,0,1.42.25,1.88,2.22.35,2.55-.44.09-8.59.11-9.03,0-1.22-.31-1.17-2.26.46-2.55Z"/>
                </g>
                <g>
                  <path class="cls-36" d="M358.47,106.98q18.57.06,37.15.12l.17,13.94q-18.66.09-37.32.17l-.29-.17v-13.89l.29-.17Z"/>
                  <g>
                    <path class="cls-46" d="M360.32,108.95h13.08l-.06,10.01q-6.51.03-13.02.06v-10.07Z"/>
                    <path class="cls-36" d="M363.68,111.15c.32-.06,6.16-.07,6.48,0,1.58.35.59,4.22.87,5.5l-8.39.17c-.13-1.44-.85-5.29,1.04-5.67Z"/>
                  </g>
                  <g>
                    <path class="cls-46" d="M380.69,108.95h12.85l.06,10.01q-6.45.03-12.9.06v-10.07Z"/>
                    <path class="cls-36" d="M383.93,111.15c.46-.1,6.51-.02,6.83.12,1.15.5.44,4.02.64,5.15l-.41.41h-7.87l-.29-.29c.24-1.32-.73-4.98,1.1-5.38Z"/>
                  </g>
                </g>
                <g>
                  <path class="cls-33" d="M373.05,128.86c.38-.07,7.37-.07,7.75,0,2.81.52,2.55,5.9.93,6.94-1.08.69-8.22.68-9.37.12-.34-.17-1.13-.96-1.22-1.33-.34-1.57-.3-5.31,1.91-5.73Z"/>
                  <path class="cls-36" d="M374.56,131.4c1.81.32,6.87-1.14,4.86,2.08-1.7-.25-7.43,1-4.86-2.08Z"/>
                </g>
              </g>
            </g>
          </g>
        </g>
      </g>
    </g>
    <g>
      <path class="cls-19" d="M305.8,116.75c-9.25,14.64-25.35,25.21-42.64,27.33-36.79,4.52-69.14-26.97-64.51-66.42,2.94-25.02,23.77-47.22,48.93-50.57,49.44-6.58,85,47.24,58.22,89.66Z"/>
      <g>
        <path class="cls-37" d="M280.1,110.71c-15.35,4.81-32.22,4.55-47.53-.29,7.25-3.99,15.73-10.39,23.91-9.59,4.09.4,18.9,7.66,23.62,9.88Z"/>
        <g>
          <path class="cls-9" d="M280.1,110.71c-4.72-2.22-19.53-9.48-23.62-9.88-8.18-.8-16.66,5.6-23.91,9.59-1.86,1.03-11.06,6.39-12.14,6.54-3.29.45-4.17-3.09-2.47-4.65.53-.49,10.99-5.46,12.72-6.9-4.47-3.81-8.92-8.08-12.06-13.08-3.86-6.12-9.71-21.41-6.25-28.05,4.71-9.03,23.42-10.65,32.48-11.26,12.09-.82,42.92-.6,52.47,6.98,6.43,5.1,5.54,10.18,3.71,17.37-2.87,11.26-9.48,21.32-18.75,28.34,3.58,1.92,7.22,3.73,10.83,5.6.45.23,1.6.43,2.03.73,2.13,1.48.98,5.69-2.76,4.8-.67-.16-10.4-5.22-12.28-6.1Z"/>
          <g>
            <path class="cls-15" d="M296.88,71.47c-.84,9.96-6.69,20.65-14.1,27.32-.66.59-5.72,4.6-6.1,4.65-.94.13-12.21-6.45-17.44-7.56-9.48-2.01-15.68,2.02-23.25,6.98-10.81-7.81-17.46-17.21-19.4-30.59l.22-.22c20.8,9.71,59.19,9.09,80.08-.58Z"/>
            <path class="cls-39" d="M248.7,64.78c-.96,1.96-2.16,3.92-2.91,5.96l-3.56-4.65c-.84,2.14-1.34,4.4-1.53,6.69-3.89-.39-5.85-.61-9.74-1.45.16-4.34.8-6.59,4.51-9.01,1.86-1.22,7.02-3.38,9.08-3.05,2.05.32,3.35,3.88,4.14,5.52Z"/>
            <path class="cls-39" d="M272.39,58.82l1.6,3.63c-.16.14-2.58,2.8-2.76,3.05q-1.09-2.43-2.18-4.87c-2.09,4.47-1.26,9.05-1.74,11.99-.03.18.02.39,0,.58-3.32.28-6.55.43-9.88.44.09-1.3.39-7.24.15-7.85.96-1.3,2.65-3.82,3.78-4.8,1.35-1.16,3.25-2.08,4.94-2.62,2.18.1,3.96.26,6.1.44Z"/>
            <path class="cls-28" d="M257.57,65.8c.24.61-.05,6.55-.15,7.85-4.11,0-8.26-.15-12.35-.44.72-1.6.68-2.35.73-2.47.75-2.04,1.95-4,2.91-5.96.19-.38.54-.78.73-1.16,3.31-4.78,7.95,1.7,8.14,2.18Z"/>
            <path class="cls-28" d="M282.42,69.43c.03.48-.02.97,0,1.45-4.96,1.17-10.04,1.89-15.12,2.33.02-.19-.03-.4,0-.58.18.04.35-.07.44-.22,1.24-2.23,1.96-4.79,3.49-6.9.18-.25,2.6-2.91,2.76-3.05,1.52-1.29,2.16-1.87,4-.58.72.5,2.26,2.74,2.69,3.56.74,1.41,1.15,3.46,1.74,4Z"/>
            <path class="cls-39" d="M231.99,59.84c-2.53,3.01-3.42,7.04-3.2,10.9-3.28-.85-6.21-1.8-9.3-3.2l4.51-5.67c3.14-1.29,4.72-1.47,7.99-2.03Z"/>
            <path class="cls-37" d="M294.2,66.96c-2.03-2.29-7.27-4.93-10.25-4.36-2.48.48-1.66,5.02-1.53,6.83-.59-.54-1.01-2.59-1.74-4-.43-.82-1.97-3.06-2.69-3.56-1.84-1.29-2.48-.71-4,.58l-1.6-3.63c8.24.68,17.44,1.07,23.84,7.05-.01.13-1.76.95-2.03,1.09Z"/>
            <path class="cls-39" d="M294.2,66.96c-3.49,1.71-7.99,3.03-11.77,3.92-.02-.48.03-.97,0-1.45-.13-1.81-.95-6.35,1.53-6.83,2.97-.57,8.21,2.07,10.25,4.36Z"/>
            <path class="cls-10" d="M259.75,58.24l1.6,2.76c-1.13.97-2.82,3.5-3.78,4.8-.19-.48-4.83-6.96-8.14-2.18.9-1.82,1.4-3.91,2.76-5.52,2.53-.05,5.04.11,7.56.15Z"/>
            <path class="cls-61" d="M235.48,59.41v2.91c-3.71,2.43-4.34,4.67-4.51,9.01-.77-.17-1.44-.39-2.18-.58-.22-3.86.67-7.89,3.2-10.9,1.15-.2,2.33-.28,3.49-.44Z"/>
            <path class="cls-37" d="M252.19,58.1c-1.36,1.61-1.86,3.7-2.76,5.52-.19.38-.54.78-.73,1.16-.79-1.64-2.09-5.2-4.14-5.52-2.06-.32-7.22,1.83-9.08,3.05v-2.91c5.58-.74,11.08-1.19,16.71-1.31Z"/>
            <path class="cls-61" d="M245.8,70.74c-.05.13,0,.87-.73,2.47-1.47-.1-2.9-.29-4.36-.44.18-2.29.68-4.55,1.53-6.69l3.56,4.65Z"/>
            <path class="cls-37" d="M224,61.88l-4.51,5.67c-.36-.16-2.93-1.13-2.91-1.38,2.36-1.67,4.74-3.19,7.41-4.29Z"/>
            <path class="cls-37" d="M266.29,58.39c-1.69.53-3.6,1.46-4.94,2.62l-1.6-2.76c2.21.03,4.33.04,6.54.15Z"/>
            <path class="cls-61" d="M271.23,65.51c-1.53,2.11-2.25,4.68-3.49,6.9-.08.15-.25.26-.44.22.49-2.94-.35-7.53,1.74-11.99q1.09,2.43,2.18,4.87Z"/>
          </g>
        </g>
      </g>
    </g>
    <g>
      <path class="cls-18" d="M432.08,352.91c18.99,49.47-31.33,101.04-80.91,79.27-9.32-4.09-25.14-17.51-30.07-26.51-9.06-16.57-8.22-43.96,2.19-59.86,2.07-3.16,4.11-5.91,4.37-3.83-8.33,11.72-11.86,31.61-9.84,45.65,2.9,20.1,24.95,41.51,44.55,45.65,54.09,11.42,94.72-53.25,56.58-96.76l2.19-1.64c3.97,4.86,8.69,12.21,10.93,18.04Z"/>
      <path class="cls-18" d="M421.15,334.87l-2.19,1.64c-19.17-21.87-54.18-23.33-77.63-7.65.54-3.1,1.86-2.79,3.28-4.92,25.72-13.16,57.25-12.68,76.54,10.93Z"/>
      <g>
        <path class="cls-38" d="M418.96,336.51c38.14,43.51-2.49,108.18-56.58,96.76-19.6-4.14-41.66-25.55-44.55-45.65-2.02-14.04,1.51-33.92,9.84-45.65,1.53-2.15,11.36-11.58,13.67-13.12,23.45-15.68,58.46-14.22,77.63,7.65Z"/>
        <g>
          <path class="cls-51" d="M373.58,328.95c33.85-1.72,58.75,31.04,47.36,63.22-12.5,35.3-60.92,41.79-82.82,11.59-21.74-29.98-1.5-72.94,35.46-74.81Z"/>
          <path class="cls-5" d="M387.61,414.22l-.76,2.59c-1.02-1.18-.08-1.31.76-2.59Z"/>
          <g>
            <path class="cls-5" d="M352.99,351.07c4.73-.4,14.35,10.56,16.93,14.49,5.67-2.04,12.79.09,13.42-.15.18-.07,1.12-1.98,2.06-3.13,2.7-3.31,10.52-11.88,15.02-11.06,5.14.94,4.05,15.32,3.28,18.99-1.32,6.33-4.32,9.09-4.42,9.61-.44,2.26,5.84,7.93-7.93,25.32-1.14,1.44-3.6,3.7-3.66,3.97-.06.27.99,2.99-.46,5.34-.37.6-1.46.88-2.36,3.13-1.9-2.82-1.15,2.23-2.9-.15-1.5-.34.18,2.32-2.29.46-.74,1.84-.65.09-1.53-.15-.21-.06-4.1-.12-4.27,0-.22.15.37,1.19-1.22.61-.41-.15-.76-1.36-.99.08-.58.53-2.32-3.06-1.83-.46-1.22.5-1.09-1.75-2.52-2.36l-.15,1.53c-.72-2.35-1.1-1.55-1.37-1.83-.81-.83.08-1.07.08-1.14-.03-.66-.66-1.31-.76-1.98-.27-1.86.32-2.75.31-2.9-.07-.49-3.56-3.15-6.56-7.47-9.54-13.74-4.76-20.36-4.88-21.51-.06-.56-3.41-3.44-4.73-10.07-.74-3.72-1.87-18.67,3.74-19.14Z"/>
            <path class="cls-54" d="M352.99,352.9c3.6-.67,13.04,9.88,15.02,13.04l-.08.38c-6.08,2.04-10.47,6.48-13.42,12.05-3.62-5.24-4.85-12.75-4.19-18.99.15-1.46.94-6.16,2.67-6.48Z"/>
            <path class="cls-54" d="M399.05,352.9c4.72-.58,3.73,13.66,2.97,17.16-.54,2.49-1.97,5.99-3.58,8.01-2.63-5.7-7.34-9.86-13.27-11.9l-.08-.38c1.73-3.39,10.63-12.48,13.96-12.89Z"/>
            <g>
              <path class="cls-13" d="M374.04,366.63c16.27-1.28,28.01,11.72,23.41,25.4-1.46,4.34-8.05,13.62-11.82,16.24-3.96,2.76-9.07,3.52-13.73,2.29-7.54-1.99-16.6-15.09-17.16-22.65-.82-11.06,8.53-20.43,19.29-21.28Z"/>
              <path class="cls-14" d="M388.22,382.34c4.98-.73,5.94,6.04,1.98,7.17-5.63,1.61-6.64-6.48-1.98-7.17Z"/>
              <path class="cls-14" d="M363.67,382.34c5.31-.74,5.72,6.75,1.37,7.32-5.27.69-5.7-6.72-1.37-7.32Z"/>
              <g>
                <path class="cls-5" d="M376.48,393.47c10.65-.82,12.72,13.4,2.9,15.1-11.92,2.06-13.74-14.26-2.9-15.1Z"/>
                <path class="cls-14" d="M374.34,399.12c.38-.09,7.32-.32,7.55.69.37,3.7-3.66,1.73-4.12,5.49l-.38.08c.02-2.76-1.33-2.05-2.44-2.75-1.65-1.04-2.22-3.12-.61-3.51Z"/>
              </g>
            </g>
          </g>
        </g>
      </g>
    </g>
    <g>
      <path class="cls-18" d="M165.3,320.66c.24.1,1.99,2.12,4.92,1.64,17.51,22.82,44.3,38.6,72.71,42.09l-.27,1.09c-17.4-.41-36.31-7.95-49.75-19.13,9.13,23.04,11.1,48.1-5.74,68.06-5.17,6.13-16.61,15.42-24.05,18.31-51.35,19.96-102.91-29.22-82.55-80.91,14.3-36.29,50.65-44.7,84.74-31.16Z"/>
      <path class="cls-17" d="M133.32,316.83c28.39-1.1,58.79,22.53,62.59,51.11,8.09,60.8-66.87,88.5-102.78,45.37-31.87-38.27-4.87-94.75,40.18-96.49Z"/>
      <g>
        <g>
          <path class="cls-41" d="M146.84,329.61c2.9,2.67,4.28,6.68,5.08,10.42.65,3.02.87,5.44,1.02,8.51.29,5.95.14,12.04-2.03,17.66-1.12-.32-3.63-.67-4.96-.89-.1-.02-.27-.4-1.91-.25h-.25c0-.2-.34-1.79-.38-2.73-.04-.88-.24-5-.13-5.34.09-.26,1.8-1.16,3.18-4.45.47-1.11.45-2.31.51-2.41.22-.4,3.46-.27,2.54-7.88h-.64c-1.32,6.23-1.09,5.61-1.59-.32-3.94-1.05-9.67-2.63-13.15-4.58-1.54-.87-2.95-1.99-4.26-3.18-.64.52-.54.73-.57.76-3.75,4.07-3.74,9.72-2.54,14.81,1.38,5.85,4.57,7.67,4.7,8.13.24.83-.37,5.48-.64,6.61-.14.58-.49.9-.51.95,0-.61-.99-.17-1.4-.13-2.02.23-4.28.55-6.23,1.14-2.1-5.44-2.03-12.91-1.53-18.68.23-2.67.68-5.27,1.27-7.88.81-3.58,1.76-7.16,4.32-9.91,5.08-5.47,14.71-5.33,20.08-.38Z"/>
          <g>
            <path class="cls-35" d="M134.13,337.37c.02.15.02.3-.19.25-.76-.15-3.86-1.92-4.64-2.67.03-.04-.06-.24.57-.76,1.31,1.19,2.71,2.31,4.26,3.18Z"/>
            <g>
              <path class="cls-27" d="M134.13,337.37c3.48,1.95,9.21,3.53,13.15,4.58.5,5.93.27,6.55,1.59.32h.64c.92,7.61-2.33,7.48-2.54,7.88-.06.11-.04,1.3-.51,2.41-1.38,3.29-3.09,4.19-3.18,4.45-.12.34.09,4.45.13,5.34.04.94.37,2.53.38,2.73.02.53.06,1.95,0,2.22-.15.71-5.91,11.13-6.8,12.77l-.57-.44c-.66-2.05-6.42-11.97-6.48-12.96-.03-.49.26-.67.38-1.08.01-.04-.01-.09,0-.13.02-.05.37-.37.51-.95.26-1.12.88-5.78.64-6.61-.13-.46-3.32-2.28-4.7-8.13-1.2-5.09-1.21-10.73,2.54-14.81.78.75,3.88,2.52,4.64,2.67.21.04.21-.1.19-.25Z"/>
              <g>
                <path class="cls-35" d="M142.2,357.95l.32.06c-.87,3.11-3.34,6.75-7.05,5.53-1.5-.49-4.5-3.62-3.56-5.34,2.94,2.73,7.59,2.97,10.29-.25Z"/>
                <path class="cls-4" d="M136.61,353.63c.58-.04,3.03.03,2.61.57-1.62,1.98-6.75-.29-2.61-.57Z"/>
                <path class="cls-11" d="M130.77,342.32c1.47-.14,3.75.47,3.05,1.14-.89-.61-2.26-.76-3.3-.64-.16.02-4,1.21-1.53,0,.1-.05,1.69-.5,1.78-.51Z"/>
                <path class="cls-11" d="M141.7,342.32c1.31-.13,2.89.27,3.88,1.21-.14.27-2.63-1.59-5.66-.19-.75-.2,1.11-.95,1.78-1.02Z"/>
                <path class="cls-16" d="M141.95,344.86c1.24-.17,3.37.92,2.41,1.14-2.3-1.37-3.29-.01-3.43-.13-.35-.52.6-.96,1.02-1.02Z"/>
                <path class="cls-16" d="M130.51,344.99c.71-.15,2.33-.06,2.61.83-2.72-1.15-4.61,1.15-3.37-.44.32-.06.71-.37.76-.38Z"/>
              </g>
            </g>
          </g>
        </g>
        <g>
          <path class="cls-2" d="M144.05,365.07c5.63,5.82,6.54,13.5,7.24,21.16.09,1-.13,1.03-.13,1.08-6.49,2.97.57,9.22,3.3,5.02,1.96-3.01-1.13-4.41-1.65-4.77-.22-.15-.36-.14-.38-.19-.44-1.09.34-14.16-6.48-22.05,1.33.22,3.83.57,4.96.89,2.78.79,5.71,2.45,8.26,3.81.41.53,3.38,2.41,4.19,3.43.21.27.59,1.04.76,1.4-5.43,6.99-8.59,19.67-7.5,28.28.01.1.25.17.25.19.44,3.24,1,6.55,1.53,9.79-13.85,4.82-28.24,3.68-41.94-1.14.41-2.24.79-4.49,1.14-6.74.21.1.36-.35.38-.44,1.16-6.05,1.38-9.93,0-16.01-1.16-5.09-3.43-10.42-8.01-13.28.13-.33.07-1.3,1.4-2.8.8-.9,3.93-2.94,5.08-3.56.93-.5,5.34-2.4,6.23-2.67,1.95-.59,4.2-.92,6.23-1.14-4.16,4.99-2.51,11.28-2.67,11.88-.11.42-3.16.46-2.92,5.34.06,1.24.62,2.51.76,3.11,0,.02-.24,0-.13.44.59,2.23,3.19,8.06,4.83,9.91-4.37.49-2.95-.61-4-1.21-2.19-1.23-3.03,2.11-1.27,2.54,1.37.34,1.9-.73,2.03-.76,1.13-.32,4.03.28,5.34.13.41-.05,2.77-1.02,2.92-1.02.22,0,2.9,2.29,2.86-1.21-1.95-2.29-3.06.54-3.37.83-1.17,1.08-.58-.28-.57-.44.12-3.11.18-6.63-.13-9.72-.78-7.84-5.12-7.48-5.34-7.94-.47-1,0-9.52,3.05-11.63-.12.41-.41.59-.38,1.08.06.99,5.82,10.92,6.48,12.96l.57.44c.89-1.64,6.65-12.06,6.8-12.77.06-.28.02-1.7,0-2.22h.25Z"/>
          <path class="cls-27" d="M117.61,405.23c-.36,2.25-.74,4.5-1.14,6.74-.1.54-.53,3.97-.83,4.07-1.09-.78-9.76-4.63-9.98-5.15-.26-.61.34-8.99.13-10.74,0,0,.14.03.13-.13,2.09.63,11.33,2.54,11.88,2.8.55.25-.03,1.42-.19,2.41Z"/>
          <path class="cls-27" d="M167.05,399.89c.44,2.56,1.06,5.18,1.4,7.75.06.43.42,2.84.38,2.99-.14.55-8.73,4.93-9.85,5.53-.14-.06-.51-2.67-.57-3.05-.53-3.23-1.09-6.54-1.53-9.79.02-.18-.03-.4,0-.44.31-.46,8.89-2.59,10.17-2.99Z"/>
          <path class="cls-29" d="M117.61,405.23c.16-.99.74-2.16.19-2.41-.55-.26-9.79-2.16-11.88-2.8-.45-.14-3.25-.99-3.3-1.21.33-.7.43-1.49.64-2.22.3-1.06.81-2.31,1.14-3.43.93-3.11,1.93-6.19,2.92-9.28.9-2.79,1.61-5.65,2.67-8.39,4.58,2.86,6.85,8.19,8.01,13.28,1.38,6.09,1.16,9.96,0,16.01-.02.09-.17.54-.38.44Z"/>
          <path class="cls-21" d="M166.29,381.21c1.03,3.17,1.99,6.45,2.92,9.66.44,1.51.88,3.05,1.27,4.58.13.5.87,2.74.76,2.99-1.38.52-2.79,1.02-4.19,1.46-1.28.4-9.86,2.53-10.17,2.99-.03.04.02.27,0,.44,0-.02-.24-.09-.25-.19-1.09-8.6,2.07-21.28,7.5-28.28.61,1.25,1.64,4.75,2.16,6.35Z"/>
          <path class="cls-55" d="M131.47,385.02c-.94,0-4.33.39-6.35.51-2.91-9.68,5.79-8.85,6.35-.51Z"/>
          <g>
            <path class="cls-42" d="M130.32,365.45s.01.09,0,.13c-3.04,2.11-3.52,10.63-3.05,11.63.22.47,4.56.1,5.34,7.94-.79.09-1.09-.13-1.14-.13-.56-8.34-9.26-9.17-6.35.51-.36.02-.67-.02-1.02.13-.14-.61-.7-1.87-.76-3.11-.24-4.87,2.81-4.92,2.92-5.34.16-.61-1.49-6.89,2.67-11.88.41-.05,1.39-.48,1.4.13Z"/>
            <g>
              <path class="cls-45" d="M132.61,385.15c.31,3.09.25,6.61.13,9.72,0,.16-.6,1.52.57.44.31-.29,1.42-3.12,3.37-.83.04,3.49-2.63,1.21-2.86,1.21-.15,0-2.51.97-2.92,1.02-1.3.15-4.21-.45-5.34-.13-.13.04-.66,1.1-2.03.76-1.76-.43-.92-3.77,1.27-2.54,1.06.59-.36,1.7,4,1.21-1.64-1.85-4.24-7.68-4.83-9.91-.12-.44.13-.42.13-.44.35-.14.66-.11,1.02-.13,2.03-.11,5.42-.51,6.35-.51.06,0,.36.22,1.14.13Z"/>
              <path class="cls-48" d="M131.91,393.41l.32.06c.27,3.31-2.91,3.69-4.32.51l4-.57Z"/>
            </g>
          </g>
          <g>
            <path class="cls-25" d="M145.95,365.32c6.82,7.89,6.04,20.96,6.48,22.05.02.05.16.04.38.19-.58-.08-.3.21-.38.51-.17.64-.14,1.2-.13,1.84-1.1.4-.93-1.08-1.02-1.84-.04-.34-.11-.58-.13-.76,0-.05.22-.08.13-1.08-.7-7.66-1.61-15.34-7.24-21.16,1.64-.14,1.81.24,1.91.25Z"/>
            <path class="cls-40" d="M151.29,388.07c-2.14.3-2.64,3.64-.7,4.58,3.11,1.49,5.34-3.16,1.84-4.58.08-.3-.2-.59.38-.51.52.36,3.61,1.76,1.65,4.77-2.73,4.2-9.79-2.05-3.3-5.02.02.18.09.42.13.76Z"/>
            <path class="cls-45" d="M151.29,388.07c.09.76-.08,2.24,1.02,1.84-.01-.65-.04-1.2.13-1.84,3.49,1.42,1.26,6.07-1.84,4.58-1.94-.93-1.44-4.28.7-4.58Z"/>
          </g>
        </g>
      </g>
    </g>
    <g>
      <path class="cls-18" d="M321.65,344.71c-14.73,13.11-34.04,20.31-53.57,21.59,31.97,10.34,52.91,36.48,49.2,71.07-.18,1.65-1.56,7.28-2.19,9.02-.37,1.02-1.4.22-1.64.82-19.96,49.97-81.19,55.33-109.34,10.39-2.55-4.07-1.93-7.64-6.01-10.11-8.32-36.68,4.48-63.95,39.09-78.72,3.14-1.34,8.89-2.15,9.02-3.83,26.86,2.31,52.65-5.33,74.35-21.32.04.26,1.02,1.06,1.09,1.09Z"/>
      <path class="cls-23" d="M254.14,369.31c15.01-.65,31.86,6.62,42.64,16.95,22.21,21.28,23.62,54.88,4.1,78.45-34.37,41.49-107.88,17.08-101.68-46.47,2.55-26.1,29.19-47.81,54.94-48.93Z"/>
      <g>
        <g>
          <path class="cls-1" d="M239.82,407.14c4.2-.45,6.14,1.86,5.48,5.95-5.18,2.75-8.74,8.31-9.18,14.15-.08,1.05-.08,15.36,0,16.49.21,2.94,1.2,5.8,2.25,8.53-4.44,1.15-7.88-.89-10.49-4.4-4.57-6.14-7.2-16.24-6.37-23.8.53-4.87,3.63-5.7,7.73-3.61,1.45-4.38,5.4-12.75,10.59-13.3Z"/>
          <path class="cls-44" d="M240.01,409.3c2.54-.37,3.73,1.2,3.14,2.58-.12.28-2.29,1.43-4.12,3.47-2.44,2.71-4.56,6.94-4.87,10.59-.1,1.19-.18,16.28-.09,17.8.13,2.22.58,4.46,1.31,6.56-1.81.06-3.73-1.42-4.97-2.81-4.84-5.48-7.39-15.81-6.75-22.95.57-6.27,5.26-1.08,5.67-.98,1.86.43,1.98-3.02,3.61-6.42,1.13-2.37,4.26-7.42,7.07-7.82Z"/>
        </g>
        <g>
          <path class="cls-1" d="M269.24,407.14c6.86-.79,10.57,8.08,12.55,13.3,9.14-4.65,8.25,6.69,7.45,12.23-1.06,7.35-6.81,22.36-16.58,19.58,1.25-3,2.15-6.11,2.34-9.37.09-1.43.09-13.94,0-15.18-.43-6.01-3.98-11.7-9.28-14.62-.28-2.92.05-5.55,3.51-5.95Z"/>
          <path class="cls-44" d="M269.89,409.2c3.72-.29,7.04,5.47,8.39,8.39,1.39,3.02,1.63,6.3,3.33,5.95.89-.18,6.62-7.31,5.86,5.76-.37,6.37-4.34,19.54-11.57,21.13l-.23-.23c.64-1.8,1.17-3.9,1.31-5.81.12-1.61.06-17.73-.09-18.93-.45-3.6-2.75-7.87-5.25-10.49-1.33-1.4-3.64-2.92-3.75-3.19-.57-1.41.72-2.48,2.01-2.58Z"/>
        </g>
        <g>
          <path class="cls-1" d="M243.28,386.44c1.2-.19,23.06-.16,24.27,0,1,.14,2.32,1.01,2.76,1.92.6,1.24.58,5.52-.09,6.75-1.78,3.24-7.64,1.4-10.17,1.92-.72.15-1.8,1.47-1.64,2.3.11.16,3.26-.06,3.37.09.14.2-.14,4.67,0,4.87.11.15,1.95-.06,2.06.09.28.4-.07,9.25.09,9.74.11.32,2.8,1.32,5.25,4.22,1.89,2.24,3.58,5.89,3.84,8.81.07.83.08,15.57,0,16.58-.38,4.96-3.18,10.15-5.9,14.24-1.45,2.17-6.49,8.88-8.39,10.17-5.04,3.42-9.02-2.32-11.76-5.86-3.76-4.86-8.43-12.05-8.9-18.27-.08-1.02-.07-16.29,0-17.15.26-2.96,1.83-6.36,3.75-8.62,2.47-2.92,5.24-3.89,5.34-4.22.26-.83-.28-9.26,0-9.65.11-.15,2.05.06,2.15-.09.14-.2-.14-4.67,0-4.87.14-.19,3.16.15,3.28-.19-.56-4.72-8.98.07-11.62-3.84-.22-.32-.6-1.14-.66-1.5-.08-.53-.03-4.38.09-4.87.27-1.1,1.74-2.4,2.86-2.58Z"/>
          <path class="cls-44" d="M244.03,388.4c3.81.21,21.25-.27,22.86,0,2.56.43,2.3,6.16.28,6.56-2.71.54-8.11-1.33-10.26,1.83-1.32,1.93-.11,2.87-2.01,2.58-.9-6.75-7.92-3.77-11.24-4.5-1.85-.41-1.92-6.16.37-6.46Z"/>
          <path class="cls-44" d="M251.53,401.52h7.96l.05,2.76q-4.01.07-8.01.14v-2.9Z"/>
          <g>
            <path class="cls-44" d="M249.37,406.39h12.37c.2,1.48-.11,8.58.05,9.04.13.4,3.82,1.53,6.56,5.34,1.08,1.5,2.43,4.55,2.62,6.37.09.82.09,15.6,0,16.58-.54,6.2-6.92,15.5-11.06,20.14-3.33,3.74-4.56,4.55-8.15.75-4.31-4.56-10.99-14.36-11.62-20.61-.18-1.78-.15-9.51-.09-11.81.12-5.11-.14-8.44,3.47-12.55,2.54-2.9,5.6-3.88,5.72-4.22.22-.65-.27-8.86.14-9.04Z"/>
            <g>
              <path class="cls-1" d="M256.96,416.89c1.16-.14,2.58.57,2.76,1.83.22,1.47-2,7.78-2.44,9.74,2.41.4,7.38-.79,6.93,1.12-1.78,3-8.94,18.42-9.74,19.58-1.59,2.3-4.56,1.05-4.4-1.41.04-.65,3.11-10.21,3.56-12.09-2.56-.41-7.06.85-6.84-1.22.09-.85,7.1-14.49,7.59-15.27.58-.93,1.38-2.15,2.58-2.3Z"/>
              <path class="cls-58" d="M257.24,418.85l.42.33c.24.79-2.74,9.62-3,11.24l6.75.09q-4.36,8.81-8.71,17.61c-.87.38-.41-.77-.09-1.97,1.09-4.19,2.59-8.29,3.75-12.46l-6.7-.05-.14-.23c.77-1.64,6.91-14.48,7.73-14.57Z"/>
            </g>
          </g>
        </g>
      </g>
    </g>
    <path class="cls-18" d="M314,64.27c6.76,18.88,4.94,37.29-6.01,54.12l-2.19-1.64c26.78-42.41-8.78-96.23-58.22-89.66-25.16,3.35-45.99,25.55-48.93,50.57-4.63,39.45,27.72,70.94,64.51,66.42-.5,1.46,1.57,1.18,4.37,1.09.46,1.84,8.79,2.1,13.39,3.28,23,5.91,32.09,15.03,39.36,18.59.76.37.77-.57.82-.55,1.54.66.53,2.59,4.37,1.09,12.73,20.42,34.95,31.55,59.04,28.43l2.73,1.64c-27.43,3.51-40.07-8.17-41-6.29,10.38,16.2,18.37,33.97,19.95,53.3,10.79-38.02,41.75-56.97,80.64-47.01,5.91,4.02,12.61,6.52,18.31,10.93,31.43,24.33,30.73,73.58-1.09,97.31-2.43,1.81-15.55,9.13-17.77,9.84-2.18.7-7.94,1.97-10.11,2.19-35.16,3.46-59.38-14.74-69.97-47.56-2.32,19.64-10.75,37.25-21.59,53.57-1.42,2.13-2.74,1.82-3.28,4.92-2.31,1.54-12.14,10.97-13.67,13.12-.26-2.08-2.3.66-4.37,3.83.26-1.71-1.05-.84-1.64-1.09-.07-.03-1.05-.84-1.09-1.09,34.13-25.15,50.81-69.37,41.55-110.7-16.34-72.94-101.57-108.13-164.28-66.42-52.17,34.7-66.3,105.38-27.61,155.8-2.93.48-4.68-1.54-4.92-1.64,2.5-1-1.87-4.28-4.92-9.57-4.97-8.6-9.25-18.74-11.48-28.43-3.76-16.35.62-16.23-6.56-1.09-14.26,30.07-44.36,44.45-76.54,33.62-26.02-8.75-44.03-37.2-42.09-64.23,1.6-22.43,19.93-45.95,41.55-52.75,31.1-9.79,60.52,3.8,74.9,32.53,9.57,19.13,3.44,24,8.75,1.09,2-8.64,6.67-21.18,10.93-28.97,9.2-16.84,11.46-10.77-4.1-6.29-18.12,5.22-39.98,3.75-55.21-8.2-9.67-7.59-15.44-18.41-22.14-28.43.45-3.96-2.97-12.38-3.28-18.31-1.96-38.05,30.39-68.72,68.06-65.87,1.92.14,15.11,2.72,16.67,3.28.67.24,11.01,6.2,12.3,7.11,27.14,18.92,32.71,52.21,18.86,81.18l.82.82c14.62-12.86,33.94-17.5,52.21-22.69-37.52-9.42-58.1-44.36-45.37-81.73,17.6-51.67,95.63-54.52,115.35.55Z"/>
    <g>
      <path class="cls-31" d="M132.23,78.48c30.39-2.44,60.82,19.79,63.14,51.11,5.07,68.57-79.52,90.24-109.34,38.27-21.23-37.01,3.43-85.95,46.19-89.38Z"/>
      <path class="cls-50" d="M130.04,104.72c3.28-.62,17.03-.23,19.68,1.64,7.68,5.41-1.96,14.58,3.01,18.86,24.15-11.3,22.39,25.97,10.66,27.61-8.03,1.12-8.16-6.77-13.39.82,16.6,21.7-40.58,25.49-25.15-2.73-1.47-1.82-10.57,3.43-16.67.27-6.09-3.15-6.68-26.15,2.19-27.88,6.83-1.33,10.39,5.73,15.03-1.91-5.03-5.4-3.07-15.22,4.65-16.67Z"/>
    </g>
    <g>
      <path class="cls-17" d="M420.33,197.66c27.31-2.33,56.2,16.49,63.14,43.46,16.18,62.82-65.28,101.41-102.78,51.93-28.22-37.24-2.84-91.78,39.63-95.4Z"/>
      <g>
        <path class="cls-12" d="M425.07,215.54c33.07-1.51,54.97,34.07,38.19,62.46-16.39,27.74-57.22,27.68-72.8-.85-15.15-27.75,5.13-60.27,34.61-61.61Z"/>
        <g>
          <path class="cls-22" d="M395.5,272.45h63.06c.68.27-1.88,4.51-2.22,4.61-3.98-.23-29.95.32-31.44-.17-.53-.18-2.04-4.43-4.27.17-3.17-.26-21.64.34-22.73,0-.33-.1-3.08-4.34-2.39-4.61Z"/>
          <path class="cls-22" d="M404.3,263.22c-.22.02-.46-.02-.68,0-.82-1.27-3.71-9.62-4.1-10-.64-.62-3.19-.7-4.19-.77-.52.3,3.94,10.22,4.19,11.28-.28.02-.57-.01-.85,0-.63-2.16-1.55-4.24-2.39-6.32-.23-.56-1.56-4.39-1.79-4.44q-1.58,1.41-3.16,2.82c.58-4.79,1.62-9.66,3.85-13.93,1.46,1.94,1.19,3.97,1.37,4.1.15.11,2.34-1.17,3.42-1.54,6.81-2.31,4.37-1.16.94,3.5,2.9-.89,5.81.56,8.63,1.28l-5.38,1.62q2.73,1.88,5.47,3.76c.13.62-5.1-1.14-5.38-1.11-.83.08.5.98-3.85.09q1.97,4.83,3.93,9.66Z"/>
          <g>
            <path class="cls-3" d="M451.13,283.05c-14.06,12.6-34.44,13.22-48.19-.17q9.57-.09,19.14-.17c-2.23,7.36-3.61,7.64,2.48,1.71,2.56,2.89,1.75,6.75,3.67,5.55l-.94-6.92c.67.58,5.45,2.89,5.9,2.31-.83-.92-1.81-1.66-2.73-2.48.27-.15,1.37-.34,1.62-.34,6.32.04,12.65.35,18.97.17l.09.34Z"/>
            <path class="cls-47" d="M451.13,283.05l-.09-.34c-6.32.18-12.65-.13-18.97-.17-.25,0-1.35.19-1.62.34-1.28-1.13-3.89-3.04-3.33-3.25q13.59.09,27.17.17c-.9,1.21-2.04,2.25-3.16,3.25Z"/>
            <path class="cls-47" d="M422.07,282.7q-9.57.09-19.14.17c-.99-.97-2.16-1.8-2.82-3.08h22.73c.3.17-.65,2.51-.77,2.91Z"/>
          </g>
          <g>
            <path class="cls-22" d="M455.4,263.73c-.68-.02-.49-.17-.51-.17q2.14-5.43,4.27-10.85c-.74-.55-1.59-.38-2.39-.26l.68-.43c-.99-1.31-2.17-2.45-3.25-3.67-1.38-1.56-2.86-3.03-4.1-4.7,2.87.01,5.72.82,7.95,2.65.16-1.54.38-3.16,1.37-4.44,2.05,4.51,3.28,9.45,3.59,14.36l-3.33-3.16q-2.14,5.34-4.27,10.68Z"/>
            <g>
              <path class="cls-22" d="M454.2,248.53c-.46,1.14-3.18,4.69-1.88,4.96-3.37.06-8.2,1.64-7.26.68q2.44-1.75,4.87-3.5l-5.13-1.2c3.01-1.01,6.37-2.77,9.4-.94Z"/>
              <path class="cls-7" d="M456.77,252.46c-.49.08-1.18.1-1.54.43-.42.39-3.79,9.2-4.61,10.51-.69-.06-.49-.17-.51-.17q2.14-4.83,4.27-9.66c-.12-.16-1.71-.09-2.05-.09-1.3-.26,1.42-3.82,1.88-4.96v-.17c1.08,1.22,2.26,2.37,3.25,3.67l-.68.43Z"/>
            </g>
          </g>
          <g>
            <path class="cls-3" d="M450.1,263.22s-.18.11.51.17c2.06.18,2.87.11,4.27.17.03,0-.16.15.51.17.85.03,6.5-.2,6.66.26q-.77,2.61-1.54,5.21h-66.56c-3.16-7.45-2.16-5.11,4.7-5.47.28-.01.57.02.85,0,1.36-.09,2.75-.38,4.1-.51.22-.02.46.02.68,0,4.47-.46,8.92-1.55,13.42-1.88,4.4-.32,9.1-.37,13.5-.17,6.31.28,12.59,1.47,18.88,2.05Z"/>
            <path class="cls-34" d="M396.27,257.41c.84,2.08,1.77,4.16,2.39,6.32-6.86.36-7.86-1.98-4.7,5.47h66.56q-33.45.09-66.9.17c-.51-.17-2.01-5.2-1.62-5.9q3.16-.26,6.32-.51-1.2-2.65-2.39-5.3l.34-.26Z"/>
          </g>
          <g>
            <path class="cls-47" d="M454.03,234.17c.68,4.65-4.33.74-7.18,5.38-.48.78-.94,2.45-1.03,2.56-.23.32-5.8,3.1-6.15,4.79-.09.41,1.86,4.39.43,8.12-.77-.28-1.82-.69-1.62-.17-1.97-.54-6.56-3.04-11.71-4.1-2.58-.54-8.93-1.32-11.36-1.03.37-6.08-6.68-7.54-7.43-8.2-.81-.7.14-4.15-8.63-6.15,14.11-18.02,39.88-18.82,54.69-1.2Z"/>
            <path class="cls-60" d="M455.91,236.56c.06,1.49-2.87.95-3.08,2.22-3.71-1.28-5.82,1.49-3.93,4.7-4.3-.75-7.95,3.8-8.03,4.27-.09.5,2.18,3.27,2.22,3.76.02.19-.99,2.96-.85,3.76-1.3.14-2.59-.1-3.76-.43-.2-.52.85-.11,1.62.17,1.43-3.73-.51-7.71-.43-8.12.35-1.69,5.92-4.47,6.15-4.79.08-.11.55-1.78,1.03-2.56,2.85-4.64,7.86-.73,7.18-5.38.69.82,1.26,1.52,1.88,2.39Z"/>
            <path class="cls-47" d="M452.84,238.78c.21-1.27,3.13-.73,3.08-2.22.45.63,3.25,4.23,2.65,4.44-4.26.58-3.3-1.39-5.72-2.22Z"/>
            <g>
              <path class="cls-60" d="M415.41,249.72c-2.13.26-1.74,1.53-3.33,2.91-.51-.35,1.73-4.22,1.79-4.87.2-1.97-4.27-5.3-7.78-4.19-.76-.34,1.32-2.04-.26-4.02-.97-1.22-3.05-1.56-4.44-.94l-3.59-1.2c.5-.75.99-1.35,1.54-2.05,8.77,2.01,7.82,5.45,8.63,6.15.76.66,7.8,2.12,7.43,8.2Z"/>
              <path class="cls-47" d="M401.4,238.61c-1.91.85-.62,3.03-5.72,2.39.45-1.34,1.37-2.44,2.14-3.59l3.59,1.2Z"/>
            </g>
          </g>
          <path class="cls-12" d="M403.62,263.22c-1.35.13-2.74.43-4.1.51-.25-1.06-4.71-10.98-4.19-11.28,1,.07,3.55.15,4.19.77.39.38,3.28,8.73,4.1,10Z"/>
          <path class="cls-12" d="M454.89,263.56c-1.4-.06-2.22,0-4.27-.17.83-1.31,4.19-10.12,4.61-10.51.36-.33,1.05-.35,1.54-.43.81-.13,1.65-.29,2.39.26q-2.14,5.43-4.27,10.85Z"/>
        </g>
      </g>
    </g>
    <g>
      <path class="cls-57" d="M79.2,198.2c57.01-4.51,88.92,67.85,43.73,104.42-26.21,21.22-66.34,15.36-85.56-12.3-27.99-40.29,2.13-88.97,41.82-92.12Z"/>
      <g>
        <g>
          <path class="cls-43" d="M123.76,232.1c.9.94,1.75,2.43,1.64,3.83-.14.1.15.62-2.19,2.73-.7.63-3.6,1.5-3.83,1.91-.31.57.8,6.16-4.1,7.93-6.93,2.5-12.14-4.7-13.39,0-3.1,1.4-20.1,26.88-21.87,24.33,1.91-4.68,22.08-28.75,22.41-30.61.31-1.7-.8-2.85-1.64-4.1l.55-1.64c.6.78,1.13,1.56,1.91,2.19l4.65-7.65c5.33-2.19,10.76-4.25,15.85,1.09Z"/>
          <path class="cls-53" d="M115.56,251.78c-.13.05-2.47.54-2.73.55-3.1.03-7.69-3.11-10.93-3.83,1.25-4.7,6.46,2.5,13.39,0,4.9-1.77,3.79-7.36,4.1-7.93.23-.41,3.13-1.28,3.83-1.91-.37,4.15-3.82,11.58-7.65,13.12Z"/>
          <path class="cls-24" d="M107.9,231l-4.65,7.65c-.78-.63-1.31-1.4-1.91-2.19-1.54-2-.49-1.58-.55-1.64,3.48-1.9,3.38-2.3,7.11-3.83Z"/>
          <path class="cls-32" d="M125.4,235.92c.11-1.39-.74-2.88-1.64-3.83,14.28.16,6.84.2,1.64,3.83Z"/>
        </g>
        <g>
          <path class="cls-26" d="M100.8,234.83c.06.06-.99-.36.55,1.64l-.55,1.64c-12.28-18.42-57.28-2.6-45.37,32.53,11.32,33.41,66.39,21.41,57.4-18.31.26,0,2.6-.49,2.73-.55,11.34,39.13-48.74,58.94-62.87,19.95-12.57-34.71,30.3-56.62,48.11-36.9Z"/>
          <path class="cls-8" d="M100.8,238.11c.84,1.25,1.95,2.4,1.64,4.1-.33,1.87-20.51,25.93-22.41,30.61,1.77,2.56,18.77-22.92,21.87-24.33,3.24.72,7.84,3.86,10.93,3.83,8.99,39.73-46.08,51.72-57.4,18.31-11.9-35.13,33.09-50.94,45.37-32.53Z"/>
        </g>
      </g>
    </g>
    <g>
      <path class="cls-20" d="M320.56,343.62c-21.7,15.99-47.48,23.63-74.35,21.32-2.51-.22-3.12-.53-3.28-.55-28.41-3.5-55.2-19.28-72.71-42.09-38.69-50.42-24.57-121.1,27.61-155.8,62.7-41.7,147.94-6.52,164.28,66.42,9.26,41.33-7.42,85.56-41.55,110.7Z"/>
      <g>
        <path class="cls-18" d="M256.33,178.52c67.63-.07,104.17,79.27,59.31,130.38-32.72,37.29-91.89,35.22-121.91-4.37-38.09-50.23-3.16-125.94,62.59-126.01Z"/>
        <path class="cls-56" d="M252.5,180.71c29.66-1.28,61.13,15.05,73.53,42.91,22.5,50.57-11.51,106.73-66.42,110.16-108.17-3.43-100.35-149.04-7.11-153.07Z"/>
        <g>
          <path class="cls-52" d="M251.41,205.31c64.22-5.64,83.57,84.4,14.21,103.87-79.86,5.02-78.63-98.21-14.21-103.87Z"/>
          <path class="cls-59" d="M255.23,239.75c22.86-1.39,24.62,31.46,4.92,34.44-25.39,3.85-28.31-33.02-4.92-34.44Z"/>
        </g>
      </g>
    </g>
  </g>
</svg>