<?xml version="1.0" encoding="UTF-8"?>
<svg id="Calque_1" data-name="Calque 1" xmlns="http://www.w3.org/2000/svg" version="1.1" viewBox="0 0 512 512">
    <defs>
        <style>
            .cls-1 {
            fill: #89b466;
            }

            .cls-1, .cls-2, .cls-3, .cls-4, .cls-5, .cls-6, .cls-7, .cls-8, .cls-9, .cls-10, .cls-11, .cls-12, .cls-13,
            .cls-14, .cls-15, .cls-16, .cls-17, .cls-18, .cls-19, .cls-20, .cls-21, .cls-22, .cls-23, .cls-24, .cls-25,
            .cls-26, .cls-27, .cls-28, .cls-29, .cls-30, .cls-31, .cls-32, .cls-33, .cls-34, .cls-35, .cls-36, .cls-37,
            .cls-38, .cls-39, .cls-40, .cls-41, .cls-42, .cls-43, .cls-44, .cls-45, .cls-46, .cls-47, .cls-48, .cls-49,
            .cls-50, .cls-51, .cls-52, .cls-53, .cls-54, .cls-55, .cls-56, .cls-57, .cls-58, .cls-59 {
            stroke-width: 0px;
            }

            .cls-2 {
            fill: #64b0ce;
            }

            .cls-3 {
            fill: #91afba;
            }

            .cls-4 {
            fill: #3a9f7d;
            }

            .cls-5 {
            fill: #357fab;
            }

            .cls-6 {
            fill: #027c6a;
            }

            .cls-7 {
            fill: #718c34;
            }

            .cls-8 {
            fill: #4c9f68;
            }

            .cls-9 {
            fill: #0b4d2c;
            }

            .cls-10 {
            fill: #699bc9;
            }

            .cls-11 {
            fill: #c55a8a;
            }

            .cls-12 {
            fill: #74480b;
            }

            .cls-13 {
            fill: #689b46;
            }

            .cls-14 {
            fill: #0b3154;
            }

            .cls-15 {
            fill: #b56043;
            }

            .cls-16 {
            fill: #541035;
            }

            .cls-17 {
            fill: #72151f;
            }

            .cls-18 {
            fill: #814372;
            }

            .cls-19 {
            fill: #228cac;
            }

            .cls-20 {
            fill: #dc5b35;
            }

            .cls-21 {
            fill: #b9aa20;
            }

            .cls-22 {
            fill: #763312;
            }

            .cls-23 {
            fill: #2c835a;
            }

            .cls-24 {
            fill: #f7af3a;
            }

            .cls-25 {
            fill: #895375;
            }

            .cls-26 {
            fill: #014258;
            }

            .cls-27 {
            fill: #e18f26;
            }

            .cls-28 {
            fill: #79bc82;
            }

            .cls-29 {
            fill: #00444d;
            }

            .cls-30 {
            fill: #742418;
            }

            .cls-31 {
            fill: #6e5e8a;
            }

            .cls-32 {
            fill: #9b6fa1;
            }

            .cls-33 {
            fill: #09989f;
            }

            .cls-34 {
            fill: #546799;
            }

            .cls-35 {
            fill: #24214a;
            }

            .cls-36 {
            fill: #968f24;
            }

            .cls-37 {
            fill: #bb6f9d;
            }

            .cls-38 {
            fill: #a84771;
            }

            .cls-39 {
            fill: #8c9f2c;
            }

            .cls-40 {
            fill: #fc844f;
            }

            .cls-41 {
            fill: #024735;
            }

            .cls-42 {
            fill: #df7189;
            }

            .cls-43 {
            fill: #a15060;
            }

            .cls-44 {
            fill: #6b4f80;
            }

            .cls-45 {
            fill: #c99e24;
            }

            .cls-46 {
            fill: #d35662;
            }

            .cls-47 {
            fill: #db672f;
            }

            .cls-48 {
            fill: #49b6b2;
            }

            .cls-49 {
            fill: #494f10;
            }

            .cls-50 {
            fill: #748bc0;
            }

            .cls-51 {
            fill: #548742;
            }

            .cls-52 {
            fill: #b18425;
            }

            .cls-53 {
            fill: #c14c69;
            }

            .cls-54 {
            fill: #4b71a1;
            }

            .cls-55 {
            fill: #014e49;
            }

            .cls-56 {
            fill: #6a0d26;
            }

            .cls-57 {
            fill: #b9732e;
            }

            .cls-58 {
            fill: #3a1641;
            }

            .cls-59 {
            fill: #838d2b;
            }
        </style>
    </defs>
    <path class="cls-33"
          d="M473.63,390.36c-.31.09-1.17.56-1.22.61-4.21-3.61-9.98-6.97-9.73-13.37,2.31-3.97,7.12-12.04,6.08-13.98,6.7-9.76,10.01-21.58,13.37-32.83,2.56-8.57,5.32-16.95,6.69-25.84-9.2-2.21-18.66-2.97-27.96-4.56q1.82-17.63,3.65-35.26c9.12,1.03,18.15,3,27.36,3.34q-.15-12.92-.3-25.84c-9.04.78-18.03,2.16-27.05,3.04q-2.13-17.33-4.26-34.65c.39-.06.83.06,1.22,0,8.91-1.42,17.8-3.02,26.75-4.26.03.1,1.46-.16,1.82.91,2.11,6.17,2.4,10.2,2.74,10.64.48.62,7.25-3.47,13.98,4.26,4.33-.78-3.98-23.41-2.13-26.75,16.12,67.59,5.78,135.55-31,194.54Z"/>
    <path class="cls-6"
          d="M232.28,510.73c4.76-1.07,28.91.97,30.7,0,.77-.41,4.33-14.93,3.95-17.02,2.43-.13,1.73-.6,1.82-.61,12.55-.77,22.19-1.95,34.65-4.26,9.25-1.71,17.09-3.14,26.14-6.08,11.87-3.86,21.66-8.68,32.83-13.98.39-.19.83.65.91.61,9.03-4.34,15.27-8.68,23.41-13.98,12.37-8.06,16.91-11.68,27.96-21.28,4.93-4.28,10.02-8.01,14.59-12.77,1.42,1.37-3.27,4.32-4.26,6.99-.68,1.85-.64,9.07,3.34,10.64,3.65-3.61,5.88-1.49,6.69-1.82,1.39-.57,18.08-19.39,20.37-22.19,6.01-7.38,15.98-22.98,17.02-24.01.05-.05.9-.52,1.22-.61-52.34,83.94-142.78,128.77-241.35,120.37Z"/>
    <path class="cls-19"
          d="M407.36,50.53c31.83,23.48,60.95,55.76,77.82,91.8.03.07-1.22.18-.61,1.52.58,1.26,4.47,6.95,4.86,7.9,5.09,12.3,8.57,25.09,12.77,37.69-1.47,3.1-1.46-2.73-2.74-3.34-2.89-1.12-11.91,5.78-11.85,7.6.02.49,3.44,4.72,0,8.82-1.81-6.36-2.49-13.02-4.86-20.67-3.24-10.43-7.66-23.95-12.16-33.74-.26-.56-1.18-.22-1.22-.3-2.47-5.27-5.74-13.21-8.51-17.93-3.42-5.83-4.08-4.88-4.26-5.17-3.71-5.92-7.21-12.46-11.55-17.93-4.18-5.28-8.07-8.18-9.73-10.03-6.09-6.81-12.06-13.31-18.85-19.45-1.19-1.08-2.31-2.5-3.65-3.65l1.22-.3c-15.16-11.93-3.6-15.87-6.38-17.33-7.16,1.18-2.9,2.45-4.86,7.3-16.25-12.25-2.55-5.04-2.13-5.78.32-3.33-5.47-4.75-2.74-7.6,5.11,1.31,6.5-1.28,9.12,3.65l.3-3.04Z"/>
    <path class="cls-15"
          d="M47.47,137.46c-1.97,3.53-3.69,7.31-5.47,10.94-6.75,13.79-9.12,19.86-13.37,34.65-1.08,3.77-7.59,23.35-4.86,24.93-5.13,8.21-4.13,24.4-5.47,34.35.65.89,3.5-.64,3.04,1.52-2.12-.01-2.55-1.31-3.65.3-.08,3.54.11,7.1,0,10.64-2.81.75-3.5-2.58-5.78-3.65-.58-.27-5.54-.85-7.3-1.82-2.58-1.43-1.39-4.48-4.56-3.65,1.47-43.84,14.32-83.77,37.08-120.98,5.41-3.52,10.3,4.83,10.33,10.03,0,.32-2.24,2.1,0,2.74Z"/>
    <path class="cls-43"
          d="M125.89,54.78c-1.54.98-1.72,1.75-1.82,1.82-9.48,6.2-18.77,12.33-27.36,19.76-.17.15.15,1.39,0,1.52-.28.24-.87-.64-.91-.61-6.82,6.05-13.11,12.6-19.15,19.45-8.08,9.16-14.69,18.37-21.28,28.57-2.63,4.07-5.53,7.91-7.9,12.16-2.24-.63,0-2.42,0-2.74-.04-5.2-4.92-13.55-10.33-10.03,21.07-34.43,48.66-62.69,82.68-84.5,5.02,4.65,3.31,9.16,6.08,14.59Z"/>
    <path class="cls-5"
          d="M309.49,5.54c35.58,7.6,68.7,23.46,97.88,44.99l-.3,3.04c-2.62-4.93-4-2.34-9.12-3.65-2.74,2.85,3.05,4.27,2.74,7.6-.42.74-14.13-6.48,2.13,5.78,1.96-4.84-2.29-6.11,4.86-7.3,2.79,1.45-8.78,5.4,6.38,17.33l-1.22.3c-8.19-7.07-17.02-13.11-26.14-18.85-6.05-3.81-15.73-9.69-21.89-12.77-11.63-5.82-21.8-9.38-34.04-13.37-8.48-2.76-16.04-5.41-24.93-7.3.39-3.16-4.46-3.48-6.08-5.78,5.06-1.55-.94-4.99,1.22-9.12.2-.38,7.46.38,8.51-.91Z"/>
    <path class="cls-31"
          d="M262.68.07c-12.71-.26-9.82,7.07-6.38,15.2-6.13.44-14.55-1.12-14.29,1.22-11.54.77-22.76,2.67-34.04,4.86-9,1.75-17.38,4.04-26.14,6.69-.11.03-.17-1.22-2.13-.61-6.59,2.06-13.47,5.59-19.76,8.51-8.12-.85-3.8-3.53-4.26-7.6-.85-7.65-4.06-.65-7.9-3.95C185.22,6.58,221.19-.8,262.68.07Z"/>
    <path class="cls-57"
          d="M17.68,254.79c-.17,5.37.4,10.48.61,15.81.57,14.5,1.6,21.72,4.26,35.87.23,1.24.28,2.65.61,4.26-5.13,2.39-12.88,5.69-14.59,10.94C2.23,297.87-.77,270.26.05,245.67c3.17-.83,1.98,2.22,4.56,3.65,1.76.98,6.72,1.55,7.3,1.82,2.28,1.07,2.97,4.4,5.78,3.65Z"/>
    <path class="cls-36"
          d="M55.98,390.36c5.79,8.56,13.83,17.16,20.67,24.93,6.24,7.09,11.56,13.64,18.85,20.06.71.62,1.72,1.83,2.43,2.43-10.8-1.85-3.02,9.2-9.73,10.33-19.73-17.34-30.49-29.86-44.99-51.67,8.59,5.57,2.68-8.32,12.77-6.08Z"/>
    <path class="cls-51"
          d="M180,482.77c5.82,1.82,12.02,4.14,17.93,5.47,7.24,1.62,9.54.52,10.03.61.36.06-1.07.68,6.69,1.82,3.84,3.86-2.57,14.37,2.43,18.24-21.29-3.17-41.63-9.18-61.4-17.63,11.48,4.19-.68-7.92,12.16-12.77,4.1,1.55,7.97,2.95,12.16,4.26Z"/>
    <path class="cls-23"
          d="M237.75,493.1c0,.41-.15,1.11.3,1.22,1.4.33,25.2-.41,28.88-.61.37,2.1-3.18,16.61-3.95,17.02-1.79.97-25.94-1.07-30.7,0-5.16-.44-10.08-1.06-15.2-1.82-5-3.87,1.41-14.37-2.43-18.24,8.22,1.21,14.6,2.58,23.1,2.43Z"/>
    <path class="cls-54"
          d="M309.49,5.54c-1.05,1.29-8.31.53-8.51.91-2.16,4.13,3.85,7.57-1.22,9.12,1.62,2.29,6.47,2.61,6.08,5.78-.37-.08-.85.08-1.22,0-13.95-2.87-20.1-4.02-34.65-4.86-9.39-.54-17.96-.57-27.36,0-.2.01-.41-.01-.61,0-.26-2.34,8.15-.78,14.29-1.22-3.44-8.13-6.33-15.46,6.38-15.2,16.55.35,30.64,2.02,46.81,5.47Z"/>
    <path class="cls-7"
          d="M147.78,469.39c7.87,3.85,11.22,5.78,20.06,9.12-12.84,4.85-.68,16.95-12.16,12.77-13.09-5.59-25.15-12.37-37.08-20.06,1.64-1.92,2.75-9.78,4.26-11.25,2.14-2.09,4.54.99,4.26-1.52,6.78,4.16,13.54,7.45,20.67,10.94Z"/>
    <path class="cls-52"
          d="M23.15,310.72c1.63,7.91,3.01,13.55,5.47,21.28,3.02,9.46,6.82,18.95,10.94,27.96l-7.6-9.12c-.45,4.69-7.25,4.13-3.34,8.21-1.23,5.68-5.4-2.16-7.9-2.74-3.88-9.11-9.65-25.24-12.16-34.65,1.71-5.25,9.46-8.55,14.59-10.94Z"/>
    <path class="cls-36"
          d="M39.56,359.97c.72,1.58,1.66,3.26,2.43,4.86,4.06,8.41,8.22,15.9,13.37,23.71.68,1.03.55,1.74.61,1.82-10.09-2.24-4.18,11.65-12.77,6.08-9.08-13.66-16-24.88-22.49-40.12,2.5.58,6.67,8.41,7.9,2.74-3.9-4.07,2.89-3.51,3.34-8.21l7.6,9.12Z"/>
    <path class="cls-25"
          d="M159.94,35.94c-9.74,4.53-10.93,6.97-11.55,7.3-.4.21-.86-.96-1.52-.61-7.07,3.78-14.2,7.84-20.97,12.16-2.77-5.43-1.06-9.94-6.08-14.59,9.12-5.85,18.17-11.15,27.96-15.81,3.84,3.3,7.05-3.7,7.9,3.95.45,4.07-3.87,6.75,4.26,7.6Z"/>
    <path class="cls-59"
          d="M97.93,437.78c6.92,5.86,17.15,12.64,24.93,17.63.22.14,1.72,1.48,4.26,3.04.28,2.51-2.11-.57-4.26,1.52-1.51,1.47-2.61,9.33-4.26,11.25-12.44-8.02-19.32-13.36-30.4-23.1,6.71-1.14-1.07-12.19,9.73-10.33Z"/>
    <path class="cls-33"
          d="M504.63,195.82c-1.85,3.34,6.46,25.97,2.13,26.75-6.73-7.72-13.5-3.63-13.98-4.26-.33-.44-.63-4.47-2.74-10.64-.37-1.07-1.79-.81-1.82-.91-.12-.39.08-1.84-.61-4.26,3.44-4.1.02-8.32,0-8.82-.06-1.82,8.96-8.72,11.85-7.6,1.27.61,1.26,6.44,2.74,3.34-4.2-12.61-7.68-25.39-12.77-37.69-.4-.96-4.29-6.65-4.86-7.9-.61-1.33.64-1.45.61-1.52,9.46,16.66,15.04,34.98,19.45,53.5Z"/>
    <path class="cls-48"
          d="M358.73,255.4c35.33,1.67,70.64,5.74,105.78,9.73q-1.82,17.63-3.65,35.26c-.2-.03-.41.03-.61,0-30.31-5.17-76.31-12.74-104.56-19.45-14.9-3.54-29.37-8.99-44.38-12.16.9-4.14,1.94-10.43,1.82-14.59,15.19.85,30.4.5,45.6,1.22Z"/>
    <path class="cls-48"
          d="M460.25,211.02q2.13,17.33,4.26,34.65c-35.24,3.45-70.57,5.89-105.78,9.73-15.19-.72-30.41-.36-45.6-1.22-.02-.71-2.02-12.36-2.43-13.98,14.7-3.25,29.04-7.82,43.77-10.94,34.79-7.38,70.65-12.61,105.78-18.24Z"/>
    <path class="cls-29"
          d="M464.51,265.13c-35.14-3.99-70.45-8.06-105.78-9.73,35.21-3.84,70.54-6.28,105.78-9.73,9.03-.88,18.01-2.26,27.05-3.04q.15,12.92.3,25.84c-9.21-.34-18.24-2.31-27.36-3.34Z"/>
    <path class="cls-4"
          d="M457.82,320.45c3.28,2.61,18.86,8.25,24.32,10.33-3.36,11.25-6.68,23.07-13.37,32.83-8.29-4.14-17.08-7.21-25.53-10.94-.04-.02.25-.23-.61-.61,4.79-10.53,9.92-20.93,12.77-32.22.82.36,1.24.86,2.43.61Z"/>
    <path class="cls-6"
          d="M472.41,390.97c-1.04,1.04-11.01,16.63-17.02,24.01-2.28,2.8-18.97,21.62-20.37,22.19-.8.33-3.03-1.79-6.69,1.82-3.98-1.57-4.02-8.79-3.34-10.64.98-2.67,5.67-5.62,4.26-6.99,1.87-1.95,3.68-4.06,5.47-6.08,7.66-8.63,14.85-18.38,21.28-27.96,2.17-3.24,4.71-6.35,6.69-9.73-.25,6.41,5.51,9.77,9.73,13.37Z"/>
    <path class="cls-41"
          d="M443.23,352.67c8.46,3.74,17.24,6.81,25.53,10.94,1.04,1.94-3.76,10.02-6.08,13.98-1.97,3.38-4.51,6.48-6.69,9.73q-11.85-8.82-23.71-17.63c.09-.15-.09-.46,0-.61,3.43-5.5,6.99-11.9,10.94-16.41Z"/>
    <g>
        <path class="cls-26"
              d="M461.47,211.02c-.39.06-.83-.06-1.22,0-35.14,5.62-70.99,10.86-105.78,18.24,33.94-11.61,67.47-24.16,100.92-37.08,1.9,6.18,1.74,13.99,6.08,18.85Z"/>
        <path class="cls-26"
              d="M487.61,202.51c.69,2.41.49,3.86.61,4.26-8.95,1.23-17.83,2.83-26.75,4.26-4.34-4.85-4.18-12.67-6.08-18.85,9.09-3.51,18.21-6.96,27.36-10.33,2.38,7.65,3.05,14.31,4.86,20.67Z"/>
    </g>
    <path class="cls-9"
          d="M369.67,431.7c5.72,7.86,10.94,16.11,17.02,23.71-8.14,5.31-14.38,9.64-23.41,13.98-.08.04-.52-.79-.91-.61q-5.47-13.37-10.94-26.75-22.34-48.94-44.68-97.88c20.36,29.62,41.79,58.48,62.92,87.54Z"/>
    <path class="cls-9"
          d="M319.82,455.41c3.44,8.99,6.33,18.33,9.73,27.36-9.05,2.94-16.89,4.37-26.14,6.08-.9-9.36-2.29-18.67-3.65-27.96-3.01-20.57-6.15-41.23-9.73-61.71-2.62-14.99-6.64-30.45-7.9-45.29,10.73,34.4,24.8,67.86,37.69,101.52Z"/>
    <path class="cls-13"
          d="M414.66,434.13c-11.06,9.6-15.6,13.21-27.96,21.28-6.08-7.6-11.31-15.85-17.02-23.71q13.37-10.03,26.75-20.06,9.12,11.25,18.24,22.49Z"/>
    <path class="cls-13"
          d="M362.38,468.79c-11.17,5.3-20.96,10.12-32.83,13.98-3.4-9.02-6.28-18.36-9.73-27.36q15.81-6.69,31.61-13.37,5.47,13.37,10.94,26.75Z"/>
    <path class="cls-41"
          d="M434.72,415.29c-1.8,2.02-3.6,4.13-5.47,6.08-4.57,4.75-9.66,8.49-14.59,12.77q-9.12-11.25-18.24-22.49v-.61c4.31-3.28,12.63-10.41,13.98-14.59h.61q11.85,9.42,23.71,18.85Z"/>
    <path class="cls-14"
          d="M435.33,96.73c-7.65,6.13-15.38,12.19-23.1,18.24-27.93,21.86-55.05,44.64-82.68,66.87,19.6-20.67,48.93-57.5,67.48-80.86,6.35-7.99,12.51-16.21,19.45-23.71,6.78,6.14,12.76,12.64,18.85,19.45Z"/>
    <path class="cls-19"
          d="M482.75,181.84c-9.15,3.37-18.27,6.82-27.36,10.33-3.04-9.86-8.17-23.44-13.37-32.22.04-.02-.24-.24.61-.61,8.92-3.82,18.19-6.91,26.75-11.55.04.08.96-.25,1.22.3,4.5,9.79,8.92,23.31,12.16,33.74Z"/>
    <path class="cls-5"
          d="M456.61,124.7q-12.16,8.82-24.32,17.63c-5.98-9.67-12.5-18.86-20.06-27.36,7.72-6.05,15.45-12.1,23.1-18.24,1.65,1.85,5.55,4.75,9.73,10.03,4.34,5.48,7.84,12.01,11.55,17.93Z"/>
    <path class="cls-54"
          d="M412.84,73.63c1.33,1.15,2.46,2.57,3.65,3.65-6.94,7.5-13.1,15.72-19.45,23.71-6.98-8.93-16.94-15.77-26.75-21.28,6.01-7.84,12.62-15.25,18.24-23.41l-1.82-1.52c9.12,5.74,17.95,11.78,26.14,18.85Z"/>
    <path class="cls-56"
          d="M78.47,142.33c24.13,18.22,60.1,45.5,85.11,60.79-31.3-15.14-62.92-29.38-94.84-43.16-8.9-3.84-17.5-8.47-26.75-11.55,1.78-3.63,3.5-7.42,5.47-10.94,2.37-4.25,5.28-8.09,7.9-12.16,7.53,5.88,15.49,11.27,23.1,17.02Z"/>
    <path class="cls-30"
          d="M21.33,243.85c4.88.02,16.59,1.8,23.1,2.43,35.64,3.47,71.28,6.28,107,8.82-35.59,2.48-71.09,5.99-106.39,11.25-8.93,1.33-17.8,3.09-26.75,4.26-.21-5.32-.77-10.43-.61-15.81.11-3.54-.08-7.1,0-10.64,1.09-1.61,1.53-.31,3.65-.3Z"/>
    <path class="cls-17"
          d="M54.76,192.18c32.28,12.39,63.96,25.69,97.27,35.26-17.56-1.26-35.56-6.18-53.19-9.12-16.42-2.74-33.05-5.02-49.55-7.3-4.38-.6-23.58-1.91-25.53-3.04-2.73-1.58,3.78-21.16,4.86-24.93,8.62,3.14,17.58,5.84,26.14,9.12Z"/>
    <path class="cls-46"
          d="M68.75,159.96l-13.98,32.22c-8.56-3.28-17.52-5.98-26.14-9.12,4.26-14.79,6.63-20.86,13.37-34.65,9.25,3.08,17.85,7.71,26.75,11.55Z"/>
    <path class="cls-20"
          d="M49.29,211.02q-2.43,17.63-4.86,35.26c-6.51-.63-18.22-2.41-23.1-2.43.46-2.16-2.39-.63-3.04-1.52,1.35-9.95.34-26.14,5.47-34.35,1.95,1.13,21.15,2.44,25.53,3.04Z"/>
    <path class="cls-16"
          d="M148.38,43.23c3.67,8.61,6.74,17.51,10.33,26.14,9.69,23.26,32.79,73.06,44.38,94.84-20.77-28.1-41.17-56.45-62.01-84.5-5.7-7.68-11.31-15.43-17.02-23.1.11-.07.29-.84,1.82-1.82,6.77-4.32,13.9-8.38,20.97-12.16.66-.35,1.12.82,1.52.61Z"/>
    <path class="cls-16"
          d="M96.71,77.88c5.32,7.77,11.26,15.06,17.02,22.49,18.43,23.79,47.77,60.23,68.09,81.46-27.27-22.21-54.49-44.43-82.07-66.26-7.78-6.16-15.57-12.37-23.1-18.85,6.04-6.85,12.33-13.4,19.15-19.45.04-.04.63.85.91.61Z"/>
    <path class="cls-46"
          d="M99.75,115.58c-8.38,7.76-14.69,17.53-21.28,26.75-7.61-5.75-15.57-11.14-23.1-17.02,6.59-10.2,13.2-19.41,21.28-28.57,7.53,6.48,15.32,12.69,23.1,18.85Z"/>
    <path class="cls-53"
          d="M124.07,56.61c5.72,7.67,11.32,15.42,17.02,23.1-9.56,6.25-19.2,12.61-27.36,20.67-5.76-7.44-11.7-14.72-17.02-22.49.15-.13-.17-1.37,0-1.52,8.58-7.42,17.88-13.56,27.36-19.76Z"/>
    <path class="cls-14"
          d="M386.69,54.78l1.82,1.52c-5.62,8.16-12.23,15.56-18.24,23.41-21.22,27.7-41.41,56.13-61.71,84.5,15.17-31.81,29.59-63.93,44.08-96.05,3.95-8.75,8.43-17.28,12.16-26.14,6.15,3.08,15.83,8.96,21.89,12.77Z"/>
    <path class="cls-35"
          d="M305.84,21.35c8.89,1.88,16.44,4.53,24.93,7.3-3.37,8.65-6.32,17.52-9.73,26.14-12.96,32.81-27.19,65.36-37.69,99.09,4.73-34.72,14.26-69.81,17.02-105.17q2.13-13.68,4.26-27.36c.37.08.85-.08,1.22,0Z"/>
    <path class="cls-34"
          d="M364.81,42.02c-3.73,8.86-8.21,17.39-12.16,26.14q-15.81-6.69-31.61-13.37c3.41-8.62,6.36-17.49,9.73-26.14,12.24,3.99,22.41,7.55,34.04,13.37Z"/>
    <path class="cls-38"
          d="M181.82,28.03l9.12,26.75c-11.14,3.68-22.03,8.81-32.22,14.59-3.6-8.64-6.66-17.53-10.33-26.14.62-.33,1.81-2.76,11.55-7.3,6.29-2.93,13.16-6.45,19.76-8.51,1.96-.61,2.02.64,2.13.61Z"/>
    <path class="cls-18"
          d="M242.01,16.48c.2-.01.41.01.61,0,.83,9.07,1.4,18.32,2.43,27.36q-17.02,2.74-34.04,5.47c-.02-.2.02-.41,0-.61-1.11-9.11-1.83-18.26-3.04-27.36,11.29-2.19,22.5-4.09,34.04-4.86Z"/>
    <path class="cls-16"
          d="M207.96,21.35c1.21,9.09,1.93,18.25,3.04,27.36-1.08.02-.27,1.62-.91,1.82-.91.29-7.8.77-18.54,4.26-.18.06-.43-.06-.61,0l-9.12-26.75c8.76-2.65,17.14-4.94,26.14-6.69Z"/>
    <path class="cls-22"
          d="M155.68,281.54c-34.02,10.79-66.98,24.72-99.7,38.91-9.07,3.93-18.3,7.58-27.36,11.55-2.46-7.72-3.85-13.37-5.47-21.28-.33-1.6-.38-3.02-.61-4.26,9.13-1.69,18.23-3.82,27.36-5.47,21.94-3.98,44.09-7.2,65.96-11.55,13.15-2.62,26.76-6.97,39.82-7.9Z"/>
    <path class="cls-12"
          d="M183.04,327.75c-23.78,27.64-46.66,55.93-69.3,84.5-6.09,7.69-12.52,15.12-18.24,23.1-7.28-6.42-12.61-12.97-18.85-20.06,7.94-5.52,14.98-12.21,22.49-18.24,28.3-22.73,56.6-45.36,83.89-69.3Z"/>
    <path class="cls-45"
          d="M141.09,432.31c-6,7.77-12.01,15.52-18.24,23.1-7.78-4.99-18-11.77-24.93-17.63-.71-.6-1.72-1.81-2.43-2.43,5.72-7.98,12.15-15.41,18.24-23.1q13.68,10.03,27.36,20.06Z"/>
    <path class="cls-45"
          d="M99.14,397.05c-7.51,6.03-14.56,12.71-22.49,18.24-6.84-7.77-14.88-16.36-20.67-24.93-.05-.08.07-.8-.61-1.82,7.57-6.04,15.47-11.69,23.1-17.63q10.33,13.07,20.67,26.14Z"/>
    <path class="cls-12"
          d="M211.61,460.27c-1.29,9.51-2.37,19.06-3.65,28.57-.49-.09-2.8,1.02-10.03-.61-5.91-1.33-12.12-3.66-17.93-5.47,4.04-8.75,7.34-17.82,10.94-26.75,12.68-31.41,27.81-68.33,37.69-100.31-1.33,14.21-5.4,29.06-7.9,43.47-3.51,20.22-6.35,40.76-9.12,61.1Z"/>
    <path class="cls-45"
          d="M190.94,456.02c-3.61,8.93-6.9,18-10.94,26.75-4.19-1.31-8.06-2.71-12.16-4.26-8.84-3.34-12.2-5.26-20.06-9.12,3.97-8.58,7.25-17.45,10.94-26.14l32.22,12.77Z"/>
    <path class="cls-58"
          d="M269.97,16.48c-.42,9.22-2.46,18.25-3.65,27.36-4.72,36.34-7.17,72.96-10.64,109.43-3.01-36.55-6.5-73.02-10.64-109.43-1.03-9.04-1.6-18.29-2.43-27.36,9.4-.57,17.96-.54,27.36,0Z"/>
    <path class="cls-44"
          d="M304.62,21.35q-2.13,13.68-4.26,27.36-17.02-2.43-34.04-4.86c1.18-9.11,3.22-18.14,3.65-27.36,14.55.84,20.71,2,34.65,4.86Z"/>
    <path class="cls-12"
          d="M158.72,443.25c-3.69,8.69-6.97,17.56-10.94,26.14-7.12-3.49-13.89-6.78-20.67-10.94-2.53-1.55-4.04-2.9-4.26-3.04,6.23-7.58,12.24-15.33,18.24-23.1,21.78-28.21,41.58-57.8,62.92-86.33-16.09,31.93-31.3,64.35-45.29,97.27Z"/>
    <path class="cls-27"
          d="M55.98,320.45q6.38,16.11,12.77,32.22c-8.92,4.04-17.81,8.16-26.75,12.16-.78-1.61-1.71-3.29-2.43-4.86-4.12-9.02-7.93-18.5-10.94-27.96,9.06-3.97,18.29-7.62,27.36-11.55Z"/>
    <path class="cls-12"
          d="M165.41,307.08c-30.28,19.27-58.65,41.81-86.93,63.83-7.63,5.94-15.53,11.59-23.1,17.63-5.15-7.81-9.31-15.3-13.37-23.71,8.94-4,17.83-8.12,26.75-12.16,21.45-9.71,42.97-19.47,64.14-29.79,10.67-5.2,22.17-12.07,32.52-15.81Z"/>
    <path class="cls-3"
          d="M271.19,199.47c7.43,1.98,19.51,9.68,24.93,15.2,2.3,2.35,6.83,8.6,8.51,11.55,2.11,3.7,5.06,10,6.08,13.98.42,1.62,2.41,13.27,2.43,13.98.12,4.16-.92,10.45-1.82,14.59-2.16,9.89-9.18,21.61-16.41,28.57-5.53,5.33-17.6,12.7-24.93,14.59-2.86.74-12.58,1.86-15.2,1.82-2.55-.03-12.15-1.22-14.59-1.82-18.92-4.68-39.36-27.41-41.95-42.56-1.47-8.6-.9-20.92,1.22-29.18.59-2.32,3.26-9.62,4.26-11.55,2.5-4.87,7.55-11.44,11.55-15.2,3.12-2.93,10.61-7.77,14.59-9.73,3.69-1.81,6.88-3.29,10.94-4.26,10.02-2.38,20.37-2.67,30.4,0Z"/>
    <path class="cls-28"
          d="M355.69,280.93c33.18,13.11,67,24.58,99.7,38.91-2.85,11.29-7.98,21.69-12.77,32.22-33.37-14.8-66.1-30.9-99.09-46.51q44.38,31.76,88.76,63.53c-.09.15.09.46,0,.61-2.57,4.07-17.33,26.73-21.28,26.75h-.61q-41.64-34.96-83.29-69.91c-3.32-3.67-28.01-29.9-30.09-30.4-.17-.04-1.09,1.65-2.13,1.22,7.23-6.97,14.26-18.69,16.41-28.57,15.01,3.17,29.48,8.62,44.38,12.16Z"/>
    <g>
        <path class="cls-41"
              d="M482.14,330.78c-5.46-2.09-21.04-7.72-24.32-10.33-1.14-.91-2.4-1.38-2.43-1.52-.24-.93,4.77-15.86,4.86-18.54.2.03.41-.03.61,0,9.3,1.58,18.77,2.35,27.96,4.56-1.36,8.88-4.12,17.26-6.69,25.84Z"/>
        <path class="cls-55"
              d="M460.25,300.39c-.1,2.68-5.1,17.61-4.86,18.54.04.14,1.29.61,2.43,1.52-1.19.25-1.62-.25-2.43-.61-32.7-14.33-66.53-25.8-99.7-38.91,28.26,6.72,74.25,14.28,104.56,19.45Z"/>
    </g>
    <path class="cls-2"
          d="M442.02,159.96c5.21,8.78,10.34,22.36,13.37,32.22-33.44,12.93-66.98,25.48-100.92,37.08-14.74,3.13-29.07,7.69-43.77,10.94-1.02-3.98-3.97-10.28-6.08-13.98,14.03-6.99,27.38-15.39,41.34-22.49,29.17-14.85,65.68-30.72,96.05-43.77Z"/>
    <path class="cls-41"
          d="M442.62,352.06c.86.38.57.59.61.61-3.95,4.51-7.52,10.92-10.94,16.41q-44.38-31.76-88.76-63.53c32.99,15.61,65.72,31.71,99.09,46.51Z"/>
    <path class="cls-8"
          d="M456,387.32c-6.43,9.58-13.62,19.34-21.28,27.96q-11.85-9.42-23.71-18.85c3.95-.02,18.71-22.67,21.28-26.75q11.85,8.82,23.71,17.63Z"/>
    <path class="cls-1"
          d="M327.12,326.53c23.36,25.79,46.82,57.48,69.3,84.5v.61q-13.37,10.03-26.75,20.06c-21.14-29.07-42.56-57.92-62.92-87.54q22.34,48.94,44.68,97.88-15.81,6.69-31.61,13.37c-12.89-33.66-26.96-67.12-37.69-101.52-4.35-13.93-7.69-28.4-12.16-41.95,7.32-1.89,19.39-9.26,24.93-14.59,1.03.44,1.95-1.26,2.13-1.22,2.08.5,26.77,26.73,30.09,30.4Z"/>
    <g>
        <path class="cls-39"
              d="M299.76,460.88c1.36,9.3,2.75,18.61,3.65,27.96-12.46,2.3-22.1,3.48-34.65,4.26-.48-7.93-1.53-15.82-2.43-23.71-.16-1.44-.44-2.8-.61-4.26q17.02-2.13,34.04-4.26Z"/>
        <path class="cls-39"
              d="M269.97,311.94c4.46,13.55,7.81,28.02,12.16,41.95,1.27,14.84,5.28,30.3,7.9,45.29,3.58,20.47,6.72,41.14,9.73,61.71q-17.02,2.13-34.04,4.26c-4.11-36.23-6.68-72.56-10.33-108.82q-.3-21.28-.61-42.56c2.61.03,12.33-1.09,15.2-1.82Z"/>
    </g>
    <g>
        <path class="cls-49"
              d="M266.32,469.39c.9,7.89,1.95,15.78,2.43,23.71-.1,0,.6.48-1.82.61-3.68.19-27.47.94-28.88.61-.45-.11-.31-.81-.3-1.22,1.29-.02,3.27,1.74,4.86-.3.99-2.22,1.9-23.3,2.43-27.66,0-.07.41.47.61-1.22,1.6,3.63,18.4.58,19.15,1.22,1.02.87-.82,4.71,1.52,4.26Z"/>
        <path class="cls-49"
              d="M265.72,465.14c.17,1.46.44,2.82.61,4.26-2.34.45-.5-3.38-1.52-4.26-.75-.64-17.55,2.41-19.15-1.22,4.3-35.76,7.34-71.66,9.73-107.6,3.66,36.26,6.23,72.59,10.33,108.82Z"/>
    </g>
    <path class="cls-41"
          d="M410.4,396.44c-1.35,4.18-9.67,11.31-13.98,14.59-22.48-27.02-45.94-58.71-69.3-84.5q41.64,34.96,83.29,69.91Z"/>
    <g>
        <path class="cls-21"
              d="M245.05,465.14c-.54,4.36-1.44,25.44-2.43,27.66-1.6,2.05-3.57.28-4.86.3-8.5.15-14.88-1.22-23.1-2.43-7.76-1.15-6.33-1.76-6.69-1.82,1.28-9.51,2.36-19.06,3.65-28.57q16.72,2.43,33.44,4.86Z"/>
        <path class="cls-21"
              d="M254.77,313.76q.3,21.28.61,42.56c-2.39,35.94-5.42,71.85-9.73,107.6-.2,1.68-.6,1.15-.61,1.22q-16.72-2.43-33.44-4.86c2.76-20.34,5.61-40.88,9.12-61.1,2.5-14.41,6.57-29.25,7.9-43.47,4.46-14.42,8.35-29.02,11.55-43.77,2.44.6,12.04,1.79,14.59,1.82Z"/>
    </g>
    <path class="cls-50"
          d="M352.65,68.16c-14.49,32.12-28.91,64.24-44.08,96.05,20.3-28.38,40.49-56.8,61.71-84.5,9.81,5.51,19.77,12.35,26.75,21.28-18.56,23.35-47.88,60.19-67.48,80.86-10.77,11.36-23,21.14-33.44,32.83-5.41-5.52-17.49-13.22-24.93-15.2,3.61-15.34,7.47-30.54,12.16-45.6,10.5-33.73,24.73-66.28,37.69-99.09q15.81,6.69,31.61,13.37Z"/>
    <path class="cls-10"
          d="M432.29,142.33c.09.15-.09.46,0,.61q-43.16,30.4-86.33,60.79c-13.96,7.11-27.31,15.5-41.34,22.49-1.68-2.95-6.21-9.2-8.51-11.55,10.44-11.68,22.67-21.47,33.44-32.83,27.63-22.23,54.74-45.01,82.68-66.87,7.56,8.5,14.08,17.69,20.06,27.36Z"/>
    <g>
        <path class="cls-14"
              d="M469.37,147.8c-8.56,4.64-17.83,7.73-26.75,11.55-3.91-5.15-6.96-10.91-10.33-16.41-.09-.15.09-.46,0-.61q12.16-8.82,24.32-17.63c.18.28.83-.66,4.26,5.17,2.77,4.73,6.04,12.67,8.51,17.93Z"/>
        <path class="cls-14"
              d="M432.29,142.93c3.37,5.5,6.42,11.27,10.33,16.41-.85.36-.57.59-.61.61-30.37,13.05-66.88,28.92-96.05,43.77q43.16-30.4,86.33-60.79Z"/>
    </g>
    <path class="cls-42"
          d="M99.75,115.58c27.58,21.83,54.8,44.05,82.07,66.26,10.58,11.06,22.55,20.86,33.44,31.61-4.01,3.76-9.05,10.33-11.55,15.2,0-.47.69-3.19.61-3.34-1.06-2.07-28.04-14.43-40.73-22.19-25.01-15.3-60.98-42.57-85.11-60.79,6.59-9.22,12.89-18.99,21.28-26.75Z"/>
    <path class="cls-42"
          d="M163.58,203.12c12.69,7.76,39.67,20.12,40.73,22.19.08.15-.61,2.87-.61,3.34-.99,1.93-3.66,9.23-4.26,11.55-2.74-2.99-9.92-2.75-13.68-3.65-11.26-2.69-22.6-5.92-33.74-9.12-33.31-9.57-64.98-22.87-97.27-35.26l13.98-32.22c31.92,13.78,63.53,28.02,94.84,43.16Z"/>
    <g>
        <path class="cls-47"
              d="M45.04,266.34q2.43,17.33,4.86,34.65c-9.13,1.66-18.23,3.78-27.36,5.47-2.65-14.14-3.68-21.36-4.26-35.87,8.95-1.16,17.82-2.93,26.75-4.26Z"/>
        <path class="cls-40"
              d="M152.03,227.44c11.14,3.2,22.48,6.43,33.74,9.12,3.75.9,10.94.66,13.68,3.65-2.12,8.26-2.68,20.58-1.22,29.18-14.12,4.26-28.5,7.7-42.56,12.16-13.06.93-26.67,5.29-39.82,7.9-21.87,4.35-44.02,7.57-65.96,11.55q-2.43-17.33-4.86-34.65c35.3-5.26,70.79-8.77,106.39-11.25-35.72-2.54-71.35-5.35-107-8.82q2.43-17.63,4.86-35.26c16.5,2.27,33.12,4.56,49.55,7.3,17.63,2.94,35.64,7.86,53.19,9.12Z"/>
    </g>
    <path class="cls-37"
          d="M191.55,54.78c11.63,33.65,26.33,66.35,37.08,100.31,4.62,14.6,8.11,29.61,12.16,44.38-4.06.97-7.25,2.44-10.94,4.26.39-2.6-2.56.84-3.65.3-2.06-1.02-20.58-35.08-23.1-39.82-11.59-21.78-34.69-71.58-44.38-94.84,10.19-5.78,21.08-10.91,32.22-14.59.18-.06.42.06.61,0Z"/>
    <path class="cls-11"
          d="M203.1,164.21c2.52,4.74,21.04,38.8,23.1,39.82,1.09.54,4.04-2.9,3.65-.3-3.98,1.95-11.47,6.8-14.59,9.73-10.88-10.76-22.86-20.56-33.44-31.61-20.31-21.23-49.66-57.67-68.09-81.46,8.16-8.06,17.79-14.42,27.36-20.67,20.84,28.05,41.24,56.4,62.01,84.5Z"/>
    <path class="cls-32"
          d="M245.05,43.84c4.14,36.41,7.63,72.88,10.64,109.43,3.47-36.47,5.92-73.08,10.64-109.43q17.02,2.43,34.04,4.86c-2.76,35.36-12.3,70.45-17.02,105.17-4.69,15.05-8.55,30.26-12.16,45.6-10.03-2.67-20.37-2.38-30.4,0-4.05-14.77-7.54-29.78-12.16-44.38-2.21-19.71-7.62-39.98-10.94-59.88-2.54-15.18-4.8-30.62-6.69-45.9q17.02-2.74,34.04-5.47Z"/>
    <path class="cls-16"
          d="M211,49.31c1.88,15.28,4.15,30.72,6.69,45.9,3.32,19.9,8.73,40.17,10.94,59.88-10.75-33.96-25.45-66.66-37.08-100.31,10.74-3.48,17.63-3.97,18.54-4.26.64-.2-.17-1.81.91-1.82.02.2-.02.41,0,.61Z"/>
    <path class="cls-24"
          d="M183.04,327.75c-27.29,23.94-55.6,46.58-83.89,69.3q-10.33-13.07-20.67-26.14c28.28-22.02,56.66-44.56,86.93-63.83,12.67-8.06,26.07-14.82,38.6-23.1,1.44,4.42,8.21,10.54,8.21,11.25,0,2.18-22.17,24.38-29.18,32.52Z"/>
    <g>
        <path class="cls-24"
              d="M198.24,269.38c2.59,15.15,23.02,37.87,41.95,42.56-3.2,14.75-7.1,29.35-11.55,43.77-9.88,31.98-25.01,68.9-37.69,100.31l-32.22-12.77c13.99-32.92,29.2-65.34,45.29-97.27-21.34,28.53-41.14,58.11-62.92,86.33q-13.68-10.03-27.36-20.06c22.64-28.58,45.52-56.87,69.3-84.5,7.01-8.15,29.19-30.34,29.18-32.52,0-.71-6.77-6.83-8.21-11.25-12.53,8.28-25.93,15.04-38.6,23.1-10.35,3.74-21.85,10.6-32.52,15.81-21.16,10.32-42.69,20.08-64.14,29.79q-6.38-16.11-12.77-32.22c32.72-14.19,65.68-28.11,99.7-38.91,14.06-4.46,28.44-7.9,42.56-12.16Z"/>
        <path class="cls-24" d="M215.56,298.56c3.31,2.77-.72,1.95-.3.3l.3-.3Z"/>
    </g>
</svg>