<?xml version="1.0" encoding="UTF-8"?>
<svg xmlns="http://www.w3.org/2000/svg" version="1.1" viewBox="0 0 512 512">
  <defs>
    <style>
      .cls-1 {
        fill: #3b422d;
      }

      .cls-2 {
        fill: #f6ca2d;
      }

      .cls-3 {
        fill: #f39200;
      }

      .cls-4 {
        fill: #485633;
      }

      .cls-5 {
        fill: #3c4e37;
      }

      .cls-6 {
        fill: #2b3d39;
      }
    </style>
  </defs>
  <g>
    <g id="Calque_1">
      <g>
        <path class="cls-3" d="M247.6,78.2c137.5-5.9,232.5,142.8,163.2,264.6-49,86.3-157.8,116.8-244.1,66.7-89.3-51.9-116.1-170.5-56.2-255.3,31.1-44.1,82.9-73.7,137.1-76Z"/>
        <path class="cls-2" d="M356.2,284.8c-1.9.7-.1-5.1,0-7.3,1.2-22.4-3.6-46.1-15.8-65.2,13.6-16.3,33.3-24.5,52.3-32.7,18.6,39.6,6.7,70.3-25.2,97-2.5,2.1-10.1,6.7-11.3,8.3h0Z"/>
        <g>
          <path class="cls-6" d="M340.4,212.1c12.2,19.1,17,42.8,15.8,65.2-.1,2.3-1.9,8.1,0,7.3-2.4,2.9-1.6,6-2.5,9.5-19.1,73-97.6,103.9-159.7,68.8-39.3-22.2-59.2-59.1-58.4-104,0-3.1,1.5-11.9,1.4-12.6-.2-1.2-6.5-7.9-9.7-21.6-1.5-6.5-4.8-30.1.5-34.3,5.2-4.1,24.2-4.9,30.9-4.7,1,0,6.5,1.2,6.8,1.1,1.4-.5,10.4-26.1,14-27.3,2.4-.8,16.9,2.3,20.1,3.2,6.6,1.9,11.2,5,11.9,5,1.5,0,7.6-5.7,28.8-6.5,25.5-1,50,5.5,70.8,20.5,9.6,6.9,22.9,20.3,29.3,30.2h0Z"/>
          <path class="cls-2" d="M183.6,169.8c4-1.6,26.2,6.5,31.3,8.6,10.5,4.5,16.3,10.1,4.5-3.7,58-17.5,121.9,24.2,127.2,85.1,5.2,60-43.1,109.7-102.9,107.6-58.8-2.1-102.4-53.9-98.2-111.9,1.2-.6,4.3,3.9,4.3,2.2-8.4-18.5-15.6-38.3-15.1-58.9,16-4.7,33.2-3,49,1.6-.8-4.7-8.7-10.6-8.8-11.3-.1-1.1,7.8-18.8,8.8-19.2h0Z"/>
          <g>
            <path class="cls-1" d="M246.5,198.2c2.1.8,12.7-.2,13.3,0,1.4.6-.4,12.2,1.1,13.3,1.2,1,15.2,1.3,28.5,12.7-4.7,6.4-9.5,12.8-14.2,19.2-14.2-16.9-38.7-11.4-31.8,2.3,4.8,9.6,28.7,8.6,42.2,20.3,16.8,14.5,13.7,41.1-7.9,53.1-8.6,4.8-14.2,4.5-14.5,5.2-.4.7.5,16.3-.1,16.7h-13.7c-.6-.5.3-16-.4-16.5-1.7-1.2-19.5,1.5-36.5-15.6l14.5-20.3c9.3,14.5,35.6,18.7,42.2,8.1,9.6-15.4-20.9-19-30.3-22.8-27.6-11.2-28.5-40.9-7.9-55.3,7.7-5.4,14.5-5.5,14.9-6.3.5-.9-.8-13.6.5-14.2h0Z"/>
            <path class="cls-4" d="M199.8,263.9c2.9,0-3.1,5.5,4.8,1.2-4.1,6.5,1.4,4.6,1.1,6.1-7.6,0-.5,7.8-6.3,1.9l-.5.5c-7.9,28.8-33.7,15.3-32.7,12.2,14.2,7.8,28.1,3.7,30.6-13.3-4.4-.6,1.2-1.1-1.4-6.8,5,2.1,2.9-1.9,4.5-1.9h0Z"/>
            <path class="cls-6" d="M198.7,220c1.7,0,5.9.4,7.3,1.2-10,2.1-15,10.2-17,19.6-5.2-9.1-1.8-20.3,9.7-20.9h0Z"/>
            <path class="cls-5" d="M205.9,203.6c4.1,5.5,5.9-2.9,4.8,3.7,7.6,1.6-2.9.8,2.9,6.1-7.3-2.3-2,6.4-7-.1-6.1,4.5,1.7-1.9-3.7-5.5,5.8.9,2.1-3.5,3-4.1h0Z"/>
            <path class="cls-5" d="M173.9,261.4c1.6.5,2.2,2.2,4,1.8,4.3-4.4-1.2,2.6,4.5,2.3-6.5,4.1,3.7,6.5-4.1,4.8-2.5,6.7-.6-1.6-5.9.9,3.5-5-1.7-4.8-1.1-5.8.4-.6,5.5,2.2,2.7-4.1h0Z"/>
            <g>
              <path class="cls-6" d="M155.8,211.1c1-.3,1.9-.4,2.9-.7.6-.1,5.6-1.5,5.8-1.2-7,6-9.1,12.9-10.6,21.7.1-2.4-4.3-17.4-3.7-18.1.1-.2,4.9-1.4,5.8-1.6h0Z"/>
              <path class="cls-1" d="M155.8,211.1c-.9.2-5.6,1.4-5.8,1.6-.5.8,4,15.8,3.7,18.1,1.5-8.8,3.6-15.8,10.6-21.7-.1-.3-5.1,1.1-5.8,1.2l10.8-3.7c-11.6,6.5-14.2,16.8-15.2,29.3-1.5-7.9-3-15.7-4.5-23.5,0,0,6.1-1.2,6.1-1.2Z"/>
            </g>
            <path class="cls-6" d="M194,185.2l7.3,6.6c-14.4-3.9-21.1,3.9-7.3-6.6Z"/>
          </g>
        </g>
      </g>
    </g>
  </g>
</svg>