<?xml version="1.0" encoding="utf-8"?>

<svg version="1.1" id="AILogoColorRightText" xmlns="http://www.w3.org/2000/svg"
	 x="0px" y="0px" viewBox="0 0 795.1 250.5" style="enable-background:new 0 0 795.1 250.5;" xml:space="preserve">
<style type="text/css">
	.st0{fill:#B4B1B4;}
	.st1{fill:#333333;}
	.st2{fill-rule:evenodd;clip-rule:evenodd;fill:#2F69B3;}
	.st3{fill-rule:evenodd;clip-rule:evenodd;fill:#F6851F;}
</style>
<g id="logo">
	<g id="Advanced_1_">
		<path class="st0" d="M287.9,49.7h12l24.8,69.1h-12.1l-6-18.3h-25.7l-6,18.3h-11.6L287.9,49.7z M284,91.3h19.6L294,61.6h-0.3
			L284,91.3z"/>
		<path class="st0" d="M373.3,118.8h-9.7V112h-0.2c-2.7,5.7-8.6,8.1-14.4,8.1c-14.7,0-21.8-11.7-21.8-26.7c0-18.1,10-26,20.2-26
			c5.9,0,12.3,2.3,15.5,7.8h0.2V49.7h10.3V118.8z M350.3,111.4c9.2,0,13.1-9,13.1-17.7c0-11-5-17.6-12.9-17.6
			c-9.6,0-13.1,9.2-13.1,18.2C337.4,102.9,341.4,111.4,350.3,111.4z"/>
		<path class="st0" d="M379.8,68.7H391l11.8,38.4h0.2l11.4-38.4H425l-16.7,50h-11.5L379.8,68.7z"/>
		<path class="st0" d="M470.2,107.6c0,2.7,0.5,3.8,2.4,3.8c0.6,0,1.4,0,2.5-0.2v7.6c-1.5,0.6-4.8,1.3-6.5,1.3
			c-4.1,0-7.1-1.5-7.9-6.1c-4.1,4.3-10.6,6.1-16.1,6.1c-8.4,0-15.9-4.8-15.9-14.6c0-12.5,9.3-14.5,17.9-15.6c7.4-1.5,14-0.6,14-7.1
			c0-5.7-5.5-6.8-9.6-6.8c-5.8,0-9.8,2.5-10.3,7.9h-10.3c0.7-12.9,10.9-16.6,21.2-16.6c9.1,0,18.6,4,18.6,14.5V107.6z M459.9,93.7
			c-3.2,2.2-8.1,2.1-12.6,3c-4.4,0.8-8.4,2.5-8.4,8.3c0,4.9,5.9,6.4,9.5,6.4c4.5,0,11.5-2.5,11.5-9.5V93.7z"/>
		<path class="st0" d="M481.3,68.7h9.7v7.4l0.2,0.2c3.1-5.5,8.4-8.9,14.5-8.9c10.1,0,16.5,5.8,16.5,17v34.3h-10.3V87.3
			c-0.2-7.8-3.1-11.2-9.1-11.2c-6.8,0-11.3,5.8-11.3,13.2v29.5h-10.3V68.7z"/>
		<path class="st0" d="M564.5,85.5c-0.8-6.1-5-9.4-10.6-9.4c-5.3,0-12.8,3-12.8,18.2c0,8.3,3.4,17.1,12.3,17.1
			c5.9,0,10.1-4.3,11.1-11.4h10.3c-1.9,13-9.4,20.1-21.4,20.1c-14.6,0-22.6-11.1-22.6-25.8c0-15.1,7.7-26.9,23-26.9
			c10.8,0,20,5.8,21,18.1H564.5z"/>
		<path class="st0" d="M591.1,96.6c0,7.8,4,14.8,12.5,14.8c5.9,0,9.6-2.8,11.4-8.3h9.7c-2.3,10.9-10.9,17-21.1,17
			c-14.6,0-22.8-10.9-22.8-26.3c0-14.2,8.6-26.4,22.5-26.4c14.7,0,23.7,14.2,22,29.2H591.1z M615.1,89.4c-0.4-7-4.8-13.3-11.7-13.3
			c-7.1,0-12,5.8-12.3,13.3H615.1z"/>
		<path class="st0" d="M677.1,118.8h-9.7V112h-0.2c-2.7,5.7-8.6,8.1-14.4,8.1c-14.7,0-21.8-11.7-21.8-26.7c0-18.1,10-26,20.2-26
			c5.9,0,12.3,2.3,15.5,7.8h0.2V49.7h10.3V118.8z M654.1,111.4c9.2,0,13.1-9,13.1-17.7c0-11-5-17.6-12.9-17.6
			c-9.6,0-13.1,9.2-13.1,18.2C641.2,102.9,645.2,111.4,654.1,111.4z"/>
	</g>
	<g id="Installer_1_">
		<path class="st1" d="M263.2,129.6h14.1v69.1h-14.1V129.6z"/>
		<path class="st1" d="M289.8,129.6h14.1l26.8,46.3h0.2v-46.3h13.2v69.1H330l-26.8-46.2h-0.2v46.2h-13.2V129.6z"/>
		<path class="st1" d="M366.2,175.7c0,9.2,6.7,12.8,14.2,12.8c5,0,12.5-1.5,12.5-8.6c0-7.4-9.6-8.7-19.1-11.4
			c-9.6-2.7-19.2-6.7-19.2-19.6c0-14.1,12.4-20.9,24.1-20.9c13.4,0,25.8,6.3,25.8,22.2h-13.7c-0.5-8.3-5.9-10.4-12.7-10.4
			c-4.5,0-9.7,2-9.7,7.8c0,5.3,3.1,6,19.2,10.4c4.7,1.3,19.1,4.4,19.1,20.1c0,12.7-9.3,22.2-26.8,22.2c-14.2,0-27.6-7.5-27.4-24.6
			H366.2z"/>
		<path class="st1" d="M429.3,142.4H410v-12.8h52.7v12.8h-19.3v56.3h-14.1V142.4z"/>
		<path class="st1" d="M481,129.6h14.5l24.1,69.1h-14.7l-4.9-15.4H476l-5,15.4h-14.3L481,129.6z M479.7,172h16.7l-8.1-25.3H488
			L479.7,172z"/>
		<path class="st1" d="M525.2,129.6h14.1v56.3h31.4v12.8h-45.5V129.6z"/>
		<path class="st1" d="M578.6,129.6h14.1v56.3h31.4v12.8h-45.5V129.6z"/>
		<path class="st1" d="M632,129.6h48.1v12.8h-34v14.8h31.2V169h-31.2v16.9h34.7v12.8H632V129.6z"/>
		<path class="st1" d="M690.4,129.6h34.7c11.5,0,18.8,8.6,18.8,19.1c0,8.1-3.1,14.2-10.2,17.3v0.2c6.9,1.9,8.9,9.2,9.4,16.2
			c0.3,4.4,0.2,12.5,2.7,16.3h-14.1c-1.7-4.4-1.5-11-2.3-16.5c-1-7.3-3.6-10.4-10.7-10.4h-14.1v27h-14.1V129.6z M704.6,160.8h15.5
			c6.3,0,9.7-2.9,9.7-9.9c0-6.7-3.4-9.6-9.7-9.6h-15.5V160.8z"/>
	</g>
	<g id="Emblem">
		<path class="st2" d="M162.5,49.9l-8.2,31.4c-0.1,0.3-0.2,0.5-0.3,0.8c-0.2,0.5-0.5,0.9-0.9,1.2c-0.4,0.3-1,0.3-1.5,0.2
			c-0.3,0-0.6,0-0.9-0.1l-4.1-1.1c-0.4-0.1-0.7-0.2-1.1-0.4c-0.4-0.1-0.7-0.4-1-0.7c-0.2-0.2-0.4-0.5-0.6-0.8
			c-1.4-2.3-3.6-3.9-6.1-4.5c-5.7-1.5-11.6,2.5-13.3,8.9c-0.8,3.1-0.5,6.3,1,9c1.4,2.6,3.6,4.4,6.4,5.1c2.7,0.7,5.2,0.3,7.4-1.1
			c0.3-0.2,0.6-0.3,0.9-0.4c0.5-0.3,1.1-0.4,1.6-0.3c0.4,0,0.7,0,1,0.1l4,1c0.3,0.1,0.5,0.2,0.8,0.3c0.5,0.2,0.9,0.5,1.2,0.9
			c0.3,0.4,0.3,1,0.2,1.5c0,0.3,0,0.6-0.1,0.9l-1.6,6.3c10.9,3.9,18.8,14.3,18.8,26.6c0,15.6-12.6,28.3-28.3,28.3
			c-15.6,0-28.3-12.6-28.3-28.3c0-1.5,0.1-3,0.4-4.5l-6.3-1.6c-0.3-0.1-0.5-0.2-0.8-0.3c-0.5-0.2-0.9-0.5-1.2-0.9
			c-0.3-0.4-0.3-1-0.2-1.5c0-0.3,0-0.6,0.1-0.9l1.1-4.1c0.1-0.4,0.2-0.7,0.4-1.1c0.1-0.4,0.4-0.7,0.7-1c0.2-0.2,0.5-0.4,0.8-0.6
			c2.3-1.5,4-3.6,4.6-6c0.7-2.7,0.2-5.6-1.4-8.1c-1.7-2.6-4.3-4.4-7.5-5.2c-3.1-0.8-6.3-0.5-9,0.9c-2.6,1.4-4.5,3.6-5.2,6.4
			c-0.7,2.7-0.4,5.2,1,7.4c0.2,0.3,0.3,0.6,0.4,0.9c0.3,0.5,0.4,1.1,0.3,1.6c0,0.4,0,0.7-0.1,1l-1.1,4.1c-0.1,0.3-0.2,0.5-0.3,0.8
			c-0.2,0.5-0.5,0.9-0.9,1.2c-0.4,0.3-1,0.3-1.5,0.2c-0.3,0-0.6,0-0.9-0.1l-31.4-8.2c-1.4,6.3-2.2,12.9-2.2,19.7
			c0,48.9,39.6,88.5,88.5,88.5c48.9,0,88.5-39.6,88.5-88.5C226.3,94.6,199.3,60.6,162.5,49.9z"/>
		<path class="st3" d="M150.6,77.8l7.3-28.1c0.1-0.5-0.2-1.1-0.7-1.2l-82-21.3c-0.5-0.1-1.1,0.2-1.2,0.7l-21.3,82
			c-0.1,0.5,0.2,1.1,0.7,1.2l28.3,7.3c0.5,0.1,1.1-0.2,1.2-0.7l0.3-1.2c0.1-0.3,0-0.5-0.1-0.8c-1.8-3.2-2.3-6.8-1.3-10.5
			c1-3.9,3.6-7.2,7.4-9.2c3.7-1.9,8-2.4,12.2-1.3c4.2,1.1,7.8,3.6,10,7.1c2.3,3.6,3,7.7,2,11.6c-0.9,3.4-3.1,6.4-6.2,8.5
			c-0.2,0.1-0.4,0.3-0.4,0.6l-0.4,1.4c-0.1,0.5,0.2,1.1,0.7,1.2l28.3,7.4c0.5,0.1,1.1-0.2,1.2-0.7l7.4-28.5c0.1-0.5-0.2-1.1-0.7-1.2
			l-1.2-0.3c-0.3-0.1-0.5,0-0.8,0.1c-3.2,1.9-6.8,2.3-10.5,1.4c-3.9-1-7.2-3.6-9.2-7.3c-1.9-3.7-2.4-8-1.3-12.2
			c2.3-8.8,10.7-14.2,18.7-12.1c3.5,0.9,6.4,3.1,8.5,6.1c0.1,0.2,0.3,0.4,0.6,0.4l1.4,0.3C149.9,78.7,150.5,78.3,150.6,77.8z"/>
	</g>
</g>
</svg>
