<?xml version="1.0" encoding="UTF-8"?>
<svg id="Calque_1" data-name="Calque 1" xmlns="http://www.w3.org/2000/svg" version="1.1" viewBox="0 0 512 512">
  <defs>
    <style>
      .cls-1 {
        fill: #007ee5;
        stroke-width: 0px;
      }
    </style>
  </defs>
  <path class="cls-1" d="M150.94,17.51L0,115.32l105.06,84.53,150.94-94.19S150.94,17.51,150.94,17.51ZM0,281.96l150.94,99.02,105.06-88.15-150.94-92.98S0,281.96,0,281.96ZM256,292.83l106.26,88.15,149.74-97.81-103.85-83.32s-152.15,92.98-152.15,92.98ZM512,115.32L362.26,17.51l-106.26,88.15,152.15,94.19,103.85-84.53ZM257.21,312.15l-106.26,88.15-44.68-30.19v33.81l150.94,90.57,150.94-90.57v-33.81l-45.89,30.19s-105.06-88.15-105.06-88.15Z"/>
</svg>