<?xml version="1.0" encoding="UTF-8"?>
<svg xmlns="http://www.w3.org/2000/svg" version="1.1" xmlns:xlink="http://www.w3.org/1999/xlink" viewBox="0 0 398 512">
    <defs>
        <style>
            .cls-1 {
            fill: #2d503e;
            }

            .cls-2 {
            fill: url(#Nameless_Gradient_39);
            }

            .cls-3 {
            fill: url(#Nameless_Gradient_54);
            }

            .cls-4 {
            fill: #dba256;
            }

            .cls-5 {
            fill: #968438;
            }

            .cls-6 {
            fill: #6b6926;
            }

            .cls-7 {
            fill: #22443b;
            }

            .cls-8 {
            fill: #eeb662;
            }

            .cls-9 {
            fill: #e78f64;
            }

            .cls-10 {
            fill: #c3ba40;
            }

            .cls-11 {
            fill: #c77626;
            }

            .cls-12 {
            fill: #fab180;
            }

            .cls-13 {
            fill: #7c6c31;
            }

            .cls-14 {
            fill: #3e614c;
            }

            .cls-15 {
            fill: #53623a;
            }

            .cls-16 {
            fill: #ab322c;
            }

            .cls-17 {
            fill: #eb7a26;
            }

            .cls-18 {
            fill: #fcf0ba;
            }

            .cls-19 {
            fill: #f3a05c;
            }

            .cls-20 {
            fill: #7b7a4d;
            }

            .cls-21 {
            fill: #f4ca4e;
            }

            .cls-22 {
            fill: #f87938;
            }

            .cls-23 {
            fill: #c4954c;
            }

            .cls-24 {
            fill: url(#Nameless_Gradient_16-2);
            }

            .cls-25 {
            fill: #725220;
            }

            .cls-26 {
            fill: url(#Nameless_Gradient_43);
            }

            .cls-27 {
            fill: url(#Nameless_Gradient_42);
            }

            .cls-28 {
            fill: #b2ae51;
            }

            .cls-29 {
            fill: #f6ebd2;
            }

            .cls-30 {
            fill: #7e3021;
            }

            .cls-31 {
            fill: #6c674f;
            }

            .cls-32 {
            fill: url(#Nameless_Gradient_49);
            }

            .cls-33 {
            fill: #916f37;
            }

            .cls-34 {
            fill: #6d8b94;
            }

            .cls-35 {
            fill: #a65c52;
            }

            .cls-36 {
            fill: #e8bc87;
            }

            .cls-37 {
            fill: #eea03f;
            }

            .cls-38 {
            fill: #c05b32;
            }

            .cls-39 {
            fill: #612113;
            }

            .cls-40 {
            fill: url(#Nameless_Gradient_41);
            }

            .cls-41 {
            fill: #3e1b20;
            }

            .cls-42 {
            fill: #545747;
            }

            .cls-43 {
            fill: #7d6f4c;
            }

            .cls-44 {
            fill: url(#Nameless_Gradient_53);
            }

            .cls-45 {
            fill: #567452;
            }

            .cls-46 {
            fill: #c8d0d6;
            }

            .cls-47 {
            fill: #7c423f;
            }

            .cls-48 {
            fill: #ebe090;
            }

            .cls-49 {
            fill: #f08c2f;
            }

            .cls-50 {
            fill: #b4671d;
            }

            .cls-51 {
            fill: #c3a75a;
            }

            .cls-52 {
            fill: #47150b;
            }

            .cls-53 {
            fill: #6b7539;
            }

            .cls-54 {
            fill: #fefcef;
            }

            .cls-55 {
            fill: #ae813c;
            }

            .cls-56 {
            fill: #683730;
            }

            .cls-57 {
            fill: #d7a47b;
            }

            .cls-58 {
            fill: #8e4316;
            }

            .cls-59 {
            fill: url(#Nameless_Gradient_16);
            }

            .cls-60 {
            fill: #ca671f;
            }

            .cls-61 {
            fill: #88634e;
            }

            .cls-62 {
            fill: url(#Nameless_Gradient_52);
            }

            .cls-63 {
            fill: #f8e969;
            }

            .cls-64 {
            fill: #7a999b;
            }

            .cls-65 {
            fill: #fdda9f;
            }

            .cls-66 {
            fill: #6a6f48;
            }

            .cls-67 {
            fill: #9e9335;
            }

            .cls-68 {
            fill: #ebedef;
            }

            .cls-69 {
            fill: #773113;
            }

            .cls-70 {
            fill: #837e2c;
            }

            .cls-71 {
            fill: #d78f2a;
            }

            .cls-72 {
            fill: #f6a17f;
            }

            .cls-73 {
            fill: #b3983b;
            }

            .cls-74 {
            fill: #56272a;
            }

            .cls-75 {
            fill: #fce07c;
            }

            .cls-76 {
            fill: #ab4b16;
            }

            .cls-77 {
            fill: #df5a1a;
            }

            .cls-78 {
            fill: #ac614b;
            }

            .cls-79 {
            fill: #998f53;
            }

            .cls-80 {
            fill: #c67b5e;
            }
        </style>
        <linearGradient id="Nameless_Gradient_16" data-name="Nameless Gradient 16" x1="201.92" y1="256.49" x2="196.27"
                        y2="509.68" gradientTransform="translate(-.07 -515.6) scale(1 2.01)"
                        gradientUnits="userSpaceOnUse">
            <stop offset="0" stop-color="#384864"/>
            <stop offset=".52" stop-color="#64848d"/>
            <stop offset=".58" stop-color="#6e8d8f"/>
            <stop offset="1" stop-color="#aeb87e"/>
        </linearGradient>
        <linearGradient id="Nameless_Gradient_16-2" data-name="Nameless Gradient 16" x1="201.26" y1=".01" x2="195.61"
                        y2="253.2" gradientTransform="matrix(1,0,0,1,0,0)" xlink:href="#Nameless_Gradient_16"/>
        <linearGradient id="Nameless_Gradient_52" data-name="Nameless Gradient 52" x1="339.89" y1="355.26" x2="89.42"
                        y2="362.71" gradientUnits="userSpaceOnUse">
            <stop offset="0" stop-color="#d16739"/>
            <stop offset=".33" stop-color="#faaf5e"/>
            <stop offset=".82" stop-color="#fcc359"/>
        </linearGradient>
        <linearGradient id="Nameless_Gradient_53" data-name="Nameless Gradient 53" x1="41.21" y1="445.08" x2="30.35"
                        y2="489.99" gradientUnits="userSpaceOnUse">
            <stop offset="0" stop-color="#81352b"/>
            <stop offset="1" stop-color="#60261e"/>
        </linearGradient>
        <linearGradient id="Nameless_Gradient_54" data-name="Nameless Gradient 54" x1="87.34" y1="360.12" x2="47.6"
                        y2="381.89" gradientUnits="userSpaceOnUse">
            <stop offset="0" stop-color="#b3582f"/>
            <stop offset="1" stop-color="#8d3b25"/>
        </linearGradient>
        <linearGradient id="Nameless_Gradient_42" data-name="Nameless Gradient 42" x1="179.83" y1="169.59" x2="181.29"
                        y2="250.88" gradientUnits="userSpaceOnUse">
            <stop offset="0" stop-color="#fefbe9"/>
            <stop offset="1" stop-color="#f8e6bc"/>
        </linearGradient>
        <linearGradient id="Nameless_Gradient_39" data-name="Nameless Gradient 39" x1="235.65" y1="224.12" x2="244.25"
                        y2="329.51" gradientUnits="userSpaceOnUse">
            <stop offset="0" stop-color="#f6dea8"/>
            <stop offset=".87" stop-color="#fdcd91"/>
        </linearGradient>
        <linearGradient id="Nameless_Gradient_43" data-name="Nameless Gradient 43" x1="113.84" y1="313.8" x2="228.41"
                        y2="356.24" gradientUnits="userSpaceOnUse">
            <stop offset="0" stop-color="#692d2b"/>
            <stop offset="1" stop-color="#a26251"/>
        </linearGradient>
        <linearGradient id="Nameless_Gradient_49" data-name="Nameless Gradient 49" x1="264.88" y1="317.55" x2="307.97"
                        y2="338.65" gradientUnits="userSpaceOnUse">
            <stop offset="0" stop-color="#9b5c4e"/>
            <stop offset="1" stop-color="#592c2e"/>
        </linearGradient>
        <linearGradient id="Nameless_Gradient_41" data-name="Nameless Gradient 41" x1="199.8" y1="395.92" x2="278.03"
                        y2="563.38" gradientUnits="userSpaceOnUse">
            <stop offset="0" stop-color="#f2b169"/>
            <stop offset="1" stop-color="#d96838"/>
        </linearGradient>
    </defs>
    <!-- Generator: Adobe Illustrator 28.7.1, SVG Export Plug-In . SVG Version: 1.2.0 Build 142)  -->
    <g>
        <g id="Layer_1">
            <g id="Background">
                <rect class="cls-59" x="-.07" y=".86" width="398.14" height="511.84"/>
                <path class="cls-24"
                      d="M-.03,117.71C0,78.76-.05,39.8-.03.86h398.08c.03,16.13-.04,32.29,0,48.43-6.12.7-16.47,2.51-15.33,10.66-4.68-4.01-8.14-1.75-5.33,4-4.77-6.52-11.38-5.9-14.66,1.33-4-2.42-9.72-1.66-13.55,1.11l48.87.22c.02,14.21-.01,28.44,0,42.65,0,.43,0,.9,0,1.33,0,1.03,0,2.08,0,3.11,0,.43,0,.9,0,1.33,0,.88,0,1.78,0,2.67v2.22c0,.29,0,.6,0,.89,0,.43,0,.9,0,1.33,0,.29,0,.6,0,.89,0,.43,0,.9,0,1.33,0,.15,0,.3,0,.44,0,.43,0,.9,0,1.33,0,.74,0,1.48,0,2.22,0,.43,0,.9,0,1.33,0,.15,0,.3,0,.44,0,.43,0,.9,0,1.33,0,.15,0,.3,0,.44,0,.58,0,1.2,0,1.78,0,.15,0,.3,0,.44v4c0,.15,0,.3,0,.44v3.55c0,.29,0,.6,0,.89v3.11c0,1.62,0,3.26,0,4.89,0,.58,0,1.2,0,1.78,0,.15,0,.3,0,.44v2.22c0,14.95,0,29.92,0,44.87-14.48,2.83-25.22,15.69-29.55,29.32-12.38-4.74-28.05,6.55-28.43,19.55-5.99-7.77-14.55-7.67-22.88-3.55-5.45-10.17-10.98-20.29-18.22-29.32,10.44.06,21.14.39,31.54-.67-9.65-6.86-15.43-1.18-16.66-1.56-5.49-12.63-19.75-24.86-33.99-17.77-72.93-60.28-176.42-27.57-207.48,59.53-.88-.33-2.59-.73-3.55-.89-4.78-.79-9.81-.79-14.44.44-.54-.28-2.71-2.17-2.89-2.22.84-19.46-16.77-29.62-32.21-15.99.39-13.01-6.39-25.29-19.33-28.88,0-23.39-.02-46.81,0-70.2l111.96.22c-6.21-2.91-13.62-4.46-20.22-2-5.09-5.91-9.81-8.52-13.77,0-2.22-23.37-25.14-14.4-25.99-10.44-.45,2.1,4.96,12.57-.89,2.22-.39-.69.48-7.36-12.66-5.55-5.74.79-9.29,4.26-10.66,9.77-3.26-10.68-16.5-18.32-27.77-14.66Z"/>
                <path class="cls-12"
                      d="M-.03,138.14c0-6.81,0-13.63,0-20.44,11.27-3.66,24.51,3.98,27.77,14.66,1.38-5.51,4.92-8.98,10.66-9.77,13.15-1.81,12.27,4.87,12.66,5.55,5.85,10.34.44-.12.89-2.22.85-3.96,23.77-12.93,25.99,10.44,3.96-8.52,8.69-5.91,13.77,0,6.59-2.46,14.01-.91,20.22,2L-.03,138.14Z"/>
                <path class="cls-12"
                      d="M398.06,66.61l-48.87-.22c3.83-2.77,9.55-3.53,13.55-1.11,3.28-7.24,9.89-7.85,14.66-1.33-2.81-5.75.65-8.01,5.33-4-1.14-8.16,9.21-9.97,15.33-10.66.02,5.77,0,11.56,0,17.33Z"/>
                <path class="cls-56"
                      d="M398.06,370.06c-3.26.21-1.27-.17-2.22-2.22-2.94-6.32.6-.88,2.22-6.22,0,2.81,0,5.63,0,8.44Z"/>
                <path class="cls-64" d="M398.06,138.14v-4c0,1.33,0,2.67,0,4Z"/>
                <path class="cls-64" d="M398.06,142.14v-3.55c0,1.18,0,2.37,0,3.55Z"/>
                <path class="cls-64" d="M398.06,146.14v-3.11c0,1.03,0,2.08,0,3.11Z"/>
                <path class="cls-64" d="M398.06,155.47v-2.22c0,.74,0,1.48,0,2.22Z"/>
                <path class="cls-64" d="M398.06,119.93v-2.22c0,.74,0,1.48,0,2.22Z"/>
                <path class="cls-64" d="M398.06,152.8c0-.58,0-1.2,0-1.78v1.78Z"/>
                <path class="cls-64" d="M398.06,133.7c0-.58,0-1.2,0-1.78v1.78Z"/>
                <path class="cls-34" d="M398.06,110.6c0-.43,0-.9,0-1.33v1.33Z"/>
                <path class="cls-64" d="M398.06,131.48c0-.43,0-.9,0-1.33v1.33Z"/>
                <path class="cls-64" d="M398.06,129.7c0-.43,0-.9,0-1.33v1.33Z"/>
                <path class="cls-64" d="M398.06,126.15c0-.44,0-.9,0-1.33v1.33Z"/>
                <path class="cls-64" d="M398.06,124.37c0-.43,0-.9,0-1.33v1.33Z"/>
                <path class="cls-64" d="M398.06,122.15c0-.43,0-.9,0-1.33v1.33Z"/>
                <path class="cls-34" d="M398.06,115.04c0-.43,0-.9,0-1.33v1.33Z"/>
                <path class="cls-54"
                      d="M86.16,43.06c-2.58,1.23,5.74,5.12,8.89,12.66,3.76,9.02,1.73,22.16-.67,17.55-5.73,5.43-.33,4.31-.22,4.67.33,1.05-9.29,10.55-17.99,11.77-2.24.31-9.25-1.02-10.44.44-27.33-13.68-11.61-56.69,20.44-47.09Z"/>
                <path class="cls-12"
                      d="M304.53,128.81c3.31-.15,7.37,1.81,4.44,5.33,23.69-9.35,22.66,7.83,25.32,8.89,5.8.91,11.63-6.88,15.11.44,5.55-11.32,17.65-7.91,24.21,1.11l-126.4.67c1.91-2.09,9.9-2.19,10.66-2.67,3.12-14.79,32.35-15.6,37.76-3.55-3.59-5.42,4.33-10.01,8.89-10.22Z"/>
                <path class="cls-12"
                      d="M344.52,182.57c5.49-.8,5.85,2.8,7.55,7.11,1.12-5.49,4.83-7.75,6-4.22.24.74-1.01,2.04-.22,2.44.85.44,12.28-8.11,12.44,6.66,3.4-4.22,9.48.21,14.44,1.11l-65.98-.22c14.45-12.63,16.46-1.66,17.33-2.22-.31-4.14,4.6-10.1,8.44-10.66Z"/>
                <path class="cls-54"
                      d="M65.73,90.16c1.19-1.46,8.21-.13,10.44-.44,8.71-1.23,18.32-10.72,17.99-11.77-.11-.35-5.51.77.22-4.67,2.39,4.61,4.43-8.53.67-17.55-3.14-7.54-11.46-11.43-8.89-12.66,8.64,2.59,16.74,11.65,17.77,20.66,2.44,21.26-18.83,36.13-38.21,26.44Z"/>
                <path class="cls-12"
                      d="M60.17,182.13c5.19-1.06,6.29,3.39,6.66,3.55.55.25,4.94-6.32,8.89,3.11l-34.88-.22c1.96-1.44,4.12-3.11,6.44-1.11,4.81-6.71,7.08-2.69,7.55-2.67.22.01,1.2-1.64,1.78-1.33.29.16-.76,1.75,0,2.22.21.13,1.89-3.21,3.55-3.55Z"/>
                <path class="cls-68"
                      d="M330.3,21.74c.27,0,.58,2.35.67,2.44.45.52,2.87-1.09.89.89,4.76,2.05-.1.84-.89,2.22-.47.81.62,5.41-2-.67-6.22-1.13.46.43,1.33-4.89Z"/>
                <path class="cls-68"
                      d="M30.85,93.27c3.97,4.8,2.36.76.44,5.33-1.09-.09-.12-2.24-3.33-2.44l2.89-2.89Z"/>
                <path class="cls-68"
                      d="M219.23,55.51c1.06,2.12,3.88,2.18,1.78,4.44-.09.1-1.03-1.71-1.33,1.33-4.49-5.54-1.65-.63-.44-5.78Z"/>
                <path class="cls-68"
                      d="M102.82,10.63c.3,3.04,1.24,1.24,1.33,1.33,3.47,3.6-.82.63-.89,4.44-4.02-5.39-2.62.02-.44-5.78Z"/>
                <path class="cls-54"
                      d="M200.57,143.47l2.89,2.89-2.44,2.44c-3.72-4.33-1.62-2.49-1.11-3.33.22-.36.48-1.95.67-2Z"/>
                <polygon class="cls-68" points="100.6 167.47 103.93 169.47 101.05 171.91 98.6 169.47 100.6 167.47"/>
                <path class="cls-68" d="M233.45,15.07c3.36,3.98,3.23,1.22.44,4.89-3.75-4.28-1.65-.69-.44-4.89Z"/>
                <path class="cls-68" d="M31.29,163.02c.17-.06,2.23,1.96,2.89,2-3.86,5.15-4.82-1.36-2.89-2Z"/>
                <path class="cls-54"
                      d="M297.87,168.35c.3.38,2.93,2.26,2.89,2.44-.04.17-2.28,2.5-2.44,2.44-.15-.05-2.01-2.29-2-2.44.01-.15,1.45,0,1.56-2.44Z"/>
                <path class="cls-68" d="M159.69,99.05c1.15,3.23,3.56,1.43.44,5.33-5.32-4.83-.94,0-.44-5.33Z"/>
                <path class="cls-46" d="M30.85,27.07c1.16-.13,1.71,2.39.44,3.11-.8.46-1.93-2.94-.44-3.11Z"/>
                <path class="cls-46" d="M375.62,35.51c.35-.15,1.55,1.39,2,1.56-3.49,3.36-2.74-1.24-2-1.56Z"/>
                <path class="cls-46" d="M380.95,101.27c1.49-.16,1.54,2.55.44,2.67-1.49.16-1.54-2.55-.44-2.67Z"/>
                <path class="cls-68" d="M279.21,57.28c.97-.25,1.61,3.57,0,3.55-1.08-.01-.64-3.39,0-3.55Z"/>
                <path class="cls-68" d="M147.25,27.07c1.32-.18,1.48,3.2,0,3.11-.85-.05-.99-2.97,0-3.11Z"/>
                <path class="cls-68" d="M200.57,98.6c1.55,0,.38,2.67,0,2.67s-1.55-2.67,0-2.67Z"/>
                <path class="cls-68" d="M335.63,84.83c1.65-.12.34,2.41-.44,2.22-.43-.11-1.11-2.11.44-2.22Z"/>
                <path class="cls-68" d="M349.41,155.91c.08,0,1.18.9.89,1.33-1.18,1.74-3.73-1.47-.89-1.33Z"/>
                <path class="cls-29" d="M61.06,52.84c3.55-.41-.34,6.32-2.22,5.78-1.5-.43.91-5.62,2.22-5.78Z"/>
                <path class="cls-29" d="M69.5,45.73c4.82-.33-2.68,4.69-1.56,1.11.07-.23,1.46-1.1,1.56-1.11Z"/>
                <path class="cls-29" d="M94.38,63.06c1.23-.37,1.48,2.65.89,3.11-.63.49-2.2-2.71-.89-3.11Z"/>
                <path class="cls-29" d="M85.5,47.95c.49-.32,2.25.16,2,1.11-.45,1.75-3.38-.21-2-1.11Z"/>
            </g>
            <g>
                <path class="cls-41"
                      d="M398.06,361.62c-1.62,5.34-5.16-.1-2.22,6.22.37,3.72-14.62,2.36-20.66,2.67-.6.03-6.21,1.33-7.78,1.11-.3-2.34.47-3.17.44-3.33,7.93-.7,14.43-3.68,19.99-9.33,5.06-5.14,7.78-11.07,10.22-17.77,0,6.81,0,13.63,0,20.44Z"/>
                <path class="cls-30"
                      d="M12.41,370.95c-.08,3.17.64,9.92.22,10.22l-12.66-.44c0-4.73,0-9.48,0-14.22,3.89,2.64,7.36,5.1,12.44,4.44Z"/>
                <path class="cls-62"
                      d="M332.74,317.64c-.41,2.41-1.48,15.66-1.33,17.11.17,1.72.78.83.89,1.56,1,6.61,6.29,19.76,12.44,22.66-.16,1.42-.03,1.43.89,2.22l-1.33,14.22c-6.99,1.08-13.92,2.33-20.88,3.55-7.98,1.41-16.04,2.87-23.99,4.44-1.18.23-2.31.28-3.11.44.81-6.15-4.88-11.26-9.33-8.22,1.61,9.52-.2.78-2.44-.22-3.25-1.46-4.58,2.33-4.22,4.89-3.47-1.86-7.82-.85-9.77,2.67h-.44c-.38-3.5-2.15-6.07-6-4.89-5.06,4.35-8.67,1.15-10,12-1.05.17-.84-.44-.89-.44-2.49-7.99-8.62-5.95-8.44,2.22-1.31,2.05.57-10.29-3.78-8.89-2.39.77-1.94,13.96-3.33,2.89-3.2-2.86-4.42.44-6.66,2.44-1.88-4.18-6.07-6.9-10.66-7.11-4.21-.19-2.9.73-3.11.89l-.67,1.33c.91-.61.61-1.29.67-1.33,2.15-.16-1.84,4.67-2,10.66-2.01-7.13.34-7.37.22-7.78-.13-.43-1.32-.03-1.33-.44,0-.33,1.96-2.83,1.78-3.11-.66-1.05-8.13,2.42-9.33,5.78-1.65,4.64,1.36,8.32,1.33,8.89-.15,3.4-3.8-3.16-4.67-3.33-2.35-.46-4.87.42-6,2.67-.37-1.9-7.54-1.28-12.22-1.78-2.1-.22-4.85-1.31-5.11-1.33-.4-5.63-1.5-2.11-4.67-4.44-5.27,6.22.22-4.77-4-5.78-2.37-.56-3.52,2.77-3.55,4.44l-6.89-2.22c-.02-.16-.97-.36-1.33-2.89-.05-.32.98-3.95.44-6.44-.69-3.25-4.23-4.26-4.44-4.67-.14-.25-.09-5.03-1.56-5.55-2.92-1.04-5.95,2.59-4.67,5.33-6.34,2.25-1.09,10.91-5.78,16.88.02-.13-.58.49,0-2.67.09-.47,3.77-6.49.67-8.89-.97-.75-20.72-5.09-23.77-5.78-11.5-2.57-23.17-4.42-34.65-7.11.17-3.23-.13-6.53,0-9.77,18.11-.11,99.81,12.22,107.74,11.11.22-.03,1.94-.62,1.56-1.33,13.56,1.17,35.26-2.93,48.87-6.22,34.45-8.33,58.64-21.28,88.86-38.65Z"/>
                <g>
                    <path class="cls-22"
                          d="M392.28,292.76c2.59,7.6,3.66,15.81,5.78,23.55,0,8.29,0,16.59,0,24.88-2.44,6.7-5.16,12.63-10.22,17.77l-19.55-20.88c3.35-6.89,13.04-17.76,13.33-18.88.08-.3.09-.94-.22-1.11-.91.81-1.67,1.74-2.44,2.67-9.33,7.75-1.06-.29,2.44-11.11l-14.44,20.88c-.32-15.47-.68-30.94-.44-46.43-.26-.36-1.96-.36-2.22,0-.82,1.16,1.53,24.86.44,28.43-2.22-1.06-8.53-15.11-9.33-15.55l-.89.44c11.71,18.42,10.52,18.7,10.22,40.43-3.54-1.9-14.51-25.42-15.55-23.1,3.37,6.7,10.02,15.74,12.88,21.99l-17.33,22.21c-6.15-2.9-11.44-16.05-12.44-22.66.63-3.28-.21-6.64,0-10,.24-3.89,2.46-10.43.89-10,.44-2.27,1.63-5.27,2.22-7.55,3.08-11.96,9.96-32.45,18.22-41.54,7.01-7.72,16.5-8.81,23.99-1.33,4.83,4.82,12.39,20.21,14.66,26.88Z"/>
                    <path class="cls-39"
                          d="M366.95,330.52c.04,2.04-1.13,4.52-.22,6.66,4.65-4.96,7.92-11.27,12.22-16.44.77-.93,1.54-1.86,2.44-2.67.31.17.3.81.22,1.11-.28,1.12-9.98,11.99-13.33,18.88-.06.12-1.16,1.05-1.78,2,.92,8.38-.31,19.88.44,27.55.03.34.88.61.89.67.03.17-.74.99-.44,3.33,1.56.22,7.18-1.08,7.78-1.11,6.04-.31,21.03,1.05,20.66-2.67.95,2.05-1.03,2.44,2.22,2.22,0,.15,0,.3,0,.44l-29.99,1.78c-1.53.68-.27,17.26-.22,19.99.02,1.18-.02,2.38,0,3.55.05,3.4-.04,6.82,0,10.22v4.44c-.41.08-.48.36-.89.44-3.32-1.04-2.38-1.47-2.67-4-.77-6.77.44-23.43.44-31.99,0-.59,0-1.19,0-1.78,0-4.02-.44-4.64-.44-4.89-.02-8.6.93-17.35.44-25.99-.52-2.1-1.79-3.64-2.67-5.55-2.86-6.26-9.51-15.3-12.88-21.99,1.04-2.32,12.01,21.21,15.55,23.1.3-21.73,1.49-22.01-10.22-40.43l.89-.44c.8.44,7.11,14.49,9.33,15.55,1.08-3.58-1.27-27.27-.44-28.43.26-.36,1.96-.36,2.22,0-.24,15.49.12,30.96.44,46.43Z"/>
                    <path class="cls-77"
                          d="M364.29,368.29c-6.48.02-13.76-2.9-18.66-7.11-.92-.79-1.05-.8-.89-2.22l17.33-22.21c.87,1.91,2.14,3.46,2.67,5.55.49,8.64-.46,17.39-.44,25.99Z"/>
                    <path class="cls-77"
                          d="M387.84,358.96c-5.56,5.65-12.07,8.63-19.99,9.33,0-.05-.85-.32-.89-.67-.76-7.67.48-19.17-.44-27.55.62-.95,1.72-1.88,1.78-2l19.55,20.88Z"/>
                    <path class="cls-77"
                          d="M378.95,320.75c-4.3,5.17-7.57,11.48-12.22,16.44-.9-2.15.26-4.62.22-6.66l14.44-20.88c-3.5,10.81-11.78,18.86-2.44,11.11Z"/>
                    <path class="cls-19"
                          d="M332.3,336.3c-.11-.73-.72.16-.89-1.56-.14-1.44.92-14.69,1.33-17.11.04-.26.27-.45.44-1.33,1.57-.43-.64,6.11-.89,10-.21,3.36.63,6.72,0,10Z"/>
                </g>
                <g>
                    <path class="cls-48"
                          d="M7.97,483.8c-6.44-2.03-3.72-7.4-8-1.33,0-.88,0-1.78,0-2.67,5.43-1.2-1.21-15.12,12.88-23.55-7.25,5.93-14.74,21.08-4.89,27.55Z"/>
                    <path class="cls-44"
                          d="M39.51,440.26c.25,1.19,1.66.7,2.22,1.33,1.96,2.19,3.85,3.75,3.55,7.11,18.32,4.33,25.64,25.41,14.22,39.99-.9.49-5.01,2.02-6.66,2.67-6.83,2.64-13.9,4.39-21.1,5.78-.82,1.91.63,12.74-.89,13.33-3.54,1.36-2.08-8.83-2-12.44.07-3.18.73-6.34.44-9.55-.25-.41-8.08-1.7-9.33-2-1.76-.41-3.55-.92-5.33-1.33-2.25-.52-4.4-.62-6.66-1.33-9.85-6.47-2.36-21.61,4.89-27.55.25-2.38,1.66-7.16,3.11-8.89.07-.09.96-.66,1.78-1.33,5.43-4.44,12.56-4.89,19.1-6.22.57-.12,1.05.14,1.78-.44.08.07-.37,1.11.89.89Z"/>
                    <path class="cls-48"
                          d="M62.17,458.48c.32.5,1.18,1.89,1.33,2.22.82,1.75,1.48,4.69,1.78,6.66.82,5.49.73,14.37-2.67,19.1-1.61,2.24-2.4,1.83-3.11,2.22,11.43-14.57,4.1-35.65-14.22-39.99,5.79-1.18,13.92,5.14,16.88,9.77Z"/>
                </g>
                <path class="cls-30"
                      d="M39.07,360.29c-.11,3.99.29,8,0,12-.22,2.94-.58,5.92-.67,8.89H13.97c-.69-.49.67-8.52.67-9.77,4.38-1.24,7.55-1.8,11.11-4.89,3.56-3.09,3.84-5.44,5.33-8,2.41.98,5.33,2.69,8,1.78Z"/>
                <path class="cls-38"
                      d="M39.07,355.85c-.04,1.47.04,2.97,0,4.44-2.66.91-5.59-.8-8-1.78.23-.39.37-2.05.67-2.22,1.05-.6,3.87,1.64,3.78-.44,1.16.13,2.39-.09,3.55,0Z"/>
                <path class="cls-31"
                      d="M179.91,392.28c-6.28-.56-12.77-.41-19.1-.89-.29-.02-.6.02-.89,0,2.81-4.09,1.42-3.69.89-7.11l6.89,2.22c.04-1.67,1.18-5.01,3.55-4.44,4.22,1-1.27,12,4,5.78,3.16,2.34,4.27-1.18,4.67,4.44Z"/>
                <path class="cls-75"
                      d="M179.91,392.28c.26.02,3.01,1.11,5.11,1.33,4.68.5,11.85-.12,12.22,1.78-.26.51-.49,2.85-.44,3.78-.85.78-1.26-.66-1.33-.67,1.82-4.92-.68-2.16-4.22-3.55-1.12,3.53-14.69-2.58-12.22,1.33-2.58-.95-3.88-.9-6.66-.89-.15,0-.3,0-.44,0,.58-1.16-3.07-1.13-4.44-.89.38-1.16-3.24-1.19-4.89-1.33.21-1.63-5.14.02-1.78-1.78,6.33.47,12.83.33,19.1.89Z"/>
                <path class="cls-41"
                      d="M364.29,368.29c0,.25.44.86.44,4.89-6.67-.52-13.76,1.19-20.44,2.22l1.33-14.22c4.9,4.21,12.18,7.13,18.66,7.11Z"/>
                <g>
                    <path class="cls-7"
                          d="M28.85,426.93c.54.88,5.43,1.69,2.67,8.66,6.46-.73,6.77,3.48,7.11,3.78-.73.59-1.21.33-1.78.44-7.66-2.65-13.53,3.35-19.1,4.44-4.14.81-12.52.64-17.77,1.78,0-3.25,0-6.52,0-9.77,5.45-2.7,7.98,3.92,9.11,4,.48.03,2.93-5.54,6.66,1.78,8.45-7.09,12.48-14.49,2-22.21-.07-.05.07-.39,0-.44,9.26-2.18,10.27,6.19,11.11,7.55Z"/>
                    <g>
                        <path class="cls-14"
                              d="M17.3,418.93c-3.62,1.21-3.47,3.38.44.89,10.48,7.72,6.45,15.13-2,22.21-3.73-7.32-6.18-1.75-6.66-1.78-1.13-.07-3.65-6.7-9.11-4,0-2.07,0-4.15,0-6.22,1.32-.22,2.39.52,3.55.89,3.24,1.03.05-.43,1.78-5.55,1.04-3.08,6.29-5.86,9.33-6.44.63-.12,2.04-1.15,2.67,0Z"/>
                        <path class="cls-75"
                              d="M14.63,418.93c-3.04.58-8.29,3.37-9.33,6.44-1.73,5.12,1.46,6.59-1.78,5.55-.8-6.05,4.48-13.39,11.11-12Z"/>
                        <path class="cls-75"
                              d="M17.3,418.93c.54-.05.42.42.44.44.07.06-.07.39,0,.44-3.92,2.49-4.06.32-.44-.89Z"/>
                        <path class="cls-48"
                              d="M14.41,421.6c3.49-1.01-1.9,5.5-1.33,7.55-.5-.08-.07-7.15,1.33-7.55Z"/>
                    </g>
                    <path class="cls-75"
                          d="M36.85,439.82c-6.54,1.33-13.67,1.78-19.1,6.22v-1.78c5.58-1.09,11.45-7.09,19.1-4.44Z"/>
                </g>
                <path class="cls-3"
                      d="M57.28,359.84c5.37,2.8,7.04.75,10,1.33.4.08,6.08,2.95,7.33,3.55,1.57.76,9.49,6.8,10.66,4.44-.27-1.59.33-2.6.44-3.55,2.32.55,17.4,6.35,17.99,7.11,2.61,3.35-4.33,2.09-4.22,6.66-5.03-1.3-8.95-.26-8.89,5.33-11.67-.93-23.4-1.7-35.1-2.22-4.55-1.98-9.53-.46-14.44-.89-.45-.32-.19-6.41-.22-7.55-.13-5.06.42-10.11.44-15.11,5.14.79,10.51.67,15.99.89Z"/>
                <path class="cls-17"
                      d="M120.37,369.62c-.09.81-.04,1.29.67,1.78,2.55,1.78,17.6,9.51,22.44,12.88-.58,3.16.02,2.53,0,2.67-.06.42.02.9,0,1.33,0,.09-.91-.11.22,1.78-10.45-.63-20.91-2.11-31.32-3.11-2.07-9.06-4.23-5.89-5.11-6.22-.91-.33-1.23-2.04-2-2.67-.83-.68-2.08-2.04-3.33-1.78-1.62.34-2.32,8.35-2.44,3.11-.11-4.57,6.83-3.32,4.22-6.66-.59-.76-15.68-6.55-17.99-7.11.12-1-.05-2.09,0-3.11,11.48,2.69,23.15,4.53,34.65,7.11Z"/>
                <path class="cls-42"
                      d="M105.27,378.06c-1.03-.99-.97,1.53-.22,1.33.33-.09.27-1.28.22-1.33.77.63,1.09,2.33,2,2.67.88.33,3.04-2.84,5.11,6.22-7.23-.7-14.56-1.65-21.77-2.22-.07-5.59,3.85-6.63,8.89-5.33.12,5.24.82-2.77,2.44-3.11,1.25-.26,2.5,1.1,3.33,1.78Z"/>
                <g>
                    <g>
                        <path class="cls-17"
                              d="M22.63,328.3c6.77,4.19,12.42,18.7,9.33,26.44.19.58,2.86,1.04,3.55,1.11.09,2.08-2.73-.15-3.78.44-.3.17-.44,1.83-.67,2.22-1.49,2.56-1.77,4.91-5.33,8-4.05-.44-7.3-4.57-10.66-6.66,1.59-4.27,15.77-21.47,1.33-3.78-3.11,6.03-2.52-9.67-2.22-11.11.39-1.87,7.09-9.11,5.11-9.11l-4.89,6.22c-.28-13.89-1.71-11.45-1.78,2.67-.66.5-5.4-7.92-6.44-6,7.63,8.09,6.94,8.55,6.66,19.55-1.29.13-7.69-11.57-8.44-9.33,2.56,3.16,5.57,6.63,7.11,10.44-2.24,3.92-7.11,6.07-11.55,6.22,0-10.66,0-21.33,0-31.99,4.88-4.04,8.15-6.48,14.66-7.55,1.72.08,6.66,1.39,8,2.22Z"/>
                        <path class="cls-39"
                              d="M15.08,359.84c-.02.07-.32.06-.89,1.11-.47,3.45.44,7.07.44,10.44,0,1.25-1.36,9.29-.67,9.77h24.44c.09-2.96.45-5.95.67-8.89l.67,8.89,1.11-7.11c.03,1.15-.22,7.24.22,7.55,4.91.43,9.89-1.09,14.44.89-18.47-.83-37.08-1.32-55.54-.44,0-.44,0-.89,0-1.33l12.66.44c.42-.3-.3-7.05-.22-10.22.08-3.26.86-6.67.44-10-.29-.89-1.29-1.46-1.33-1.56-1.54-3.81-4.55-7.28-7.11-10.44.75-2.24,7.15,9.46,8.44,9.33.27-11,.97-11.46-6.66-19.55,1.04-1.92,5.79,6.5,6.44,6,.07-14.12,1.49-16.56,1.78-2.67l4.89-6.22c1.98,0-4.72,7.24-5.11,9.11-.3,1.44-.88,17.14,2.22,11.11,14.44-17.69.26-.5-1.33,3.78Z"/>
                        <path class="cls-77"
                              d="M12.41,370.95c-5.08.66-8.55-1.8-12.44-4.44,0-.29,0-.6,0-.89,4.44-.15,9.32-2.3,11.55-6.22.04.09,1.04.66,1.33,1.56.42,3.33-.37,6.74-.44,10Z"/>
                        <path class="cls-21"
                              d="M14.63,326.08c-6.51,1.07-9.78,3.51-14.66,7.55,0-.29,0-.6,0-.89,5.14-3.73,7.61-6.98,14.66-6.66Z"/>
                        <path class="cls-77"
                              d="M25.74,366.51c-3.55,3.08-6.72,3.65-11.11,4.89,0-3.37-.92-7-.44-10.44.57-1.06.86-1.04.89-1.11,3.37,2.1,6.61,6.22,10.66,6.66Z"/>
                    </g>
                    <g>
                        <path class="cls-16"
                              d="M55.06,307.86c1.79,9.73,5.47,27.27,3.11,36.43-.14.56-2.06,5.09-2.22,5.33-1.17,1.73-4.71,4.6-6.66,5.33-1.87.7-5.81,1.08-8,1.33.16-30.2.07-60.44-.22-90.64-.68,30.06-1.19,60.17-2,90.19-1.16-.09-2.4.13-3.55,0-.69-.07-3.36-.53-3.55-1.11,3.09-7.74-2.56-22.24-9.33-26.44,1.1-7.28,2.44-14.56,4-21.77.2-.93.25-1.81.44-2.67.01-.05.16.36.44-.89,1.21-5.37,2.62-10.67,4-15.99,2.94-11.35,5.95-22.75,10-33.77,4.72,18.14,10.16,36.2,13.55,54.65Z"/>
                        <path class="cls-65"
                              d="M27.07,303.86c-.19.86-.24,1.74-.44,2.67-.37-1.97-.88-4.02.44-2.67Z"/>
                        <path class="cls-39"
                              d="M41.29,356.29c0,.88,0,1.78,0,2.67-.03,5-.58,10.05-.44,15.11l-1.11,7.11-.67-8.89c.29-4-.11-8.01,0-12,.04-1.47-.04-2.97,0-4.44.81-30.03,1.32-60.13,2-90.19.29,30.2.38,60.43.22,90.64Z"/>
                    </g>
                </g>
                <g>
                    <path class="cls-74"
                          d="M398.06,290.98c0,8.43,0,16.89,0,25.32-2.12-7.74-3.18-15.94-5.78-23.55,1.54-9.73,3,.26,3.78.44,1.02.24,0-3.99,2-2.22Z"/>
                    <path class="cls-57" d="M396.5,294.98c.9-.18.88,1.13.44,1.33-.17.08-1.12-1.2-.44-1.33Z"/>
                </g>
                <path class="cls-65"
                      d="M138.59,353.62c15.67,2.22,47.18,8.09,56.42,8.89.38.72-1.33,1.3-1.56,1.33-7.93,1.11-89.63-11.21-107.74-11.11.07-1.84-.05-3.71,0-5.55,17.63,1.21,35.32,3.96,52.87,6.44Z"/>
                <g>
                    <path class="cls-76"
                          d="M81.72,433.15c.12.54-.09,1.22,0,1.78.22,1.43.49,2.49.44,4-.03.93-.3,1.38-.44,2.22-.99.13-3.46,4.12-13.33,5.33-3.07.38-5.86.17-8.89.44.04-1.54.07-2.94.44-4.44,4.18-2.43,7.58-6.16,12.66-6.66.46-.33.1-1.19.22-1.33.06-.08.66.2.89-.22.49-3.43,1.74-6.47,4-9.11,1.62,2.3,3.37,5.27,4,8Z"/>
                    <path class="cls-17"
                          d="M62.62,416.71c6.16.1,11.6,3.47,15.11,8.44-2.26,2.64-3.51,5.68-4,9.11-.23.42-.82.15-.89.22-2.03-3.22-3.41-1.85-4.89-.89l-7.78,5.33c-.34-10.02-1.32-9.33-1.33-.44-2.87-2.9-5.23-6.31-9.11-8-.16-.07.27-1.14-3.11-.89,3.27-.83.48-1.49.89-4.67.64-4.91,9.76-8.31,15.11-8.22Z"/>
                    <path class="cls-75"
                          d="M62.62,416.71c-5.35-.09-14.47,3.31-15.11,8.22-.41,3.18,2.38,3.83-.89,4.67-4.74.35-5.93,4.14-4.89,8.44-2.57-3.66-.12-9.2,4.67-9.33,1.16-.88-.02-.9.22-1.78,2.38-8.61,6.98-11.11,15.99-10.22Z"/>
                    <path class="cls-69"
                          d="M67.95,433.6c-.43.28-7.76,5.99-8,6.44-.19.37.17,1.76,0,2.44-.37,1.5-.4,2.91-.44,4.44v1.78c-.31-.14-.55.94-1.33-.22,1.07-3.22-.34-2.17-.89-2.89-1.49-1.96-4.82-4.44-7.11-5.55.68-2.75,11.43,10.95,8.44-.44-.49-1.88-7.45-7.1-8.89-9.11,3.88,1.68,6.24,5.1,9.11,8,0-8.88.99-9.57,1.33.44l7.78-5.33Z"/>
                    <path class="cls-60"
                          d="M72.83,434.48c-.12.14.24,1-.22,1.33-5.08.5-8.49,4.23-12.66,6.66.17-.68-.19-2.08,0-2.44.24-.46,7.57-6.16,8-6.44,1.48-.97,2.85-2.33,4.89.89Z"/>
                    <path class="cls-60"
                          d="M46.62,429.6c3.38-.25,2.95.82,3.11.89,1.43,2.01,8.39,7.22,8.89,9.11,2.98,11.39-7.76-2.31-8.44.44,2.29,1.12,5.62,3.6,7.11,5.55-4,.59-12.4-2.07-14.66-5.33-.06-.08-.86-1.68-.89-1.78-.04-.13.03-.3,0-.44-1.04-4.31.15-8.09,4.89-8.44Z"/>
                </g>
                <path class="cls-15"
                      d="M42.62,440.26l-.89,1.33c-.57-.63-1.98-.14-2.22-1.33l2.22-1.78c.03.09.83,1.7.89,1.78Z"/>
                <g>
                    <g>
                        <path class="cls-76"
                              d="M398.06,473.14c-2.27,3.96-2.1-3.89-8-2.44,4.02,1.92,7.42,5.43,4.89,10-3.46-1.26-7.1-2.63-10.66-3.55-.06-.72.09-1.5,0-2.22-.21-1.7-.73-3.3-.44-5.11,2.84-2.92,1.09-8.58,5.11-10.89.96-.55,7.59-1.71,2.89-1.78.8-1.01.25-2.16.44-2.67.04-.1,1.22-.74,1.33-1.56.01-.1-.76-.41-.44-2,3.96-.24,1.91-3.32,4.89-4.89-.02,9.03.04,18.08,0,27.1Z"/>
                        <path class="cls-63"
                              d="M398.06,442.48c0,.29,0,.6,0,.89-5.85,1.6-4.42,5.2-4.89,7.55-.32,1.59.46,1.9.44,2-.11.81-1.3,1.46-1.33,1.56-3.03-.26-6.85-.08-8.44,3.11-1.67,3.34-.48,6.4-.44,9.77-3.82-6.29-.15-15.48,8.66-13.77,1.08-.77-2.29-9.33,6-11.11Z"/>
                        <path class="cls-39"
                              d="M398.06,473.14c-.01,2.81.01,5.63,0,8.44-1.13.07-2.11-.52-3.11-.89,2.53-4.57-.87-8.07-4.89-10,5.89-1.44,5.73,6.4,8,2.44Z"/>
                        <path class="cls-49"
                              d="M398.06,443.37c0,.88,0,1.78,0,2.67-2.97,1.57-.92,4.64-4.89,4.89.47-2.35-.97-5.95,4.89-7.55Z"/>
                        <path class="cls-60"
                              d="M388.73,458.03c-4.58,2.54-2.94,9.18-5.33,10.22,0-.29,0-.59,0-.89-.03-3.38-1.23-6.43.44-9.77l4.89.44Z"/>
                        <path class="cls-75"
                              d="M391.84,457.14c4.7.07-1.92,1.22-2.89,1.78-4.02,2.31-2.27,7.96-5.11,10.89-.29,1.81.23,3.41.44,5.11-2.48-.9-.85-5.1-.89-6.66,2.39-1.04.75-7.68,5.33-10.22.56-.31,2.57-.9,3.11-.89Z"/>
                        <path class="cls-17"
                              d="M392.28,454.48c-.19.51.35,1.66-.44,2.67-.54,0-2.55.58-3.11.89l-4.89-.44c1.6-3.19,5.41-3.37,8.44-3.11Z"/>
                    </g>
                    <g>
                        <path class="cls-7"
                              d="M365.18,457.59c1.58.53,3.41,2.34,3.55,4,7.1,2.59,4.86,4.68,6.22,6.66.53.78-.64,2.2,2.22.89,2.12.8,2.54,6.79.89,6.66-11.58-2.71-23.83-4.94-35.54-7.11-.12-.77.49-.91.44-1.78,5.87-4.94,14.06-12.43,9.77-20.66l5.33-3.33c2.48,4.93,2.24,10.57,0,15.77,2.2-1.72,4.37-2.04,7.11-1.11Z"/>
                        <path class="cls-14"
                              d="M327.86,451.81c.05.03.13.34.89.89.74.54,3.77,4.32,5.55,5.78,3.75,3.05,8.33,2.58,8.66,8.44.05.87-.56,1-.44,1.78-2.21-.41-4.45-.93-6.66-1.33,1.92-2.35-7.14-9.12-8.22-9.33-3.62-.72-9.72,3.66-11.77,6.66-1.92-.31-3.87-.56-5.78-.89.02-.83.54-1.52.89-2.22,2.99-5.97,3.02-10.2,11.11-10.66,2-.12,3.82-.21,5.78.89Z"/>
                        <path class="cls-20"
                              d="M306.09,454.92c.65.68,3.89,3.8,4,4.22,1.79,6.92-3.31-.81-4.67-1.11-2.57-.56-4.55.95-5.11,3.55-1.15-.26-7.81-1.05-8-1.56,2.64-4.28,6.49-4.9,11.11-5.55,1.04-.02,1.54.4,2.67.44Z"/>
                        <path class="cls-66"
                              d="M312.31,454.48c-1.19,2.02-1.47,4.82-1.33,7.11-.35.7-.87,1.39-.89,2.22-2.81-.48-5.66-1.17-8.44-1.78-.82-.18-1.05-.38-1.33-.44.56-2.6,2.54-4.12,5.11-3.55,1.36.3,6.46,8.03,4.67,1.11-.11-.42-3.35-3.55-4-4.22,2.05.08,4.11-.81,6.22-.44Z"/>
                        <path class="cls-79"
                              d="M375.4,468.25c1.14-7,.65-12.94-6.66-6.66-.15-1.66-1.98-3.47-3.55-4,3.98-9.32,15.77,4.35,10.22,10.66Z"/>
                        <path class="cls-21"
                              d="M303.42,454.48c-4.62.65-8.47,1.28-11.11,5.55.19.51,6.85,1.29,8,1.56.29.07.51.27,1.33.44-2.01,1.15-8.47.69-11.55.44.39-.72.52-1.49.89-2.22,3.43-6.93,8.52-5.7,12.44-5.78Z"/>
                        <path class="cls-53"
                              d="M375.4,468.25h-.44c-1.36-1.99.88-4.08-6.22-6.66,7.31-6.28,7.81-.33,6.66,6.66Z"/>
                        <path class="cls-73"
                              d="M381.62,476.69c-1.17-.29-2.39-.62-3.55-.89,1.65.12,1.23-5.86-.89-6.66,1.92-.88,2.71-5.57,4.44,7.55Z"/>
                        <path class="cls-75"
                              d="M322.08,450.92c-8.09.47-8.12,4.7-11.11,10.66-.14-2.29.14-5.09,1.33-7.11,1.2-2.03,7.99-6.35,9.77-3.55Z"/>
                        <path class="cls-7"
                              d="M335.85,467.36c-6.63-1.19-13.38-1.58-19.99-2.67,2.05-3,8.16-7.38,11.77-6.66,1.08.21,10.14,6.98,8.22,9.33Z"/>
                        <g>
                            <path class="cls-14"
                                  d="M358.07,442.93l-5.33,3.33c4.28,8.23-3.9,15.72-9.77,20.66-.33-5.86-4.92-5.39-8.66-8.44-1.78-1.45-4.81-5.24-5.55-5.78-.06-8.28,2.98-14.21,11.55-15.99,6.42-1.33,14.61-.06,17.77,6.22Z"/>
                            <path class="cls-63"
                                  d="M340.3,436.71c-8.57,1.78-11.61,7.72-11.55,15.99-.76-.55-.83-.86-.89-.89-1.13-7.97,4.45-15.77,12.44-15.11Z"/>
                            <path class="cls-48"
                                  d="M342.3,439.37c.96,1.76-2.25,3.58-3.11,7.11-1.04-3.48.48-5.82,3.11-7.11Z"/>
                            <path class="cls-75" d="M343.19,436.71c.13.02.4.46.67.67-7.33,5.77-1.61-.79-.67-.67Z"/>
                        </g>
                    </g>
                </g>
                <g>
                    <path class="cls-39"
                          d="M313.64,408.27c-.09.2-.37,1.06-.44,1.33-.66,2.56-.21,3.95-.44,6.22-.24,2.34.31,4.78-.44,7.11l-.67,1.33c-.96.18-.61-.9-.67-.89.07-1.66.38-3.21.44-4.89.09-2.47.15-5.55,0-8-.04-.66.94-1.56,0-4.22-1.53-4.03-6.69-8.84-7.11-10l6.89,7.11,1.11-10.89.44,10.22c9.62-8.94-1.21.87.89,5.55Z"/>
                    <path class="cls-60"
                          d="M319.42,382.5c6.41,2.91,12.37,8.54,11.11,15.99-.24,1.39-.96,3.86-1.78,4.89-1.32,1.66-4.28,2.73-6.22,3.55-3.05-3.99-6.91-3.2-8.89,1.33-2.1-4.69,8.73-14.49-.89-5.55l-.44-10.22-1.11,10.89-6.89-7.11c-.19-.53-.66-.94-.44-2.22.69-1.65.99-3.58,1.33-5.33,3.12-5.61,8.02-9.04,14.22-6.22Z"/>
                    <path class="cls-76"
                          d="M303.87,394.05c-.21,1.28.25,1.69.44,2.22.42,1.16,5.57,5.97,7.11,10,.94,2.66-.04,3.56,0,4.22-5.94,1.28-11.65,2.82-17.77,1.78-5.08-.99-6.66-5.08-6.22-10,.7-7.81,9.72-10.98,16.44-8.22Z"/>
                    <path class="cls-58"
                          d="M322.53,406.94c-2.56,1.09-6.54,2.04-9.33,2.67.07-.27.36-1.13.44-1.33,1.98-4.53,5.83-5.32,8.89-1.33Z"/>
                </g>
                <path class="cls-17"
                      d="M143.48,384.28c-4.83-3.37-19.88-11.1-22.44-12.88-.7-.49-.76-.97-.67-1.78,3.05.68,22.8,5.03,23.77,5.78,3.1,2.4-.58,8.42-.67,8.89Z"/>
                <g>
                    <path class="cls-14"
                          d="M217.23,382.06c.21-.16-1.1-1.08,3.11-.89-.47,2.29,3.33,3.1,5.33,6,4,5.79,2,7.24-.22,9.55-6.03,6.25-13.43,2.3-17.77,5.78-7.59-1.97-9.78,2.2-16.66,5.33-1.19.28-2.36.6-3.55.89.44-2.33-.72-4.15-1.33-6.22-.04-.14.04-.31,0-.44,2.76-4.01,4.79-3.66,9.33-3.55.07,0,.48,1.44,1.33.67-.04-.93.19-3.27.44-3.78,1.13-2.25,3.65-3.12,6-2.67.86.17,4.51,6.74,4.67,3.33.03-.57-2.99-4.25-1.33-8.89,1.2-3.35,8.67-6.83,9.33-5.78.18.28-1.79,2.78-1.78,3.11.01.42,1.2.01,1.33.44.12.4-2.23.65-.22,7.78.16-5.99,4.14-10.83,2-10.66Z"/>
                    <path class="cls-7"
                          d="M231,388.28c2.9,6.44.72,8.66.89,9.11.23.62,2.88-1.3,2.67.67-.73.17-1.46.27-2.22.44-13.77,3.14-27.57,6.06-41.32,9.33,6.88-3.13,9.07-7.3,16.66-5.33,4.34-3.47,11.74.48,17.77-5.78,2.23-2.31,4.22-3.76.22-9.55-2-2.9-5.8-3.7-5.33-6,4.59.21,8.78,2.93,10.66,7.11Z"/>
                    <path class="cls-14" d="M217.23,382.06c-.06.04.24.72-.67,1.33l.67-1.33Z"/>
                </g>
                <path class="cls-8"
                      d="M83.94,349.63c.34,3.65-.17,8.5,0,12.44-10.22-1.29-20.1-4.48-30.21-6.22-1.8-.31-4.22-.28-4.44-.89,1.96-.73,5.49-3.6,6.66-5.33,8.5,2.14,18.38,1.22,27.32,3.11l.67-4c.05.28-.03.6,0,.89Z"/>
                <path class="cls-65"
                      d="M83.94,348.74l-.67,4c-8.94-1.89-18.82-.97-27.32-3.11.16-.24,2.08-4.77,2.22-5.33l25.1,2.22c1.01.63.52,1.4.67,2.22Z"/>
                <path class="cls-77"
                      d="M49.29,354.96c.23.6,2.65.58,4.44.89-2.14.32,2.59,3.5,3.55,4-5.48-.22-10.86-.1-15.99-.89,0-.88,0-1.78,0-2.67,2.19-.25,6.13-.63,8-1.33Z"/>
                <g>
                    <path class="cls-75"
                          d="M102.6,303.86l-.89.22,1.78,4c-.21,3.78-4.27,7.34-8,7.78l-1.78,1.33c-2.51-1.54-6.04-1.13-8.89,0-.2-4.05.15-8.16,0-12.22h-.89v21.77l-.89-.22c2.24-7.95-2.06-5.61-5.55-9.77-.38.56-.99.53-1.56.44-.68-.1-.28-.58-.67-.89l-.67.67c.81,1.67,1.44,3.42,2.22,5.11-4.84-8.32-5.24-2.48-10.89-4l-1.11,5.78c-.15-4.38.12-10.03,1.33-14.22.28-.97,6.58-14.42,8.44-16.66,11.25-13.54,23.16-1.03,27.99,10.89Z"/>
                    <path class="cls-8"
                          d="M102.6,303.86c.83,2.04,1.23,3.66,1.78,5.78.21,15.57-1.45,25.68-18.66,28.43-.15-2.74.35-5.51-.44-8.22,4.71-3.62,7.84-8.62,10.22-14,3.73-.43,7.79-4,8-7.78l-1.78-4,.89-.22Z"/>
                    <path class="cls-71"
                          d="M106.6,319.41c.11,2.16-.82,7.15-1.33,9.33-2.04,8.7-7.13,16.63-17.33,15.99-.56-.04-1.92.2-2.22-.22-.09-2.14.12-4.31,0-6.44,17.21-2.76,18.87-12.87,18.66-28.43.83,3.22,1.06,5.81,1.33,9.11.03.36.85-.03.89.67Z"/>
                    <path class="cls-52"
                          d="M84.83,317.19c.06,1.2.18,8.24,1.11,8.44,3.38-1.9,5.86-5.13,7.78-8.44l1.78-1.33c-2.38,5.37-5.51,10.37-10.22,14,.8,2.71.29,5.48.44,8.22.12,2.13-.09,4.3,0,6.44.3.42,1.66.19,2.22.22-4.12,2.34,7.39,2,9.11,2.22.09.01,1.24.88,1.33.89,4.41.55,6.33-.04,6.66,0,.2.03.69.86.89.89,2.64.34,2.95-.46,3.11-.44.35.05.09.84.44.89,1.63.21,2.3-.55,3.11-.44.2.03.69.86.89.89,2.64.34,2.95-.46,3.11-.44.35.04.09.84.44.89,5.71.74,11.94.86,17.55,1.78,1.09.18,4.25.87,4,1.78-17.55-2.48-35.24-5.23-52.87-6.44-.05,1.85.07,3.71,0,5.55-.13,3.24.17,6.54,0,9.77-.05,1.02.12,2.11,0,3.11-.11.95-.71,1.97-.44,3.55-1.53.36-.65-1.81-.89-4.44-.01-.13-.35-.44-.44-2.67-.17-3.94.34-8.79,0-12.44,2.14-5.37-2.72-2.13-3.11-4.89.63.03,2.84.16,3.11-.22v-13.33c-.18-.56-3.82-2.01-7.11-9.11-.78-1.69-1.41-3.44-2.22-5.11l.67-.67c.39.31-.02.79.67.89.54,2.5,4.85,8.91,7.11,9.33l.89.22v-21.77h.89c.15,4.06-.2,8.17,0,12.22Z"/>
                    <path class="cls-8"
                          d="M76.83,322.08c3.29,7.1,6.93,8.55,7.11,9.11v13.33c-.27.38-2.48.26-3.11.22-7.38-.41-13.48-7.45-15.11-14.22-.57-2.35-.81-4.24-.89-6.66l1.11-5.78c5.64,1.52,6.04-4.32,10.89,4Z"/>
                    <path class="cls-8"
                          d="M93.72,317.19c-1.91,3.32-4.39,6.54-7.78,8.44-.93-.2-1.05-7.24-1.11-8.44,2.85-1.13,6.38-1.54,8.89,0Z"/>
                    <path class="cls-8"
                          d="M83.05,326.52c-2.26-.42-6.57-6.83-7.11-9.33.57.09,1.18.11,1.56-.44,3.49,4.16,7.79,1.82,5.55,9.77Z"/>
                </g>
                <g>
                    <path class="cls-60"
                          d="M151.92,370.51c-.21,2.84,1.15,3.08,1.33,4.44-.14.09-.76-.09-.89,0-2.2,1.57-.05,11.71-.44,12.22-1.01,1.3-1.89-1.71-.89,3.33-.57-.07-1.21.08-1.78,0-2.11-.3-4.33.48-5.78-2.22.02-.43-.06-.91,0-1.33,4.69-5.97-.57-14.63,5.78-16.88.72-.26,1.98.02,2.67.44Z"/>
                    <path class="cls-76"
                          d="M153.25,374.95c.1-.06.31.06.44,0l1.56,3.55c.3-2.32,3.05-2.39,4.67-3.55.53,2.5-.49,6.12-.44,6.44.37,2.53,1.31,2.73,1.33,2.89.53,3.41,1.92,3.02-.89,7.11-2.04-.16-4.2-.23-6.22-.44,1.11-1.52-.98-.49-1.33-1.11-.36-.65.44-12.96,0-14.88.12-.09.75.09.89,0Z"/>
                    <path class="cls-30"
                          d="M152.36,374.95c.44,1.92-.36,14.23,0,14.88.35.62,2.45-.41,1.33,1.11-1.83-.19-2.53-.43-2.67-.44-1-5.05-.12-2.04.89-3.33.4-.51-1.75-10.65.44-12.22Z"/>
                    <path class="cls-22"
                          d="M159.92,374.95c-1.62,1.17-4.37,1.24-4.67,3.55l-1.56-3.55c2.73-1.11-.62-3.97-1.11-6.22-.99-.15-.59.77-.67,1.78-.68-.43-1.94-.7-2.67-.44-1.29-2.75,1.74-6.37,4.67-5.33,1.47.52,1.42,5.3,1.56,5.55.22.41,3.75,1.41,4.44,4.67Z"/>
                    <path class="cls-19"
                          d="M153.7,374.95c-.14.06-.35-.06-.44,0-.18-1.36-1.54-1.61-1.33-4.44.07-1.01-.33-1.93.67-1.78.49,2.25,3.84,5.11,1.11,6.22Z"/>
                </g>
                <g>
                    <path class="cls-63"
                          d="M171.91,395.39c-.86.03-1.86-.11-2.67,0-.88.13-.97.36-1.33.44-8.48,2.08-9.11,5.94-8,14.22-.34-.88-.87-.83-.89-.89-1.01-3.67-1.54-6.95.89-10.22.87-1.17,6.12-4.19,7.55-4.44,1.37-.24,5.02-.27,4.44.89Z"/>
                    <path class="cls-38"
                          d="M171.91,395.39c.15,0,.3,0,.44,0,3.82,1.7,10.31,4.42,10.66,9.33.44,6.15-2.43-1.79-8,2.89-4.73,3.98-.42,3.31,1.33,4.22-3.7.9-7.4,1.8-11.11,2.67l-4.44-2.67c-.11-.35-.48-.72-.89-1.78-1.11-8.28-.48-12.14,8-14.22l-3.55,3.33c1.05,4.9,1.36,1.35,1.78,2.22.39.82-.53,1.81-.44,2.22,1.26,6.09.79-.18.89-.44.71-1.97,9.51-8.86.89-5.78l1.78-2c.81-.11,1.81.03,2.67,0Z"/>
                    <path class="cls-76"
                          d="M187.46,408.72c-3.7.88-7.39,2.21-11.11,3.11-1.75-.91-6.07-.24-1.33-4.22,5.57-4.68,8.44,3.26,8-2.89l3.11-2.22c.61,2.07,1.77,3.89,1.33,6.22Z"/>
                    <path class="cls-58"
                          d="M165.25,414.49c-1.33.31-2.67.59-4,.89.02-1.06-.14-2.57-.44-3.55l4.44,2.67Z"/>
                    <path class="cls-37"
                          d="M169.25,395.39l-1.78,2c8.62-3.09-.18,3.81-.89,5.78-.09.26.37,6.53-.89.44-.09-.42.84-1.4.44-2.22-.42-.87-.73,2.68-1.78-2.22l3.55-3.33c.36-.09.45-.32,1.33-.44Z"/>
                    <path class="cls-22"
                          d="M179.02,396.28c5.15,1.89,5.51,5.74,6.89,3.55.53.19-.18.9.22,2.22.04.14-.04.31,0,.44l-3.11,2.22c-.35-4.91-6.84-7.63-10.66-9.33,2.79-.01,4.08-.06,6.66.89Z"/>
                </g>
                <path class="cls-22"
                      d="M83.94,362.07c.09,2.22.43,2.53.44,2.67-3.89-.13-7.02-3.73-9.77,0-1.25-.61-6.93-3.48-7.33-3.55-2.96-.58-4.62,1.47-10-1.33-.96-.5-5.69-3.68-3.55-4,10.11,1.74,19.99,4.93,30.21,6.22Z"/>
                <path class="cls-76"
                      d="M84.39,364.73c.23,2.63-.64,4.81.89,4.44-1.17,2.36-9.09-3.68-10.66-4.44,2.75-3.73,5.89-.13,9.77,0Z"/>
                <path class="cls-55" d="M105.27,378.06c.05.05.11,1.25-.22,1.33-.74.2-.81-2.33.22-1.33Z"/>
                <g>
                    <path class="cls-65"
                          d="M51.51,253.21c.17.05,2.35,1.94,2.89,2.22,4.63-1.23,9.66-1.23,14.44-.44-1.14,1.08,3.58,2,5.78,7.33,2.24,5.43-.49,8.42,5.55,10.89.46-4.45,9.18,1.28,11.77,2.67.27.14.01.86,1.33,1.33,1.62.58,15.59.01,17.33,10.44,1.24,7.44-4.74,10.52,1.78,13.11-.21.59-.15,2.87-.44,3.78-1.19,3.62-2.58,5.47-2.67,5.78-.23.79,2.09.13-.89,3.55,2.87.68-.91,1.85-.89,2.67.04,1.75,2.31-1.21-.44,2.67-.06.09.78,2.45-.44.22-.03-.69-.86-.31-.89-.67-.28-3.3-.51-5.89-1.33-9.11-.54-2.11-.95-3.73-1.78-5.78-4.83-11.92-16.74-24.43-27.99-10.89-1.86,2.24-8.16,15.69-8.44,16.66-5.04-3.19,2.6-.76-2.67-6,1.03-3.04-1.53-5.46,0-8.89l-2.89-5.11c-4.85,5.51-2.33,6.5-2.44,6.89-.67,2.3-2.84,2.61-.89,4-3.19.93.49,2.94-1.78,6.89-.05.08.1.49-.44.44-3.39-18.45-8.84-36.51-13.55-54.65-4.04,11.02-7.05,22.42-10,33.77-2.34.8-5.49-.92-7.11.89-.27-1.55-.62-3.06-.44-4.67h-.89c-.37,2.86-.97,7.61-2.22,10-.82,1.58-.81,1.93-.89,2-3.11,2.84-1.28-10.48-11.11-2.67.48-8.19-1.78-17.57-8.89-22.44,0-16.58,0-33.18,0-49.76,4.39,1.8,14.26,18.74,17.99,18.66,11.95-7.01,27.47-.33,28.88,14.22.86.16,4.44-.07,4.67,0Z"/>
                    <path class="cls-18"
                          d="M398.06,208.34c-7.24,4.62-12.54,12.06-15.99,19.77-2,2.34-12.43,4.93-17.11,14-9.41-4.07-20.14-1.41-22.66,9.33-6.64-5.56-26.79-4.72-31.54,2.22-1.94-3.09,3.85-6.72,6.44-8,8.34-4.12,16.89-4.22,22.88,3.55.39-13,16.06-24.29,28.43-19.55,4.33-13.63,15.07-26.5,29.55-29.32,0,2.66,0,5.34,0,8Z"/>
                    <path class="cls-41"
                          d="M24.41,287.87c.96,5.48,1.71,10.14,3.11,15.11-.28,1.24-.43.84-.44.89-1.33-1.35-.82.69-.44,2.67-1.56,7.21-2.9,14.49-4,21.77-1.34-.83-6.27-2.14-8-2.22-7.05-.31-9.52,2.94-14.66,6.66,0-10.06,0-20.15,0-30.21,4.6-15.85,4.95-10,9.55,1.33l4-7.55,4.89,9.33c.82-.19,1.83-10.56,2.44-12.44,1.25-2.39,1.85-7.14,2.22-10h.89c-.17,1.6.17,3.12.44,4.67Z"/>
                    <path class="cls-18"
                          d="M51.51,253.21c-.22-.07-3.8.16-4.67,0-1.4-14.54-16.92-21.23-28.88-14.22-3.73.08-13.61-16.86-17.99-18.66,0-3.99,0-8,0-12,12.93,3.59,19.71,15.87,19.33,28.88,15.44-13.63,33.05-3.47,32.21,15.99Z"/>
                    <path class="cls-65"
                          d="M20.85,293.2c-.62,1.88-1.63,12.25-2.44,12.44l-4.89-9.33-4,7.55c-4.61-11.33-4.96-17.18-9.55-1.33,0-10.8,0-21.63,0-32.43,7.11,4.87,9.36,14.25,8.89,22.44,9.83-7.82,8,5.51,11.11,2.67.08-.07.07-.42.89-2Z"/>
                    <path class="cls-72"
                          d="M298.98,216.34c-3.02-.02-6.23-.43-9.33-.44-16.56-.08-33.24.61-49.76-.67,5.04-5.33,12.92-8.12,18.88-2.44,0-7.45,12.69-19.47,13.33-5.78.44-3.96,4.35-8.96,7.78-10.66,14.24-7.09,28.5,5.15,33.99,17.77,1.23.38,7.01-5.3,16.66,1.56-10.41,1.05-21.1.73-31.54.67Z"/>
                    <path class="cls-18"
                          d="M72.39,255.88c.46.17,2.12.83,2.22.89,5.19,3.08,7.86,11.74,8.44,12.22.48.39,5.84-.52,8.89,6.89-2.59-1.38-11.31-7.12-11.77-2.67-6.04-2.47-3.32-5.46-5.55-10.89-2.19-5.33-6.91-6.25-5.78-7.33.97.16,2.67.56,3.55.89Z"/>
                    <path class="cls-65"
                          d="M167.02,317.64c.07.96-.86,1.24-.22,1.78,16.71,1.28,33.5,1.42,50.2,2.67.45.24.12.96.22,1.33-.75-.31-1.44,3.12-1.78,4.44-.4,1.57-2.17,7.37-2.22,7.78-.03.27,2.3,1.34-.44,1.78,2.78,2.64-.27.93-.89,1.78-.08.1,1.37,1.44,1.33,2.22-.02.34-2.47,1.43,0,3.11-2.82.37-1.16.64-1.33,1.11-.94,2.53.51,2.72.44,2.89-.11.28-1.75.22-1.78.89-.02.61,1.93.43.89,1.56-3.28.99.86,1.36.89,1.56.02.13-2.12.47-2.22,1.33-.24,1.93,1.75.04,1.11,2.89-7.31-1.6-3.3-1.12-2.89-2,.05-.1-1.99-1.02-1.78-1.33.36-.54,1.41.09,1.78-.44.44-.63-1.3-.82-1.33-1.33-.07-1.26,2.39,1.37-.89-5.78,2.88-.66-1.37-.83.89-5.33-3.57-5.54-3.3-15.72-6.66-2.67-.03.1.91.79.89.89-.05.19-1.44,1.47-1.78,3.55-.04.24,2.08.79-.44,2.67.75.43,1.01-.03.89,1.11-2.01-.22-1.69.42-1.78.44-5.63,1.51-1.28-.76-1.33-1.11-.12-.88-1.99-.49-2.22-.89-.14-.24,5.19-3.4.89-2.89-.45-2.94,1.91-2.83-.44-2.89,1.31-.61-1.1-3.78-2.22-5.33,1.47-.77-.15-9.51-.89-8.44-.93,3.03-1.12,6.28-1.78,9.33-.05.25-.4-.13-1.78,3.55,2.75,2.26-.22,1.11-.44,2.22-.03.12,1.35,1.2,1.33,1.33-.03.27-3.21,2.66-.44,4-3.69,1.15.48.88-2.22,2.67,2.67,1.86-3.85.2,1.78,2.89-3.97,1.15-1.1.41-.89,1.11.1.31-1.35.81-1.33.89.11.44,1.24,0,1.33.44.2.99-2.96.43-3.55.22,1.75-2.54-.9-4.28-1.33-6.44-.02-.11.91-.78.89-.89-1.96-8.41-1.84-7.05-3.11.44-3.47,1.54.85.88-2.22,2.44-.67-1.36-.88-2.21.44-2.89l-1.78-1.78c2.87-.31-2.99-3.94,2-4.22-.1-4.91-3.86.51-.67-5.11-2.83-1.65-2.12-8.77-3.78-13.55-1.66,2.93-1.67,9.2-2,10.89-.06.34-2.21,1.53-.44,2.67-2.97.42.06,1.9,0,2.22-.23,1.18-2.13.26-2.22.44-.19.4,1.37.11.89,5.33-.02.17,1.64,2.05-.67,2.44-.66.11-7.11-3.42-7.78-4.22-.11-.13,1.23-.19.89-.89-.18-.35-3.36.25,0-3.55-5.05-1.55-1.33-2.41-1.33-2.67,0-.17-.87-.7-.89-.89-.04-.43.53-2.01.44-2.22-.13-.33-3.22-2.95-3.78-6-.59,1.6-4.81,5.65-4.67,6,.18.44,1.31.02,1.33.44.01.22-1.68,1.43-1.78,1.78-.03.09,1.13.96.44,1.78-.46.54-2.04.6-2.22.89-.03.05.92.83.89.89-1.04,1.92-10.48-.59-1.78-.89-4.85-2.59-.42-5.35-.44-5.78-.05-1-1.72-.28-1.78-.44-.6-1.56,3.5-3.24-1.78-3.11,6.39-4.2-4.74-2.41,2.67-4.44-2.99-.45.83-.76,0-2.22-.41-.73-2.81,1.53-3.55.44-.53-.77,4.75-2.21,1.33-3.11,3.85-2.36-2.04-1.17.44-4-1.4-.4-2.85-3.8-.44-4.44-4.56-8.44-3.31-16.96-6.22-1.78-.12.63.18,3.94,0,4.89-.04.22-.95-.69-1.11,3.33-2.45-1.27.56,1.14.22,1.56-.71.88-4.44-1,.44,2.67-5.36.95.11,2.26-2.22,4.44,4.2,1.63-2.55.72,1.78,2.22-4.21.72-.7,1.44-.89,2.22-.14.57-2.34.34-2.22,1.33.03.22,4.7,2.52.22,2-.22-.03-3.78-2.13-3.78-2.44.01-.54,1.77-.35,1.78-.44.28-2.11-4.08-.36.89-4-7.12-.76,2.32-.91-3.11-2.22,3.58-1.37-.58-1.7-.44-2.22.1-.38,4.65-.81,0-1.33,2.51-1.34.01-1.59,0-2.22,0-.14,1.16-1.62.89-2.67-.52-2-4.88-7.8-4.44-12h-.89c.17,4.12-2.31,8.14-2.67,9.33-.14.46,1.41-.85-.44,2.89-.09.18-2.06.95.44.89-.11.65-1.32,1.32-1.33,1.56-.01.29,1.37,2.1,1.33,2.22-.23.7-1.76,1.22-1.78,1.33-.09.52,3.32,1.73-.44,1.56-.06,0,.2-1.48-.89-.67.06.32.87.62.89.67,1.6,3.58-2.54,2.18.44,3.33-3.08,1.03.67,2.33.44,3.11-.71,2.43-2.47,2.78-1.56-.67-7.17-1.3-.07-2.06-3.78-4.22,4.4-2.53-3.22-.21,1.78-3.11-5.75-1.54,1.37-2.68-2.67-4,2.22-.87-1.33-1.35,1.33-3.11-2.4-.82-.39-1.63-.44-1.78-.25-.67-4.03-3.04-4.44-13.11,10.08-9.74,31.18-6.84,41.54.89,12.32,9.19,8.71,21.65,12.22,18.22Z"/>
                    <path class="cls-18"
                          d="M167.02,317.64c-3.51,3.43.1-9.02-12.22-18.22-10.36-7.73-31.46-10.63-41.54-.89-.54.5-.63,1.5-.89,2.22-6.52-2.59-.54-5.67-1.78-13.11-1.74-10.43-15.7-9.86-17.33-10.44,24.2-7.42,21.94,14.54,23.33,15.55,1.61,1.17,4.46-4.31,8-5.78,11.99-4.96,32.95,3.23,39.32,14.44,3.91,6.89,2.7,10.54,3.11,16.22Z"/>
                    <path class="cls-9"
                          d="M218.12,328.74c.21,1.04.3,2.03-.44,2.89,2.55.39,1.26,2.92,1.33,3.11.07.19,3.31,1.58.44,2.67,2.99,1.72-.3,1.79,0,2.67.09.26,4.78-.63-.44,1.78.71,1.45,5.42-2.79,1.78,2-.04.06-1.27-.16-.67.44h1.11c1.06.49.88.94-.44,1.33-1.28.38-7.64,1.16-8.89,0,.17-.47-1.48-.74,1.33-1.11-2.47-1.68-.02-2.77,0-3.11.04-.78-1.41-2.12-1.33-2.22.62-.85,3.66.86.89-1.78,2.74-.44.41-1.51.44-1.78.05-.4,1.82-6.2,2.22-7.78l2.67.89Z"/>
                    <path class="cls-80"
                          d="M220.78,345.63c2.65,1.01-.07,1.38,0,1.56.44,1.1,2.81-2.13,0,4.67-2.22-1.17-6.52.23-9.33-.89,1.04-1.13-.91-.94-.89-1.56.02-.67,1.67-.61,1.78-.89.07-.17-1.39-.36-.44-2.89,1.24,1.16,7.6.38,8.89,0Z"/>
                    <g>
                        <path class="cls-27"
                              d="M279.87,196.35c-3.42,1.71-7.33,6.7-7.78,10.66-.64-13.69-13.34-1.67-13.33,5.78-5.96-5.67-13.84-2.89-18.88,2.44,16.52,1.28,33.2.59,49.76.67-28.98,35.25-161.74,42.37-205.04,40.87-2.31-.08-9.11-1.47-10,0-.1-.06-1.77-.72-2.22-.89,31.07-87.11,134.56-119.82,207.48-59.53Z"/>
                        <g>
                            <path class="cls-2"
                                  d="M398.06,208.34c.01,27.54,0,55.1,0,82.64-2-1.77-.98,2.46-2,2.22-.78-.18-2.24-10.18-3.78-.44-2.27-6.67-9.84-22.06-14.66-26.88-7.49-7.48-16.98-6.38-23.99,1.33-8.26,9.09-15.13,29.58-18.22,41.54l-2-6.66c-1.66.35-.37,13.09-4.89,3.11-2.79,6.06-7.48,12.08-5.55,6.89-3.35-2.02.34-.91.44-1.33.22-.94-2.03.54-1.78-2.44l.89.22c.12-.85-.86-1.05-.89-1.11-1.64-3.23-1.61-6.78-3.78-9.77-1.4,3.97-.87,6.05-2.89,9.55,1.21,1.2,1.01,3.09-.89,3.11,2.04,1.89-.62,1.66-.44,2.22.14.45,1.18,0,1.33.44.27.78-9.75,5.98-4,2.67-6.15-2.64,2.81-.76-2.67-3.11,3.85-2.3-.33-1.5-.89-2.22-.14-.18.07-4.23,0-4.44-.1-.3-1.24-1.85-2.44-5.55-.97,2.69-2.98,7.42-1.56,7.78-.5.21-2.59,3.71-2.67,4-.14.53,2.7,3.42-.89,3.55,4.77,1.14.26.98,0,1.78-.29.88,1.32,1.19,1.33,1.33.02.23-2.4,1.51-2.22,1.78.35.52,1.52-.07,1.78.44.09.19-4.05,1.76.44,1.33-4.66,4.39-2.72-4.34-6.44-10,.32,2.73-2.05,6.17-2.44,7.78-.03.1.91.78.89.89-.08.32-1.92.83-.44,4-3.62,3.41-.89,3.3-.89,3.55,0,.14-2.71.92-.44,1.78-3.36,2.45-3.28-7.06-4-8.44-2.26-4.3-2.12,1.5-2.22,1.78-.31.87-1.74,2.08-1.78,2.22-.22.86.96.63.89.89-.86,3.11-1.88,9.9-4.44,6.89h.67c1.44-.06-.08-1.09-.67,0-1.16-1.36.73-4-1.33-3.33-.22-.87.95-.62.89-.89-.88-3.72-2.72-7.49-3.33-11.33-.58-.03-1.95,9.2-3.33,10,1.55,1.16-.1,3.31-.44,4,.9,1.61-.55.4-2.44,2.89-2.62.23.01-5.06-2.89-5.55l.89-.89-3.33-11.33c-2.61,7.71-1.01,6.08-1.11,6.44-.12.44-1.23,0-1.33.44-.06.27,1.11.02.89.89-.07.27-2.5,2.69-.89,4.89-3,1.91.45,3.2-3.33,6.44-2.79-.45.31-2.07-2.44-2.44,1.61-2.42-1.47-10.11-2.44-14-2.42,5.65-1.9,7.76-2,8.22-.04.2-1.22.35-1.33.89-.02.11.91.78.89.89-.27,1.32-2.13,4.24,0,4.44-4.04,2.23-.73,2.2-.89,3.11-.03.19-2.21,2.73-2.22,3.11-.02.41,1.2.01,1.33.44.1.32-1.33.78-1.33.89,0,.12,1.38.51,1.33.89-.02.18-1.82,2.09-1.78,2.22.09.25,1.81.27,1.78.89-.02.36-5.54,2.02-.44,2.22-.44,1.43-2.14,1.86-2.22,2-4.84-2.07-.22-2.03-3.11-3.33,5.62-2.79.02-2.03-.44-2.67-.04-.05.92-.83.89-.89-.77-1.72-2.54-3.66-.44-4.89-1.89-.07-1.37-5.7-3.33-8.22-.59,4.66-2.34,7.37-2.44,7.78-.03.1.91.79.89.89-.07.29-1.28,1.06-1.33,1.33-.02.11.91.77.89.89-.06.3-3.07,3.3-.44,5.33-3.83,4.85,2.27,3.48-1.78,4.44l.44,2.89h-.89c-.33-.45-1.7-.52,0-1.11-4.27-1.21.95-2.69-2.67-5.33,2.55-1.64-.11-1.47,0-1.78.1-.27,5.08-1.01,0-3.55,4.92-2.53-3.73-.02,1.78-2.67-3.81-.69,1.17-.17-.67-3.33-1.33,5.23-3.51-4.7-3.55-6.66l-1.33,4.44c-3.12-5.97-.19,1.2-2.89,2,2.91,3.41-.9,1.31-1.33,2.22-.06.13,2.34.45.44,1.78,3.94,3.45-.7.4-1.33,1.33-.18.27,2.77,3.18,2.67,3.55-3.58,2.31-.81,2.21-.89,2.67-.03.15-2.28.88-.44,2.22-4.22.71,1.16,3.46-2.44,2-1.71,1.61,1.97,2.76-.44,3.55-2.98.98-.13-2.13-2-3.11,2.81-6.8.44-3.56,0-4.67-.07-.18,2.65-.54,0-1.56,1.32-.39,1.51-.85.44-1.33-.03-.01.1-.49-.44-.44,3.64-4.79-1.07-.55-1.78-2,5.23-2.41.53-1.52.44-1.78-.3-.87,2.99-.95,0-2.67,2.87-1.08-.37-2.47-.44-2.67-.07-.19,1.22-2.72-1.33-3.11.74-.86.66-1.85.44-2.89-.37-1.82-.81-5.07-.89-5.33-.11-.37.23-1.1-.22-1.33-16.71-1.25-33.49-1.39-50.2-2.67-.64-.53.29-.82.22-1.78-.41-5.68.8-9.33-3.11-16.22-6.37-11.21-27.33-19.4-39.32-14.44-3.54,1.47-6.38,6.95-8,5.78-1.38-1.01.87-22.97-23.33-15.55-1.32-.47-1.07-1.19-1.33-1.33-3.05-7.41-8.4-6.49-8.89-6.89-.58-.48-3.25-9.14-8.44-12.22.88-1.47,7.69-.08,10,0,43.3,1.49,176.06-5.63,205.04-40.87,3.1.01,6.31.43,9.33.44,7.23,9.03,12.77,19.16,18.22,29.32-2.59,1.28-8.38,4.91-6.44,8,4.76-6.94,24.9-7.78,31.54-2.22,2.52-10.74,13.24-13.4,22.66-9.33,4.67-9.07,15.1-11.66,17.11-14,3.45-7.71,8.75-15.15,15.99-19.77Z"/>
                            <path class="cls-18"
                                  d="M304.98,254.55c9.42-.71-1.26.97-6.66,5.78-2.14,1.9-4.97,6.35-6.66,8.89-.56-5.84,7.8-14.25,13.33-14.66Z"/>
                        </g>
                    </g>
                    <path class="cls-80"
                          d="M217.23,323.41c.07.26.52,3.51.89,5.33l-2.67-.89c.34-1.32,1.03-4.75,1.78-4.44Z"/>
                    <path class="cls-65" d="M220.78,343.85c.55-.05.42.43.44.44h-1.11c-.6-.6.62-.39.67-.44Z"/>
                    <path class="cls-41"
                          d="M65.73,330.52c1.63,6.76,7.73,13.81,15.11,14.22.39,2.76,5.25-.48,3.11,4.89-.03-.29.05-.61,0-.89-.14-.82.34-1.6-.67-2.22l-25.1-2.22c2.36-9.16-1.32-26.7-3.11-36.43.54.05.4-.36.44-.44,5.95,6.19,4.74,21.61,8.89,18.44.11,1.38.05,4.91,1.33,4.67Z"/>
                    <path class="cls-74"
                          d="M66.17,309.64c-1.21,4.19-1.48,9.83-1.33,14.22.08,2.42.32,4.32.89,6.66-1.28.24-1.22-3.28-1.33-4.67-4.14,3.17-2.94-12.25-8.89-18.44,2.27-3.95-1.41-5.96,1.78-6.89-1.95-1.39.21-1.7.89-4,.11-.39-2.41-1.38,2.44-6.89l2.89,5.11c-1.53,3.43,1.03,5.85,0,8.89,5.27,5.23-2.37,2.81,2.67,6Z"/>
                    <path class="cls-65"
                          d="M31.52,286.98c-1.38,5.32-2.79,10.62-4,15.99-1.4-4.97-2.15-9.63-3.11-15.11,1.62-1.81,4.76-.09,7.11-.89Z"/>
                    <path class="cls-41"
                          d="M134.59,351.85c-5.61-.92-11.84-1.04-17.55-1.78-.35-.05-.09-.84-.44-.89-.16-.02-.47.78-3.11.44-.2-.03-.69-.86-.89-.89-.81-.1-1.48.65-3.11.44-.35-.04-.09-.84-.44-.89-.16-.02-.47.78-3.11.44-.2-.03-.69-.86-.89-.89-.33-.04-2.26.55-6.66,0-.09-.01-1.24-.88-1.33-.89-1.72-.22-13.23.12-9.11-2.22,10.19.64,15.29-7.29,17.33-15.99,5.35-2.11,4.37,13.67,6.89,14.22,4.27.93,3.88-15.73,7.33-2,.07.28-.98,4.93,1.56,4.67,1.64-.17,1.05-3.14,1.11-3.33.56-1.76,2.98-11.63,4.67-10.89,1.73,5.08,3.31,9.39,3.33,14.88,1.3,1.29,5.76,4.36,4.44,5.55Z"/>
                    <path class="cls-80"
                          d="M195.46,341.63c-2.13-.07-2.34,1.29-.22.89.38-.07.18-.88.22-.89,4.3-.51-1.03,2.65-.89,2.89.23.39,2.1,0,2.22.89.05.35-4.29,2.62,1.33,1.11-.06.02-.78,1.15-.22,1.33.6.2,1.92-1.93.22-1.33.09-.02-.24-.67,1.78-.44-.17,1.63,1.18,1.2-1.33,3.11l-.22-.89c-.16.28-1.46,1.31-1.56,1.33-.42.1-1.86-.58-8.44,1.33-5.63-2.69.89-1.03-1.78-2.89,2.7-1.79-1.47-1.52,2.22-2.67-2.77-1.34.41-3.73.44-4,.02-.14-1.36-1.21-1.33-1.33.23-1.11,3.19.04.44-2.22,1.38-3.68,1.72-3.31,1.78-3.55.66-3.05.85-6.3,1.78-9.33.74-1.07,2.36,7.67.89,8.44,1.13,1.55,3.53,4.72,2.22,5.33,2.35.05,0-.05.44,2.89Z"/>
                    <path class="cls-35"
                          d="M183.91,353.62c-2.65-.95-2.34-4.17-4.67-2.22-1.63-2.05-1.04-2.09-1.11-2.22,3.07-1.57-1.25-.9,2.22-2.44,1.27-7.5,1.15-8.85,3.11-.44.02.11-.91.78-.89.89.43,2.16,3.08,3.9,1.33,6.44Z"/>
                    <path class="cls-78" d="M124.37,315.41c-2.5.06-.54-.7-.44-.89-.06.4.51.49.44.89Z"/>
                    <g>
                        <path class="cls-26"
                              d="M122.15,322.08c3.76.17.36-1.03.44-1.56.02-.11,1.54-.63,1.78-1.33.04-.12-1.35-1.93-1.33-2.22.01-.23,1.23-.9,1.33-1.56.06-.39-.51-.49-.44-.89,1.86-3.74.31-2.43.44-2.89.36-1.19,2.83-5.21,2.67-9.33h.89c-.44,4.2,3.92,10,4.44,12,.27,1.05-.89,2.53-.89,2.67.01.63,2.51.88,0,2.22,4.65.52.1.95,0,1.33-.13.52,4.03.85.44,2.22,5.43,1.31-4.01,1.47,3.11,2.22-4.96,3.64-.61,1.89-.89,4-.01.09-1.77-.1-1.78.44,0,.31,3.55,2.42,3.78,2.44,4.48.52-.2-1.78-.22-2-.12-.99,2.08-.76,2.22-1.33.19-.78-3.32-1.5.89-2.22-4.32-1.51,2.42-.59-1.78-2.22,2.34-2.18-3.14-3.49,2.22-4.44-4.88-3.67-1.15-1.78-.44-2.67.34-.42-2.67-2.82-.22-1.56.16-4.02,1.07-3.11,1.11-3.33.18-.95-.12-4.26,0-4.89,2.91-15.18,1.66-6.67,6.22,1.78-2.41.65-.95,4.04.44,4.44-2.49,2.83,3.4,1.64-.44,4,3.41.9-1.86,2.34-1.33,3.11.74,1.09,3.14-1.17,3.55-.44.83,1.46-2.99,1.77,0,2.22-7.4,2.03,3.72.24-2.67,4.44,5.28-.13,1.18,1.55,1.78,3.11.06.16,1.73-.55,1.78.44.02.43-4.4,3.19.44,5.78-8.71.29.73,2.81,1.78.89.03-.06-.92-.84-.89-.89.18-.29,1.76-.34,2.22-.89.69-.81-.47-1.69-.44-1.78.1-.34,1.79-1.56,1.78-1.78-.02-.42-1.16,0-1.33-.44-.14-.35,4.08-4.4,4.67-6,.56,3.05,3.65,5.67,3.78,6,.08.22-.48,1.79-.44,2.22.02.19.89.71.89.89,0,.26-3.71,1.12,1.33,2.67-3.36,3.81-.18,3.2,0,3.55.35.7-1,.76-.89.89.66.8,7.12,4.33,7.78,4.22,2.3-.39.65-2.27.67-2.44.49-5.23-1.08-4.94-.89-5.33.09-.18,1.99.74,2.22-.44.06-.32-2.97-1.8,0-2.22-1.76-1.13.38-2.33.44-2.67.33-1.69.34-7.95,2-10.89,1.66,4.78.95,11.9,3.78,13.55-3.19,5.62.56.2.67,5.11-4.99.28.87,3.91-2,4.22l1.78,1.78c-1.32.68-1.11,1.53-.44,2.89.07.13-.52.17,1.11,2.22,2.33-1.95,2.02,1.27,4.67,2.22.59.21,3.76.77,3.55-.22-.09-.43-1.22,0-1.33-.44-.02-.08,1.43-.57,1.33-.89-.21-.7-3.08.04.89-1.11,6.58-1.91,8.02-1.23,8.44-1.33-.77,2.41,1.63,1.38-1.33,2.89,4.9.97,2.18-.59,3.11-3.33,2.51-1.91,1.17-1.48,1.33-3.11.12-1.14-.14-.68-.89-1.11,2.53-1.88.41-2.43.44-2.67.34-2.08,1.73-3.36,1.78-3.55.03-.1-.91-.79-.89-.89,3.36-13.05,3.1-2.87,6.66,2.67-2.26,4.5,1.99,4.67-.89,5.33,3.28,7.15.82,4.51.89,5.78.03.51,1.77.7,1.33,1.33-.37.54-1.41-.09-1.78.44-.21.32,1.82,1.23,1.78,1.33-.41.88-4.42.4,2.89,2,.64-2.85-1.35-.96-1.11-2.89.11-.86,2.24-1.21,2.22-1.33-.03-.19-4.17-.56-.89-1.56,2.81,1.12,7.11-.28,9.33.89,1.87.98-.98,4.09,2,3.11,2.42-.79-1.27-1.95.44-3.55,3.61,1.46-1.78-1.29,2.44-2-1.84-1.35.42-2.07.44-2.22.08-.46-2.7-.36.89-2.67.11-.38-2.85-3.29-2.67-3.55.63-.93,5.27,2.12,1.33-1.33,1.89-1.32-.51-1.65-.44-1.78.44-.91,4.24,1.19,1.33-2.22,2.7-.8-.23-7.97,2.89-2l1.33-4.44c.05,1.96,2.22,11.9,3.55,6.66,1.84,3.16-3.14,2.64.67,3.33-5.51,2.65,3.14.14-1.78,2.67,5.08,2.55.1,3.28,0,3.55-.11.31,2.55.14,0,1.78,3.61,2.64-1.6,4.12,2.67,5.33-1.7.59-.33.67,0,1.11.81,1.1,2.78.24.89,0l-.44-2.89c4.05-.96-2.06.41,1.78-4.44-2.63-2.03.39-5.03.44-5.33.02-.11-.91-.78-.89-.89.06-.27,1.26-1.04,1.33-1.33.03-.1-.91-.79-.89-.89.1-.4,1.85-3.12,2.44-7.78,1.96,2.52,1.44,8.15,3.33,8.22-2.1,1.23-.33,3.17.44,4.89.03.06-.93.84-.89.89.47.63,6.06-.13.44,2.67,2.89,1.3-1.73,1.26,3.11,3.33-1.15,2-1.81,4.23-3.11,6.22-13.62,3.29-35.31,7.39-48.87,6.22-9.25-.79-40.75-6.67-56.42-8.89.25-.91-2.91-1.6-4-1.78,1.32-1.19-3.15-4.26-4.44-5.55-.02-5.5-1.61-9.8-3.33-14.88-1.69-.74-4.1,9.13-4.67,10.89-.06.19.53,3.16-1.11,3.33-2.53.26-1.49-4.39-1.56-4.67-3.45-13.73-3.06,2.93-7.33,2-2.51-.55-1.54-16.33-6.89-14.22.51-2.18,1.44-7.17,1.33-9.33,1.22,2.23.38-.13.44-.22,2.75-3.87.49-.91.44-2.67-.02-.82,3.76-1.99.89-2.67,2.98-3.43.66-2.76.89-3.55.09-.31,1.48-2.15,2.67-5.78.3-.91.24-3.19.44-3.78.26-.72.35-1.72.89-2.22.42,10.07,4.19,12.44,4.44,13.11.06.15-1.95.96.44,1.78-2.67,1.76.89,2.24-1.33,3.11,4.04,1.32-3.09,2.46,2.67,4-5,2.9,2.62.58-1.78,3.11,3.7,2.16-3.39,2.92,3.78,4.22-.92,3.45.84,3.09,1.56.67.23-.78-3.53-2.08-.44-3.11-2.98-1.15,1.16.24-.44-3.33Z"/>
                        <g>
                            <path class="cls-65" d="M236.78,353.62c1.89.24-.08,1.1-.89,0h.89Z"/>
                            <path class="cls-36"
                                  d="M198.57,349.18c-.93,2.75,1.79,4.3-3.11,3.33,2.97-1.51.57-.48,1.33-2.89.1-.02,1.39-1.05,1.56-1.33l.22.89Z"/>
                            <path class="cls-57"
                                  d="M133.92,334.08c2.69-.31,4.06,1.05,1.33.89-.25-.01-1.79-.47-1.33-.89Z"/>
                            <path class="cls-36" d="M135.26,332.3l2.44,1.11c-.6.59-3.17.01-2.44-1.11Z"/>
                            <path class="cls-57"
                                  d="M234.78,354.51c.2-.13,2.46.54,2.44.67-.09.57-3.92.26-2.44-.67Z"/>
                            <polygon class="cls-57"
                                     points="148.14 338.52 148.59 338.96 148.59 339.41 148.14 339.41 148.14 338.52"/>
                            <polygon class="cls-65"
                                     points="197.9 353.18 198.57 353.4 197.9 354.07 197.68 353.85 197.9 353.18"/>
                        </g>
                    </g>
                    <path class="cls-35" d="M122.15,322.08c-.02-.05-.83-.35-.89-.67,1.09-.81.83.66.89.67Z"/>
                    <g>
                        <path class="cls-32"
                              d="M321.64,307.42c-.01.29.02.6,0,.89-.25,2.99,2,1.5,1.78,2.44-.1.42-3.79-.69-.44,1.33-1.92,5.19,2.77-.83,5.55-6.89,4.51,9.98,3.23-2.76,4.89-3.11l2,6.66c-.59,2.28-1.79,5.28-2.22,7.55-.17.88-.4,1.07-.44,1.33-30.22,17.37-54.41,30.32-88.86,38.65,1.3-1.99,1.96-4.22,3.11-6.22.08-.14,1.78-.57,2.22-2-5.1-.2.42-1.86.44-2.22.04-.62-1.69-.64-1.78-.89-.05-.13,1.76-2.04,1.78-2.22.04-.38-1.34-.77-1.33-.89,0-.11,1.43-.57,1.33-.89-.14-.43-1.35-.04-1.33-.44.01-.38,2.19-2.92,2.22-3.11.15-.91-3.15-.88.89-3.11-2.13-.2-.27-3.13,0-4.44.02-.11-.91-.78-.89-.89.11-.54,1.29-.69,1.33-.89.1-.46-.42-2.57,2-8.22.97,3.89,4.05,11.57,2.44,14,2.75.37-.34,1.99,2.44,2.44,3.78-3.25.33-4.53,3.33-6.44-1.61-2.2.82-4.62.89-4.89.22-.87-.95-.62-.89-.89.1-.44,1.21,0,1.33-.44.1-.36-1.49,1.27,1.11-6.44l3.33,11.33-.89.89c2.9.49.26,5.79,2.89,5.55,1.89-2.48,3.35-1.28,2.44-2.89.34-.69,2-2.84.44-4,1.38-.8,2.75-10.03,3.33-10,.62,3.84,2.45,7.61,3.33,11.33.06.27-1.11.02-.89.89,2.06-.67.18,1.97,1.33,3.33,2.56,3.01,3.58-3.77,4.44-6.89.07-.26-1.11-.02-.89-.89.04-.14,1.47-1.36,1.78-2.22.1-.28-.03-6.08,2.22-1.78.72,1.38.64,10.89,4,8.44-2.27-.85.44-1.63.44-1.78,0-.25-2.73-.14.89-3.55-1.48-3.17.37-3.67.44-4,.02-.11-.91-.78-.89-.89.39-1.6,2.76-5.04,2.44-7.78,3.72,5.66,1.78,14.39,6.44,10-4.49.43-.35-1.14-.44-1.33-.25-.51-1.43.07-1.78-.44-.18-.27,2.24-1.55,2.22-1.78-.01-.14-1.62-.45-1.33-1.33.26-.79,4.77-.64,0-1.78,3.59-.13.75-3.03.89-3.55.08-.29,2.17-3.79,2.67-4-1.43-.35.59-5.08,1.56-7.78,1.21,3.7,2.35,5.26,2.44,5.55.07.21-.14,4.27,0,4.44.56.72,4.74-.08.89,2.22,5.48,2.35-3.48.47,2.67,3.11-5.75,3.31,4.26-1.88,4-2.67-.15-.45-1.19,0-1.33-.44-.18-.56,2.48-.33.44-2.22,1.9-.02,2.1-1.91.89-3.11,2.02-3.5,1.49-5.58,2.89-9.55,2.16,2.99,2.13,6.54,3.78,9.77Z"/>
                        <path class="cls-35"
                              d="M321.64,308.31c.02-.29-.01-.6,0-.89.03.06,1.01.26.89,1.11l-.89-.22Z"/>
                        <path class="cls-47" d="M279.87,333.63c.59-1.09,2.11-.06.67,0h-.67Z"/>
                        <path class="cls-36"
                              d="M298.31,324.3c.13,0,1.61,1.81.44,1.78-1.14-.03-1.13-1.82-.44-1.78Z"/>
                        <polygon class="cls-65"
                                 points="298.31 327.86 298.98 328.08 298.76 328.74 298.53 328.52 298.31 327.86"/>
                    </g>
                    <path class="cls-65" d="M195.46,341.63s.16.82-.22.89c-2.12.4-1.91-.96.22-.89Z"/>
                    <path class="cls-65" d="M198.12,346.52c1.7-.6.38,1.54-.22,1.33-.55-.19.16-1.31.22-1.33Z"/>
                </g>
                <g>
                    <path class="cls-40"
                          d="M135.48,451.37c.36.07,4.07-.11,4.67,0,.39.07,4.64,1.75,7.55,2.22,2.81.45,6.04.01,8.89.44,2.19.33,2.94,1.31,3.11,1.33,1.73.26,8.36-.56,14.22,2.22.98-.32,5.37-.5,5.78-.44,45.67,6.34,83.26,12.74,131.51,9.77,25.84,2.99,51.6,7.04,76.86,12.88l10,4c-.05,9.62.04,19.26,0,28.88-49.6.02-99.23-.03-148.84,0-35.26-27.07-90.53-29.05-133.73-29.77-11.2-8-30.42-18.25-39.54-27.55-1.7-1.73-1.9-5.24-5.11-3.55-.2-2.26-1.49-.95-2.67-1.33-.42-.14-.15-1.31-.22-1.33l.44-2.67c9.87-1.21,12.34-5.2,13.33-5.33,1.72-.23,9.81,5.36,15.77,3.11,3.96,2.45,10.06,1.93,13.77,2.67.4.08,2.69,1.69,3.11,1.78,1.39.29,4.14.19,5.33.44.19.04,1.9,1.44,3.55,1.78,3.79.76,7.3.37,8,.44,2.45.28,4.65,2.57,4.22,0Z"/>
                    <path class="cls-25"
                          d="M228.34,512.68c-76.11.04-152.25-.03-228.37,0-.04-2.81.06-5.64,0-8.44,2.5.04,4.77-1.23,7.11-1.78,7.18-1.67,14.56-2.88,21.77-4.44-.09,3.62-1.55,13.8,2,12.44,1.52-.59.07-11.42.89-13.33,7.21-1.39,14.27-3.13,21.1-5.78.17.68,7,1.54,10,1.78,37.46,3.03,75.1,4.7,112.41,9.33,17.84,2.21,36.07,4.36,53.09,10.22Z"/>
                    <path class="cls-55"
                          d="M249.22,512.68c-6.95,0-13.93,0-20.88,0-17.02-5.86-35.26-8.01-53.09-10.22-37.3-4.63-74.95-6.3-112.41-9.33-2.99-.24-9.82-1.1-10-1.78,1.66-.64,5.76-2.17,6.66-2.67.71-.39,1.5.02,3.11-2.22,4.75.66,9.84-.37,14.66-.89,4.52-.48,9.01-.99,13.55-1.33.34-.03.61-.88.67-.89.48-.03.94.9,1.11.89,2.97-.2,6.13-.8,9.11-.89,4.56-.13,9.27.47,13.77-.44,43.2.72,98.48,2.7,133.73,29.77Z"/>
                    <path class="cls-19"
                          d="M290.09,462.48c3.08.25,9.54.71,11.55-.44,2.78.61,5.64,1.3,8.44,1.78,1.91.33,3.86.57,5.78.89,6.61,1.09,13.36,1.47,19.99,2.67,2.22.4,4.45.92,6.66,1.33,11.72,2.17,23.96,4.4,35.54,7.11,1.17.27,2.38.6,3.55.89.79.19,1.88.24,2.67.44,3.56.92,7.2,2.3,10.66,3.55,1,.36,1.98.96,3.11.89,0,.74,0,1.49,0,2.22l-10-4c-25.26-5.84-51.02-9.89-76.86-12.88-48.25,2.96-85.84-3.44-131.51-9.77-.4-.06-4.79.13-5.78.44-5.86-2.78-12.49-1.96-14.22-2.22-.17-.03-.92-1-3.11-1.33-2.85-.43-6.08,0-8.89-.44-2.91-.47-7.17-2.15-7.55-2.22-.6-.11-4.3.07-4.67,0-4.05-.76-8.18-2.23-12.22-3.11-1.49-.33-6.18.44-9.77-2.67h-5.78c-8.3-3.88-16.8-5.08-25.55-6.66.05-1.51-.22-2.57-.44-4,16.96,1.71,34.11,6.51,51.32,8.44,27.15,9.26,56.58,7.72,84.42,14.22,19.08.86,38.28,1.11,57.31,2.67,4.57.37,10.74,1.85,15.33,2.22Z"/>
                    <path class="cls-67"
                          d="M15.97,447.37c-1.45,1.73-2.86,6.51-3.11,8.89-14.1,8.43-7.46,22.34-12.88,23.55-.04-10.51.02-21.04,0-31.54,5.16-.82,10.82-1.75,15.99-.89Z"/>
                    <path class="cls-45"
                          d="M7.97,483.8c2.27.71,4.41.81,6.66,1.33-1.57,5.44-9.3,13.84-14.66,15.55-.1-6.06.03-12.15,0-18.22,4.28-6.06,1.56-.7,8,1.33Z"/>
                    <path class="cls-1"
                          d="M19.96,486.47c-.35,3.12-6.7,5.14-9.77,8.66-7.01,8.01,2.21,3.47-3.11,7.33-2.33.54-4.61,1.82-7.11,1.78-.03-1.18.02-2.38,0-3.55,5.36-1.71,13.09-10.11,14.66-15.55,1.78.41,3.57.92,5.33,1.33Z"/>
                    <path class="cls-51"
                          d="M17.74,444.26v1.78c-.82.67-1.71,1.25-1.78,1.33-5.17-.86-10.83.07-15.99.89,0-.74,0-1.48,0-2.22,5.25-1.14,13.63-.97,17.77-1.78Z"/>
                    <path class="cls-6"
                          d="M75.94,455.37c9.12,9.3,28.34,19.54,39.54,27.55-4.51.91-9.21.31-13.77.44.03-1.5-10.37-5.34-10.44-3.55-.6-1.17-2.43-4.59-3.55-4.89-1.91-.51-1.47.87-1.56.89-1.03.18-1.91.49-2,.44-.18-.09-.15-1.18-2-3.55-6.23-8.01-4.86-5.05-12-8.44-.56-.27-1.2-.6-1.78-.89-2.11-1.05-3.29-2.82-4.89-2.67-.16-.33-1.01-1.72-1.33-2.22,1.17-4.11,8.69-1.9,13.77-3.11Z"/>
                    <path class="cls-5"
                          d="M57.28,445.59c.55.72,1.96-.33.89,2.89.79,1.17,1.02.08,1.33.22.05.02-.16.8.22.89,2.45.56,6.43-.93,8.22-.44.07.02-.2,1.19.22,1.33,1.17.39,2.47-.92,2.67,1.33,3.21-1.69,3.41,1.82,5.11,3.55-5.09,1.21-12.6-1-13.77,3.11-2.97-4.63-11.09-10.95-16.88-9.77.3-3.36-1.59-4.92-3.55-7.11l.89-1.33c2.26,3.26,10.66,5.92,14.66,5.33Z"/>
                    <path class="cls-19"
                          d="M135.48,451.37c.43,2.57-1.77.28-4.22,0-.7-.08-4.21.32-8-.44-1.65-.33-3.36-1.74-3.55-1.78-1.2-.25-3.94-.16-5.33-.44-.42-.09-2.71-1.7-3.11-1.78-3.72-.73-9.81-.22-13.77-2.67-5.96,2.25-14.05-3.34-15.77-3.11.15-.84.42-1.29.44-2.22,8.75,1.59,17.25,2.78,25.55,6.66h5.78c3.59,3.11,8.28,2.34,9.77,2.67,4.04.88,8.16,2.35,12.22,3.11Z"/>
                    <path class="cls-8"
                          d="M68.39,446.48l-.44,2.67c-1.79-.48-5.77,1.01-8.22.44-.38-.09-.17-.87-.22-.89v-1.78c3.02-.27,5.82-.07,8.89-.44Z"/>
                    <path class="cls-21"
                          d="M155.47,446.48c.74.15,1.49.3,2.22.44,8.34,1.61,16.91,2.77,25.32,4,10.71,1.56,21.58,2.26,32.21,4.44,25.31.58,50.72,1.23,75.75,4.89-.36.73-.5,1.51-.89,2.22-4.59-.37-10.76-1.85-15.33-2.22-19.03-1.56-38.23-1.81-57.31-2.67-27.84-6.49-57.27-4.96-84.42-14.22-17.21-1.93-34.36-6.73-51.32-8.44-.09-.56.12-1.24,0-1.78.36-.04.53-.3.89-.44-.03.27.54.87.67.89,14.14,2.42,28.55,3.52,42.65,6.22.19-.02.33-1.19.89-1.33,5.75-1.43,10.31-4.85,16.44-6.22l-15.77,7.33c9.39,1.75,18.69,5.02,27.99,6.89Z"/>
                    <path class="cls-67"
                          d="M46.62,426.93c-.24.88.94.9-.22,1.78-4.79.13-7.24,5.67-4.67,9.33.03.14-.04.31,0,.44l-2.22,1.78c-1.26.22-.81-.82-.89-.89-.34-.3-.65-4.51-7.11-3.78,2.76-6.98-2.13-7.79-2.67-8.66h17.77Z"/>
                    <path class="cls-7"
                          d="M28.85,498.02c-7.21,1.56-14.59,2.77-21.77,4.44,5.32-3.86-3.9.68,3.11-7.33,3.08-3.52,9.43-5.54,9.77-8.66,1.25.29,9.08,1.59,9.33,2,.29,3.22-.37,6.37-.44,9.55Z"/>
                    <path class="cls-70"
                          d="M101.71,483.36c-2.97.09-6.14.69-9.11.89-.17.01-.63-.92-1.11-.89-1.33-2.47-1.44-7.65-5.33-7.55.09-.02-.36-1.4,1.56-.89,1.12.3,2.95,3.72,3.55,4.89.07-1.79,10.47,2.06,10.44,3.55Z"/>
                    <g>
                        <path class="cls-14"
                              d="M70.17,464.25c-1.43,1.97,2.39,1.61,4.89,4,1.89,5,.77,9.21,1.78,7.78.21-.3.33-3.08,1.33-4.22,2.06-2.34,1.54,1.21,4,.89,1.85,2.37,1.81,3.47,2,3.55.09.04.97-.26,2-.44,3.89-.09,4.01,5.08,5.33,7.55-.06,0-.33.86-.67.89-4.54.34-9.04.85-13.55,1.33-4.69-4.24-4.89-9.71-8.89-14.66v-7.55c.58.29,1.22.62,1.78.89Z"/>
                        <path class="cls-7"
                              d="M68.39,470.92c3.99,4.96,4.2,10.42,8.89,14.66-4.82.52-9.91,1.55-14.66.89,3.39-4.73,3.49-13.61,2.67-19.1.94,1.18,2.2,2.42,3.11,3.55Z"/>
                        <path class="cls-70"
                              d="M82.16,472.69c-2.46.32-1.94-3.23-4-.89-2.01.38-1.05-1.59-3.11-3.55-2.49-2.38-6.32-2.02-4.89-4,7.14,3.39,5.76.43,12,8.44Z"/>
                        <path class="cls-5"
                              d="M68.39,463.36v7.55c-.91-1.13-2.17-2.38-3.11-3.55-.3-1.97-.96-4.91-1.78-6.66,1.6-.16,2.78,1.62,4.89,2.67Z"/>
                        <path class="cls-28"
                              d="M78.17,471.81c-1,1.14-1.12,3.92-1.33,4.22-1.01,1.44.11-2.78-1.78-7.78,2.06,1.97,1.1,3.94,3.11,3.55Z"/>
                    </g>
                    <g>
                        <path class="cls-67"
                              d="M158.58,409.16c-3.71,1.71-6.66,2.6-7.78,7.11-1.57,1.2-6.95-3.87-11.33,4-2.53-.63-.16-2.02-1.11-2.67-.13-.09-3,1.88-.67-1.11,1.1-1.41,1.58.1,2-.22,4.27-3.32,8.15-6.17,12.66-9.33,2.72-.48,4.29.31,6.22,2.22Z"/>
                        <path class="cls-53"
                              d="M159.92,410.05c.41,1.06.78,1.43.89,1.78.31.98.47,2.5.44,3.55-7.25,1.63-14.46,3.54-21.77,4.89,4.38-7.87,9.76-2.8,11.33-4,1.12-4.51,4.06-5.4,7.78-7.11h.44c.02.06.55,0,.89.89Z"/>
                        <g>
                            <path class="cls-53"
                                  d="M159.92,398.94c-2.43,3.27-1.9,6.54-.89,10.22h-.44c-1.93-1.91-3.5-2.7-6.22-2.22-3,.53-4.25,1.31-6,4-8.47,1.86-10.1,8.02-10.66,8.44-2.19,1.64-43.63,9.7-53.09,13.33-.36.14-.53.4-.89.44-.63-2.73-2.37-5.7-4-8-3.51-4.97-8.95-8.34-15.11-8.44-9.02-.89-13.61,1.61-15.99,10.22h-17.77c-.84-1.37-1.84-9.73-11.11-7.55-.02-.02.1-.49-.44-.44-.62-1.15-2.03-.12-2.67,0-6.63-1.4-11.9,5.95-11.11,12-1.16-.37-2.23-1.11-3.55-.89,0-7.69,0-15.41,0-23.1,24.75-2.61,49.54-5.37,74.42-6.66,25.67-1.33,51.43-.61,77.08-1.78,2.71-.12,6.29-.92,8.44.44Z"/>
                            <path class="cls-51"
                                  d="M150.14,392.28c-2.1,3.37.72,3.26,1.33,6.22-25.65,1.17-51.41.44-77.08,1.78-24.88,1.29-49.67,4.06-74.42,6.66,0-4.88,0-9.78,0-14.66,49.92-5.1,100.18-2.94,150.17,0Z"/>
                            <path class="cls-8"
                                  d="M149.25,390.5c.57.08,1.2-.07,1.78,0,.13.02.84.25,2.67.44,2.02.21,4.18.29,6.22.44.29.02.6-.02.89,0-3.36,1.8,1.99.15,1.78,1.78-4.09-.35-8.35-.65-12.44-.89-49.99-2.94-100.25-5.1-150.17,0,0-2.96,0-5.93,0-8.89,30.38.29,61,.04,91.3,2.22.34.02.1.86.44.89,14.95,1.09,29.95,2.17,44.87,3.55,4.66.43,12.73,2.63,12.66.44Z"/>
                            <path class="cls-75"
                                  d="M55.51,382.5c11.7.53,23.43,1.3,35.1,2.22,7.21.57,14.54,1.53,21.77,2.22,10.41,1,20.87,2.48,31.32,3.11-1.13-1.89-.23-1.69-.22-1.78,1.44,2.7,3.67,1.92,5.78,2.22.07,2.18-8-.01-12.66-.44-14.92-1.38-29.93-2.47-44.87-3.55-.34-.03-.1-.86-.44-.89-30.3-2.18-60.92-1.93-91.3-2.22,0-.44,0-.89,0-1.33,18.46-.88,37.07-.39,55.54.44Z"/>
                            <path class="cls-23"
                                  d="M162.58,393.17c1.65.14,5.27.17,4.89,1.33-1.44.25-6.68,3.27-7.55,4.44-2.15-1.36-5.73-.57-8.44-.44-.62-2.96-3.43-2.85-1.33-6.22,4.09.24,8.35.54,12.44.89Z"/>
                        </g>
                        <path class="cls-31"
                              d="M280.32,380.28c1.78.96,2.91,4.7,5.33,5.78-17.08,3.54-34.08,8.12-51.09,12,.22-1.97-2.44-.05-2.67-.67-.17-.44,2.01-2.67-.89-9.11,2.24-2,3.47-5.31,6.66-2.44,1.39,11.07.94-2.12,3.33-2.89,4.34-1.4,2.47,10.93,3.78,8.89,3.3-.17.7-2.58,8.44-2.22.05,0-.17.61.89.44,7.07-8.96,4.73,2.32,10-7.55l5.55,2.22c1.46,2.32.59-1.23.89-1.78,1.96-3.51,6.31-4.53,9.77-2.67Z"/>
                        <path class="cls-31"
                              d="M296.31,383.84c-3.54.71-7.12,1.49-10.66,2.22-2.42-1.08-3.55-4.82-5.33-5.78-.36-2.55.97-6.34,4.22-4.89,2.24,1,4.05,9.74,2.44.22,4.45-3.04,10.14,2.07,9.33,8.22Z"/>
                        <path class="cls-43"
                              d="M270.1,382.95c.09.86.13,1.86-.44,1.78l-5.55-2.22c-5.27,9.88-2.92-1.4-10,7.55,1.33-10.85,4.94-7.65,10-12,3.84-1.18,5.62,1.38,6,4.89Z"/>
                        <path class="cls-43"
                              d="M253.22,389.61c-7.74-.36-5.14,2.05-8.44,2.22-.18-8.17,5.95-10.21,8.44-2.22Z"/>
                        <path class="cls-55" d="M269.66,384.72c.57.08.54-.92.44-1.78h.44c-.3.54.57,4.1-.89,1.78Z"/>
                        <path class="cls-23"
                              d="M195.46,398.5c-4.54-.11-6.57-.46-9.33,3.55-.4-1.32.31-2.03-.22-2.22-1.38,2.19-1.73-1.67-6.89-3.55-2.47-3.91,11.09,2.19,12.22-1.33,3.54,1.4,6.05-1.36,4.22,3.55Z"/>
                    </g>
                    <g>
                        <path class="cls-33"
                              d="M398.06,405.61c-.01,12.28.02,24.59,0,36.88-8.29,1.78-4.91,10.34-6,11.11-8.81-1.71-12.49,7.48-8.66,13.77,0,.29,0,.6,0,.89.04,1.57-1.59,5.77.89,6.66.09.72-.06,1.5,0,2.22-.78-.2-1.88-.25-2.67-.44-1.73-13.13-2.52-8.43-4.44-7.55-2.87,1.31-1.69-.11-2.22-.89h.44c5.56-6.31-6.24-19.98-10.22-10.66-2.74-.93-4.91-.61-7.11,1.11,2.24-5.2,2.48-10.84,0-15.77-3.16-6.28-11.35-7.55-17.77-6.22-8-.66-13.57,7.13-12.44,15.11-1.95-1.1-3.77-1-5.78-.89-1.78-2.8-8.58,1.52-9.77,3.55-2.11-.36-4.17.53-6.22.44-1.12-.05-1.63-.46-2.67-.44-3.92.07-9.01-1.15-12.44,5.78-25.04-3.66-50.45-4.31-75.75-4.89-10.63-2.18-21.5-2.88-32.21-4.44-.58-.53,4.08-1.72,6.44-2.22,19.25-4.12,38.7-7.57,57.98-11.55,4.68-.97,9.38-2.6,14.22-2.22,2.14.23,1.65-1.31,1.78-1.33,15.58-3.27,31.28-6.09,46.87-9.33.37-.08-.06-.72.67-.89.05-.01-.3,1.07.67.89l.67-1.33c.63-.08.33.86.67.89.74.06,12.16-3.53,14.22-4,12.51-2.86,25.2-4.95,37.76-7.55.44-.09,1.88-1.31,2-1.33.41-.08.48-.36.89-.44.61-.13.2,1.08,1.11.89,9.68-1.98,19.25-4.62,29.1-5.78Z"/>
                        <path class="cls-8"
                              d="M398.06,370.51c0,3.4,0,6.82,0,10.22-1.94.83-4.96,4.64-6.66,6.66-.18-.84.73-1.12.22-1.33-1.84-.77-20.06,5.75-23.77,6.22-.05-2.73-1.31-19.31.22-19.99l29.99-1.78Z"/>
                        <path class="cls-8"
                              d="M398.06,400.27l-30.21,5.78c-.04-3.4.05-6.82,0-10.22,3.82-.28,7.74-.68,11.55-.89,6.2-.34,12.5-.07,18.66-.89,0,2.07,0,4.15,0,6.22Z"/>
                        <path class="cls-55"
                              d="M398.06,405.61c-9.85,1.15-19.42,3.8-29.1,5.78-.92.19-.5-1.01-1.11-.89v-4.44l30.21-5.78c0,1.77,0,3.56,0,5.33Z"/>
                        <path class="cls-61"
                              d="M398.06,380.73c0,4.44,0,8.89,0,13.33-6.16.82-12.46.55-18.66.89,12.07-2.86,7.34-2.04,12-7.55,1.71-2.02,4.72-5.84,6.66-6.66Z"/>
                        <path class="cls-23"
                              d="M220.78,431.82l2,6.66c4.87-1.05,17.04-4.98,20.66-4.44.53.08,5.33,1.98,4,3.11-19.28,3.99-38.73,7.43-57.98,11.55-2.36.51-7.02,1.69-6.44,2.22-8.41-1.23-16.98-2.39-25.32-4,2.49-2.03,7.89-1.21,8-3.11.96-.26,1.24.39,4-.89,17.12-3.07,34.22-6.9,51.09-11.11Z"/>
                        <path class="cls-55"
                              d="M364.29,406.94c.29,2.53-.65,2.95,2.67,4-.12.02-1.56,1.24-2,1.33-12.56,2.6-25.26,4.7-37.76,7.55-2.05.47-13.48,4.06-14.22,4-.34-.03-.03-.97-.67-.89.76-2.32.2-4.76.44-7.11.65,1.8,1.81,1.47,3.78,1.33,2.35-.16,39.62-8.37,45.98-9.77.43-.1.73-.66,1.78-.44Z"/>
                        <path class="cls-55"
                              d="M311.42,418.49c-.06,1.67-.37,3.23-.44,4.89-.73.17-.29.81-.67.89-15.59,3.24-31.29,6.06-46.87,9.33.39-1.76.28-3.56.44-5.33l47.54-9.77Z"/>
                        <path class="cls-55"
                              d="M261.66,429.15c-.17,1.65-.5,4.58,0,5.78-4.83-.38-9.53,1.25-14.22,2.22,1.33-1.13-3.47-3.03-4-3.11,5.44-2.72,12.25-3.26,18.22-4.89Z"/>
                        <path class="cls-8"
                              d="M232.33,398.5c1.01,2.48-2.21,3.53-3.11,5.78-4.59.94-3.02,3.32-2.44,3.55.29.12,4.07-1.31,6-1.78,8.06-1.97,15.82-4.83,23.77-7.11.59-.17.76.55,1.11.44-4.53,3.06-9.25,3.78-8,10.89.21,1.22,2.89,4.82,4,6-4.57-2.63-6.47-8.03-3.55-12.66-21.8,5.5-43.25,14.47-62.42,26.44-5.17,3.23-16.94,12.4-17.99,12.88-2.76,1.27-3.04.63-4,.89-3.96,1.07-8.97,1.41-10.22,2.67-9.3-1.87-18.6-5.14-27.99-6.89l15.77-7.33c-6.13,1.37-10.68,4.79-16.44,6.22-.56.14-.7,1.31-.89,1.33-14.1-2.7-28.51-3.8-42.65-6.22-.13-.02-.7-.62-.67-.89,9.46-3.63,50.9-11.69,53.09-13.33.57-.42,2.19-6.58,10.66-8.44,1.75-2.69,3-3.47,6-4-4.51,3.16-8.39,6.01-12.66,9.33-.42.33-.9-1.18-2,.22-2.33,2.99.54,1.02.67,1.11.95.65-1.41,2.03,1.11,2.67,7.31-1.35,14.52-3.25,21.77-4.89,1.33-.3,2.67-.58,4-.89,3.71-.87,7.41-1.77,11.11-2.67,3.72-.9,7.41-2.23,11.11-3.11,1.19-.28,2.37-.61,3.55-.89,13.75-3.27,27.55-6.19,41.32-9.33Z"/>
                        <path class="cls-8"
                              d="M391.39,387.39c-4.65,5.51.07,4.7-12,7.55-3.81.21-7.73.61-11.55.89-.02-1.18.02-2.38,0-3.55,3.71-.47,21.93-6.99,23.77-6.22.51.21-.41.49-.22,1.33Z"/>
                        <path class="cls-8"
                              d="M364.73,373.17c0,.59,0,1.19,0,1.78-1.97.44-.2,8.19-1.11,12.88l-33.1,10.66c1.26-7.45-4.7-13.08-11.11-15.99,1.51-2.1,4.78.04,4-3.55,6.96-1.23,13.89-2.48,20.88-3.55,6.68-1.03,13.76-2.74,20.44-2.22Z"/>
                        <path class="cls-8"
                              d="M364.73,374.95c0,8.56-1.22,25.22-.44,31.99-1.05-.22-1.35.35-1.78.44,2.3-1.79,1.59-10.71.22-11.11-1.67-.49-29.6,6.47-33.99,7.11.82-1.03,1.54-3.5,1.78-4.89l33.1-10.66c.91-4.69-.86-12.44,1.11-12.88Z"/>
                        <path class="cls-67"
                              d="M253.66,416.27c2.7,1.56,5.74,2.33,8.89,2.22.01.09.44-.47.44,1.78-14.03,3.89-28.08,8.03-42.21,11.55-16.88,4.2-33.98,8.04-51.09,11.11,1.06-.49,12.82-9.66,17.99-12.88,19.17-11.96,40.62-20.93,62.42-26.44-2.91,4.63-1.01,10.03,3.55,12.66Z"/>
                        <path class="cls-4"
                              d="M262.99,420.27c0,1.17-1.08,6.4-1.33,8.89-5.96,1.63-12.78,2.16-18.22,4.89-3.62-.53-15.79,3.39-20.66,4.44l-2-6.66c14.12-3.52,28.18-7.66,42.21-11.55Z"/>
                        <path class="cls-13"
                              d="M157.69,446.92c-.74-.14-1.48-.3-2.22-.44,1.24-1.26,6.26-1.59,10.22-2.67-.1,1.9-5.51,1.08-8,3.11Z"/>
                        <path class="cls-8"
                              d="M362.51,407.38c-6.36,1.4-43.64,9.61-45.98,9.77-1.96.13-3.13.47-3.78-1.33.23-2.27-.22-3.66.44-6.22,2.79-.62,6.77-1.58,9.33-2.67,1.94-.83,4.9-1.9,6.22-3.55,4.39-.64,32.32-7.59,33.99-7.11,1.37.4,2.08,9.31-.22,11.11Z"/>
                        <path class="cls-8"
                              d="M311.42,410.49c.15,2.45.09,5.52,0,8l-47.54,9.77c.27-2.97,1.01-5.97,1.33-8.89,2.68-1.25,5.71-1.58,8.44-2.67,6.47-.28,13.42-3.01,19.99-4.44,6.12,1.04,11.83-.5,17.77-1.78Z"/>
                        <path class="cls-75"
                              d="M299.42,383.39c2.39,4.04-12.01,2.61-7.11,5.33-8.55,2.38-16.87,5.55-25.32,8-2.85.82-5.66,1.87-8.44,2.67-.24.07-.65-.07-.89,0-.35.1-.52-.61-1.11-.44-7.95,2.28-15.71,5.14-23.77,7.11-.96-2.94-1.35-2.23-3.55-1.78.9-2.24,4.12-3.3,3.11-5.78.76-.17,1.49-.28,2.22-.44,17.01-3.88,34.01-8.46,51.09-12,3.55-.73,7.12-1.51,10.66-2.22.8-.16,1.93-.21,3.11-.44Z"/>
                        <path class="cls-75"
                              d="M323.41,378.95c.78,3.6-2.49,1.45-4,3.55-6.2-2.82-11.1.61-14.22,6.22.04-.2-.98-.33,1.11-4-4.66,1.36-9.32,2.7-14,4-4.9-2.72,9.5-1.29,7.11-5.33,7.95-1.58,16.01-3.03,23.99-4.44Z"/>
                        <path class="cls-21"
                              d="M232.78,406.05c-1.93.47-5.71,1.89-6,1.78-.57-.23-2.15-2.62,2.44-3.55,2.21-.45,2.59-1.16,3.55,1.78Z"/>
                        <path class="cls-10"
                              d="M305.2,388.72c-.35,1.75-.64,3.68-1.33,5.33-6.72-2.76-15.74.41-16.44,8.22-.44,4.92,1.14,9.01,6.22,10-6.57,1.43-13.53,4.17-19.99,4.44,9.8-3.91,12.27-7.15,3.55-15.55-5.66-5.46-5.07-2.33-10.22-4.44,8.46-2.45,16.78-5.62,25.32-8,4.67-1.3,9.34-2.63,14-4-2.09,3.67-1.07,3.8-1.11,4Z"/>
                    </g>
                </g>
                <g>
                    <path class="cls-39"
                          d="M264.32,402.94c.18.57-.2,3.23.67,3.55.68.25,4.16-3.21,5.11-3.55.05,2.08-4.73,5.89-4.89,6.44-.39,1.35.3,7.29,0,10-.33,2.92-1.06,5.92-1.33,8.89-.16,1.77-.06,3.57-.44,5.33-.13.03.36,1.57-1.78,1.33-.5-1.19-.17-4.13,0-5.78.25-2.49,1.34-7.72,1.33-8.89,0-2.25-.43-1.69-.44-1.78-.61-4.33-4.91-6.71-2.44-6.66.88.02,2.9,3.28,3.33,1.56-1.37-4.2.83-2.06.89-2.67.04-.4-1.03-5.73-.89-8l.89.22Z"/>
                    <path class="cls-11"
                          d="M258.55,399.39c2.13,4.41,5.07,1.29,5.78,3.55l-.89-.22c-.14,2.26.92,7.6.89,8-.05.6-2.26-1.54-.89,2.67-.43,1.73-2.45-1.54-3.33-1.56-2.47-.04,1.84,2.33,2.44,6.66-3.15.11-6.18-.67-8.89-2.22-1.11-1.18-3.78-4.78-4-6-1.25-7.1,3.47-7.82,8-10.89.24-.07.65.07.89,0Z"/>
                    <path class="cls-71"
                          d="M266.99,396.72c5.14,2.11,4.56-1.02,10.22,4.44-3.41,2.72-3.83.6-7.11,1.78-.95.34-4.43,3.81-5.11,3.55-.87-.33-.49-2.99-.67-3.55-.7-2.26-3.65.86-5.78-3.55,2.78-.8,5.59-1.84,8.44-2.67Z"/>
                    <g>
                        <path class="cls-50"
                              d="M277.21,401.16c8.72,8.4,6.24,11.64-3.55,15.55-2.73,1.09-5.76,1.42-8.44,2.67.3-2.71-.39-8.64,0-10,.16-.56,4.94-4.36,4.89-6.44,3.28-1.18,3.69.95,7.11-1.78Z"/>
                        <path class="cls-69"
                              d="M269.43,410.49c1.79,1.43,2.71,3.77,1.33,5.78-.47-1.33-2.31-5.77-1.33-5.78Z"/>
                    </g>
                </g>
            </g>
        </g>
    </g>
</svg>