<?xml version="1.0" encoding="UTF-8"?>
<svg xmlns="http://www.w3.org/2000/svg" version="1.1" xmlns:xlink="http://www.w3.org/1999/xlink" viewBox="0 0 398 512">
    <defs>
        <style>
            .cls-1 {
            fill: #767e6e;
            }

            .cls-2 {
            fill: #92ae9b;
            }

            .cls-3 {
            fill: #709ea4;
            }

            .cls-4 {
            fill: #f1f5f8;
            }

            .cls-5 {
            fill: #a4c4f0;
            }

            .cls-6 {
            fill: #39688e;
            }

            .cls-7 {
            fill: #95b0aa;
            }

            .cls-8 {
            fill: #496c57;
            }

            .cls-9 {
            fill: #aec0cc;
            }

            .cls-10 {
            fill: #718f7d;
            }

            .cls-11 {
            fill: #b2bcb3;
            }

            .cls-12 {
            fill: #618176;
            }

            .cls-13 {
            fill: url(#Nameless_Gradient_383);
            }

            .cls-14 {
            fill: #4783b2;
            }

            .cls-15 {
            fill: #daeaf4;
            }

            .cls-16 {
            fill: #688f99;
            }

            .cls-17 {
            fill: #9ec5db;
            }

            .cls-18 {
            fill: #729ab0;
            }

            .cls-19 {
            fill: #5c8c77;
            }

            .cls-20 {
            fill: #4a7384;
            }

            .cls-21 {
            fill: #b9d6e7;
            }

            .cls-22 {
            fill: #537977;
            }

            .cls-23 {
            fill: #5991bd;
            }

            .cls-24 {
            fill: #fcf8ed;
            }

            .cls-25 {
            fill: url(#Nameless_Gradient_382);
            }

            .cls-26 {
            fill: #689b8b;
            }

            .cls-27 {
            fill: #b3cfcd;
            }

            .cls-28 {
            fill: #77614c;
            }

            .cls-29 {
            fill: #7ea099;
            }

            .cls-30 {
            fill: #6a7e4b;
            }

            .cls-31 {
            fill: #7e948d;
            }

            .cls-32 {
            fill: #5e8067;
            }

            .cls-33 {
            fill: #9ebfc6;
            }

            .cls-34 {
            fill: #71a1c6;
            }

            .cls-35 {
            fill: url(#Nameless_Gradient_336);
            }

            .cls-36 {
            fill: #719776;
            }

            .cls-37 {
            fill: url(#Nameless_Gradient_336-2);
            }
        </style>
        <linearGradient id="Nameless_Gradient_336" data-name="Nameless Gradient 336" x1="199.49" y1="231.58" x2="199.17"
                        y2="502.68" gradientTransform="translate(0 -414.01) scale(1 1.81)"
                        gradientUnits="userSpaceOnUse">
            <stop offset=".12" stop-color="#316187"/>
            <stop offset=".54" stop-color="#5d89a8"/>
            <stop offset="1" stop-color="#a4bfd2"/>
        </linearGradient>
        <linearGradient id="Nameless_Gradient_336-2" data-name="Nameless Gradient 336" x1="199.48" y1="2.84" x2="199.17"
                        y2="273.95" gradientTransform="matrix(1,0,0,1,0,0)" xlink:href="#Nameless_Gradient_336"/>
        <linearGradient id="Nameless_Gradient_382" data-name="Nameless Gradient 382" x1="198.22" y1="383.69" x2="290.82"
                        y2="538.21" gradientUnits="userSpaceOnUse">
            <stop offset="0" stop-color="#95bad2"/>
            <stop offset="1" stop-color="#4785b3"/>
        </linearGradient>
        <linearGradient id="Nameless_Gradient_383" data-name="Nameless Gradient 383" x1="266.46" y1="268.43" x2="239.69"
                        y2="300.99" gradientUnits="userSpaceOnUse">
            <stop offset="0" stop-color="#628eb1"/>
            <stop offset="1" stop-color="#4a779d"/>
        </linearGradient>
    </defs>
    <!-- Generator: Adobe Illustrator 28.7.1, SVG Export Plug-In . SVG Version: 1.2.0 Build 142)  -->
    <g>
        <g id="Layer_1">
            <g id="Background">
                <rect class="cls-35" x=".54" y=".39" width="397.64" height="511.22"/>
                <path class="cls-37"
                      d="M.54,232.89c.03-77.49-.02-155.01,0-232.5h397.56c-.02,91.69.03,183.41,0,275.1l-34.17-37.27-.67-.44-26.4,26.62c-5.15-1.69-10.36-6.54-14.64-10.21-11.07-9.49-21.18-20.53-32.17-30.17-.82-.16-1.05.86-1.11.89-1.8.87-11.9,11.31-15.31,14.2-5.52,4.67-52,40.46-55.02,42.15-1.42.8-1.48,1.39-2.44,0,.76-7.22-9.25-9.24-14.86-4.44-3.16,2.71-3.04,6.5-4.44,6.21-3.9-5.88-9.53-8.07-16.42-7.54-3.71-17.19-22.06-21.68-33.28-7.99-2.79-8.45-8.59-13.19-17.75-12.42-2.07-7.11-7.52-9.61-14.64-9.32-2.48-5.76-1.4-6.54-1.55-6.88-.27-.59-2.35-1.01-2.44-1.11-11.04-12.38-25.05-7.7-31.5,6.21-9.14-3.32-17.28,2.73-19.52,11.54-.81.36-7.62-8-15.53.89-7.75-7.03-12.15-1.46-13.75-1.77-8.12-6.16-4.53-5.19-5.55-8.65-3.46-11.77-12.73-16.36-24.4-13.09Z"/>
                <path class="cls-17"
                      d="M342.2,358.46c9.8,2.02,20.15,2.32,30.17,1.33-1.23,5.87,4.07,9.61,4.88,15.09-18.77,4.33-47.77,13.22-65.22,20.85-4.69,2.05-9.37,4.28-13.75,6.88,33.48,3.91,67.47,7.41,99.83,17.53,0,.88,0,1.78,0,2.66-21.03-6.43-42.56-10.6-64.34-13.75-16.06-2.32-28.05-4.28-45.04-3.55,1.84.63,4.08,1.07,5.99,1.33.44,3.02-11.3,7.32-14.42,8.43-13.27,4.71-33.88,6.48-39.93,10.65-8.72,6.01,4.44,6.73,3.33,14.64-44.31-.87-88.6-2.69-132.89-3.11-.17,0-.72-.89-.89-.89-13.47-.11-26.93,1.23-40.38.44-2.29,1.4-3.84-.38-3.33,2.22-9.12-1.08-18.32-1.84-27.51-2.22.07-2.27.1-6.4.89-8.43.68-1.76,1.46-.08,2.22.89,3.16,2.58,9.08-.54,11.98-3.11.44.43,2.31.63,4.44,3.11l.89.67c.17-.97-.82-.59-.89-.67.82-1.37,3.8,2.63,5.32-.44.5-1.01-3.69-3.69-1.55-3.55,1,1.8,10.65,9.78,11.76,8.21.37-.53-7.98-6.68,6.43-.22-1.01-1.45-2.62-1.74-4.22-3.11,1.15.44,11.17,3.47,9.32,1.77.2-1-1-.73.89-2.22,1.07-.84.83-.86.89-.89,5.18-2.27,93.4-15.48,106.93-17.3,22.5-3.04,45.05-5.79,67.67-7.99-57.72-4.38-116.08-1.94-173.27,6.66.3-.78-1.1-1.21-1.55-1.33-9.82-2.53.03.61-.67-2.66,3.29.04,11.84-7.82.67-8.43,2.68-5.72-6.61-1.43-7.76-6.21-.52-.84-.79-2.56-.89-2.66l114.7-14.2c.85-.27,5.28-4.55,5.55-5.32,12.67,5.47,26.1,8.43,39.27,12.42-.31-4.35,9.42-3.32,16.42-4.88,26.79-5.99,53.05-14.88,79.87-20.85,1.58,3.09,5.96,6,8.21,2.22Z"/>
                <path class="cls-21"
                      d="M272.09,511.54c-90.51.08-181.04-.06-271.55,0-.03-18.18.04-36.39,0-54.58,14.03-.1,66.26,5.22,75.21.89,2.37-1.15,4.25-2.86,2.44-5.32.25.03.58-.64,2-.44,65.94,9.3,131.21,33.03,191.9,59.46Z"/>
                <path class="cls-25"
                      d="M243.7,440.55c23.2.46,46.69,1.81,69.88,1.33.34,0,.11-.88.44-.89,8.2-.18,23.46-2.12,26.62,1.77,19.18-.55,38.5,1.32,57.46-1.33,0,.29,0,.6,0,.89-32.14,3.8-91.43,12.58-119.36,25.73-1.45.68-3.37,1.35-3.11,2.22-3.42-.15-5.64.88-2.88,2.66,1.76,1.13,24.41,7.52,29.28,9.32,21.25,7.83,41.91,17.98,61.45,29.28-29.42.11-58.87-.03-88.3,0-65.37-29.43-137.28-63.84-208.99-72.32-.51-2.6,1.04-.82,3.33-2.22,13.45.78,26.9-.56,40.38-.44.17,0,.72.89.89.89,44.29.42,88.58,2.24,132.89,3.11Z"/>
                <path class="cls-21"
                      d="M216.19,281.26c-.35,3.38-2.71,2.49-3.99,5.32-12.38,7.81-24.69,15.93-37.49,23.07-6.09,3.4-18.08,10.39-22.85,10.65-.01-.27,1.84-4.82-1.55.44-3.34-2.7-2.2-.17-2.44,0-2,1.37-.98.22-3.11-.22,1.88,2.87,4.91,3.42,7.54,2.44,0,.05.82-.15.89.22-3.94,2.07,4.24,3.4.44,5.55-3.87,2.19-14.02-13.23-13.09-13.75,1.33.58,5.17,3.08,6.21,2.66.44-.18.12-1.27.22-1.33,4.86-3.12.44-.05,0-6.21,3.22.19-4.67-4.93-7.1-7.99l2.22-2.44-4.66-4.66c1.74,5.77-1.14.7-3.55,6.21-2.85-2.31-9.17,8.28-2.66,3.99,1.72-1.14,2.67-6.25,2.88.44-1.19,1.67-.8,1.95-.89,2.22-5.7,1.99,1.96,1.63-5.32,5.32-4.51-1.77,2.63-.72,1.11-3.11-6.62-1.72-17.14-9.42-22.63-11.54-5.8-2.24-.84,2.27-4.22,3.99-.09-1.89-1.06-3.01-1.77-.89-.18-.26.44-1.59-.67-2.22-.25-.14-4.4,1.48-2.88-2.66.39.15.54.4.89.44,1.84.25,3.15-3.07,3.11-3.33-.16-.97-6.62-9.01.67-1.11,2.4.69-2.04-5.07-4.22-4.22,2.36-4.29-3.55,1.72-3.55-1.33,0-1.19,2.27.24,0-2l.44-2.66c1.89.68,2.71,1.77,2.88,1.77.18,0,2.61-1.63,2.44-2.44-.16-.74-3.61-1.86-3.77-2-4.87-4.2-4.49-6.63-.44-3.55,1.69-4.19-5.58-5.83-1.55-5.1-.21-1.18-.96-6.95-2.66-5.1-.02.02.09.49-.44.44-.32-.66-1.08-1.56-1.33-1.11-2.67,5.4,3.12,5.81,2.66,7.54-.66,2.5-1.84-1.05-2-1.11-.28-.11-4.55,4.59-.22,2.44-1.83,2.67-2.38,5.65-4.88,8.87-1.1,1.42-2.17.64-3.11,3.77-1.49-.71-1.93.35-2.88,0-.94-.34-1.95-1.64-3.11-2.22-.06-.03-.6.81-1.33.44-.91-.46-7.13-7.93-5.77-1.33-2.59-2.72-6.58-3.46-8.21-4.44-1.18-.71-1.83-.34-2-.44-.39-.24-3.59-6.01-6.88-4.88-1.16-1.78-3.09-3.46-5.32-3.55-2.26-2.54-5.06-1.08-9.54-12.87-1.06-.28-.58,1.64-.67,3.99-.28.03-.66-.06-.89,0-1.8.51-24.66,21.99-27.07,25.73-2.41,1.86-4.72,4.07-7.54,5.32,0-19.96,0-39.94,0-59.9,11.67-3.27,20.94,1.32,24.4,13.09,1.02,3.46-2.57,2.49,5.55,8.65,1.61.31,6-5.26,13.75,1.77,7.91-8.89,14.72-.53,15.53-.89,2.25-8.81,10.39-14.86,19.52-11.54,6.45-13.91,20.47-18.59,31.5-6.21.09.1,2.17.52,2.44,1.11.15.33-.93,1.12,1.55,6.88,7.12-.29,12.57,2.21,14.64,9.32,9.16-.77,14.96,3.97,17.75,12.42,11.22-13.69,29.56-9.2,33.28,7.99,6.88-.52,12.52,1.66,16.42,7.54,1.4.29,1.27-3.5,4.44-6.21,5.62-4.81,15.62-2.78,14.86,4.44Z"/>
                <path class="cls-21"
                      d="M355.07,338.5c2.34,2,4.12-2.94,5.99-2.66.61.09,9.83,8.69,9.1,4.88,3.76,5.2.84,6.06.89,6.43.07.49,2.09,4.14,3.77,3.77,3.67-.81-1.92-5.92-2.44-7.32-.15-.4-1.04-8.75,0-6.88,1.37,3.36,8.31,8.27,11.98,9.54-6.05-6.01-.81-1.38-.44-2.22-5.39-5.97-1.88-4.86-1.77-5.32.36-1.5-7.57-3.6-8.87-5.1-6.74-7.8,5.46.72,6.43.44.23-.07,2.35-3.68.22-3.77.07-1.57,5.64,1.56,6.88,1.55,5.53-.04,4.77-3.63-4.88-2.66-3.49-5.72-7.43-5.2-4.22-7.1.13-.08,1.25,1.79,1.55-1.33,1.18,1.12,2.76,2.28,3.99.89.53.13-1.02,1.12,2.44,1.33,3.94.24,1.33-.7,1.33-.89.03-1.16-.27-2.36.44-2.88-8.74-2.86,6.87-2.96,10.65-3.33,0,18.18.01,36.39,0,54.58-6.92,1.59-13.93,2.84-20.85,4.44-.81-5.48-6.11-9.22-4.88-15.09,22.21-2.19-1.24-4.43-9.76-3.55.17-1.06.16-9.11,0-10.43-1.56-12.83-3.26-1.81-2.66,11.76-1.62-.97-.57-1.51-1.11-1.77-.89-.44-20.22,1.15-16.64,2.66-2.25,3.78-6.63.87-8.21-2.22-26.82,5.97-53.08,14.87-79.87,20.85-6.99,1.56-16.73.53-16.42,4.88-13.17-4-26.59-6.96-39.27-12.42,1-2.93-4.76-2.19-6.21-3.77,17.75-5.73,36.26-9.3,54.35-13.98,3.89-1,7.66-3.08,11.54-3.99,11.01-2.59,6.67.35,8.21,1.33,4.7,3-.8-10.91,5.1-6.21.47-.21-3.12-1.98,8.87-2.22l.67-.67c-.63-.78-1.49-.57-2.66-1.55-.04-.03-.4-.85-.44-.89,3.97-1.02,8.5-.1,11.98-2.66.17.2.63-.47.67-.44.77.53-.34,3.57,3.33-.67-3.14-.16,1.09-5.52,2.88-5.1,2.06.48,3.95,7.77,4.88,7.99,2.1.49,4.14-2.73,1.77-1.33-6.56-6.59-3.04-8.68,3.55-2.22,1.8.01-1.22-2.26-1.11-2.44.39-.62,1.64.4,1.77-.89.1-.99-6.33-3.13-6.66-4.88,14.05.78,1.35.36-.44-3.99,1.58.62,5.49.76,5.77.67,2.4,4.63,5.71,2.5,11.54,1.33,1.06-.21,3.22-1.14,4.22-1.77,6.12-.13,12.13-.38,17.97-2.22,1.22-.39,2.17-1.66,3.11-.89-1.27,2.39-16.18,9.74-3.77,4.88l-5.1,3.33c5,2.05,6.02.34,10.43-1.55,2.35-2.06-.07-1.55.22-2.44.42-1.29,8.59-7.39,9.98-5.1l6.21-5.32c3.15,3.11,17.96,14.35,5.77,7.99l-.89,1.33c-3.19-2.08,1.5,2.04,1.55,2.44.3,2.36-2.95,3.61-3.55-3.11-1.58,1.14-3.68-.27-3.77-2-.56,9.7-3.4-1.26-2.44,5.55-.76,2.1-3.78,2.39-4.44,1.77-1.79-1.67,1.67-7.74-3.33.67-1.88-1.25-6.94,2.03-7.32,3.77-.5,2.26,3.3.67,2.88,2.88-5.74,2.01-9.37,7.8-15.09,6.66-2.02,7.31,8.32.21,9.76.89-.6,2.39.62.35,1.55,1.55-10.54,11.3,1.94,3.03,9.98-7.76-1.23,6-3.44,11.49-7.32,16.2,9.53.26,1.93-4.89,8.21-11.31.55.97,1.87-.25,2.44-.89Z"/>
                <path class="cls-17"
                      d="M320.9,410.38c.7,4.08,2.4,2.52,5.77.89,1.06.19,2.1.25,3.11.44,13.91,2.62,37.58,7.91,49.92,13.75,6.41,3.04,12.01,7.91,18.41,10.65,0,1.77,0,3.55,0,5.32-18.96,2.65-38.28.78-57.46,1.33-3.16-3.9-18.42-1.96-26.62-1.77-.34,0-.11.88-.44.89-23.19.47-46.68-.88-69.88-1.33,1.12-7.91-12.05-8.64-3.33-14.64,6.05-4.17,26.66-5.94,39.93-10.65,3.12-1.11,14.86-5.41,14.42-8.43,8.77,1.19,17.44,2.07,26.18,3.55Z"/>
                <path class="cls-15"
                      d="M398.11,442.32c-.02,9.16.03,18.35,0,27.51-24.78-1.45-65.58-6.24-88.52-4.88-5.61.33-15.7,2.51-21.96,3.11-2.85.27-6.02.07-8.87,0,27.92-13.15,87.22-21.94,119.36-25.73Z"/>
                <path class="cls-15"
                      d="M398.11,370.44c0,13.6.01,27.22,0,40.82-16.67-6.95-57.15-15.23-73.88-15.53-5.61-.1-13.21,2.48-12.2,0,17.45-7.63,46.45-16.53,65.22-20.85,6.92-1.6,13.93-2.84,20.85-4.44Z"/>
                <path class="cls-4"
                      d="M66.21,439.22c71.7,8.48,143.61,42.89,208.99,72.32-1.03,0-2.07,0-3.11,0-60.69-26.42-125.96-50.16-191.9-59.46-1.42-.2-1.75.48-2,.44-.48-.07-4.23-1.57-5.99-1.77-10.94-1.29-22.04-1.94-33.06-1.77.09-3.99-.56-7.93-.44-11.98,9.19.38,18.39,1.14,27.51,2.22Z"/>
                <path class="cls-17"
                      d="M398.11,469.83c-.04,10.78.19,21.61,0,32.39-26.84-19.09-69.78-28.34-102.27-32.83-4.09-.57-8.72.08-8.21-1.33,6.27-.6,16.35-2.77,21.96-3.11,22.94-1.36,63.74,3.43,88.52,4.88Z"/>
                <path class="cls-17"
                      d="M287.62,468.06c-.52,1.41,4.12.77,8.21,1.33,32.49,4.49,75.43,13.75,102.27,32.83-.05,3.1.04,6.22,0,9.32-3.54.05-7.11-.07-10.65,0-15.64-14.56-46.83-24.62-67.67-30.62-6.54-1.88-39.93-10.47-44.15-10.65-.26-.87,1.65-1.53,3.11-2.22,2.86.07,6.03.27,8.87,0Z"/>
                <path class="cls-14"
                      d="M275.64,470.28c4.22.18,37.61,8.77,44.15,10.65,20.83,6,52.03,16.05,67.67,30.62-7.97.16-15.99-.03-23.96,0-19.54-11.31-40.21-21.45-61.45-29.28-4.87-1.8-27.52-8.18-29.28-9.32-2.76-1.78-.53-2.81,2.88-2.66Z"/>
                <path class="cls-17"
                      d="M398.11,411.26c0,2.95,0,5.92,0,8.87-32.37-10.12-66.35-13.62-99.83-17.53,4.39-2.59,9.06-4.82,13.75-6.88-1.01,2.48,6.59-.1,12.2,0,16.73.3,57.21,8.58,73.88,15.53Z"/>
                <path class="cls-21"
                      d="M31.6,455.19c8.1,2.12,7.4.34,7.54-6.21,11.01-.16,22.12.49,33.06,1.77,1.76.21,5.51,1.71,5.99,1.77,1.81,2.46-.07,4.18-2.44,5.32-8.94,4.34-61.18-.99-75.21-.89,0-2.51,0-5.03,0-7.54,9.64-1.15,19.34-1.5,29.06-1.33,1.55.69-.37,7.14,2,7.1Z"/>
                <path class="cls-21"
                      d="M53.79,426.35c-2.9,2.56-8.82,5.68-11.98,3.11,2.4-4.44-1.78-9.44-3.55-13.09-.29.52,1.92,5.87-1.33,7.76-3.67-7.37-.47-1.72-4.88,0-2.1-2.58-1.12-5.99-1.33-9.1h-.89c.08,5.09-2.59,9.26-2.66,9.76-.11.75.89,1.13.89,1.33-.02,1.23-2.85,4.14,1.77,2.44l.22,8.43H.54c0-1.47,0-2.96,0-4.44l7.32-5.32c4.38,1.97,3.53.04,3.77,0,.19-.03,2.64.19,3.77,0,6.48-7.92,9.68-14.84,19.08-19.97,3.34,4.44,4.41,2.48,7.99,4.88.8.54,7.05,6.23,4.22,6.43,4.24,2.99,6.2,6.91,7.1,7.76Z"/>
                <path class="cls-23"
                      d="M398.11,422.8c0,4.43,0,8.88,0,13.31-6.4-2.74-12.01-7.61-18.41-10.65-12.34-5.85-36.01-11.13-49.92-13.75,1.48-1.92,4.37-.11,3.99-2.66,21.78,3.15,43.31,7.32,64.34,13.75Z"/>
                <path class="cls-15"
                      d="M21.84,316.31c3.79,4.58-1.31,3.87-2.88,5.32-1.37,1.27.15,1.59-.22,2-3.34,3.62-4.65.41-4.88,2.22-.63,4.86,6.42-1.63,6.66.44.06.53-7.09,5.13-7.99,6.21,7.63.06,2.92,1.71,3.11,2.22.37,1.02,16.42-10.79,17.53-12.2,1.97,2.17-3.03,5.65-4.22,7.32-.62.88-2.82,7.95-5.1,6.43-1.74-1.15,3.45-2.94,1.11-3.99-2.28-1.03-10.46,6.71-11.31,8.87-2.51,1.29-5.14,2.12-7.76,3.11-1.74.66-3.28,2-5.32,1.77,0-8.57,0-17.16,0-25.73,2.01-.34,3.97.34,5.77.44,2.28.13,3.36-.56,3.77-.44-1.75,2.79,2.5-.56,4.44.44-2.16,7.44,2.73-2.03,4.44-3.55,1.94-1.73,2.77-.79,2.88-.89Z"/>
                <path class="cls-15"
                      d="M30.72,428.57c-.51,4.07.82,20.29.89,26.62-2.37.04-.45-6.41-2-7.1-9.72-.17-19.42.18-29.06,1.33,0-4.13,0-8.29,0-12.42h29.51l-.22-8.43c.6-.22.82-.78.89,0Z"/>
                <path class="cls-15"
                      d="M14.3,347.37c-.07.19.18.82-1.33,2,3.72,1.27.81-1.27,3.55,2-.14,4.23-11.73,6.29-15.97,7.1,0-3.54,0-7.11,0-10.65,4.01,1.23,7.34-.35,9.98.89,2.66-1.27,3.24-3.05,3.77-1.33Z"/>
                <path class="cls-21"
                      d="M398.11,306.11l-13.98,4.44-1.55-.67c-.06-.73.09-1.89,0-2,.54.05.42-.42.44-.44.63-.56,12.84-6.11,15.09-7.54,0,2.07,0,4.15,0,6.21Z"/>
                <path class="cls-32" d="M.54,363.34c0-1.18,0-2.37,0-3.55,3.36-1.49,1.47,1.88,0,3.55Z"/>
                <path class="cls-14"
                      d="M70.21,93.57c-1.46,0-1.89,1.24-.44,1.77-4.78,3.97-26.63-1.83-16.86,9.98-5.21,6.35.37,6.48-6.21,0,6.03-5.45,1.76-7.19,3.33-8.21,2.95.4,17.68-5.46,18.64-5.32.12.02,1.5,1.67,1.55,1.77Z"/>
                <path class="cls-15"
                      d="M30.49,185.42c-.05,10.72,1.98,7.38,2.66,7.99.51.45-1.09,1.05-.44,1.33,1.11.49,7.76.28,7.76.67-9.56.2-9.93.44-9.98,9.98-.33-9.29.08-9.9-9.54-9.98,9.5-.27,8.74-.66,9.54-9.98Z"/>
                <path class="cls-15"
                      d="M290.95,188.52c1.54.39.14,5.85.67,7.32.48,1.34,2.51-1.02,1.11,1.55,12.01.87,9.73,1.22-.44,1.33l-.89,8.87-.67-7.32c-2.84,1.3-.31-.6-.44-1.33-.15-.86-7.99-.48-7.99-.89,9.93-.14,6.42-1.19,6.66-1.77.37-.92,2.15,3.58,2-7.76Z"/>
                <path class="cls-15"
                      d="M370.37,121.08l1.11,8.21,7.99.89-7.76.67-1.11,1.11-.22,6.88c1.44-12.45-8.66-7.07-8.65-8.65,8.83-.01,8.33-.5,8.65-9.1Z"/>
                <path class="cls-21"
                      d="M115.69,51.42c-1.59,11.57,7.32,6.33,7.32,7.76l-6.43.67c-1.35.76-.56,14.88-2,.22-12.01-1.15-.47-.2.44-2.66.54-1.46-.87-4.56.67-5.99Z"/>
                <path class="cls-14"
                      d="M85.07,45.21c.5,4.82-.71,7,5.1,6.88-7.94.25-3.84,5.99-5.1,5.99-.65-1.08.14-3.28-.22-4.22-.97-2.51-9.7.26-.44-3.11l.67-5.55Z"/>
                <path class="cls-17"
                      d="M346.41,55.85c1.4-.07-.06,2.31,1.33,3.11.23.13,5.14.73,0,.44-2.09,5.75.83.97-4.22-.22.74-.56,2.27.12,2.66-.44.26-.37-.35-2.29.22-2.88Z"/>
                <path class="cls-21"
                      d="M180.02,183.64c1.27-.15.37,1.94.67,2.44.66,1.12,5.42.61,0,1.77-.33,5.25-.73.19-.89,0-.33-.39-4.63-.65,0-1.33l.22-2.88Z"/>
                <path class="cls-21"
                      d="M363.27,197.84l.67,2.88c5.11,1.17-.72-.02-.22,3.33-4.95-5.61-.64.04-.44-6.21Z"/>
                <path class="cls-17"
                      d="M235.04,75.38c1.09,2.03-.47,3.25,2.88,3.33-4.22,1.09-2.18,3.77-2.88,3.77s1.18-3.51-2.88-3.33c2.26-1.57,2.69.79,2.88-3.77Z"/>
                <path class="cls-17"
                      d="M11.86,90.02l.22,2.88c5.71.9.74.7,0,1.77-.19.27.29,1.47-.22,2-.56,0,1-3.01-2.88-2.88,4.33-1.34,1.02-.78,2.88-3.77Z"/>
                <path class="cls-17"
                      d="M310.92,6.16c.5,0,.02,2.1.22,2.44.67,1.16,5.14.48.44,1.77-.93,6.1-.72.24-.89,0-.39-.56-1.92.11-2.66-.44,4.22-1.07,2.18-3.77,2.88-3.77Z"/>
                <path class="cls-17"
                      d="M31.38,40.33c.72,0-1.4,3.58,3.33,3.33-4.96.87-2.58,3.31-3.33,3.33-.42,0,.58-3.01-2.88-2.88,4.22-1.09,2.18-3.77,2.88-3.77Z"/>
                <path class="cls-17"
                      d="M171.15,19.47c1.06.4.46,2.24.67,2.44.41.42,5.36.98.22,1.11-1.4,6.52.13.12-2.88-.22,2.45-.35,1.47-1.48,2-3.33Z"/>
                <path class="cls-15"
                      d="M117.02,232.89c.51.55.04,1.78.22,2,.96,1.11,4.63.92,0,1.77-.36,4.44-.06-.5-2.66-.44,2.72-1.24,1.05-1.49,2.44-3.33Z"/>
                <path class="cls-15"
                      d="M84.63,208.05c.65,0-1,3.38,2.44,3.33-2.5.52-2.57,6.06-2.66.89-5.77-.89-.58-.75,0-1.77.2-.35-.28-2.44.22-2.44Z"/>
                <path class="cls-21"
                      d="M139.2,130.84c1.21-.3-.29,1.42.22,2.44.58,1.16,2.65.37,2.66.89,0,.31-2.24-.81-2.88,3.33-.77-.12,1.36-3.15-2.88-2.88,1.1-1.77,2.91,1.3,2.88-3.77Z"/>
                <path class="cls-21"
                      d="M155.18,42.54c.34,4.45,2.89,2.85,2.88,3.33,0,.62-2.51-.86-2.44,2-4.94-4.68-.88.89-.44-5.32Z"/>
                <path class="cls-4" d="M374.81,74.05c1.77-.83,2.88,1.94,1.33,2.66-1.77.83-2.88-1.94-1.33-2.66Z"/>
                <path class="cls-4" d="M136.54,93.57c2.12-1,2.6,2.32.89,2.66-1.81.37-2.09-2.1-.89-2.66Z"/>
                <path class="cls-4" d="M243.47,39.88c1.87-.43,2.58,2.27.89,2.66-1.87.43-2.58-2.27-.89-2.66Z"/>
                <path class="cls-4" d="M391.67,129.51c1.81-.37,2.09,2.1.89,2.66-2.12,1-2.6-2.32-.89-2.66Z"/>
                <path class="cls-4" d="M393.45,57.63c.8,0,2.38,2.71.44,3.11-2.43.5-1.5-3.11-.44-3.11Z"/>
                <path class="cls-4" d="M205.76,63.84c1.77-.49,2.64,2.26.89,2.66-1.98.46-2.26-2.28-.89-2.66Z"/>
                <path class="cls-4"
                      d="M70.21,93.57c.19.38.5.64.44,1.11-.04.31-.8.6-.89.67-1.44-.54-1.01-1.77.44-1.77Z"/>
                <path class="cls-4" d="M370.82,30.56c1.09-.24,1.48,1.54.44,1.77-1.09.24-1.48-1.54-.44-1.77Z"/>
                <path class="cls-4" d="M102.82,110.87c1.09-.24,1.48,1.54.44,1.77-1.09.24-1.48-1.54-.44-1.77Z"/>
                <path class="cls-4" d="M121.01,10.6c.83.09.91,1.89-.44,1.77-1.22-.1.11-1.81.44-1.77Z"/>
                <path class="cls-4" d="M6.09,70.5c.98.05.87,1.11.44,1.33-.86.45-1.36-1.38-.44-1.33Z"/>
                <path class="cls-4" d="M310.92,60.74c.98.05.87,1.11.44,1.33-.86.45-1.36-1.38-.44-1.33Z"/>
                <path class="cls-4" d="M128.11,71.38c.86-.45,1.36,1.38.44,1.33-.98-.05-.87-1.11-.44-1.33Z"/>
                <path class="cls-4" d="M188.01,11.93c.23,0,1.08,1.05.44,1.33-1.47.65-1.2-1.31-.44-1.33Z"/>
                <path class="cls-4" d="M158.73,107.77c.98.05.87,1.11.44,1.33-.86.45-1.36-1.38-.44-1.33Z"/>
                <path class="cls-4" d="M237.26,11.93c1.47-.65,1.2,1.31.44,1.33-.23,0-1.08-1.05-.44-1.33Z"/>
                <path class="cls-4" d="M86.4,29.23c.23,0,1.08,1.05.44,1.33-1.47.65-1.2-1.31-.44-1.33Z"/>
                <path class="cls-4" d="M53.12,81.59c1.05.13.28,1.99-.44.89-.29-.45.39-.89.44-.89Z"/>
                <path class="cls-4" d="M117.46,36.33c1.05.13.28,1.99-.44.89-.29-.45.39-.89.44-.89Z"/>
                <path class="cls-4" d="M384.57,82.92c1.05.13.28,1.99-.44.89-.29-.45.39-.89.44-.89Z"/>
                <path class="cls-4" d="M217.74,26.13c1.05.13.28,1.99-.44.89-.29-.45.39-.89.44-.89Z"/>
                <path class="cls-9" d="M4.32,13.7c1.81-.35,1.75.65.89.89-.06.02-1.43-.74-.89-.89Z"/>
                <path class="cls-4" d="M268.32,70.94c.36.32.36,1.01,0,1.33-.06.05-1.14-.71,0-1.33Z"/>
                <path class="cls-18" d="M278.53,133.06c.36.32.36,1.01,0,1.33-.06.05-1.14-.71,0-1.33Z"/>
                <polygon class="cls-21" points="146.3 8.82 146.97 9.04 146.75 9.71 146.52 9.49 146.3 8.82"/>
                <polygon class="cls-15"
                         points="229.72 239.99 229.94 240.66 229.28 240.88 229.05 240.66 229.72 239.99"/>
                <polygon class="cls-24"
                         points="274.09 179.21 274.31 179.87 273.65 180.09 273.42 179.87 274.09 179.21"/>
                <path class="cls-21"
                      d="M253.9,341.16c1.72-.05,1.8.87,2,.89,1.66.17,3.13-.81,3.99-.44.87.37-2.63,1.7,3.55,0,3.23,2.83,3.69-2.76,2.88,7.54-1.54-.98,2.8-3.92-8.21-1.33-3.88.91-7.65,2.99-11.54,3.99-18.09,4.67-36.61,8.25-54.35,13.98,1.45,1.59,7.21.84,6.21,3.77-.26.77-4.7,5.05-5.55,5.32l-114.7,14.2c-2.26-2.55-8.08-2.03-11.09-3.11l-3.99-4.66c-.54-1.54,4.31,2.72,3.11,0-.21-.48-4.72-2.69-.44-1.33-4.25-5.74,9.9-3.38,10.21-4.88-1.13-.09-16.47-6.46-14.42-7.32,4.68,1.45-.24-1.15,2.88-1.55-7.54-6.2,5.87,1.54,3.11-1.33,11.31,3.59-1.9-4.65,5.1-1.11.69-.61-.55-1.14,0-1.33,6.36-2.19,4.61-.14-5.1-3.55-.05-.02.17-.75-.22-.89-.48-.17-.93.74-1.77.44-3.9-1.35-7.67-4.7-12.2-3.99-.31-.65-2.36-3.01-2.22-3.33,5.56.78,2.83-.29,4.22-1.55.66-.6,1.22,2.11,1.33-1.33l8.87,1.77c-.37-2.72,1.23-1.01,4.22-2.66.05.13-.06.33,0,.44.25.46-.98.48-.89.67.47.92,15.55,1.95,17.75,2,2.33.05,4.55.44,6.88.44,1.12-.58,2.96-.84,4.22-.89,12.15-.43,10.57-2.52,24.18.89-.12,2.5,9.5,2.65,13.98,3.11,2.01.2,4.22-.09,6.21,0,3.8.16,7.4.98,11.31.89,2.5-.06,22.02-1.74,23.07-2.22.12-.05,1.71-1.78,1.55-2-1.04-1.39-19.26.2-25.96-1.55-.25-1.03-.84-.87-1.55-1.33-.07-.04-.26-1.41-.44-1.55-.86-.67-2.96-.26-4.88-4.66.05-1.29.77-1.2,1.33-2.22.24-.44.56-1.16.89-1.77,3.21,2.94,5.44-.3,5.77-.44,4.42-1.98-.37,3.85,4.44-.22-2.24-2.38-.51-.6-.44-2,20.87,3.77,42.07,5.9,62.34,12.42,7.94-1.1,29.88-6.09,34.39-6.21Z"/>
                <path class="cls-21"
                      d="M79.97,409.93c2.51.24,4.99.72,7.54.44,1.87,2.69,8.3,1.59,6.66,6.66-4.72-.65,3.93,3.3,3.99.89.02-.77-.87-.73-.44-1.11.96-.87,22.29-3.77,25.51-4.22,1.67-.23,2.26.5,2.66.44.1-.01,1.24-.87,1.33-.89,7.66-1.03,61.37-7.49,64.34-6.21.31.13,3.2,5.31,2.44,5.77-13.54,1.83-101.75,15.03-106.93,17.3-7.02-6.91-10.52-3.55-.89.89-1.89,1.49-.69,1.21-.89,2.22-3.82-2.61-8.27-3.89-12.42-5.77-.06-.03-.01-.5-.89-.89l-3.11-3.33c2.13-1.22-3.76-8.74-2.66-3.99.13.54,5.86,9.29-3.33,2.88-6.15-4.29-5.73-14.51-5.1-15.53,6.09,5.92,8.21,5.46,8.65,5.77,1.58,1.1,3.27,5.62,5.1,3.33.2-.25-.3-1.59.22-2,.63-.49,15.25,7.66,8.21-2.66Z"/>
                <path class="cls-15"
                      d="M194,411.71c.76-.46-2.13-5.64-2.44-5.77-2.97-1.28-56.67,5.18-64.34,6.21-.09.01-1.24.87-1.33.89-.4.05-.99-.68-2.66-.44-3.22.45-24.55,3.35-25.51,4.22-.42.38.46.33.44,1.11-1.21-.19-2.86-.73-3.99-.89,1.64-5.07-4.78-3.96-6.66-6.66h.89c57.19-8.6,115.54-11.03,173.27-6.66-22.62,2.2-45.16,4.95-67.67,7.99Z"/>
                <path class="cls-17"
                      d="M359.95,357.58c2.42,1.45,2.35.6,2.66-1.33,8.52-.88,31.97,1.36,9.76,3.55-10.02.99-20.37.69-30.17-1.33-3.58-1.51,15.75-3.11,16.64-2.66.54.27-.51.8,1.11,1.77Z"/>
                <path class="cls-34"
                      d="M333.77,409.05c.38,2.55-2.52.74-3.99,2.66-1.01-.19-2.04-.25-3.11-.44-.07-.01-.76-.82-1.11-.89-1.44-.16-3.36.22-4.66,0-8.74-1.48-17.41-2.36-26.18-3.55-1.91-.26-4.15-.7-5.99-1.33,16.99-.73,28.98,1.23,45.04,3.55Z"/>
                <path class="cls-4" d="M204.87,384.64c1.09-.24,1.48,1.54.44,1.77-1.09.24-1.48-1.54-.44-1.77Z"/>
                <path class="cls-15" d="M58.23,429.46c.06.08,1.05-.3.89.67l-.89-.67Z"/>
                <polygon class="cls-15"
                         points="301.6 379.76 302.26 379.98 302.04 380.65 301.82 380.43 301.6 379.76"/>
                <path class="cls-32" d="M87.73,271.05c1.79.01-.89,2.51-1.33,2.22-1-.66,1.18-2.22,1.33-2.22Z"/>
                <path class="cls-31" d="M137.87,272.83c.91-.17.56,6.16-.22,2.44-.08-.4-.08-2.38.22-2.44Z"/>
                <path class="cls-4" d="M1.65,237.33c1.14-.61,1.28.79.44.89-.05,0-.9-.65-.44-.89Z"/>
                <path class="cls-21"
                      d="M289.84,334.06c.19.34-.63.18,0,.89-3.48,2.56-8.01,1.64-11.98,2.66-.46-.4-4-1.8-3.11-2.88,3.15-.01,3.8-1.03,3.99-1.11.46-.18,1.36.03,3.55-1.33-.16,3.3,3.71-.99,5.55,0,.88.47-.07,2.8,2,1.77Z"/>
                <path class="cls-32"
                      d="M387.68,334.5c.69-.17,1.12.89,1.33.89.17,0,.73-.9.89-.89,4.23.26.4,2.44-4.22,1.11.06-.31,1.7-1.04,2-1.11Z"/>
                <path class="cls-29" d="M357.06,341.6c.96,2.47-.95,5.14-3.55,5.32-1.64-2.41,2.41,1.54,3.55-5.32Z"/>
                <path class="cls-36" d="M385.68,322.97l1.33-.89c0,.19,2.61,1.12-1.33.89Z"/>
                <path class="cls-15" d="M215.52,362.46c.41,0,1.08,1.45.44,1.77-1.51.77-1.27-1.78-.44-1.77Z"/>
                <path class="cls-33" d="M390.78,341.16c1.25.09,3,1.91.89.89-.28-.14-1.38-.26-.89-.89Z"/>
                <path class="cls-17"
                      d="M326.67,411.26c-3.37,1.64-5.07,3.19-5.77-.89,1.3.22,3.22-.16,4.66,0,.35.07,1.04.87,1.11.89Z"/>
                <path class="cls-15"
                      d="M60.44,320.75c3.72-.1,7.03.63,10.65.89,1.71.12,2.88,1.03,4.22.89,4.58-1.39,6.15-5.5,10.65-7.1-1.77,2.85-6.89,4.27-.22,2.44-1.97,4.46-7.29,9.47-7.1,7.1,8.53-9.43.58-.83-2.88.22-5.29,1.6-7.72-1.6-5.77,2.66,4.52-.82-2.6,2.58-2.44,2.88,7.25.82,12.24-7.84,7.99.89,4.46,1.97,8.88-.63,12.65-3.33,8.41.4,2.93-2.5,10.43,3.11.06.04-.15.85.22.89.28.03,1.22-1.15-.22-.89l.67-1.33c1.64,1.14,1.71.57,3.55.44,1.1,2.58,6.3,7.63,7.1,6.21-1.22-2.4-5.29-4.8-3.33-7.32-3.27-1.04-4.88-.1-5.1-.22-.39-.21-6.21-7.89-3.99-7.1.98,3.69,3.24-.9,4.88.44.48.43-.43,1.31.22,2,6.68,7.07,10.49,3.66.44-.44l5.99-.22c-2.6-2.17.57-2.49.67-2.66,3.85-1.22,5.02,4.86,3.33,3.55.72,2.73-1.94.84-1.33,2.66,2.11.84,7.29.35,8.65.89.71.28,3.45,7.55,11.98-2.88.23-3.43-9.15,3.53-11.54,1.55.25-.5,5.38-2.85,6.21-3.11,2.35-.73,4.98-1.32,7.32-.89,5.22-5.67,5.99-.74,6.66-.89.47-.11-.21-1.48.89-1.33.35.05,1.43,3.19,1.55,3.33,1.29,1.42,3.38,2.07,3.77,2.44,5.51,5.19.58,3.6-4.88-1.33-.73.18,1.1,3.14-.44,3.55-2.13.56-.75-6.62-3.99,0-2.3-.24,2.15-10.1-5.55-2l3.11-.44c-4.01,5.34.3,1.3-.44,3.99-.16.57-3.61,3.97-2.44,4.66,3.28-2.18-2.83,3.32-3.77,1.55-.14-.9,6.43-6.35,2.88-5.55-.47.11-5.67,8.3-1.77-.44-1.93,1.91-5.2.89-3.99,3.11-8.41-1.37-4.14,3.33,1.33,1.33-.03,7.97,3.87,0,2.66,4.44l6.66-3.55c.71-.16,1.11,1.96,4.44,0,1.06.09,3.31,4.55,5.55,3.55-.56,1.02-1.28.92-1.33,2.22-5.31-.69.69,3.48-1.33,5.77-.43-.21-1.37,2.14-1.55-2.66l-1.55,2.22c-4.07-.48,1.32-1.35-2.44-7.1-.75,3.33-2.79,5.42-2.22.44-7.37,7.67-1.55,3.95-1.11,3.99.73,2.47.05,3.56-2.44,3.11-5.28,8.46-24.55-6.52-39.27-2.66-1.26-8.09,1.85-7.68-2-11.98-5.94,9.08-.73,4.1-1.11,12.42-6.89.25-13.68.98-20.41,2.66-.06-.11.05-.31,0-.44-.35-.87-5.43-2.04-6.66-2.66-.83-1.3-5.52-3.6-7.32-3.99-4.17-3.73-11.19-9.67-15.75-11.54-1.37-2.07-5.41-4.6-3.77-7.1,5.32,6.48,13.57,8.04,19.08,14.2,2.39-1.29-7.58-4.83,2.44-5.1-9.91-5.55-.8-3.15-1.33-5.32-.2-.81-6.36-.05-3.99-3.55-7.78-3.92-4.78-7.67-4.22-7.76.36-.06,5.03,4.01,5.55,4.66.24.3,1.17,6.18,3.99,4.88l-2.66-2.66c-.24-1.07,4.51.26,5.1.22.37-.02.18-.89.22-.89Z"/>
                <path class="cls-20"
                      d="M383.02,307.44s.1.49-.44.44c-.16-.19-2.34.21-2.66-3.55-.04-.51-.09-.92.44-.89.2.18,1.54-.97,2.66,3.99Z"/>
                <path class="cls-33" d="M368.38,267.95l-.89-.89c.19.1.75-.18,1.33.22.03.02-.61.44-.44.67Z"/>
                <path class="cls-17"
                      d="M143.86,347.37c2.1,1.02,3.93,1.45,6.66.44.71.46,1.3.3,1.55,1.33,6.7,1.75,24.92.16,25.96,1.55.16.21-1.44,1.94-1.55,2-1.06.48-20.57,2.16-23.07,2.22-3.92.1-7.51-.72-11.31-.89-1.43-.81-2.54-2.01-2.66-3.77-.25-3.73,2.37-1.69,1.33-3.33l1.55-2.22c.18,4.8,1.12,2.45,1.55,2.66Z"/>
                <path class="cls-17"
                      d="M134.99,344.26c1.81.17,3.73,8.08.89,9.76-4.48-.45-14.09-.6-13.98-3.11-13.61-3.41-12.03-1.32-24.18-.89-5.47-.67-3.79-1.19-4.44-5.32,14.72-3.86,33.99,11.12,39.27,2.66,2.49.45,3.17-.64,2.44-3.11Z"/>
                <path class="cls-17"
                      d="M90.17,345.15c-.29,6.29.29,2.73-3.55,5.32-2.2-.05-17.28-1.07-17.75-2-.1-.19,1.13-.21.89-.67,6.73-1.68,13.52-2.41,20.41-2.66Z"/>
                <path class="cls-32" d="M89.95,420.14c1.05.14,6.56.76,5.55,2.44-.42.7-4.74-1.63-5.55-2.44Z"/>
                <path class="cls-12" d="M94.17,417.03c1.14.16,2.78.7,3.99.89-.06,2.41-8.71-1.53-3.99-.89Z"/>
                <path class="cls-20"
                      d="M284.52,329.62c-.03.29.06.66,0,.89-.29,1.02-1.45,1.3-2.22,1.77-2.19,1.36-3.09,1.15-3.55,1.33-1.82.27-1.21-.74-1.33-.89-.48-.6-.61-.93-1.33-1.33l.44-2.22c.42-.04.64.62.89.44.68.06.38-.84.44-.89,2.22-.68,4.69.85,6.66.89Z"/>
                <path class="cls-16" d="M106.59,314.09c.64-.88,1.37.09,1.33-1.33,4.98-.19,2.16,2.61-1.33,1.33Z"/>
                <path class="cls-15"
                      d="M289.84,334.06c-2.06,1.03-1.12-1.3-2-1.77-1.84-.99-5.71,3.3-5.55,0,.77-.48,1.93-.75,2.22-1.77,6.45.32,3.83.91,5.32,3.55Z"/>
            </g>
            <g>
                <path class="cls-24"
                      d="M236.37,134.83c12.34-.66,25,9.9,25.96,22.41,1.63,21.25-23.57,33.92-40.16,21.08-17.7-13.7-7.49-42.33,14.2-43.48Z"/>
                <g>
                    <path class="cls-14"
                          d="M398.11,277.71c0,7.39,0,14.8,0,22.19-2.25,1.44-14.46,6.98-15.09,7.54-1.12-4.96-2.46-3.82-2.66-3.99-2.51-2.21-4.91-1.11-2.66-5.99-.89-1.22-2.45-.88-3.55-1.55-.15-4.32-8.71-6.91-1.11-5.77-.41-1.77,4.3-.67,3.77-2.88-.1-.42-2.32-1.06-2.66-1.11-1.1-1.59,3.41-3.75-.89-4.44.76-2.11,2.48-2.23,1.11-3.11-2.18.44-4.66.46-6.88.44-.19-4.41,2.55-3.37,2.66-4.22.12-.94-.93-.58-.89-.89.09-.67.5-1.94.44-2.44-.21-2.03-.08-1.83-1.33-3.55-.16-.22.48-.64.44-.67-.58-.41-1.14-.12-1.33-.22-.11-.05-.39.05-2.22-.89v-.44c.67-.06.84-.84.89-.89.18-.19.84-.85.89-.89,1.01-.72,4.5-3.08,4.88-2.66.25.24,5.71,3.76,5.99,3.55.94-.73-.82-4.34.44-4.44,1.31-.1,17.45,15.3,19.74,17.3Z"/>
                    <path class="cls-14"
                          d="M27.17,278.6c.06,1.97-.18,1.89-.44,3.11-.13.59-.92,1.02-.89,1.11.49,1.28,1.65.18,1.77.22.07.02-.34.92,1.11.89,1.29-.03,3.13-4.07,2,2.66-1.55,1.22-3.56,3.72-5.1,4.88-1.29.97-3.99,1.13-4.66,2.44-.5.99,1.05,0,.89.67-1.09,4.49-1.86,2.07-3.99,5.1,4.6-1.44,9.6-5.32,4.88.89l.67.67c5.86-6.33,2.27.98.22,3.77,1.26.43,1.73-1.75,2.66.67-4.68,2.53-9.51,5.65-12.87,9.76-5.03,3.24-3.34,4.01-4.22,4.44-.77.38-3.19-.78-2.88.89-1.8-.1-3.76-.79-5.77-.44,0-8.28,0-16.57,0-24.85,5.81-2.88,10.08-8.18,15.53-11.54,2.98-1.83,6.99-3.68,9.76-5.32.22-.13,1.12.13,1.33,0Z"/>
                    <path class="cls-17"
                          d="M398.11,275.49c0,.74,0,1.48,0,2.22-2.3-2.01-18.44-17.4-19.74-17.3-1.26.09.49,3.71-.44,4.44-.28.21-5.74-3.31-5.99-3.55-3.99-3.89-2.91-11.98-7.1-14.42.15-2.91-2.06-5.87-.89-8.65l34.17,37.27Z"/>
                    <path class="cls-14"
                          d="M.54,294.57c0-.59,0-1.19,0-1.77,2.83-1.25,5.14-3.46,7.54-5.32,1.6-1.24,3.18-2.6,4.66-3.99l.67.22c-4.14,3.71-7.99,8.04-12.87,10.87Z"/>
                    <path class="cls-15"
                          d="M294.28,257.3c-2.31-2.05-3.65-3.93-5.77-5.99l-1.11,21.96-6.43-14.64c1.96-4.87,2.89-9.62,3.11-14.86.01-.33.91-.12.89-.44-.53-7.64-18.95,17.8-25.29,23.29-.69.35-1.4.91-2.22,1.33-2.07,1.07-3.99,2.34-5.99,3.55l-.22-.67c4-5.54,7.42-11.52,10.65-17.53.26-.49,2.7-3,1.55-3.55-2.12,2.92-17.94,13.69-18.64,14.64-.31.43.55.89.22,1.33-5.27,2.87-10.07,6.52-15.09,9.76-5.85,3.78-11.86,7.38-17.75,11.09,1.28-2.84,3.64-1.94,3.99-5.32.96,1.39,1.02.8,2.44,0,3.02-1.7,49.5-37.48,55.02-42.15,3.41-2.88,13.51-13.33,15.31-14.2l6.21,19.74c-2.09,1.9-1.67,9.79-.89,12.65Z"/>
                    <path class="cls-17"
                          d="M322.23,254.19c-2.95.75-4.1,4.61-6.21,6.66-10.51-6.22-1.64-.02-.22,12.42-6.41-4.78-15.78-10.88-21.52-15.97-.78-2.86-1.2-10.75.89-12.65l-6.21-19.74c.06-.03.29-1.05,1.11-.89,10.99,9.64,21.09,20.69,32.17,30.17Z"/>
                    <path class="cls-17"
                          d="M322.23,254.19c4.28,3.67,9.49,8.51,14.64,10.21-.96,1.42.76,1.23.89,1.33,4.54,3.59,8.63,8.07,13.31,11.54-3.83,2.32-2.93,2.12-3.11,2.22-.84.44-1.62.87-2.44,1.33-1.51-1.39-3.36-2.5-5.1-3.55-8.38-5.03-16-11.45-24.4-16.42,2.11-2.05,3.26-5.9,6.21-6.66Z"/>
                    <path class="cls-6"
                          d="M240.59,271.5c-3.8,4.32-8.07,8.25-11.54,12.87-3.14,1.9-11.96,13.63-15.97,17.08-.11.88.44.54,1.11.22.94-.45,10.86-8.97,13.09-10.65.95-.72,1.84-1.05,2.22-1.33,6.99,7.99,11.06,17.97,17.08,26.62,6.32-8.99,11.32-19.25,18.41-27.51-1.95,10.55,4.44-6.1,7.99-13.75,5.09,2.08,11.03,24.41,15.09,25.73l-.89.67c.74.25,1.74,1.04,2.22,1.11,1.85,1.24.09,1.1,0,2.66-1.65.61-5.05,1.39-2.22,2.66l-1.77,2.66c-.24.13-1.69.31-1.77.67-.2.79,1.22.59,1.77,2,.16.4-.34,1.33.44,1.33-6.16,3.59,1.91.16,1.77,3.11-1.23,1.16-1.55,1.58-.44,2.22-.33.4-.77.79-.89,1.33-.48.1-4.03,1.21-4.22,1.33-1.55.97.24.8.22.89-.25,1.33-.91,1.47-.89,1.55.08.34,3.47-1,.89,1.55-5.85.98-4.14,2.01-4.44,2.22-.07.05.24.95-.44.89.04-1.05-2.3-2.06-2.66-2.66-.05-.08.41.2-.44-1.77-.02-.05.36.05.89-.67l-1.33-1.55-.44-1.77c.12.03.31,0,.44,0,.44-.02.78-.48.89-.89.32-1.17-1.96-2.15-2.66-2.66-.11-.08-.83-.86-.89-.89,2.58.39.55-2.74-.44-4.44-.54-.93-.41-1.27-.44-1.33-.77-1.21-1.33-1.23-1.77-1.77v-.44c2.58-2.23-.19-2.12-.89-4.22-1.57-4.77-1.39-9.68-2.22-7.1-.67,2.09.85,7.01-2.22,8.87,2.23,4.58-3.89,1.41-.89,5.77-4.39,2.17.35,2.81-2.66,4.88,6.46-.08-1.64,1.9-2.22,3.11-.91,1.92,1.2.25,2.22.22l.89,2.22c-5.32,4.55-2.14,3.85-2.22,4.22-.09.44-1.11-.45-1.77,2-1.06,3.94,1.38-.12.44,3.55-.91.63-2.71,1.79-3.11,2.66-.33.74-.68,5.25,0,6.21-4.5.12-26.44,5.11-34.39,6.21-20.27-6.52-41.47-8.65-62.34-12.42.26-5.27-.84-2.66-2.66-3.99-1.51-1.1-.14-2.27-.89-2.22,3.79-2.15-4.38-3.48-.44-5.55-.07-.38-.88-.18-.89-.22-.13-1.65-.4-1.86-.44-2.66,4.77-.26,16.76-7.25,22.85-10.65,12.8-7.14,25.11-15.26,37.49-23.07,5.89-3.72,11.9-7.31,17.75-11.09,1.1,3.43,7.83-3.59,10.65-3.99Z"/>
                    <path class="cls-14"
                          d="M81.74,287.03c.07.03-.35.5.89,1.33-.26.52-.71.79-.89,1.33-2.18.08-5.6.22-6.66,2,.22,1.67,3.84-.61,4.88,2-.2,1.5.41,1.27.44,1.33.78,1.2,1.34.91,1.77,2.22-.36.26-6.57,5.34-6.66,5.77-.65,3.11,6.47,1,4.44,3.99-.33.2-6.13,4.28-6.21,4.66-.02.1,1.22,1.4,1.77,1.11-.71,2.01.61,1.25.44,3.11-.65.36-4.48,2.47-4.66,2.66-.5.53.68.83.67.89-.23.75-1.23.97-.89,2.22-3.62-.26-6.93-.99-10.65-.89-1.45,0,.3-2.2,0-2.88-.3-.68-5.69-3.97-7.1-5.1-2.8-2.26-7.2-5.62-8.21-7.1-.51-.24-.82.59-1.11.44-.75-2.88,2.98-.76,3.11-2,.08-.8-10.7-8.14,5.77-5.32-5.41-2.64-2.39-2.85-3.55-4.22-.77-.9-4.02-2.85-3.99-3.33,0-.15,1.32-.45,1.33-.89.04-1.16-3.38-2.31-3.55-2.44-.04-.03-.25-.04-.89-.44.04-4.58,1.39-1.64,2.88-2.22,1.1-.43.13-1.21.22-1.33.22-.29,1.08.77.89-1.33-.01-.15.04-.32,0-.44,2.57-.16,4.78,1.25,6.66,1.33,1.67.08.7-.87,2.22-.89.61,1.09.93,2.31,2,3.11v-4.44c1.93,1.7,4.43.39,5.77,2.22l-2.44-3.99c1.63.97,5.62,1.72,8.21,4.44-1.37-6.6,4.86.87,5.77,1.33.73.37,1.27-.47,1.33-.44,1.16.58,2.16,1.88,3.11,2.22.95.35,1.4-.71,2.88,0Z"/>
                    <path class="cls-14"
                          d="M127.89,313.2c1.24.49,1.7-.49,2.22.89-3.45,3.92-8.22,7.33-3.55,6.21-.27.44-.51.76-.44,1.33.04.4.47.84.89.89-.1.36.75.4,0,1.33-.83.26-5.97,2.61-6.21,3.11-.16.32.35,1.33-.44,1.33-1.37-.54-6.55-.05-8.65-.89-.61-1.82,2.05.07,1.33-2.66,1.69,1.31.52-4.77-3.33-3.55.17-.31,1.35-2.3,1.33-2.44-.01-.09-.39-.07-1.33-1.11-2.87-3.16-4.56-1.52-3.11-3.55,3.49,1.28,6.31-1.53,1.33-1.33-.05-1.66-2.17.25-1.77-3.11.04-.34,3.57-2.34-3.11-3.11-.69-1.04-1.27-2.41-1.77-3.55.33-.06.59-.29.89-.44,3.38-1.73-1.59-6.23,4.22-3.99,5.49,2.12,16.01,9.82,22.63,11.54,1.52,2.39-5.62,1.34-1.11,3.11Z"/>
                    <path class="cls-17"
                          d="M60.44,279.48l2.44,3.99c-1.33-1.83-3.84-.52-5.77-2.22v4.44c-1.07-.79-1.39-2.02-2-3.11-1.08-1.94-3.3-8.05-3.55-8.43,3.29-1.13,6.49,4.64,6.88,4.88.17.1.81-.26,2,.44Z"/>
                    <path class="cls-6"
                          d="M322.68,301.22l.89,1.11c-1.06.38-2.98,5.25-3.11,5.99-.25,1.48.43,1.94.44,2.22.04.76-2.42,1.23.89,2.44-2.37,3.66,1.34.56,1.55.67,3,1.44-4.54,1.48-6.43,3.99-3.07,4.07,1.04.97,1.77,2,.87,1.21-4.06.92-.89,3.33-5.83,1.17-9.14,3.3-11.54-1.33.12-.04,1.7-1.67,1.77-1.77,1.35-1.95.3-3.41-1.77-4.44v-1.33c.1,0,1.78-.92,1.77-1.11-3.43-1.59-2.18-1.34-2.66-2.44-1.1-2.48-.27-2.67-.44-3.11,1.26.21.78-.74.89-.89,2.49-3.28,4.52-6.83,6.88-10.21l9.98,4.88Z"/>
                    <path class="cls-14"
                          d="M340.42,277.26c1.75,1.05,3.59,2.16,5.1,3.55.82-.46,1.6-.89,2.44-1.33,2.6,1.29.25.53,0,1.11-.03.07.57.36.44.67-.41,1.01-1.82,1.17-1.33,3.99-7.56-.1.25,2.14.44,2.44.45.71-2.47,2.32,1.77,1.55,3.08-.3,1.3,1.28,1.33,1.77-1.11,1.45-8.64,2.68-6.21,4.88-.3,1.64-4.42,1.16-4.44,2.44,0,.38,2.76,2.32,7.1,2,.5,2.92-.81,4.18-1.77,6.66-.55.15-10.92.2-5.77,3.11-1.19,1.15-2.12.82-2.22.89-10.68-2.83,5.52-2.49-5.32-6.88.08-2.11,2.65.22,3.33-.22.58-.38-2.51-5.54-3.77-6.21.03-.28-.06-.63,0-.89.42-1.74-1.09-2.32-2.22-3.11.05-.01-.29-1.07.67-.89,2.02,3.12.23-.92-.22-2.66-.41-1.61-.97-3.24-1.33-4.88-3.99-18.34,2.99-1.28,8.21,2.66,1.4-.14,1.66-9.81,3.77-10.65Z"/>
                    <path class="cls-14"
                          d="M294.28,257.3c5.74,5.09,15.11,11.19,21.52,15.97-1.42-12.44-10.29-18.64.22-12.42,8.4,4.97,16.02,11.39,24.4,16.42-2.12.83-2.37,10.51-3.77,10.65-5.22-3.94-12.2-21.01-8.21-2.66.03,4.25-2.78,6.9-2.22,8.87.07.23-.03.6,0,.89-2.89,2.2.23,3.56-3.55,6.21l-9.98-4.88c-2.36,3.37-4.39,6.92-6.88,10.21-2.02-3.22-1.2-3.46-4.44-5.32-.31-1.69,1.09-.87.89-2.66-.14-1.25-2.4-1.63-.89-7.32-.97-1.37-1.5-.09-1.77-.22-.17-.08-1.21-.83-1.33-.89-1.28-1.83.54-.88.89-1.77.75-1.94-.42-1.65-.44-1.77-.32-1.61-.72-2.92-1.33-4.44-.59-1.48-1.55-1.91-1.55-4.44.12,2.53-1.96,4.92-2,5.32-.12,1.41.43.96.89,2.22-5.95,1.85.87,2.39-.44,3.99-.23.12-1.28,1.78-3.99,2.88.5.69.87.61.89.67,1.02,3.48,1.33,2.94,1.33,3.11,0,.09-.4,1.7-.44,1.77-.6.99-3.21,1.35-2.66,3.11-.27,0-1.27.02-1.33,0-4.05-1.33-10-23.65-15.09-25.73,2.27-4.9,7.54-15.31,7.99-16.42l6.43,14.64,1.11-21.96c2.12,2.06,3.46,3.94,5.77,5.99Z"/>
                    <path class="cls-13"
                          d="M264.99,288.8c-7.09,8.26-12.09,18.52-18.41,27.51-6.03-8.65-10.1-18.63-17.08-26.62,2.42-1.8,4.67-4,7.1-5.77,6.45-4.7,18.71-10.54,20.85-15.97.82-.42,1.53-.98,2.22-1.33,5.15-2.58,10.66-4.57,15.53-7.76-1.83,8.74-8.73,22-10.21,29.95Z"/>
                    <path class="cls-21"
                          d="M280.97,258.63c-.45,1.11-5.71,11.52-7.99,16.42-3.55,7.66-9.94,24.3-7.99,13.75,1.47-7.95,8.38-21.21,10.21-29.95-4.87,3.19-10.38,5.19-15.53,7.76,6.34-5.49,24.76-30.93,25.29-23.29.02.32-.87.11-.89.44-.22,5.24-1.14,10-3.11,14.86Z"/>
                    <path class="cls-17"
                          d="M261.89,253.3c-3.23,6.01-6.64,11.99-10.65,17.53l.22.67c2-1.21,3.92-2.48,5.99-3.55-2.15,5.43-14.41,11.27-20.85,15.97-2.15-1.13-6.61,6.04-6.21,2.88.29-2.29,26.53-31.29,31.5-33.5Z"/>
                    <path class="cls-21"
                          d="M261.89,253.3c-4.98,2.21-31.22,31.21-31.5,33.5-.4,3.16,4.06-4.01,6.21-2.88-2.42,1.77-4.68,3.97-7.1,5.77-.38.29-1.26.61-2.22,1.33-.06-3.63,7.64-10.2,1.77-6.66,3.46-4.61,7.74-8.55,11.54-12.87,1.82-2.07,3.07-3.95,4.44-5.77.33-.44-.53-.91-.22-1.33.7-.96,16.52-11.72,18.64-14.64,1.15.55-1.29,3.06-1.55,3.55Z"/>
                    <path class="cls-34"
                          d="M240.59,271.5c-2.82.41-9.55,7.42-10.65,3.99,5.02-3.25,9.82-6.89,15.09-9.76-1.37,1.82-2.62,3.7-4.44,5.77Z"/>
                    <path class="cls-23"
                          d="M354.62,260.85c-.08.93.46,2.52,1.33,3.55-6.92,3.47,2.22,1.46-4.22,4.44-.6.61.62.38.67.44,1.43,1.77,2.59.92,3.55,3.99-.85.82-.35,1.98-2,3.11-.95.65-2.76.81-2.88.89-4.68-3.46-8.78-7.95-13.31-11.54l9.98-7.1-2.22,8.87c2.02-.57,12.3-13.95,12.65-13.09-1.37,1.7-1.19,4.26-1.33,4.44-1.49,1.85-1.98-.91-2.22,2Z"/>
                    <g>
                        <path class="cls-15"
                              d="M363.94,238.22c-1.18,2.78,1.04,5.74.89,8.65,4.19,2.44,3.11,10.53,7.1,14.42-.38-.41-3.88,1.94-4.88,2.66l-2.66-1.11c5.79-2.34-1.54-.37-2.22-2.66-.16-.54,1.54-3.87-.67-4.22-1.25-.19-3.82,4.56-6.88,4.88.24-2.9.73-.15,2.22-2,.15-.18-.04-2.74,1.33-4.44-.35-.87-10.62,12.52-12.65,13.09l2.22-8.87-9.98,7.1c-.12-.1-1.85.09-.89-1.33l26.4-26.62.67.44Z"/>
                        <path class="cls-10"
                              d="M364.16,256.41c1.02-.71,2.29,1.48.89,1.77-.89.18-1.56-1.31-.89-1.77Z"/>
                    </g>
                    <path class="cls-17"
                          d="M227.28,291.02c-2.23,1.68-12.15,10.2-13.09,10.65-.67.32-1.22.66-1.11-.22,4.01-3.45,12.83-15.18,15.97-17.08,5.87-3.55-1.83,3.02-1.77,6.66Z"/>
                </g>
                <g>
                    <path class="cls-15"
                          d="M67.1,385.97c3.02,1.08,8.83.55,11.09,3.11.09.1.37,1.82.89,2.66-9.92.81-22.85-10.46-24.18-10.65-3.57-.52.56,3.62,1.11,4.44v.44c-.18,3.24.09,4.83-3.11,2.44,2.99-4.06-10.65-18.08-14.86-14.86-1.94-1.8-1.15-4.23-3.99-5.32,3.67,9.81-3.83,3.84-9.76,9.32-2.33,2.15-4.07,7.34-5.99,10.21-.74,1.1-1.28,1.25-1.33,1.33-.33.01-.87.08-.89-.22-.75-11.12,5.26-8.34-15.53.67,0-3.1,0-6.22,0-9.32,1.04,1.53,2.41-.04,3.55-1.33,2.56,1.23-2.73,4.29,3.55,2l-3.33,4.66c1.57-1.32,11.25-9.5,11.98-9.76,1.26-.46-.45,1.94,1.33,1.33,5.58-3.07,11.24-5.08,15.97-9.76h1.77c5.3,5.02,12.89,6.32,19.08,9.76.72.4,9.68,7.81,12.65,8.87Z"/>
                    <path class="cls-4"
                          d="M35.15,261.73c.41,7.46-3,9.03-3.11,9.54-.33,1.61,1.27-.78,1.77-.44,2.96,1.96-5.51,7.05-6.66,7.76-.21.13-1.11-.13-1.33,0-.53-2.35,4.47-7.15,6.21-9.54-.76-1.67-14.55,13.49-15.97,14.86-5.45,3.36-9.72,8.66-15.53,11.54,0-.29,0-.6,0-.89,4.87-2.83,8.73-7.16,12.87-10.87l-.67-.22c-1.48,1.39-3.06,2.75-4.66,3.99,2.4-3.74,25.27-25.22,27.07-25.73Z"/>
                    <path class="cls-21"
                          d="M16.96,389.08c-.84,1.32.23,4.17-4.44,1.11,1.16-8.89-.96,4.54-11.98,6.88,0-2.51,0-5.03,0-7.54,20.79-9.01,14.78-11.78,15.53-.67.02.3.56.24.89.22Z"/>
                    <path class="cls-21"
                          d="M.54,419.25c0-1.62,0-3.26,0-4.88,8.89-1.91,4.88-4.12,11.09-7.1.07,1.83.2,6.72,0,7.76-.82,4.25-13.84,14.65-8.87,2.22l-2.22,2Z"/>
                    <path class="cls-21"
                          d="M.54,364.23c0-.29,0-.6,0-.89,1.47-1.67,3.36-5.04,0-3.55,0-.44,0-.89,0-1.33,4.25-.81,15.84-2.87,15.97-7.1.16.19.61-.93,1.33.22-1,4.48-8.6,18.31-6.88,5.99l-10.43,6.66Z"/>
                    <path class="cls-15"
                          d="M11.64,407.27c-6.21,2.98-2.2,5.19-11.09,7.1,0-2.07,0-4.15,0-6.21,8.74.9,10.87-6.67,11.09-.89Z"/>
                    <path class="cls-32"
                          d="M14.3,344.26c-1.74,3.39,1.19-.15,0,3.11-.53-1.72-1.11.06-3.77,1.33-2.64-1.24-5.97.34-9.98-.89,0-.59,0-1.19,0-1.77,2.05.23,3.58-1.12,5.32-1.77-3.18,7.51,5.79-.17,6.43-.44.39-.17,1.17.82,2,.44Z"/>
                    <path class="cls-17"
                          d="M4.09,378.87c-1.14,1.29-2.51,2.86-3.55,1.33,0-1.33,0-2.67,0-3.99h5.1c.44.63-1.07,2.12-1.55,2.66Z"/>
                    <path class="cls-28"
                          d="M36.93,424.13c.71,1.43.75,4.23,2.66,4.44-.79,2.03-.82,6.16-.89,8.43-.12,4.05.53,7.99.44,11.98-.14,6.56.55,8.33-7.54,6.21-.07-6.33-1.4-22.55-.89-26.62.17-1.32.55-3.28,1.33-4.44,4.41-1.72,1.21-7.37,4.88,0Z"/>
                    <path class="cls-15"
                          d="M56.01,421.47c2.8,4.08,2.52,6.62,2.88,6.66,2.22-1.22,2.8.38,4.66.89-1.52,3.08-4.5-.93-5.32.44-2.13-2.47-3.99-2.68-4.44-3.11-.89-.86-2.85-4.78-7.1-7.76,2.84-.21-3.41-5.89-4.22-6.43-3.57-2.4-4.65-.44-7.99-4.88-9.39,5.13-12.59,12.04-19.08,19.97-1.13.19-3.59-.03-3.77,0,.96-2.74,3.04-7.19,4.88-9.32,1.62-1.88,15.58-14.34,20.63-13.31,1.24.25,15.87,12.52,18.86,16.86Z"/>
                    <path class="cls-8"
                          d="M41.81,429.46c-.76-.97-1.54-2.65-2.22-.89-1.91-.21-1.95-3-2.66-4.44,3.25-1.9,1.04-7.25,1.33-7.76,1.77,3.65,5.95,8.65,3.55,13.09Z"/>
                    <path class="cls-32" d="M87.07,429.01c-.06.03.18.04-.89.89-9.63-4.43-6.14-7.8.89-.89Z"/>
                    <path class="cls-23"
                          d="M51.57,274.16c.25.38,2.47,6.49,3.55,8.43-1.52.02-.55.96-2.22.89-1.63-4.22-3.61-9.45-6.66-12.87,2.24.09,4.16,1.77,5.32,3.55Z"/>
                    <path class="cls-21"
                          d="M44.03,306.11c.29.15.6-.68,1.11-.44,1.01,1.47,5.41,4.84,8.21,7.1-7.29-.67-15.2-9.83-9.76-1.11-1.36,1.66-2.07-.07-3.11-.89,2.91,8.56-.33,6.35-4.44,1.33-1.84-10.57.83,3.27-7.1,3.33-1.02-.8.74-4.91,1.33-6.66.55-1.62,1.36-4.55,2.22-5.77.31-.45,2.38-2.71,2.88-2.66,4.3,5.99,5.8,4.31,8.65,5.77Z"/>
                    <path class="cls-8"
                          d="M30.27,308.77c-.59,1.75-2.35,5.85-1.33,6.66-3.84.03,3.17-6.48-2.88-4.44-.63.21-2.61,3.93-4.22,5.32-.11.1-.95-.84-2.88.89-1.71,1.52-6.59,10.99-4.44,3.55-1.94-1-6.18,2.35-4.44-.44-.42-.12-1.49.57-3.77.44-.3-1.66,2.12-.51,2.88-.89.88-.43-.81-1.2,4.22-4.44,1.44-.93,12.8-7.8,13.53-7.54.91.32-.7,4.94,3.33.89Z"/>
                    <path class="cls-21"
                          d="M63.11,344.71c4.62,7.28-13-.77-14.42-7.99-7.43-.47-6.9-4.9-8.65-7.54,4.56,1.87,11.58,7.81,15.75,11.54,1.8.39,6.49,2.69,7.32,3.99Z"/>
                    <path class="cls-21"
                          d="M24.95,332.28c-4.51,5.24-4.29,9.06-10.65,11.98-.82.38-1.61-.61-2-.44-.65.28-9.61,7.96-6.43.44,2.62-.99,5.25-1.82,7.76-3.11.85-2.17,9.03-9.91,11.31-8.87Z"/>
                    <path class="cls-21"
                          d="M67.54,358.91c3.28,8.05-1.97,3.66-8.65-1.33-1.17.56,2.85,4.72,0,4.88-2.79.16-4.61-6.05-5.55-7.99,4.53-.7,8.31,2.64,12.2,3.99.85.29,1.3-.61,1.77-.44.39.14.17.87.22.89Z"/>
                    <g>
                        <path class="cls-8"
                              d="M53.35,312.76c1.41,1.14,6.79,4.42,7.1,5.1.3.68-1.45,2.88,0,2.88-.05,0,.14.86-.22.89-.59.04-5.34-1.3-5.1-.22l2.66,2.66c-2.82,1.3-3.75-4.58-3.99-4.88-.52-.65-5.19-4.72-5.55-4.66-.56.09-3.57,3.84,4.22,7.76-2.36,3.5,3.79,2.74,3.99,3.55.53,2.17-8.58-.22,1.33,5.32-10.02.27-.05,3.82-2.44,5.1-5.51-6.16-13.76-7.72-19.08-14.2-1.63,2.49,2.4,5.03,3.77,7.1,1.75,2.64,1.23,7.07,8.65,7.54,1.42,7.22,19.04,15.26,14.42,7.99,1.22.62,6.31,1.8,6.66,2.66-2.98,1.65-4.59-.06-4.22,2.66l-8.87-1.77c-.11,3.44-.67.73-1.33,1.33-1.38,1.26,1.35,2.34-4.22,1.55-.15.31,1.91,2.68,2.22,3.33.93,1.94,2.75,8.14,5.55,7.99,2.85-.16-1.17-4.32,0-4.88,6.69,4.99,11.93,9.38,8.65,1.33,9.72,3.41,11.46,1.36,5.1,3.55-.55.19.69.72,0,1.33-7.01-3.54,6.2,4.7-5.1,1.11,2.76,2.87-10.64-4.87-3.11,1.33-3.12.41,1.79,3-2.88,1.55-2.05.86,13.29,7.23,14.42,7.32-.31,1.5-14.46-.86-10.21,4.88-4.28-1.36.23.85.44,1.33,1.21,2.72-3.64-1.54-3.11,0l3.99,4.66c-2.97-1.06-11.93-8.48-12.65-8.87-6.19-3.44-13.78-4.74-19.08-9.76h-1.77c-4.73,4.68-10.39,6.7-15.97,9.76-1.78.61-.07-1.79-1.33-1.33-.73.26-10.41,8.44-11.98,9.76l3.33-4.66c-6.28,2.3-.98-.77-3.55-2,.48-.54,2-2.03,1.55-2.66H.54c0-.88,0-1.78,0-2.66,1.16-.1,7.49-3.79,7.54-4.22.02-.21-1.8-2.7-2.66-1.77,4.74-5.62-2.08-.02,2.44-5.1-4.03,2.76-2.59,2.48-7.32,3.11,0-.44,0-.89,0-1.33l10.43-6.66c-1.72,12.32,5.88-1.51,6.88-5.99-.72-1.16-1.17-.04-1.33-.22-2.74-3.26.17-.72-3.55-2,1.51-1.18,1.26-1.8,1.33-2,1.19-3.25-1.74.29,0-3.11,6.36-2.92,6.14-6.74,10.65-11.98,2.34,1.06-2.84,2.84-1.11,3.99,2.28,1.52,4.48-5.55,5.1-6.43,1.19-1.67,6.18-5.15,4.22-7.32-1.11,1.41-17.15,13.22-17.53,12.2-.19-.51,4.52-2.16-3.11-2.22.9-1.08,8.05-5.68,7.99-6.21-.23-2.07-7.29,4.42-6.66-.44.24-1.81,1.54,1.4,4.88-2.22.37-.4-1.15-.72.22-2,1.57-1.46,6.67-.74,2.88-5.32,1.6-1.39,3.58-5.11,4.22-5.32,6.05-2.05-.96,4.46,2.88,4.44,7.93-.06,5.26-13.9,7.1-3.33,4.1,5.02,7.35,7.23,4.44-1.33,1.04.82,1.75,2.55,3.11.89-5.44-8.72,2.47.44,9.76,1.11Z"/>
                        <g>
                            <path class="cls-15"
                                  d="M.54,373.55c0-2.66,0-5.33,0-7.99,4.73-.63,3.29-.35,7.32-3.11-4.52,5.08,2.3-.52-2.44,5.1.86-.92,2.69,1.56,2.66,1.77-.05.43-6.38,4.11-7.54,4.22Z"/>
                            <path class="cls-21"
                                  d="M53.35,356.69c1.54,4.27-.25,2.73-4.44.22,9.19,19.88-6.95,5.32-9.32-7.1-1.65-1.48.3,5.45-3.11,2.44-.34-1.29-1.36-2.18-1.55-3.55-.76-.38-1.2,2.62-1.55,3.11-3.29,4.5-1.89-4.03-3.99-1.55-.65.77-4.1,16.06-10.43,16.64-3.48.32.76-4.68,1.11-9.1-.38-.64-3.93,3.03-3.99-.22,1.55-.57,1.48.04,1.55,0,.96-.51,13.76-12.02,16.86-13.75l18.86,12.87Z"/>
                            <path class="cls-15"
                                  d="M53.35,356.69l-18.86-12.87c-3.11,1.74-15.9,13.24-16.86,13.75-.07.04,0-.57-1.55,0-.09-4.94,8.35-9.39,11.76-11.54,1.11-.7,4.75-4.33,5.32-4.44,3.49-.65,12.3,6.48,15.09,8.87.33.28,2.82-.12,5.1,6.21Z"/>
                            <path class="cls-8"
                                  d="M36.48,352.25c1.3,4.91-2.33,17.94-3.11-.44.36-.49.79-3.49,1.55-3.11.2,1.37,1.21,2.26,1.55,3.55Z"/>
                            <path class="cls-15"
                                  d="M24.28,319.42c2.75-.12.11,4.73-1.77,2.66-.45-.49,1.56-2.65,1.77-2.66Z"/>
                            <path class="cls-15"
                                  d="M9.2,375.77c-.67,4.43-5.46,5.81-2,1.55.58-.71,1.26-1.06,2-1.55Z"/>
                        </g>
                    </g>
                    <path class="cls-8"
                          d="M38.7,289.24c2.37,3.36,7.07,5.69,10.65,5.32,1.16,1.36-1.86,1.57,3.55,4.22-16.47-2.81-5.69,4.52-5.77,5.32-.12,1.24-3.85-.88-3.11,2-2.85-1.46-4.35.22-8.65-5.77-.5-.05-2.57,2.22-2.88,2.66-1.76-.97-2.5,1.54-4.66,2.66-.3.15-1.27-.15-1.55,0-.93-2.41-1.4-.23-2.66-.67,2.05-2.79,5.64-10.1-.22-3.77l-.67-.67c4.72-6.2-.28-2.33-4.88-.89,2.13-3.04,2.9-.61,3.99-5.1,4.08-1.29,7.26-2.86,9.98-6.21.6,1.47-3.08,7.23-.44,7.1,1.33-.07.64-3.11,3.77-3.33-2.7-10.86,1.97,4.31,4.66,4.66,3.94.52-2.75-5.83-1.11-7.54Z"/>
                    <path class="cls-21"
                          d="M37.82,285.25c-.87.38.55,3.52.89,3.99-1.64,1.72,5.05,8.06,1.11,7.54-2.69-.35-7.36-15.52-4.66-4.66-3.13.22-2.45,3.26-3.77,3.33-2.64.13,1.05-5.63.44-7.1-2.73,3.36-5.9,4.93-9.98,6.21.16-.67-1.39.32-.89-.67.67-1.31,3.37-1.47,4.66-2.44,1.54-1.16,3.56-3.66,5.1-4.88.69-.55,3.07-3.02,3.33-3.11,2.72-.92,3.58,1.63,3.77,1.77Z"/>
                    <path class="cls-15"
                          d="M32.49,303c-.86,1.22-1.67,4.15-2.22,5.77-4.03,4.05-2.41-.57-3.33-.89-.73-.25-12.09,6.61-13.53,7.54,3.36-4.12,8.19-7.23,12.87-9.76.28-.15,1.26.15,1.55,0,2.16-1.12,2.9-3.63,4.66-2.66Z"/>
                    <path class="cls-34"
                          d="M25.84,278.6c-2.77,1.65-6.78,3.49-9.76,5.32,1.43-1.37,15.21-16.54,15.97-14.86-1.75,2.38-6.74,7.19-6.21,9.54Z"/>
                    <path class="cls-8"
                          d="M32.05,424.13c-.78,1.16-1.17,3.12-1.33,4.44-.06-.78-.29-.22-.89,0-4.62,1.7-1.8-1.21-1.77-2.44,0-.2-1-.58-.89-1.33.08-.51,2.74-4.67,2.66-9.76h.89c.21,3.1-.77,6.52,1.33,9.1Z"/>
                    <path class="cls-8"
                          d="M50.24,397.07c-2.77,3.91,1.32,8.04,2.22,10.43.19.51-.46.84-.44.89.1.25,1.08.25,1.33.89.33.86,1.26,5.64.89,6.21,1.29-.85,4.42,6.72,1.77,5.99-2.98-4.34-17.61-16.61-18.86-16.86-5.05-1.03-19.01,11.43-20.63,13.31-2.38,1.75-.82-3.69-.44-5.32,1.03-4.54,4.34-9.61,4.88-12.87.02-.13-.38-.61,0-2.66,8.58-3.88,6.15-27.41,9.32-12.65,5.87,6.82,8.63-.55,9.98-6.43,1.64,6.19,2.63,17.24,9.98,19.08Z"/>
                    <path class="cls-21"
                          d="M56.01,385.97c2.72,12.66-4.53-.08-5.77,2l4.88,9.32c-1.7.57-3.23.19-4.88-.22-7.35-1.84-8.34-12.89-9.98-19.08-1.36,5.88-4.11,13.25-9.98,6.43-3.17-14.76-.74,8.77-9.32,12.65-.16.07-3.16.88-3.33.89-7.39.26,3.56-7.71.67-10.21,1.92-2.86,3.66-8.06,5.99-10.21,5.93-5.48,13.43.49,9.76-9.32,2.84,1.09,2.05,3.53,3.99,5.32,4.21-3.22,17.86,10.81,14.86,14.86,3.2,2.39,2.92.8,3.11-2.44Z"/>
                    <g>
                        <path class="cls-8"
                              d="M16.96,389.08c.05-.08.59-.23,1.33-1.33,2.89,2.49-8.05,10.47-.67,10.21.17,0,3.17-.82,3.33-.89-.38,2.05.02,2.53,0,2.66-.91.16-4.29,6.47-4.44,6.88-.2.55.65.78.44,1.33-.6,1.65-2.57,2.32-.89,4.66-.37,1.64-1.93,7.07.44,5.32-1.84,2.13-3.92,6.58-4.88,9.32-.24.04.61,1.97-3.77,0l-7.32,5.32c0-4.43,0-8.88,0-13.31l2.22-2c-4.96,12.43,8.05,2.04,8.87-2.22.2-1.05.07-5.93,0-7.76-.22-5.78-2.36,1.79-11.09.89,0-3.69,0-7.4,0-11.09,11.02-2.34,13.14-15.76,11.98-6.88,4.66,3.06,3.59.21,4.44-1.11Z"/>
                        <path class="cls-32"
                              d="M16.07,412.6c-1.68-2.34.28-3.01.89-4.66.2-.55-.65-.78-.44-1.33.15-.4,3.53-6.72,4.44-6.88-.55,3.26-3.85,8.33-4.88,12.87Z"/>
                        <path class="cls-33" d="M6.98,425.46c.29.17.33.88.22,1.11-.33.75-4.65,2.95-.22-1.11Z"/>
                        <path class="cls-27" d="M9.2,425.91c.15-.11.98-.07,1.11.22.33.73-2.54.75-1.11-.22Z"/>
                    </g>
                    <path class="cls-15"
                          d="M79.97,409.93c7.04,10.32-7.58,2.18-8.21,2.66-.53.4-.02,1.75-.22,2-1.83,2.29-3.52-2.23-5.1-3.33-.44-.31-2.56.15-8.65-5.77,1.47-2.39,3.2,1.14,5.55,1.77.88.24,14.91,2.5,16.64,2.66Z"/>
                    <g>
                        <path class="cls-8"
                              d="M86.18,406.38c.69,3.27-9.16.13.67,2.66.45.12,1.85.56,1.55,1.33h-.89c-2.56.28-5.03-.21-7.54-.44-1.73-.16-15.76-2.42-16.64-2.66-2.35-.64-4.08-4.16-5.55-1.77-.63,1.02-1.05,11.24,5.1,15.53,9.19,6.41,3.45-2.35,3.33-2.88-1.1-4.74,4.79,2.78,2.66,3.99l3.11,3.33c-1.48-.66-2.63-2.41-4.22-1.33-1.86,1.26,2.11,7.42,5.99,5.55-.02-2.48-2.78-1.42-.89-3.33,4.16,1.88,8.6,3.16,12.42,5.77,1.86,1.69-8.17-1.34-9.32-1.77-.05-.02-.39-1.17-.89-.67-.16.98.78.57.89.67,1.59,1.37,3.21,1.66,4.22,3.11-14.41-6.46-6.06-.31-6.43.22-1.11,1.57-10.76-6.41-11.76-8.21-2.13-.14,2.06,2.54,1.55,3.55-1.86-.51-2.44-2.11-4.66-.89-.36-.04-.08-2.57-2.88-6.66,2.65.73-.48-6.84-1.77-5.99.37-.58-.55-5.35-.89-6.21-.25-.64-1.24-.64-1.33-.89-.02-.05.64-.38.44-.89-.9-2.39-4.99-6.52-2.22-10.43,1.65.41,3.18.79,4.88.22l-4.88-9.32c1.24-2.07,8.48,10.67,5.77-2v-.44c9.32,14,13.3,9.72,19.74,13.75,3.32,2.08,5.33,7.03,10.43,7.1Z"/>
                        <path class="cls-8"
                              d="M71.98,425.46c.87.39.83.86.89.89-1.89,1.91.87.85.89,3.33-3.88,1.87-7.85-4.29-5.99-5.55,1.59-1.07,2.73.67,4.22,1.33Z"/>
                        <path class="cls-10" d="M73.53,403.28l3.33,2.44c-.84.17-4.18-1.54-3.33-2.44Z"/>
                        <path class="cls-33" d="M60.22,425.91c.67-.24.98.65.44.89-.65.29-.98-.69-.44-.89Z"/>
                        <path class="cls-5" d="M75.97,430.34c-.11-.09-1.04.31-.89-.67.5-.51.84.65.89.67Z"/>
                    </g>
                    <g>
                        <path class="cls-21"
                              d="M79.08,391.74c1.15,4.78,10.44.49,7.76,6.21,11.17.61,2.62,8.47-.67,8.43-5.09-.06-7.1-5.02-10.43-7.1-6.45-4.04-10.43.24-19.74-13.75-.55-.82-4.68-4.96-1.11-4.44,1.33.19,14.27,11.46,24.18,10.65Z"/>
                        <path class="cls-31" d="M75.75,396.62c.26-.38,5.7.8,0,1.33-.43-.26-.28-.93,0-1.33Z"/>
                    </g>
                    <path class="cls-21"
                          d="M41.81,288.36c.62.25,1.19.25,1.33-.44.17.13,3.58,1.28,3.55,2.44-.01.44-1.32.74-1.33.89-.02.47,3.23,2.43,3.99,3.33-3.58.37-8.28-1.96-10.65-5.32-.34-.48-1.75-3.61-.89-3.99,1.48,1.12,2.2,2.39,3.99,3.11Z"/>
                    <g>
                        <path class="cls-21"
                              d="M46.25,270.61c3.04,3.42,5.03,8.65,6.66,12.87-1.88-.08-4.09-1.49-6.66-1.33-.94-3.1-7.45-6.58-9.1-9.76.05,3.03,8.69,12.06,1.55,5.99-4.3-8.26.08.77-1.55,1.11-2.52.52-4.51-8.07-.22-9.98.3-.86-1.06-2.73-.89-7.76.08-2.36-.39-4.27.67-3.99,4.48,11.79,7.27,10.33,9.54,12.87Z"/>
                        <path class="cls-17" d="M46.02,278.15c.29.03,1.06,1.1.44,1.33-.35.13-1.8-1.48-.44-1.33Z"/>
                    </g>
                    <g>
                        <path class="cls-8"
                              d="M36.04,261.73c-.18,5.03,1.18,6.91.89,7.76-4.28,1.91-2.3,10.5.22,9.98,1.63-.34-2.74-9.37,1.55-1.11,7.14,6.07-1.5-2.96-1.55-5.99,1.65,3.18,8.16,6.66,9.1,9.76.04.12-.01.3,0,.44-3.89-3.08-4.76-1.41-.89,1.33-.09.12.88.9-.22,1.33-1.49.58-2.84-2.37-2.88,2.22-1.46-.92-3.6-4.44-.44.89-1.79-.72-2.52-1.99-3.99-3.11-.19-.14-1.05-2.69-3.77-1.77-.26.09-2.63,2.56-3.33,3.11,1.13-6.73-.7-2.69-2-2.66-1.45.03-1.04-.86-1.11-.89,2.48-1.28.93-2.91-.89-1.33.26-1.21.5-1.13.44-3.11,1.15-.71,9.62-5.81,6.66-7.76-.51-.34-2.1,2.06-1.77.44.1-.51,3.51-2.08,3.11-9.54.23-.06.6.03.89,0Z"/>
                        <path class="cls-21"
                              d="M27.61,283.03c-.12-.04-1.28,1.05-1.77-.22-.04-.09.76-.52.89-1.11,1.82-1.58,3.36.05.89,1.33Z"/>
                        <path class="cls-21" d="M46.25,282.59c.2,2.11-.66,1.04-.89,1.33-3.87-2.74-3-4.42.89-1.33Z"/>
                        <path class="cls-33"
                              d="M42.25,287.47c.64.4.85.41.89.44-.15.7-.72.69-1.33.44-3.15-5.33-1.01-1.8.44-.89Z"/>
                        <path class="cls-15" d="M33.16,275.05c.31.66.79,1.2.67,2-.4,2.63-6.2,4.04-.67-2Z"/>
                    </g>
                </g>
                <g>
                    <path class="cls-32"
                          d="M146.97,316.31c-.1.06.22,1.15-.22,1.33-1.04.41-4.89-2.08-6.21-2.66-.93.52,9.22,15.95,13.09,13.75.75-.05-.62,1.11.89,2.22-.91-.25-.93.44-1.33.89-.28.31-.52.64-.89.89-3.42-1.81-2.46-2.37-6.43-2.22-.14,0-.78-.92-.89-.89-.4.12-4.02,4.48-.44,7.1,1.31-4.94.18-1.59,2.88-.44.96,1.39.03,1.27,0,1.33-.33.62-.65,1.34-.89,1.77-2.23,1-4.48-3.46-5.55-3.55-3.33,1.96-3.73-.16-4.44,0l-6.66,3.55c1.21-4.43-2.69,3.54-2.66-4.44-5.47,2-9.74-2.7-1.33-1.33-1.21-2.22,2.07-1.2,3.99-3.11-3.9,8.75,1.31.55,1.77.44,3.55-.8-3.02,4.65-2.88,5.55.94,1.76,7.05-3.73,3.77-1.55-1.17-.69,2.28-4.09,2.44-4.66.74-2.69-3.56,1.35.44-3.99l-3.11.44c7.7-8.1,3.25,1.76,5.55,2,3.24-6.62,1.86.56,3.99,0,1.54-.4-.28-3.37.44-3.55,5.46,4.93,10.39,6.52,4.88,1.33-.4-.37-2.48-1.02-3.77-2.44-.12-.14-1.2-3.28-1.55-3.33-1.1-.15-.42,1.22-.89,1.33-.67.15-1.43-4.79-6.66.89-2.34-.43-4.97.16-7.32.89.75-.93-.1-.97,0-1.33.24-.88,2.07-1.99-.89-.89-.06-.57.18-.89.44-1.33.06-.1,1.22.45,1.55-1.77,3.02,2.97,1.39.61,4.44,0,.86,5.86,3.91-9.03,3.55-1.33,3.78-5.36,1.35-2.84,1.11-3.77-.2-.75,3.4-1.76,6.88,2.44-.9-5.1.31-.12,2.88.44Z"/>
                    <path class="cls-15"
                          d="M146.97,310.1c.44,6.16,4.86,3.09,0,6.21-2.58-.56-3.78-5.55-2.88-.44-3.48-4.2-7.07-3.19-6.88-2.44.24.93,2.67-1.58-1.11,3.77.36-7.7-2.69,7.19-3.55,1.33-3.05.61-1.41,2.97-4.44,0-.33,2.23-1.49,1.67-1.55,1.77-4.67,1.12.1-2.29,3.55-6.21,4.48-5.09-1.65,4.18,3.33-.89,1.98,2.53,3.06-2.46,4.44-2.66.99-.14,6.48,3.19,6.88,1.55-5.48-6.26-3.65-1.5-6.21-3.11-.67-8.14-.88-2.03-3.33,2.44-1.1-2.38.02-6.42-2.22-1.77-1.56-.2-.03-1.03.22-1.77.09-.27-.3-.55.89-2.22.4-.57,2.99-2.42,3.77-3.55,1.67,2.09,5.55,5.41,6.88,7.32.15.22-.72,4.39,2.22.67Z"/>
                    <path class="cls-32"
                          d="M130.11,314.09c-.52-1.38-.98-.4-2.22-.89,7.28-3.69-.38-3.34,5.32-5.32-.25.75-1.78,1.57-.22,1.77,2.24-4.64,1.12-.61,2.22,1.77,2.45-4.47,2.66-10.58,3.33-2.44,2.56,1.61.73-3.16,6.21,3.11-.4,1.64-5.89-1.7-6.88-1.55-1.38.2-2.46,5.19-4.44,2.66-4.98,5.07,1.16-4.21-3.33.89Z"/>
                    <path class="cls-12"
                          d="M151.85,320.3c.04.81.32,1.01.44,2.66-2.63.98-5.66.43-7.54-2.44,2.13.44,1.11,1.59,3.11.22-.21.22.06,1.19.67.89.79-.4-.26-1.3-.67-.89.24-.17-.9-2.7,2.44,0,3.4-5.27,1.54-.72,1.55-.44Z"/>
                    <path class="cls-29" d="M144.08,303.44c.67-.24.98.65.44.89-.65.29-.98-.69-.44-.89Z"/>
                    <path class="cls-32"
                          d="M140.76,346.93c1.04,1.64-1.58-.4-1.33,3.33.12,1.77,1.23,2.96,2.66,3.77-1.99-.09-4.2.2-6.21,0,2.84-1.68.92-9.59-.89-9.76-.44-.04-6.26,3.68,1.11-3.99-.57,4.97,1.47,2.89,2.22-.44,3.76,5.75-1.63,6.62,2.44,7.1Z"/>
                    <path class="cls-15"
                          d="M154.51,330.95c1.82,1.33,2.93-1.27,2.66,3.99-.07,1.39-1.8-.38.44,2-4.81,4.08-.01-1.76-4.44.22-6.01-5.04,1.1-1.29,0-5.32.4-.45.42-1.14,1.33-.89Z"/>
                    <path class="cls-10"
                          d="M145.19,341.6c1.92,4.4,4.02,3.99,4.88,4.66.19.15.38,1.51.44,1.55-2.73,1-4.56.57-6.66-.44,2.02-2.29-3.98-6.46,1.33-5.77Z"/>
                    <path class="cls-10"
                          d="M152.29,332.73c.36-.24.61-.57.89-.89,1.1,4.03-6.01.28,0,5.32-.33.15-2.55,3.39-5.77.44.03-.06.96.06,0-1.33.12.05,2.59.36,2.66.22-4.1-8.53-.93-1.67,2.22-3.77Z"/>
                    <path class="cls-31"
                          d="M120.35,328.29c.79,0,.29-1.01.44-1.33,2.39,1.97,11.76-4.99,11.54-1.55-8.53,10.43-11.27,3.16-11.98,2.88Z"/>
                    <path class="cls-11" d="M127,322.52c-.42-.04-.84-.49-.89-.89,2.96-1.1,1.13,0,.89.89Z"/>
                    <path class="cls-21"
                          d="M152.29,332.73c-3.14,2.11-6.32-4.76-2.22,3.77-.07.14-2.54-.17-2.66-.22-2.7-1.15-1.57-4.5-2.88.44-3.58-2.62.04-6.97.44-7.1.11-.03.74.89.89.89,3.97-.15,3.02.4,6.43,2.22Z"/>
                    <g>
                        <path class="cls-32"
                              d="M139.87,302.11l-.89-.67c-.17.96.83.6.89.67,2.43,3.06,10.32,8.17,7.1,7.99-2.94,3.72-2.07-.45-2.22-.67-1.33-1.91-5.21-5.23-6.88-7.32-.78,1.13-3.37,2.98-3.77,3.55-.21-6.69-1.16-1.58-2.88-.44-6.51,4.29-.19-6.3,2.66-3.99,2.41-5.51,5.29-.44,3.55-6.21l4.66,4.66-2.22,2.44Z"/>
                        <path class="cls-21" d="M136.1,299.01c1.98-.45.04,2.98-.44,2.66-.68-.45.21-2.61.44-2.66Z"/>
                        <polygon class="cls-27"
                                 points="129.44 304.33 130.11 304.55 129.44 305.22 129.22 305 129.44 304.33"/>
                        <path class="cls-21" d="M139.87,302.11c-.06-.07-1.06.3-.89-.67l.89.67Z"/>
                    </g>
                    <g>
                        <path class="cls-10"
                              d="M137.43,282.59c.28.08-.88,3.75,1.55.67,1.35,2.73-.25,2.41,0,3.11.51,1.39,6.93,7.53-2,3.33l-.22,2.88c.61-.95,6.41,1.77,4.88,2.66,4.99.9.96,2.43-.22,2-.81-.3-2.08-3.68-4.44-3.55-.17.71-2.86,4.32-3.11,4.44-8.17,3.81,4.14-4.43,1.33-5.32-7.66,1.12-.51-1.03.22-4.22-1.65,1.29,1.65-6.09,2-5.99Z"/>
                        <path class="cls-15"
                              d="M137.43,285.25c.88-.16,1.33,1.63.44,1.77-1.83.31-1.1-1.66-.44-1.77Z"/>
                        <path class="cls-21" d="M135.21,291.02c.95-.69.54,1.57,0,1.33-.34-.15-.37-1.06,0-1.33Z"/>
                    </g>
                    <path class="cls-2" d="M147.85,320.75c.41-.42,1.45.49.67.89-.61.31-.88-.67-.67-.89Z"/>
                </g>
                <g>
                    <path class="cls-21"
                          d="M97.72,297.23c-.35-.05-.5-.29-.89-.44-2.55-1.01-3.54-2.68-3.77-2.66-.68.06-1.38,4.96-3.99-2.22-.6-.02-1.68,5.01-4.22,2.44,4.15-3.68-.58-.58-4.44.67-.04-.06-.65.17-.44-1.33,4.18-2.67,4.44-1.61,4.66-1.77.38-.28.51-2.91,7.1-5.77,2.25,3.17-3.29,2.31,4.88,6.21.57-4.63,6.3,5.38.22.67-.11,2.03,3.34,2.49.89,4.22Z"/>
                    <path class="cls-1"
                          d="M93.28,344.71c.65,4.14-1.03,4.66,4.44,5.32-1.26.04-3.1.31-4.22.89-2.33,0-4.55-.39-6.88-.44,3.84-2.59,3.26.97,3.55-5.32.38-8.32-4.84-3.34,1.11-12.42,3.85,4.3.73,3.89,2,11.98Z"/>
                    <g>
                        <path class="cls-10"
                              d="M90.62,266.62c.78,1.64-.52,4.4,2.22,2.88l-1.77-3.33c1.71-1.85,2.45,3.92,2.66,5.1-4.02-.72,3.24.92,1.55,5.1-4.05-3.08-4.43-.65.44,3.55.16.14,3.61,1.26,3.77,2,.17.81-2.26,2.44-2.44,2.44-.17,0-1-1.1-2.88-1.77-.85-.3-11.11-3.99-5.99-.44.28.2.93-1.46,5.55,3.11,2.27,2.24,0,.81,0,2,0,3.05,5.91-2.96,3.55,1.33,2.17-.85,6.61,4.9,4.22,4.22-7.29-7.9-.83.14-.67,1.11.04.26-1.26,3.58-3.11,3.33,2.45-1.72-1-2.18-.89-4.22,6.08,4.71.35-5.29-.22-.67-8.17-3.9-2.63-3.04-4.88-6.21-6.59,2.86-6.72,5.49-7.1,5.77-.22.16-.48-.9-4.66,1.77-1.04-2.61-4.66-.33-4.88-2,1.05-1.77,4.47-1.92,6.66-2,.05,0-.15.86.22.89.13,0,1.25-1.38,1.33-1.33.52.34-.29,3.12,1.55.67,2.14-2.84-1.31-3.89-1.55-3.77-.53.25-.26,1.38-.67,2.22-1.24-.83-.82-1.3-.89-1.33.94-3.14,2.01-2.35,3.11-3.77,2.5-3.22,3.05-6.2,4.88-8.87-4.33,2.15-.06-2.55.22-2.44.15.06,1.33,3.61,2,1.11.46-1.73-5.33-2.15-2.66-7.54.25-.45,1.02.45,1.33,1.11Z"/>
                        <g>
                            <path class="cls-15"
                                  d="M94.17,282.59l-.44,2.66c-4.62-4.57-5.26-2.91-5.55-3.11-5.12-3.54,5.14.14,5.99.44Z"/>
                            <path class="cls-21"
                                  d="M90.62,266.62c.54.05.42-.42.44-.44l1.77,3.33c-2.74,1.51-1.44-1.24-2.22-2.88Z"/>
                            <path class="cls-15"
                                  d="M81.74,289.69c.18-.54.63-.81.89-1.33.41-.83.13-1.97.67-2.22.24-.11,3.69.93,1.55,3.77-1.85,2.45-1.04-.32-1.55-.67-.08-.05-1.2,1.34-1.33,1.33-.37-.03-.18-.89-.22-.89Z"/>
                            <path class="cls-15" d="M88.18,283.03c.98-.5.87,2.08,0,2.22-.72.11-.39-2.02,0-2.22Z"/>
                            <path class="cls-15" d="M86.4,283.03c1.33-.1,0,2.42-.44,2.22-.66-.3.32-2.21.44-2.22Z"/>
                            <path class="cls-21" d="M89.95,267.06c.42-.03.72,1.96,0,1.77-.94-.24-.64-1.73,0-1.77Z"/>
                        </g>
                    </g>
                    <path class="cls-10"
                          d="M96.16,333.62l1.33,4.88c.62-9.65,2.77-.19,7.76,1.11-4.39,2.12,5.23,4.57-2.88,2.88-.42-.09-4.62-2.14-4.88-2.22-.21-.06-5.24.91-2.44-1.55.89-.78,1.75,3.78,1.11-5.1Z"/>
                    <path class="cls-10"
                          d="M87.73,332.73c2.45,2.69-4.13,7.93-6.21,7.1-1.34-.53-.51-6.16,1.33-5.32.42.19-2.4,6.11,4.88-1.77Z"/>
                    <g>
                        <path class="cls-32"
                              d="M96.83,296.79c-1.52,4.14,2.64,2.52,2.88,2.66,1.1.63.48,1.95.67,2.22.3.43.67.85.89,1.33.51,1.14,1.09,2.51,1.77,3.55-.54-.06-1.3,3.02-9.54-3.11-.17,6.94,1.48,3.85,1.77,3.99,1.58.77,2.48,3.02,2.66,3.11.91.41.51-1.24.89-1.33.29-.07,2.6,2.35,5.32,2.22,1.46-.07-3.05-4.21,2-1.77-.39,3.35,1.73,1.45,1.77,3.11-1.52.06-3.11.01-4.22,1.33-9.66-4.9.52,4.21,3.55,4.88,3.7.82-.25-1.77,2.44-1.33.94,1.03,1.32,1.02,1.33,1.11.02.14-1.16,2.13-1.33,2.44-.1.17-3.27.49-.67,2.66l-5.99.22c10.05,4.1,6.24,7.52-.44.44-.65-.69.26-1.57-.22-2-1.64-1.34-3.9,3.25-4.88-.44-2.22-.79,3.6,6.89,3.99,7.1.23.12,1.84-.82,5.1.22-1.96,2.52,2.11,4.92,3.33,7.32-.8,1.42-6-3.64-7.1-6.21-1.84.13-1.91.7-3.55-.44l-.67,1.33c-7.5-5.61-2.02-2.71-10.43-3.11-3.77,2.7-8.18,5.3-12.65,3.33,4.26-8.73-.74-.06-7.99-.89-.16-.31,6.96-3.71,2.44-2.88-1.95-4.26.48-1.06,5.77-2.66,3.46-1.05,11.42-9.65,2.88-.22-.19,2.37,5.13-2.64,7.1-7.1-6.67,1.83-1.55.41.22-2.44-4.5,1.6-6.07,5.71-10.65,7.1-1.33.15-2.5-.76-4.22-.89-.34-1.25.66-1.47.89-2.22,3.62-.27,9.95-6.85,3.99-3.55.16-1.86-1.15-1.09-.44-3.11.39-1.1,6.3-5.71,4.22-1.77,1.23-.01,4.71-1.38,5.1-2.88.54-2.05-1.52.67-3.33-2-.49-.1-1.06.59-1.55.89,2.03-2.99-5.08-.88-4.44-3.99,1.99.89,2.95-1.27,5.55.44,4.32-4.36-.89,1.87,1.77,1.77.6-.02,2.25-3.51,2.66-3.55.49-.05,1.1,1.94,1.77,1.77.57-.14,1.47-5.75,3.99-5.32.4.07,5.64,5.16,6.21,5.32,6.27,1.74-7.8-11.86-10.65-4.44-2.4-1.94-3.38-.08-3.11-2.66-.8.71-1.48.84-1.55.89-.43-1.31-1-1.01-1.77-2.22,3.86-1.25,8.59-4.35,4.44-.67,2.53,2.57,3.62-2.46,4.22-2.44,2.61,7.18,3.31,2.28,3.99,2.22.23-.02,1.22,1.66,3.77,2.66Z"/>
                        <g>
                            <path class="cls-15"
                                  d="M102.15,302.56c-.3.15-.56.38-.89.44-.22-.48-.59-.9-.89-1.33.72-2.12,1.68-1.01,1.77.89Z"/>
                            <path class="cls-15"
                                  d="M75.53,303c.09-.43,6.3-5.51,6.66-5.77.07-.05.75-.18,1.55-.89-.27,2.58.71.72,3.11,2.66,2.85-7.42,16.91,6.18,10.65,4.44-.57-.16-5.81-5.26-6.21-5.32-2.52-.42-3.43,5.19-3.99,5.32-.67.16-1.29-1.82-1.77-1.77-.41.04-2.07,3.53-2.66,3.55-2.67.09,2.54-6.14-1.77-1.77-2.59-1.72-3.55.45-5.55-.44Z"/>
                            <path class="cls-15"
                                  d="M75.53,312.76c-.55.29-1.8-1.01-1.77-1.11.09-.38,5.88-4.46,6.21-4.66.49-.3,1.06-.99,1.55-.89,1.81,2.67,3.87-.05,3.33,2-.39,1.5-3.87,2.87-5.1,2.88,2.09-3.94-3.83.67-4.22,1.77Z"/>
                            <path class="cls-15"
                                  d="M71.98,319.42c.02-.05-1.16-.35-.67-.89.18-.2,4.01-2.3,4.66-2.66,5.95-3.3-.37,3.28-3.99,3.55Z"/>
                            <path class="cls-15"
                                  d="M90.39,308.77c2.28,0,7.95,9.58,7.1,4.88,10.49,7.66,11.8,11.92.44,4.44-.18-.12-2.79-3.33-3.11-3.11-.79.57,1.81,8.51-3.99,0-3.71,8-2.14,2.96-3.33-2.88.75-.42,2.37-3.33,2.88-3.33Z"/>
                            <path class="cls-15"
                                  d="M103.04,306.55c6.67.77,3.15,2.77,3.11,3.11-5.05-2.43-.53,1.7-2,1.77-2.72.13-5.03-2.29-5.32-2.22-.38.09.02,1.74-.89,1.33-.19-.08-1.08-2.34-2.66-3.11-.3-.15-1.94,2.95-1.77-3.99,8.24,6.13,9,3.04,9.54,3.11Z"/>
                            <path class="cls-15"
                                  d="M107.92,312.76c.04,1.42-.7.45-1.33,1.33-1.46,2.02.23.39,3.11,3.55-2.69-.44,1.26,2.15-2.44,1.33-3.03-.67-13.21-9.78-3.55-4.88,1.1-1.32,2.69-1.27,4.22-1.33Z"/>
                            <path class="cls-15"
                                  d="M85.07,312.32c1.22-.18,2.9,1.62.89,2.66-3.57.61-11.56,5.07-5.32-.89,3.73-.04,4.19-1.74,4.44-1.77Z"/>
                            <path class="cls-21"
                                  d="M85.51,320.75c3.16.26-9.13,10.88-3.33,9.54-1.07.54-2.88.88-3.77.22-.34-.26.56-2.67,1.11-3.33.35-.42,3.06-2,4.44-3.55.11-.12.39-2.98,1.55-2.88Z"/>
                            <path class="cls-7" d="M84.63,326.96c.35.23.24.68.22,1.11-.07,1.67-1.5,0-.22-1.11Z"/>
                            <path class="cls-32" d="M98.6,331.4c1.45-.26.5.91.22.89-.38-.04-.16-.84-.22-.89Z"/>
                        </g>
                    </g>
                </g>
                <g>
                    <path class="cls-15"
                          d="M379.91,304.33c.33,3.76,2.5,3.36,2.66,3.55.09.11-.06,1.27,0,2l1.55.67,13.98-4.44c0,3.25,0,6.51,0,9.76-3.77.37-19.39.47-10.65,3.33-.72.52-.41,1.72-.44,2.88l-1.33.89c-3.46-.21-1.91-1.2-2.44-1.33-1.24,1.4-2.82.23-3.99-.89-.31,3.12-1.42,1.25-1.55,1.33-2.48-3.21-9.98-9.88-.22-5.32-2.08-5.98,8.22,5.49,1.55-4.22,6.03-2.41-1.47-2.21-6.88-7.32-1.6,2.71-2.42.8-4.44-.44,2.11,7.64-4.68-7.23-6.66,1.33-8.4,1.05-1.81,3.01-8.43,5.77-2.07-.57,3.12-8.15.89-7.99-1.28,8.19-7.23,7.3-9.98,10.65-4.42-1.57,1.41-3.26.89-4.22-4.17,1.44-4.1.22-4.88-.22-5.15-2.91,5.22-2.95,5.77-3.11,2.33-.65,6.75-5.98,8.21-5.77.96.14.09,4.74,7.99-4.44,1.3-.36,6.79,6.17,7.54,6.21,1.35.08.99-1.64,1.33-1.77.13-.05,1.07,1.27,1.33,1.33,2.78.63,5.98-.35,8.21,1.77Z"/>
                    <path class="cls-32"
                          d="M373.26,333.62c1.3,1.51,9.23,3.6,8.87,5.1-.11.46-3.62-.65,1.77,5.32-.37.84-5.61-3.79.44,2.22-3.67-1.27-10.61-6.18-11.98-9.54-.08-.2-.64-4.41.89-3.11Z"/>
                    <path class="cls-15"
                          d="M370.15,340.71c.73,3.8-8.49-4.79-9.1-4.88-1.87-.28-3.65,4.66-5.99,2.66,1.02-1.15,4.69-7.19,5.55-7.1,2.17,2.73,8.26,7.56,9.54,9.32Z"/>
                    <path class="cls-28"
                          d="M362.61,356.24c-.31,1.93-.25,2.78-2.66,1.33-.59-13.57,1.1-24.59,2.66-11.76.16,1.32.17,9.37,0,10.43Z"/>
                    <path class="cls-32" d="M364.16,341.16l1.77,5.32c-.54.18-2.75-4.06-1.77-5.32Z"/>
                    <polygon class="cls-32"
                             points="340.2 333.17 340.42 333.84 339.76 334.06 339.54 333.84 340.2 333.17"/>
                    <path class="cls-8"
                          d="M374.15,295.9c1.1.68,2.66.34,3.55,1.55-2.25,4.88.16,3.78,2.66,5.99-.53-.04-.49.38-.44.89-2.23-2.12-5.43-1.14-8.21-1.77-.26-.06-1.2-1.38-1.33-1.33-.34.13.02,1.86-1.33,1.77-.76-.05-6.25-6.58-7.54-6.21-7.9,9.18-7.03,4.58-7.99,4.44-1.46-.21-5.88,5.12-8.21,5.77.97-2.47,2.27-3.74,1.77-6.66.12,0-.9-.03,1.77-.89.67.37.66.49,1.33,0,3.59-2.64-4.25-.47-2.22-3.55,2.03-1.08,2.81-2.62,2.66-4.88-.03-.49,1.75-2.07-1.33-1.77.22-.04-.2-1.85,3.99.22-4.09,8.71.75,3.1,1.11,3.33,1.32.84-1.49,4.2,3.55-.44.04-.03.57.78.89.44.85-.88,1.25-3.94,1.77-3.99,1-.1,1.03,6.26,5.99,5.99-3.18-11.19,5.9,7.48,3.33-2,1.33,1.48,2.58,2.1,4.22,3.11Z"/>
                    <path class="cls-21"
                          d="M374.15,286.14c.34.05,2.56.69,2.66,1.11.53,2.21-4.18,1.11-3.77,2.88-7.6-1.14.96,1.45,1.11,5.77-1.64-1.01-2.89-1.62-4.22-3.11,2.58,9.47-6.5-9.2-3.33,2-4.96.27-4.99-6.09-5.99-5.99-.52.05-.92,3.11-1.77,3.99-.32.33-.85-.48-.89-.44-5.04,4.65-2.23,1.28-3.55.44-.36-.23-5.2,5.38-1.11-3.33-4.19-2.07-3.77-.26-3.99-.22-4.24.77-1.32-.84-1.77-1.55-.19-.3-8-2.54-.44-2.44,2.99.04,7.04,1.61,8.65,1.33,6.3-1.09,2.51-8.16,11.98.89,1.05-1.2,4.75-1.56,6.43-1.33Z"/>
                    <path class="cls-15"
                          d="M367.49,279.04c2.22.02,4.7,0,6.88-.44,1.37.88-.35,1-1.11,3.11-1.35-.22-7.22,2.08-10.65-2.88.49-1.04,1.42.19,4.88.22Z"/>
                    <g>
                        <path class="cls-8"
                              d="M377.69,322.08c-3.22,1.9.72,1.38,4.22,7.1,9.65-.97,10.41,2.62,4.88,2.66-1.24,0-6.8-3.13-6.88-1.55,2.13.1,0,3.71-.22,3.77-.98.28-13.17-8.24-6.43-.44-1.53-1.31-.97,2.91-.89,3.11-1.04-1.87-.15,6.48,0,6.88.52,1.4,6.11,6.51,2.44,7.32-1.68.37-3.71-3.28-3.77-3.77-.05-.37,2.88-1.23-.89-6.43-1.27-1.76-7.37-6.58-9.54-9.32-.85-.09-4.53,5.95-5.55,7.1-.57.64-1.89,1.86-2.44.89-6.28,6.42,1.32,11.58-8.21,11.31,3.88-4.71,6.09-10.19,7.32-16.2-8.04,10.8-20.53,19.07-9.98,7.76-.94-1.2-2.15.83-1.55-1.55-1.44-.67-11.78,6.42-9.76-.89,5.71,1.15,9.35-4.64,15.09-6.66.42-2.21-3.38-.62-2.88-2.88.38-1.74,5.45-5.02,7.32-3.77,4.99-8.41,1.54-2.33,3.33-.67.66.62,3.68.33,4.44-1.77-.95-6.8,1.88,4.16,2.44-5.55.09,1.73,2.19,3.13,3.77,2,.6,6.72,3.85,5.46,3.55,3.11-.05-.4-4.75-4.52-1.55-2.44l.89-1.33c12.19,6.36-2.62-4.88-5.77-7.99l-6.21,5.32c-1.39-2.29-9.56,3.81-9.98,5.1-.29.89,2.12.38-.22,2.44-4.41,1.9-5.43,3.6-10.43,1.55l5.1-3.33c-12.4,4.86,2.5-2.49,3.77-4.88.89-1.67-1.39-1.31.44-3.55,2.75-3.35,8.7-2.46,9.98-10.65,2.24-.17-2.96,7.41-.89,7.99,6.62-2.76.03-4.71,8.43-5.77,1.97-8.57,8.77,6.31,6.66-1.33,2.02,1.24,2.84,3.15,4.44.44,5.4,5.11,12.91,4.91,6.88,7.32,6.67,9.71-3.63-1.77-1.55,4.22-9.76-4.56-2.26,2.12.22,5.32Z"/>
                        <g>
                            <path class="cls-21"
                                  d="M369.93,337.16c.36.04.86-.19,1.11.22,1.23,1.99-.74,5.16-1.11-.22Z"/>
                            <path class="cls-15"
                                  d="M366.82,312.76c2.14-.53,1.82,1.49.89,1.77-.73.22-2.14-1.46-.89-1.77Z"/>
                            <path class="cls-9"
                                  d="M352.63,335.83c1.75.35-.04,3.29-.44,3.11-.56-.25.41-2.69.44-3.11Z"/>
                            <path class="cls-32"
                                  d="M355.51,333.17c.08-.26.46-3.73,1.11-3.55,1.21.78-.47,2.51-1.11,3.55Z"/>
                            <path class="cls-32"
                                  d="M361.06,307.44c.93.4-.73,3.08-.89,3.11-1.12.19.71-3.18.89-3.11Z"/>
                            <path class="cls-32"
                                  d="M355.51,333.17c-.05.08-.11,1.09-.67,1.77-.83-1.35.64-1.68.67-1.77Z"/>
                        </g>
                    </g>
                    <g>
                        <path class="cls-32"
                              d="M367.05,263.95c-.05.04-.71.7-.89.89-2.98-2.78-4.04-1.48-.89.89v.44c-9.65-4.96-3.28.11-7.54,3.77,10.82,2.49,2.42-2.5,4.66-3.77,2.97,6.64,2.84.92,7.32,5.32.05.5-.35,1.77-.44,2.44-.04.31,1.01-.06.89.89-.11.85-2.86-.2-2.66,4.22-3.46-.03-4.39-1.26-4.88-.22,3.43,4.97,9.3,2.67,10.65,2.88,4.3.69-.22,2.85.89,4.44-1.68-.23-5.38.13-6.43,1.33-9.47-9.05-5.68-1.97-11.98-.89-1.62.28-5.66-1.29-8.65-1.33-.49-2.82.92-2.99,1.33-3.99,3.38.34,5.82-5.9,4.22.44,6.4-4.9,2.54-.08,4.44,0,.85.03,3.7-11.75,2-2.44.72,2.05,3.87-7.34-.67-4.22,1.11-4.17-1.03.37-1.77,0-.58-.29,1.94-4.29-.67-1.77-.96-3.07-2.12-2.22-3.55-3.99,11.21-1.9,3.91-4.46,3.55-4.88-.88-1.03-1.41-2.62-1.33-3.55,3.06-.32,5.63-5.07,6.88-4.88,2.2.34.5,3.67.67,4.22.68,2.29,8,.32,2.22,2.66l2.66,1.11Z"/>
                        <g>
                            <path class="cls-21"
                                  d="M365.27,266.17c1.83.94,2.11.83,2.22.89l.89.89c1.26,1.72,1.12,1.52,1.33,3.55-4.48-4.41-4.35,1.31-7.32-5.32-2.24,1.27,6.16,6.26-4.66,3.77,4.27-3.66-2.1-8.73,7.54-3.77Z"/>
                            <path class="cls-21" d="M366.16,264.84s-.22.82-.89.89c-3.15-2.37-2.1-3.66.89-.89Z"/>
                            <path class="cls-21"
                                  d="M348.41,281.26c.12-.3-.47-.6-.44-.67.25-.58,2.6.18,0-1.11.18-.09-.72.1,3.11-2.22.13-.08,1.93-.23,2.88-.89,1.65-1.13,1.15-2.29,2-3.11,2.61-2.51.08,1.49.67,1.77.74.37,2.88-4.17,1.77,0,4.54-3.12,1.39,6.26.67,4.22,1.7-9.31-1.15,2.47-2,2.44-1.89-.08,1.96-4.9-4.44,0,1.61-6.35-.83-.1-4.22-.44Z"/>
                            <path class="cls-21"
                                  d="M352.4,269.28c-.05-.06-1.27.16-.67-.44,6.43-2.98-2.71-.96,4.22-4.44.36.42,7.66,2.98-3.55,4.88Z"/>
                            <path class="cls-15"
                                  d="M360.61,257.74c2.68-.36-1.7,4.9-3.55,3.99.37-.4,3.28-3.96,3.55-3.99Z"/>
                            <path class="cls-31"
                                  d="M363.27,271.94c1.88-.06,1.88,1.34.44.89-.23-.07-.89-.76-.44-.89Z"/>
                        </g>
                    </g>
                    <path class="cls-12"
                          d="M347.97,295.9c-2.04,3.08,5.81.91,2.22,3.55-.6-1.19-1.27-.02-1.33,0-2.68.86-1.65.88-1.77.89-4.34.32-7.1-1.61-7.1-2,.02-1.28,4.13-.8,4.44-2.44,1.2,1.09,2.18.73,3.55,0Z"/>
                    <path class="cls-21"
                          d="M347.97,295.9c-1.37.73-2.35,1.09-3.55,0-2.42-2.2,5.1-3.43,6.21-4.88.15,2.26-.64,3.8-2.66,4.88Z"/>
                    <path class="cls-2" d="M350.19,299.45c-.67.49-.66.37-1.33,0,.06-.02.73-1.19,1.33,0Z"/>
                </g>
                <g>
                    <path class="cls-10"
                          d="M263.22,334.06l.22,2.66c-.81-1.82-2.58.32-3.55.44-.66.08-1.51-1.04-2.66-.89-1.17.15-3.53,2.53-2.22,3.55.3.23,2.26-.53,2.66-.44.36.08.09.85.44.89,5.29.55,4.76-1.09,5.32-.89.55.2-2.26,2.77,3.99-.89,1.24,1.31,4.42,1.86,4.88,0,1.9.38,3.65,2.51,5.1,1.77.93-.47-.05-1.51.89-1.77,1.17.99,2.03.77,2.66,1.55l-.67.67c-11.99.24-8.4,2.01-8.87,2.22-5.91-4.69-.4,9.21-5.1,6.21.81-10.3.35-4.71-2.88-7.54-6.18,1.7-2.68.37-3.55,0-.86-.37-2.33.61-3.99.44-.19-.02-.28-.93-2-.89-.68-.96-.33-5.47,0-6.21,1.52.13,3.96-.09,4.66-1.33.84,2.24.92.58,4.66.44Z"/>
                    <path class="cls-10"
                          d="M277.42,332.73c.12.15-.48,1.16,1.33.89-.19.08-.84,1.1-3.99,1.11-.89,1.08,2.64,2.48,3.11,2.88.04.03.41.86.44.89-.94.27.04,1.3-.89,1.77.67-3.96-7.84-5.27-10.43-3.11-.51-3.02-1.71.13-3.77-3.11,5.02-.18,9.2-.09,14.2-1.33Z"/>
                    <path class="cls-15"
                          d="M277.42,340.27c-1.46.74-3.2-1.39-5.1-1.77-.46,1.86-3.64,1.31-4.88,0-6.25,3.66-3.44,1.09-3.99.89-.57-.2-.04,1.43-5.32.89-.35-.04-.08-.81-.44-.89-.4-.09-2.37.67-2.66.44-1.31-1.02,1.05-3.4,2.22-3.55,1.15-.15,2,.97,2.66.89.97-.12,2.74-2.27,3.55-.44l-.22-2.66c2.07,3.24,3.27.08,3.77,3.11,2.59-2.16,11.1-.86,10.43,3.11Z"/>
                    <g>
                        <path class="cls-15"
                              d="M268.54,308.77c.04-2.56-2.62-2.4-1.77-.67.31.64,1.57.85,1.77,1.11.44.55,1,.56,1.77,1.77-2.49.21-4.74-1.25-6.66,1.11,2.99-.63,4.22-.58,7.1.22.99,1.7,3.02,4.83.44,4.44-.71-.41-.83-.54-1.11-1.33-7.76,3.07-3.03,1.45,2,2.22.71.51,2.98,1.49,2.66,2.66-2.22-.96-1.7-.73-.89.89-.13,0-.32.03-.44,0-1.4-.35-2.4-1.73-2.88-1.77-.5-.05-2.93,1.74-3.11,1.77-.89.19-.6-.94-.89-.89-8.61,1.65,5.16,1.15,7.32,2.66l1.33,1.55c-.52.71-.91.61-.89.67-5.34-.46-11.17-1.8-15.53,1.11,1.89,2.44,7.28-1.92,15.97.67.36.61,2.7,1.61,2.66,2.66-.25.18-.47-.48-.89-.44-2.23.19-3.86-.5-5.99-.44-1.24.03-1.66,1.32-1.77,1.33-.41.02,1.19-2.46-6.88.67,4.61,2.06,10.33-1.5,14.2.67.72.4.85.74,1.33,1.33-5,1.24-9.18,1.15-14.2,1.33-3.74.14-3.82,1.8-4.66-.44-.7,1.24-3.14,1.46-4.66,1.33.39-.88,2.2-2.03,3.11-2.66,1.52-1.05,4.75-.63,2.66-2.66-1.44-1.4-.92.21-3.11-.89.66-2.44,1.68-1.55,1.77-2,.08-.36-3.1.33,2.22-4.22,1.2-1.03,6.57-2.41-.89-2.22-1.02.03-3.13,1.7-2.22-.22.57-1.21,8.68-3.18,2.22-3.11,3.01-2.08-1.73-2.71,2.66-4.88-3-4.35,3.12-1.19.89-5.77,3.07-1.87,1.55-6.79,2.22-8.87.83-2.58.64,2.33,2.22,7.1.69,2.1,3.47,1.99.89,4.22Z"/>
                        <g>
                            <path class="cls-10"
                                  d="M274.31,325.18c.85,1.97.4,1.7.44,1.77-8.7-2.59-14.08,1.77-15.97-.67,4.35-2.91,10.19-1.57,15.53-1.11Z"/>
                            <path class="cls-32"
                                  d="M273.42,321.19l.44,1.77c-2.16-1.51-15.93-1.01-7.32-2.66.28-.05,0,1.08.89.89.17-.04,2.61-1.82,3.11-1.77.48.04,1.49,1.42,2.88,1.77Z"/>
                            <path class="cls-32"
                                  d="M259.67,329.62c-.21-.18-1.75.56-1.77.67-.23,1,2.66.13,1.77-.67,2.08,2.03-1.14,1.61-2.66,2.66.93-3.67-1.51.39-.44-3.55,2.19,1.1,1.67-.51,3.11.89Z"/>
                            <path class="cls-32"
                                  d="M270.32,310.99c.04.06-.1.4.44,1.33-2.88-.8-4.11-.85-7.1-.22,1.91-2.36,4.16-.9,6.66-1.11Z"/>
                            <path class="cls-32"
                                  d="M271.21,316.75c.05.03.78.81.89.89-5.03-.77-9.76.85-2-2.22.28.79.4.92,1.11,1.33Z"/>
                            <path class="cls-32" d="M260.56,322.52l-.89-2.22c7.45-.2,2.09,1.19.89,2.22Z"/>
                            <path class="cls-32"
                                  d="M268.54,308.77v.44c-.21-.26-1.46-.47-1.77-1.11-.84-1.74,1.81-1.9,1.77.67Z"/>
                            <path class="cls-3" d="M274.75,320.3c-.11.41-.45.86-.89.89-.81-1.62-1.33-1.84.89-.89Z"/>
                            <path class="cls-32"
                                  d="M276.53,329.18l-.44,2.22c-3.87-2.17-9.59,1.39-14.2-.67,8.07-3.12,6.47-.64,6.88-.67.11,0,.54-1.3,1.77-1.33,2.13-.06,3.76.63,5.99.44Z"/>
                            <path class="cls-32"
                                  d="M265.22,313.2c2.71-.88,9.97,1.37-.44.89-.45-.12.21-.81.44-.89Z"/>
                            <path class="cls-32"
                                  d="M262.55,313.65c1.78-.39.97,1.25-.89,1.33-.45-.23.8-1.31.89-1.33Z"/>
                            <path class="cls-19" d="M265.22,306.99c.26-.08.56-.04.67.22.69,1.7-3.13.51-.67-.22Z"/>
                            <path class="cls-17"
                                  d="M259.67,329.62c.89.79-2.01,1.66-1.77.67.03-.11,1.57-.85,1.77-.67Z"/>
                        </g>
                    </g>
                </g>
                <g>
                    <path class="cls-22"
                          d="M343.53,314.54c-1.84,2.23.44,1.88-.44,3.55-.94-.77-1.89.5-3.11.89-.06-.21-.82-.88-.89-.89,2.49-3.77-9.47-2.47-14.2-2.88-.98-1.44,8.51-1.26,9.1-2.88.64,1.74,2.47.41,3.77-.67.03-.03-.65-.51-.44-.67.1-.07,1.03.27,2.22-.89.78.44.72,1.66,4.88.22.52.96-5.31,2.64-.89,4.22Z"/>
                    <path class="cls-32"
                          d="M339.09,318.09c.06,0,.82.68.89.89-5.84,1.84-11.85,2.08-17.97,2.22-1,.64-3.16,1.56-4.22,1.77-3.17-2.41,1.76-2.11.89-3.33-.74-1.03-4.84,2.07-1.77-2,7.9.09.29,2.06,3.77,2.66.12.02.76-.9.89-.89,1.29.18-.65.98,1.33.89,3.06-.14,9.18-2.15,9.76-2.22.32-.04,5.96-.03,6.43,0Z"/>
                    <path class="cls-2" d="M330,324.74c3.29-.19-.79,1.95-1.11,1.11-.18-.48,1.03-1.1,1.11-1.11Z"/>
                    <path class="cls-30" d="M332.66,324.74c.71,1.13-.14,2.64-.44.89-.1-.6.09-.55.44-.89Z"/>
                    <path class="cls-15"
                          d="M329.77,290.13l-3.55,3.99c-.56-1.97,2.24-4.63,2.22-8.87.36,1.64.92,3.27,1.33,4.88Z"/>
                    <path class="cls-33"
                          d="M329.33,293.68c-.4.11-1.04-.24-3.11,1.33-.03-.28.07-.66,0-.89l3.55-3.99c.45,1.74,2.24,5.78.22,2.66-.95-.18-.61.87-.67.89Z"/>
                    <g>
                        <path class="cls-15"
                              d="M329.33,293.68c1.13.79,2.64,1.36,2.22,3.11-1.83-2.52-5.54.12-5.32.67,1.94-.7,3.48-.76,5.32.22,1.26.67,4.35,5.83,3.77,6.21-.68.45-3.25-1.89-3.33.22,10.84,4.38-5.35,4.05,5.32,6.88-.21.16.47.64.44.67-1.3,1.07-3.13,2.41-3.77.67-.59,1.62-10.07,1.44-9.1,2.88,4.73.41,16.69-.88,14.2,2.88-.48-.03-6.11-.04-6.43,0-.58.06-6.71,2.07-9.76,2.22-1.98.09-.04-.71-1.33-.89-.13-.02-.77.91-.89.89-3.48-.6,4.13-2.57-3.77-2.66,1.89-2.51,9.43-2.56,6.43-3.99-.21-.1-3.93,2.99-1.55-.67-3.31-1.21-.84-1.68-.89-2.44,1.04-1.17,11.22.42,11.54-1.11-1.34-1.91-7.08.47-11.98-1.11.13-.74,2.05-5.61,3.11-5.99l-.89-1.11c3.78-2.66.66-4.01,3.55-6.21,2.07-1.58,2.7-1.22,3.11-1.33Z"/>
                        <g>
                            <path class="cls-32"
                                  d="M320.9,310.54c-.02-.28-.69-.74-.44-2.22,4.9,1.58,10.64-.8,11.98,1.11-.31,1.53-10.49-.06-11.54,1.11Z"/>
                            <path class="cls-10"
                                  d="M331.55,296.79c-.06.25.03.6,0,.89-1.85-.98-3.39-.92-5.32-.22-.22-.55,3.5-3.19,5.32-.67Z"/>
                            <path class="cls-32"
                                  d="M327.33,301.22c8.89-.76,5.79,2.46-1.55.67.57-.03,1.47-.66,1.55-.67Z"/>
                            <path class="cls-32"
                                  d="M327.78,298.56c.93.14,2.36-.2,3.11,0,3.82,1.02-.93,3.02-3.11,0Z"/>
                            <path class="cls-10"
                                  d="M325.12,304.33c1.12.2.21,1.27-.44,1.33-2.49.22-.97-1.58.44-1.33Z"/>
                            <path class="cls-36"
                                  d="M327.78,303c.38,1.45,1.5,1.34,1.55,1.55.22.91-2.4.48-1.55-1.55Z"/>
                            <path class="cls-26" d="M324.67,301.22c.67-.24.98.65.44.89-.65.29-.98-.69-.44-.89Z"/>
                        </g>
                    </g>
                </g>
                <g>
                    <path class="cls-10" d="M296.72,333.17c.83,2.4,1.6.39,1.77.44,2.17.66-1.62,5.62-1.77-.44Z"/>
                    <path class="cls-15"
                          d="M295.61,306.11c-.43-2.66,0-4.41-.22-4.44-.15.59-5.68.93-5.99.89-.48-.07-1.48-.86-2.22-1.11l.89-.67c.06.02,1.06,0,1.33,0,.22,0,4.01-.82,4.22-.89,1.47-.49,5.48-5.93,3.77,5.55-.36.58-.55-.62-1.77.67Z"/>
                    <path class="cls-15"
                          d="M289.4,311.43c-1.39.9-2.01,1.62-3.99,1.77-.55-1.4-1.97-1.2-1.77-2,.09-.35,1.54-.54,1.77-.67,1.91-1.03,4.41-.94,5.99-2.66.89,1.62-1.6,1.34-2,3.55Z"/>
                    <path class="cls-32"
                          d="M289.4,313.2c-1.01.53-2.5.72-3.55,1.33-.78,0-.29-.93-.44-1.33,1.98-.16,2.6-.87,3.99-1.77-.06.34-.06,1.67,0,1.77Z"/>
                    <g>
                        <path class="cls-32"
                              d="M308.03,319.86c-.07.11-1.66,1.73-1.77,1.77-.27.09-4.19-.05-5.77-.67,1.79,4.35,14.5,4.77.44,3.99.32,1.75,6.76,3.89,6.66,4.88-.13,1.28-1.38.27-1.77.89-.11.18,2.91,2.45,1.11,2.44-6.59-6.46-10.11-4.37-3.55,2.22,2.37-1.4.32,1.82-1.77,1.33-.93-.22-2.82-7.51-4.88-7.99-1.8-.41-6.03,4.94-2.88,5.1-3.67,4.23-2.56,1.2-3.33.67-.03-.02-.49.64-.67.44-.63-.71.19-.55,0-.89-1.5-2.64,1.12-3.23-5.32-3.55.06-.23-.03-.6,0-.89.45,0,3.1-2.75,4.66,0,5.01-.97,6.91-10.98.89-3.55-2.16.38-6.85.29-7.76.44,2.58-2.55-.8-1.21-.89-1.55-.02-.09.63-.22.89-1.55,1.29-1,1.32.89,1.55.89,1.33-.03,3.34-2.22,3.55-2.22,1.11.03-1.16,5.14,7.54-2.22-.19,9.41,1.82,2.33,2.22,2.22.42-.12,1.02,2.69,1.77,2.66.11,0,1.54-1.44,1.55-1.55.12-.76-1.98-4.89-5.1-5.99-4.28,5.8-5.44,3.24-9.1,3.99.12-.54.56-.93.89-1.33,2.68,1.53,6.84-6.87,7.32-7.1.88-.42.5,1.12.89,1.33.93.51.28-1.51,1.33-1.33.31.05.44,2.34,4.88,3.55.06,2.41,3.73,4.47,4.44,4.44,1.24-.05-.71-3.19,2-.89Z"/>
                        <g>
                            <path class="cls-15"
                                  d="M282.3,323.41c.02-.09-1.77.08-.22-.89.19-.12,3.73-1.23,4.22-1.33,3.66-.76,4.81,1.81,9.1-3.99,3.13,1.11,5.22,5.23,5.1,5.99-.02.11-1.44,1.55-1.55,1.55-.75.03-1.36-2.78-1.77-2.66-.4.11-2.41,7.19-2.22-2.22-8.7,7.35-6.44,2.25-7.54,2.22-.21,0-2.22,2.19-3.55,2.22-.23,0-.27-1.89-1.55-.89Z"/>
                            <path class="cls-15"
                                  d="M284.52,329.62c-1.96-.04-4.44-1.57-6.66-.89.3-.21-1.41-1.23,4.44-2.22.92-.15,5.6-.07,7.76-.44,6.02-7.43,4.13,2.58-.89,3.55-1.56-2.75-4.21,0-4.66,0Z"/>
                            <path class="cls-2" d="M291.84,330.51c.36.32.36,1.01,0,1.33-.06.05-1.14-.71,0-1.33Z"/>
                            <polygon class="cls-15"
                                     points="290.51 323.85 291.17 324.08 290.51 324.74 290.28 324.52 290.51 323.85"/>
                            <polygon class="cls-21"
                                     points="290.51 319.42 291.17 319.64 290.51 320.3 290.28 320.08 290.51 319.42"/>
                        </g>
                    </g>
                    <path class="cls-15"
                          d="M302.26,298.56c-1.37,1.93-5.21-2.2-5.55-2.22-.25-.02-1.18,1.35-4.66,1.33.05-.08.44-1.68.44-1.77.67-.35,1.15-.9,1.77-1.33.45,2.68,1.47,2.07.89-.44.9-.18,2.56-.41,3.11.44-1.15-.07-1.06.17-.22.89.34.07.18-.88.22-.89.8-.18.08,1.16,1.33-.44.69-.88,1.58-.51,0-3.11.27.13.8-1.14,1.77.22-1.51,5.69.75,6.07.89,7.32Z"/>
                    <path class="cls-10"
                          d="M298.72,286.58c-2.44-2.54-3.18-.67.44,1.77-.35.9-2.17-.06-.89,1.77-.16-.07-1.23.2-2-1.77-.54.71-1.49.63-2,.89,1.31-1.6-5.51-2.14.44-3.99-4.03,2.5.45,1.94.89,1.11.33-.64-.86-1.04-.89-1.11-.46-1.26-1.01-.81-.89-2.22.83.28,3.52-.11,3.55-.89.61,1.52,1.02,2.83,1.33,4.44Z"/>
                    <path class="cls-32"
                          d="M299.6,294.13c-1.25,1.6-.53.26-1.33.44-.55-.85-2.2-.62-3.11-.44-.9.18-.34.07-.89.44-.63.43-1.11.98-1.77,1.33,0-.17-.31.37-1.33-3.11.62.44,1.15.14,2.22,0,.17-.02,2.27,1.28.89-.89,2.14-3.09,2.29-1.26,5.32,2.22Z"/>
                    <path class="cls-15"
                          d="M298.27,290.13c.12.05,1.17.81,1.33.89,1.58,2.59.69,2.22,0,3.11-3.04-3.48-3.18-5.31-5.32-2.22-.04.05-.81.19-.89.89-1.07.14-1.6.44-2.22,0-.02-.05-.38.02-.89-.67,2.71-1.11,3.76-2.77,3.99-2.88.5-.26,1.45-.17,2-.89.77,1.97,1.83,1.7,2,1.77Z"/>
                    <path class="cls-15"
                          d="M297.38,282.15c-.03.78-2.71,1.17-3.55.89.04-.4,2.12-2.79,2-5.32,0,2.53.96,2.96,1.55,4.44Z"/>
                    <path class="cls-15" d="M298.72,286.58c.02.12,1.19-.17.44,1.77-3.63-2.45-2.88-4.32-.44-1.77Z"/>
                    <g>
                        <path class="cls-15"
                              d="M306.26,315.42c2.08,1.02,3.12,2.48,1.77,4.44-2.7-2.3-.75.84-2,.89-.71.03-4.37-2.03-4.44-4.44-4.44-1.21-4.57-3.5-4.88-3.55-1.06-.17-.41,1.84-1.33,1.33-.38-.21,0-1.75-.89-1.33-.48.23-4.64,8.63-7.32,7.1,3.57-4.38,4.02-5.59.44-2.22.14-2.94-7.93.48-1.77-3.11,1.05-.61,2.54-.81,3.55-1.33,1.39,2.56,4.37-1.25,3.99-2-.78-1.54-3.27,1.62-3.99,2-.06-.1-.06-1.44,0-1.77,1.94-1.26,4.59-3.62,6.21-5.32.1.62-.07,1.35,0,2,2.67.19,5.31,4.11,7.76,7.32,1.26.6,2.72-.08,2.88,0Z"/>
                        <path class="cls-32"
                              d="M287.18,319.86c-1.11-.64-.79-1.06.44-2.22,3.57-3.37,3.13-2.16-.44,2.22Z"/>
                        <path class="cls-32" d="M289.4,313.2c.72-.38,3.21-3.54,3.99-2,.38.75-2.6,4.56-3.99,2Z"/>
                        <path class="cls-32" d="M298.49,312.76c.67-.24.98.65.44.89-.65.29-.98-.69-.44-.89Z"/>
                    </g>
                    <g>
                        <path class="cls-32"
                              d="M295.61,306.11c-1.62,1.7-4.27,4.06-6.21,5.32.39-2.21,2.89-1.93,2-3.55-1.58,1.72-4.08,1.64-5.99,2.66l1.77-2.66c3.42,1.54,10.59-5.78,2.22-2.66.09-1.56,1.85-1.42,0-2.66.31.05,5.84-.29,5.99-.89.22.02-.21,1.77.22,4.44Z"/>
                        <path class="cls-15"
                              d="M287.18,307.88c-2.83-1.28.57-2.05,2.22-2.66,8.37-3.12,1.21,4.21-2.22,2.66Z"/>
                        <polygon class="cls-17"
                                 points="294.5 305.22 294.72 305.88 294.06 306.11 293.83 305.88 294.5 305.22"/>
                    </g>
                    <g>
                        <path class="cls-32"
                              d="M302.26,298.56c.2,1.79-1.2.97-.89,2.66-1.38-.79-2.31-1.87-2.44-1.77-.38,5.35,3.95,2.73,5.99,7.99.17.44-.65.63.44,3.11l-5.55-1.33-.22.67c.09.43,6.26,4.23,6.66,4.22v1.33c-.16-.08-1.62.6-2.88,0-2.45-3.22-5.09-7.13-7.76-7.32-.07-.65.1-1.37,0-2,1.23-1.29,1.41-.09,1.77-.67,1.71-11.48-2.3-6.03-3.77-5.55-.2.07-4,.89-4.22.89-.55-1.75,2.06-2.11,2.66-3.11,3.48.02,4.41-1.35,4.66-1.33.34.02,4.18,4.15,5.55,2.22Z"/>
                        <path class="cls-15"
                              d="M301.38,301.22c3.24,1.86,2.42,2.1,4.44,5.32-.11.14.38,1.09-.89.89-2.04-5.26-6.37-2.63-5.99-7.99.13-.1,1.06.98,2.44,1.77Z"/>
                        <path class="cls-15"
                              d="M305.37,310.54c.49,1.1-.76.85,2.66,2.44,0,.19-1.67,1.11-1.77,1.11-.39.01-6.57-3.78-6.66-4.22l.22-.67,5.55,1.33Z"/>
                        <path class="cls-15"
                              d="M298.94,305.22c.08-.11,2.54-.04,2.66,0,8.08,2.81-5.11,3.43-2.66,0Z"/>
                        <polygon class="cls-21"
                                 points="305.15 314.09 305.59 314.54 305.59 314.98 305.15 314.98 305.15 314.09"/>
                    </g>
                    <path class="cls-29" d="M295.17,294.13c.59,2.51-.43,3.13-.89.44.55-.38-.02-.26.89-.44Z"/>
                    <path class="cls-32" d="M298.27,294.57s.12.96-.22.89c-.84-.72-.93-.95.22-.89Z"/>
                    <path class="cls-15" d="M294.72,285.25c.02.07,1.22.47.89,1.11-.44.83-4.91,1.39-.89-1.11Z"/>
                    <path class="cls-33" d="M293.39,292.79c.08-.69.85-.84.89-.89,1.38,2.17-.71.86-.89.89Z"/>
                </g>
            </g>
        </g>
    </g>
</svg>