<?xml version="1.0" encoding="UTF-8"?>
<svg xmlns="http://www.w3.org/2000/svg" version="1.1" viewBox="0 0 64 64">
  <defs>
    <style>
      .cls-1 {
        fill: #fff;
      }
    </style>
  </defs>

  <g>
    <g id="Calque_1">
      <g>
        <path class="cls-1" d="M64,64H0V0h64v64ZM61.32,32.04c.03-11.75-9.45-21.27-21.24-21.33-11.73-.06-21.29,9.42-21.36,21.21-.07,11.79,9.52,21.41,21.31,21.39,11.79-.02,21.27-9.49,21.3-21.28ZM18.52,48c-.98-1.74-1.85-3.33-2.77-4.88-.13-.22-.53-.39-.81-.39-3.24-.02-6.48-.04-9.72,0-1.4.02-2.49,1.22-2.5,2.59-.01,1.42,1.11,2.65,2.57,2.66,4.36.03,8.72.01,13.23.01ZM18.54,16.02c-2.74,0-5.35-.05-7.95.02-1.46.04-2.59,1.32-2.56,2.69.03,1.4,1.16,2.53,2.67,2.58,1.37.04,2.74.05,4.11,0,.34-.01.83-.22.99-.49.93-1.51,1.77-3.07,2.75-4.79ZM13.4,29.38c-1.94,0-3.85-.09-5.75.03-1.3.08-2.28,1.34-2.3,2.56-.02,1.21.96,2.55,2.22,2.63,1.93.13,3.88.03,5.83.03v-5.26Z"/>
        <path d="M61.32,32.04c-.03,11.79-9.5,21.25-21.3,21.28-11.79.02-21.38-9.6-21.31-21.39.07-11.79,9.63-21.28,21.36-21.21,11.8.06,21.27,9.57,21.24,21.33ZM56,32.07c.02-8.83-7.09-16.01-15.9-16.05-8.86-.04-16.08,7.15-16.08,16.01,0,8.81,7.17,15.97,15.98,15.97,8.84,0,15.99-7.11,16.01-15.93Z"/>
        <path d="M18.52,48c-4.51,0-8.87.02-13.23-.01-1.46-.01-2.58-1.24-2.57-2.66,0-1.37,1.09-2.57,2.5-2.59,3.24-.05,6.48-.03,9.72,0,.28,0,.68.17.81.39.93,1.56,1.8,3.15,2.77,4.88Z"/>
        <path d="M18.54,16.02c-.97,1.72-1.82,3.28-2.75,4.79-.17.27-.65.48-.99.49-1.37.05-2.74.05-4.11,0-1.5-.05-2.64-1.18-2.67-2.58-.03-1.38,1.1-2.66,2.56-2.69,2.6-.06,5.21-.02,7.95-.02Z"/>
        <path d="M13.4,29.38v5.26c-1.95,0-3.9.1-5.83-.03-1.26-.09-2.24-1.42-2.22-2.63.02-1.22,1.01-2.48,2.3-2.56,1.9-.12,3.8-.03,5.75-.03Z"/>
        <path class="cls-1" d="M56,32.07c-.02,8.82-7.17,15.94-16.01,15.93-8.81,0-15.98-7.16-15.98-15.97,0-8.86,7.22-16.05,16.08-16.01,8.81.04,15.92,7.22,15.9,16.05ZM41.32,21.33c-1.13,0-2.09.04-3.03-.01-.8-.05-.99.31-.97,1.03.04,1.92.22,3.86-.03,5.74-.48,3.59.64,6.31,3.52,8.51,1.43,1.09,2.56,2.56,3.78,3.81,1.07-1.03,1.96-1.89,2.92-2.81-1.79-1.8-3.62-3.55-5.35-5.4-.45-.48-.78-1.27-.8-1.93-.09-2.91-.04-5.82-.04-8.94Z"/>
        <path d="M41.32,21.33c0,3.12-.05,6.03.04,8.94.02.66.35,1.45.8,1.93,1.72,1.85,3.55,3.61,5.35,5.4-.96.92-1.85,1.78-2.92,2.81-1.22-1.25-2.36-2.72-3.78-3.81-2.88-2.2-4-4.92-3.52-8.51.25-1.88.07-3.83.03-5.74-.01-.73.17-1.08.97-1.03.95.05,1.9.01,3.03.01Z"/>
      </g>
    </g>
  </g>
</svg>