<?xml version="1.0" encoding="UTF-8"?>
<svg xmlns="http://www.w3.org/2000/svg" version="1.1" viewBox="0 0 64 64">
  <defs>
    <style>
      .cls-1 {
        fill: #fff;
      }
    </style>
  </defs>

  <g>
    <g id="Calque_1">
      <g>
        <path class="cls-1" d="M0,64C0,42.67,0,21.33,0,0,21.33,0,42.67,0,64,0v64c-21.33,0-42.67,0-64,0ZM8,56c3.02,0,5.85-.04,8.68.02,1.02.02,1.76-.25,2.51-1.01,8.12-8.25,16.28-16.47,24.44-24.68,1.28-1.29,2.65-2.5,4.22-3.97-3.66-3.41-7.06-6.58-10.52-9.8.17-.1.09-.07.03-.01-9.63,9.63-19.27,19.26-28.89,28.9-.22.22-.45.55-.45.83-.03,3.2-.02,6.4-.02,9.74ZM18.73,26.66v-7.99h7.89v-5.35h-7.94v-8c-1.46,0-2.75.06-4.02-.02-1.02-.06-1.39.23-1.35,1.3.08,2.19.02,4.39.02,6.65-.55.03-.96.06-1.36.06-1.87,0-3.75-.03-5.62.03-.34.01-.95.35-.96.57-.08,1.56-.04,3.13-.04,4.82h8.04v7.92h5.35ZM40.71,13.52c3.35,3.35,6.69,6.69,10.1,10.1,1.5-1.69,3.11-3.42,4.63-5.24.9-1.08.81-2.32-.21-3.39-2.02-2.1-4.07-4.16-6.17-6.17-1.17-1.12-2.5-1.13-3.68-.01-1.63,1.54-3.16,3.18-4.67,4.71Z"/>
        <path d="M8,56c0-3.34-.01-6.54.02-9.74,0-.28.23-.61.45-.83,9.62-9.64,19.26-19.27,28.89-28.9.06-.06.14-.08-.03.01,3.46,3.22,6.86,6.4,10.52,9.8-1.57,1.48-2.94,2.68-4.22,3.97-8.16,8.21-16.32,16.43-24.44,24.68-.75.76-1.48,1.03-2.51,1.01-2.83-.06-5.66-.02-8.68-.02Z"/>
        <path d="M18.73,26.66h-5.35v-7.92H5.34c0-1.69-.04-3.25.04-4.82.01-.21.62-.56.96-.57,1.87-.06,3.75-.02,5.62-.03.41,0,.81-.04,1.36-.06,0-2.26.06-4.46-.02-6.65-.04-1.07.33-1.37,1.35-1.3,1.28.08,2.57.02,4.02.02v8h7.94v5.35h-7.89v7.99Z"/>
        <path d="M40.71,13.52c1.51-1.53,3.04-3.17,4.67-4.71,1.18-1.12,2.51-1.11,3.68.01,2.1,2.02,4.15,4.08,6.17,6.17,1.03,1.07,1.11,2.31.21,3.39-1.52,1.81-3.13,3.55-4.63,5.24-3.41-3.41-6.75-6.75-10.1-10.1Z"/>
      </g>
    </g>
  </g>
</svg>