<?xml version="1.0" encoding="UTF-8"?>
<svg xmlns="http://www.w3.org/2000/svg" version="1.1" viewBox="0 0 64 64">
  <defs>
    <style>
      .cls-1 {
        fill: #fff;
      }
    </style>
  </defs>
  <!-- Generator: Adobe Illustrator 28.7.1, SVG Export Plug-In . SVG Version: 1.2.0 Build 142)  -->
  <g>
    <g id="Calque_1">
      <g>
        <path class="cls-1" d="M0,0c21.33,0,42.67,0,64,0,0,21.33,0,42.67,0,64-21.33,0-42.67,0-64,0C0,42.67,0,21.33,0,0ZM26.74,37.35v15.86h10.59c0-4.94.03-9.77-.02-14.6-.01-1.06.33-1.32,1.34-1.31,4.41.05,8.83.02,13.25.02.44,0,.88,0,1.36,0v-10.61h-15.93v-15.94h-10.65v15.96h-15.86v10.61h15.92Z"/>
        <path d="M26.74,37.35h-15.92v-10.61h15.86v-15.96h10.65v15.94h15.93v10.61c-.48,0-.92,0-1.36,0-4.42,0-8.83.03-13.25-.02-1.02-.01-1.36.25-1.34,1.31.05,4.83.02,9.66.02,14.6h-10.59v-15.86Z"/>
      </g>
    </g>
  </g>
</svg>