<?xml version="1.0" encoding="UTF-8"?>
<svg xmlns="http://www.w3.org/2000/svg" version="1.1" viewBox="0 0 64 64">
  <defs>
    <style>
      .cls-1 {
        fill: #fff;
      }
    </style>
  </defs>
  <!-- Generator: Adobe Illustrator 28.7.1, SVG Export Plug-In . SVG Version: 1.2.0 Build 142)  -->
  <g>
    <g id="Calque_1">
      <g id="Calque_1-2" data-name="Calque_1">
        <g>
          <path class="cls-1" d="M64,64H0V0h64v64ZM18.8,21.8c0-.4.1-.6.2-.9,1.8-7.1,8.6-11.4,15.7-10,5.9,1.2,10.3,6.4,10.5,12.4v3.4h5.6c2.3.1,4.2,1.6,4.9,3.8.7,2.3,0,4.2-2.4,6-1.5,1.2-1.8,2.5-.9,3.8,1,1.4,2.5,1.6,4.1.5,3.8-2.5,5.6-7,4.5-11.4-1-4.3-4.8-7.6-9.2-8-.8,0-1.6,0-2.5-.1-.4-4-1.9-7.6-4.7-10.5-8.3-8.8-22.4-6.8-28,4-.4.8-.8,1.2-1.7,1.2-9.7.9-15.2,11.3-10.5,19.8,1.2,2.1,2.8,3.8,4.9,5,1.3.7,2.8.3,3.6-.9.7-1.1.4-2.6-.8-3.5-.3-.2-.6-.4-.8-.6-4.8-3.4-4.3-10.6.8-13.5,2.1-1.2,4.3-1.2,6.6-.6l.1.1ZM33.9,31.9c-1.2,0-2.2.8-2.6,2.1-1.8,6.7-3.6,13.4-5.4,20.1-.5,1.7.3,3.1,1.8,3.6,1.5.4,2.8-.4,3.3-2.2.4-1.5.8-3,1.2-4.6,1.4-5.1,2.7-10.1,4.1-15.2.6-2.2-.5-3.9-2.5-3.9l.1.1ZM17.2,47.1c0,1.6.9,2.7,2.2,2.9,1.4.2,2.6-.5,3-2,1.1-4.1,2.2-8.3,3.3-12.4.5-1.7-.3-3.2-1.8-3.6s-2.9.4-3.3,2.2c-1,3.7-2,7.5-3,11.2-.2.7-.4,1.4-.5,1.8l.1-.1ZM44.2,31.9c-.8,0-1.7.6-2,1.7-1.3,4.5-2.5,9-3.6,13.5-.4,1.4.8,2.7,2.2,2.9s2.5-.6,2.9-2.1c.9-3.3,1.8-6.7,2.7-10,.2-.9.5-1.8.7-2.6.4-1.9-.8-3.3-3-3.4h.1Z"/>
          <path d="M18.8,21.8c-2.4-.6-4.6-.6-6.6.6-5.2,2.9-5.6,10-.8,13.5.3.2.6.4.8.6,1.2.9,1.5,2.4.8,3.5-.8,1.2-2.3,1.6-3.6.9-2.1-1.2-3.8-2.9-4.9-5C-.2,27.4,5.4,17,15,16.1c1,0,1.3-.5,1.7-1.2,5.6-10.8,19.7-12.8,28-4,2.8,2.9,4.3,6.4,4.7,10.5.9,0,1.7,0,2.5.1,4.4.5,8.1,3.7,9.2,8,1.1,4.4-.7,9-4.5,11.4-1.6,1-3.1.8-4.1-.5-.9-1.3-.6-2.6.9-3.8,2.3-1.8,3.1-3.7,2.4-6-.7-2.2-2.5-3.7-4.9-3.8h-5.6v-3.4c-.2-6-4.7-11.2-10.5-12.4-7.2-1.4-14,2.9-15.7,10,0,.2-.1.5-.2.9l-.1-.1Z"/>
          <path d="M33.9,31.9c2,0,3.1,1.6,2.5,3.9-1.3,5.1-2.7,10.1-4.1,15.2-.4,1.5-.8,3.1-1.2,4.6-.5,1.7-1.9,2.6-3.3,2.2-1.5-.4-2.3-1.9-1.8-3.6,1.8-6.7,3.6-13.4,5.4-20.1.4-1.4,1.3-2.1,2.6-2.1l-.1-.1Z"/>
          <path d="M17.2,47.1c.1-.4.3-1.1.5-1.8,1-3.7,2-7.5,3-11.2.5-1.7,1.8-2.6,3.3-2.2s2.2,1.9,1.8,3.6c-1.1,4.1-2.2,8.3-3.3,12.4-.4,1.5-1.6,2.2-3,2-1.3-.2-2.2-1.3-2.2-2.9l-.1.1Z"/>
          <path d="M44.2,31.9c2.2,0,3.3,1.5,3,3.4-.2.9-.5,1.8-.7,2.6-.9,3.3-1.8,6.7-2.7,10-.4,1.5-1.5,2.3-2.9,2.1-1.5-.2-2.6-1.5-2.2-2.9,1.1-4.5,2.3-9,3.6-13.5.3-1.1,1.3-1.7,2-1.7h-.1Z"/>
        </g>
      </g>
    </g>
  </g>
</svg>