<?xml version="1.0" encoding="UTF-8"?>
<svg xmlns="http://www.w3.org/2000/svg" version="1.1" viewBox="0 0 59.9 59.8">
  <defs>
    <style>
      .cls-1 {
        fill: #fff;
      }
    </style>
  </defs>

  <g>
    <g id="Calque_1">
      <g>
        <path class="cls-1" d="M-2.1-2.1c21.3,0,42.7,0,64,0,0,21.3,0,42.7,0,64-21.3,0-42.7,0-64,0,0-21.3,0-42.7,0-64ZM14.3,35.3c-.3,0-.9.1-1.5.1-3.9.3-7.6,3.3-8.9,7.2-1.3,3.8,0,8.5,3,11.1,2.3,2,4.9,2.8,7.9,2.8,10.8,0,21.6,0,32.4,0,.7,0,1.5,0,2.2-.1,4.2-.5,7.4-4.1,7.1-8.1-.3-4.6-3.7-7.7-8.2-7.6-.8,0-1.5.2-2.3.2,0-.2,0-.3,0-.5-.1-4.5-1.7-8.2-4.9-11.4-.4-.4-.5-1.2-.5-1.8-.1-1.4,0-2.9-.2-4.3-1.6-7.7-8.4-12.5-16.2-11.5-8,.9-14,9.3-12.2,17.1.5,2.3,1.6,4.4,2.5,6.7ZM45.4,19.7c.3,2.9.5,5.8.8,8.8,1.6-1.7,3.1-3.4,4.8-5.2-2-1.3-3.8-2.4-5.6-3.5ZM.9,28.6c2,1.3,3.9,2.5,5.6,3.5-.3-3-.5-5.9-.8-8.8-1.5,1.6-3.1,3.4-4.8,5.2ZM30.4,6c2.7,1.3,5.3,2.5,8,3.7-.7-2.2-1.4-4.4-2.1-6.8-2.1,1.1-4,2.1-5.8,3ZM11.1,12c2.3-1.6,4.7-3.3,7-4.9-1.8-.4-3.8-.9-5.9-1.4-.7-.2-1.1,0-1.1.9,0,1.9,0,3.7,0,5.4Z"/>
        <path d="M14.3,35.3c-.9-2.4-2-4.5-2.5-6.7-1.8-7.8,4.2-16.1,12.2-17.1,7.8-.9,14.7,3.9,16.2,11.5.3,1.4.1,2.9.2,4.3,0,.6.2,1.4.5,1.8,3.1,3.2,4.8,7,4.9,11.4,0,.1,0,.2,0,.5.8,0,1.5-.2,2.3-.2,4.5-.1,7.9,3,8.2,7.6.3,4-2.9,7.5-7.1,8.1-.7,0-1.5.1-2.2.1-10.8,0-21.6,0-32.4,0-3,0-5.6-.8-7.9-2.8-2.9-2.6-4.2-7.2-3-11.1,1.3-3.9,5-6.9,8.9-7.2.6,0,1.1-.1,1.5-.1ZM40.9,45.8c-.1-2.6,0-4.9-.4-7.2-1-6.7-9-10.8-15.1-7.8-3.5,1.8-5.6,4.6-6.1,8.5-.1.9-.4,1.2-1.4,1.2-1.4,0-2.8,0-4.2,0-2.6,0-4.8,2.1-5.1,4.5-.4,2.7,1.1,5.2,3.6,5.9,1,.3,2,.4,3.1.4,10.7,0,21.3,0,32,0,.5,0,1.1,0,1.6,0,1.7-.2,2.7-1.7,2.3-3.3-.3-1.2-1.4-2.1-2.9-2.1-2.5,0-5,0-7.5,0ZM17.8,30.2c4.8-5.1,10.6-6.6,17.3-4.8.5-2.8-1.9-6.5-5.2-8.1-3.8-1.8-8.4-.8-11.2,2.5-2.7,3.2-2.7,8-.9,10.3Z"/>
        <path d="M45.4,19.7c1.8,1.1,3.6,2.3,5.6,3.5-1.7,1.8-3.2,3.5-4.8,5.2-.3-2.9-.5-5.9-.8-8.8Z"/>
        <path d="M.9,28.6c1.7-1.9,3.3-3.6,4.8-5.2.3,2.8.5,5.8.8,8.8-1.7-1.1-3.5-2.2-5.6-3.5Z"/>
        <path d="M30.4,6c1.8-.9,3.8-2,5.8-3,.7,2.4,1.5,4.6,2.1,6.8-2.7-1.2-5.3-2.5-8-3.7Z"/>
        <path d="M11.1,12c0-1.7,0-3.6,0-5.4,0-.8.4-1,1.1-.9,2,.5,4,1,5.9,1.4-2.3,1.6-4.7,3.3-7,4.9Z"/>
        <path class="cls-1" d="M40.9,45.8c2.5,0,5,0,7.5,0,1.4,0,2.6.9,2.9,2.1.4,1.6-.7,3.1-2.3,3.3-.5,0-1.1,0-1.6,0-10.7,0-21.3,0-32,0-1,0-2.1,0-3.1-.4-2.6-.8-4-3.2-3.6-5.9.3-2.4,2.5-4.4,5.1-4.5,1.4,0,2.8,0,4.2,0,.9,0,1.2-.3,1.4-1.2.5-3.9,2.6-6.7,6.1-8.5,6.1-3.1,14.1,1,15.1,7.8.3,2.3.3,4.6.4,7.2Z"/>
        <path class="cls-1" d="M17.8,30.2c-1.8-2.4-1.8-7.2.9-10.3,2.8-3.3,7.4-4.4,11.2-2.5,3.3,1.6,5.7,5.3,5.2,8.1-6.7-1.9-12.5-.4-17.3,4.8Z"/>
      </g>
    </g>
  </g>
</svg>