<?xml version="1.0" encoding="UTF-8"?>
<svg xmlns="http://www.w3.org/2000/svg" version="1.1" viewBox="0 0 60.7 60.6">
  <defs>
    <style>
      .cls-1 {
        fill: #fff;
      }
    </style>
  </defs>

  <g>
    <g id="Calque_1">
      <g>
        <path class="cls-1" d="M-1.7,62.6c0-21.3,0-42.7,0-64,21.3,0,42.7,0,64,0v64c-21.3,0-42.7,0-64,0ZM46.2,30.6c0-8.8-7.1-15.9-15.9-15.9-8.7,0-15.9,7.2-15.9,15.9,0,8.7,7.2,15.9,15.9,15.9,8.8,0,15.9-7.1,15.9-15.9ZM32.9,5.4c0-1,0-2.1,0-3.1,0-.3-.5-.8-.8-.8-1.2,0-2.3-.1-3.5,0-.3,0-.8.6-.8.9,0,2,0,4,0,6,0,.7.4.9,1,.9,1,0,2.1,0,3.1,0,.7,0,1.1-.2,1-1,0-1,0-1.9,0-2.9ZM5,33.2c1,0,1.9,0,2.9,0,.7,0,1.1-.2,1.1-1,0-1,0-2.1,0-3.1,0-.7-.2-1.1-1-1.1-2,0-3.9,0-5.9,0-.7,0-1,.2-1,.9,0,1.1,0,2.2,0,3.2,0,.8.3,1,1,1,1,0,1.9,0,2.9,0ZM55.6,33.2c1,0,2,0,3,0,.3,0,.8-.5.8-.8.1-1.1.1-2.2,0-3.4,0-.3-.5-.9-.8-.9-2,0-4,0-6,0-.3,0-.8.5-.9.9-.1,1.1,0,2.2,0,3.2,0,.7.3,1.1,1,1,1,0,1.9,0,2.9,0ZM32.9,55.9c0-1,0-1.9,0-2.9,0-.3-.5-.9-.8-.9-1.1-.1-2.2-.1-3.4,0-.3,0-.9.5-.9.8,0,2,0,4.1,0,6.1,0,.3.4.7.6.7,1.4,0,2.9,0,4.3,0,0-1.1.1-2.3.2-3.4,0-.1,0-.2,0-.4ZM15.8,13.1c-1.4-1.5-2.9-3-4.4-4.5-1.1,1.1-2.2,2.2-3.4,3.3,1.5,1.5,3.1,3,4.6,4.4,1.1-1.1,2.2-2.2,3.2-3.2ZM44.7,12.9c1.1,1.2,2.2,2.4,3.2,3.5,1.5-1.4,3.1-2.9,4.5-4.2-1.2-1.2-2.3-2.4-3.4-3.5-1.5,1.5-3,3-4.3,4.3ZM12.6,45.1c-1.6,1.6-3,3-4.4,4.4,1,1.1,2.2,2.3,3.1,3.4,1.5-1.6,3-3.1,4.5-4.6-1-1-2.1-2.2-3.2-3.3ZM44.7,48.5c1.4,1.4,2.9,2.9,4.3,4.4,1.1-1.1,2.3-2.2,3.4-3.3-1.4-1.5-2.9-3-4.5-4.5-1.1,1.1-2.1,2.3-3.2,3.4Z"/>
        <path d="M46.2,30.6c0,8.7-7.2,15.9-15.9,15.9-8.7,0-15.9-7.2-15.9-15.9,0-8.7,7.2-15.9,15.9-15.9,8.7,0,15.9,7.2,15.9,15.9Z"/>
        <path d="M32.9,5.4c0,1,0,1.9,0,2.9,0,.8-.3,1-1,1-1,0-2.1,0-3.1,0-.6,0-1-.2-1-.9,0-2,0-4,0-6,0-.3.5-.8.8-.9,1.2-.1,2.3,0,3.5,0,.3,0,.7.5.8.8,0,1,0,2.1,0,3.1Z"/>
        <path d="M5,33.2c-1,0-1.9,0-2.9,0-.7,0-1.1-.2-1-1,0-1.1,0-2.2,0-3.2,0-.7.3-1,1-.9,2,0,3.9,0,5.9,0,.8,0,1,.3,1,1.1,0,1,0,2.1,0,3.1,0,.8-.3,1-1.1,1-1,0-1.9,0-2.9,0Z"/>
        <path d="M55.6,33.2c-1,0-1.9,0-2.9,0-.7,0-1-.3-1-1,0-1.1,0-2.2,0-3.2,0-.3.6-.9.9-.9,2,0,4,0,6,0,.3,0,.8.5.8.9.1,1.1.1,2.2,0,3.4,0,.3-.5.8-.8.8-1,.1-2,0-3,0Z"/>
        <path d="M32.9,55.9c0,.1,0,.2,0,.4,0,1.1-.1,2.3-.2,3.4-1.4,0-2.9.1-4.3,0-.2,0-.6-.5-.6-.7,0-2,0-4.1,0-6.1,0-.3.6-.8.9-.8,1.1-.1,2.2-.1,3.4,0,.3,0,.8.5.8.9.1.9,0,1.9,0,2.9Z"/>
        <path d="M15.8,13.1c-1,1-2.2,2.2-3.2,3.2-1.5-1.4-3-2.9-4.6-4.4,1.2-1.2,2.3-2.3,3.4-3.3,1.5,1.5,3,3,4.4,4.5Z"/>
        <path d="M44.7,12.9c1.3-1.3,2.8-2.8,4.3-4.3,1.1,1.1,2.2,2.3,3.4,3.5-1.4,1.3-3,2.8-4.5,4.2-1-1.1-2.1-2.3-3.2-3.5Z"/>
        <path d="M12.6,45.1c1.1,1.1,2.2,2.2,3.2,3.3-1.4,1.5-2.9,3-4.5,4.6-1-1.1-2.1-2.3-3.1-3.4,1.4-1.4,2.8-2.9,4.4-4.4Z"/>
        <path d="M44.7,48.5c1.1-1.1,2.2-2.3,3.2-3.4,1.5,1.5,3,3,4.5,4.5-1.1,1.1-2.3,2.2-3.4,3.3-1.4-1.4-2.9-2.9-4.3-4.4Z"/>
      </g>
    </g>
  </g>
</svg>