<?xml version="1.0" encoding="UTF-8"?>
<svg xmlns="http://www.w3.org/2000/svg" version="1.1" xmlns:xlink="http://www.w3.org/1999/xlink" viewBox="0 0 398 512">
    <defs>
        <style>
            .cls-1 {
            fill: #83a590;
            }

            .cls-2 {
            fill: #f6edec;
            }

            .cls-3 {
            fill: #a3b146;
            }

            .cls-4 {
            fill: #beac3c;
            }

            .cls-5 {
            fill: url(#Nameless_Gradient_103);
            }

            .cls-6 {
            fill: url(#Nameless_Gradient_100);
            }

            .cls-7 {
            fill: #d4c54b;
            }

            .cls-8 {
            fill: url(#Nameless_Gradient_108);
            }

            .cls-9 {
            fill: #e2a170;
            }

            .cls-10 {
            fill: #7babaf;
            }

            .cls-11 {
            fill: #323f1d;
            }

            .cls-12 {
            fill: #f5f2e0;
            }

            .cls-13 {
            fill: url(#Nameless_Gradient_89-2);
            }

            .cls-14 {
            fill: #537051;
            }

            .cls-15 {
            fill: #dfd28f;
            }

            .cls-16 {
            fill: url(#Nameless_Gradient_104);
            }

            .cls-17 {
            fill: #b2a04d;
            }

            .cls-18 {
            fill: #d88053;
            }

            .cls-19 {
            fill: #7fb1c0;
            }

            .cls-20 {
            fill: #8ec0c2;
            }

            .cls-21 {
            fill: #5b9aad;
            }

            .cls-22 {
            fill: #4b5427;
            }

            .cls-23 {
            fill: #fee695;
            }

            .cls-24 {
            fill: #f68b52;
            }

            .cls-25 {
            fill: #637432;
            }

            .cls-26 {
            fill: #d5e5d4;
            }

            .cls-27 {
            fill: #4e8b98;
            }

            .cls-28 {
            fill: #884729;
            }

            .cls-29 {
            fill: url(#Nameless_Gradient_94);
            }

            .cls-30 {
            fill: #e9b076;
            }

            .cls-31 {
            fill: #f1d968;
            }

            .cls-32 {
            fill: #d9d96c;
            }

            .cls-33 {
            fill: #566535;
            }

            .cls-34 {
            fill: #bebf49;
            }

            .cls-35 {
            fill: url(#Nameless_Gradient_89);
            }

            .cls-36 {
            fill: #6dac90;
            }

            .cls-37 {
            fill: #b8ce51;
            }

            .cls-38 {
            fill: #c36a2d;
            }

            .cls-39 {
            fill: #224b30;
            }

            .cls-40 {
            fill: #8b9051;
            }

            .cls-41 {
            fill: #5f9e93;
            }

            .cls-42 {
            fill: url(#Nameless_Gradient_101);
            }

            .cls-43 {
            fill: #f6eab6;
            }

            .cls-44 {
            fill: #597b40;
            }

            .cls-45 {
            fill: #8da342;
            }

            .cls-46 {
            fill: #7c9443;
            }

            .cls-47 {
            fill: url(#Nameless_Gradient_111);
            }

            .cls-48 {
            fill: url(#Nameless_Gradient_106);
            }

            .cls-49 {
            fill: #3d6646;
            }

            .cls-50 {
            fill: #699a6f;
            }

            .cls-51 {
            fill: #a55229;
            }

            .cls-52 {
            fill: #82a761;
            }

            .cls-53 {
            fill: #b6d5ca;
            }

            .cls-54 {
            fill: #2a402b;
            }

            .cls-55 {
            fill: #fefdfa;
            }

            .cls-56 {
            fill: url(#Nameless_Gradient_105);
            }

            .cls-57 {
            fill: #71813e;
            }

            .cls-58 {
            fill: url(#Nameless_Gradient_109);
            }

            .cls-59 {
            fill: url(#Nameless_Gradient_110);
            }

            .cls-60 {
            fill: #649148;
            }

            .cls-61 {
            fill: #6a7d54;
            }

            .cls-62 {
            fill: #fcce50;
            }

            .cls-63 {
            fill: #95bc6d;
            }

            .cls-64 {
            fill: #9ad1c5;
            }

            .cls-65 {
            fill: #feca82;
            }

            .cls-66 {
            fill: #e1722f;
            }

            .cls-67 {
            fill: url(#Nameless_Gradient_102);
            }

            .cls-68 {
            fill: #7d3215;
            }

            .cls-69 {
            fill: #9b8a32;
            }

            .cls-70 {
            fill: url(#Nameless_Gradient_95);
            }
        </style>
        <linearGradient id="Nameless_Gradient_89" data-name="Nameless Gradient 89" x1="444.65" y1="512.86" x2="451.15"
                        y2="983.81" gradientTransform="translate(.01 -538.1) scale(.44 1.05)"
                        gradientUnits="userSpaceOnUse">
            <stop offset="0" stop-color="#64bcc3"/>
            <stop offset=".52" stop-color="#9ad1c5"/>
            <stop offset="1" stop-color="#f2f3d2"/>
        </linearGradient>
        <linearGradient id="Nameless_Gradient_89-2" data-name="Nameless Gradient 89" x1="445.05" y1="512.85" x2="451.55"
                        y2="983.81" gradientTransform="translate(.03 -227.43) scale(.44)"
                        xlink:href="#Nameless_Gradient_89"/>
        <linearGradient id="Nameless_Gradient_94" data-name="Nameless Gradient 94" x1="334.78" y1="938.75" x2="55.79"
                        y2="1118.71" gradientTransform="translate(.03 -227.43) scale(.44)"
                        gradientUnits="userSpaceOnUse">
            <stop offset="0" stop-color="#6ca3ac"/>
            <stop offset="1" stop-color="#4e878f"/>
        </linearGradient>
        <linearGradient id="Nameless_Gradient_95" data-name="Nameless Gradient 95" x1="284.4" y1="1485.36" x2="15.69"
                        y2="1543.82" gradientTransform="translate(.03 -227.43) scale(.44)"
                        gradientUnits="userSpaceOnUse">
            <stop offset="0" stop-color="#e2cc61"/>
            <stop offset="1" stop-color="#b3b34a"/>
        </linearGradient>
        <linearGradient id="Nameless_Gradient_100" data-name="Nameless Gradient 100" x1="624.92" y1="920.07" x2="807.54"
                        y2="1103.73" gradientTransform="translate(.03 -227.43) scale(.44)"
                        gradientUnits="userSpaceOnUse">
            <stop offset="0" stop-color="#7bafb6"/>
            <stop offset="1" stop-color="#518089"/>
        </linearGradient>
        <linearGradient id="Nameless_Gradient_104" data-name="Nameless Gradient 104" x1="397.72" y1="967.83" x2="530.48"
                        y2="1015.32" gradientTransform="translate(.03 -227.43) scale(.44)"
                        gradientUnits="userSpaceOnUse">
            <stop offset="0" stop-color="#c8d9d8"/>
            <stop offset="1" stop-color="#a4c4c4"/>
        </linearGradient>
        <linearGradient id="Nameless_Gradient_105" data-name="Nameless Gradient 105" x1="448.81" y1="1049.08" x2="447.2"
                        y2="1285.07" gradientTransform="translate(.03 -227.43) scale(.44)"
                        gradientUnits="userSpaceOnUse">
            <stop offset="0" stop-color="#b5d8bc"/>
            <stop offset="1" stop-color="#85cdcd"/>
        </linearGradient>
        <linearGradient id="Nameless_Gradient_108" data-name="Nameless Gradient 108" x1="376.66" y1="1236.28" x2="410.92"
                        y2="1407.89" gradientTransform="translate(.03 -227.43) scale(.44)"
                        gradientUnits="userSpaceOnUse">
            <stop offset="0" stop-color="#eedf5a"/>
            <stop offset="1" stop-color="#a6b64a"/>
        </linearGradient>
        <linearGradient id="Nameless_Gradient_110" data-name="Nameless Gradient 110" x1="705.54" y1="1003.07" x2="794.71"
                        y2="1099.04" gradientTransform="translate(.03 -227.43) scale(.44)"
                        gradientUnits="userSpaceOnUse">
            <stop offset="0" stop-color="#8aa145"/>
            <stop offset="1" stop-color="#6d8c3d"/>
        </linearGradient>
        <linearGradient id="Nameless_Gradient_103" data-name="Nameless Gradient 103" x1="439.82" y1="774.32" x2="446.67"
                        y2="925.17" gradientTransform="translate(.03 -227.43) scale(.44)"
                        gradientUnits="userSpaceOnUse">
            <stop offset="0" stop-color="#fdd177"/>
            <stop offset="1" stop-color="#f5ad4d"/>
        </linearGradient>
        <linearGradient id="Nameless_Gradient_102" data-name="Nameless Gradient 102" x1="863.93" y1="1129.72" x2="884.43"
                        y2="1241.86" gradientTransform="translate(.03 -227.43) scale(.44)"
                        gradientUnits="userSpaceOnUse">
            <stop offset="0" stop-color="#7b8646"/>
            <stop offset="1" stop-color="#537051"/>
        </linearGradient>
        <linearGradient id="Nameless_Gradient_109" data-name="Nameless Gradient 109" x1="836.65" y1="1168.54" x2="876.12"
                        y2="1239.28" gradientTransform="translate(.03 -227.43) scale(.44)"
                        gradientUnits="userSpaceOnUse">
            <stop offset="0" stop-color="#748249"/>
            <stop offset="1" stop-color="#567250"/>
        </linearGradient>
        <linearGradient id="Nameless_Gradient_101" data-name="Nameless Gradient 101" x1="77.92" y1="1219.01" x2="-9.79"
                        y2="1356.4" gradientTransform="translate(.03 -227.43) scale(.44)"
                        gradientUnits="userSpaceOnUse">
            <stop offset="0" stop-color="#5e773b"/>
            <stop offset="1" stop-color="#2d5231"/>
        </linearGradient>
        <linearGradient id="Nameless_Gradient_106" data-name="Nameless Gradient 106" x1="22.73" y1="1068.59" x2="147.25"
                        y2="1297.97" gradientTransform="translate(.03 -227.43) scale(.44)"
                        gradientUnits="userSpaceOnUse">
            <stop offset="0" stop-color="#c6c84a"/>
            <stop offset=".3" stop-color="#889740"/>
            <stop offset=".89" stop-color="#4e6c3a"/>
        </linearGradient>
        <linearGradient id="Nameless_Gradient_111" data-name="Nameless Gradient 111" x1="243.99" y1="1345.7" x2="201.39"
                        y2="1401.25" gradientTransform="translate(.03 -227.43) scale(.44)"
                        gradientUnits="userSpaceOnUse">
            <stop offset="0" stop-color="#648442"/>
            <stop offset="1" stop-color="#4e703e"/>
        </linearGradient>
    </defs>
    <!-- Generator: Adobe Illustrator 28.7.1, SVG Export Plug-In . SVG Version: 1.2.0 Build 142)  -->
    <g>
        <g id="Layer_1">
            <g id="Background">
                <rect class="cls-35" x="0" y=".06" width="398.26" height="511.88"/>
                <path class="cls-13"
                      d="M.03,26.72C.09,17.84,0,8.94.03.06h398.11c.04,2.95-.06,5.93,0,8.89-11.37,5.54-16.11,18.57-14.88,30.66-8.1-12.07-26.83-9.4-33.77,3.11-10.54-7.23-11.22,4.31-13.77,6.22-.14.1-2.94,1.34-3.11,1.33-.45-.02-3.85-5.17-7.33.67l72.87,1.56c.01,5.77,0,11.56,0,17.33-24.17,5.12-40.44,23.17-41.99,47.99-10.18-14.69-24.13-.83-24.22,4.89-3.57-2.45-8.63-5.83-12.22-1.78-5.2-2.7-10.79,1.06-13.55,5.33-4.76-10.92-16.51-8.97-19.55,2.22-.08.29.18.77-.89,1.56l.67.67,111.75.44c.02,18.95,0,37.92,0,56.87-27.8-12.01-38.43.55-40.66.89-3.96.59-5.02-2.58-6.44-3.11-1.63-.61-11.03-1.18-13.11-.89-4.92.69-16.83,6.96-17.77,7.11-4.16.64-8.02-4.12-18.66,1.78-.81.45-4.3,4.18-4.89,4.44-.5.22-6.33.9-10.66,2.67-11.09,4.53-18.01,10.36-29.1,7.55-19-4.8-19.21-11.14-29.99-13.77-5.92,8-12.56,3.43-19.55,8-12.28-5.08-15.53-2.16-27.55,3.11-3.45,1.51-10.72,6.76-13.77,7.11-5.54.63-9.08-3.99-14.22-3.11-.62.11-11.02,4.55-11.55,4.89-2.39,1.51,3.2.08,2.89,1.78-24.97-2.13-33.59-19.65-49.99-22.22-2.81-.44-19.41-.87-21.33-.44-.61.14-6.42,4.38-11.11,5.78-11.53-3.19-19.43.7-30.21,4-10.08-4.41-19.79-9.93-30.44-12.89,0-13.91,0-27.85,0-41.77,8.89,3.88,14.46,12.77,19.77,20.44,2.11-.31,3.02-27.37-19.77-32.88,0-3.55,0-7.12,0-10.66h119.3c-.26-2.38-3.32-1.31-4.44-1.78-.99-.41-2.85-3.58-4.89-1.33-.83-6.38-6.99-6.74-11.55-3.55-.63-.07-2.51-8.14-10-4-3.77-20.77-22.2-34.15-43.1-29.1C61.61,53.92,34.32,21.43.03,26.72Z"/>
                <path class="cls-3"
                      d="M306.61,385.73c7.87,7.89-2.05,19.44-8.22,24.88-24.57,21.68-100.22,46.9-132.85,62.21l-2.44-.22-1.56-6.44c-3.89,3.58-12.62,8.28-15.33,11.77-.19.25.2,1.95,0,2.22-2.74,3.86-22.27,13.36-27.55,16.66-5.98-7.52-5.67-6.68-14.66-.67,6.73,5.28,2.24,2.62,1.78,7.33-3.03.02-2.18,3.21.44,2.67-.07.2.46.03,0,1.78-5.4-1.64-1.92,2.38-1.78,2.67.09.19-.05.85,0,1.33-1.48,0-2.97,0-4.44,0,.29-1.3-2.02-1.36-1.78,0-13.03-.01-26.07.03-39.1,0,7.63-7.3.39-7.67-.22-8-3.67-1.99-4.59-3.39-7.33,1.11.96.04,1.27,4.21.44,5.11-1.63-.19-5.71.15-6.22,1.78-3.4,0-6.82.01-10.22,0,.2-.34,1.24-1.72,1.33-1.78,4.35-2.6,5.14,2.83,7.33.89,1.9-1.68.07-3.32-1.11-4.44,1.97-.24-.57-3.27-4.44-1.56.04-1.11-.05-2.23,0-3.33.02-.51.86-1.68.89-1.78,1.28,3.17,8.42-2.6,2.22-5.33-.16-.07-1.85-.19-3.33-.89-1.15,2.59-1.86,1.64-2,1.78,2.39-5.75-3.35-1.35-5.55.44-2.54,2.07-10.8,13.21-7.33,7.33,6.39-10.81,18.62-18.01,24.44-23.77.07-.07-.04-.94,0-1.56,26.8-11.53,55.76-16.76,83.53-25.55,0,.3-.01,2.11,0,2.22l-4.89,5.11c.24.3,4.32.25,7.11,1.11,2.79.86,5,3.21,8.22,2.67,2.16-.55,8.33-14.95,14.66-15.11,1.45-.04,2.04,1.16,3.33,1.33.09.01.42.79,1.56.89,5.23.47,11.53-2.26,7.78-8,29.6-8.04,59.25-16.03,88.42-25.55l-22.44,3.78c-12.81,4.18-66.4,13.28-71.54,15.11-.35.12-.22.6-.22.89-4.88-11.26-7.06-10.91-14.22-1.78-15.72-.41-31.32,3.32-46.88,5.33-18.41,2.38-36.91,4.3-55.32,6.66.38-1.52-.68-14.72-.89-18.22l51.54-8.44c.08,3.58-.67,7.15.67,7.55,6.16,1.88,3.81-2.94,3.78-6.22,1.6.74.88-2.15,2-2.67,1.46-.67,27.01-4.36,31.77-5.33.26,5.18,6.14,8.35,6.66,13.55,41.92-6,84.01-16.09,123.08-32.66,4.25-1.8,8.53-3.33,12.22-6.22,6.74-.47,19.25,2.19,24.44-1.78,1.17-.89,2.41-2.36.67-2.22.1,0,.49-.78,2-.44,1.11.39.93,1.15,1.56,1.78Z"/>
                <path class="cls-3"
                      d="M398.15,383.95c-.02,21.76.05,43.55,0,65.32-5.27-4.12-9.22-6.41-13.77,0-1.41,1.98-3.06,5.32-.89,6.89-2.07,2.02,2.34,8.03,7.11,8.22.72,5.22,1.46,10.44-.67,14.66-.78-3.13-3.13-1.95-4.67-3.33-8.95-13.29-2.63-1.54-2.22,5.33-.64,2.01-7.28-6.71-8.44-4.89l8,12c.75,1.38.26,2.62.44,3.33-5.87-8.69-7.24-12.07-17.11-17.33,1.15,1.5-.76,5.01-1.78,4.89-1.35-.16-.07-3.28-1.56-1.78-3.27,1.54-6.89,2.58-8.89,5.78-4.58-.63-4.61-2.83,3.55,4.67-.17.21-.51.33-.44.67-3.72,2.93-7.49,5.62-10,9.78l-.44-4.89c-1.08,1.17-1.7,2.63-2.44,4h-1.78c.38-1.53.78-10.75.44-11.77-1.21-3.76-1.08,8.02-1.33,8.44-1.49,2.46-1.3-3.62-1.78-5.33-3.45-12.42-3.91-11.43-2.67.67-2.31-1.99-3.22-7.99-4-9.78,3.63-2.24,1.37-3.43,2.44-6.22,1.4,1.16,6.49,5.41,7.33,2,.74-2.98-4.14-5.44-4-5.78.19-.48,10.3-3.88-.89-3.55,4.41-4.08-.72-9.36-4.22-1.11-2.11-5.31-9.66-6.84-4.67.67-8.21-1.93-5.74,4.48.89,4.44-5.86,1.82-8.14,7.47-.89,5.55-1.75,4.41-4.95,8.8-8,12-1.73-8.22-3.64-3.36-1.78,1.78.12.33,3.33,4.89,4,5.78-1.38.99.8,1.26.89,1.33,1.1.92,2.91,2.19,1.33,3.55-.12.11-1.7-.21-3.11.89-.21-1.15-4.72-8.04-5.78-9.33-.6-.73-.87-.96-1.78-1.33-.16-1.75-1.22-4.55-3.55-4-.07-1.51-.29-2-.89-3.33h-.89c-.32,3.23-2.9,10.33-3.11,12.22.17-1.04-.43-.84-.44-.89-3.58-10.28-9.48-19.29-13.33-29.33-.37-.96-1.52-2.39-1.33-3.33,12.09-12.6,38.97-34.26,47.1-47.54,4.37-7.13,9.4-20.52,3.11-27.77.08-.61-.81-1.44.22-1.78,2.04-.67,19.89,1.36,29.33-2.22l27.33,1.78Z"/>
                <path class="cls-65"
                      d="M333.72,383.95c6.97,9.62.79,21.62-5.78,29.55-14.92,18.01-95.67,68.45-117.75,98.42-21.32,0-42.66.01-63.98,0,31.35-30.02,133.84-75.91,155.74-96.42,2.17-2.03,3.77-3.85,5.55-6.22,10.74-14.23,4.14-24.56,2.67-24.88.64-.78.36-3.17,1.11-3.55,1.76-.9,19.34,2.39,22.44,3.11Z"/>
                <path class="cls-29"
                      d="M143.1,216.45c5.17.44,7.35-3.02,17.11,4,7.71-1.36,10.96.69,17.77.89.58.02,6.35-1.53,11.55-.89,3.27.41,15.81,5.83,19.77,7.55.56.24,1.2.63,1.78.89,4.61,2.04,9.4,4.14,13.77,6.66-30.22,0-60.45-.34-90.64.44-.55-1.9,2.01-1.74,1.56-2.67-3.52,1.05-3.83,1.29-7.33,0-1.23-.45-13.25-8.02-18.88-10.22-21.13-8.27-30.79-4.43-50.88,2.67-5.79,2.04-11.47,4.39-17.33,6.22l-6.89-20.44c-1.89,8.36-4.33,16.59-6.44,24.88-14.51,3.65,1.86-5.63-10.44-3.11-2.08-6.15-1.34-.8-6.44,5.33l-9.78,4.44c-.43-.06-.9.04-1.33,0,0-17.47,0-34.96,0-52.43,10.65,2.96,20.36,8.48,30.44,12.89,10.78-3.3,18.68-7.19,30.21-4,4.69-1.4,10.5-5.64,11.11-5.78,1.92-.43,18.52,0,21.33.44,16.4,2.56,25.01,20.08,49.99,22.22Z"/>
                <path class="cls-70"
                      d="M17.8,418.61c-1.13,1.39,6.6,2.82,10.66,3.55-.6,8.59.28,17.4-.89,25.99,5.12,1.15,10.48,1.96,15.55.67,1.31-.33,2.38-.67,3.78-.44.44-.23.13-.95.22-1.33,18.41-2.36,36.9-4.29,55.32-6.66,15.56-2.01,31.16-5.74,46.88-5.33-8.02,10.25.09,9.15-12.22,2.22-2.89.6-5.47,12.51-5.55,15.11-27.77,8.78-56.73,14.02-83.53,25.55-.04.61.07,1.49,0,1.56-9.66,2.14-18.34,6.15-26.66,11.33,3.62-8.87,8.62-17.35,15.11-24.44l-.67-.67c-12.6,8.22-21.6,21.02-26.66,35.1l-.67-1.56c2.58-4.95,3.78-10.52,6.22-15.55,3.05-6.29,7.62-12.03,11.55-17.77-9.46,6.44-16.67,15.5-21.11,25.99-6.63-6.01-1.58-11.45-5.11-12.89-.08-20.58.03-41.18,0-61.76,5.91.65,11.83,1.07,17.77,1.33Z"/>
                <path class="cls-3"
                      d="M355.93,335.08c.09,1.45-.3,6.92.22,7.55,2.91,3.54,3.72-3.25,3.78-4.89,3.26-.41,6.85.67,10.22.89,3.14.2,6.65.39,9.78.44l-.89,11.55c-.06,0,.03.38-.67.89-14.15.96-27.74,5.72-41.54,8.66,2.64,3.22,7.09.69,8.22.67,15.62-.37,26.63,3.31,41.77,6.66,4.14,1.49,4.66,2.62,5.55,3.11,1.75.95,3.79,2.98,5.78,2.22,0,3.7,0,7.41,0,11.11l-27.33-1.78c-9.43,3.58-27.29,1.55-29.33,2.22-1.03.34-.14,1.17-.22,1.78-.49-.57-1.2-.62-1.78-.89-2.58-1.19-2.83-.68-3.55-.89-1.05-.3-1.57-.29-2.22-.44-3.09-.72-20.68-4.01-22.44-3.11-.75.39-.47,2.78-1.11,3.55-.26-.06-3.28.63-3.55,1.33-.63-.63-.45-1.39-1.56-1.78-1.51-.34-1.9.45-2,.44-6.08-.34-12.16.27-18.22.44.79-2.15-5.56-1.05-9.55-1.33,1.21-15.77-11.43-7.27,5.55-16.44,1.99-1.07,3.88-1.22,4.44-3.55l1.56.89c1.77-2.79,11.08,1.21,11.33.67-5.67-7.64-12.87-13.85-21.33-18.22,7.32-1.16,14.55-2.63,21.77-4.22.12,1.73,2.22,2.17,1.78,0,1.5-.02,3.9.31,4.67-1.33l50.88-6.22Z"/>
                <path class="cls-6"
                      d="M398.15,188.01c0,14.8,0,29.63,0,44.43l-1.33.44c-.74-.04-1.66.12-2.22,0-1.47-.3-6.72-1.96-9.11-2.67-1.04-.31-1.24-1.31-1.33-1.33-1.24-.37-1.69.47-1.78.44-6.18-1.84-12.14-4.2-18.44-5.78-43.64-10.95-43.24-.28-49.99,0-4.02.17-.73-7.72-6.66,2.67-3.07.6-5.6,2.49-8.22,4-1.42.82-9.85,5.79-10.44,5.78-1.66-.05-3.69-5.78-3.78-.44-19.98,0-40.02,0-59.98,0-4.37-2.53-9.16-4.62-13.77-6.66,9.59-2.16,19.73-.81,29.55-1.78,9.88-.98,25.43-5.55,36.43-5.78,9.08-3.16,18.12-6.41,27.1-9.78.05-.02.38.64.89.44,16.49-6.23,33.09-14,45.99-26.22,1.42.53,2.49,3.7,6.44,3.11,2.23-.33,12.86-12.9,40.66-.89Z"/>
                <path class="cls-2"
                      d="M88.45,115.14c7.48-4.15,9.37,3.93,10,4,4.56-3.19,10.72-2.82,11.55,3.55,2.04-2.25,3.9.92,4.89,1.33,1.12.46,4.18-.6,4.44,1.78H.03C.06,99.15-.05,72.48.03,45.83c23.02,6.54,34.23,26.28,33.1,49.76,18.89,4.23,37.72,9.99,53.32,21.77,1.33.06.73-1.52,2-2.22Z"/>
                <path class="cls-55"
                      d="M88.45,115.14c-1.27.7-.67,2.28-2,2.22-15.6-11.78-34.43-17.54-53.32-21.77C34.27,72.1,23.05,52.36.03,45.83.05,39.46,0,33.08.03,26.72c34.29-5.29,61.58,27.2,45.32,59.32,20.9-5.05,39.33,8.33,43.1,29.1Z"/>
                <path class="cls-46"
                      d="M310.17,384.4c1.48.32,8.08,10.65-2.67,24.88-4.11,2.83-7.68,6.48-11.77,9.33-21.75,15.13-87.45,43.22-117.75,59.09-19.98,10.47-39.57,21.84-58.43,34.21-5.03,0-10.08,0-15.11,0-.05-.48.09-1.14,0-1.33,2.72-.54,1.39-1.21,1.78-2.67.46-1.74-.07-1.57,0-1.78.13-.39.66-1.49.89-1.78.43-.54,9.98-6.57,11.55-7.55,5.28-3.31,24.81-12.81,27.55-16.66.2-.28-.19-1.97,0-2.22,2.71-3.5,11.44-8.19,15.33-11.77l1.56,6.44,2.44.22c32.63-15.3,108.28-40.52,132.85-62.21,6.17-5.45,16.09-16.99,8.22-24.88.27-.7,3.29-1.39,3.55-1.33Z"/>
                <path class="cls-2"
                      d="M398.15,96.03c.01,11.69,0,23.41,0,35.1l-111.75-.44-.67-.67c1.07-.79.81-1.26.89-1.56,6.56-.55,12.86-2.91,19.55-2.22,2.76-4.27,8.35-8.04,13.55-5.33,3.59-4.06,8.65-.67,12.22,1.78-.09,5.95,11.29-5.92,24.66-2.22,11.31-11.55,25.78-20.49,41.54-24.44Z"/>
                <path class="cls-24"
                      d="M307.5,409.28c-1.79,2.37-3.39,4.19-5.55,6.22-21.9,20.51-124.38,66.4-155.74,96.42-8.88,0-17.78,0-26.66,0,18.86-12.37,38.44-23.74,58.43-34.21,30.3-15.88,96-43.97,117.75-59.09,4.09-2.85,7.67-6.5,11.77-9.33Z"/>
                <path class="cls-2"
                      d="M398.15,8.95c.27,14.49-.03,29.05,0,43.54l-72.87-1.56c3.48-5.84,6.88-.68,7.33-.67.17,0,2.97-1.23,3.11-1.33,2.56-1.91,3.23-13.45,13.77-6.22,6.94-12.51,25.67-15.18,33.77-3.11-1.22-12.09,3.52-25.12,14.88-30.66Z"/>
                <path class="cls-55"
                      d="M398.15,96.03c-15.76,3.95-30.23,12.89-41.54,24.44-13.37-3.7-24.75,8.17-24.66,2.22.09-5.72,14.03-19.57,24.22-4.89,1.54-24.82,17.82-42.87,41.99-47.99.02,8.73-.01,17.48,0,26.22Z"/>
                <path class="cls-30"
                      d="M339.49,385.29c10.36,27.59-39.45,59.35-63.76,82.64-14.07,13.48-27.55,27.78-38.43,43.99-6.81,0-13.63,0-20.44,0,22.33-27.43,94.09-76.61,110.19-94.86,7.37-8.35,16.96-21.81,8.89-32.66.72.21.97-.3,3.55.89Z"/>
                <path class="cls-49"
                      d="M48.02,479.48c-5.82,5.76-18.05,12.96-24.44,23.77-3.47,5.87,4.79-5.26,7.33-7.33,2.2-1.79,7.94-6.19,5.55-.44-2.3,2.15-1.98,4.68.89,6.22l-6.22,10.22c-10.36-.05-20.74.04-31.1,0-.03-10.95.04-21.93,0-32.88,3.53,1.43-1.52,6.87,5.11,12.89,4.43-10.49,11.65-19.55,21.11-25.99-3.93,5.74-8.5,11.48-11.55,17.77-2.44,5.03-3.64,10.6-6.22,15.55l.67,1.56c5.06-14.08,14.06-26.88,26.66-35.1l.67.67c-6.48,7.09-11.49,15.57-15.11,24.44,8.32-5.18,17-9.19,26.66-11.33Z"/>
                <path class="cls-46"
                      d="M341.27,386.18c6.29,7.25,1.26,20.64-3.11,27.77-8.13,13.28-35,34.95-47.1,47.54-.19.94.97,2.37,1.33,3.33l-1.33.44c-.2-.54-.08-2.75-1.11-2.67-14.72,14.6-30.03,29.78-37.99,49.32-4.88,0-9.78,0-14.66,0,10.89-16.21,24.37-30.51,38.43-43.99,24.31-23.29,74.12-55.05,63.76-82.64.58.27,1.28.32,1.78.89Z"/>
                <path class="cls-45"
                      d="M291.06,465.27c3.2,8.6,5.03,14.99,9.78,23.55-6.14-5.03-11.27-12.62-19.55-14.44,8.42,6.47,14.95,14.06,20.44,23.1l-.67.67c-10.63-13.91-22.22-9.1-19.99-7.11,7.02.94,12.99,5.25,18,10,.93.61-3.76,7.67-4.22,7.78-.32.07-3.9-1.87-2.89-3.55,6.24-2.46-1.43-9.03-4.44-6.22-2.7-4.48-9.42-3.2-10.89,1.78,1.93-1.67,4.29-2.78,6.89-2.22-1.03.79-2.35,3.39-2.67,4.44-4.88-.58-3.99,5.38-.89,4-.76,1.8-1.19,3.46-2.67,4.89-.29,0-.6,0-.89,0-2.68-9.49-3.72-6.1-4-6.44-.69-.85-.81-2.76-.89-2.89,5.87,1.04,5.31-12.43-1.11-8-3.46-2.82-6.75,2.22-2.44,7.55,2.47,3.06,5.7,5.35,6.22,9.78-.29,0-.6,0-.89,0-1.48-8.84-22.15-5.25-5.11-3.11l3.33,3.11c-.74,0-1.48,0-2.22,0-.68-3.27-4.65-2.21-7.11-2l4.44,2c-4.88,0-9.78,0-14.66,0,7.96-19.54,23.27-34.72,37.99-49.32,1.03-.08.91,2.12,1.11,2.67Z"/>
                <path class="cls-66"
                      d="M335.94,384.4c8.07,10.85-1.52,24.3-8.89,32.66-16.11,18.26-87.86,67.44-110.19,94.86-2.22,0-4.45,0-6.66,0,22.07-29.97,102.83-80.4,117.75-98.42,6.56-7.93,12.74-19.92,5.78-29.55.65.15,1.17.14,2.22.44Z"/>
                <path class="cls-64"
                      d="M16.92,278.65c-3.63,14.02-7.01,28.17-10.66,42.21-.36,1.4-.75,2.15-.89,2.67l-5.33,1.78c0-14.51,0-29.04,0-43.54l16.88-3.11Z"/>
                <path class="cls-3"
                      d="M383.04,350.63c1.45.04,5.14.41,5.78,1.33-4.91,14.32-1.92,9.43,2.22,11.55,1.14.58,2.45,2.07,4.44,2.67.46.14,1,.69,2.67.44,0,1.03,0,2.08,0,3.11l-5.78.89c-.9-.49-1.41-1.62-5.55-3.11-15.14-3.36-26.15-7.04-41.77-6.66-1.13.03-5.58,2.56-8.22-.67,13.81-2.95,27.39-7.7,41.54-8.66.7-.51.61-.88.67-.89,1.54-.12,2.51-.04,4,0Z"/>
                <path class="cls-46"
                      d="M398.15,485.26c-.05,8.88.04,17.78,0,26.66-3.99.05-8.01-.07-12,0,.87-8.36-2.39-13.71-3.11-16.66-.04-.18.54-1.63,0-3.78-.18-.71.3-1.95-.44-3.33l-8-12c1.16-1.82,7.8,6.9,8.44,4.89-.41-6.87-6.73-18.63,2.22-5.33,1.53,1.38,3.89.2,4.67,3.33,2.13-4.22,1.39-9.45.67-14.66.14,0,.3.01.44,0,2.59,5.34-.48,14.91,0,18.44,2.98,3.63.68,7.96,2.89,8.22l4.22-5.78Z"/>
                <path class="cls-57"
                      d="M359.93,485.7c1.89,1.27,3.2,2.15,5.33,3.11.73.33,1.38,1.14,2.22,1.33,2.17.49,1.46-.05,3.33-.44.26,3.66,3.56,5.7,6.44,7.55.91,3.34,3.02,5.8,1.33,14.66-7.84.06-15.71-.03-23.55,0l-1.33-4.89c1.31-1.15,5.04-5.1,5.33-5.33.66-.52,5-2.01,7.11-4.22-.71-2.07-2.13-1.88-2.22-2-.17-.22.47-.64.44-.67-5.32-5.44-4.31,2.8-8.44-4.22.56-.71,1.07-1.42,1.78-2,.07-.34-.88-.18-.89-.22-.06-.34.28-.46.44-.67-8.17-7.49-8.13-5.3-3.55-4.67,2.03.28,2.43-2.56,3.33-2.22,1.16.43-1.61,1.41-.67,2.89.51.8,2.6,1.35,3.55,2Z"/>
                <path class="cls-33"
                      d="M300.84,488.82c1.6,2.88,3.62,7.28,4.89,5.33.02.05.61-.15.44.89-.82,7.4,1.49,10.27,3.11,16.88-8.14.01-16.3,0-24.44,0,.34-2.63,1.23-3.79,1.33-6.66,2.81,1.02,1.64-2.81,5.78,0-1.01,1.68,2.57,3.63,2.89,3.55.46-.1,5.15-7.16,4.22-7.78-5-4.75-10.97-9.05-18-10-2.23-1.99,9.36-6.8,19.99,7.11l.67-.67c-5.49-9.05-12.02-16.63-20.44-23.1,8.28,1.82,13.41,9.41,19.55,14.44Z"/>
                <path class="cls-21"
                      d="M5.36,261.77c5.45-.25,10.98.18,16.44,0-1.19,4.59-2.36,9.19-3.55,13.77L.03,278.65c0-5.47,0-10.97,0-16.44,1.82.15,3.53-.36,5.33-.44Z"/>
                <path class="cls-2"
                      d="M.03,148.91c0-4.14,0-8.3,0-12.44,22.8,5.51,21.89,32.57,19.77,32.88-5.32-7.67-10.88-16.56-19.77-20.44Z"/>
                <path class="cls-46"
                      d="M383.04,491.48c.54,2.15-.04,3.59,0,3.78.72,2.95,3.98,8.3,3.11,16.66-2.51.04-5.04-.02-7.55,0,1.68-8.87-.42-11.32-1.33-14.66-3.3-12.15-5.45-10.98-5.78-11.55-.24-.41-2.9-8.25-4.22-8.44-3.47-.52-2.46,9.77-2,11.55-2.13-.96-3.44-1.84-5.33-3.11l2.67-8.44c1.49-1.5.21,1.62,1.56,1.78,1.01.12,2.93-3.39,1.78-4.89,9.86,5.26,11.24,8.64,17.11,17.33Z"/>
                <path class="cls-46"
                      d="M28.02,236.44c-.94,3.67-1.71,7.41-2.67,11.11l-25.33-.44c0-1.33,0-2.67,0-4,.43.04.91-.06,1.33,0,1.72.25,2.2,1.38,2.89,1.33.4-.03,6.38-4.16,6.66-4.44,1.09-1.1,0-1.07.22-1.33,5.11-6.13,4.37-11.48,6.44-5.33,12.31-2.52-4.07,6.76,10.44,3.11Z"/>
                <path class="cls-57"
                      d="M363.93,495.48c-2.07,1.67-8.64,3.56-4.89,6.22-.3.23-4.02,4.18-5.33,5.33-1.27,1.11-3.39,1.88-4.89,4.89-3.55,0-7.12,0-10.66,0,2.3-3.55,5.32-6.52,8-9.78,1.57,1.16,3.32-3,4.22-4,.22-.25,4.4-.28,2.89-4.89,1.02-1.27,2.3-2.21,2.67-2.67,4.13,7.02,3.13-1.22,8.44,4.22.03.03-.61.44-.44.67Z"/>
                <path class="cls-21"
                      d="M24.03,252.44c-.51,1.98-.85,2.5-.89,2.67-3.35.65-6.14,1.36-8.89,2.89l8.44.22c-.24.91-.66,1.79-.89,2.67-5.51.45-14.8-1.01-16.44.89-1.8.08-3.51.59-5.33.44,0-3.25,0-6.52,0-9.78h23.99Z"/>
                <path class="cls-57"
                      d="M396.81,232.89c.52.03.39.71,1.33,0,0,4.73,0,9.49,0,14.22l-12.89.44c-1.09-3.38-2.25-6.77-3.11-10.22.32-.29-.66-2.03,2.89-1.78.84.06,5.94,4.4,9.55-2.67.57.12,1.49-.04,2.22,0Z"/>
                <path class="cls-3"
                      d="M397.7,459.49h.44c-.02,8.58.05,17.19,0,25.77l-4.22,5.78c-2.2-.26.1-4.59-2.89-8.22-.48-3.53,2.59-13.1,0-18.44,3.33-.27,4.94-2.42,6.66-4.89Z"/>
                <path class="cls-34"
                      d="M398.15,338.63c0,1.48,0,2.97,0,4.44-2.82-1.56-1.32,5.96-3.33,10.66l-3.11-9.33c-.89-.21-2.33,5.94-2.89,7.55-.64-.93-4.33-1.29-5.78-1.33v-11.55c4.95,0,10.1-.92,15.11-.44Z"/>
                <path class="cls-14"
                      d="M398.15,343.08c0,6.21,0,12.45,0,18.66-1.45-.25-1.97.45-2.22.44-2.21-.03-3.22-1.22-4.89,1.33-4.14-2.12-7.13,2.77-2.22-11.55.55-1.61,2-7.77,2.89-7.55l3.11,9.33c2.01-4.7.51-12.23,3.33-10.66Z"/>
                <path class="cls-25"
                      d="M332.83,500.37c.07.93.33,5.66,1.11,5.78,1.02-1.1,3.39-3.82,3.78-4.89.74.21,1.05-.46,1.11-.44.36.08.02.95.67.89-1.61,3.49-3.58,6.81-5.33,10.22-3.25,0-6.52,0-9.78,0l-2.22-8.44v-2.67c1.41-1.1,2.99-.78,3.11-.89,3.37,5.47,2.81-.01,3.78-.44.89-.4,1.29,3.79,3.78.89Z"/>
                <path class="cls-53"
                      d="M25.36,247.55c-.42,1.62-.92,3.28-1.33,4.89H.03c0-1.77,0-3.56,0-5.33l25.33.44Z"/>
                <path class="cls-11"
                      d="M311.06,486.15c.14,2.97-3.06,11.32-.89,21.11,2.73-4.02,4.87-12.59,4.44-17.11.91.38,1.18.6,1.78,1.33-.3,0-.81-.11-.89.22-.87,3.63-.34,15.27-.89,20.22-1.77,0-3.56,0-5.33,0-1.62-6.61-3.93-9.48-3.11-16.88.21-1.89,2.79-8.98,3.11-12.22h.89c.6,1.33.82,1.82.89,3.33Z"/>
                <path class="cls-33"
                      d="M316.39,491.48c1.06,1.29,5.56,8.18,5.78,9.33v2.67c-1.45,3.27-.58,5.18,0,8.44-2.51,0-5.04,0-7.55,0,.55-4.95.02-16.58.89-20.22.08-.33.59-.23.89-.22Z"/>
                <path class="cls-62"
                      d="M398.15,449.27c0,3.4,0,6.82,0,10.22h-.44c-3.5-5.45-3.02-2.1-5.11-2.67-7.64-2.06,4.05-8.4-8.22-7.55,4.56-6.41,8.51-4.12,13.77,0Z"/>
                <path class="cls-21" d="M398.15,252.44c0,3.1,0,6.23,0,9.33h-8c-.9-3.1-2.11-6.23-3.11-9.33h11.11Z"/>
                <path class="cls-27"
                      d="M398.15,261.77c0,4.73,0,9.49,0,14.22h-4.44c-1.19-4.7-2.2-9.58-3.55-14.22h8Z"/>
                <path class="cls-62"
                      d="M59.13,511.92c-1.33,0-2.67,0-4,0-.92-.42-2.54-1.71-3.11-1.78.83-.9.51-5.07-.44-5.11,2.74-4.5,3.66-3.1,7.33-1.11.61.33,7.85.7.22,8Z"/>
                <path class="cls-33"
                      d="M355.93,490.59c-.36.46-1.65,1.39-2.67,2.67-2.37,2.95-4.7,5.97-7.11,8.89-2.68,3.25-5.7,6.22-8,9.78-.29,0-.6,0-.89,0,2.41-4.47,4.38-10.45,6.66-14.66.75-1.37,1.36-2.83,2.44-4l.44,4.89c2.51-4.15,6.28-6.85,10-9.78,0,.05.96-.12.89.22-.71.58-1.22,1.29-1.78,2Z"/>
                <path class="cls-46"
                      d="M285.73,501.7c.3.74,1.34,1.42,1.33,1.56-.02.44-1.82-.49-1.78.44,0,.2.93.42.89,1.56-.1,2.88-1,4.04-1.33,6.66-2.51,0-5.04,0-7.55,0,1.47-1.43,1.91-3.09,2.67-4.89,1.7-4.05.81-3.73.89-4,.32-1.05,1.63-3.65,2.67-4.44,3.02.65,2.14,2.9,2.22,3.11Z"/>
                <path class="cls-26"
                      d="M398.15,247.1c0,1.77,0,3.56,0,5.33h-11.11c-.52-1.61-1.25-3.25-1.78-4.89l12.89-.44Z"/>
                <path class="cls-32"
                      d="M5.36,323.53c-1.32,5.09-2.84,15.06-4.44,19.33-.13.35-.59.22-.89.22,0-5.92,0-11.86,0-17.77l5.33-1.78Z"/>
                <path class="cls-21"
                      d="M18.25,275.54c-.65,2.49-1.29,2.95-1.33,3.11L.03,281.76c0-1.03,0-2.08,0-3.11l18.22-3.11Z"/>
                <path class="cls-3"
                      d="M38.69,501.7c-.05,1.1.04,2.22,0,3.33,3.87-1.72,6.41,1.31,4.44,1.56-.05-.05.24-.73-.67-1.33-4.11,1.14-5.93-.67-5.55,4.89-.1.06-1.13,1.44-1.33,1.78-1.48,0-2.97,0-4.44,0l6.22-10.22c.06.03-.18-.55,1.33,0Z"/>
                <path class="cls-46"
                      d="M343.94,497.26c-2.29,4.21-4.25,10.2-6.66,14.66-1.03,0-2.08,0-3.11,0,1.75-3.41,3.72-6.73,5.33-10.22.71-1.54,2.23-2.7,2.67-4.44h1.78Z"/>
                <path class="cls-20"
                      d="M398.15,275.98c0,2.22,0,4.45,0,6.66h-2.67c-.55-2.22-1.21-4.44-1.78-6.66h4.44Z"/>
                <path class="cls-49"
                      d="M271.51,502.59c.08.13.2,2.03.89,2.89.28.34,1.32-3.04,4,6.44-.74,0-1.48,0-2.22,0-.52-4.43-3.75-6.72-6.22-9.78,2.46,1.36,1.54-2.69,3.55.44Z"/>
                <path class="cls-49"
                      d="M273.29,511.92c-.59,0-1.19,0-1.78,0l-3.33-3.11c-17.04-2.14,3.63-5.73,5.11,3.11Z"/>
                <path class="cls-46" d="M355.05,511.92c-2.07,0-4.15,0-6.22,0,1.5-3,3.62-3.78,4.89-4.89l1.33,4.89Z"/>
                <path class="cls-26" d="M398.15,282.65c0,3.4,0,6.82,0,10.22-1.57-3.18-1.83-6.83-2.67-10.22h2.67Z"/>
                <path class="cls-46" d="M324.39,511.92c-.74,0-1.48,0-2.22,0-.58-3.26-1.45-5.17,0-8.44l2.22,8.44Z"/>
                <path class="cls-46" d="M398.15,369.74c0,1.03,0,2.08,0,3.11-1.98.76-4.03-1.28-5.78-2.22l5.78-.89Z"/>
                <path class="cls-49"
                      d="M52.02,510.14c.57.07,2.19,1.35,3.11,1.78-3.1,0-6.23,0-9.33,0,.51-1.63,4.59-1.97,6.22-1.78Z"/>
                <path class="cls-28"
                      d="M398.15,361.74c0,1.62,0,3.26,0,4.89-1.67.24-2.21-.31-2.67-.44l.44-4c.26,0,.77-.7,2.22-.44Z"/>
                <path class="cls-49" d="M269.29,511.92c-.88,0-1.78,0-2.67,0l-4.44-2c2.46-.22,6.43-1.27,7.11,2Z"/>
                <path class="cls-2" d="M100,511.92c-.59,0-1.19,0-1.78,0-.24-1.36,2.07-1.3,1.78,0Z"/>
                <path class="cls-14" d="M398.15,232.44c0,.15,0,.3,0,.44-.94.71-.81.03-1.33,0l1.33-.44Z"/>
                <path class="cls-20"
                      d="M351.05,185.79c-12.9,12.22-29.5,19.99-45.99,26.22-.51.19-.84-.46-.89-.44-8.98,3.36-18.03,6.62-27.1,9.78-11.01.22-26.55,4.8-36.43,5.78-9.82.97-19.95-.38-29.55,1.78-.58-.26-1.22-.65-1.78-.89,7.45-10.23,20.57-9.23,31.32-13.33,6.69-2.55,7.97-6.36,16.22-6.22,11.1,2.8,18.02-3.03,29.1-7.55,4.33-1.77,10.16-2.44,10.66-2.67.58-.26,4.07-3.99,4.89-4.44,10.64-5.9,14.5-1.14,18.66-1.78.95-.15,12.85-6.42,17.77-7.11,2.08-.29,11.48.28,13.11.89Z"/>
                <path class="cls-16"
                      d="M256.85,208.45c-8.24-.14-9.52,3.67-16.22,6.22-10.76,4.1-23.88,3.1-31.32,13.33-3.96-1.72-16.51-7.15-19.77-7.55-5.21-.65-10.97.91-11.55.89-6.81-.2-10.06-2.25-17.77-.89-9.75-7.02-11.94-3.56-17.11-4,.32-1.7-5.28-.26-2.89-1.78.53-.34,10.93-4.78,11.55-4.89,5.14-.88,8.68,3.74,14.22,3.11,3.05-.35,10.32-5.6,13.77-7.11,12.02-5.27,15.26-8.19,27.55-3.11,6.99-4.57,13.63,0,19.55-8,10.78,2.63,10.99,8.97,29.99,13.77Z"/>
                <path class="cls-2"
                      d="M145.55,75.59c6.86-1.06,14.01,1.9,17.33,8,4.35-4.72,7.68,2.16,8.44,2.67.22.15,5.58.8,4.67,2l-55.76.22c1.73-1.38,8.01-4.96,10.22-4.44.22.05,1.76,2.01,2.67,1.78.8-.2,4.78-9.04,12.44-10.22Z"/>
                <path class="cls-55"
                      d="M45.58,166.68c5.68-.55,11.19,2.89,14.44,7.33,10.74,14.64-7.99,6.26-16.22,5.11l-5.55-8.66c.19-1.2,6.08-3.66,7.33-3.78Z"/>
                <path class="cls-55"
                      d="M306.17,126.25c-6.69-.69-12.99,1.67-19.55,2.22,3.04-11.19,14.79-13.14,19.55-2.22Z"/>
                <path class="cls-12"
                      d="M83.79,176.01c5.13-1.25,9.39,2.73,10.89,7.33-1.86-.46-12.56-2.5-13.11-2.89-1.95-1.37.95-4.13,2.22-4.44Z"/>
                <path class="cls-34"
                      d="M265.74,394.62c-39.06,16.57-81.16,26.65-123.08,32.66-.52-5.2-6.41-8.37-6.66-13.55,16.6-3.39,33.18-7.16,49.54-11.55,1.68-.85,4.93,4.02,2.67,4.44,25.02-4.17,49.74-10.59,73.76-18.66l1.11.22,2.67,6.44Z"/>
                <path class="cls-31"
                      d="M303.06,384.4c1.75-.14.5,1.33-.67,2.22-5.19,3.97-17.7,1.3-24.44,1.78-3.69,2.89-7.97,4.42-12.22,6.22l-2.67-6.44-1.11-.22c-24.01,8.07-48.73,14.49-73.76,18.66,2.26-.42-.99-5.29-2.67-4.44-16.36,4.4-32.94,8.16-49.54,11.55-4.76.97-30.31,4.66-31.77,5.33-1.12.51-.4,3.4-2,2.67-.05-4.37.14-9.56,0-13.77,39.6-1.79,78.22-10.68,117.52-15.11,24.63-5.99,40.09-7.28,65.09-8,6.05-.17,12.14-.78,18.22-.44Z"/>
                <path class="cls-60"
                      d="M163.54,436.83c.86,1.99,1.35,4.1,1.78,6.22-2.97.87-7.96,2.91-5.33,6.66-1.29-.18-1.88-1.37-3.33-1.33-6.33.16-12.5,14.56-14.66,15.11-3.22.54-5.43-1.8-8.22-2.67-.27-2.07-2.02-4.17-2.22-6.22-.01-.11,0-1.92,0-2.22.08-2.6,2.67-14.51,5.55-15.11,12.31,6.93,4.19,8.03,12.22-2.22,7.15-9.14,9.34-9.49,14.22,1.78Z"/>
                <path class="cls-32"
                      d="M97.34,408.39c0,3.88.36,8.06.44,12l-51.54,8.44c-.19-3.22-.82-6.53-.44-9.78,3.04-.09,6.72.27,9.55,0,3.64-.35,27.24-6.18,29.77-7.55.22-.12,3.13-3.06,2.44-3.11h9.78Z"/>
                <path class="cls-31"
                      d="M169.32,442.61c-3.98,1.08-3.81.39-4,.44-.43-2.12-.92-4.23-1.78-6.22,0-.29-.13-.77.22-.89,5.14-1.82,58.72-10.93,71.54-15.11l22.44-3.78c-29.17,9.52-58.82,17.5-88.42,25.55Z"/>
                <path class="cls-23"
                      d="M65.57,473.71c4.99-.2,6.91,5.34,10,7.33,2.29,4.3-2.98,7.96-4.22,8.22-5.25,1.08-5.66-3.77-8-2.67-4.72-4.06-2.45-12.7,2.22-12.89Z"/>
                <path class="cls-46"
                      d="M118.67,496.81c-1.57.99-11.12,7.01-11.55,7.55-1.3.06-1.25-.89-1.33-.89.46-4.71,4.95-2.05-1.78-7.33,8.99-6.01,8.68-6.85,14.66.67Z"/>
                <path class="cls-46"
                      d="M169.32,442.61c3.76,5.74-2.54,8.46-7.78,8-1.13-.1-1.47-.88-1.56-.89-2.63-3.75,2.36-5.79,5.33-6.66.19-.06.02.64,4-.44Z"/>
                <path class="cls-62"
                      d="M90.23,484.37c-.51.68-.05,2.91,0,3.78,3.44-2.56-1.79,2.1.44,5.11-1.36,2.23-4.47,3.11-5.33.44,3.26.09,5.53-.93,2.89-4-.77,2.11-2.25-3.89-6.89.44-1.38-4.06.18-3.5,3.11-4,.99-.17,5.15,1.44,4.89-2.67.03.05.81.19.89.89Z"/>
                <path class="cls-31"
                      d="M90.67,493.26c-2.24-3.01,3-7.67-.44-5.11-.05-.87-.51-3.1,0-3.78,1.59-2.12,5.87-.39,4.89,2.89-.35,1.19-2.63,1.62-2.67,1.78-.03.14,2.08,1.04,2.22,1.78.32,1.61-2.44,4.78-4,2.44Z"/>
                <path class="cls-23"
                      d="M54.24,489.7c-1.64-.52-2.4-1.65-1.33.89-.91.67-1.68,1.4-2.44,2.22-2.77-.23-2.33-1.66-2.44-1.78,2.21-2.87,1.28-4.59,4.44-6.66,4.86-.47,4.52,2.27,1.78,5.33Z"/>
                <path class="cls-55"
                      d="M43.13,506.59c1.18,1.12,3.01,2.77,1.11,4.44-2.19,1.94-2.98-3.49-7.33-.89-.37-5.56,1.45-3.74,5.55-4.89.9.61.61,1.28.67,1.33Z"/>
                <path class="cls-62"
                      d="M41.8,494.59c-1.23,1.83-1.69,3.2-2.22,5.33-.02.1-.86,1.27-.89,1.78-1.51-.55-1.27.03-1.33,0-2.87-1.55-3.19-4.07-.89-6.22.14-.13.85.81,2-1.78,1.48.7,3.17.82,3.33.89Z"/>
                <path class="cls-57"
                      d="M84.9,503.92c-3.71-1.21-5.36.62-7.55,1.33-4.18,1.36-5.43,3.67-5.55-2.67,3.01.63,12.11-1.41,13.11,1.33Z"/>
                <path class="cls-62"
                      d="M52.46,484.37c-3.16,2.08-2.23,3.79-4.44,6.66-5.14-5.14,2.13-10.99,4.44-6.66Z"/>
                <path class="cls-23"
                      d="M85.34,493.7c-1.25-2.84-2.79,0-4-3.55,4.64-4.33,6.12,1.67,6.89-.44,2.64,3.07.37,4.09-2.89,4Z"/>
                <path class="cls-23" d="M89.34,483.48c.26,4.1-3.89,2.5-4.89,2.67-2.52-3.33,1.34-8.09,4.89-2.67Z"/>
                <path class="cls-46"
                      d="M133.77,460.82c-2.79-.86-6.87-.81-7.11-1.11l4.89-5.11c.2,2.05,1.95,4.16,2.22,6.22Z"/>
                <path class="cls-46"
                      d="M84.9,503.92c.03.09.06,1.92,0,2-.16.2-3.97,2.91-4.22,2.89-.24-.02-1.4-2.39-3.33-3.55,2.2-.72,3.84-2.54,7.55-1.33Z"/>
                <path class="cls-31" d="M39.58,499.92c.53-2.13.99-3.5,2.22-5.33,6.2,2.73-.94,8.5-2.22,5.33Z"/>
                <path class="cls-12"
                      d="M49.13,496.81c1.95-.87,4.29,1.64,4.22,2.89-.06,1.17-3.12,2.95-3.33,2.89-.48-.15-2.2-5.19-.89-5.78Z"/>
                <path class="cls-55"
                      d="M88.01,503.48c-1.01-.62-.76.02-1.78,0-1.06-1.49-2.12-1.42-1.78-2.44.51-1.56,6.05-1.03,3.55,2.44Z"/>
                <path class="cls-55" d="M87.79,495.92c.1-.05,1.97,1,2,1.11,1.65,6.14-6.49.97-2-1.11Z"/>
                <path class="cls-2"
                      d="M95.56,502.14c-.35.91.01,2.3-.67,2.67-.72.39-5.83-.57-2.22-2.67.05-.03.83.92.89.89.4-.19-.08-1.72,2-.89Z"/>
                <path class="cls-2"
                      d="M95.56,502.14c-.68-1.5-2.21-1.85-2.22-2-.03-.3,3.16-4.98,3.55-.89.1,1.08-.98,1.96-1.33,2.89Z"/>
                <path class="cls-2" d="M99.78,505.26c1.92.4,1.06,3.99-.89,3.55-2.03-.46-.97-3.94.89-3.55Z"/>
                <path class="cls-2" d="M106.23,507.92c-.38,1.45.95,2.13-1.78,2.67-.14-.29-3.63-4.3,1.78-2.67Z"/>
                <path class="cls-55" d="M100.23,499.48c2.2-.87,1.68,3.82.89,4-1.7.39-1.12-3.91-.89-4Z"/>
                <path class="cls-2"
                      d="M105.78,503.48c.08,0,.03.95,1.33.89-.22.28-.76,1.38-.89,1.78-2.62.55-3.47-2.64-.44-2.67Z"/>
                <path class="cls-46" d="M88.01,503.48c2.22,1.36,1.41,4.49-1.78,0,1.02.02.77-.62,1.78,0Z"/>
                <path class="cls-7" d="M44.69,499.48c1.71-.39,1.22,1.58.44,1.78-1.06.27-1.5-1.54-.44-1.78Z"/>
                <path class="cls-62" d="M54.24,489.7c-1.12,1.24-1.27.84-1.33.89-1.07-2.54-.31-1.41,1.33-.89Z"/>
                <path class="cls-60"
                      d="M372.15,395.95c5.86-.17,3.97,14.01,3.33,18,9.03,1.71,10.72,2.15,2.44,7.33-21.17-5.74-26.78,4.04-28.44,4.44-8.73,2.11-5.72-13.51.44-13.33,1.85-4.96,18.24-16.33,22.22-16.44Z"/>
                <path class="cls-55"
                      d="M332.83,479.48c-.12-.27-2.27-.98-2.22-5.11-.39-.59-.89.87-1.78,1.11-7.25,1.92-4.97-3.73.89-5.55-6.63.04-9.09-6.38-.89-4.44-4.99-7.5,2.56-5.97,4.67-.67,3.5-8.25,8.63-2.97,4.22,1.11,11.19-.32,1.08,3.07.89,3.55-.14.34,4.74,2.8,4,5.78-.84,3.41-5.94-.84-7.33-2-1.07,2.79,1.19,3.98-2.44,6.22Z"/>
                <path class="cls-46"
                      d="M332.83,479.48c.78,1.79,1.69,7.78,4,9.78.19,1.87.43,2.53.44,2.67-.78.07-2.54.07-3.11.44-.67-2.98-2.7-.42-2.89-.44-.5-.07-.76-1.6-1.33-1.78-2.01-.63-2.01,2.66-4.44.89-2.74,1.95,2.1,3.38-2.44,4-.67-.89-3.88-5.45-4-5.78,1.37.21,1.22-1.2,1.78-1.78,3.05-3.2,6.24-7.58,8-12,.89-.24,1.39-1.7,1.78-1.11-.05,4.13,2.11,4.84,2.22,5.11Z"/>
                <path class="cls-62"
                      d="M397.7,459.49c-1.72,2.46-3.34,4.62-6.66,4.89-.14.01-.3,0-.44,0-4.77-.19-9.18-6.2-7.11-8.22-2.17-1.57-.52-4.91.89-6.89,12.27-.84.58,5.49,8.22,7.55,2.09.56,1.61-2.79,5.11,2.67Z"/>
                <path class="cls-55"
                      d="M334.16,492.37c-.11.07.48.72-1.78,2,4.25,2.07,4.88,4.83-.22,3.33-.28.12.49.51.67,2.67-2.48,2.9-2.88-1.28-3.78-.89-.97.43-.41,5.92-3.78.44,1.58-1.36-.24-2.63-1.33-3.55-.22-.46-.58-.93-.89-1.33,4.55-.62-.3-2.05,2.44-4,2.43,1.77,2.43-1.52,4.44-.89.57.18.83,1.71,1.33,1.78.19.03,2.22-2.53,2.89.44Z"/>
                <path class="cls-33"
                      d="M292.4,464.82c3.85,10.04,9.75,19.04,13.33,29.33-1.27,1.95-3.29-2.45-4.89-5.33-4.74-8.56-6.57-14.95-9.78-23.55l1.33-.44Z"/>
                <path class="cls-3"
                      d="M314.61,490.15c.43,4.52-1.72,13.09-4.44,17.11-2.17-9.79,1.03-18.14.89-21.11,2.33-.55,3.39,2.25,3.55,4Z"/>
                <path class="cls-33"
                      d="M342.16,497.26c-.44,1.74-1.96,2.91-2.67,4.44-.65.07-.3-.81-.67-.89-.06-.01-.37.65-1.11.44.47-1.29-.29-7.46-.44-9.33-.01-.13-.25-.8-.44-2.67-1.24-12.1-.78-13.09,2.67-.67.47,1.71.29,7.79,1.78,5.33.26-.42.12-12.2,1.33-8.44.33,1.03-.06,10.25-.44,11.77Z"/>
                <path class="cls-25"
                      d="M314.83,471.93c4.73,14.78-.44,17.08-1.78,6.22-2.03,6.21-4.36,2.53,1.78-6.22Z"/>
                <path class="cls-3"
                      d="M362.6,477.26l-2.67,8.44c-.96-.65-3.04-1.2-3.55-2-.94-1.48,1.82-2.46.67-2.89-.9-.34-1.31,2.5-3.33,2.22,2-3.19,5.62-4.23,8.89-5.78Z"/>
                <path class="cls-2" d="M345.49,485.26c3.73-1.39,3.05,4.08.89,4.44-2.35.39-2.44-3.87-.89-4.44Z"/>
                <path class="cls-25" d="M320.83,487.48c-.55.58-.41,1.99-1.78,1.78-1.87-5.14.05-10,1.78-1.78Z"/>
                <path class="cls-46" d="M318.83,479.04c.37.26.22.9.22,1.56.02,3.34-1.74-.42-.22-1.56Z"/>
                <path class="cls-46" d="M323.94,496.37c-.09-.07-2.27-.34-.89-1.33.31.41.67.87.89,1.33Z"/>
                <path class="cls-56"
                      d="M224.86,235.55c19.96,0,40,0,59.98,0-.02,1.16,3.21,1.91-6.44,7.55-.93.54-4.95.19-5.55,4-3.61.05-26.59-.28-27.77.44-2.01,1.23,9.71,3.38,11.11,3.55,6.27.77,12.09-.05,18.88,1.33.97.2,9.55,2.84,10,3.11.72.43-.74,1.4,0,1.78.41.21,8.09-.69,7.55,2.67,3.73-.7,8.01,2.13,11.11,3.11,5.32,1.67,11.13,2.32,16.44,4,.43.14,1.25,1.21,8.22,3.55.23.08,3.31,2.01,4.22,2.22,3.91.89,14.52,1.11,19.77,1.78-.55,2.45-.78,5.1-1.33,7.55-1.6,7.04-3.41,14.02-4.89,21.11-.33,1.57-2.71,1.97-.44,4.67-.67.41-.67,1.56-.89,2.22l-.89.22c-1.34-4.96-1.21-9.7-1.78-14.66-1.87-16.46-2.68,6.24-5.78,12,2.61.85-.1,1.38,0,4.22-1.45-3.52-2.13-.58-3.55,4-2.18-3.22-1.33-12.2-2.22-18.44-1.79,4.37-1.87,8.58-1.78,13.11h-1.33c.18-8.57-.54-.36-2.22,5.55-.06.35.9.18.89.22-.05.28.05.61,0,.89-3.69,3.79-2.28,7.7-4.89-7.78-.26-1.57.8-2.89.44-3.55h-1.33c-.38-9.46-1.75,11.78-3.55,13.77-1.89,2.09-.49-7.44-2.89-14.88-.96-.58-3.01,10.87-3.33,12-3.61-.57-.41-7.17-4.22-13.77-.42-.04-3.35,7.35-3.33,7.78.09,2.03,3.41-1.36-.89,5.11-3.66-14.52-2.9-17.5-4.44-4-2.66-2.13-.82,4.11-1.33,7.78-.51.7-.88.61-.89.67-2.27.44-.95-1.77-1.33-2.44-2.4-4.17-3.15.25-4.89,5.33h-.89c.87-2.08-.32-17.36-1.56-7.33.39-2.48-2.54-5.88-2-7.33.23-.62.83,1.52,1.33.44.2-.41-1.29-7.62-1.11-9.11-1.5,7.08-3.67,14.15-4.67,21.33-2.9-7.75-1.11,1.94-3.55.44.55-7.95.06-10.91-2.67-2.44l-2-10c-1.03,6.17-5.07,14.37-2.44,14.44l-1.78,2.67-2.44-16.22-2.44,10.44c1.03,3.19-.04,4.04,0,6-.64-.76-1.58-2.64-1.78-3.55-.36-1.66-1.01-5.94-1.33-8-.44-2.78-.27-7.09-1.11-10.22-1.56,2.34-1.14,7.62-1.56,9.78-.78,4.02-3.17,10.58-4,14.44-.16.76,1.22,1.56-.89,4.67,0-.05-.82-.29-.89-.67-.16-.88,2.19-.54-.44-2.67-2.32-17.3.32-10.28-4-5.11-.03-.12-.69.25-.44-2.44h-.89c.22.92-.89,10.67-2,10-3.61-15.67-.61-18.04-5.11-3.55-.01-.05-.82-.29-.89-.67-.86-4.65-.93-9.47-2.44-14-.39,5.56-3.21,11.96-3.33,12.66-.02.12,1.26-.15.89,2.22-.29,1.86-2.06,4.16-1.78,6h-.89c-.36-2.84-1.74-4-1.78-4.22-.08-.47,1.44-1.01-.67-9.11-.16,5.55-1.94,9.71-2.44,12-.32,1.46-.59,2.97-.89,4.44-1.27-3.6.49-4.36.44-5.55-1.56-1.15-2.02-13.82-3.11-5.78-.18,1.29.7,2.04.44,3.11-.63.78-.84.9-1.78,1.11-.21-5.15-1.43-10.48-2.67-15.55-.85-3.47-.93-7.88-3.33-9.78-.93,5.6-2.29,10.99-3.78,16.44-.69,2.51-1.52,5.03-2.22,7.55-2.12,7.62-4.47,14.35-6.22,22.22h-6.22c-.02-.62-.54-1.85-.67-3.11-.21.99-.7,1.78-1.11,2.67l-2.67-.89c-.13-.39-.36-.51-.44-.89-.13-.61.23-2.2-.22-2.22-.65,4.2-1.3,1.81-4.22,1.33-.74-1.7-.7-3.69-1.33-.44-1.39-.41-2.14-.17-3.11-1.33-2.35-2.8-1.24-5.69-1.33-6-.05-.15-1.53-1.75-1.78-2.67-.11-.42.57-2.33-1.33-8.44h-.89l-.89,6.44c-.12-.24-.7.76-.89.22-.2-.58-.05-6.82-2-12.22-1.55,4.52-3.25,14.84-4.67,17.77-.03.06-.68.86-.89.89-.05-3.46-.33-6.92-1.56-10.22-2.18,3.45-.41,16.37-6.44,8.44.4-.06.78,1.13,1.78-.22-3.49-4.99-2.99-14.01-5.11-20.22l-4.22,19.99c-.37-.1-.91.06-1.33,0-2.36-3.56-.19-2.06-.44-3.78-5.94-29.99-3.87-22.69-8.89,1.56-2.32-4.27-2.26-14.19-4.22-19.55l-4.22,19.77c-.64.55-8.45-3.77-9.78-4.22-.54-2.64.17-3.33,1.33-5.55-1.96-4.66-.41-4.2-.44-4.44-.07-.49-2.18-5.05-2.22-5.33-.37-2.37.18-10.82-2.89-17.11-3.12,5.5-2.75,10.75-2.89,11.33-.75,3.06-3.43,11.38-3.55,12-.06.29,1.06-.02.89.89-.02.12-1.22,1.09-1.33,2-1.02,1.02-5.44-1.38-6.66-2.22-.32-.22-3-2.49-3.11-2.67-.96-1.49-2.29-17.76-3.33-18.22-2.04-.89-3.89,13.85-4.22,16-1.59-1.11-2.09-.63-2-3.55-2.11.11.25,2.83-5.11.89-.35-4.08-1.92-10.89-2.89-15.11-.81-.03-2.89,9.33-2.89,11.11h-2.22c0-.07-.87-.85-.89-1.11-.07-.93.9-1.68.89-1.78-.08-.82-2.2-11.97-2.89-11.77-2.02,4.82-2.63,9.96-4.22,14.88h-.89l-2.44-16.66-2.89,16s-.86.14-.89-.22c-.11-1.57-1.94-24.61-4-14.22-.4,2.01,1.3,1.14.44,2.67-1.73.35-7.77-27.51-8.44-29.99,15.93-2.58,18.34,2.03,19.33,2.22,2.63.52,18.75-.18,21.77-.89.87-.2,16.54-6.7,15.11-8-43.09.26-32.63-.77,4-.44l42.43-13.55-108.41.22c-.32-1.16-1.04-2.46-1.33-3.55-.12-.59.06-1.6.67-1.78,1.97-.59,35.44,0,41.1,0,4.29,0,8.6,0,12.89,0,17.69-.03,35.4.03,53.1,0-3.1-2.14-6.7-3.5-10-5.33-1.24-.69-9.62-5.23-9.78-5.78,30.19-.78,60.43-.44,90.64-.44Z"/>
                <path class="cls-45"
                      d="M109.34,228.44c-1.63,2.48-7.39.51-14.88,2.22-1.38.32-8.01,2.26-7.55,4l-2,.44c-2.89-.28-5.81,1.23-8.66,1.33-6.44.24-12.8-3.29-10.44.44-6.89-1.35-4.07,4.48-10.44,3.11l-1.78,4.89c-2.9-3.19-7.43-5.02-7.78-5.33-.55-.49-.39-1.5-.44-1.56-.67-.71-2.58-.4-4-6,5.86-1.84,11.54-4.18,17.33-6.22,10.55-.09,30.88-1.11,40.21,0,3.44.41,7.03,1.91,10.44,2.67Z"/>
                <path class="cls-3"
                      d="M128.44,233.33c3.5,1.29,3.81,1.05,7.33,0,.45.92-2.11.76-1.56,2.67.16.55,8.53,5.09,9.78,5.78-2.01,5.43-2.29.84-4.67.89-1.49.03-.84,2.48-4.22.44-.09-.05-.12-.73-1.11-1.78-3.83.53-7.53-1.91-11.11-2.22-12.43-1.09-25.65,3.43-38.21,1.33-.63-3.5-2.44-2.72.22-5.33l2-.44c-.45-1.74,6.17-3.68,7.55-4,7.49-1.71,13.26.26,14.88-2.22,6.33,1.4,12.66,3.82,19.11,4.89Z"/>
                <path class="cls-34"
                      d="M128.44,233.33c-6.45-1.07-12.78-3.49-19.11-4.89-3.41-.75-7.01-2.26-10.44-2.67-9.33-1.11-29.66-.09-40.21,0,20.09-7.09,29.74-10.94,50.88-2.67,5.63,2.2,17.66,9.77,18.88,10.22Z"/>
                <path class="cls-25"
                      d="M1.36,243.1l9.78-4.44c-.22.27.87.23-.22,1.33-.28.28-6.27,4.42-6.66,4.44-.69.05-1.17-1.09-2.89-1.33Z"/>
                <path class="cls-32"
                      d="M28.91,419.06c.13,1.13-.37,2-.44,3.11-4.06-.74-11.79-2.17-10.66-3.55,3.64.16,7.48.36,11.11.44Z"/>
                <path class="cls-55"
                      d="M11.14,447.94c-1.29-.32-3.01-3.25-1.78-4.89,5.17-4.56,6.68,6.09,1.78,4.89Z"/>
                <path class="cls-4"
                      d="M9.36,443.05c-1.23,1.64.49,4.57,1.78,4.89-1.07,2.75-3.25,3.27-3.78,6.22l-1.11-4.89c.61-.61,1.18-2.1,0-2.22.51-.59,1.19-.36,2.22-1.56.14-.16-1.68-.18.89-2.44Z"/>
                <path class="cls-55"
                      d="M3.36,457.27c1.68-.2,4.9,2.06,2.22,5.33-1.23-1.4-2.93.04-3.11,0-2.34-.56-1.46-5.06.89-5.33Z"/>
                <path class="cls-55" d="M12.7,458.6c3.5-1.39,3.65,3.47,1.78,4-2.25.64-4.08-3.08-1.78-4Z"/>
                <path class="cls-43"
                      d="M6.25,449.27c-.61.61-1.96.29-2.44,1.33-.9-1.46,1.19-2.12,2.44-3.55,1.18.13.61,1.61,0,2.22Z"/>
                <path class="cls-69" d="M8.7,464.38c.45-.16,2.89-.07,2.89.67,0,1.58-5.42.22-2.89-.67Z"/>
                <path class="cls-8"
                      d="M65.35,318.64c5.86,1.14,4.92,2.82,5.55,3.11,2.6,1.19,5.96,1.62,8.66,2.67,1.47.57,2.96,1.22,4.44,1.78.46.17,1.31.27,1.78.44,18.22,6.77,36.37,13.54,55.54,17.33,7.21,2.25,14.5,4.63,21.77,6.66,1.04.29,2.07.6,3.11.89,4.25,1.19,8.38,3.34,12.89,3.55.15,0,.3,0,.44,0,2.64,2.02,10.82,4.49,14.22,4.89,0,.3-.11.8.22.89,3.14.8,16.11,4.05,17.77,4.89.56.28-.24,1.22.67,1.78,3.88,2.38,2.42-2.48,2.67-8,1.87-.18,3.86-.87,5.78-.89,4.47-.76,5.06-1.71,5.33-1.78,0,.29-.12.77.22.89,1.96.69,38.11-9.22,40.43-9.33,4.8-.23,8.01,3.71,10,5.33-2.73-.17-5.63,11.6-5.33,12.22.21.43,4.86,1.18,5.11,1.11.65-.19.56-2.43,3.33-1.78.25.85.34,1.06.89,1.78-16.98,9.17-4.34.67-5.55,16.44,3.99.29,10.35-.81,9.55,1.33-25,.72-40.47,2.01-65.09,8-39.3,4.43-77.92,13.32-117.52,15.11,0-.05-.88.14-.89-.22,0-.23.71-1.58.44-4.67,3.09-1.52,6.64.58,10-.44,1.42-.43,1.42-2.28,2.22-2.67,1.01-.48,14.29,3.3,13.55-3.11,4,.29,10.14-.68,15.77.44,2.24-2.84,3.79-2.09,4-2.22,6.02-3.68,2.2-2.73,1.11-4.22-.17-.24.62-4.52-3.55-1.56-.44-.44-.92-.88-1.33-1.33.6-12.7-6.34-10.02-7.33-10.22-.3-.06-3.15-2.67-5.55,0-2.45-1.42-5.48.39-8.44,1.33-.55-1.04-4.72-3.95-4.89-4.22-.66-1.07-1.16-5-1.78-6.66-.08-.23-1.22-.88-1.78-2.44-2.06-5.78.46-4.87-5.78-15.55-1.29-2.21-3.31-6.86-5.11-8-.05-.03-.39.69-1.11.44-.1-.03-.97-1.35-1.56-1.33-1.82,1.68-4.65.96-6.22,1.78-1.11.57-3.47,4.36-1.11,4.44-4.84.45-8.72,13.39-9.78,17.77-3.58-2.05-7.64-5.03-12-4-.67-2.23-1.35-4.5-2.22-6.66,1.26.38,6.14,1.82,6.22.22.09-1.87-10.06-31.02-11.55-35.55-.14-1.18,1.62-.47,1.78-.67Z"/>
                <path class="cls-15"
                      d="M299.06,342.19s.18.31-.44.44c-7.23,1.6-14.45,3.06-21.77,4.22,8.46,4.37,15.66,10.57,21.33,18.22-.25.54-9.56-3.46-11.33-.67l-1.56-.89c-1.89-3.72-4.12-6.13-7.11-8.89-.54-.5-.97-.59-1.33-.89-1.98-1.62-5.19-5.56-10-5.33-2.32.11-38.47,10.02-40.43,9.33-.35-.12-.22-.6-.22-.89.14-.03,1.38-1.03,2.44-1.33,9.47-1.66,18.97-3.62,28.21-6.22.98-.28,1.27-.42,1.33-.44,3.02-.28,5.94-1.18,8.89-1.78.93-.19,2.13-.25,3.11-.44,8.9-1.8,20.08-4.67,28.88-4.44Z"/>
                <path class="cls-23"
                      d="M355.93,333.75c.06.94,0,1.23,0,1.33l-50.88,6.22c-.76,1.65-3.16,1.31-4.67,1.33-.05-.27.03-.6,0-.89,5.03-1.06,10.04-2.21,15.11-3.11,1.12-.2,2.4-.26,3.55-.44,2.03-.33,4.18-.59,6.22-.89,2.49-.36,5.09-1.01,7.55-1.33.57-.07,1.2.07,1.78,0,2.11-.27,4.34-.21,6.44-.44.35-.04.09-.85.44-.89.17-.02.43.76,3.33.44,3.69-.4,7.38-1.18,11.11-1.33Z"/>
                <path class="cls-51"
                      d="M359.93,337.75c-.05,1.64-.86,8.43-3.78,4.89-.53-.64-.13-6.11-.22-7.55,0-.1.06-.4,0-1.33-.18-2.72.03-7.18,0-7.55.71.44,3.72-.77,4-.22.26.53.05,10.34,0,11.77Z"/>
                <path class="cls-3"
                      d="M278.18,354.63c2.98,2.75,5.22,5.17,7.11,8.89-.57,2.33-2.45,2.48-4.44,3.55-.54-.72-.64-.93-.89-1.78-.68-2.26-3.61-10.18-1.78-10.66Z"/>
                <path class="cls-51"
                      d="M300.39,341.74c.03.29-.05.62,0,.89.44,2.17-1.66,1.73-1.78,0,.62-.14.41-.44.44-.44.07-.01-.35-.09,1.33-.44Z"/>
                <path class="cls-59"
                      d="M394.59,232.89c-3.62,7.07-8.72,2.73-9.55,2.67-3.55-.25-2.57,1.49-2.89,1.78-.24.22-.56-.72-.89-.22-.63.97-.9,3.38-1.33,4.67-.57,1.7-1.28,3.66-1.78,5.33-35.08.38-70.23-.51-105.3,0,.61-3.81,4.63-3.46,5.55-4,9.65-5.64,6.42-6.39,6.44-7.55.09-5.33,2.12.4,3.78.44.6.02,9.02-4.96,10.44-5.78,2.7,1.96,3.08.31,6,0,11.77-1.23,15.11-2.67,26.22-6.22,2.86-.17,10.78,2.65,23.99,1.78,2.47-.16,9.57-.96,8.66-2.22,6.3,1.58,12.26,3.93,18.44,5.78.09.03.54-.81,1.78-.44.09.03.29,1.03,1.33,1.33,2.39.7,7.64,2.36,9.11,2.67Z"/>
                <path class="cls-34"
                      d="M363.93,223.55c.91,1.26-6.2,2.06-8.66,2.22-13.21.87-21.13-1.95-23.99-1.78-11.1,3.55-14.44,4.99-26.22,6.22-2.92.31-3.3,1.96-6,0,2.62-1.51,5.15-3.39,8.22-4,5.93-10.38,2.64-2.5,6.66-2.67,6.74-.28,6.35-10.95,49.99,0Z"/>
                <path class="cls-45"
                      d="M97.78,401.73c.4,3.01-.44,6.33-.44,6.66h-9.78c-.17-1.84-.84-3.58-1.33-5.33l4.89-3.11c.97.27,6.32,1.77,6.66,1.78Z"/>
                <path class="cls-46"
                      d="M91.12,399.95l-4.89,3.11c-.42-1.49-.75-3.89-1.33-4.89,1.05-.58,3.78,1.1,6.22,1.78Z"/>
                <path class="cls-3" d="M2.03,488.82c.46.58,2.44,3.98,2.44,4.22.12,3.92-4.13-2.22-2.44-4.22Z"/>
                <path class="cls-2"
                      d="M271.51,502.59c-2.01-3.13-1.09.92-3.55-.44-4.3-5.33-1.02-10.37,2.44-7.55,6.42-4.43,6.98,9.04,1.11,8Z"/>
                <path class="cls-55"
                      d="M291.95,505.26c-4.14-2.81-2.97,1.02-5.78,0,.04-1.13-.88-1.36-.89-1.56-.04-.93,1.76,0,1.78-.44,0-.14-1.04-.81-1.33-1.56,1.46.15,1.14-2.07,1.78-2.67,3.01-2.81,10.68,3.76,4.44,6.22Z"/>
                <path class="cls-33"
                      d="M287.51,499.03c-.64.59-.32,2.81-1.78,2.67-.08-.21.8-2.46-2.22-3.11-2.6-.56-4.96.56-6.89,2.22,1.47-4.98,8.18-6.26,10.89-1.78Z"/>
                <path class="cls-55" d="M280.84,503.03c-.08.27.81-.05-.89,4-3.1,1.38-3.99-4.58.89-4Z"/>
                <path class="cls-45"
                      d="M395.92,362.18l-.44,4c-2-.6-3.31-2.08-4.44-2.67,1.67-2.55,2.67-1.36,4.89-1.33Z"/>
                <path class="cls-3"
                      d="M371.49,485.7c-.95-1.08-3.16,2.39-4,4.44-.84-.19-1.49-1.01-2.22-1.33-.46-1.78-1.47-12.07,2-11.55,1.32.2,3.98,8.03,4.22,8.44Z"/>
                <path class="cls-33"
                      d="M371.49,485.7c.33.57,2.47-.59,5.78,11.55-2.88-1.86-6.18-3.9-6.44-7.55-1.88.4-1.16.94-3.33.44.84-2.06,3.05-5.52,4-4.44Z"/>
                <path class="cls-25"
                      d="M359.05,501.7c-3.75-2.66,2.81-4.55,4.89-6.22.09.12,1.52-.07,2.22,2-2.11,2.21-6.45,3.7-7.11,4.22Z"/>
                <path class="cls-2" d="M289.51,505.26c.65-.21,2.25.13,2,1.11-.47,1.82-3.82-.51-2-1.11Z"/>
                <path class="cls-19"
                      d="M21.8,260.88c-.07.25.07.64,0,.89-5.46.18-10.99-.25-16.44,0,1.64-1.89,10.93-.43,16.44-.89Z"/>
                <path class="cls-3"
                      d="M346.16,502.14c2.4-2.92,4.74-5.94,7.11-8.89,1.51,4.61-2.67,4.64-2.89,4.89-.9,1-2.65,5.15-4.22,4Z"/>
                <path class="cls-27"
                      d="M23.14,255.1c-.21.81-.18,2.09-.44,3.11l-8.44-.22c2.74-1.53,5.54-2.24,8.89-2.89Z"/>
                <path class="cls-49" d="M397.48,478.6c.25.97-.4,2-.67,2.89-1.94,6.49-1.13-.25.67-2.89Z"/>
                <path class="cls-33"
                      d="M337.27,491.93c.15,1.87.91,8.04.44,9.33-.39,1.07-2.76,3.78-3.78,4.89-.78-.11-1.04-4.85-1.11-5.78-.17-2.16-.95-2.55-.67-2.67,5.1,1.49,4.47-1.26.22-3.33,2.26-1.28,1.67-1.93,1.78-2,.57-.38,2.33-.38,3.11-.44Z"/>
                <path class="cls-46"
                      d="M124,391.06c1.19,3.16-1.73,3.26-1.33,5.11,1.58.02,3.37.56,4.89.67.74,6.41-12.54,2.63-13.55,3.11-.81.38-.8,2.23-2.22,2.67-3.36,1.02-6.9-1.08-10,.44-.08-.91-.69-1.57-.44-2.67,4.47-1.49,7.09-4.16,7.78-4.44,3.7-1.55,10.08-.13,10.44-4.89,2.65.81,3.04-.85,3.33-.89.18-.02,1.04.89,1.11.89Z"/>
                <path class="cls-43" d="M86.9,487.04c1.05.13.28,1.99-.44.89-.29-.45.4-.89.44-.89Z"/>
                <polygon class="cls-17"
                         points="104.67 508.81 105.34 509.03 105.11 509.7 104.89 509.48 104.67 508.81"/>
                <path class="cls-9" d="M331.72,467.49c-1.43,4.23,7.66-.84,0,3.55v-3.55Z"/>
                <path class="cls-9" d="M335.94,469.71c-.16.29.58,1.02-1.11,1.78-.6-1,.61-1.37,1.11-1.78Z"/>
                <path class="cls-18" d="M333.5,467.49c.37-.23,1.14.61,1.11.67-.34.74-2.1-.06-1.11-.67Z"/>
                <path class="cls-30" d="M335.94,469.71s-.21-1.44.89-.67c.18.95-.86.62-.89.67Z"/>
                <polygon class="cls-38"
                         points="332.61 471.49 333.27 471.71 333.05 472.38 332.83 472.15 332.61 471.49"/>
                <path class="cls-30" d="M330.39,493.7c1.65-.59-2.66,8.33-1.11,3.33-3.77-2.43.39-.22,1.11-3.33Z"/>
                <polygon class="cls-9"
                         points="329.05 493.7 329.28 494.37 328.61 494.59 328.39 494.37 329.05 493.7"/>
                <path class="cls-21"
                      d="M53.35,272.87c-1.86-6.81-3.91-13.62-5.78-20.44l108.41-.22-42.43,13.55c-36.63-.32-47.09.71-4,.44,1.43,1.3-14.24,7.79-15.11,8-3.02.71-19.14,1.41-21.77.89-.99-.2-3.4-4.8-19.33-2.22Z"/>
                <path class="cls-21"
                      d="M376.82,252.44c-1.62,5.99-2.94,12.19-4.44,18.22h-15.55c-2.71-9.2-1.91-5.41-3.11-.44,0,.03-.3-.18-.44.44h-24.88c-6.97-2.35-7.79-3.42-8.22-3.55-5.31-1.68-11.12-2.32-16.44-4-3.1-.98-7.38-3.81-11.11-3.11.54-3.36-7.14-2.46-7.55-2.67-.74-.37.72-1.35,0-1.78-.45-.27-9.02-2.91-10-3.11h101.75Z"/>
                <path class="cls-26"
                      d="M378.15,247.1c-.48,1.62-.87,3.63-1.33,5.33h-101.75c-6.79-1.38-12.61-.57-18.88-1.33-1.4-.17-13.12-2.33-11.11-3.55,1.19-.72,24.16-.39,27.77-.44,35.08-.51,70.22.38,105.3,0Z"/>
                <path class="cls-49"
                      d="M295.51,320.42c-.69,5.02-1.28,6.53-1.33,6.89-.02.13.91.76.89.89-.17,1.08-.83.5-.89.89-.09.61.57.7.44,1.56,0,.05-.83-.15-.89.22-.36,2.49-.37,5.06-.89,7.55l5.78-2.44c.16.46,5.07,5.75,7.11-.44,2.35,5.46,8.75.31,9.78,3.11-5.07.9-10.08,2.05-15.11,3.11-1.69.36-1.26.43-1.33.44-8.8-.23-19.98,2.65-28.88,4.44,1.49-1.32.54-2.52,2.67-2.89-.78.5-1.75-4.59-1.78-4.89-.01-.15.9-.74.89-.89-.01-.23-2.73-.62.44-3.33.79.12,1.41-.21,2.22.44.09,4.81,4.91,3.48,5.78,2.44.48-.57-1.92-10.64.44-12-1.98-1.61-.86-1.21-.44-4.22,1-7.18,3.16-14.25,4.67-21.33-.18,1.49,1.31,8.69,1.11,9.11-.51,1.07-1.1-1.07-1.33-.44-.54,1.45,2.39,4.85,2,7.33,1.24-10.03,2.42,5.25,1.56,7.33h.89c1.73-5.08,2.49-9.5,4.89-5.33.39.68-.94,2.88,1.33,2.44Z"/>
                <path class="cls-14"
                      d="M224.42,338.63c-.04.2-1.52,1.99-1.33,3.78.26,2.53,1.75,3.55,1.78,3.78.13,1.18-.53,5.2-.44,5.78-1.7-.56-3.81-2.4-5.55-1.33.92-1.54-4.3-8.06-5.78-7.11,3.35,7.61.01,2.28-.67,4.22.68,3.09-1.38,3.87-1.78,5.78-.3,1.47.75,4.53.44,4.89-.63.75-3.45-.6-3.11,1.11-2.2.1-4.46.02-6.66,0-1.6.57.06-3.41.89-7.11,1.75-7.87,4.1-14.6,6.22-22.22,9.71-2.65,7.44,2.36,12,1.33.94-.21,1.15-.33,1.78-1.11.26-1.07-.62-1.82-.44-3.11,1.09-8.04,1.55,4.63,3.11,5.78.05,1.2-1.71,1.95-.44,5.55Z"/>
                <path class="cls-33"
                      d="M247.08,325.3c1.04,3.56.51,6.23-1.33,9.55,1.09,5.43-1.1,10.76-1.33,16.44,3.05-.32,9.75-.49,10.22-4.22l2.22.89c-.08.14.05.82,0,1.33-9.25,2.6-18.74,4.56-28.21,6.22-1.06.31-2.31,1.3-2.44,1.33-.27.06-.86,1.01-5.33,1.78.05-1.62,3.52-.57,5.78-2.89-.94.09-2.12-3.13-2.22-3.78-.09-.58.57-4.6.44-5.78,3.54-1.6,3.06-.04,3.55,0,3.08.28,2.78-1.23.44-1.33.02-.14-.02-.3,0-.44,2.79-.35,1.67-6.23,1.33-8.89h.89c.39,2.54,1.43-.11,2.22.67.27.27-.05,6.81,3.33,6,2.31-.56,2.43-7.79,2.44-9.78,0-.4,1.01-.85,0-2.22,1.06-.37-.31-.23-.44-.89,4.5-14.49,1.5-12.12,5.11,3.55,1.11.67,2.22-9.08,2-10h.89c-.24,2.69.41,2.32.44,2.44Z"/>
                <path class="cls-39"
                      d="M326.17,317.31c-.32,1.75-1.25,5.64-2.67,6.44,1.54.79-.31,2.27-.44,6.89-4.65-3.06.7-8.05-6.22-3.78,1.11,2.57.95,5.14,1.33,6.66.14.55,2.29,1.04.89,4.67-1.15.19-2.43.24-3.55.44-1.03-2.8-7.43,2.35-9.78-3.11.08-.23-.16-4.29,0-4.89.49-1.8.62-2.51,2.22-3.78-1.03-3.3,1.15-4.78,2.67-10,.33-1.12,2.37-12.57,3.33-12,2.4,7.44.99,16.98,2.89,14.88,1.8-1.99,3.17-23.24,3.55-13.77h1.33c.35.67-.71,1.99-.44,3.55,2.61,15.47,1.2,11.57,4.89,7.78Z"/>
                <path class="cls-46"
                      d="M84.9,235.11c-2.66,2.61-.85,1.83-.22,5.33,12.57,2.1,25.78-2.42,38.21-1.33,3.57.31,7.28,2.75,11.11,2.22.99,1.05,1.02,1.72,1.11,1.78-5.61-1.35-6.47,3.25-7.78,3.55-2.13.5-10.54-.36-14.22,0-6.43-3.6-8.03-9.4-12.22.44-4.29,0-8.6,0-12.89,0-.57-2.41-3.81-7.06-5.55-3.55-.35-1.14-4.45-3.92-4.89-4-6.47-1.15-.22,7.27-11.77-2.67-2.36-3.73,4-.21,10.44-.44,2.86-.11,5.77-1.61,8.66-1.33Z"/>
                <path class="cls-46"
                      d="M336.38,311.97c.61,1.49.77,10.53,1.78,15.55.34,1.67.72,3.25,1.11,4.89,20.86-3.67,7.47-.84,5.33.89-.62.5-.02,1.27.22,1.78-2.9.31-3.17-.46-3.33-.44-.35.04-.09.85-.44.89-2.1.23-4.33.18-6.44.44.33-5.63-1.66-4.63-1.78,0-2.47.32-5.07.97-7.55,1.33-2.17-1.43-2.3-3.84-2.22-6.66.13-4.62,1.98-6.09.44-6.89,1.41-.81,2.35-4.69,2.67-6.44.05-.28-.05-.61,0-.89,1.43-1.64,1.29-3.79,1.33-5.78h1.33c.03,1.7,1.15,16.78,2.67,12.66.14-.38.76-5.48,1.33-7.33,1.42-4.58,2.11-7.52,3.55-4Z"/>
                <path class="cls-3"
                      d="M141.33,339.08c.94,1.72.49-.11,1.78,1.11.12.12-.1,1.04,0,1.11-1.26.94-2.61,1.81-1.78,2.67-19.17-3.79-37.32-10.56-55.54-17.33.92-3.05,2.24,1.14,2.67-1.78,3.73-.6,6.42,3.93,10,4.44,1.97.28,7.38.14,6.89-2.67,1.22.84,5.65,3.24,6.66,2.22-.03.21,1.48-1.42-.22,3.55,4.07-.14,3.71,1.7,4,1.78,1.7-1.15,5.26.19,7.33.89,1.33.45,9.13,4.77,9.78,4.22l4.22-19.77c1.96,5.36,1.9,15.29,4.22,19.55Z"/>
                <path class="cls-3"
                      d="M65.79,236.88c11.55,9.93,5.3,1.52,11.77,2.67.44.08,4.54,2.86,4.89,4,1.74-3.51,4.99,1.15,5.55,3.55-5.66,0-39.13-.59-41.1,0-.61.18-.78,1.19-.67,1.78-.72-2.68-3.72-10.77-.44-9.33.35.32,4.87,2.14,7.78,5.33l1.78-4.89c6.37,1.37,3.55-4.46,10.44-3.11Z"/>
                <path class="cls-39"
                      d="M276.85,321.75c-.04.56-.93.48.44,1.56-1.65.78-2.7,10.1-2.67,11.77-.81-.66-1.44-.33-2.22-.44-1.83-.27-2.29-1.41-4,.22-.09,1.51-1.47,9.69-2.44,9.55-.64-5.12-2.78-13.16-2.89-17.77-.04-1.95,1.03-2.8,0-6l2.44-10.44,2.44,16.22,1.78-2.67c-2.63-.07,1.41-8.27,2.44-14.44l2,10c2.73-8.47,3.22-5.51,2.67,2.44Z"/>
                <path class="cls-57"
                      d="M123.11,335.08c-2.07-.7-5.63-2.03-7.33-.89-.29-.08.07-1.91-4-1.78,1.7-4.97.2-3.35.22-3.55.12-.91,1.31-1.88,1.33-2,.17-.91-.95-.6-.89-.89.12-.61,2.8-8.93,3.55-12,.14-.58-.23-5.83,2.89-11.33,3.07,6.29,2.52,14.74,2.89,17.11.04.29,2.15,4.84,2.22,5.33.04.25-1.52-.22.44,4.44-1.16,2.23-1.87,2.91-1.33,5.55Z"/>
                <path class="cls-57"
                      d="M79.57,315.08c.09,1.61-.89,2.31-.89,2.44.02.88.87.8.89,2,.03,1.56-.68,3.31,0,4.89-2.7-1.05-6.07-1.48-8.66-2.67-.64-.29.3-1.97-5.55-3.11.64-.81.95-2.95.89-4l2.89-16,2.44,16.66h.89c1.6-4.93,2.2-10.06,4.22-14.88.69-.2,2.8,10.95,2.89,11.77.01.1-.96.85-.89,1.78.02.26.88,1.04.89,1.11Z"/>
                <path class="cls-45"
                      d="M175.98,336.86c.31.6.99.52,1.33,1.11-1.12,2.44,0,12.22,1.78,14.22-2.22,1.41-1.16,1.13,0,2.89-4.5-.22-8.64-2.37-12.89-3.55,1.07-2,1.08-1.71,1.33-4l.89-4.89c1.41-2.93,3.11-13.25,4.67-17.77,1.95,5.4,1.8,11.63,2,12.22.19.54.76-.46.89-.22Z"/>
                <path class="cls-57"
                      d="M259.96,315.08c.33,2.06.97,6.34,1.33,8l-1.33-1.11c-.75,4.54.27,12.21,0,15.11-.04.38-.76,1.5-1.78,7.33-.14.8-.7,1.43,0,2.22-.77,1.44-1.28,1.25-1.33,1.33l-2.22-.89c.4-3.17-1.74-4.4-1.78-4.67-.1-.68.32-1.25,0-3.33-.01-.09.33.31,0-1.78-.19-1.19-.24-2.43-.44-3.55,2.11-3.11.73-3.9.89-4.67.82-3.86,3.22-10.42,4-14.44l2.67.44Z"/>
                <path class="cls-3"
                      d="M261.29,323.08c.2.91,1.14,2.8,1.78,3.55.11,4.62,2.25,12.65,2.89,17.77.97.14,2.36-8.04,2.44-9.55,1.71-1.64,2.17-.49,4-.22-3.18,2.71-.45,3.1-.44,3.33,0,.15-.9.74-.89.89.03.29,1,5.39,1.78,4.89-2.12.37-1.17,1.57-2.67,2.89-.98.2-2.18.25-3.11.44-2.35-1.21-7.35,1.33-8.89,1.78-.07.02-.36.17-1.33.44.05-.51-.08-1.2,0-1.33.05-.08.57.11,1.33-1.33.07-.13,2.13-1.02,0-2.22,1.02-5.83,1.74-6.95,1.78-7.33.27-2.89-.75-10.57,0-15.11l1.33,1.11Z"/>
                <path class="cls-46"
                      d="M252.41,333.75c.2,1.13.26,2.37.44,3.55-1.12.23-.83,1.26,0,1.78.32,2.08-.1,2.65,0,3.33.04.26,2.18,1.5,1.78,4.67-.47,3.73-7.17,3.9-10.22,4.22.24-5.68,2.43-11.01,1.33-16.44,1.85-3.32,2.38-5.99,1.33-9.55,4.32-5.17,1.68-12.19,4,5.11,2.63,2.13.29,1.79.44,2.67.07.37.88.61.89.67Z"/>
                <path class="cls-39"
                      d="M344.83,310.2c-1.89,5.59-2.36,12.48-6.66,17.33-1.01-5.02-1.16-14.06-1.78-15.55-.1-2.84,2.61-3.37,0-4.22,3.1-5.76,3.91-28.45,5.78-12,.56,4.96.44,9.7,1.78,14.66l.89-.22Z"/>
                <path class="cls-3"
                      d="M135.11,243.1c3.38,2.03,2.73-.42,4.22-.44,2.37-.04,2.65,4.54,4.67-.89,3.3,1.84,6.89,3.19,10,5.33-17.7.03-35.4-.03-53.1,0,4.19-9.84,5.79-4.05,12.22-.44,3.68-.36,12.09.5,14.22,0,1.3-.3,2.16-4.9,7.78-3.55Z"/>
                <path class="cls-25"
                      d="M310.61,316.86c-1.51,5.22-3.69,6.7-2.67,10-1.61,1.27-1.74,1.98-2.22,3.78-1.56-1.26-2.61-4.16-3.11-6.22-.28-1.17-.16-3.12-.44-4.44,1.12.12.29-2.83,0-4,4.3-6.47.98-3.08.89-5.11-.02-.42,2.91-7.82,3.33-7.78,3.81,6.6.62,13.21,4.22,13.77Z"/>
                <path class="cls-57"
                      d="M150.66,341.3c-3.54,2.7-4.32-.9-6,1.33-.5-1.65-1.47-1.27-1.56-1.33-.1-.07.12-.99,0-1.11-1.29-1.22-.84.61-1.78-1.11,5.02-24.25,2.94-31.55,8.89-1.56.25,1.71-1.92.22.44,3.78Z"/>
                <path class="cls-39"
                      d="M238.63,329.3c.13.66,1.5.52.44.89-1.67-.18-.94,3.89,0,2.22-.01,1.98-.13,9.22-2.44,9.78-3.38.81-3.06-5.73-3.33-6-.79-.78-1.83,1.88-2.22-.67-.28-1.84,1.48-4.13,1.78-6,.37-2.37-.91-2.1-.89-2.22.13-.71,2.94-7.11,3.33-12.66,1.51,4.53,1.58,9.35,2.44,14,.07.38.88.61.89.67Z"/>
                <path class="cls-46"
                      d="M217.75,315.97c1.24,5.07,2.46,10.41,2.67,15.55-4.55,1.02-2.29-3.98-12-1.33.7-2.52,1.54-5.04,2.22-7.55,6.84,1.56,2.01-7.38,7.11-6.66Z"/>
                <path class="cls-46"
                      d="M167.54,343.52c0,.64.02,3.8,0,4-.26,2.29-.26,2-1.33,4-1.04-.29-2.07-.6-3.11-.89-3.37-2.58-7.78-4.4-9.78-8.44,2.07-.56,4.01-.1,6.22-.44,6.03,7.93,4.27-4.99,6.44-8.44,1.22,3.3,1.5,6.76,1.56,10.22Z"/>
                <path class="cls-46"
                      d="M94.67,321.75c3.01,2.11,4.17,1.11,7.55,2.22.11.17,2.79,2.45,3.11,2.67.49,2.81-4.92,2.95-6.89,2.67-3.57-.51-6.27-5.05-10-4.44-2.75-4.67-.86-5.45-.89-5.78,5.36,1.94,3-.78,5.11-.89-.09,2.93.41,2.44,2,3.55Z"/>
                <path class="cls-25"
                      d="M159.54,341.74c-2.21.35-4.15-.11-6.22.44-1.13.26-.63-.7-1.33-.89l4.22-19.99c2.12,6.21,1.62,15.23,5.11,20.22-1,1.35-1.38.16-1.78.22Z"/>
                <path class="cls-57"
                      d="M87.56,319.08c.03.32-1.86,1.11.89,5.78-.42,2.92-1.74-1.27-2.67,1.78-.46-.17-1.31-.27-1.78-.44-2.88-3.45-.91-5.2-.89-5.78.03-.82.4-.92.44-1.56-.36-.95-1.76.35-1.78-3.78,0-1.78,2.08-11.14,2.89-11.11.97,4.22,2.54,11.02,2.89,15.11Z"/>
                <path class="cls-46"
                      d="M280.4,321.31c-.42,3.01-1.54,2.61.44,4.22-2.36,1.35.04,11.43-.44,12-.87,1.04-5.69,2.36-5.78-2.44-.03-1.68,1.02-10.99,2.67-11.77-1.38-1.08-.48-1-.44-1.56,2.45,1.49.66-8.2,3.55-.44Z"/>
                <path class="cls-25"
                      d="M102.23,323.97c-3.38-1.12-4.54-.11-7.55-2.22.33-2.14,2.18-16.89,4.22-16,1.05.46,2.37,16.72,3.33,18.22Z"/>
                <path class="cls-57"
                      d="M182.2,347.52c-2.22,1.49-.72,5.72.44,7.11-.94.19-2.16.45-3.11.44-.15,0-.3,0-.44,0-1.16-1.76-2.22-1.47,0-2.89-1.78-1.99-2.9-11.78-1.78-14.22-.34-.6-1.02-.51-1.33-1.11l.89-6.44h.89c1.91,6.11,1.22,8.02,1.33,8.44.24.92,1.73,2.51,1.78,2.67.09.31-1.02,3.2,1.33,6Z"/>
                <path class="cls-21"
                      d="M353.27,270.65c-.31,1.32-.59,2.68-.89,4-5.25-.67-15.86-.89-19.77-1.78-.92-.21-4-2.15-4.22-2.22h24.88Z"/>
                <path class="cls-46"
                      d="M150.66,341.3c.42.06.97-.1,1.33,0,.71.19.2,1.15,1.33.89,2,4.04,6.4,5.86,9.78,8.44-7.27-2.04-14.56-4.41-21.77-6.66-.83-.86.51-1.73,1.78-2.67.08.06,1.05-.32,1.56,1.33,1.68-2.24,2.46,1.37,6-1.33Z"/>
                <path class="cls-57"
                      d="M195.98,352.41c.06,2.65-1.9,4.62,0,7.55-1.8-.74-1.93.03-2.22,0-3.39-.39-11.58-2.87-14.22-4.89.95,0,2.17-.25,3.11-.44.72-.15,1.5-.21,2.22-.44.25,5.6,4.22,2.84,4.44,2.44.08-.15-.38-2.73-.44-3.33,1.98.12.84-2.29,2.22-3.11.08.38.31.5.44.89,1.02,3,1.07,4.33,2.67.89.41-.89.9-1.68,1.11-2.67.12,1.26.65,2.49.67,3.11Z"/>
                <path class="cls-49"
                      d="M332.83,315.97c-.58,1.86-1.19,6.95-1.33,7.33-1.51,4.12-2.63-10.96-2.67-12.66-.09-4.53-.01-8.74,1.78-13.11.9,6.24.05,15.22,2.22,18.44Z"/>
                <path class="cls-3"
                      d="M297.73,311.97c1.6,1.28,2.3,2.07,2.22,4-.02.41-.89,1.89-.89,2,0,4.9-.44,3.78-.44,4,0,.11.92.94.89,2-.03,1.16-.86.17-.89,3.11-1.77-3.77-1.96,2.73-4,3.55.13-.85-.53-.95-.44-1.56.06-.39.72.2.89-.89.02-.12-.91-.76-.89-.89.05-.35.64-1.86,1.33-6.89,0-.06.38.03.89-.67.51-3.67-1.32-9.9,1.33-7.78Z"/>
                <path class="cls-3"
                      d="M217.75,315.97c-5.09-.71-.27,8.22-7.11,6.66,1.49-5.45,2.85-10.84,3.78-16.44,2.4,1.89,2.49,6.31,3.33,9.78Z"/>
                <path class="cls-39"
                      d="M230.19,335.52c.34,2.66,1.46,8.54-1.33,8.89.07-.62-1.63-13.3-3.55-10.22.5-2.28,2.29-6.45,2.44-12,2.1,8.1.58,8.64.67,9.11.04.23,1.42,1.38,1.78,4.22Z"/>
                <path class="cls-46"
                      d="M228.86,344.41c-.02.15.02.3,0,.44-.01.07-.65-.2-.44,1.33-.49-.04-.02-1.6-3.55,0-.03-.23-1.52-1.25-1.78-3.78-.18-1.78,1.29-3.58,1.33-3.78.3-1.47.57-2.99.89-4.44,1.93-3.08,3.62,9.6,3.55,10.22Z"/>
                <path class="cls-46"
                      d="M202.2,352.41c-.82,3.7-2.49,7.68-.89,7.11-1.67-.01-3.64.33-5.33.44-1.9-2.93.06-4.9,0-7.55h6.22Z"/>
                <path class="cls-25"
                      d="M186.65,349.3c2,4.61,1.66-1.43,2.22,4,.06.6.53,3.19.44,3.33-.23.39-4.2,3.15-4.44-2.44-.02-.49.38-5.01.44-5.33.63-3.25.6-1.25,1.33.44Z"/>
                <path class="cls-3"
                      d="M302.17,315.97c.29,1.17,1.12,4.12,0,4-.53-2.48-.37-5.41-2.22-4,.08-1.93-.62-2.71-2.22-4,1.54-13.5.78-10.52,4.44,4Z"/>
                <path class="cls-45"
                      d="M185.31,348.85c-.06.32-.47,4.85-.44,5.33-.73.24-1.5.3-2.22.44-1.17-1.39-2.67-5.62-.44-7.11.98,1.16,1.72.92,3.11,1.33Z"/>
                <path class="cls-46"
                      d="M259.96,315.08l-2.67-.44c.42-2.16,0-7.43,1.56-9.78.84,3.13.67,7.44,1.11,10.22Z"/>
                <path class="cls-52"
                      d="M81.79,315.08c.01,4.13,1.42,2.82,1.78,3.78-.05.64-.41.73-.44,1.56-.74-1.92-2-2.69-3.55-.89-.02-1.2-.87-1.12-.89-2,0-.13.98-.84.89-2.44h2.22Z"/>
                <path class="cls-54"
                      d="M327.5,310.64c-.04,1.99.09,4.13-1.33,5.78,0-.05-.95.12-.89-.22,1.68-5.92,2.4-14.12,2.22-5.55Z"/>
                <path class="cls-52"
                      d="M191.09,350.19c-1.38.82-.24,3.23-2.22,3.11-.56-5.43-.22.61-2.22-4,2.93.47,3.57,2.87,4.22-1.33.45.02.09,1.61.22,2.22Z"/>
                <path class="cls-52" d="M194.2,351.96c-1.6,3.44-1.65,2.11-2.67-.89l2.67.89Z"/>
                <path class="cls-50" d="M167.54,347.52c.02-.2,0-3.36,0-4,.21-.03.86-.83.89-.89l-.89,4.89Z"/>
                <path class="cls-3"
                      d="M143.55,387.95c.41.46.9.89,1.33,1.33-5.15,3.66,2.29,4.75-9.55,5.33-.18,0-.72.89-.89.89-4.34-.06-1.38-1.73-1.78-2.22-.41-.51-6.05-1.61-7.11-3.11-.31.28-1.32.9-1.56.89-.07,0-.93-.91-1.11-.89-.29.04-.68,1.7-3.33.89.19-2.49-4.29-10.25,1.33-6.22l3.78,4.89c2.75-3.8,7.3-1.09,7.78-6.66,3.97-.03,1.39-1.34,5.55-2.67,4.11,3.36,3.04,4.79,5.55,7.55Z"/>
                <path class="cls-49"
                      d="M224.42,351.96c.1.65,1.28,3.87,2.22,3.78-2.26,2.31-5.73,1.27-5.78,2.89-1.91.02-3.91.71-5.78.89-2.93.28-2.09.43-2.22.44-.24.02-.87-.62-4.89-.44-.33-1.71,2.48-.36,3.11-1.11.3-.36-.75-3.42-.44-4.89.39-1.9,2.46-2.68,1.78-5.78.68-1.94,4.02,3.38.67-4.22,1.47-.95,6.69,5.57,5.78,7.11,1.75-1.07,3.85.78,5.55,1.33Z"/>
                <path class="cls-3"
                      d="M83.12,365.29c-.15.63-.26,1.77-.44,2.67-.64,3.06-1.36,6.46-1.78,9.55-.59,4.4.68,9.38-1.78,10-1.27-4.01-2.36-7.97-3.55-12,5.96-1.36,2.83-2.7,4.89-6-3.24-1.35-2.12,2.03-7.11-1.11-.71-2.36-1.51-4.73-2.22-7.11,4.36-1.03,8.42,1.95,12,4Z"/>
                <path class="cls-46"
                      d="M127.55,396.84c-1.51-.11-3.3-.65-4.89-.67-.39-1.85,2.52-1.95,1.33-5.11.24.01,1.24-.61,1.56-.89,1.06,1.5,6.7,2.6,7.11,3.11.39.49-2.56,2.17,1.78,2.22.17,0,.71-.88.89-.89,11.85-.58,4.41-1.67,9.55-5.33,4.17-2.96,3.38,1.32,3.55,1.56,1.09,1.49,4.91.54-1.11,4.22-.21.13-1.75-.62-4,2.22-5.64-1.12-11.78-.15-15.77-.44Z"/>
                <path class="cls-46"
                      d="M130.66,377.73c-.9,3.57-3.92,5.37,1.78,5.33-.47,5.58-5.03,2.87-7.78,6.66l-3.78-4.89c1.82-1.98,2.69-3.21,1.33-5.78,2.97-.94,5.99-2.75,8.44-1.33Z"/>
                <path class="cls-3"
                      d="M195.98,359.96c1.69-.12,3.66-.46,5.33-.44,2.2.02,4.47.1,6.66,0,4.02-.17,4.64.46,4.89.44l-.44,7.55c-.91-.56-.11-1.49-.67-1.78-1.66-.84-14.63-4.08-17.77-4.89-.33-.09-.23-.59-.22-.89.29.03.43-.74,2.22,0Z"/>
                <path class="cls-25"
                      d="M143.55,387.95c-2.51-2.76-1.45-4.19-5.55-7.55-4.16,1.33-1.58,2.64-5.55,2.67-5.7.04-2.68-1.76-1.78-5.33,2.41-2.67,5.25-.06,5.55,0,.99.2,7.93-2.48,7.33,10.22Z"/>
                <path class="cls-60"
                      d="M276.85,353.74c.37.3.79.39,1.33.89-1.83.49,1.1,8.41,1.78,10.66-2.78-.66-2.68,1.59-3.33,1.78-.25.07-4.9-.68-5.11-1.11-.3-.62,2.6-12.39,5.33-12.22Z"/>
                <path class="cls-3"
                      d="M83.12,320.42c-.02.57-1.99,2.33.89,5.78-1.49-.56-2.98-1.21-4.44-1.78-.68-1.58.03-3.33,0-4.89,1.55-1.8,2.82-1.03,3.55.89Z"/>
                <path class="cls-28"
                      d="M215.08,359.52c-.24,5.51,1.22,10.37-2.67,8l.44-7.55c.14-.01-.71-.16,2.22-.44Z"/>
                <path class="cls-64"
                      d="M371.93,274.65c-2.49,10.08-5.42,20.09-7.78,30.21-4.76-9.67-.93-6.93-.67-7.33.69-1.02-5.41-20.86-6.22-23.77l14.66.89Z"/>
                <path class="cls-21"
                      d="M372.37,270.65c-.05.2.45.39-.44,4l-14.66-.89c-.17-.61-.18-2.22-.44-3.11h15.55Z"/>
                <path class="cls-25" d="M267.07,347.08c-2.95.6-5.87,1.5-8.89,1.78,1.53-.45,6.54-2.99,8.89-1.78Z"/>
                <path class="cls-57"
                      d="M323.05,330.64c-.08,2.83.05,5.23,2.22,6.66-2.04.3-4.19.56-6.22.89,1.4-3.63-.75-4.11-.89-4.67-.38-1.52-.22-4.1-1.33-6.66,6.92-4.27,1.57.71,6.22,3.78Z"/>
                <path class="cls-11" d="M334.61,335.97c-.57.07-1.2-.07-1.78,0,.12-4.63,2.11-5.63,1.78,0Z"/>
                <path class="cls-46"
                      d="M75.57,375.51c-.7-2.36-1.51-4.74-2.22-7.11,4.99,3.14,3.87-.24,7.11,1.11-2.06,3.3,1.07,4.63-4.89,6Z"/>
                <polygon class="cls-10" points="329.05 256.88 329.05 257.77 301.28 257.55 329.05 256.88"/>
                <path class="cls-14"
                      d="M302.62,324.42c.5,2.06,1.55,4.96,3.11,6.22-.16.6.08,4.66,0,4.89-2.04,6.2-6.95.91-7.11.44-.14-.42-.01-7.36,0-8.89.03-2.94.85-1.95.89-3.11l3.11.44Z"/>
                <path class="cls-57"
                      d="M298.62,327.08c-.01,1.52-.14,8.47,0,8.89l-5.78,2.44c.52-2.49.52-5.06.89-7.55.05-.37.88-.18.89-.22,2.04-.82,2.23-7.33,4-3.55Z"/>
                <path class="cls-63" d="M287.29,317.75c.09.02.99,1.6.44,1.78-.51.16-1.45-2-.44-1.78Z"/>
                <path class="cls-36" d="M221.97,334.19c1.37-.87.9,1.28.44,1.33-.15.02-1.08-.93-.44-1.33Z"/>
                <path class="cls-39" d="M228.41,346.19c-.21-1.53.43-1.26.44-1.33,2.34.1,2.64,1.61-.44,1.33Z"/>
                <path class="cls-64" d="M239.08,330.19c1.01,1.37,0,1.82,0,2.22-.94,1.67-1.67-2.4,0-2.22Z"/>
                <polygon class="cls-1"
                         points="317.5 321.31 318.17 321.53 317.95 322.19 317.72 321.97 317.5 321.31"/>
                <path class="cls-50" d="M273.07,319.53c.12-.04,1.54,1.87,1.56,2,.23,2.01-3.19-1.51-1.56-2Z"/>
                <polygon class="cls-41"
                         points="271.74 314.2 272.4 314.42 272.18 315.08 271.96 314.86 271.74 314.2"/>
                <path class="cls-22" d="M258.18,346.63c-.7-.79-.14-1.42,0-2.22,2.13,1.2.07,2.09,0,2.22Z"/>
                <path class="cls-63" d="M252.85,339.08c-.83-.51-1.12-1.54,0-1.78.33,2.08-.01,1.69,0,1.78Z"/>
                <path class="cls-50" d="M341.05,299.53c.34,0,.34,1.78,0,1.78-.34,0-.34-1.78,0-1.78Z"/>
                <path class="cls-46"
                      d="M302.17,319.97c.28,1.32.16,3.27.44,4.44l-3.11-.44c.03-1.06-.89-1.89-.89-2,0-.22.45.9.44-4,0-.11.87-1.59.89-2,1.86-1.42,1.69,1.52,2.22,4Z"/>
            </g>
            <g>
                <g>
                    <path class="cls-5"
                          d="M232.86,164.02c-12.83-7.4-17.31,8.14-18.44,8.44-.42.11-2.22-4.8-6.66,1.33-12.84.46,12.49.41,18.44,1.33-17.66,21.52-54.41,16.1-64.87-9.78-1.21-2.99-2.47-8.72-2.67-12-1.93-32.72,34.73-51.53,61.09-32.88,13.16,9.31,19.72,28.49,13.11,43.54Z"/>
                    <path class="cls-2"
                          d="M226.19,175.12c-5.95-.92-31.28-.87-18.44-1.33,4.45-6.13,6.25-1.22,6.66-1.33,1.13-.31,5.61-15.84,18.44-8.44,1.88,1.08,4.29,4.92,4.67,4.89,7.94-17.11,28.77-21,42.66-8.44,2.63-14.35,21.15-13.18,23.99.44,8.93-2.71,9.98,5.64,10.66,5.78,6.51-6.63,18.61-6.52,24.88.44,4.79-6.96,15.04-5.56,10.89,3.78,2.04.15,3.6,1.52,2.67,3.55l-127.08.67Z"/>
                    <path class="cls-2"
                          d="M158.66,153.35c.19,3.28,1.46,9.01,2.67,12-.64.08-.32-.84-.67-.89-8.56-1.23-32.2,1.1-42.88-.22.44-3.78,3.6-.75,6.44-2,1.14-.5,2.32-3.14,3.55-4,4.37-3.05,5.89-1.28,6.22-1.33.11-.02,1.39-1.32,1.78-1.33,6.87-.25,5.09,6.26,9.78,4,1.29-.63,4.04-8.84,13.11-6.22Z"/>
                </g>
                <g>
                    <path class="cls-67"
                          d="M382.15,237.33c.86,3.45,2.02,6.84,3.11,10.22.53,1.64,1.26,3.28,1.78,4.89,1,3.1,2.21,6.23,3.11,9.33,1.35,4.64,2.36,9.52,3.55,14.22.56,2.22,1.23,4.44,1.78,6.66.84,3.39,1.1,7.03,2.67,10.22,0,12.43,0,24.89,0,37.32-13.52-.78-12.09-11.53-17.33-12.89.84-5.28-.03-3.52,0-6,0-.33.88-.11.89-.44,0-.57-.95-1.43-.89-11.11,0-.12.89-.82.89-2.22,0-4.67-2.59-13.86.44-16.88-2.62-3.85-.95-12.75-.89-18.66,0-.33.89-.11.89-.44.01-1.02-.89-.53-.89-.89.05-5.45.22-11.03,0-16.44-.01-.28,2.53-1.22-1.33-2.44.43-1.28.71-3.7,1.33-4.67.32-.5.64.44.89.22Z"/>
                    <path class="cls-14"
                          d="M398.15,330.19c0,2.81,0,5.63,0,8.44-5-.47-10.15.44-15.11.44-1,0-2.12.02-3.11,0-3.12-.06-6.64-.24-9.78-.44,1.17-1.17,3.74.16,4.89-.67,1-.73,3.9-14.1,4.44-16.44.1-.44,1.23,0,1.33-.44.21-.94-.18-2.65,0-3.78,5.24,1.36,3.81,12.1,17.33,12.89Z"/>
                    <path class="cls-58"
                          d="M380.82,317.31c-.18,1.13.21,2.83,0,3.78-.1.44-1.23,0-1.33.44-.54,2.34-3.44,15.71-4.44,16.44-1.14.83-3.72-.5-4.89.67-3.37-.22-6.96-1.3-10.22-.89.05-1.43.26-11.25,0-11.77-.28-.55-3.29.66-4,.22-.05-.55-.87-.91-.89-1.11-.43-4.91-.69-9.73-.89-14.66,0-.11-.89-1.89-.89-2-.09-3.34,1.08-17.23,1.33-24.44.2-5.82,1.56-14.63-.89-13.77,1.2-4.96.4-8.75,3.11.44.26.89.28,2.5.44,3.11.81,2.91,6.91,22.75,6.22,23.77-.27.4-4.1-2.34.67,7.33,2.36-10.13,5.28-20.13,7.78-30.21.89-3.61.4-3.8.44-4,1.51-6.03,2.82-12.23,4.44-18.22.46-1.71.85-3.71,1.33-5.33.5-1.67,1.21-3.63,1.78-5.33,3.86,1.22,1.32,2.17,1.33,2.44.22,5.41.05,10.98,0,16.44,0,.35.9-.13.89.89,0,.33-.88.11-.89.44-.06,5.91-1.73,14.81.89,18.66-3.04,3.03-.43,12.21-.44,16.88,0,1.4-.89,2.1-.89,2.22-.06,9.67.9,10.54.89,11.11,0,.33-.88.11-.89.44-.03,2.48.84.71,0,6Z"/>
                    <path class="cls-51"
                          d="M383.04,339.08v11.55c-1.49-.04-2.45-.12-4,0l.89-11.55c.99.02,2.11,0,3.11,0Z"/>
                </g>
                <g>
                    <path class="cls-61"
                          d="M353.27,308.42c0,.11.88,1.89.89,2,.19,4.93.46,9.75.89,14.66.02.2.84.56.89,1.11.03.38-.18,4.83,0,7.55-3.73.15-7.41.93-11.11,1.33-.25-.51-.84-1.28-.22-1.78,2.14-1.72,15.52-4.56-5.33-.89-.39-1.63-.78-3.22-1.11-4.89,4.31-4.85,4.78-11.74,6.66-17.33.22-.66.22-1.81.89-2.22,2.25,2.68,4.89.18,7.55.44Z"/>
                    <path class="cls-40"
                          d="M354.6,283.98c-.25,7.21-1.42,21.09-1.33,24.44-2.66-.27-5.3,2.24-7.55-.44-2.27-2.7.12-3.1.44-4.67,1.47-7.08,3.29-14.06,4.89-21.11,2.67-1.17,2.8-.91,3.55,1.78Z"/>
                    <path class="cls-34"
                          d="M354.6,283.98c-.75-2.69-.89-2.95-3.55-1.78.56-2.46.79-5.1,1.33-7.55.29-1.32.58-2.68.89-4,.14-.62.44-.41.44-.44,2.45-.86,1.09,7.95.89,13.77Z"/>
                </g>
                <g>
                    <path class="cls-39"
                          d="M75.12,389.29c1.48.56,2.91,1.32,4.44,1.78,2.23,7.17,3.35,3.71,5.33,7.11.58,1,.91,3.4,1.33,4.89.5,1.75,1.16,3.49,1.33,5.33.69.05-2.23,2.99-2.44,3.11-2.53,1.37-26.13,7.21-29.77,7.55-2.83.27-6.52-.09-9.55,0-1.33.04-2.67-.02-4,0-4.27.06-8.62.1-12.89,0-3.63-.08-7.46-.28-11.11-.44-5.94-.27-11.87-.68-17.77-1.33,0-5.18,0-10.37,0-15.55,18.05-6.32,28.38-26.87,30.44-27.1,1.11-.13.41,1.2.89,1.33.36.1.32-2.25,3.33-.89.93,2.63,2.64,4.86,4.22,7.11-.07-1.58-3.16-6.63-4.22-7.11-1.99-5.64-1.74-13.63-.67-13.77,10.6,13.34,25.38,22.05,41.1,27.99Z"/>
                    <path class="cls-42"
                          d="M.03,388.4c0-10.36,0-20.74,0-31.1,1.38.39,1.38-6.61,0-6.22,0-2.66,0-5.34,0-8,.3,0,.76.13.89-.22,1.6-4.27,3.12-14.24,4.44-19.33.13-.51.52-1.27.89-2.67,2.92-1,5.36-5.83,7.33-7.55.26-.23-.43,2.17,5.55-3.55,5.62-5.37,7.18-10.47,11.55-16.22l.44,31.55c-.13.68-6.15,10.66-7.11,12-1.03,1.44-6.92,8.68-8,9.78-4.56,4.62-18.27,14.22-7.33,7.33,4.91-3.09,12.67-11.44,16.22-16.22,1.98-2.66,4.9-9.5,6-8.66l.22,28.21c-7.69,12.43-17.79,24.15-31.1,30.88Z"/>
                    <path class="cls-57"
                          d="M62.24,351.52c-11.93-4.23-20.66-13.62-29.1-22.66l.22,29.55c11.28,14.54,25.52,23.12,41.77,30.88-15.72-5.94-30.5-14.65-41.1-27.99-1.08.15-1.33,8.14.67,13.77-3.01-1.36-2.97.99-3.33.89-.48-.13.22-1.46-.89-1.33-2.05.24-12.39,20.78-30.44,27.1,0-.15,0-.3,0-.44,8.97-4.07,18.26-12.09,24.44-19.77,6.3-7.85,8.29-9.76,6-21.11-7.4,12.04-17.88,22.25-30.44,28.88,0-.29,0-.6,0-.89,13.31-6.73,23.41-18.45,31.1-30.88l-.22-28.21c-1.09-.84-4.02,6-6,8.66-3.54,4.77-11.31,13.13-16.22,16.22-10.94,6.89,2.78-2.71,7.33-7.33,1.08-1.09,6.97-8.34,8-9.78.96-1.34,6.98-11.31,7.11-12l-.44-31.55c-4.37,5.75-5.93,10.85-11.55,16.22l12-20.22c.17-3.62-.47-25.4,0-26.66.09-.24.81-.87,1.11-.67.59,8.94-1.74,23.81,1.11,29.99.42,1.29-1.34,1.27-1.33,1.78.16,10.36.75,20.72.44,31.1.46,1.95,12.52,14.18,14.88,16.22,2.52,2.17,12.14,8.84,14.88,10.22Z"/>
                    <path class="cls-39"
                          d="M.03,401.28c0-3.99,0-8,0-12,12.56-6.63,23.04-16.84,30.44-28.88,2.29,11.34.3,13.26-6,21.11-6.17,7.69-15.47,15.7-24.44,19.77Z"/>
                    <path class="cls-44" d="M.03,357.3c0-2.07,0-4.15,0-6.22,1.38-.39,1.38,6.61,0,6.22Z"/>
                    <g>
                        <path class="cls-68"
                              d="M45.8,419.06c-.38,3.24.25,6.56.44,9.78.21,3.5,1.27,16.7.89,18.22-.09.38.22,1.1-.22,1.33-1.4-.22-2.47.11-3.78.44l-1.33-29.77c1.33-.02,2.67.04,4,0Z"/>
                        <path class="cls-28"
                              d="M41.8,419.06l1.33,29.77c-5.07,1.29-10.44.48-15.55-.67,1.17-8.59.29-17.41.89-25.99.08-1.11.57-1.98.44-3.11,4.27.1,8.61.06,12.89,0Z"/>
                    </g>
                    <path class="cls-39"
                          d="M62.24,351.52c2.01,1.02,4.54,2.47,6.66,3.11.87,2.16,1.55,4.43,2.22,6.66.71,2.38,1.52,4.75,2.22,7.11.71,2.37,1.52,4.75,2.22,7.11,1.2,4.03,2.29,7.98,3.55,12,1.05,3.33.39,3.38.44,3.55-1.53-.46-2.96-1.22-4.44-1.78-16.25-7.76-30.49-16.34-41.77-30.88l-.22-29.55c8.44,9.04,17.17,18.44,29.1,22.66Z"/>
                    <path class="cls-49"
                          d="M34.69,375.07c1.06.48,4.15,5.53,4.22,7.11-1.58-2.25-3.29-4.48-4.22-7.11Z"/>
                    <g>
                        <path class="cls-48"
                              d="M41.35,232c1.42,5.6,3.33,5.28,4,6,.06.06-.1,1.06.44,1.56-3.28-1.44-.27,6.65.44,9.33.29,1.1,1.01,2.39,1.33,3.55,1.86,6.82,3.92,13.63,5.78,20.44.68,2.48,6.71,30.34,8.44,29.99.86-1.53-.84-.66-.44-2.67,2.06-10.39,3.89,12.65,4,14.22.03.37.89.18.89.22.06,1.05-.25,3.19-.89,4-.15.2-1.92-.51-1.78.67,1.49,4.52,11.65,33.68,11.55,35.55-.08,1.6-4.96.16-6.22-.22-2.12-.64-4.65-2.09-6.66-3.11-2.74-1.38-12.37-8.05-14.88-10.22-2.37-2.04-14.43-14.26-14.88-16.22.3-10.38-.28-20.74-.44-31.1,0-.51,1.75-.49,1.33-1.78-2.85-6.18-.52-21.05-1.11-29.99-.3-.21-1.02.42-1.11.67-.47,1.26.17,23.04,0,26.66l-12,20.22c-5.99,5.72-5.29,3.33-5.55,3.55-1.97,1.72-4.41,6.55-7.33,7.55,3.65-14.04,7.03-28.19,10.66-42.21.04-.16.69-.62,1.33-3.11,1.19-4.58,2.37-9.19,3.55-13.77.07-.25-.07-.64,0-.89.23-.88.65-1.75.89-2.67.26-1.02.23-2.3.44-3.11.04-.17.38-.68.89-2.67.42-1.61.92-3.27,1.33-4.89.95-3.7,1.73-7.43,2.67-11.11,2.12-8.29,4.56-16.52,6.44-24.88l6.89,20.44Z"/>
                        <path class="cls-46"
                              d="M39.35,301.76c5.76,5.5,11.37,10.52,18.88,13.55-.44,1.27-17.8-7.97-18.88-13.55Z"/>
                    </g>
                </g>
                <g>
                    <path class="cls-28"
                          d="M101.34,400.39c-.24,1.09.37,1.76.44,2.67.27,3.09-.45,4.43-.44,4.67,0,.36.89.18.89.22.14,4.21-.05,9.4,0,13.77.04,3.28,2.38,8.1-3.78,6.22-1.34-.41-.59-3.98-.67-7.55-.09-3.94-.44-8.11-.44-12,0-.33.84-3.66.44-6.66.22,0,2.51-.98,3.55-1.33Z"/>
                    <path class="cls-47"
                          d="M113.78,365.74c.56,1.56,1.69,2.22,1.78,2.44.62,1.66,1.12,5.59,1.78,6.66.17.28,4.34,3.18,4.89,4.22,1.35,2.56.49,3.8-1.33,5.78-5.62-4.03-1.14,3.73-1.33,6.22-.36,4.76-6.74,3.34-10.44,4.89-.69.29-3.31,2.95-7.78,4.44-1.05.35-3.34,1.34-3.55,1.33-.34,0-5.69-1.51-6.66-1.78-2.44-.67-5.17-2.36-6.22-1.78-1.99-3.4-3.1.06-5.33-7.11-.05-.17.61-.22-.44-3.55,2.46-.61,1.19-5.59,1.78-10,.41-3.09,1.14-6.49,1.78-9.55,5.17.32,7.33,7.03,14,5.33,1.04-.26,7.63-7.7,17.11-7.55Z"/>
                    <path class="cls-3"
                          d="M92.9,347.52c.38-.04,1-.07,1.33,0,2.12.47,6.52,6.69,7.78,6.66.36,0,4.65-4.03,6-4,6.23,10.68,3.72,9.77,5.78,15.55-9.48-.15-16.07,7.29-17.11,7.55-6.67,1.7-8.83-5.02-14-5.33.19-.9.29-2.03.44-2.67,1.06-4.38,4.94-17.33,9.78-17.77Z"/>
                    <path class="cls-37"
                          d="M108,350.19c-1.34-.03-5.64,3.99-6,4-1.26.03-5.65-6.2-7.78-6.66l7.55-4.89c.72.24,1.06-.48,1.11-.44,1.8,1.14,3.82,5.79,5.11,8Z"/>
                    <path class="cls-32"
                          d="M101.78,342.63l-7.55,4.89c-.33-.07-.95-.04-1.33,0-2.36-.08,0-3.87,1.11-4.44,1.57-.82,4.4-.09,6.22-1.78.59-.01,1.46,1.3,1.56,1.33Z"/>
                </g>
            </g>
        </g>
    </g>
</svg>