<?xml version="1.0" encoding="UTF-8"?>
<svg xmlns="http://www.w3.org/2000/svg" version="1.1" xmlns:xlink="http://www.w3.org/1999/xlink" viewBox="0 0 398 512">
    <defs>
        <style>
            .cls-1 {
            fill: #729b8e;
            }

            .cls-2 {
            fill: #fdc463;
            }

            .cls-3 {
            fill: #3f3e25;
            }

            .cls-4 {
            fill: #abbdc6;
            }

            .cls-5 {
            fill: url(#Nameless_Gradient_421-2);
            }

            .cls-6 {
            fill: #6e8481;
            }

            .cls-7 {
            fill: #f9b483;
            }

            .cls-8 {
            fill: #948d53;
            }

            .cls-9 {
            fill: #cad4e3;
            }

            .cls-10 {
            fill: #f6dec1;
            }

            .cls-11 {
            fill: #223023;
            }

            .cls-12 {
            fill: #d9b56c;
            }

            .cls-13 {
            fill: #4e6642;
            }

            .cls-14 {
            fill: #2e604f;
            }

            .cls-15 {
            fill: #c49d5f;
            }

            .cls-16 {
            fill: #6d753e;
            }

            .cls-17 {
            fill: #a0d0d6;
            }

            .cls-18 {
            fill: #6d8198;
            }

            .cls-19 {
            fill: #b8c3bb;
            }

            .cls-20 {
            fill: #dee9cc;
            }

            .cls-21 {
            fill: #594f31;
            }

            .cls-22 {
            fill: #415d46;
            }

            .cls-23 {
            fill: #649db1;
            }

            .cls-24 {
            fill: url(#Nameless_Gradient_460);
            }

            .cls-25 {
            fill: #86925d;
            }

            .cls-26 {
            fill: #d69956;
            }

            .cls-27 {
            fill: #59572a;
            }

            .cls-28 {
            fill: #537f7d;
            }

            .cls-29 {
            fill: #304e4f;
            }

            .cls-30 {
            fill: #375377;
            }

            .cls-31 {
            fill: #fdf2c0;
            }

            .cls-32 {
            fill: #b38a52;
            }

            .cls-33 {
            fill: #e8b26f;
            }

            .cls-34 {
            fill: #4e5f5f;
            }

            .cls-35 {
            fill: #528ba7;
            }

            .cls-36 {
            fill: #796b37;
            }

            .cls-37 {
            fill: #823318;
            }

            .cls-38 {
            fill: url(#Nameless_Gradient_421);
            }

            .cls-39 {
            fill: #d1e3dd;
            }

            .cls-40 {
            fill: #153735;
            }

            .cls-41 {
            fill: #62706b;
            }

            .cls-42 {
            fill: #3e7177;
            }

            .cls-43 {
            fill: #aec6c3;
            }

            .cls-44 {
            fill: #427a69;
            }

            .cls-45 {
            fill: #fcf1ea;
            }

            .cls-46 {
            fill: #cc753a;
            }

            .cls-47 {
            fill: url(#Nameless_Gradient_461);
            }

            .cls-48 {
            fill: #77844a;
            }

            .cls-49 {
            fill: #fdf5a9;
            }

            .cls-50 {
            fill: #c7c8c4;
            }

            .cls-51 {
            fill: #bdcdad;
            }

            .cls-52 {
            fill: #fbd5a1;
            }

            .cls-53 {
            fill: #dbeaf6;
            }

            .cls-54 {
            fill: #3d7699;
            }

            .cls-55 {
            fill: #2c6461;
            }

            .cls-56 {
            fill: #e8ecb2;
            }

            .cls-57 {
            fill: #a7bfda;
            }

            .cls-58 {
            fill: #394c52;
            }

            .cls-59 {
            fill: #566f8a;
            }

            .cls-60 {
            fill: #fbc58f;
            }

            .cls-61 {
            fill: #235143;
            }

            .cls-62 {
            fill: #f7e9d7;
            }

            .cls-63 {
            fill: #274065;
            }

            .cls-64 {
            fill: #506d6c;
            }

            .cls-65 {
            fill: #2c4336;
            }

            .cls-66 {
            fill: #fde284;
            }

            .cls-67 {
            fill: #dddeca;
            }

            .cls-68 {
            fill: #8e7b47;
            }

            .cls-69 {
            fill: #c1d9dc;
            }

            .cls-70 {
            fill: #4d4f37;
            }

            .cls-71 {
            fill: #f1f2f8;
            }

            .cls-72 {
            fill: #f27e3c;
            }

            .cls-73 {
            fill: #99a26d;
            }

            .cls-74 {
            fill: #85b9c4;
            }

            .cls-75 {
            fill: #263e43;
            }

            .cls-76 {
            fill: #d4d0d5;
            }
        </style>
        <linearGradient id="Nameless_Gradient_421" data-name="Nameless Gradient 421" x1="197.54" y1="171.1" x2="200.8"
                        y2="503.75" gradientTransform="translate(-.04 -254.22) scale(1 1.5)"
                        gradientUnits="userSpaceOnUse">
            <stop offset="0" stop-color="#274161"/>
            <stop offset=".34" stop-color="#46727f"/>
            <stop offset=".63" stop-color="#4f95b2"/>
            <stop offset="1" stop-color="#cfd7bb"/>
        </linearGradient>
        <linearGradient id="Nameless_Gradient_421-2" data-name="Nameless Gradient 421" x1="197.72" y1="1.26" x2="200.98"
                        y2="333.9" gradientTransform="matrix(1,0,0,1,0,0)" xlink:href="#Nameless_Gradient_421"/>
        <linearGradient id="Nameless_Gradient_461" data-name="Nameless Gradient 461" x1="215.78" y1="366.89" x2="201.7"
                        y2="452.35" gradientUnits="userSpaceOnUse">
            <stop offset="0" stop-color="#649cb0"/>
            <stop offset="1" stop-color="#2f6992"/>
        </linearGradient>
        <linearGradient id="Nameless_Gradient_460" data-name="Nameless Gradient 460" x1="296.71" y1="85.96" x2="354.58"
                        y2="106.14" gradientUnits="userSpaceOnUse">
            <stop offset="0" stop-color="#fdd29f"/>
            <stop offset="1" stop-color="#fef3d5"/>
        </linearGradient>
    </defs>
    <!-- Generator: Adobe Illustrator 28.7.1, SVG Export Plug-In . SVG Version: 1.2.0 Build 142)  -->
    <g>
        <g id="Layer_1">
            <g id="Background">
                <rect class="cls-38" x=".19" y=".09" width="397.99" height="511.83"/>
                <path class="cls-5"
                      d="M.22,156.42C.25,104.32.19,52.19.22.09h397.95c.02,85.56-.03,171.15,0,256.71-9.42,2.08-.77-1.71-6-4.89-1.1-.67-8.65-1.4-9.1-1.33-.11-.86.17-2.16,0-2.66-1.6-4.71-12.79-4.13-16.66,3.11-7.64-17.29-25.71-13.2-30.2,3.55-22.25-14.96-24.27,2.59-25.76,3.11-.67.23-7.29-4.93-9.99,1.33-12.04-4.81-14.29-2.08-19.76,8.88l117.47-.44c0,10.21,0,20.44,0,30.65-11.08,1.24-22.35,2.33-33.53,1.78-8.88-.44-17.74-2.95-26.65-3.11l-52.85,19.1c-10.43,6.56-18.98,15.72-29.09,22.65-1.83,1.25-3.86,2.41-5.77,3.55-1.03.12-.81-.14-.89-.89-1-9.92.04-17.72-7.55-29.98-27.59-44.61-96.56-20.83-92.38,30.42-5.34-1.81-10.37-4.04-15.54-6.22-11.38-4.8-10.93-8.48-27.98-8.88-12.24-.29-24.45,1.56-36.64-.89-15.97-3.2-34.52-17.66-52.19-21.32-5.44-1.13-11.33-1.32-16.88-1.78-.01-27.53-.01-55.08,0-82.61l127.25.44c-7.72-4.64-21.16-5.9-30.2-4.89l-.67-.89c-5.86-12.27-24.22-25.32-30.42-10.22-2.78-3.57-7.78-4.5-11.99-3.55-.6-15.32-11.35-20.52-24.87-14.66.69-27.43-14.03-12.64-18.65,3.11l-8.22-16.21c.3-5.28.98-12.9-2.22-16.66Z"/>
                <path class="cls-7"
                      d="M125.46,445.11c9.46,2.07,18.81,4.86,28.42,6.22,6.56,2.54,13.6,3.74,20.43,5.33,22.4,5.23,45.02,8.99,67.51,13.77,16.56,3.52,33.24,6.87,49.74,10.66,7.7,1.77,15.41,3.88,23.1,5.77,1.53.38,3.43.53,4.89.89,6.3,1.57,12.56,3.38,18.88,4.89-1.81,2-4.08,3.41-6,5.33-34.93-8.13-69.86-16.69-105.04-23.54-1.01.54,19.76,7.9,21.1,8.44-.37.64-.59.86.22,1.33,2.51,1.46,36.38,15.58,38.42,15.99l-.89,11.55c-23.53.02-47.09-.01-70.62,0-4.5-9.55-12.73-17.31-21.1-23.54-6.65-4.95-25.33-16.29-33.09-17.32-3.24-1.62-6.69-2.6-9.99-4-.16-.07-.4-1.31-2.66-2.22-4.59-1.84-9.73-2.84-14.43-4.44-7.95-2.71-21.64-7.29-29.31-8.88l-10.66-3.11c-.92-4.35-.3-7.38-.44-9.77,10.54,2.07,21.04,4.37,31.53,6.66Z"/>
                <path class="cls-48"
                      d="M34.86,442.89c-.11,5.04-.31,10.06-.44,15.1l-29.76-5.11c6.77,1.83,24,6.62,29.76,6.88.91.04,5.44.17,5.77-.22-1.19-5.24-.64-12.42-.89-15.32,32.61,6.07,65.02,13.19,97.27,20.87l3.33.89c13.38,8.56,27.13,16.53,40.64,24.87l-40.64-.44c-13.72,6.6-40.49,10.52-49.3,13.32-.41.13-1.36.67-1.11,1.33-2.8-.34-5.81-.04-8.44-1.33,7.04-5.67,21.63-22.04,24.43-30.2.17-.5.52-1.16.89-1.55-17.84-4.64-39.07,1.99-51.96,15.32,1.36-2.62-3.42-1.98-5.33-1.33-.52-1.93-5.42-19.12-6.44-19.1-3.72,6.66-20.15,11.69-21.1,18.21-5.83.29-4.3,2.81-4.44,3.11-1.79,3.77-1.47-2.93-2.66-6.44-2.24-6.57-8.28-16.85-14.21-20.65-.03-8.28.01-16.59,0-24.87l34.64,6.66Z"/>
                <path class="cls-63"
                      d="M398.16,353.17c-48.4-.05-96.83.06-145.23,0-4.82,0-9.78-.44-14.66-.44-.45-2.6,12.21-2.14,17.54-3.11,12.26-2.22,20.39-9.44,25.76-8.88,14.97,5.72,8.72-.54,9.33-.89,1.48-.86,14.21,6.85,33.75,1.33,14.29-4.03,19.74-17.55,23.54-18.21,22.96,6.61,37.36,4.87,49.52-16.88h.44c0,15.69,0,31.39,0,47.08Z"/>
                <path class="cls-63"
                      d="M42.41,329.64c.43-.05.9.04,1.33,0,5.82,2.48,17.55,3.92,23.98,4,3.29,2.48,20.41.84,25.54,1.33-12.71,6.55-33.86,6.26-48.41,4.44,14.42,6.24,34.04,4.26,49.3,1.78,2.68-.44,8.58-2.9,10.66-3.11,8.9-.89,15.4,5.34,25.32,7.11,8.84,1.58,25.09,1.65,34.42.89,3.26.78,24.24,4.86,25.76,4.89l1.33,1.33c-14.02,0-28.19.43-42.19.44-49.69.06-99.5.88-149.23.44,0-7.99,0-16,0-23.98,14.11-2.63,22.06,2.56,42.19.44Z"/>
                <path class="cls-17"
                      d="M398.16,353.17c0,5.47,0,10.96,0,16.43-8.37.91-17.2.09-25.32,1.78-1.12-4.05-2.04-9.73-2.22-10.22-.09-.23.18-.69-.22-.89-1.59-.5-1.31,5.21-2.66,5.77-2.88.06-5.78-.08-8.66,0-36.2,1.01-72.59-1.55-108.81-.44-.27-1.05.87-1.89.22-2.22-1.92-.99-20.12.75-23.76.89-1.99.07-19.48.12-11.77-.89,9.54-1.25,29.62-.62,40.42-.89v-.89c-9.83-.74-27.53,2.24-21.1-3.33-13.16-4.25,20.66-1.46,25.09-2.89,3.59-1.16-8.1-.27-6.44-2.22,48.4.06,96.83-.05,145.23,0Z"/>
                <path class="cls-17"
                      d="M149.45,352.73c-1.35,3.86-9.27.44-12.66,2.22,9.09.88,18.44,1.49,27.54.89,1.91.89-5.33.71-2.66,5.33l-27.98.89c9.93.32,20.58-.56,30.42.44-.72,1.7-9.38.64-14.88.89-.34.02-.1.87-.44.89-4.53.19-27.51-.48-28.87,0-.35.12-.22.6-.22.89-10.75-.03-76.69-.94-80.61,0-.33.08-.23.59-.22.89h-3.55c-1.34-3.74-.71-2.13-2.66,7.11.01-1.71-6.13-1.45-12.44-1.78,4.07.02,8.14-.01,12.21,0v-4.44H.22c0-4.58,0-9.19,0-13.77,49.73.44,99.54-.39,149.23-.44Z"/>
                <path class="cls-65"
                      d="M17.09,488.19l3.78,4c1.29-.18.34-4.87.67-7.11.95-6.52,17.38-11.55,21.1-18.21,1.02-.02,5.92,17.17,6.44,19.1.48,1.76.87,3.73,1.78,5.33-5.04,6.25-8.38,14.07-13.32,20.43-6.93-.03-33.63.43-35.98,0l6.44-5.33-7.77,4.89c-.06-2.95.08-5.93,0-8.88,1.75-.25,9.6-8.45,9.77-9.1,1.02-3.97-5.54,6.69-9.77,8.22-.02-1.18.01-2.37,0-3.55,2.04.42.84-5.28,1.33-6.88.19-.63,8.48-10.77,5.33-8.88-8.89,14.66-3.36,4.09-5.11-12.66-.85,0,.9,10.48-1.55,11.55-.04-6.65.02-13.33,0-19.99,5.93,3.81,11.97,14.08,14.21,20.65,1.19,3.51.87,10.21,2.66,6.44Z"/>
                <path class="cls-65"
                      d="M398.16,475.76c-.65.36-1.17.9-1.78,1.33-1.52,1.09-1.82,2.71-2.22-1.33-.13-1.3,1.89-6.9.67-9.77-.35,2.61-1.59,3.58-.67,6.44l-.67.67c-4.91-4.51-1.8-1.29.67,2.66-1.58-1.46-2.11-1.27-2.22-1.33-.05-.03,0-.4-.67-.89-.78,1.1.63.85.67.89,3.15,3.64,2.98,9.14,1.33,13.55,3.15,3.7.27,14.75,3.55,10.44.49-.65.57-1.76,1.33-2.22-.06,5.17.05,10.37,0,15.54-8.43.04-16.89-.06-25.32,0-2.53-2.79-4.06-6.03-5.77-9.33-.15-.28-.17-1.76-.44-2.22-.48-.81-.69-1.64-1.55-2.22-2.5-.76-6.23-.81-8.44-1.33-.38-.09-.18-.88-.22-.89,2.97-1.68,5.15-4.23.89-4,.07-1.83,1.85-1.9,3.11-2.22,1.46-.37,2.94-.63,4.44-.22-1.94-9.1-4.17-18.1-3.55-27.54,9.18.64,19.33,3.34,24.21,11.77.33-6.41,7.1-24.86,12.66-27.54-.02,9.91.04,19.85,0,29.76Z"/>
                <path class="cls-8"
                      d="M388.39,420.68c3.25.12,6.55.46,9.77.89,0,3.84,0,7.7,0,11.55l-21.98,12.88c-15.94,3.4-31.59,8.12-47.52,11.55-4.01.86-24.14,3.93-25.32,4.44-.68.29-.76,1.14-.67,1.78-2.97-6.48-9.06-7.23-8.88-.89l-11.55,2.22c-6.14-3.03-2.24-3.43-4.66-4.89-2.57-1.55-5.66,1.17-6-1.33,11.47-3.24,41.96-9.13,49.97-11.99.99-.35,5.63-2.47,6-3.11,3.19,2.27,5.62,1.82,7.99-1.33-.09.56,1.27.58,2,.44,3.5-.66,30.87-6.96,32.42-7.55.37-.14,2.02-.82,2-1.11-.02-.27-1.74-.5-1.78-1.11,1.99-.3,9.53-3.74,10.88-4.89,3-2.56.7-1.86-2.89-1.33.37-1.55-2.05-.45-4.22-1.33-5.74-2.34,3.25-3.39,4.66-4.89,3.24-.01,6.54-.12,9.77,0Z"/>
                <path class="cls-18"
                      d="M398.16,298.1c0,2.66,0,5.34,0,7.99h-.44c-19.92,8.59-41.56,6.96-57.52-8.44-9.64,24.89-26.19,20.47-43.08,29.31-19.18-8.06-14.22-3.35-34.2,8.88-3.01,1.84-6.81,4.21-6.88,2.66,10.11-6.93,18.66-16.09,29.09-22.65l52.85-19.1c8.91.16,17.77,2.67,26.65,3.11,11.18.55,22.46-.54,33.53-1.78Z"/>
                <path class="cls-40"
                      d="M105.48,473.54c-1.37-.09-1.62-.16-2.66.67-2.69,2.13-15.32,23.89-27.76,31.31-3.45,2.06-6.33.44-2.89,4-1.95,1.9.49.7-.44,2.22-7.25-.01-14.52.02-21.76,0,9.62-12.05,8.08-9.58,23.1-11.33-7.39-.8-20.91,2.57-6.88-2l-4.22.22c7.82-9.53,13.04-9.18,25.09-8.22-7.62-3.2-22.46,1.92-10.66-2.66,14.81,1.6,13.03-.69-.44-.44,2.54-3.89-8.08,4.4-11.55,7.55-4.34,3.94-7.88,8.72-11.99,12.88,1.34-18.75-.35-16.91-.67.67l-2.22,3.33c-3.99-.01-8,.02-11.99,0,4.94-6.37,8.28-14.18,13.32-20.43.72-.89,2.72-3.14,3.55-4,12.89-13.34,34.12-19.97,51.96-15.32-.37.4-.72,1.05-.89,1.55Z"/>
                <path class="cls-8"
                      d="M398.16,446c-5.55,2.68-12.33,21.13-12.66,27.54-4.88-8.43-15.03-11.12-24.21-11.77-.61,9.44,1.62,18.43,3.55,27.54-1.5-.41-2.98-.14-4.44.22,1.32-.96-4.36-1.78-6-1.78-.83-2.1-3.78-2.31-5.77-2.22-1.8-2.01-2.91-3.06-5.77-2.66.75-6.91-3.31-6.93-6.22-1.33-2.48-3.17-4.99-.07-6.66,0-.69.03-5.16-3.34-6,1.33l-1.33-.89c1.04-4.24-3.41-6.68-7.11-6.44,1.2-1.28,2.73-4.35,2.66-6,27.24-7.72,54.72-15.39,79.94-28.42,0,1.62,0,3.26,0,4.89Z"/>
                <path class="cls-23"
                      d="M20.2,371.38c-3.68-.19-7.39-.96-11.1-.22,3.68.42,7.41.2,11.1.22,6.31.33,12.45.07,12.44,1.78-3.24,15.34-6.2,18.82-5.77,19.76.36.8,6.58-.31-4,6.66-.05,1.7,13.85-2.03-4.44,9.77h7.11c-6.21,10.36-1.14,2.43,1.78,3.55-4.67,5.53-4.2,7.38-4.44,7.77-4.28-1.92,4.3-1.25-6.66-7.77-3.51-11.27-8.2-5.5-15.99-5.55-.01-13.46.01-26.95,0-40.42h32.2v4.44c-4.07-.01-8.15.02-12.21,0Z"/>
                <path class="cls-71"
                      d="M383.06,247.91c-6.92,2.14-12.52,6.78-7.33,6.22.58-.06,6.93-3.49,7.33-3.55.46-.07,8.01.66,9.1,1.33,5.22,3.17-3.43,6.97,6,4.89,0,2.36,0,4.74,0,7.11-31.42-1.11-62.89-4.51-94.38-4-.08,0-1.1-.71-1.33-.89l-2.66,1.78c-.6-.58.13-.53.67-1.78,2.7-6.27,9.32-1.1,9.99-1.33,1.49-.52,3.51-18.07,25.76-3.11,4.49-16.75,22.56-20.84,30.2-3.55,3.86-7.24,15.06-7.81,16.66-3.11Z"/>
                <path class="cls-9"
                      d="M300.45,259.02c-.54,1.25-1.27,1.2-.67,1.78l2.66-1.78c.23.18,1.25.89,1.33.89,31.49-.51,62.96,2.89,94.38,4,0,1.18,0,2.37,0,3.55l-117.47.44c5.48-10.96,7.72-13.7,19.76-8.88Z"/>
                <path class="cls-48"
                      d="M398.16,441.11c-25.22,13.04-52.7,20.7-79.94,28.42-.17-4.5-6.7-7.26-8.66,1.33-.38-3.53-2.9-8.29-6.88-7.11-.09-.64-.01-1.48.67-1.78,1.18-.51,21.31-3.58,25.32-4.44,15.93-3.42,31.58-8.15,47.52-11.55l21.98-12.88c0,2.66,0,5.34,0,7.99Z"/>
                <path class="cls-30"
                      d="M17.09,304.32c-2.21,6-1.25,11.68,5.55,13.77,8.23,2.53,10.6-1.9,7.11,4.89,15.7,3.18,17.88-2.13,12.66,6.66-20.13,2.12-28.08-3.08-42.19-.44,0-8.88,0-17.77,0-26.65,5.54.45,11.44.65,16.88,1.78Z"/>
                <path class="cls-23"
                      d="M398.16,382.93c0,9.47,0,18.96,0,28.42-3.39-2.05-1.36.36-2,.44-.85.11.47-2.99-5.33,0-2.49,1.9-1.12,2.77-1.55,4.66-.09.4-.88.61-.89.67-2.98.95-.78-5.24-6.66-5.33.78-2.06.35-2.05-.89-3.55-.3-1.6,1.15.06,1.33-.67.31-1.25-4.51-6.61-1.78-5.77-3.07-1.99.92-.95.89-1.78-.04-1.16-3.49-2.01,0-2.66-3.73-2.82,3.27,1.44,3.55.44-4.06-1.44-11.83-10.12-2.44-4.22l.67-.67c-4.13-4.11-9.05-8.91-4.44-7.55-3.55-3.91,4.23,2.85-.44-2.89l19.99.44Z"/>
                <path class="cls-61"
                      d="M360.41,489.52c-1.26.32-3.04.39-3.11,2.22-.31.02-2.87,2.4-5.33-.22-.03-.04.75-.52.44-.89-1.65-1.97-1.22-.45-4.89-.22-2.06.13-2.65.64-3.33-.44-4.35,4.65-1.22,3.31-1.11,3.55-2.53,4.14-.65,1.79-.44,1.78,1.07-.04,1.05-.79,1.78.22-.32.71-.37,1.24-.44,2l-3.33,6.22c-4.06-3.69-.64.3-.67,1.55-.02,1.02-1.49,4.84-1.78,6.44-4.14,0-8.3,0-12.44,0,.32-1.46.61-2.97.89-4.44,1.2-6.31,1.62-5.17,5.77-9.33,1.91-1.92,4.19-3.33,6-5.33-6.32-1.51-12.58-3.32-18.88-4.89,8.37-1.29,3.74-.95,4.44-4.89.83-4.67,5.3-1.3,6-1.33,1.67-.07,4.18-3.17,6.66,0,2.91-5.6,6.97-5.58,6.22,1.33,2.87-.39,3.97.65,5.77,2.66,1.99-.08,4.94.12,5.77,2.22,1.64,0,7.32.82,6,1.78Z"/>
                <path class="cls-36"
                      d="M6.43,424.24c4.28.49,8.61.73,12.88,1.33-3.99,5.04-7.98,4.86.44,4.22-8.55,9.52,2.49.99,4.22,1.11l.67.67c-4.21,4.86,1.74,1.09,4,.22,1.04,1.08,4.78,1.43,6.22,1.33.38,3.25.07,6.51,0,9.77L.22,436.23c0-4.29,0-8.59,0-12.88,2.07.11,4.18.65,6.22.89Z"/>
                <path class="cls-25"
                      d="M89.49,505.07c6.07.74,12.33,1.85,18.43,2.22,12.1.73,30-.37,31.53,0,.33.08.23.59.22.89-.08.17-.36,2.17-.89,3.55-22.35-.02-44.72.04-67.06,0,.94-1.52-1.51-.33.44-2.22,2.04-1.98,6.51-3.86,8.88-5.77,2.63,1.29,5.64.99,8.44,1.33Z"/>
                <path class="cls-74"
                      d="M398.16,369.61c0,4.43,0,8.89,0,13.32l-19.99-.44c-6.92-8.49-3.14-5.7-3.55-6.88-.09-.26-1.12-1.86-1.78-4.22,8.11-1.68,16.94-.87,25.32-1.78Z"/>
                <path class="cls-40"
                      d="M163.21,508.62c-.06.85-.71,1.69-.44,3.11-2.95,0-5.93,0-8.88,0l3.78-9.33c-1.75,3.02-4.01,5.93-4.66,9.33-4.73,0-9.48,0-14.21,0,.53-1.39.81-3.39.89-3.55,2.36-5.12,14.95-11.99,20.21-14.66,1.08.21,3.72,9.74,3.33,15.1Z"/>
                <path class="cls-58"
                      d="M22.87,420.68c-.96,1.53-2.12,2.52-2.22,2.66-3.07-3.79-12.39-4.44-14.21.89-2.04-.23-4.15-.78-6.22-.89,0-5.32,0-10.67,0-15.99,7.79.06,12.48-5.72,15.99,5.55,10.97,6.52,2.38,5.85,6.66,7.77Z"/>
                <path class="cls-27"
                      d="M351.97,495.74c4.29.91,9.76,3.92,14.66,4.44.27.46.3,1.94.44,2.22l-1.78,9.33c-5.91.02-11.85-.01-17.77,0,3.12-5.01,2.47-11.32,1.33-16.88.97.45,2.07.67,3.11.89Z"/>
                <path class="cls-72"
                      d="M215.62,511.73c-.88,0-1.78,0-2.66,0-.8-.51-1.26-1.28-1.33-1.33-14.23-15.99-30.99-29.9-50.19-39.53,7.76,1.03,26.43,12.37,33.09,17.32,8.37,6.23,16.6,13.99,21.1,23.54Z"/>
                <path class="cls-7"
                      d="M291.13,501.52c9.99,4.24,19.65,8.8,30.65,10.22-11.84.02-23.69-.01-35.53,0l.89-11.55c.32.06.5-.12.44-.44,1.53.65,2.42,1.3,3.55,1.78Z"/>
                <path class="cls-48"
                      d="M205.85,507.29c1.27.84,4.09,1.93,5.77,3.11.08.05.53.83,1.33,1.33-16.72,0-33.47.01-50.19,0-.27-1.42.38-2.26.44-3.11,14.23.2,28.47.33,42.64-1.33Z"/>
                <path class="cls-32"
                      d="M326.66,507.29c-.28,1.47-.57,2.98-.89,4.44-1.33,0-2.67,0-4,0-10.99-1.41-20.66-5.98-30.65-10.22,0-.29-.12-.77.22-.89,3.48-1.22,29.32,6.21,35.31,6.66Z"/>
                <path class="cls-14"
                      d="M347.53,490.41c.22,1.39,1.18,3.69,1.33,4.44,1.14,5.55,1.79,11.86-1.33,16.88-2.95,0-5.93,0-8.88,0,1.62-3.45,1.15-6.79,3.78-9.77.23-.27,4.42-1.66,2.22-2.22-3.29,2.89-.95.59-.67-2.22.08-.76.12-1.29.44-2-.72-1.02-.71-.27-1.78-.22.44-1.02,1.04-.49.44-1.78-.11-.24-3.24,1.09,1.11-3.55.68,1.08,1.27.57,3.33.44Z"/>
                <path class="cls-64"
                      d="M398.16,411.36c0,3.4,0,6.82,0,10.22-3.22-.43-6.52-.77-9.77-.89,1.14-1.95-.02-3.38,0-3.55,0-.06.8-.27.89-.67.44-1.9-.93-2.77,1.55-4.66,5.8-2.99,4.48.11,5.33,0,.64-.09-1.39-2.49,2-.44Z"/>
                <path class="cls-55"
                      d="M49.96,511.73c-.15,0-.3,0-.44,0l2.22-3.33c.32-17.58,2-19.41.67-.67,4.11-4.16,7.65-8.94,11.99-12.88,3.47-3.15,14.09-11.44,11.55-7.55,13.47-.24,15.26,2.05.44.44-11.8,4.58,3.04-.53,10.66,2.66-12.05-.97-17.28-1.32-25.09,8.22l4.22-.22c-14.02,4.57-.51,1.2,6.88,2-15.02,1.74-13.48-.72-23.1,11.33Z"/>
                <path class="cls-22"
                      d="M.22,497.96c-.07-5.62.03-11.26,0-16.88,2.45-1.07.7-11.55,1.55-11.55,1.75,16.75-3.78,27.32,5.11,12.66,3.15-1.89-5.13,8.25-5.33,8.88-.5,1.61.71,7.31-1.33,6.88Z"/>
                <path class="cls-36"
                      d="M372.85,511.73c-2.51.02-5.04-.01-7.55,0l1.78-9.33c1.71,3.3,3.24,6.53,5.77,9.33Z"/>
                <path class="cls-61"
                      d="M394.16,475.76c.4,4.05.7,2.42,2.22,1.33-2.38,5.26-1.99,7.43,1.78,1.78,0,.59,0,1.19,0,1.78-4.04,1.62-5.08,12.62,0,6.66,0,.15,0,.3,0,.44-3.89,1.84-3.27,11.88-1.33,10.66-3.28,4.31-.41-6.74-3.55-10.44,1.65-4.41,1.82-9.9-1.33-13.55.11.06.64-.13,2.22,1.33Z"/>
                <path class="cls-40"
                      d="M398.16,496.19c-.76.46-.84,1.57-1.33,2.22-1.94,1.22-2.56-8.82,1.33-10.66-.02,2.81.03,5.63,0,8.44Z"/>
                <path class="cls-40" d="M398.16,487.3c-5.08,5.96-4.04-5.04,0-6.66,0,2.21.02,4.45,0,6.66Z"/>
                <path class="cls-44"
                      d="M338.65,511.73c-.15,0-.3,0-.44,0,.29-1.6,1.75-5.42,1.78-6.44.03-1.26-3.4-5.25.67-1.55l3.33-6.22c-.29,2.81-2.62,5.11.67,2.22,2.2.56-1.99,1.96-2.22,2.22-2.63,2.98-2.15,6.32-3.78,9.77Z"/>
                <path class="cls-40"
                      d="M398.16,478.86c-3.76,5.65-4.15,3.49-1.78-1.78.61-.44,1.12-.97,1.78-1.33,0,1.03,0,2.08,0,3.11Z"/>
                <path class="cls-22"
                      d="M.22,502.4c0-.29,0-.6,0-.89,4.23-1.53,10.79-12.18,9.77-8.22-.17.65-8.02,8.86-9.77,9.1Z"/>
                <path class="cls-55" d="M153.89,511.73c-.29,0-.6,0-.89,0,.66-3.4,2.92-6.31,4.66-9.33l-3.78,9.33Z"/>
                <path class="cls-22" d="M1.55,511.73c-.81-.15-1.5.34-1.33-.44l7.77-4.89-6.44,5.33Z"/>
                <path class="cls-30"
                      d="M397.72,306.1c-12.16,21.75-26.56,23.49-49.52,16.88-3.8.66-9.25,14.18-23.54,18.21-19.55,5.51-32.27-2.19-33.75-1.33-.6.35,5.65,6.61-9.33.89-5.37-.56-13.5,6.66-25.76,8.88-5.34.97-18,.51-17.54,3.11-6.51,0-13.03,0-19.54,0,1.82-1.36,7.51-.78,13.55-2.22,3.67-.88,7.07-2.88,10.44-4.44,3.19-1.48,4.54-2.2,7.55-4,1.91-1.14,3.94-2.3,5.77-3.55.08,1.54,3.87-.82,6.88-2.66,19.98-12.23,15.02-16.95,34.2-8.88,16.9-8.84,33.44-4.43,43.08-29.31,15.95,15.4,37.6,17.03,57.52,8.44Z"/>
                <path class="cls-30"
                      d="M105.92,326.53c-6.2,9.46-.49,4.91,12.21,6.22,5.34.55,10.45,2.31,15.77,2.66,5.18,2.18,10.2,4.41,15.54,6.22,1.93.65,3.81,1.21,5.77,1.78,3.05.89,6.26,1.93,9.33,2.66-9.33.76-25.58.69-34.42-.89-9.92-1.77-16.41-8-25.32-7.11-2.08.21-7.97,2.67-10.66,3.11-15.26,2.48-34.88,4.47-49.3-1.78,14.55,1.82,35.7,2.1,48.41-4.44-5.12-.49-22.25,1.15-25.54-1.33-5.23-11.86-19.87-4.42-23.98-4-.43.04-.9-.05-1.33,0,5.22-8.79,3.04-3.48-12.66-6.66,3.49-6.79,1.12-2.36-7.11-4.89-6.8-2.09-7.76-7.77-5.55-13.77,17.66,3.66,36.21,18.11,52.19,21.32,12.19,2.45,24.4.6,36.64.89Z"/>
                <path class="cls-45"
                      d="M138.34,97.35c-1.55.55-7.46,8.35-4.66,7.99.3-.04,1.93-2.34,5.11-3.11,1.58-.38,4.37-.6,6-.44,10.47.99,5.89,9,8.44,9.77,11.36-3.4,17.55,1.19,23.1-1.33,2.17-1.18,10.45,4.8,7.11,5.77-2.26.66-21.69-.42-26.43-.44-4.27-.52-2.71-2.7-3.33-3.11-.12-.08-1.17,1.56-2.66,1.33-.18-.03,1.38-2.75,0-3.55-4.98-2.91-69.68.61-80.17,1.78,6.1-15.71,20.18-3.27,21.54-4-4.77-9.2,1.87-18.02,11.99-14.21,8.49-17.25,31.57-7.02,33.98,3.55Z"/>
                <path class="cls-45"
                      d="M110.81,259.46c.32-.78-.78-2.57-.89-2.66,1.71-2.99,2.95-1.16,3.33-1.33.54-.24.19-6.65,9.33-4.44,1.45-10.99,17.78-11.57,19.99-1.78,16.96-4.18,15.12,3.22,15.99,3.55.41.15,6.24-2.73,8.44-1.78.54.23,1.04,3.23,1.78,3.55,1.44.62,11.89-5.33,12.44,3.11,4.27-1.05,8.2,1,1.33,1.78-3.81.43-61.83.26-71.73,0Z"/>
                <path class="cls-76"
                      d="M157,115.56c-33.65-.15-67.37.11-101.04,0,2.99-3.94,9.25-3.26,13.77-2.66.39-.05-.3-.73,1.11-.89,10.49-1.17,75.19-4.69,80.17-1.78,1.38.81-.18,3.53,0,3.55,1.5.22,2.54-1.41,2.66-1.33.63.41-.94,2.59,3.33,3.11Z"/>
                <path class="cls-59"
                      d="M133.9,335.41c-5.32-.36-10.43-2.11-15.77-2.66-12.71-1.31-18.42,3.24-12.21-6.22,17.05.4,16.61,4.09,27.98,8.88Z"/>
                <path class="cls-49"
                      d="M258.48,11.63c2.36,4.88,1.93,6.22,7.77,7.77-10.36,3.81-2.93,15.05-9.55,2.44-13.24-4.53,1.42,1.9,1.78-10.22Z"/>
                <path class="cls-49"
                      d="M210.51,66.71c1.55-1.1.09,5.35,8.22,6.44-5.65,1.86-5.62,3.04-6.88,8.66-1.49-5.3-2.43-6.09-7.33-8.22,0-.94,6.08-.35,6-6.88Z"/>
                <path class="cls-49"
                      d="M22.2,34.28c1.25-.09.5,5.1,6.44,6,.76,1.58-3.68.2-5.55,6.88-1.48.38-.99-5.33-8.66-6,8.85-1.54,6.63-6.8,7.77-6.88Z"/>
                <path class="cls-49"
                      d="M357.97,8.08c1.63,3.71,2.43,5.08,6.44,6.44.05.99-3.82.26-5.55,6.44-1.3.31-.47-4.97-7.77-6,4.88-1.47,5.41-1.97,6.88-6.88Z"/>
                <path class="cls-76"
                      d="M109.92,256.8c.1.09,1.21,1.88.89,2.66-3.72-.1-7.43.2-11.1-.67,1.36-3.68,7.66-4.29,10.22-2Z"/>
                <path class="cls-71"
                      d="M383.06,247.91c.17.5-.11,1.8,0,2.66-.4.06-6.75,3.49-7.33,3.55-5.19.57.4-4.08,7.33-6.22Z"/>
                <path class="cls-20"
                      d="M133.23,285.22c1.08-.09-.18,2.21,3.11,4.44l1.55.22c-5.04.39-2.83,7.74-6,.67-6.65-.57,2.58-1.05,1.33-5.33Z"/>
                <path class="cls-26"
                      d="M249.38,341.18c.08.74-.14,1.01.89.89-3.01,1.8-4.36,2.52-7.55,4-.09-1.67.37-3.22.44-4.89,0-.15,0-.3,0-.44l6.22.44Z"/>
                <path class="cls-20"
                      d="M259.37,283.44c1.19,2.86,2.27,4.39,4.22,4.66-2.93.23-5.15,5.45-4.89.89-6.67-1.81.16-.31.67-5.55Z"/>
                <path class="cls-45"
                      d="M138.79,102.24c-3.18.77-4.81,3.07-5.11,3.11-2.8.35,3.12-7.45,4.66-7.99.34,1.5-.54,3.42.44,4.89Z"/>
                <path class="cls-49" d="M123.91,26.29l3.33,2.44-2,4.22c-5.48-5.13-3.12-.72-1.33-6.66Z"/>
                <path class="cls-49" d="M56.4,14.3l2.44,3.78-3.33,2.44c-3.97-7.01-1.98-2.16.89-6.22Z"/>
                <path class="cls-49"
                      d="M197.63,174.63c.7,2.46,2.86,2.99,2.89,3.33.03.3-2.24,1.5-2.44,3.33-5.75-6.16-3.18-.36-.44-6.66Z"/>
                <polygon class="cls-49" points="84.38 61.38 87.71 64.71 84.82 67.59 81.49 64.71 84.38 61.38"/>
                <path class="cls-49"
                      d="M303.34,24.96l2.44,3.78c-5.83,3.61-1.02,2.44-6.22-1.33.32-.53,2.14.76,3.78-2.44Z"/>
                <path class="cls-49"
                      d="M170.1,232.81l3.78,2.89c-4.53,5.06-.03,2.49-6.22.89,2.99-.81,1.92-3.41,2.44-3.78Z"/>
                <path class="cls-19" d="M376.18,135.99l3.78,3.33-3.33,2.89c-4.59-6.67-2.82-.28-.44-6.22Z"/>
                <path class="cls-49"
                      d="M119.47,164.42l3.33,2.89c-4.7,3.88-1.57,1.38-6.22.44,1.51-1.17,2.54-1.06,2.89-3.33Z"/>
                <path class="cls-49"
                      d="M151.44,16.96c.18.06,2.47,2.7,2.44,2.89-.03.17-2.71,2.03-2.89,2-.16-.03-2.03-2.29-2-2.44.03-.17,2.28-2.5,2.44-2.44Z"/>
                <path class="cls-49" d="M38.19,287.89l2,3.33c-.19.29-3.46,2.63-4.89-1.33l2.89-2Z"/>
                <path class="cls-56" d="M282.46,157.75c1.77-.81,1.52,3.91.89,4-2.26.3-2.38-3.31-.89-4Z"/>
                <path class="cls-39" d="M369.52,293.22c.71-.13,2.86,2.6.89,3.11-2.47.64-1.82-2.94-.89-3.11Z"/>
                <path class="cls-39" d="M83.49,295.44c1.69-.45,2.3,3.11.44,3.11-1.23,0-1.65-2.79-.44-3.11Z"/>
                <path class="cls-51" d="M90.6,132.88c2.58,2.59-.93,3.55-1.11,2-.1-.85.94-.29,1.11-2Z"/>
                <path class="cls-51" d="M253.15,129.77c.19.04,1.97,2.88-.44,2.66-2.07-.18.26-2.7.44-2.66Z"/>
                <path class="cls-20" d="M51.07,151.54c.56.12,1.25,3.07,0,3.11-1.7.06-.43-3.2,0-3.11Z"/>
                <path class="cls-20" d="M77.72,150.65c1.96-.34.81,2.64,0,2.66-1.44.05-.53-2.57,0-2.66Z"/>
                <path class="cls-56" d="M200.74,30.73c1.16-.23,1.15,2.9,0,2.66-.65-.13-.65-2.53,0-2.66Z"/>
                <path class="cls-56" d="M388.17,104.9c1.48-.04.8,2.22,0,2.22-1.06,0-1.12-2.19,0-2.22Z"/>
                <path class="cls-20" d="M218.51,148.43c.59-.13,1.4,2.04.44,2.22-1.26.24-1.48-2-.44-2.22Z"/>
                <path class="cls-56" d="M37.3,81.36c1.09,0,1.09,2.22,0,2.22s-1.09-2.22,0-2.22Z"/>
                <path class="cls-49" d="M179.42,77.37c1.09,0,1.09,2.22,0,2.22s-1.09-2.22,0-2.22Z"/>
                <path class="cls-20" d="M237.61,169.75c.55.02,1.37,2.22,0,2.22-1.12,0-1.04-2.25,0-2.22Z"/>
                <path class="cls-49" d="M164.77,52.05c1.09-.24,1.48,1.55.44,1.78-1.09.24-1.48-1.55-.44-1.78Z"/>
                <path class="cls-49" d="M40.85,61.82c1.09-.24,1.48,1.55.44,1.78-1.09.24-1.48-1.55-.44-1.78Z"/>
                <path class="cls-56" d="M237.16,105.79c.61-.09,1.77,1.48.44,1.78-1.15.26-1.42-1.64-.44-1.78Z"/>
                <path class="cls-39" d="M335.32,173.3c.59.1.68,2.48-.44,2.22-.95-.22-.16-2.32.44-2.22Z"/>
                <path class="cls-20" d="M148.78,195.95c1.9-.41.99,1.75.44,1.78-.28.01-1.68-1.51-.44-1.78Z"/>
                <path class="cls-47"
                      d="M330.21,381.6c-1.55,4.95-2.51,11.4-4.44,16.21-.6,1.5-7.02,8.92-.67,5.11-8.78,8.79,1.32-1.31-.67,6-.19.7-5.48,8.07-5.55,10.44,2.71-2.49,1.24-.51-.22,1.33-1.01,1.27-2.22,2.6-3.55,3.55-1.53-2.31-1.85-.4-2-.44-.2-.06-.4-1.28-.89-1.33-2.44-.27-5.59,1.43-8.44,1.33-1.68.54-2.63,3.94-3.33,4.66-11.7,12.07-4.77-4.56-12.66.67-3.22-8.65-5.72-2.81-7.99-2.22-2.38.62-3.87-3.34-6.66-3.11-3.37.28-10.49,10.66-7.33,14.43-.28.45-3.01-1.05-3.55-1.11-.4-5.87-3.04-3.44-3.33-3.55-.63-.24,1.52-2.74-1.78-1.78-.5-5.11-2.87-2.11-3.11-2.22-.29-.14-1.97-3.8-5.33-2.22-.97-11.45-7.3-.89-7.99-.89-.87,0-1.9-6.84-4.89,2.22-1.49-2.26-2.4-7.27-5.55-7.55l-.44-1.33c.65-.06,1.34.04,2,0v-.89c-37.9-.35-75.85-1.01-113.7.89,19.48-.08,38.93.46,58.4.44-11.23,9.59-10.98-6.82-20.87,12.88-6.53,3.85-10.42,4.02-10.88,12.88-6.33-.83-12.95-2.02-19.32-.89-10.49-2.3-20.99-4.6-31.53-6.66-.19-3.2-1.45-6.45-.89-9.77.43-.01.47-.45.89-.44.45,0,.77-.63,1.11-.89,6.72,3.8,15.2,4.29,6-2.44h4c-3.27-1.97.09-.97-1.78-4-1.28-2.08-5.67-3.84-.44-3.11.18-.71-7.41-5.37.89-3.55-1.59-1.07-3.59-2.4-4.89-3.78l.44-.89c.24,0,1.7,1.02,2.22.22.52-.81-4.46-9.36-6.66-17.99l85.5.89c-3.23,4.28,17.78,3.56,14.66,5.33l-51.08.89c-.55.16.83.88.89.89,7.12.63,29.04-.5,40.42.44,17.33,6.1,24.66.24,30.2-.44,7.94-.98,38.41.11,50.19-.44v-.89l-57.29-.89,11.1-2.22.44-3.11c20.07.1,40.12-.7,60.18-.89,4.88-.05,9.79.22,14.66-.22-4.87-.42-9.78-.2-14.66-.22-23.61-.1-47.21-1.22-70.84-.89v-.89c5.09-.63,10.31-1.57,14.66-4.44l67.95-.44-72.17-1.78c2.49-.44,5.99-1.5,7.99-3.11l102.6,2.22Z"/>
                <path class="cls-15"
                      d="M332.43,497.96c-4.15,4.16-4.57,3.01-5.77,9.33-5.98-.45-31.83-7.88-35.31-6.66-.35.12-.22.6-.22.89-1.13-.48-2.02-1.13-3.55-1.78-13.06-5.54-25.89-11.58-39.08-16.88-1.34-.54-22.11-7.9-21.1-8.44,35.18,6.85,70.11,15.41,105.04,23.54Z"/>
                <path class="cls-65"
                      d="M302.67,463.76c3.99-1.18,6.5,3.57,6.88,7.11,1.96-8.6,8.49-5.83,8.66-1.33.06,1.65-1.47,4.71-2.66,6,3.7-.24,8.15,2.2,7.11,6.44-.61,2.49-5.97,3.85-7.99,4.89-7.68-1.89-15.39-4.01-23.1-5.77v-4c.33,0,.46-.55,1.78-.89,1.05-.27,2.02-.53,3.11-.67-3.88-2.14-8.41-8.75-.89-7.99-.75-1.35-1.73-3.09-1.78-4.66-.18-6.34,5.91-5.59,8.88.89Z"/>
                <path class="cls-36"
                      d="M46.41,440.23c10.53,1.84,21.05,3.71,31.53,5.77-.09,1.65-13.68.21-7.77,2.22,5.48,1.87,16.42.76,22.43,1.33,1.47.14,1.69,0,1.78,0,3.51.34,7.21,1.06,10.66,1.78,7.68,1.59,21.37,6.17,29.31,8.88.4,2.31,3.5,2.37,2.22,4.89-32.25-7.68-64.66-14.81-97.27-20.87-.12-1.42-.29-3.02-.44-4.44l7.55.44Z"/>
                <path class="cls-27"
                      d="M161.44,470.87c19.2,9.63,35.96,23.54,50.19,39.53-1.68-1.18-4.51-2.27-5.77-3.11-8.45-5.59-16.67-11.1-25.32-16.43-13.51-8.34-27.26-16.31-40.64-24.87l-3.33-.89c1.28-2.52-1.82-2.58-2.22-4.89,4.71,1.6,9.84,2.6,14.43,4.44,2.26.91,2.51,2.15,2.66,2.22,3.31,1.4,6.76,2.37,9.99,4Z"/>
                <path class="cls-68"
                      d="M194.75,453.99c.73.14,1.49.3,2.22.44,13.2,2.61,26.36,5.69,39.53,8.44,2.37.5,4.77,1.29,7.11,1.78-.52,1.08-2.17,2.61-1.78,5.77-22.49-4.78-45.11-8.54-67.51-13.77,4.13.12,17.26-.97,15.99-3.55,1.47.28,2.97.6,4.44.89Z"/>
                <path class="cls-36"
                      d="M256.93,466.43c5.84-.28,11.03-.32,16.88,0,5.28.29,13.83,2.05,14.66,0,7.34,1.35-3.91,3.11-6.22,3.55-2.65.51-5.52.65-8.22.89v.89c3.02-.13,16.63,5.3,17.54,5.33v4c-16.5-3.79-33.18-7.14-49.74-10.66-.4-3.17,1.26-4.7,1.78-5.77,3.8.8,7.7,1.13,11.33,2.66,2.69.36,1.86-.88,2-.89Z"/>
                <path class="cls-34"
                      d="M156.55,433.56c-4.17.51,5.53,3.92,6.44,2.22,3.58,2.29,2.03,5.44,2.44,6.88.03.12,1.39.38,1.78,1.78.4,1.42-1.17,1.36-.44,3.33-1.71,2.21-3.88.51-3.55,3.11-3.15-.04-6.19.39-9.33.44-9.62-1.36-18.96-4.15-28.42-6.22,6.37-1.13,12.99.06,19.32.89.46-8.86,4.35-9.03,10.88-12.88-.02.67.54.35.89.44Z"/>
                <path class="cls-68"
                      d="M180.09,450.88c-.39.99,1.96,1.05,3.55,1.33,2.16.39,4.53.48,6.66.89,1.27,2.58-11.86,3.67-15.99,3.55-6.83-1.59-13.87-2.79-20.43-5.33,3.14-.05,6.17-.48,9.33-.44,4.9.05,12.93.69,16.88,0Z"/>
                <path class="cls-37"
                      d="M93.04,428.68c-.57,3.32.69,6.57.89,9.77.14,2.39-.47,5.43.44,9.77.09.41-.05.91,0,1.33-.09,0-.31.14-1.78,0-2.44-.63-2.19-1.67-2.66-1.78.43-2.01-.01-1.69,0-1.78.39-2.93.25-5.54.44-8.44.19-2.76.65-5.64.89-8.44.02-.29-.03-.6,0-.89,1.49-1.11,1.66.45,1.78.44Z"/>
                <path class="cls-52"
                      d="M287.57,499.74c.05.32-.12.51-.44.44-2.04-.41-35.91-14.53-38.42-15.99-.81-.47-.6-.69-.22-1.33,13.19,5.3,26.03,11.34,39.08,16.88Z"/>
                <path class="cls-36"
                      d="M323.99,482.86c-.7,3.94,3.93,3.6-4.44,4.89-1.45-.36-3.36-.51-4.89-.89,2.02-1.03,7.38-2.39,7.99-4.89l1.33.89Z"/>
                <path class="cls-46"
                      d="M105.03,451.33c-3.45-.72-7.15-1.43-10.66-1.78-.05-.43.09-.92,0-1.33l10.66,3.11Z"/>
                <path class="cls-16"
                      d="M180.53,490.86c8.64,5.34,16.86,10.84,25.32,16.43-14.17,1.67-28.41,1.53-42.64,1.33.39-5.36-2.25-14.89-3.33-15.1-5.26,2.66-17.85,9.53-20.21,14.66,0-.3.11-.81-.22-.89-1.53-.37-19.44.73-31.53,0-6.1-.37-12.37-1.48-18.43-2.22-.25-.66.7-1.2,1.11-1.33,8.81-2.81,35.58-6.72,49.3-13.32l40.64.44Z"/>
                <path class="cls-40"
                      d="M105.48,473.54c-2.8,8.16-17.39,24.53-24.43,30.2-2.38,1.91-6.85,3.79-8.88,5.77-3.44-3.55-.57-1.94,2.89-4,12.44-7.42,25.07-29.18,27.76-31.31,1.04-.83,1.29-.76,2.66-.67Z"/>
                <path class="cls-27" d="M34.41,457.99v1.78c-5.76-.26-22.99-5.06-29.76-6.88l29.76,5.11Z"/>
                <path class="cls-48"
                      d="M21.53,485.08c-.33,2.24.62,6.93-.67,7.11l-3.78-4c.14-.3-1.39-2.82,4.44-3.11Z"/>
                <path class="cls-73"
                      d="M54.4,487.3c-.83.86-2.83,3.1-3.55,4-.9-1.6-1.3-3.57-1.78-5.33,1.91-.64,6.69-1.29,5.33,1.33Z"/>
                <path class="cls-31"
                      d="M218.73,352.73c6.51,0,13.03,0,19.54,0,4.88,0,9.84.44,14.66.44-1.66,1.95,10.03,1.06,6.44,2.22-4.43,1.43-38.25-1.36-25.09,2.89-6.43,5.57,11.27,2.59,21.1,3.33v.89c-10.8.27-30.87-.37-40.42.89-7.71,1.01,9.78.96,11.77.89-.24.47-.78,1.23-.22,1.33,1.7.3,18.8-.02,23.76,0,36.22-1.1,72.62,1.46,108.81.44-17.78,1.39-35.83.74-53.74.89-9.37.08-67.48-.69-70.84.44-1.47.49-.03.71.67,1.33-.26,0,2.5.86-4,1.33-1.45.11-2.98,0-4.44,0-18.24.07-36.58-.97-54.85-.44-.36.24-2.31.89-2.44.89-.14,0-.42.39-2.66.44-.33-1.83-8.32-.91-9.55-1.33-.31-.11,2.97-1.49-3.55-2.22-15.52-1.74-93.48,1.18-117.92-.44-.11-.37-.31-.52-.44-.89h3.55c31.53-.42,63.06-.34,94.6-.44,5.36-.02,37.88.66,39.75,0,5.55-1.96-7.02-2.16-7.55-2.22-.09-.01-1.1-.84-1.55-.89-9.85-1-20.49-.12-30.42-.44l27.98-.89c-2.67-4.62,4.57-4.44,2.66-5.33-9.09.6-18.44-.01-27.54-.89,3.39-1.78,11.31,1.64,12.66-2.22,14-.02,28.17-.44,42.19-.44,8.98,0,18.08.44,27.09.44Z"/>
                <path class="cls-30" d="M67.72,333.63c-6.44-.07-18.16-1.52-23.98-4,4.12-.42,18.76-7.86,23.98,4Z"/>
                <path class="cls-17"
                      d="M370.63,361.17c-1.26-.38-1.13,3.42-1.78,5.55-1.13,3.75-2.12,4.43-2.22,4.66-.5-.13-1.89-.87-2-.89-3.95-.52-42.38.29-51.96.44-.33,0-.11.88-.44.89-10.72.17-21.48-.05-32.2,0,0-.3-.11-.81.22-.89,3.37-.81,19.06.85,18.43-1.78,22.05-.1,8.3.16,6.88-.44-.43-.18-.15-1.34-.22-1.78,17.91-.15,35.96.5,53.74-.89,2.88-.08,5.78.06,8.66,0,1.36-.57,1.07-6.27,2.66-5.77.41.2.13.66.22.89Z"/>
                <path class="cls-67"
                      d="M250.26,365.61c-4.96-.02-22.06.3-23.76,0-.56-.1-.02-.86.22-1.33,3.64-.13,21.84-1.88,23.76-.89.65.33-.49,1.17-.22,2.22Z"/>
                <path class="cls-20"
                      d="M133.46,365.61c-4.49-.82-9.22-.43-13.77-.44,0-.29-.12-.77.22-.89,1.36-.48,24.34.19,28.87,0,.34-.01.1-.87.44-.89,5.49-.25,14.16.81,14.88-.89.45.05,1.47.88,1.55.89.53.07,13.11.26,7.55,2.22-1.87.66-34.39-.02-39.75,0Z"/>
                <path class="cls-43"
                      d="M119.69,365.17c4.55.01,9.27-.38,13.77.44-31.55.11-63.07.03-94.6.44,0-.3-.11-.81.22-.89,3.92-.94,69.86-.03,80.61,0Z"/>
                <path class="cls-61"
                      d="M357.3,491.74c4.26-.24,2.08,2.32-.89,4-.81-.21-4.04-.76-4.44,0-1.04-.22-2.14-.44-3.11-.89-.15-.75-1.11-3.05-1.33-4.44,3.67-.23,3.24-1.75,4.89.22.3.37-.48.85-.44.89,2.46,2.62,5.02.24,5.33.22Z"/>
                <path class="cls-22"
                      d="M369.29,477.09c1.28.66,2.81.97,3.78,2.22,1.13-.4-6.32-11.63-7.11-12.88,3.3,1.88,5.01,9.01,6.44,7.33.56,3.35,1.9,6.28,3.78,9.1,2.24-15.96,2.42-7.33.44,1.78-2.37-4.32-3.48-4.8-7.33-7.55Z"/>
                <path class="cls-13"
                      d="M356.41,495.74s-.16.8.22.89c2.21.52,5.93.57,8.44,1.33.86.58,1.07,1.41,1.55,2.22-4.9-.52-10.37-3.53-14.66-4.44.4-.76,3.63-.21,4.44,0Z"/>
                <path class="cls-65" d="M382.17,502.4c-7.17-6.07-13.25-10.42-.67-1.78,9.36-9.22-.28.53.67,1.78Z"/>
                <path class="cls-61"
                      d="M394.16,475.76c-2.47-3.95-5.57-7.18-.67-2.66l.67-.67c-.92-2.86.31-3.83.67-6.44,1.22,2.87-.8,8.47-.67,9.77Z"/>
                <path class="cls-14" d="M363.3,492.63c4.88.13.37,2.13-2.89,2.44-.35-.77,2.7-2.45,2.89-2.44Z"/>
                <path class="cls-61" d="M395.72,500.63c.89-.11.63.46.67,1.11.23,4.42-3.02,1.54-.67-1.11Z"/>
                <path class="cls-65" d="M382.17,502.4c3.68-3.44,3.45-2.08.22.89l-.22-.89Z"/>
                <path class="cls-22" d="M369.29,477.09c-1.64-.84-1.16-.4-2.66-1.78,2.43,1.13,2.07,1.35,2.66,1.78Z"/>
                <path class="cls-22" d="M366.63,475.31c-.05-.05-.73.23-1.33-.67.82-.77,1.26.63,1.33.67Z"/>
                <path class="cls-61" d="M391.94,474.42s-1.44.21-.67-.89c.67.49.62.86.67.89Z"/>
                <path class="cls-15"
                      d="M328.43,432.23c-.29,3.84-.22,7.74-.89,11.55-.36.64-5.01,2.76-6,3.11-8,2.86-38.5,8.75-49.97,11.99-1.28-2.37-3.42-5.05-6.44-3.55-1.83-9.22-4.47-1.17-4.89-.89-.59.41-7.84.04-11.33,4-2.85-.26-12.84,1.42-12.44,4.44-13.16-2.75-26.33-5.83-39.53-8.44l-.44-.89c11.43-2.08,22.81-4.39,34.2-6.66,4.91-.98,9.77-2.1,14.66-3.11,3.35-.69,6.85-1.07,10.22-1.78,2.51-.53,5.04-1.25,7.55-1.78.61,1.53.54,1.3,2,1.33,3.5.08,52.16-8.81,63.29-9.33Z"/>
                <path class="cls-15"
                      d="M367.07,425.12c-.21,1.58.31,3.22-.44,4.89-3.48,3.71-1.7,3.91,3.55,3.11.04.61,1.76.84,1.78,1.11.02.29-1.63.97-2,1.11-1.56.59-28.92,6.89-32.42,7.55-.73.14-2.09.12-2-.44,3.81-5.07-3.14-.38-3.55-1.55-.34-3.31-.22-6.69-.44-9.99l35.53-5.77Z"/>
                <path class="cls-14"
                      d="M271.58,458.88c.34,2.5,3.42-.22,6,1.33,2.42,1.46-1.47,1.86,4.66,4.89.44.22,1.14.36,1.33.89-1.44-.14-2.98.06-4.44,0,0-.3.11-.81-.22-.89-1.52-.36-14.15,1.24-31.09-1.33-.37-.06-.18-.88-.22-.89-1.36-2.54.25-3.21,1.33-4.44,3.48-3.96,10.74-3.59,11.33-4,.41-.29,3.06-8.33,4.89.89,3.02-1.5,5.16,1.18,6.44,3.55Z"/>
                <path class="cls-65"
                      d="M381.73,411.8c5.88.09,3.68,6.28,6.66,5.33-.02.18,1.14,1.6,0,3.55-3.23-.12-6.53-.01-9.77,0-2.51,0-5.06.16-7.55,0,0-.15,0-.3,0-.44,4.27.2-1.35-1.91,1.11-4,3.25-.93,5.62-4.5,9.55-4.44Z"/>
                <path class="cls-37"
                      d="M331.1,420.24c.25,1.43-.13,3.96,0,5.77.12,1.64.33,3.24.44,4.89.22,3.3.1,6.68.44,9.99.41,1.18,7.36-3.51,3.55,1.55-2.37,3.16-4.8,3.6-7.99,1.33.67-3.8.6-7.71.89-11.55.37-4.88-.02-5.49,0-5.77.12-1.97.23-4.27.44-6.22.42-3.79,1.72-2.88,2.22,0Z"/>
                <path class="cls-36"
                      d="M293.35,476.2c-2.12-3.61-7.8-3.9-11.1-6.22,2.31-.44,13.56-2.21,6.22-3.55-1.04-.19-3.5-.31-4.89-.44-.19-.53-.89-.67-1.33-.89l11.55-2.22c.04,1.57,1.03,3.31,1.78,4.66-7.52-.75-3,5.85.89,7.99-1.08.14-2.06.4-3.11.67Z"/>
                <path class="cls-21"
                      d="M370.18,433.12c-5.25.8-7.03.6-3.55-3.11,2.56.82,4.38-.7,4.89-.89,2.65-1,3.28-1.72,6.66-2.22,3.58-.53,5.89-1.22,2.89,1.33-1.35,1.15-8.89,4.58-10.88,4.89Z"/>
                <path class="cls-15"
                      d="M378.62,420.68c-1.41,1.49-10.41,2.54-4.66,4.89,2.16.88,4.59-.22,4.22,1.33-3.38.5-4.01,1.22-6.66,2.22-.71-2.77-.32-5.62-.44-8.44,2.49.16,5.04,0,7.55,0Z"/>
                <path class="cls-17" d="M20.2,371.38c-3.69-.02-7.42.2-11.1-.22,3.72-.74,7.42.03,11.1.22Z"/>
                <path class="cls-35"
                      d="M380.84,408.25c1.24,1.5,1.67,1.5.89,3.55-3.93-.06-6.3,3.51-9.55,4.44-2.46,2.08,3.16,4.19-1.11,4-.22-5.14-1.29-10.39-.44-15.54.13-.06-.47-1.92,1.55.44,1.05-4.86,2.87-.6,3.11-.44,1.63,1.07,4.31,2.05,5.55,3.55Z"/>
                <path class="cls-1" d="M342.64,495.3c-.21,0-2.08,2.36.44-1.78.6,1.28,0,.76-.44,1.78Z"/>
                <path class="cls-75"
                      d="M20.65,423.35c-.38.55-.65,1.36-1.33,2.22-4.27-.6-8.6-.84-12.88-1.33,1.82-5.33,11.14-4.68,14.21-.89Z"/>
                <path class="cls-7"
                      d="M35.3,433.12c-.14.02-.3-.01-.44,0-1.44.1-5.18-.25-6.22-1.33,3.18-1.22,7.74-4.87,6.66,1.33Z"/>
                <path class="cls-44" d="M156.77,497.96c.66.61-.09.86-.44,1.33-1.67,2.28-2.57,1.18.44-1.33Z"/>
                <path class="cls-52"
                      d="M219.62,382.49l72.17,1.78-67.95.44c-4.35,2.87-9.57,3.82-14.66,4.44v.89c23.63-.33,47.23.79,70.84.89v.44c-20.06.19-40.11.99-60.18.89l-.44,3.11-11.1,2.22,57.29.89v.89c-11.78.55-42.24-.54-50.19.44-5.54.68-12.87,6.54-30.2.44-11.37-.94-33.29.19-40.42-.44-.06,0-1.44-.73-.89-.89l51.08-.89c3.12-1.77-17.89-1.05-14.66-5.33l-85.5-.89c-.04-.14.03-.3,0-.44l99.26-1.33c-7.07-1-13.91-2.29-20.43-5.33h-86.61v-.89c12.95-.77,90,.21,94.6-.89.33-.08.23-.59.22-.89,4.19.5,9.03-1.36,9.1,1.33,9.31-1.5,19.42.74,28.65-.89Z"/>
                <path class="cls-58"
                      d="M230.28,421.13c3.15.28,4.06,5.29,5.55,7.55,2.99-9.06,4.02-2.22,4.89-2.22.69,0,7.02-10.56,7.99.89,3.36-1.58,5.04,2.08,5.33,2.22.24.12,2.61-2.88,3.11,2.22,3.29-.96,1.15,1.54,1.78,1.78.3.11,2.93-2.32,3.33,3.55-4.92-.51-4.64.58-6.66,4.89-3.37.71-6.86,1.08-10.22,1.78,0-.3.11-.81-.22-.89-2.67-.64-46.97,1.79-54.85.89-.37-6.14-3.41-3.86-4-4.66-.23-.32.9-4.68.44-7.77,8.45-14.2,11.77-2.66,12.66-2.66.55,0,1.13-2.49,1.78-2.66,1.35-.36,1.51,2.03,2.66,1.78.62-.13-.7-1.83,5.77-2.22,5.05,8.69,1.91,2.71,4.44,1.78,5.25-1.93,6.4,4.75,11.77-1.55.24-.28.2-5.04,4.44-4.66Z"/>
                <path class="cls-31"
                      d="M226.73,370.05c-.22.44-2.33.97-2.22,1.55.08.39.69.13.89.22,4.77,2.12,7.42-1.08.22,3.55,7.03.13,14.07.24,21.1.44v1.33c-6.29.11-12.59-.16-18.88.44-.49.29-.08,1.66-.22,1.78-2.01,1.6-5.5,2.67-7.99,3.11-9.23,1.63-19.34-.61-28.65.89-.07-2.69-4.92-.83-9.1-1.33-1.98-.24-6.83-.63-8.22-1.33-2.53-1.28-1.45-3.62-4.22-3.11l-1.33-2.22c1.68-.13,3.42.09,5.11,0v-.89l-4.66-1.11c0-.81,7.74-1.24,4.89-2l-4-.89c.13,0,2.08-.65,2.44-.89,18.27-.53,36.61.51,54.85.44Z"/>
                <path class="cls-58"
                      d="M179.65,420.24c2.66,2.95,6.5,6.95,7.11,11.1.45,3.09-.68,7.45-.44,7.77.58.8,3.63-1.47,4,4.66-1.18-.09-1.49.77-1.33,1.78-2.29.4-.98,3.94-8.88,5.33-3.94.69-11.98.05-16.88,0-.33-2.6,1.84-.9,3.55-3.11,2.49-3.22-.79-5.53-.89-10.88l-2-1.55c-3.89.88-3.91-.89-7.33-1.78-.35-.09-.91.22-.89-.44,9.9-19.7,9.64-3.29,20.87-12.88,1.03,0,2.08,0,3.11,0Z"/>
                <path class="cls-17"
                      d="M363.52,377.16c-.85,1.74-1.89,3.6-2.66,5.33l-28.42-.89c-.65-5.21-.72-4.79-2.22,0l-102.6-2.22c.14-.11-.26-1.49.22-1.78,6.28-.61,12.58-.33,18.88-.44,4.64-.08,30.68.53,32.2,0,.35-.12.22-.6.22-.89,28.14.24,56.31-.31,84.39.89Z"/>
                <path class="cls-11"
                      d="M94.82,391.37c.03.14-.04.31,0,.44,2.2,8.63,7.18,17.18,6.66,17.99-.52.8-1.98-.21-2.22-.22-1.07-.04-1.08-.64-1.33-.22-.35.58.82,1.04.89,1.11,1.3,1.38,3.29,2.7,4.89,3.78-8.3-1.81-.71,2.85-.89,3.55-5.23-.73-.84,1.03.44,3.11,1.87,3.03-1.5,2.03,1.78,4h-4c9.21,6.74.72,6.24-6,2.44-.34.26-.66.89-1.11.89l-2.44-3.55c.08,1.22-.11,2.34-.22,3.55-.03.29.02.6,0,.89-2.18-1.55-3.05,1.24-3.78.89-.74-.36.47-1.17.22-1.55-1.32-2.06-8.49,7.79-5.33-1.78.29-.86,3.3-2.36-.44-1.33,2.09-3.43,5.71-6.65,5.11-10.88-10.71,4.08,8.77-5.89-3.33-1.78,3.88-3.16,7.23-15.45,8.44-20.43.06-.26-.06-.63,0-.89.45-1.89,1.13-3.85,1.55-5.77.27,1.96.67,3.85,1.11,5.77Z"/>
                <path class="cls-11"
                      d="M332.43,381.6c.23,1.83.05,5.08.44,6.88.26,1.21,3.95,5.74,1.78,7.11,8.9,7.64-5.64,2.99,6.22,9.77h-4.44c6.42,5.79,1.27,2.74,1.33,4.44.01.41,2.13.8,5.33,6.22l-4.44.44c10.97,9.57-3.57,1.98-7.55,3.78-.5-2.88-1.8-3.79-2.22,0l-3.78.89c1.83-4.79-4.82,3.8-6.44-.44,1.46-1.85,2.93-3.82.22-1.33.07-2.37,5.36-9.74,5.55-10.44,1.98-7.31-8.11,2.8.67-6-6.35,3.81.06-3.61.67-5.11,1.93-4.81,2.89-11.26,4.44-16.21,1.5-4.79,1.57-5.21,2.22,0Z"/>
                <path class="cls-58"
                      d="M315.11,424.24c.92,1.39-.35,3.05.44,4.44-17.5,3.47-34.93,7.88-52.41,11.55-2.51.53-5.04,1.25-7.55,1.78,2.03-4.31,1.74-5.4,6.66-4.89.55.06,3.28,1.56,3.55,1.11-3.16-3.77,3.96-14.15,7.33-14.43,2.79-.23,4.29,3.73,6.66,3.11,2.27-.59,4.78-6.43,7.99,2.22,7.89-5.23.96,11.41,12.66-.67.7-.72,1.65-4.12,3.33-4.66,2.85.1,6-1.6,8.44-1.33.48.05.69,1.27.89,1.33.14.05.46-1.87,2,.44Z"/>
                <path class="cls-54"
                      d="M229.83,419.79l.44,1.33c-4.24-.38-4.2,4.38-4.44,4.66-5.37,6.3-6.52-.37-11.77,1.55-2.53.93.61,6.91-4.44-1.78-6.47.39-5.15,2.09-5.77,2.22-1.16.25-1.31-2.13-2.66-1.78-.64.17-1.23,2.66-1.78,2.66-.89,0-4.2-11.53-12.66,2.66-.61-4.15-4.45-8.16-7.11-11.1,10.88-.02,43.8.19,50.19-.44Z"/>
                <path class="cls-10"
                      d="M183.87,407.36c24.52-.34,49,.86,73.5,1.11-36.93,1.43-73.86.96-110.81.67v-.89c12.46.62,24.9-.72,37.31-.89Z"/>
                <path class="cls-10"
                      d="M229.83,419.79c-6.39.63-39.3.43-50.19.44-1.03,0-2.08,0-3.11,0-19.47.01-38.92-.52-58.4-.44,37.85-1.9,75.8-1.24,113.7-.89v.89c-.66.04-1.35-.06-2,0Z"/>
                <path class="cls-64"
                      d="M328.88,420.24c-.22,1.95-.33,4.25-.44,6.22-4.18,1.2-8.64,1.38-12.88,2.22-.79-1.39.48-3.05-.44-4.44,1.34-.95,2.55-2.28,3.55-3.55,1.62,4.24,8.27-4.34,6.44.44l3.78-.89Z"/>
                <path class="cls-4" d="M280.02,391.37v-.44c4.87.02,9.79-.2,14.66.22-4.87.44-9.78.18-14.66.22Z"/>
                <path class="cls-3"
                      d="M93.93,428.23c-.42,0-.46.43-.89.44-.12,0-.29-1.56-1.78-.44.11-1.21.3-2.33.22-3.55l2.44,3.55Z"/>
                <path class="cls-42" d="M99.26,409.58l-.44.89c-.07-.07-1.24-.53-.89-1.11.26-.42.26.18,1.33.22Z"/>
                <path class="cls-8"
                      d="M282.24,469.98c3.31,2.32,8.99,2.61,11.1,6.22-1.32.34-1.44.9-1.78.89-.92-.03-14.53-5.46-17.54-5.33v-.89c2.7-.23,5.57-.38,8.22-.89Z"/>
                <path class="cls-72"
                      d="M53.96,436.67c9.26,3.39,25.63,5.65,35.98,9.33-.01.09.43-.23,0,1.78-.1-.02-.42.77-2,.44-3.33-.69-6.66-1.56-9.99-2.22-10.49-2.07-21-3.94-31.53-5.77-2.5-.44-4.99-1.19-7.55-1.33-.19-1.59-.18-4.41-.89-5.77.76-3.53,6.03,3.61,3.78-2.22,7.63,8.59,3.3,2.09,4.89,1.78.41-.08,6.21,3.59,7.33,4Z"/>
                <path class="cls-27"
                      d="M89.93,447.78c.48.11.23,1.15,2.66,1.78-6.01-.57-16.95.53-22.43-1.33-5.91-2.01,7.68-.57,7.77-2.22,3.34.66,6.67,1.53,9.99,2.22,1.58.33,1.9-.47,2-.44Z"/>
                <path class="cls-27" d="M46.41,440.23l-7.55-.44c-.03-.29.03-.6,0-.89,2.56.14,5.05.9,7.55,1.33Z"/>
                <path class="cls-70"
                      d="M230.72,446.89c-11.39,2.28-22.77,4.58-34.2,6.66-.62.11-1.08-.12-1.78.44-1.47-.29-2.97-.6-4.44-.89-2.13-.41-4.5-.5-6.66-.89-.32-.84,1.46-1.22,2-1.33,3.41-.72,17.68-3.21,20.65-3.55,8.17-.93,16.21-.99,24.43-.44Z"/>
                <path class="cls-15"
                      d="M248.93,458.43c-1.08,1.23-2.69,1.9-1.33,4.44-6.32-.67,2.09,2.14,9.33,3.55-.13,0,.69,1.25-2,.89-3.63-1.53-7.53-1.87-11.33-2.66-2.33-.49-4.73-1.28-7.11-1.78-.4-3.02,9.59-4.7,12.44-4.44Z"/>
                <path class="cls-33" d="M196.52,453.55l.44.89c-.73-.14-1.49-.3-2.22-.44.7-.57,1.16-.33,1.78-.44Z"/>
                <path class="cls-22"
                      d="M279.13,465.98c-1.23-.05-5.32-1.5-5.33.44-5.84-.32-11.03-.28-16.88,0-7.24-1.42-15.65-4.22-9.33-3.55.05,0-.15.83.22.89,16.94,2.57,29.57.97,31.09,1.33.33.08.23.59.22.89Z"/>
                <path class="cls-3"
                      d="M279.13,465.98c1.46.06,3-.14,4.44,0,1.39.13,3.84.25,4.89.44-.82,2.05-9.37.29-14.66,0,0-1.94,4.1-.49,5.33-.44Z"/>
                <path class="cls-6"
                      d="M166.77,447.78c-.73-1.97.84-1.91.44-3.33-.39-1.4-1.74-1.66-1.78-1.78-.41-1.44,1.14-4.59-2.44-6.88-.91,1.7-10.61-1.71-6.44-2.22,3.42.88,3.44,2.65,7.33,1.78l2,1.55c.1,5.35,3.38,7.66.89,10.88Z"/>
                <path class="cls-41"
                      d="M188.97,445.55c3-.53,12.68,1.93,17.32,1.78-2.97.34-17.24,2.83-20.65,3.55-.53.11-2.32.49-2,1.33-1.59-.29-3.94-.34-3.55-1.33,7.9-1.39,6.59-4.93,8.88-5.33Z"/>
                <path class="cls-54"
                      d="M91.26,429.12c-.24,2.8-.7,5.68-.89,8.44-13.03-1.3-25.96-5.13-39.08-4.89-.25-.39-2.55-4.13-2-4.44,2.21,0,4.31,2.07,5.55,2.22,4.82.6,1.34-3.91,1.33-4.22-.01-.95,1.46-4.41,0-9.55,2.23.19,15.46-4.77,25.98-2.66.96-1.65,1.48-1.27,1.55-1.33,12.1-4.11-7.38,5.85,3.33,1.78.6,4.23-3.01,7.45-5.11,10.88,3.74-1.03.73.47.44,1.33-3.16,9.57,4.01-.28,5.33,1.78.25.38-.97,1.2-.22,1.55.73.35,1.6-2.44,3.78-.89Z"/>
                <path class="cls-60"
                      d="M90.38,437.56c-.2,2.9-.05,5.5-.44,8.44-10.34-3.67-26.72-5.93-35.98-9.33-.3-1.69-1.81-2.68-2.66-4,13.13-.25,26.05,3.59,39.08,4.89Z"/>
                <path class="cls-17"
                      d="M166.77,370.94c-10.49.24-21.2-.63-31.76-.44v.89c3.48.04,6.97-.06,10.44,0,.05,1.35-7.15,1.24-11.1,1.33-32.35.74-64.89-1.79-97.27,0-.51-1.89-.79-3.92-1.33-5.77,24.44,1.62,102.4-1.3,117.92.44,6.52.73,3.24,2.11,3.55,2.22,1.23.42,9.22-.5,9.55,1.33Z"/>
                <path class="cls-69"
                      d="M298.68,369.16c.63,2.63-15.06.97-18.43,1.78-.33.08-.23.59-.22.89-8.28.04-16.59.08-24.87,0,0-.29.12-.77-.22-.89-1.91-.67-20.6.7-23.54,0-.33-.08-.23-.59-.22-.89,6.5-.48,3.74-1.33,4-1.33,21.16-.16,42.34.54,63.51.44Z"/>
                <path class="cls-17"
                      d="M305.34,366.94c.07.44-.21,1.59.22,1.78,1.42.6,15.17.34-6.88.44-21.18.1-42.35-.6-63.51-.44-.7-.62-2.14-.84-.67-1.33,3.36-1.13,61.47-.37,70.84-.44Z"/>
                <path class="cls-62"
                      d="M166.77,370.94c2.25-.05,2.53-.44,2.66-.44l4,.89c-9.34.73-18.64.15-27.98,0-3.47-.06-6.96.04-10.44,0v-.89c10.56-.19,21.26.69,31.76.44Z"/>
                <path class="cls-67"
                      d="M231.17,370.05c0,.3-.11.81.22.89,2.94.7,21.63-.67,23.54,0,.35.12.22.6.22.89-9.91-.09-19.87-1.02-29.76,0-.2-.09-.81.17-.89-.22-.11-.59,2-1.11,2.22-1.55,1.46,0,2.99.11,4.44,0Z"/>
                <path class="cls-35"
                      d="M360.85,382.49c-4,8.96,1,1.36,3.55,3.78-14.65,9.07,3.39.5-6.22,7.99.64,1.57,3.99-2.9.89,2-.04.06-.65-.17-.44,1.33-1.38,1.18-2.02,3.5-.44,3.55-.85,1.05-2.83,5.25-1.11,5.77.82.25,1.63-.75,2.89-.89.29-.03,1.08,1.72,5.11-1.78-.42,3.3,1.53-1.06,3.33,1.78-.23.7-.6,11.98-.89,14.66l-36.42,5.33c-.13-1.81.25-4.35,0-5.77,3.98-1.79,18.52,5.8,7.55-3.78l4.44-.44c-3.2-5.41-5.32-5.81-5.33-6.22-.06-1.7,5.09,1.35-1.33-4.44h4.44c-11.86-6.78,2.68-2.13-6.22-9.77,2.18-1.37-1.51-5.9-1.78-7.11-.39-1.81-.21-5.06-.44-6.88l28.42.89Z"/>
                <path class="cls-74"
                      d="M366.63,371.38c-1.41,3.28-2.49,4.5-3.11,5.77-28.08-1.2-56.24-.64-84.39-.89-10.83-.09-21.6-.13-32.42-.44-7.02-.2-14.07-.31-21.1-.44,7.2-4.63,4.55-1.44-.22-3.55,9.89-1.02,19.85-.09,29.76,0,8.28.08,16.59.04,24.87,0,10.72-.05,21.48.17,32.2,0,.33,0,.11-.88.44-.89,9.58-.16,48.01-.96,51.96-.44.11.01,1.5.76,2,.89Z"/>
                <path class="cls-23"
                      d="M134.34,372.72c.67,4.38-2.11,1.56-2.22,3.55-14.87.17-29.76-.13-44.64,0v.89l81.94.44c2.77-.51,1.69,1.83,4.22,3.11,1.39.71,6.24,1.1,8.22,1.33,0,.3.11.81-.22.89-4.6,1.1-81.65.12-94.6.89v.89h86.61c6.52,3.04,13.36,4.33,20.43,5.33l-99.26,1.33c-.44-1.92-.84-3.82-1.11-5.77-.42,1.92-1.1,3.88-1.55,5.77-5.15-.01-10.37,0-15.54,0-.18-1.1.34-6.26-.22-6.66-.96-.68-22.42-.37-23.54,0-.6.2-.54,3.2-11.33,4.89-1.53-4.32-3.06-11.75-4.44-16.88,32.38-1.79,64.91.74,97.27,0Z"/>
                <path class="cls-35"
                      d="M64.62,391.37c3.27,1.59,22.08.45,27.54.89-1.21,4.98-4.56,17.27-8.44,20.43-.08.06-.6-.31-1.55,1.33-10.52-2.11-23.75,2.86-25.98,2.66-1.36-.12-2.8-2.44-5.33-.89-1.1.02-3.58-4.23-2.89-4.44,5.52,6.52.69-1.57-1.55-4.22.33-1.17,3.9,2.44,4.22,2.89,2.59.17-6.01-13.27-6.44-14.21,2.24-.96,14.05-7.5,14.88-7.55,3.03-.18,4.11,2.41,5.55,3.11Z"/>
                <path class="cls-23"
                      d="M76.61,391.37h-11.99c-1.44-.7-2.52-3.29-5.55-3.11-.83.05-12.64,6.59-14.88,7.55-.97-2.13-1.87-3.98-2.66-6.22,10.78-1.69,10.72-4.69,11.33-4.89,1.12-.37,22.58-.68,23.54,0,.57.4.04,5.56.22,6.66Z"/>
                <path class="cls-33"
                      d="M328.43,426.46c-.02.29.37.89,0,5.77-11.13.52-59.79,9.4-63.29,9.33-1.46-.03-1.39.2-2-1.33,17.48-3.67,34.91-8.07,52.41-11.55,4.24-.84,8.7-1.02,12.88-2.22Z"/>
                <path class="cls-29"
                      d="M245.38,443.78c-4.88,1.01-9.75,2.13-14.66,3.11-8.22-.55-16.25-.49-24.43.44-4.64.15-14.32-2.3-17.32-1.78-.16-1,.15-1.87,1.33-1.78,7.88.9,52.18-1.53,54.85-.89.33.08.23.59.22.89Z"/>
                <path class="cls-33"
                      d="M367.52,420.68c-.16,1.49-.24,2.94-.44,4.44l-35.53,5.77c-.11-1.65-.32-3.24-.44-4.89l36.42-5.33Z"/>
                <path class="cls-17"
                      d="M173.43,371.38c2.85.75-4.89,1.19-4.89,2l4.66,1.11v.89c-1.69.09-3.43-.13-5.11,0-11.86.89-24.07.75-35.98.89.11-2,2.89.83,2.22-3.55,3.95-.09,11.15.02,11.1-1.33,9.34.15,18.64.73,27.98,0Z"/>
                <path class="cls-10"
                      d="M168.1,375.38l1.33,2.22-81.94-.44v-.89c14.87-.13,29.77.17,44.64,0,11.91-.14,24.11,0,35.98-.89Z"/>
                <path class="cls-45"
                      d="M279.13,376.27c0,.29.12.77-.22.89-1.52.53-27.56-.08-32.2,0v-1.33c10.82.31,21.59.35,32.42.44Z"/>
                <path class="cls-50"
                      d="M92.15,391.37c-.06.26.06.63,0,.89-5.46-.44-24.27.7-27.54-.89h11.99c5.17,0,10.39-.01,15.54,0Z"/>
            </g>
            <g>
                <path class="cls-24"
                      d="M321.55,60.93c31.09-3.21,52.44,32.04,32.64,57.07-23.29,29.45-70.89,7.71-62.62-30.2,2.89-13.27,16.55-25.48,29.98-26.87Z"/>
                <g>
                    <path class="cls-71"
                          d="M96.59,214.6c.2,1.74-3.8-.32-4.66-.44-23.7-3.52-65.83-4.44-91.71-6.66,0-17.02,0-34.06,0-51.08,3.2,3.76,2.52,11.38,2.22,16.66l8.22,16.21c4.62-15.75,19.35-30.54,18.65-3.11,13.52-5.86,24.27-.66,24.87,14.66,4.21-.95,9.22-.01,11.99,3.55,6.21-15.1,24.57-2.06,30.42,10.22Z"/>
                    <path class="cls-9"
                          d="M96.59,214.6l.67.89c9.04-1.02,22.48.25,30.2,4.89l-127.25-.44c0-4.14,0-8.3,0-12.44,25.89,2.22,68.02,3.15,91.71,6.66.87.13,4.86,2.18,4.66.44Z"/>
                    <g>
                        <path class="cls-53"
                              d="M338.2,202.61c-24.48-2.02-70.56-4.43-94.16-3.11-.13-.58.23-.87.44-1.33,4.72-10.12,13.35-13.16,21.54-4.44.29-.22.79-3.93,1.11-4.89l11.99,3.33c-2.72-2.5-6.77-7.15-10.22-7.77,3.04-6.03,8.19-9.83,14.66-11.55,0,.3-.11.81.22.89,4.58,1.09,22.46-3.71,27.54,11.55,7.97-.17,13.16,3.22,15.99,10.66,3.68-4.12,10.44,2.18,10.88,6.66Z"/>
                        <path class="cls-57"
                              d="M338.2,202.61c.18.01,1.15.74,3.55.44.31.61.43.42.44.44.15.26-.95.84-.22,1.33,4.77-.08,14.94.16,14.88,3.11-47.11,1.39-95.44-.49-142.12-.67-.13-.8,7.28-3.81,8.44-4.22,6.66-2.38,13.79-3.16,20.87-3.55,23.6-1.32,69.67,1.08,94.16,3.11Z"/>
                        <path class="cls-71"
                              d="M341.76,203.06c-2.4.29-3.37-.43-3.55-.44-.44-4.48-7.2-10.78-10.88-6.66-2.83-7.44-8.02-10.83-15.99-10.66-5.07-15.26-22.96-10.45-27.54-11.55-.33-.08-.23-.59-.22-.89,12.14-3.22,24.59-1.45,29.09,11.55,13.32-6.09,15.41,8.44,16.43,8.88,8.29-1.62,9.71,3.88,12.66,9.77Z"/>
                        <path class="cls-9"
                              d="M244.49,198.17c-.21.46-.58.75-.44,1.33-7.09.4-14.21,1.17-20.87,3.55,4.79-8.98,13.33-13.07,21.32-4.89Z"/>
                        <path class="cls-9"
                              d="M356.86,207.94c.07-2.95-10.11-3.19-14.88-3.11-.73-.49.38-1.07.22-1.33,6.91-.79,15.03-1.45,19.99,4.22-.34.44-4.39.19-5.33.22Z"/>
                        <path class="cls-9"
                              d="M267.14,188.84c.59-1.73.93-2.77,1.78-4.44,3.45.62,7.49,5.27,10.22,7.77l-11.99-3.33Z"/>
                    </g>
                </g>
                <g>
                    <path class="cls-2"
                          d="M249.38,341.18l-6.22-.44c2.21-61.52-89.53-65.5-87.94,2.66-1.96-.57-3.84-1.12-5.77-1.78-4.18-51.25,64.79-75.04,92.38-30.42,7.59,12.26,6.55,20.06,7.55,29.98Z"/>
                    <path class="cls-66"
                          d="M243.16,340.74c0,.15,0,.3,0,.44l-20.65-1.78c-3.73,7.49-25.49,11.64-32.2,11.55-1.52-.02-22.5-4.1-25.76-4.89-3.07-.74-6.28-1.78-9.33-2.66-1.59-68.16,90.15-64.19,87.94-2.66Z"/>
                    <path class="cls-12"
                          d="M243.16,341.18c-.08,1.67-.53,3.21-.44,4.89-3.37,1.56-6.76,3.56-10.44,4.44-6.04,1.44-11.73.86-13.55,2.22-9.02,0-18.11-.44-27.09-.44l-1.33-1.33c6.71.1,28.47-4.06,32.2-11.55l20.65,1.78Z"/>
                </g>
                <g>
                    <path class="cls-61"
                          d="M370.63,361.17c.19.49,1.1,6.16,2.22,10.22.65,2.36,1.69,3.96,1.78,4.22.41,1.18-3.36-1.6,3.55,6.88,4.68,5.74-3.11-1.02.44,2.89-4.61-1.36.31,3.44,4.44,7.55l-.67.67c-9.39-5.9-1.62,2.78,2.44,4.22-.28.99-7.28-3.26-3.55-.44-3.49.65-.04,1.51,0,2.66.03.83-3.96-.21-.89,1.78-2.73-.84,2.08,4.52,1.78,5.77-.18.73-1.63-.93-1.33.67-1.24-1.5-3.92-2.48-5.55-3.55-.24-.16-2.06-4.42-3.11.44-2.02-2.36-1.43-.5-1.55-.44-.51.23-2.08.92-2.22,1.33-1.8-2.83-3.75,1.53-3.33-1.78-4.03,3.5-4.82,1.74-5.11,1.78,2.82-3.11-2.52-.22-2.66-1.55-.1-.94,4.11-1.57,2.66-4.44,3.72-2.82-.16-.9-1.78,1.11-1.58-.05-.94-2.38.44-3.55,1.54-1.31,7.16-3.42.44-1.33,3.1-4.9-.25-.43-.89-2,9.61-7.49-8.43,1.07,6.22-7.99-2.55-2.42-7.56,5.19-3.55-3.78.77-1.73,1.82-3.59,2.66-5.33.62-1.27,1.7-2.49,3.11-5.77.1-.24,1.09-.92,2.22-4.66.64-2.13.52-5.93,1.78-5.55Z"/>
                    <path class="cls-37"
                          d="M370.63,404.69c-.84,5.15.22,10.41.44,15.54,0,.15,0,.3,0,.44.13,2.81-.27,5.67.44,8.44-.51.19-2.33,1.7-4.89.89.75-1.66.23-3.31.44-4.89.2-1.5.29-2.95.44-4.44.28-2.68.65-13.96.89-14.66.14-.42,1.71-1.1,2.22-1.33Z"/>
                    <path class="cls-28"
                          d="M359.97,406.03c-1.26.14-2.06,1.14-2.89.89-1.72-.52.26-4.72,1.11-5.77,1.62-2.01,5.49-3.93,1.78-1.11,1.44,2.87-2.76,3.51-2.66,4.44.14,1.34,5.49-1.55,2.66,1.55Z"/>
                    <path class="cls-44" d="M358.63,397.59c-.2-1.5.41-1.27.44-1.33,6.72-2.08,1.09.03-.44,1.33Z"/>
                </g>
                <g>
                    <path class="cls-37"
                          d="M37.97,433.12c.71,1.36.7,4.18.89,5.77.03.29-.03.6,0,.89.15,1.42.32,3.02.44,4.44.25,2.9-.3,10.09.89,15.32-.33.39-4.86.26-5.77.22v-1.78c.13-5.04.33-10.06.44-15.1.07-3.26.38-6.52,0-9.77.15-.01.3.02.44,0,.21-.03,1.06-3.07,2.66,0Z"/>
                    <path class="cls-29"
                          d="M56.18,416.69c1.46,5.14-.01,8.6,0,9.55,0,.31,3.49,4.82-1.33,4.22.16-4.55-4.9-9.88-4.89-10.88.03-1.76,2.15-.85.89-3.78,2.53-1.55,3.97.77,5.33.89Z"/>
                    <g>
                        <path class="cls-65"
                              d="M35.3,366.05c.13.36.34.52.44.89.54,1.85.83,3.89,1.33,5.77,1.38,5.13,2.91,12.55,4.44,16.88.79,2.24,1.69,4.09,2.66,6.22.43.95,9.03,14.38,6.44,14.21-.32-.45-3.89-4.05-4.22-2.89,2.24,2.65,7.07,10.74,1.55,4.22-.7.21,1.79,4.46,2.89,4.44,1.26,2.93-.86,2.01-.89,3.78-.02,1,5.04,6.33,4.89,10.88-1.24-.15-3.34-2.23-5.55-2.22-.55.31,1.75,4.05,2,4.44.85,1.32,2.37,2.31,2.66,4-1.12-.41-6.92-4.08-7.33-4-1.59.32,2.74,6.81-4.89-1.78,2.25,5.84-3.02-1.31-3.78,2.22-1.6-3.07-2.46-.03-2.66,0,1.07-6.2-3.48-2.55-6.66-1.33-2.26.86-8.21,4.64-4-.22l-.67-.67c-1.73-.12-12.77,8.41-4.22-1.11-8.42.64-4.43.83-.44-4.22.68-.86.96-1.67,1.33-2.22.1-.14,1.26-1.13,2.22-2.66.25-.39-.22-2.24,4.44-7.77-2.92-1.13-7.98,6.81-1.78-3.55h-7.11c18.3-11.8,4.39-8.07,4.44-9.77,10.57-6.98,4.36-5.86,4-6.66-.43-.94,2.53-4.43,5.77-19.76,1.95-9.24,1.33-10.84,2.66-7.11Z"/>
                        <path class="cls-65" d="M35.97,421.13c1.58.45-.2,4.71-1.33,4-.73-.46.97-4.1,1.33-4Z"/>
                        <path class="cls-22" d="M36.41,382.04c.71,0-.19,5.84-.22,2.44,0-.59-.13-2.44.22-2.44Z"/>
                    </g>
                </g>
            </g>
        </g>
    </g>
</svg>