<?xml version="1.0" encoding="UTF-8"?>
<svg xmlns="http://www.w3.org/2000/svg" version="1.1" xmlns:xlink="http://www.w3.org/1999/xlink" viewBox="0 0 398 512">
    <defs>
        <style>
            .cls-1 {
            fill: #f5b946;
            }

            .cls-2 {
            fill: #dbaa5e;
            }

            .cls-3 {
            fill: #2e0f11;
            }

            .cls-4 {
            fill: #be6a31;
            }

            .cls-5 {
            fill: #f7b46d;
            }

            .cls-6 {
            fill: #a56b21;
            }

            .cls-7 {
            fill: #e8edeb;
            }

            .cls-8 {
            fill: #a48742;
            }

            .cls-9 {
            fill: #d6b18d;
            }

            .cls-10 {
            fill: #89b1c1;
            }

            .cls-11 {
            fill: #9f5e39;
            }

            .cls-12 {
            fill: #7a3429;
            }

            .cls-13 {
            fill: #5e889d;
            }

            .cls-14 {
            fill: #fedd69;
            }

            .cls-15 {
            fill: #e76e1e;
            }

            .cls-16 {
            fill: #fba452;
            }

            .cls-17 {
            fill: #fac68a;
            }

            .cls-18 {
            fill: #f0cca7;
            }

            .cls-19 {
            fill: #749eb1;
            }

            .cls-20 {
            fill: #be741e;
            }

            .cls-21 {
            fill: #cbccc6;
            }

            .cls-22 {
            fill: #809e8c;
            }

            .cls-23 {
            fill: #507b91;
            }

            .cls-24 {
            fill: #ec6228;
            }

            .cls-25 {
            fill: #a75e21;
            }

            .cls-26 {
            fill: #3c1711;
            }

            .cls-27 {
            fill: #d6512c;
            }

            .cls-28 {
            fill: #58221c;
            }

            .cls-29 {
            fill: #c9b59b;
            }

            .cls-30 {
            fill: #d4c4a3;
            }

            .cls-31 {
            fill: url(#Nameless_Gradient_74);
            }

            .cls-32 {
            fill: #bda280;
            }

            .cls-33 {
            fill: #f9ab37;
            }

            .cls-34 {
            fill: #fece5e;
            }

            .cls-35 {
            fill: url(#Nameless_Gradient_72-2);
            }

            .cls-36 {
            fill: #fe8d38;
            }

            .cls-37 {
            fill: #8c653c;
            }

            .cls-38 {
            fill: #deb33f;
            }

            .cls-39 {
            fill: #d79a29;
            }

            .cls-40 {
            fill: #a7771b;
            }

            .cls-41 {
            fill: #873f28;
            }

            .cls-42 {
            fill: url(#Nameless_Gradient_72);
            }

            .cls-43 {
            fill: #fbe6bc;
            }

            .cls-44 {
            fill: #d49a6b;
            }

            .cls-45 {
            fill: #f69622;
            }

            .cls-46 {
            fill: #d98d3f;
            }

            .cls-47 {
            fill: #f4773d;
            }

            .cls-48 {
            fill: #f8d79f;
            }

            .cls-49 {
            fill: #5e3921;
            }

            .cls-50 {
            fill: #c7891c;
            }
        </style>
        <linearGradient id="Nameless_Gradient_72" data-name="Nameless Gradient 72" x1="199.53" y1="260.24" x2="198.85"
                        y2="504.02" gradientTransform="translate(-.07 -519.32) scale(1 2.01)"
                        gradientUnits="userSpaceOnUse">
            <stop offset="0" stop-color="#8bbfc8"/>
            <stop offset="1" stop-color="#fdef9b"/>
        </linearGradient>
        <linearGradient id="Nameless_Gradient_72-2" data-name="Nameless Gradient 72" x1="199.33" y1="2.51" x2="198.65"
                        y2="246.3" gradientTransform="matrix(1,0,0,1,0,0)" xlink:href="#Nameless_Gradient_72"/>
        <linearGradient id="Nameless_Gradient_74" data-name="Nameless Gradient 74" x1="294.1" y1="174.89" x2="380.46"
                        y2="191.41" gradientUnits="userSpaceOnUse">
            <stop offset="0" stop-color="#d8532c"/>
            <stop offset="1" stop-color="#ed6d38"/>
        </linearGradient>
    </defs>
    <!-- Generator: Adobe Illustrator 28.7.1, SVG Export Plug-In . SVG Version: 1.2.0 Build 142)  -->
    <g>
        <g id="Layer_1">
            <g id="Background">
                <rect class="cls-42" x=".17" y=".18" width="397.94" height="511.64"/>
                <path class="cls-35"
                      d="M.21,21.5C.27,14.4.16,7.28.21.18h397.88c.03,45.43-.03,90.89,0,136.33-3.6-4.14-16.83-35.91-19.32-36.86-.28-.1-2-.03-2.89,0-10.3.3-16.15,15.79-19.98,23.54-3.15.17-8.58,3.16-9.77,6.22-20.18,1.94-36.8,17.26-30.2,38.86-1.04,1.32-3.19,2.07-3.55,2.44-10.22-10.71-21.07-20.86-31.75-31.08-.58.46-.81,1.15-1.11,1.78-.08.17.08.68,0,.89-.66-1.49-1.7-.02-3.11,1.55-10.71,11.98-20.33,25.12-31.08,37.08-9.4,10.45-51.48,53.81-59.95,60.84-5.52,4.59-12.08,8.04-17.76,12.43-4.49-5.37-9.32-10.55-13.77-15.99-6.95-8.51-13.65-17.32-20.43-25.98-.53-.56-.66.68-1.33,1.11-3.81,2.45-12.73,14.08-16.43,18.21-2.1,2.34-4.45,4.48-6.22,7.1-.06-.11-1.08-.49-1.78-1.78-.67-1.25-1.39-2.21-2.22-3.33,9.4-10.79-1.56-29.43-15.1-27.98,2.75-7.54-2.83-13.35-7.1-18.87-2.76-3.56-9.9-12.88-14.65-12.43.27-5.77.99-11.54.89-17.32,14.65-.11,29.32.15,43.96,0,16.66,21.15,51.75,17.28,64.83-5.77l71.49-.22c-4.63-8.14-12.24-5.93-12.43-6.66,3.42-14.76-15.39-27.92-22.87-10.88-.53.07-2.19-6.4-8.88-4-2.28-11.63-13.94-19.97-24.2-11.55-2.62-7.9-11.16-17.73-18.43-21.76-27.2-15.1-60.26,4.73-59.73,35.52-4.56,1.43-9.46,6.84-12.21,10.66-4.38-9.65-10.76-3.24-13.77,3.55-2.58-1.41-5.53-3.37-8.66-2.22-.49-4.32-2.06-14.58-4-17.98-2.92-5.13-32.41-21.6-40.41-21.54-.74-7.15-3.58-31.42-9.55-35.08-.61-.37-5.68-1.75-6.44-1.78-3.17-.13-5.13,1.15-7.99,1.78,0-3.69,0-7.41,0-11.1l107.91-.22c-2.41-6.36-9.75-9.11-15.32-5.11-3.34-5.82-10.5-2.94-11.1-3.11-.52-.15-2.69-5.44-9.33-3.55-6.1,5.19-1.13.56-.22-4.22,3.28-17.24-19.02-21.16-28.2-9.99-3.46-10.56-19.75-15.9-23.09-2.66-.21-7.74-4.1-13-12.43-11.55-5.33.93-5.48,6.99-8.22,4Z"/>
                <path class="cls-33"
                      d="M355.46,465.11c1.18,3.93.95-.38-2.22,4-.49.67-.42.85-.44.89-1.05,1.79-1.61,3.37-2.22,5.33-.42,1.34.08,1.01,0,1.33-.64,2.46-.53,2.73-.89,4.88,0,.03-.36-.16-.44.44-.81,5.54-1.42,11.73-1.33,17.32-1.65,0-3.07-2.57-3.11-.44-.5-.97-.51-1.61-1.78-1.33-.13-.63.15-3.2-1.33-1.55-1.91,2.12-5.21,12.25-2.22,15.76-1.77,0-3.56,0-5.33,0,1.17-3.52,3.75-7.56,4-11.32.15-2.25-.98-10.55-2.66-8.66-.88-5.97-5.44,6.68-4.88,11.32.11.93,2.05,4.64,2.22,5.55.17.89-.12,2.14,0,3.11-2.66,0-5.33,0-7.99,0v-.44c.67-5,4.27-9.02,4.44-9.55.08-.26-1.1-.02-.89-.89.08-.32,1.32-2.04,1.33-2.22.15-1.99-.98-12.45-3.55-11.32-3.93,5.57-4.48,10.8-1.33,16.87-.4,1.86-.4,5.09-.44,7.1-10.87-7.45-22.74-14.04-31.53-23.98-.28-1.22.12-2.06-.44-3.33-1.63-3.66-6.79-5-4.88-.44.66,1.58,1.9-.01.89,2.89-1.72-.22-1.93-.62-3.11.89-3.01,3.84,6.74,2.61,8.44,3.11,1.54,0,2.71,2.49,3.55,3.11-15.15-3.08-15.89,1.59-11.77,2.66,3.39.88,8.83-2.1,8.22.89-1.54.9-.56,1.89-1.11,2.22-45.98-2.74-92.03-4.92-138.1-6.22l.67-3.55c4.9-4.14-1.46-2.03-11.32-4l-1.11.89c.05-.53-.32-.39-.44-.44-1.32-.59-14.33-.76-15.1-.22l-8.88,25.98c-.29,0-.6,0-.89,0l8.88-25.53c-.33-.94-14.05.17-15.99.67-5.83,3.97-18.71,7.69-23.54,11.1-.96.17-1.91.82-2.22.22,1.48-1.78,1.52-4.43,3.33-5.99.93-.81,19.99-8.72,22.65-8.88l.67-1.33c-.01-1.48.02-2.97,0-4.44,0-.34-.3-2.29-.44-3.55-.11-.96-.29-1.74-.44-2.66-.1-.61-.44-.41-.44-.44-.18-.97-.3-2.11-.44-3.11-.08-.56.05-1.2,0-1.78,79.09-.76,158.26,1.02,237.35,0,2.72-.04,5.93-.85,8.66-.89Z"/>
                <path class="cls-9"
                      d="M326.59,400.28l20.65,21.76,21.98-.22-22.65-20.65c-.13-1.06.18-.8.89-.89l23.76,21.76,24.65-.22c-8.1-6.59-20.24-13.88-27.53-20.65-.16-1.22.51-.83,1.33-.89,8.45,8.09,19.1,14.43,28.42,21.76,0,.44,0,.89,0,1.33l-24.87.22c4.52,4.89,12.5,9.02,14.21,14.43-.8-.18-1.86-.41-2.66-.44.8-2.72-9.85-9.59-13.54-14.21l-21.98.67,27.53,27.31c-.51,1.41-.86,1.26-.89,1.33l-29.09-29.31-25.09.22,23.76,29.53h30.42c-.48,1.45-.93,2.96-1.33,4.44H105.89c-.17-.94-.12-1.64-1.33-1.78-1.4-.16-2.71.67-4.44.89-.43.05-.47.4-.89.44-.23.02-.38.35-1.78.44-15.61,1.04-39.26-.82-55.95,0-.1-.16-1.25-1.7-1.33-1.78-.05-.04-.21-.82-.89-.89-2.19-.49-6.49,2.29-9.33,2.66-5.76.77-21.84-.57-29.75,0,0-1.48,0-2.97,0-4.44h44.18l25.98-29.53-42.85-.22L.21,445.58c0-.44,0-.89,0-1.33l25.31-20.65-25.31-.22c0-.44,0-.89,0-1.33h27.31l26.42-21.76c.4.06.85.47.89.89-1.21,1.68-26.1,20.14-24.65,20.87h41.3c3.11-3.79,17.13-18.5,17.98-19.98h.89c-1,.83-13.66,16.62-16.87,19.76l29.53.22,17.54-21.76c.42,0,.47.45.89.44l-16.65,21.31h41.3l8.22-21.76c.44,0,.89,0,1.33,0l-7.77,21.76h49.29l-.22-21.76c.58,0,1.19,0,1.78,0l.22,21.76h48.85l-6.88-20.87c.69-.02.16-.71.89-.89l7.33,21.76h38.63c-1.75-2.84-13.07-19.6-13.99-20.43.05-.55-.31-1.06.44-1.33l15.76,21.76,28.64-.22-16.43-20.65c-.13-1.06.18-.8.89-.89l17.54,21.76,25.09-.22-21.54-21.54h-1.11c-.42-2.79,1.87.38,2.44.44.66.08.71-.47,1.11-.44Z"/>
                <path class="cls-7"
                      d="M.21,57.91c.03-12.13-.11-24.29,0-36.41,2.74,3,2.88-3.06,8.22-4,8.33-1.46,12.22,3.81,12.43,11.55,3.34-13.24,19.64-7.9,23.09,2.66,9.18-11.17,31.47-7.25,28.2,9.99-.91,4.78-5.88,9.41.22,4.22,6.64-1.89,8.8,3.41,9.33,3.55.6.17,7.76-2.71,11.1,3.11,5.57-4.01,12.92-1.25,15.32,5.11L.21,57.91Z"/>
                <path class="cls-33"
                      d="M142.75,486.43c-.35,2-6.98,15.43-5.99,15.99,1.34-1.01,2.79-1.81,4.22-2.66-.6,1.32,8.22,1.05,8.66.89.64-.24,5.51-7.94,2.22-8.44-.47-.07-2.3,1.94-7.77,5.33,2.41-2.99,9.28-6.46,11.1-7.99l-.67,3.55c46.08,1.29,92.13,3.47,138.1,6.22.55-.33-.43-1.33,1.11-2.22.42-.24,2.68-.74,4.44-2.22.3.22,1.37.29,6.22,4-2.63,1.63-8.85.97-12.21,2.22-10.62,3.96.6,11.85,14.43-.44,3.58,2.68,8.97,5.16,6.66,6.22-5.79-.48-13.69-.15-17.32,4.88-57.13.06-114.28.05-171.41,0,13.92-9.04,11.17-11.64,17.76-25.76.13.06.49-.09.44.44Z"/>
                <path class="cls-29"
                      d="M162.29,383.41l-4.66,12.88h39.52l.22-12.88c.58,0,1.2,0,1.78,0l-.22,12.88c13.39.44,26.83-.39,40.19-.44.43,0,.89,0,1.33,0,9.48-.04,19.12.95,28.64.44-1.05-2.21-2.65-4.01-3.77-6.22.44,0,.89,0,1.33,0,.39.92,3.86,6.09,4.22,6.22,1.52.53,21.82-.4,26.64,0l-3.77-5.77c.42,0,.47-.45.89-.44.61.82,4.3,6.09,4.66,6.22,1.41.5,16.78-.37,20.87,0l-5.11-6.22c.44,0,.89,0,1.33,0,4.82,8.71,10.33,6,23.54,6.22.85.01,1.68-.44,1.78-.44,6.44,0,13.05.92,19.54.44,1.83,1.37,4.31,2.13,4,4-3.41-.16-15.53-.29-17.76,0-.71.09-1.02-.17-.89.89l-1.11-.89c-6.26-.29-12.63.39-18.87,0-.4-.02-.45.52-1.11.44-.57-.07-2.87-3.24-2.44-.44-.98-.18-18.48-.19-19.98,0-.71.09-1.02-.17-.89.89l-.67-.89c-4.83.4-25.83-.53-27.31,0-.75.27-.39.78-.44,1.33-.49-.44-1.16-.75-1.55-1.33-6.47.5-27.61-.67-30.42,0-.73.17-.2.87-.89.89l-.22-.89c-13.99-.04-27.98.05-41.96,0-.59,0-1.19,0-1.78,0-13.76-.06-27.54-.04-41.3,0-.44,0-.89,0-1.33,0-10.95.04-21.93.35-32.86.44-.42,0-.47-.45-.89-.44-9.39.08-18.8-.06-28.2,0-.57.71-1.31,1.21-2,1.78h-.89c.33-.57,1.36-1.43.67-1.78h-34.19l-1.11.89c-.04-.42-.49-.83-.89-.89-5.12-.72-19.71.54-26.87,0L.21,419.82c0-.44,0-.89,0-1.33l24.87-17.98c-6.14.15-17.37-1.69-20.65,1.55-2.38-1.12,3.45-2.09-4.22-1.78,0-1.33,0-2.67,0-4,4.26.47,8.68-.44,12.88-.44.35,0,.39.44,1.33.44,4.79,0,14.7.68,18.21-.89.04.42.49.83.89.89,8.2,1.16,18.3-.45,26.64-.44.26,0,.38.44,1.78.44,10.73,0,21.46,0,32.19,0l5.33-6.22h-30.42c3.55-1.09,25.2-.46,30.86-.44.34,0,0,.89.67.89l-4.22,5.77c5.02-.41,26.39.55,27.98,0,.37-.13,4.13-5.32,4.66-6.22.35,0,.39.45,1.33.44l-4.22,5.77h29.75l4.66-13.32c2.26,0,1.68.44,1.78.44Z"/>
                <path class="cls-18" d="M.21,453.12c0-2.51,0-5.04,0-7.55l27.31-22.2,42.85.22-25.98,29.53H.21Z"/>
                <path class="cls-34"
                      d="M47.72,352.77c.19,1.52.12,2.58.22,2.66.16.14,3.61.24,4.22.67,1.03,1.44-6.72-.61-4.44,5.33.34.9,4.21-.25,4.44.89.03.12-.56,2.37-.67,2.44-.86.57-3.02-3.48-3.77,3.55-.45,4.19.87,2.72.89,3.11.2,4.08.15,8.39-.44,12.43-10.93,0-21.9-.06-32.86,0H.21c0-.44,0-.89,0-1.33,3.81-2.04,11.25-4.13,12.43-6.66,2.2-.16,4.44-.54,6.66-.67-.31-7.48-1-14.95-1.33-22.43h29.75Z"/>
                <path class="cls-33"
                      d="M368.78,487.32c1.86,1.66,1.7,2.53,1.78,2.66,1.36,2.31,3.43,4.33.44,4.22.96-.33,6.95,6.28,6.66,6.66-.2.27-6.53.22,1.33,1.11,2.07,3.14,3.94,3.22,6.66,9.77-12.56.19-25.18-.03-37.75,0,2.21-4.01.06-8.45,0-12.43-.09-5.59.52-11.78,1.33-17.32l17.54,3.55c.54.73,1.35,1.19,2,1.78Z"/>
                <path class="cls-9"
                      d="M15.3,383.85l-2,2.22c3.33.24,17.75-1.12,18.65-.89.42.11-1.49,1.21,0,1.33.51.04,2.52-.88,2.66-.89,10.69-.29,21.34.44,31.97.44,1.17,0,5.49-.89,6.66-.89,1.02,0,.53.89.89.89,10.05,0,20.18-.92,30.2-.89,3.79.01,3.37.89,3.55.89,5.98.02,45.81-1.06,47.96,0,.19.09,1.73,3.78,1.33,4-8.94-.45-17.96.4-26.87.44-.94,0-.98-.45-1.33-.44-9.45.03-19.01.46-28.42.44-.68,0-.32-.89-.67-.89-5.66-.01-27.31-.64-30.86.44-1.27.39-6.58,4.53-7.1,6.22-1.4,0-1.51-.44-1.78-.44l5.99-5.77c-5.38.45-22.53-.61-24.87,0-.48.13-6.87,5.26-7.77,6.22-.4-.06-.85-.47-.89-.89,1.19-.53,4.31-3.88,6.44-4.44v-.89c-11.92.2-15.03-2.07-24.65,6.22-.95,0-.98-.44-1.33-.44l7.77-4.88v-.89c-6.65.61-15-1.57-20.65,1.78,0-2.21,0-4.45,0-6.66,4.42.14,10.92,1.35,14.21-1.33h.89Z"/>
                <path class="cls-9"
                      d="M398.09,385.63c0,1.48,0,2.97,0,4.44h-21.98v.89c2.13.42,7.33,4.74,7.77,4.88-.69-.21-.86.39-1.33.44-9.92-9-14.8-5.67-27.31-6.22v.89c3.29.68,5.93,5.44,9.1,5.33-.11.67,2.56,3.47,3.55,4.44-.91-.3-1.7-.4-2.66-.44.32-1.87-2.17-2.63-4-4-2.65-1.99-5.32-3.96-7.77-6.22h-16.87l5.11,5.77c-.09,0-.93.46-1.78.44-.46-.94-5.16-6.08-5.55-6.22-.85-.3-15.13.05-17.98,0-.44,0-.89,0-1.33,0-6.8-.09-13.63.04-20.43,0-.42,0-.47.45-.89.44-8.99-.05-18.08-.36-27.09-.44-.44,0-.89,0-1.33,0-.11-.21-1.31-3.54-1.78-4.44,11.9-.11,79.91,1,84.15,0,.39-.09.15-.82.22-.89.06-.06.65-.38.89-.44.08.27-.2.74.67,1.33,16.19.13,32.39-.02,48.62,0Z"/>
                <path class="cls-45"
                      d="M68.15,477.1c2.3,11.7,5.05,23.36,8.88,34.64-.29,0-.6,0-.89,0l-9.1-34.19c-.51.86-3.73,4.79-3.77,5.11-.21,1.56,5.79,24.68,7.1,29.09-.29,0-.6,0-.89,0l-6.44-27.53c-3.58,8.95-.53,18.5,1.11,27.53-6.95-.01-13.92.02-20.87,0,.92-9.98,8.84-4.29,9.77-6.88.14-.4-.86-1.48-1.11-1.55-3.08-.9-6.84,4.23-6.44-.89l.89-.89c1.24-4.26,1.68-8.44,1.78-12.88.4-.04,1.13.18,1.33-.22.32-.64,2.43-8.41,5.33-13.32,2.21-3.75,5.23-9.78,9.33-4.88,1.39,1.67,1.55,7.11,4,6.88Z"/>
                <path class="cls-18"
                      d="M53.94,400.28l-26.42,21.76H.21c0-.74,0-1.48,0-2.22l26.87-19.54c7.15.54,21.75-.72,26.87,0Z"/>
                <path class="cls-47"
                      d="M15.3,511.74c-1.33-.02-2.67.03-4,0-3.66-6.31-6.56-13.46-11.1-19.09-.02-3.1.02-6.22,0-9.33,3.32-3.69,5.83-7.98,9.33-11.55l11.55,25.98-5.77,13.99Z"/>
                <path class="cls-36"
                      d="M48.17,488.65c-.1,4.44-.53,8.62-1.78,12.88l-23.98,10.21c-2.07-.02-4.15.02-6.22,0l5.99-14.21,25.53-11.55c0,.14.51-.55.44,2.66Z"/>
                <path class="cls-20"
                      d="M398.09,473.55c-.03,6.06.04,12.15,0,18.21-.33-.06-.58-.29-.89-.44-8.06-3.99-16.48-7.3-24.2-11.99-1.06-1.45-.75-6.51-.67-9.77l7.99-2.66c5.65,2.73,11.68,5.04,17.76,6.66Z"/>
                <path class="cls-20"
                      d="M117.44,511.74c-5.62,0-11.26,0-16.87,0,1.23-2,1.75-5.21,2.66-7.1.66-1.37,2.88-2.9,2.66-4.88.46-.37.52-.4.89-.89.65-.85,1.58-3.39.89-4.44,1.02.16.85-.4.89-.44,1.26-1.53.82-5.07.89-5.33.02-.1,1.16-.13.89-1.78,1.94-.5,15.66-1.6,15.99-.67l-8.88,25.53Z"/>
                <path class="cls-25"
                      d="M398.09,472.22c0,.29,0,.6,0,.89-8.55-2.63-16.51-6.58-24.42-10.66.3-1.65.43-3.21.89-4.88.4-1.48.85-2.99,1.33-4.44.04-.13-.04-.31,0-.44.03-.08.38.07.89-1.33,1.07-2.95,3.9-10.93,5.33-12.88,6.61,10.43,10.23,22.76,15.99,33.75Z"/>
                <path class="cls-34"
                      d="M398.09,353.21c0,9.61,0,19.25,0,28.86-4.1-2.02-10.47-6.12-14.65-6.66-.7-7.37-.57-14.81-.89-22.2h15.54Z"/>
                <path class="cls-20"
                      d="M394.98,495.31c1.03.48,2.03.96,3.11,1.33-.06,5.02.04,10.07,0,15.1h-.89c-3.74-1.65-11.84-4.49-9.99-2.66l6.88,2.66c-2.78.16-5.65-.04-8.44,0-2.72-6.55-4.59-6.63-6.66-9.77-3.77-5.72-5.33-6.85-6.22-13.77h.44l21.76,7.1Z"/>
                <path class="cls-50"
                      d="M142.31,485.99c-6.6,14.12-3.84,16.72-17.76,25.76-2.07,0-4.15,0-6.22,0l8.88-25.98c.77-.54,13.78-.36,15.1.22Z"/>
                <path class="cls-18"
                      d="M398.09,399.84c0,7.39,0,14.81,0,22.2-9.32-7.33-19.97-13.67-28.42-21.76,6.09-.43,12.73-.34,18.87-.44.17,0,2.72.87,3.11,1.33.82-2.1,3.91-1.13,6.44-1.33Z"/>
                <path class="cls-18"
                      d="M398.09,423.37c0,6.51.01,13.03,0,19.54-2.75-2.11-7.32-4.12-10.66-4.88-1.71-5.41-9.69-9.54-14.21-14.43l24.87-.22Z"/>
                <path class="cls-18" d="M.21,444.24c-.01-6.95,0-13.92,0-20.87l25.31.22L.21,444.24Z"/>
                <path class="cls-5"
                      d="M398.09,329.23c0,5.32,0,10.66,0,15.99h-15.99c-.23-5.31-.67-10.68-.89-15.99h16.87Z"/>
                <path class="cls-18"
                      d="M.21,418.49c0-6.06,0-12.14,0-18.21,7.66-.32,1.84.66,4.22,1.78,3.28-3.25,14.51-1.41,20.65-1.55L.21,418.49Z"/>
                <path class="cls-25"
                      d="M384.76,437.58c.81.04,1.86.26,2.66.44,3.34.76,7.9,2.78,10.66,4.88-.02,9.02.03,18.07,0,27.09-6.61-10.55-4.02-11.13-2.22-22.43-.8-1.46-2.37,10.52-2.89,11.32l-9.55-21.31c.44.01.89-.02,1.33,0Z"/>
                <path class="cls-19"
                      d="M3.76,322.57H.21c0-12.57,0-25.17,0-37.75,1.4-1.42,4.47-9.95,4.88-11.99.72,16.58-.86,33.19-1.33,49.73Z"/>
                <path class="cls-46"
                      d="M29.96,457.57l-8.88,5.77c-1.03-.73-.75-.09-.89,0-1.46.97-3.05,2.05-4.44,3.11l-15.54-.44c0-2.81,0-5.63,0-8.44,7.92-.57,24,.77,29.75,0Z"/>
                <path class="cls-47"
                      d="M76.14,511.74c-1.92,0-3.85,0-5.77,0-1.31-4.41-7.31-27.52-7.1-29.09.04-.31,3.27-4.25,3.77-5.11l9.1,34.19Z"/>
                <path class="cls-47"
                      d="M77.92,511.74c-.29,0-.6,0-.89,0-3.83-11.27-6.58-22.94-8.88-34.64-.22-1.19,2.4-3.77,3.55-4.88,1.9,4.58,7.65,33.75,7.55,35.75-.02.4-1.48,2.47-1.33,3.77Z"/>
                <path class="cls-5"
                      d="M91.24,482.88c1.27.94.81-.42.89-.44.28-.09,3.98-.09,5.11-1.78,3.01.43,5.9-2.1,6.22-2.22.63-.25,7.15-.1,7.33-4.44.14,1.26.44,3.21.44,3.55-2.65.55-18.49,5.63-19.32,6.22-1.09.77-2.56,5.43-3.77,6.88l.67.67c2.79-1.01,9.68-5.11,10.21-5.33.5-.21.84.46.89.44,1.04-.43,3.36-2.14,3.55-2.22.05-.02.38.64.89.44,2.29-.9,4.38-2.6,6.88-2.66l-.67,1.33c-2.66.16-21.72,8.07-22.65,8.88-1.81,1.57-1.85,4.21-3.33,5.99.31.6,1.26-.05,2.22-.22-2.82,1.99-3.88,2.54-5.11,7.55,4.09-2.53,23.63-11.43,25.76-11.99.41-.11,1.15-.12,1.11.44-.04.04.13.61-.89.44-8.13,4.24-26.02,8.4-28.86,16.21l27.98-11.77c-.37.48-.43.52-.89.89-3.74,2.97-20.84,7.23-25.31,11.99-.88,0-1.78,0-2.66,0-.15-1.3,1.31-3.37,1.33-3.77.1-1.99-5.65-31.16-7.55-35.75.54-.52,1-.61,1.33-.89l6.88,35.52,3.33-8.66c-2.84-9.66-3.54-20.17-6.66-29.53.44-.29.87-.6,1.33-.89l5.99,30.2c5.12-5.52-.93-22.2-.67-32.42.03-.02-.15-.12.44-.44,1.27,5.85,1.78,20.58,2.66,23.76,1.13,4.03,4.61-4.36,4.88-5.99Z"/>
                <path class="cls-50"
                      d="M397.2,491.31c.31.15.56.38.89.44-.01,1.62.02,3.26,0,4.88-1.08-.38-2.08-.85-3.11-1.33-6.03-2.83-15.6-6.08-21.76-7.1h-.44c-.36-2.81-.82-5.6-.22-8.44,7.97,3.98,16.25,9.97,24.65,11.55Z"/>
                <path class="cls-29"
                      d="M383.88,395.84c3.79,1.23,10.09,0,14.21.44,0,1.18,0,2.37,0,3.55-2.53.2-5.61-.77-6.44,1.33-.38-.46-2.94-1.34-3.11-1.33-6.14.11-12.78,0-18.87.44-.82.06-1.49-.33-1.33.89-.17-.16-.3-.3-.44-.44-.99-.98-3.66-3.77-3.55-4.44,5.4-.4,13.38.54,18.21,0,.47-.05.64-.66,1.33-.44Z"/>
                <path class="cls-5"
                      d="M398.09,345.22c0,2.66,0,5.33,0,7.99h-15.54c-.11-2.63-.33-5.34-.44-7.99h15.99Z"/>
                <path class="cls-33"
                      d="M15.75,466.45c-1.57,1.21-3.96,3.11-5.33,4.44-.31.3-.58.58-.89.89-3.49,3.56-6.01,7.86-9.33,11.55-.03-5.77.02-11.55,0-17.32l15.54.44Z"/>
                <path class="cls-43"
                      d="M398.09,390.07c0,2.07,0,4.15,0,6.22-4.12-.44-10.42.78-14.21-.44-.44-.14-5.64-4.46-7.77-4.88v-.89h21.98Z"/>
                <path class="cls-5"
                      d="M40.17,455.79c-4.87,8.06-7.69,17.36-11.55,25.98l17.76-8.22s.33-.17.44.44c-2.75,1.37-17.68,8.18-18.43,8.88-1.49,1.4-4.24,10.47-5.99,13.1l.67.67,24.65-11.55c.01.29,0,.59,0,.89l-25.53,11.55-5.99,14.21c-.29,0-.59,0-.89,0l5.77-13.99-11.55-25.98c.3-.31.58-.58.89-.89l10.88,26.2,5.99-14.43-7.1-19.32c.14-.09-.14-.73.89,0l6.88,18.21,11.32-26.64c.68.07.84.85.89.89Z"/>
                <path class="cls-45"
                      d="M43.28,511.74c-6.21-.02-12.44.04-18.65,0l20.87-9.33c-.4,5.12,3.36-.01,6.44.89.25.07,1.25,1.15,1.11,1.55-.92,2.59-8.84-3.09-9.77,6.88Z"/>
                <path class="cls-47"
                      d="M69.48,511.74c-1.77,0-3.56,0-5.33,0-1.64-9.03-4.69-18.58-1.11-27.53l6.44,27.53Z"/>
                <path class="cls-43"
                      d="M13.08,395.84c-4.2,0-8.62.92-12.88.44,0-1.48,0-2.97,0-4.44,5.65-3.34,14-1.16,20.65-1.78v.89l-7.77,4.88Z"/>
                <path class="cls-36"
                      d="M10.42,511.74c-3.4-.06-6.82.04-10.21,0-.04-5.91.05-11.85,0-17.76l10.21,17.76Z"/>
                <path class="cls-48"
                      d="M391.87,383.41c1.98.68,4.13.92,6.22.89,0,.44,0,.89,0,1.33-16.23-.02-32.43.13-48.62,0-.86-.6-.59-1.06-.67-1.33-.06-.22.04-.6,0-.89h43.07Z"/>
                <path class="cls-5" d="M4.2,328.34c-.24,8.27-.59,16.59-.89,24.87H.21c0-8.28,0-16.59,0-24.87h4Z"/>
                <path class="cls-33"
                      d="M390.09,323.9c2.54-.04,5.43.29,7.99.44,0,1.62,0,3.26,0,4.88h-16.87c-.07-1.62.06-3.27,0-4.88,2.87.44,6.25-.41,8.88-.44Z"/>
                <path class="cls-20"
                      d="M313.27,506.86c1.89.16,1.9-.47,2-.44,1.07.29,1.46,1.29,1.55,1.33l-1.78,4c-6.36,0-12.74,0-19.09,0,3.63-5.04,11.53-5.36,17.32-4.88Z"/>
                <path class="cls-36"
                      d="M105.89,499.75c.22,1.99-2.01,3.51-2.66,4.88l-15.54,7.1c-2.36,0-4.74,0-7.1,0,4.48-4.76,21.57-9.02,25.31-11.99Z"/>
                <path class="cls-33"
                      d="M383.43,375.41c4.18.55,10.55,4.64,14.65,6.66,0,.74,0,1.48,0,2.22-2.09.03-4.24-.21-6.22-.89-1.63-.56-15.11-6.8-15.54-7.55,1.44-.64,5.57-.64,7.1-.44Z"/>
                <path class="cls-13"
                      d="M5.54,265.29c-.2,2.67.11,4.8-.44,7.55-.42,2.04-3.48,10.57-4.88,11.99,0-6.51,0-13.03,0-19.54h5.33Z"/>
                <path class="cls-20"
                      d="M343.02,497.53c1,4.65.43,9.63-.44,14.21-1.03,0-2.08,0-3.11,0-2.99-3.52.31-13.64,2.22-15.76,1.48-1.64,1.2.93,1.33,1.55Z"/>
                <path class="cls-34"
                      d="M3.31,353.21c-.27,7.4-.74,14.8-.89,22.2-.26,0-.77.7-2.22.44,0-7.54,0-15.11,0-22.65h3.11Z"/>
                <path class="cls-33"
                      d="M12.64,375.86c-1.18,2.53-8.62,4.62-12.43,6.66,0-2.21,0-4.45,0-6.66,1.45.25,1.97-.45,2.22-.44,3.34.05,6.78.7,10.21.44Z"/>
                <path class="cls-50"
                      d="M334.14,511.74c-.44,0-.89,0-1.33,0-.12-.97.17-2.22,0-3.11,2.26-1.5,3.1-13.9,2.66-16.87,1.69-1.89,2.81,6.41,2.66,8.66-.25,3.76-2.83,7.8-4,11.32Z"/>
                <path class="cls-16"
                      d="M398.09,317.24c0,2.36,0,4.74,0,7.1-2.56-.16-5.46-.48-7.99-.44,1.47-6.95,2.8-4.98,7.99-6.66Z"/>
                <path class="cls-6"
                      d="M324.37,511.3h.44v.44c-.74,0-1.48,0-2.22,0-1.43-1.38-4.01-3.19-5.77-4-.09-.04-.48-1.05-1.55-1.33-.1-.03-.1.6-2,.44,2.31-1.05-3.08-3.54-6.66-6.22-.71-.53-1.47-1.21-2.22-1.78-4.85-3.71-5.92-3.78-6.22-4-1.19-.87-.82-1.28-.89-1.33-.84-.61-2.01-3.1-3.55-3.11.75-1.02-.32-.63-.89-3.11,8.79,9.94,20.65,16.53,31.53,23.98Z"/>
                <path class="cls-2"
                      d="M383.43,437.58l9.55,21.31c.52-.81,2.08-12.78,2.89-11.32-1.8,11.3-4.39,11.87,2.22,22.43,0,.74,0,1.48,0,2.22-5.75-10.99-9.38-23.32-15.99-33.75.05-.06-.02-1.65,1.33-.89Z"/>
                <path class="cls-34"
                      d="M347.91,499.31c.06,3.99,2.21,8.43,0,12.43-.74,0-1.48,0-2.22,0,.64-3.74.84-9.55-.89-12.88.04-2.12,1.46.45,3.11.44Z"/>
                <path class="cls-39"
                      d="M344.8,498.86c1.73,3.33,1.53,9.14.89,12.88-1.03,0-2.08,0-3.11,0,.87-4.58,1.45-9.56.44-14.21,1.27-.28,1.27.37,1.78,1.33Z"/>
                <path class="cls-36"
                      d="M101.45,507.74l-4,4c-2.66,0-5.33,0-7.99,0,1.34-.79,10.7-5.9,11.32-5.77.89.18.73.32.67,1.78Z"/>
                <path class="cls-34" d="M3.76,322.57c0,.29.58,1.2.44,5.77H.21c0-1.92,0-3.85,0-5.77h3.55Z"/>
                <path class="cls-48" d="M14.42,383.85c-3.29,2.68-9.79,1.47-14.21,1.33,0-.44,0-.89,0-1.33h14.21Z"/>
                <path class="cls-2"
                      d="M398.09,473.11c0,.15,0,.3,0,.44-6.09-1.62-12.11-3.93-17.76-6.66-2.22-1.07-4.33-2.65-6.66-3.55.04-.25-.13-.15,0-.89,7.91,4.08,15.88,8.03,24.42,10.66Z"/>
                <path class="cls-33" d="M322.6,511.74c-2.51,0-5.04,0-7.55,0l1.78-4c1.77.81,4.34,2.62,5.77,4Z"/>
                <path class="cls-5"
                      d="M103.23,504.64c-.91,1.9-1.44,5.11-2.66,7.1-.29,0-.6,0-.89,0,.44-1.01,1.74-3.27,1.78-4,.06-1.46.22-1.6-.67-1.78-.62-.13-9.98,4.98-11.32,5.77-.59,0-1.19,0-1.78,0l15.54-7.1Z"/>
                <path class="cls-17" d="M46.39,501.53l-.89.89-20.87,9.33c-.74,0-1.48,0-2.22,0l23.98-10.21Z"/>
                <path class="cls-5"
                      d="M11.31,511.74c-.29,0-.59,0-.89,0L.21,493.98c0-.44,0-.89,0-1.33,4.54,5.64,7.44,12.78,11.1,19.09Z"/>
                <path class="cls-2"
                      d="M397.2,511.74c-1.03.04-2.08-.06-3.11,0l-6.88-2.66c-1.85-1.82,6.26,1.01,9.99,2.66Z"/>
                <path class="cls-6" d="M101.45,507.74c-.03.72-1.33,2.98-1.78,4-.74,0-1.48,0-2.22,0l4-4Z"/>
                <path class="cls-7"
                      d="M316.16,56.13c9.55-1.06,10.16,8.28,11.1,8.44,5.79-3.24,8.95,3.19,6.22,8.44,7.9-6.28,16.07-4.77,17.1,5.99l-67.72.67c-1.54-.62,2.69-9.06,5.33-10.66,4.98-3.02,11.67-1.17,15.99,2.22-.65-6.64,5.54-14.38,11.99-15.1Z"/>
                <path class="cls-7"
                      d="M355.9,123.19c-1.06,2.14-1.59,4.61-2.89,6.66-.69.33-3.67-.75-6.88-.44,1.19-3.06,6.62-6.04,9.77-6.22Z"/>
                <path class="cls-46"
                      d="M374.55,457.57c-.45,1.67-.59,3.23-.89,4.88-.13.73.04.64,0,.89-.02.12-.64-.12-.89,2.22-5.72.54-11.65-.53-17.32-.44-2.72.04-5.94.85-8.66.89-79.09,1.02-158.26-.76-237.35,0-.15.01-.3-.02-.44,0-.28-1.41-.83-2.45-1.78-3.55-.29-.34.07-.74-1.11-.89-7.97,7.01-3.4-.76-.22-4h268.66Z"/>
                <path class="cls-45"
                      d="M263.31,481.99c17.29-.81,21.8,6.16,6.22,7.55-17.84,1.59-29.45-6.46-6.22-7.55Z"/>
                <path class="cls-33"
                      d="M372.77,465.56c-.15,1.42-.4,2.46-.44,4-.09,3.26-.39,8.32.67,9.77,7.73,4.69,16.14,8,24.2,11.99-8.39-1.58-16.67-7.56-24.65-11.55-.6,2.84-.14,5.63.22,8.44.89,6.92,2.45,8.04,6.22,13.77-7.86-.89-1.54-.84-1.33-1.11.29-.39-5.7-6.99-6.66-6.66,2.99.12.92-1.91-.44-4.22l1.33.67c-1.18-5.15,2.44-22.79-5.33-19.98l2.22,16.65c-.65-.58-1.45-1.05-2-1.78l-17.54-3.55c.09-.6.44-.41.44-.44l15.32,3.11.67-.67c-1.07-1.76-2.81-3.13-3.55-5.11,2.15,1.26,2.93,3.69,4.66,5.33,1.19-.07-1.09-13.09-1.11-14.88-1.62-.11-3.3-.4-4.88-.67-.28-.05-.61.04-.89,0-.14-.02-1.33-1.84-2.66-.89-1.64,1.67,3.06,8.54-4,1.33,3.17-4.37,3.4-.07,2.22-4,5.66-.08,11.6.98,17.32.44Z"/>
                <path class="cls-45"
                      d="M248.22,470.44c15.02-.6,19.7,4.82,7.1,6.66-17.03,2.49-31.75-5.67-7.1-6.66Z"/>
                <path class="cls-6"
                      d="M155.18,489.54c-1.82,1.54-8.69,5-11.1,7.99-2.62,1.63-2.94,2.12-3.11,2.22-1.43.86-2.88,1.65-4.22,2.66-.99-.56,5.65-13.99,5.99-15.99l1.11-.89c9.86,1.97,16.22-.14,11.32,4Z"/>
                <path class="cls-36"
                      d="M111.22,477.55c.02,1.48-.01,2.97,0,4.44-2.5.06-4.59,1.77-6.88,2.66-.51.2-.84-.46-.89-.44-.19.08-2.51,1.79-3.55,2.22-.05.02-.39-.65-.89-.44-.53.22-7.42,4.32-10.21,5.33l-.67-.67c1.22-1.46,2.68-6.11,3.77-6.88.83-.58,16.67-5.67,19.32-6.22Z"/>
                <path class="cls-5"
                      d="M105.89,457.57c-3.18,3.23-7.75,11,.22,4,1.18.15.82.55,1.11.89-3.06,1.97-9.96,3.78-7.77,7.55,2.03-1.07,7.65-3.79,9.55-4,.15-.02.3.01.44,0,.05.58-.08,1.21,0,1.78.06-1.85-11.28,3.13-11.77,3.55-1.14.97-1.65,3.38-2.44,4.66.46,1.51,12.54-5.28,14.65-5.11,0,.03.34-.17.44.44-5.86,3.3-16.56,4.52-18.21,11.1-.08.03.39,1.38-.89.44.82-4.93-3.01-14.57-3.11-19.98.03-.01-.16-.13.44-.44,4.05,26.82,6.69,21.47,4-2.22.3-.15.59-.3.89-.44l1.11,15.54c3.45-6.16,6.56-10.76,4.66-18.21.42-.04.46-.39.89-.44-.29,11.14,1.03,5.84,4.44-.89,1.22.14,1.16.84,1.33,1.78Z"/>
                <path class="cls-36"
                      d="M110.78,474c-.18,4.34-6.7,4.2-7.33,4.44-.32.13-3.21,2.65-6.22,2.22-1.13,1.69-4.83,1.69-5.11,1.78,1.65-6.58,12.35-7.8,18.21-11.1.16.92.34,1.71.44,2.66Z"/>
                <path class="cls-33"
                      d="M362.12,478.88c.75,1.98,2.48,3.35,3.55,5.11l-.67.67-15.32-3.11c.35-2.16.25-2.42.89-4.88,3.44.53,8.75.58,11.55,2.22Z"/>
                <path class="cls-20"
                      d="M335.47,491.76c.44,2.97-.4,15.37-2.66,16.87-.17-.91-2.11-4.62-2.22-5.55-.56-4.64,4-17.3,4.88-11.32Z"/>
                <path class="cls-45"
                      d="M109.45,467.78c.15,1,.26,2.14.44,3.11-2.11-.17-14.19,6.62-14.65,5.11.79-1.28,1.3-3.69,2.44-4.66.49-.42,11.83-5.4,11.77-3.55Z"/>
                <path class="cls-20" d="M310.83,481.99c7.69,6.87-1.81,21.17-2.89,9.1-.33-3.65,2.31-9.04,2.89-9.1Z"/>
                <path class="cls-39"
                      d="M337.47,470c4.39-.33-3.89,8.49-15.76,3.77,3.85-1.57,10.48-4.82,13.99-2.44.34-.45,1.67-1.32,1.78-1.33Z"/>
                <path class="cls-50"
                      d="M324.82,511.3h-.44c.05-2.01.04-5.25.44-7.1.03-.12,1.04-.35,1.33-2,.87-4.89,1.4-10.01,0-14.88,2.57-1.13,3.7,9.33,3.55,11.32-.01.18-1.25,1.9-1.33,2.22-.21.87.97.63.89.89-.17.53-3.77,4.54-4.44,9.55Z"/>
                <path class="cls-25"
                      d="M324.82,504.19c-3.15-6.07-2.6-11.31,1.33-16.87,1.4,4.86.87,9.98,0,14.88-.29,1.65-1.31,1.88-1.33,2Z"/>
                <path class="cls-50"
                      d="M292.84,487.32c.57,2.48,1.64,2.09.89,3.11-1.7-.5-11.45.73-8.44-3.11,2.24,2.31,2.73.19,3.11-.89,1.01-2.9-.23-1.31-.89-2.89-1.9-4.55,3.25-3.21,4.88.44.57,1.27.17,2.11.44,3.33Z"/>
                <path class="cls-50"
                      d="M297.28,493.53c.06.05-.3.46.89,1.33-1.77,1.48-4.02,1.98-4.44,2.22.62-2.99-4.83,0-8.22-.89-4.12-1.08-3.38-5.74,11.77-2.66Z"/>
                <path class="cls-20" d="M304.17,481.1c3.26,3.86,3.17,9.11-.44,12.88-2.39-4.37-2.95-8.9.44-12.88Z"/>
                <path class="cls-20"
                      d="M318.15,485.54c1.13,4.59.13,9.22-.44,13.77-.05,0-.13.96-.89.22-2.41-2.34-2.51-11.51,1.11-15.32.43.09.12,1.25.22,1.33Z"/>
                <path class="cls-38"
                      d="M199.15,484.21c.49-1.25,7.29-3.24,9.33-3.55.9-.14,4.9-.75,5.33-.22-2.02,4.67-10.47,4.93-14.65,3.77Z"/>
                <path class="cls-45"
                      d="M350.57,475.33c.61-1.96,1.17-3.54,2.22-5.33,8.66,6.93,10.49,9.11-2.22,5.33Z"/>
                <path class="cls-34"
                      d="M138.75,474.44c-6.61-2.73-.3-2.13,6.66-4.44.16.03.29,1.17,3.11.67-1.38,3.31-6.47,4.01-9.77,3.77Z"/>
                <path class="cls-50"
                      d="M317.71,499.31c.58-4.54,1.57-9.18.44-13.77,5.54,4.51,2.96,14.22-.44,13.77Z"/>
                <path class="cls-34"
                      d="M359.9,468.67c.28.04.61-.05.89,0,.04,2.81.41,7.78,1.33,10.21-2.79-1.64-8.11-1.69-11.55-2.22.08-.32-.42,0,0-1.33,12.71,3.78,10.88,1.6,2.22-5.33.03-.04-.04-.21.44-.89,7.05,7.21,2.36.34,4-1.33.9,7.46,4.58,12.68,2.66.89Z"/>
                <path class="cls-5"
                      d="M109.45,488.65c-5.34,1.98-18.64,8.61-22.65,9.33,4.83-3.41,17.7-7.13,23.54-11.1.27,1.64-.86,1.68-.89,1.78Z"/>
                <path class="cls-39"
                      d="M145.41,470c-6.96,2.31-13.27,1.72-6.66,4.44-1.26-.09-6.86-1.4-5.55-2.22,1.96-1.22,9.72-2.62,12.21-2.22Z"/>
                <path class="cls-50" d="M296.17,477.99c.92-.04.77,5.71.67,5.99-1.44,3.79-3.4-1.19-.67-5.99Z"/>
                <path class="cls-50"
                      d="M208.47,480.66c-2.03.31-8.83,2.3-9.33,3.55-2.89-.8-.4-1.79,3.33-3.11.89-.32,6.6-1.86,5.99-.44Z"/>
                <path class="cls-20" d="M288.4,486.43c-.38,1.08-.86,3.2-3.11.89,1.18-1.51,1.39-1.1,3.11-.89Z"/>
                <path class="cls-18"
                      d="M146.97,423.37h50.18l.22,29.53-61.06.22c-.78-.47-.44-.94-.22-2,.39-1.93,8.98-21.97,10.88-27.75Z"/>
                <polygon class="cls-18"
                         points="198.92 423.37 248.22 423.37 258.65 452.46 198.92 453.12 198.92 423.37"/>
                <polygon class="cls-18"
                         points="103.45 423.37 145.19 423.37 134.76 452.46 79.92 452.68 103.45 423.37"/>
                <polygon class="cls-18"
                         points="249.99 423.37 289.07 423.37 310.61 452.46 260.2 453.12 249.99 423.37"/>
                <path class="cls-18" d="M196.93,400.28l.22,21.76h-49.29l7.77-21.76c13.76-.04,27.54-.06,41.3,0Z"/>
                <path class="cls-18"
                      d="M240.89,401.17l6.88,20.87h-48.85l-.22-21.76c13.98.05,27.98-.04,41.96,0l.22.89Z"/>
                <polygon class="cls-18"
                         points="71.92 423.37 101.9 423.59 78.36 452.46 47.06 453.12 46.39 452.46 71.92 423.37"/>
                <polygon class="cls-18"
                         points="291.29 423.37 320.15 423.37 343.47 452.46 312.6 453.12 291.29 423.37"/>
                <path class="cls-18"
                      d="M89.46,402.06c-.85,1.48-14.87,16.19-17.98,19.98H30.18c-1.45-.73,23.43-19.19,24.65-20.87l1.11-.89h34.19c.69.35-.34,1.2-.67,1.78Z"/>
                <path class="cls-18"
                      d="M375.88,452.68c-.04.13.04.31,0,.44h-30.42l-23.76-29.53,25.09-.22,29.09,29.31Z"/>
                <path class="cls-18"
                      d="M154.3,400.28l-8.22,21.76h-41.3l16.65-21.31c10.93-.09,21.91-.41,32.86-.44Z"/>
                <path class="cls-18"
                      d="M273.75,401.61c.92.83,12.24,17.59,13.99,20.43h-38.63l-7.33-21.76c2.8-.67,23.95.5,30.42,0,.39.58,1.07.9,1.55,1.33Z"/>
                <path class="cls-18"
                      d="M120.55,400.28l-17.54,21.76-29.53-.22c3.21-3.14,15.87-18.93,16.87-19.76.69-.57,1.43-1.06,2-1.78,9.4-.06,18.81.08,28.2,0Z"/>
                <path class="cls-18"
                      d="M302.17,401.17l16.43,20.65-28.64.22-15.76-21.76c1.48-.53,22.48.4,27.31,0l.67.89Z"/>
                <path class="cls-18"
                      d="M323.04,400.28h1.11l21.54,21.54-25.09.22-17.54-21.76c1.5-.19,19-.18,19.98,0Z"/>
                <path class="cls-18"
                      d="M365.23,400.28c.97.04,1.76.15,2.66.44.15.15.27.28.44.44,7.29,6.77,19.43,14.06,27.53,20.65l-24.65.22-23.76-21.76c2.24-.29,14.36-.16,17.76,0Z"/>
                <path class="cls-18"
                      d="M384.76,437.58c-.44-.02-.89.01-1.33,0-1.35-.76-1.28.82-1.33.89-1.43,1.95-4.26,9.93-5.33,12.88l-27.53-27.31,21.98-.67c3.69,4.62,14.35,11.49,13.54,14.21Z"/>
                <path class="cls-18"
                      d="M346.57,401.17l22.65,20.65-21.98.22-20.65-21.76c6.24.39,12.62-.29,18.87,0l1.11.89Z"/>
                <path class="cls-46"
                      d="M97.46,457.57c-.56,1.12-2.52,1.51-4,2.22-.3.14-.59.29-.89.44-1.37.69-2.66,1.52-4,2.22-.61.32-.42.43-.44.44-1.44.75-3.04,1.45-4.44,2.22-.59.33-.42.43-.44.44-.12.07.08-.76-2.66.89h-35.52c-.28-.89-3.3-8.48-3.55-8.88,16.69-.82,40.34,1.04,55.95,0Z"/>
                <path class="cls-47"
                      d="M39.28,454.9l-11.32,26.64-6.88-18.21,8.88-5.77c2.84-.38,7.13-3.16,9.33-2.66Z"/>
                <path class="cls-36"
                      d="M40.17,455.79c.08.07,1.23,1.61,1.33,1.78.25.41,3.28,7.99,3.55,8.88.71,2.27.86,4.79,1.33,7.1l-17.76,8.22c3.86-8.62,6.68-17.92,11.55-25.98Z"/>
                <path class="cls-47"
                      d="M93.46,459.79c1.47-.71,3.43-1.1,4-2.22,1.4-.09,1.54-.42,1.78-.44,1.89,7.45-1.21,12.04-4.66,18.21l-1.11-15.54Z"/>
                <path class="cls-47" d="M104.56,455.79c-3.41,6.73-4.73,12.03-4.44.89,1.73-.22,3.04-1.04,4.44-.89Z"/>
                <path class="cls-20"
                      d="M306.61,500.64c-13.84,12.29-25.05,4.41-14.43.44,3.36-1.25,9.58-.59,12.21-2.22.75.57,1.51,1.24,2.22,1.78Z"/>
                <path class="cls-50"
                      d="M140.97,499.75c.16-.1.49-.6,3.11-2.22,5.47-3.39,7.31-5.4,7.77-5.33,3.29.5-1.58,8.19-2.22,8.44-.44.17-9.26.44-8.66-.89Z"/>
                <path class="cls-19"
                      d="M31.29,260.85c.36,15.61,9.52,16.41,22.87,15.99,6.51,3.47,10.49,13.63,17.98,13.32-.12,2.68-.32,5.34-.44,7.99-3.57.51-.5,2.46-.44,2.66.09.37.31.47.44,1.78-6.05.72-1.26,2.42-1.33,2.89-.03.19-2.62,1.4-2.66,2.66-.09,2.9,2.69.51,3.11,1.33.22.44-5.8,8.75.44,5.11,0,2.52.05,5,0,7.55h-11.55s-.85.15-.89-.22c-.35-3.17-3.94-16.06-7.33-16.65-.91-.16-1.7,1.1-2,1.33-2.96,2.29-5.6,11.55-7.1,15.54-1.95.23-5.15-.32-6.66,0-1.19-4.77,3.89,3.67,2.66-6.44,6.88.06,1.43-4.61.89-6.66-1.63-6.17-2.03-12.69-4.88-18.65l-.67-.67c-1.21.87-1.71,1.88-2.44,3.11-3.5,5.85-3.35,14.83-4,16.21-.48,1.03-4.02,1.9-3.11,4.44.31.87,2.56,1.1,2.66,1.33.49,1.11-2.48,3.12,0,4.22.06.03-.18.65,1.33.44.29.11.64-.47.67-.44.14.12.16,1.27,2,3.11-2.04.56-10.87.32-14.21.44-.88-19.52-2.08-39.08-2.66-58.62,5.94-.13,11.55-2.1,17.32-3.11Z"/>
                <path class="cls-5"
                      d="M39.28,328.34c-2.79,9.31,2.61,8.49,10.21,8.88-.03.36.89,4.79.44,7.1-2.5.29-2.11,3.73-2.22,5.33-.06.88-.11,2.28,0,3.11h-29.75c-.36-8.13-.52-16.3-.89-24.42h22.2Z"/>
                <path class="cls-34"
                      d="M32.62,320.79c-.57,6.46,1.59,6.07,2.22,1.78,1.05.17.84-.43.89-.44,1.51-.32,4.71.23,6.66,0-.79,2.1-2.48,4.11-3.11,6.22h-22.2c-.09-1.86-.36-3.85-.44-5.77,3.34-.12,12.17.11,14.21-.44,1.5-.41.32-2.41,1.78-1.33Z"/>
                <path class="cls-34"
                      d="M190.27,352.77c14.11,2.55,18.25,17.78,15.54,30.2-.33,0-2.75.44-6.66.44-.58,0-1.2,0-1.78,0-11.69,0-23.39,0-35.08,0-.09,0,.48-.45-1.78-.44-.22,0-.68.44-4.44.44-1.73-10.38-3.85-20.72-7.99-30.42.62-.86,12.25.21,14.21.22,1.92,0,3.86.02,5.77,0,6.18-.06,18.65-1.09,22.2-.44Z"/>
                <path class="cls-43"
                      d="M205.81,382.96c9.57,0,19.26.43,28.86.44l4.44,12.43c-13.36.05-26.8.89-40.19.44l.22-12.88c3.91,0,6.33-.44,6.66-.44Z"/>
                <path class="cls-43" d="M197.37,383.41l-.22,12.88h-39.52l4.66-12.88c11.69,0,23.39,0,35.08,0Z"/>
                <path class="cls-43"
                      d="M136.98,383.41c.43,0,.9,0,1.33,0,.88,0,1.78,0,2.66,0,.07,0-.39.45,1.33.44,4,0,8.44-.89,12.43-.89.95,0,.98.44,1.33.44,3.76,0,4.22-.44,4.44-.44l-4.66,13.32h-29.75l4.22-5.77c8.91-.04,17.92-.89,26.87-.44.4-.22-1.14-3.9-1.33-4-2.15-1.06-41.97.02-47.96,0-.18,0,.24-.87-3.55-.89-10.01-.04-20.15.89-30.2.89-.36,0,.14-.89-.89-.89-1.17,0-5.49.89-6.66.89-10.63,0-21.29-.73-31.97-.44-.14,0-2.15.93-2.66.89-1.49-.12.42-1.23,0-1.33-.91-.23-15.32,1.13-18.65.89l2-2.22c10.96-.06,21.93,0,32.86,0,.59,0,1.19,0,1.78,0,1.8,0,2.06-.44,2.22-.44.07,0-.39.44,1.33.44,3.4,0,6.81,0,10.21,0,5.15,0,10.37,0,15.54,0,18.27-.03,36.56.04,54.84,0,.13,0,2.02-.97,2.22-1.33.37.25.01.89.67.89Z"/>
                <path class="cls-43"
                      d="M347.46,380.3c.03,1.53-.14,2.97.44,4.44-.07.06.17.79-.22.89-4.24,1-72.25-.11-84.15,0-2.91.03-22.79-.24-23.76.44-.28.2-.36,3.01-.22,3.33.52,1.18,22.75.65,25.76.67,1.13,2.21,2.72,4.01,3.77,6.22-9.52.51-19.16-.48-28.64-.44l-4.44-12.43c2.44.3,3.37-.44,3.55-.44,2.86,0,5.95.44,8.88.44.07,0-.4.44,1.33.44.87,0,1.77,0,2.66,0,.95,0,.98-.44,1.33-.44,10.18.02,20.43.43,30.64.44,2.66,0,5.34,0,7.99,0,6.92-.01,44.98.51,47.29,0,3.13-.69-1.01-3.5,3.77-3.11.44,5.28.98,4.82,1.33-.44h2.66Z"/>
                <path class="cls-43"
                      d="M69.04,390.07h30.42l-5.33,6.22c-10.73,0-21.47,0-32.19,0,.52-1.69,5.84-5.83,7.1-6.22Z"/>
                <path class="cls-43"
                      d="M128.98,390.07c-.53.9-4.3,6.09-4.66,6.22-1.59.55-22.95-.41-27.98,0l4.22-5.77c9.41.02,18.97-.41,28.42-.44Z"/>
                <path class="cls-43"
                      d="M293.73,390.51l3.77,5.77c-4.82-.4-25.12.53-26.64,0-.35-.12-3.82-5.3-4.22-6.22,9.01.08,18.1.39,27.09.44Z"/>
                <path class="cls-43"
                      d="M60.15,395.84c-8.35,0-18.45,1.61-26.64.44.9-.96,7.29-6.09,7.77-6.22,2.33-.61,19.49.45,24.87,0l-5.99,5.77Z"/>
                <path class="cls-43"
                      d="M315.05,390.07l5.11,6.22c-4.09-.37-19.46.5-20.87,0-.37-.13-4.05-5.4-4.66-6.22,6.8.04,13.63-.09,20.43,0Z"/>
                <path class="cls-43"
                      d="M339.91,396.28c-13.2-.22-18.72,2.49-23.54-6.22,2.86.05,17.14-.3,17.98,0,.39.14,5.09,5.28,5.55,6.22Z"/>
                <path class="cls-43"
                      d="M361.23,396.28c-6.49.48-13.1-.44-19.54-.44l-5.11-5.77h16.87c2.45,2.25,5.12,4.23,7.77,6.22Z"/>
                <path class="cls-43"
                      d="M32.62,395.4c-3.5,1.56-13.42.89-18.21.89,9.62-8.29,12.72-6.01,24.65-6.22v.89c-2.13.56-5.25,3.91-6.44,4.44Z"/>
                <path class="cls-30"
                      d="M236,383.41l4.44,12.43c-.45,0-.91,0-1.33,0l-4.44-12.43c.44,0,.89,0,1.33,0Z"/>
                <path class="cls-34"
                      d="M370.11,353.21h.89c-.07,2.78-1.08,21.08-.44,21.98.39.55,4.36.05,5.33.22l.44.44c.44.75,13.91,6.99,15.54,7.55h-43.07c-.32-2.47-.72-12.91,1.78-13.1.23-2.26-.43-1.9-.44-2-.55-3.86-1.15-3.31-4.44-4,.98-2.34-4.07-.44-2.66-2,.72-.8,9.69,1.02,7.1-4.44-.84-1.78-3.07,1.47-6.66-2.22,5.27-.36,7.6.86,7.1-2.44h19.54Z"/>
                <path class="cls-33"
                      d="M370.55,489.98c-.08-.14.08-1-1.78-2.66l-2.22-16.65c7.77-2.8,4.15,14.83,5.33,19.98l-1.33-.67Z"/>
                <path class="cls-1" d="M351.24,504.19l11.55,1.33c5.17,3.14-6.52.28-11.55-1.33Z"/>
                <path class="cls-34" d="M365,506.86c1.6,0,3.32.16,4.88.44,9.04,1.65.16,1.83-4.88-.44Z"/>
                <path class="cls-34" d="M364.12,492.2c2.54-.12,4.07,1.1,1.33.89-.25-.02-1.79-.47-1.33-.89Z"/>
                <path class="cls-34" d="M369.44,500.2c.37.04,1.51-.16,1.55.22.04.33-2.22.44-1.55-.22Z"/>
                <path class="cls-34" d="M369.44,493.53c.79-.05,1.16-.15,1.11.67-.02.29-1.68-.33-1.11-.67Z"/>
                <path class="cls-34" d="M364.56,499.31c.37.04,1.51-.16,1.55.22.04.33-2.22.44-1.55-.22Z"/>
                <path class="cls-43"
                      d="M382.54,396.28c-4.83.54-12.81-.4-18.21,0-3.17.11-5.82-4.65-9.1-5.33v-.89c12.51.55,17.39-2.78,27.31,6.22Z"/>
                <path class="cls-9"
                      d="M263.54,385.63c.46.9,1.67,4.23,1.78,4.44-3-.02-25.23.51-25.76-.67-.14-.32-.06-3.13.22-3.33.97-.69,20.84-.42,23.76-.44Z"/>
                <path class="cls-33"
                      d="M80.58,466.45c-1.15.69-2.54,1.25-2.66,1.33-.46.29-.89.59-1.33.89-.19.12-3.36,2.51-3.55,2.66-.33.28-.79.36-1.33.89-1.15,1.11-3.77,3.69-3.55,4.88-2.45.23-2.6-5.21-4-6.88-4.09-4.9-7.11,1.13-9.33,4.88-2.9,4.91-5.01,12.68-5.33,13.32-.2.4-.93.18-1.33.22.07-3.21-.44-2.53-.44-2.66,0-.29.01-.59,0-.89-.13-3.83-.17-7.3-.89-11.1-.12-.61-.44-.41-.44-.44-.47-2.32-.63-4.83-1.33-7.1h35.52Z"/>
                <path class="cls-20"
                      d="M380.32,466.89l-7.99,2.66c.04-1.54.29-2.57.44-4,.25-2.34.87-2.1.89-2.22,2.33.9,4.44,2.48,6.66,3.55Z"/>
                <path class="cls-36"
                      d="M108.56,493.98c.04-.56-.7-.55-1.11-.44-2.13.56-21.66,9.46-25.76,11.99,1.22-5.01,2.29-5.55,5.11-7.55,4.01-.72,17.31-7.35,22.65-9.33-.06.26.37,3.79-.89,5.33Z"/>
                <path class="cls-36"
                      d="M107.67,494.42c.69,1.05-.24,3.59-.89,4.44l-27.98,11.77c2.84-7.8,20.73-11.96,28.86-16.21Z"/>
                <path class="cls-2" d="M394.98,495.31l-21.76-7.1c6.16,1.03,15.72,4.28,21.76,7.1Z"/>
                <path class="cls-47"
                      d="M10.42,470.89c1.36-1.33,3.75-3.23,5.33-4.44,1.39-1.06,2.98-2.14,4.44-3.11l7.1,19.32-5.99,14.43-10.88-26.2Z"/>
                <path class="cls-47"
                      d="M73.03,471.33c.19-.16,3.37-2.54,3.55-2.66,3.12,9.36,3.82,19.87,6.66,29.53l-3.33,8.66-6.88-35.52Z"/>
                <path class="cls-47"
                      d="M83.25,465.56c-.26,10.21,5.79,26.9.67,32.42l-5.99-30.2c.13-.08,1.52-.64,2.66-1.33,2.74-1.65,2.54-.82,2.66-.89Z"/>
                <path class="cls-47"
                      d="M88.13,462.89c.1,5.41,3.93,15.05,3.11,19.98-.27,1.63-3.76,10.03-4.88,5.99-.89-3.18-1.4-17.91-2.66-23.76,1.4-.77,3-1.47,4.44-2.22Z"/>
                <path class="cls-36"
                      d="M47.72,485.1l-24.65,11.55-.67-.67c1.75-2.63,4.51-11.7,5.99-13.1.75-.7,15.68-7.51,18.43-8.88.72,3.8.75,7.27.89,11.1Z"/>
                <path class="cls-34"
                      d="M188.49,323.46c14.33.98,28.73.14,43.07.89,2.79.15,5.64-.11,8.44,0l.44.44c.1.67-.16,1.89,0,2.22-.65-.06-.3.78-.67.89-2.67.79-47.99-.65-55.73,0-.07-1.36-.33-3.01-.44-4.44,1.61.08,3.28-.11,4.88,0Z"/>
                <path class="cls-33"
                      d="M164.51,310.58l.44,1.33c.68,3.45-1.35,5.14,1.33,4-.02.22.91,3.3.44,4.44-1.52-.21-1.26.42-1.33.44-2.86.82-4.2-1.57-7.1,0-1.3.51-1.09-3.22-.67-4,.72-1.31,12.03.71-.67-1.55-.28-2.73-.02-6.02-.44-8.66-.07-.45-.34-2.52-.67-2.66-.43-.12-1.49,1.63-1.55,1.78-4.27.43.66-5.85,3.77-11.1.9,6.68,4.82,4.7,3.33,8.66,4.04,1.85-.48,2.99-.44,4,.02.6,2.39,1.18,3.55,3.33Z"/>
                <path class="cls-39"
                      d="M156.52,306.58c-1.98,1.76.06,4.48-.44,6.88-2.03,1.35,1.64,4.32-.44,5.55-.52-.43-1.15-.76-1.55-1.33-2.38,3.87-.06-2.43-3.33-4,3.95-4.2,3.38-7.58,3.55-7.99.06-.15,1.13-1.9,1.55-1.78.33.14.59,2.21.67,2.66Z"/>
                <path class="cls-19"
                      d="M188.49,319.91v3.55c-1.61-.11-3.27.08-4.88,0-.04-.57-.34-1.16-.44-2.66,1.57-.85,3.81-.45,5.33-.89Z"/>
                <path class="cls-9"
                      d="M188.49,302.59l-4.44-3.55c.58.23,1.99.56,2.44.89,1.98,1.45,1.91,2.53,2,2.66Z"/>
                <path class="cls-34" d="M164.95,311.91l-.44-1.33c.38.7.3.6.44,1.33Z"/>
                <path class="cls-36"
                      d="M109,466c-1.9.21-7.52,2.93-9.55,4-2.19-3.77,4.71-5.58,7.77-7.55.95,1.1,1.5,2.14,1.78,3.55Z"/>
                <path class="cls-33"
                      d="M362.12,478.88c-.92-2.43-1.29-7.4-1.33-10.21,1.58.27,3.27.56,4.88.67.02,1.79,2.3,14.81,1.11,14.88-1.73-1.63-2.51-4.07-4.66-5.33Z"/>
                <path class="cls-33" d="M359.9,468.67c1.91,11.79-1.76,6.57-2.66-.89,1.33-.96,2.53.87,2.66.89Z"/>
                <path class="cls-47" d="M88.57,462.45c1.34-.7,2.63-1.53,4-2.22,2.69,23.69.05,29.04-4,2.22Z"/>
                <path class="cls-45"
                      d="M34.84,312.8c-5.96.73-1.58.89-1.33,2.44.06.39-.7,3.39-.89,5.55-1.46-1.08-.28.92-1.78,1.33-1.84-1.84-1.86-2.99-2-3.11-.03-.03-.37.56-.67.44-.07-.03.19-.65-1.33-.44-2.48-1.1.49-3.11,0-4.22-.1-.23-2.35-.46-2.66-1.33-.91-2.54,2.63-3.41,3.11-4.44.65-1.38.5-10.36,4-16.21,3.79-5.59,3.61,11.93,3.55,19.98Z"/>
                <path class="cls-33"
                      d="M35.73,322.13s.16.61-.89.44c.44-3.01-.02-6.68,0-9.77.06-8.05.24-25.57-3.55-19.98.74-1.23,1.23-2.24,2.44-3.11l.67.67c2.85,5.96,3.26,12.48,4.88,18.65.54,2.05,5.99,6.72-.89,6.66,1.23,10.11-3.85,1.67-2.66,6.44Z"/>
                <path class="cls-34"
                      d="M71.26,322.13c-.03,1.92.02,3.85,0,5.77-7.72-.28-6.56,1.74-10.21-3.11-.51-.68-1-1.42-1.33-2.22,0-.15,0-.3,0-.44h11.55Z"/>
                <path class="cls-15" d="M71.7,298.15c-.09,2.06,1.16,2.81-.44,2.66-.05-.21-3.13-2.15.44-2.66Z"/>
                <path class="cls-44" d="M28.18,319.46c-1.51.21-1.27-.42-1.33-.44,1.52-.21,1.27.42,1.33.44Z"/>
                <path class="cls-12"
                      d="M34.84,312.8c-.02,3.09.44,6.76,0,9.77-.63,4.29-2.79,4.68-2.22-1.78.19-2.16.95-5.16.89-5.55-.24-1.55-4.62-1.71,1.33-2.44Z"/>
                <path class="cls-5"
                      d="M281.74,323.9c7.43.3,14.76.41,22.2.44,2.64.01,2.95-.44,3.11-.44,8.52,0,17.19.91,25.76.44-.05,2.16-1.38,14.59-.22,15.1l8.22-.67c-.89-4.75-1.01-9.63-1.33-14.43h32.42c-.23,9.62-.65,19.25-.89,28.86h-.89l.22-7.99c-.92-.65-17.64.43-20.2.44-32.48.21-65.15-.16-97.69,0-6.3-1.14-6.28,3.9-.44,3.55-.02.09,1.11,1.27.22,1.78-.48.28-4.06-.27-4.44,0-.51.36-.06,1.66-.22,2.22h-4.88c.99-3.73-2.2-16.94-7.1-15.99-4.07.79-6.88,11.78-5.33,15.54-3.66-.06-26.44-.46-27.75,0-.35.12-.22.6-.22.89-3.59-.76-8.42-2.01-11.99-.89-3.55-.64-16.02.39-22.2.44-.7-3.03,1.81-2.77,4-3.11.18-.03,1.22.97,2.66.22-1.32-3.82,1.71-1.01.44-4.88-.7-2.15-6.09-7.05-6.88-6.88-.44.09-.11,1.23-.22,1.33-3.42,3.3-.82-1.41-3.55,1.55-.53.57-3.09,6.58-3.11,7.33-2.24-.42-15.49-.54-15.99.67.74.89.98,2.35,1.33,3.33-1.42-.16-3.62.14-4.88,0-2.13-.24-4.19-1.01-6.22-1.55,1.7-2.51,5.28-2.22,6.22-4.88l-5.55-1.11c-11.68,1.76-77.32-.85-81.93.44-.53-.12-1.39-.87-1.78-.89-.31-4-.52-7.97-.44-11.99,1.31.54,13.44,3.3,12.88,1.11-2.25-.61-4.85-6.67-4-9.1,3.66,4.85,2.49,2.82,10.21,3.11-.02,1.49-.72,10.75-.22,11.1,1.26-.2,7.8.36,8.22-.22.32-.44-.4-9.23-.44-10.88h45.74c.09,3.77-1.35,7.49,2,6.22,1.13-.43-.17-5.11-.22-6.22l55.95-.44c.67,11.57,2.38,11.88,1.78.44,7.74-.65,53.06.79,55.73,0,.37-.11.02-.95.67-.89.25.52,1.14,2.09,1.55,2.22.29.09,5.72-.77,5.99-.89-.4.73,1.45,1.33,1.55,1.33,3.41.11,19.46-1.29,21.31-.44,1.19.54-.22,1.15,1.55,1.78,4.16,1.46,1.34-3.29,1.78-7.1,2.49.09,5.08-.1,7.55,0Z"/>
                <path class="cls-47"
                      d="M202.25,353.66c16,3.36,31.74,13.29,37.3,29.31-.18,0-1.11.74-3.55.44-.44,0-.89,0-1.33,0-9.61-.02-19.29-.45-28.86-.44,2.71-12.42-1.43-27.64-15.54-30.2,3.57-1.12,8.4.13,11.99.89Z"/>
                <path class="cls-33"
                      d="M161.4,348.77c0,.25,1.33,1.67.89,4.44-1.96,0-13.59-1.08-14.21-.22,4.14,9.7,6.26,20.04,7.99,30.42-.35,0-.39-.44-1.33-.44-.82-10.64-4.44-20.37-7.99-30.2-.35-.98-.59-2.44-1.33-3.33.49-1.2,13.75-1.09,15.99-.67Z"/>
                <path class="cls-36"
                      d="M168.06,339.89c2.88,4.37,2.95,5.13,4,10.21-2.19.34-4.7.08-4,3.11-1.92.02-3.85,0-5.77,0,.44-2.77-.89-4.19-.89-4.44.02-.75,2.58-6.76,3.11-7.33,2.73-2.96.13,1.75,3.55-1.55Z"/>
                <path class="cls-33"
                      d="M136.98,383.41c-.65,0-.29-.64-.67-.89-.2.37-2.09,1.33-2.22,1.33-18.28.04-36.57-.03-54.84,0,1.44-4.27-17.73-5.65-15.54,0-3.4,0-6.81,0-10.21,0v-7.1h82.37l1.11-1.33c.04,2.66-.03,5.34,0,7.99Z"/>
                <path class="cls-34"
                      d="M146.75,352.77c3.55,9.83,7.17,19.55,7.99,30.2-4,0-8.43.88-12.43.89.08-3.99-.11-8.01,0-11.99.03-1.09.94-.19.89-3.55-.12-7.77-5.82-.04-5.11-6.66.84.06,3.94.09,4.22-.67,1.51-4.15-8.51-2.39-4.66-5.11,1.11-.78,5.17,2.11,4.22-3.11,1.27.14,3.46-.16,4.88,0Z"/>
                <path class="cls-45" d="M79.25,383.85c-5.17,0-10.39,0-15.54,0-2.19-5.65,16.99-4.27,15.54,0Z"/>
                <path class="cls-34"
                      d="M230.23,352.77c2.36.04,4.71.38,7.1.44,1.77.05,3.56-.03,5.33,0h4.88c-.24.81.02,1.83-.67,2.66,5.01-.52,7.64.36,4.88,1.33-.83.29-3.78-.4-4.22.22-.12.16-.12,3.83,0,4,.79,1.12,5.4-1.7,4.44,2.89-1.23.03-2.5.2-3.77,0-.04,3.14-1.09,3.77-1.11,4-.27,3,.19,2.34,1.33,3.11v11.99c-2.93,0-6.02-.44-8.88-.44-5.57-16.02-21.3-25.94-37.3-29.31,0-.29-.12-.77.22-.89,1.31-.46,24.09-.06,27.75,0Z"/>
                <path class="cls-33"
                      d="M343.47,376.3c.09,1.46-.12,2.98,0,4.44-4.78-.39-.65,2.42-3.77,3.11-2.31.51-40.38-.01-47.29,0,6.51-5.65-11.96-6.56-7.99,0-10.21,0-20.46-.42-30.64-.44-1.24-2.15,0-4.55,0-6.66l89.7-.44Z"/>
                <path class="cls-45" d="M292.4,383.85c-2.66,0-5.33,0-7.99,0-3.97-6.56,14.51-5.65,7.99,0Z"/>
                <path class="cls-5"
                      d="M370.11,353.21h-19.54c-.45-2.97-5.32-1.41-7.55-2,2.91-1.07,2.26-1.94,2.44-2,2.9-.86,5.69,2.27,4.66-3.55,2.57-.02,19.29-1.09,20.2-.44l-.22,7.99Z"/>
                <path class="cls-34"
                      d="M136.53,371.42c.73,1.23.43,2.66.44,4l-1.11,1.33H53.49v-4.88c27.66-.06,55.36-.49,83.04-.44Z"/>
                <path class="cls-34"
                      d="M343.47,371.86v4.44l-89.7.44c0-.53-.76-2.27-.44-4.88,29.96.82,60.13-1.57,90.14,0Z"/>
                <path class="cls-34"
                      d="M165.4,323.01c.44.01.89-.01,1.33,0,5.17.17,10.37.06,15.54.44-.01,1.31-.08,2.69,0,4l-55.95.44c-.09-1.8-.37-3.56-.44-5.33,13.18-.19,26.35.06,39.52.44Z"/>
                <path class="cls-37"
                      d="M158.29,320.79c-1.34,1.59-1.86-1.11-2.66-1.78,2.08-1.23-1.59-4.2.44-5.55.5-2.4-1.53-5.13.44-6.88.43,2.64.17,5.93.44,8.66,12.69,2.26,1.38.24.67,1.55-.43.78-.63,4.5.67,4Z"/>
                <path class="cls-49"
                      d="M166.73,320.35v2.66c-.44-.01-.89.01-1.33,0v-2.22c.07-.02-.19-.65,1.33-.44Z"/>
                <path class="cls-19"
                      d="M267.09,307.92c-2.42,3.33-5.88.65-7.55,12.66.76,2.11,11.91-1.33,12.88,2.44-.02.29,0,.6,0,.89-7.83.69-15.69.37-23.54.44-1.07-2.7-1.54-7.01,0-6.66,12.25,2.76,1.97-1.66,9.33-2-5.87-6.9-1.04-2.66,0-4.88.51-1.09-1.85-3.38-3.11-5.99l11.99,3.11Z"/>
                <path class="cls-34"
                      d="M99.68,322.13c8.29.1,16.57.6,24.87.44.02,1.77-.04,3.56,0,5.33h-45.74c-.05-1.9-.38-3.82-.44-5.77,7.1.06,14.22-.09,21.31,0Z"/>
                <path class="cls-8"
                      d="M81.91,316.35c-2.37,2.36,11.77,2.25,17.76,5.77-7.1-.09-14.22.06-21.31,0-.07-2.06.07-4.15,0-6.22,1.65-.27,2.68.36,3.55.44Z"/>
                <path class="cls-33"
                      d="M272.42,323.9c-.06,2.36.04,4.74,0,7.1-1.78-.62-.36-1.23-1.55-1.78-1.85-.85-17.91.55-21.31.44-.1,0-1.95-.61-1.55-1.33,2.53-1.08.72-1.7.44-4,.15,0,.3,0,.44,0,7.84-.07,15.71.24,23.54-.44Z"/>
                <path class="cls-36"
                      d="M235.56,337.22c-.82,2.28,3.2,4.89,3.55,6.44,1.37,5.93-2.21,7.3-1.78,9.55-2.4-.06-4.74-.4-7.1-.44-1.56-3.76,1.26-14.75,5.33-15.54Z"/>
                <path class="cls-16"
                      d="M242.66,353.21c-1.77-.03-3.56.05-5.33,0-.43-2.25,3.14-3.62,1.78-9.55-.36-1.55-4.37-4.16-3.55-6.44,4.9-.95,8.1,12.26,7.1,15.99Z"/>
                <path class="cls-5"
                      d="M172.06,350.1c-1.05-5.09-1.11-5.84-4-10.21.11-.11-.21-1.24.22-1.33.8-.16,6.18,4.74,6.88,6.88,1.27,3.87-1.77,1.06-.44,4.88-1.44.74-2.49-.25-2.66-.22Z"/>
                <path class="cls-47" d="M167.4,343.89c.99-.28.76,3.1.67,3.33-.48,1.11-2.99.57-.67-3.33Z"/>
                <path class="cls-32" d="M87.69,307.03c-1.09-1.91-.28-2.25-.44-3.11.5.55,1.21,2.53.44,3.11Z"/>
            </g>
            <g>
                <g>
                    <path class="cls-36"
                          d="M181.38,117.86c3.61,10.85,2.55,23.34-3.11,33.3-13.08,23.06-48.17,26.92-64.83,5.77,6.43-.06,12.88.05,19.32,0,1.52-.57-.86-12.2-11.77-4.22,7.79-14.02-2.33-25.94-17.76-21.09-.53-30.8,32.52-50.62,59.73-35.52,7.27,4.03,15.8,13.86,18.43,21.76Z"/>
                    <path class="cls-7"
                          d="M178.28,151.16c5.65-9.96,6.71-22.45,3.11-33.3,10.26-8.43,21.93-.08,24.2,11.55,6.69-2.41,8.35,4.07,8.88,4,7.48-17.05,26.29-3.88,22.87,10.88.2.73,7.81-1.48,12.43,6.66l-71.49.22Z"/>
                    <path class="cls-7"
                          d="M113.44,156.94c-14.64.15-29.32-.11-43.96,0-.07-4.28-.41-9.06-.89-13.32,3.13-1.15,6.08.81,8.66,2.22,3.01-6.79,9.39-13.21,13.77-3.55,2.75-3.82,7.65-9.23,12.21-10.66,15.43-4.84,25.56,7.07,17.76,21.09,10.91-7.98,13.29,3.65,11.77,4.22-6.44.05-12.88-.06-19.32,0Z"/>
                </g>
                <g>
                    <path class="cls-47"
                          d="M398.09,136.51c.03,34.48-.01,68.99,0,103.47l-5.77,4.22-1.55-12.21.22,13.99-12.43,8.44-2.22-58.39c-.39-.04-1.15.18-1.33-.22-2.02-4.36,2.05-83.81.89-96.14.89-.03,2.61-.1,2.89,0,2.49.94,15.72,32.72,19.32,36.86Z"/>
                    <path class="cls-12"
                          d="M376.33,196.01l2.22,58.39,12.43-8.44-.22-13.99,1.55,12.21,5.77-4.22c0,1.48,0,2.97,0,4.44-5.86,5.75-11.91,11.23-19.09,15.32-.37,5.41.34,10.83.44,16.21.06,3.12.36,6.25.44,9.33.34,13.04.81,26.05,1.33,39.08.06,1.62-.07,3.27,0,4.88.22,5.3.66,10.68.89,15.99.12,2.66.33,5.36.44,7.99.32,7.39.19,14.83.89,22.2-1.54-.2-5.67-.19-7.1.44l-.44-.44.44-87.7c-1.24,3.07,1.08,4.24-3.55,3.77.04-3.4.02-6.83,0-10.21,0-.15,0-.3,0-.44-.02-1.96.93-4.36.44-6.44-12.75-7.64-42.35-31.25-49.73-42.41,13.11,12.38,26.82,24.09,42.41,33.3,2-1.48-4.95-12.4-5.33-14.65,6.64,7.92,5.03,16.74,12.43,18.21l.67-29.97c-18.44-10.05-30.36-32.24-38.19-51.07,5.91,11.73,12.33,23.21,21.09,33.08.27-.01,1.06-1.74,1.11-2,.42-1.94-1.52-24.57.89-3.11.21,1.86.13,4.84-.44,6.66,4.42,4.53,9.03,9.11,14.88,11.77,2.07-12.52.99-25.57,3.33-38.19Z"/>
                    <path class="cls-47"
                          d="M398.09,280.38c-1.51,1.15-3.17,1.88-4.88,2.66.28-1.75-1.71-.8-4.22-1.78-3.37-1.32-6.2-4.01-9.55-5.33-.1-5.38-.82-10.79-.44-16.21,7.18-4.09,13.24-9.57,19.09-15.32,0,11.98,0,23.99,0,35.97Z"/>
                    <path class="cls-28"
                          d="M375.88,375.41c-.97-.17-4.94.33-5.33-.22-.64-.9.38-19.2.44-21.98.24-9.61.65-19.24.89-28.86.27-10.94.75-21.91.89-32.86,4.63.46,2.31-.7,3.55-3.77l-.44,87.7Z"/>
                    <path class="cls-27"
                          d="M393.2,283.05c-4.16,1.9-8.64,3.33-13.32,2.22-.08-3.07-.39-6.21-.44-9.33,3.35,1.31,6.18,4.01,9.55,5.33,2.51.98,4.5.03,4.22,1.78Z"/>
                    <path class="cls-12"
                          d="M323.48,231.98c-.05-.07-1.58-.79-1.11-1.33,1.33.08,1.05,1.27,1.11,1.33Z"/>
                </g>
                <g>
                    <g>
                        <path class="cls-33"
                              d="M8.2,67.24c1.31,13.13-1.71,98.37,0,103.24.12.35.6.22.89.22-1.43,12.77-1.68,25.55-2.22,38.41l-6.66-2.89c.02-45.73-.08-91.48,0-137.22,2.86-.62,4.82-1.9,7.99-1.78Z"/>
                        <path class="cls-33"
                              d="M5.54,265.29H.21c0-18.2,0-36.42,0-54.62l6.66,3.33c-.4,17.07-.09,34.26-1.33,51.29Z"/>
                        <path class="cls-33"
                              d="M68.59,174.25c4.75-.44,11.89,8.87,14.65,12.43-1.49,2.12-2.09,5.07-2.22,5.33-1.77,3.65-4.28,6.87-4.44,11.32,19.82,19.67-1.01,27.68-15.99,36.64-2.73.63-4.69,1.99-7.55,2.66-.58.14-1.8.83-2.22.89-9.62,1.29-23.14-2.6-30.64-8.88,12.26-11.22,20.57-21.8,27.53-37.08,1.56-3.41,9.78-25.66,10.21-27.98,1.32-7.09-2.6,5.27-5.77,13.1-.63-2.43-8.36.95-11.77,2.22l-14.21,1.78c-1.11-21,.41-43.5-.67-65.06,0-.18-.88-.71-.89-.89-.13-2.46.61-5.02.44-7.33,8.73-2.11,28.97,6.28,33.75,12.66,8.15,10.87,1.24,42.17,2.66,48.85,1.08,5.07,4.54-.43,7.1-.67Z"/>
                        <path class="cls-33"
                              d="M24.19,104.09c.31,3.01.67,6.33.89,9.33.17,2.3-.57,4.87-.44,7.33,0,.18.88.71.89.89,1.08,21.55-.45,44.06.67,65.06l14.21-1.78c3.41-1.27,11.14-4.65,11.77-2.22-5.73,14.16-12.74,27.76-23.76,38.63-.57-.08-1.91-7.26-2-8.22-.71-7.55,2.41-28.29-.89-8.88l.89,19.09c-3.28,2.93-6.48,5.84-10.21,8.22l-3.55-3.55c-2.01-21.1-1.46-42.55-2.66-63.72-1.28,1.96-.65,4.34-.89,6.44-.29,0-.77.12-.89-.22-1.71-4.87,1.31-90.11,0-103.24.76.03,5.83,1.4,6.44,1.78,5.97,3.66,8.81,27.93,9.55,35.08Z"/>
                        <path class="cls-14"
                              d="M68.59,143.61c.48,4.27.81,9.05.89,13.32.1,5.78-.62,11.55-.89,17.32-2.56.24-6.03,5.73-7.1.67-1.42-6.68,5.49-37.97-2.66-48.85-4.78-6.38-25.02-14.76-33.75-12.66-.22-2.99-.58-6.31-.89-9.33,8-.06,37.49,16.41,40.41,21.54,1.94,3.41,3.51,13.66,4,17.98Z"/>
                        <path class="cls-33"
                              d="M50.83,243.53c4.73,13.8-1.17,14.49-12.43,16.43-2.39.41-4.71.47-7.1.89-5.77,1-11.37,2.97-17.32,3.11-.24-7.92-.55-15.84-.89-23.76.14-.43,4.48-3.15,7.1-5.55,7.5,6.28,21.02,10.17,30.64,8.88Z"/>
                        <g>
                            <path class="cls-28"
                                  d="M12.64,227.99c.22,2.32-.58,4.85.67,5.77,1.68-.85,2.73-2.12,2.89-2.22,3.73-2.37,6.93-5.28,10.21-8.22l-.89-19.09c3.3-19.41.18,1.34.89,8.88.09.96,1.42,8.13,2,8.22,11.02-10.88,18.03-24.48,23.76-38.63,3.17-7.83,7.1-20.19,5.77-13.1-.43,2.31-8.66,24.56-10.21,27.98-6.97,15.28-15.27,25.86-27.53,37.08-2.63,2.41-6.96,5.12-7.1,5.55.34,7.92.65,15.84.89,23.76.59,19.54,1.79,39.1,2.66,58.62.09,1.92.36,3.91.44,5.77.37,8.13.53,16.29.89,24.42.33,7.48,1.02,14.94,1.33,22.43-2.22.12-4.46.5-6.66.67-3.44.25-6.87-.4-10.21-.44.15-7.41.62-14.8.89-22.2.3-8.28.65-16.6.89-24.87.13-4.57-.45-5.48-.44-5.77.47-16.54,2.05-33.16,1.33-49.73.56-2.75.25-4.87.44-7.55,1.24-17.03.93-34.21,1.33-51.29l-6.66-3.33c0-1.48,0-2.97,0-4.44l6.66,2.89c.54-12.86.79-25.64,2.22-38.41.24-2.1-.4-4.48.89-6.44,1.21,21.17.66,42.62,2.66,63.72Z"/>
                            <path class="cls-45"
                                  d="M16.19,231.54c-.15.1-1.2,1.37-2.89,2.22-1.24-.92-.45-3.45-.67-5.77l3.55,3.55Z"/>
                        </g>
                    </g>
                    <g>
                        <path class="cls-39"
                              d="M107.67,236.87c.69,1.29,1.72,1.66,1.78,1.78.03.06.27.84.44,1.33-3.47,2.42-6.49,7.03-10.66,9.55-1.14,3.48,9.38,17.58,4.88,24.87-3.36,5.44-16.63,5.57-22.2,4.22-.64-.16-3.84-1.57-3.55-2.66,5.8-6.47,13.2-10.31,18.21-26.87-3.31,4.82-8.42,18.3-13.54,17.98.62,3-3.98,5-6.22,7.1l-2.66-34.19c-1.07,7.59-1.27,15.2-1.11,22.87-.7,1.82-7.97-3.38-6.44-6.44l-.89,2.22c-9.82-10.51,1.91,5.78,6.88,6.88.7,1.65-.46,9.15-.44,11.32-3.96-.33-6.53-6.52-9.99-8.44-7.18-3.98-18.56-.17-23.76-8.44,11.26-1.94,17.17-2.63,12.43-16.43.42-.06,1.64-.75,2.22-.89,5.26,1.35,7.18-2.45,7.55-2.66,14.98-8.95,35.81-16.97,15.99-36.64.17-4.46,2.68-7.68,4.44-11.32,3.7,4.46,8.59,11.16,7.1,17.1,20.95,4.57,13.29,22.87,13.77,24.42.1.32,4.85,3.27,5.77,3.33Z"/>
                        <path class="cls-34"
                              d="M107.67,236.87c-.93-.06-5.68-3.01-5.77-3.33-.47-1.55,7.19-19.85-13.77-24.42,1.48-5.94-3.41-12.64-7.1-17.1.13-.26.73-3.21,2.22-5.33,4.28,5.52,9.86,11.33,7.1,18.87,13.54-1.46,24.5,17.19,15.1,27.98.83,1.12,1.55,2.08,2.22,3.33Z"/>
                        <path class="cls-15"
                              d="M60.6,239.98c-.36.22-2.29,4.02-7.55,2.66,2.86-.67,4.82-2.03,7.55-2.66Z"/>
                        <path class="cls-12"
                              d="M78.36,275.94c-.32.35-1.65,1.09-1.78,1.55-.25,3.95.34,7.84.44,11.77,0,.16.37.46.44,3.11.22,7.86.63,15.7.89,23.54.07,2.06-.07,4.15,0,6.22.07,1.95.39,3.87.44,5.77.04,1.65.76,10.44.44,10.88-.41.58-6.96.03-8.22.22-.49-.35.2-9.61.22-11.1.02-1.92-.03-3.86,0-5.77.05-2.54,0-5.03,0-7.55,0-3.92.86-8,.44-11.99-.14-1.3-.35-1.41-.44-1.78,1.6.15.35-.61.44-2.66.12-2.66.33-5.32.44-7.99.2-4.58.04-8.77,0-13.32-.02-2.18,1.14-9.68.44-11.32-4.97-1.11-16.7-17.39-6.88-6.88l.89-2.22c-1.53,3.06,5.74,8.26,6.44,6.44-.16-7.67.04-15.28,1.11-22.87l2.66,34.19c2.24-2.11,6.83-4.11,6.22-7.1,5.13.31,10.24-13.17,13.54-17.98-5.01,16.56-12.4,20.4-18.21,26.87Z"/>
                        <path class="cls-40"
                              d="M38.4,259.96c5.2,8.27,16.57,4.46,23.76,8.44,3.46,1.92,6.03,8.11,9.99,8.44.04,4.55.2,8.74,0,13.32-7.49.31-11.48-9.86-17.98-13.32-13.35.42-22.51-.38-22.87-15.99,2.39-.42,4.71-.48,7.1-.89Z"/>
                        <path class="cls-50"
                              d="M109.89,239.98c3.81,10.51-8.16,4.33-5.77,17.98.5,2.85,5.84,9.87,6.22,10.88.83,2.25,1.22,5.23.44,7.55-1.05,3.13-8.2,7.75-11.32,8.44-7.33,1.61-11.92-2.61-12.43-2.22-.68.52.35,3-.67,4.44l-4.44-8.44c5.57,1.35,18.84,1.23,22.2-4.22,4.5-7.29-6.03-21.39-4.88-24.87,4.17-2.52,7.19-7.13,10.66-9.55Z"/>
                        <path class="cls-40"
                              d="M81.91,278.61l4.44,8.44c-1.19,1.68-6.46.98-9.33,2.22-.11-3.92-.69-7.82-.44-11.77.13-.47,1.46-1.2,1.78-1.55-.29,1.1,2.91,2.51,3.55,2.66Z"/>
                    </g>
                </g>
                <g>
                    <path class="cls-41"
                          d="M143.19,368.31c.05,3.36-.86,2.46-.89,3.55-1.55-2.01-1.22,0-1.33,0-.14,0-.44-.44-2.66-.44-.59,0-1.19,0-1.78,0-27.68-.05-55.38.39-83.04.44-1.55,0-.9.46-1.33.44-.15,0,1.13-.42-2.22-.89-.5-.07-1.05-1.05-1.33,0-.02-.39-1.34,1.09-.89-3.11h95.47Z"/>
                    <path class="cls-26"
                          d="M49.94,371.42v12.43c-.59,0-1.19,0-1.78,0,.59-4.05.64-8.36.44-12.43.28-1.05.84-.07,1.33,0Z"/>
                    <path class="cls-4"
                          d="M52.61,344.77c.39.02,1.25.77,1.78.89-.05.01.18.68-.22.89-.41.21-1.48-.3-2,.22-.31.31,1.64,1.52-1.78,2.44-.58.16-1.18.4-1.78.44-.29.02-.6-.01-.89,0,.11-1.6-.28-5.04,2.22-5.33.17-.02-1.56.26,2.66.44Z"/>
                    <path class="cls-14"
                          d="M140.97,371.86v11.55c-.88,0-1.79,0-2.66,0v-11.99c2.22,0,2.53.44,2.66.44Z"/>
                    <path class="cls-34"
                          d="M52.16,372.31v11.1c-.16,0-.42.44-2.22.44v-12.43c3.35.47,2.07.88,2.22.89Z"/>
                    <path class="cls-26"
                          d="M138.31,371.42v11.99c-.44,0-.9,0-1.33,0-.03-2.66.04-5.34,0-7.99-.02-1.33.29-2.77-.44-4,.59,0,1.19,0,1.78,0Z"/>
                    <path class="cls-3"
                          d="M142.31,371.86c-.11,3.98.08,8,0,11.99-1.73,0-1.26-.44-1.33-.44v-11.55c.11,0-.21-2.01,1.33,0Z"/>
                    <path class="cls-26"
                          d="M53.49,371.86v11.99c-1.73,0-1.26-.44-1.33-.44v-11.1c.43.02-.22-.44,1.33-.44Z"/>
                    <g>
                        <path class="cls-4"
                              d="M141.86,352.77c.95,5.21-3.11,2.33-4.22,3.11-3.84,2.72,6.17.96,4.66,5.11-.27.75-3.38.72-4.22.67-.71,6.62,4.99-1.11,5.11,6.66H47.72c.76-7.03,2.92-2.99,3.77-3.55.11-.07.69-2.32.67-2.44-.23-1.14-4.1,0-4.44-.89-2.28-5.94,5.47-3.89,4.44-5.33-.61-.43-4.06-.53-4.22-.67-.1-.09-.03-1.14-.22-2.66-.11-.83-.06-2.23,0-3.11.29-.01.6.02.89,0-.49,3.13,5.31,1.4,1.78-.44,3.41-.92,1.47-2.14,1.78-2.44.52-.52,1.59-.02,2-.22.4-.2.17-.87.22-.89,4.61-1.3,70.25,1.32,81.93-.44l5.55,1.11c-.94,2.67-4.52,2.37-6.22,4.88,2.03.54,4.09,1.32,6.22,1.55Z"/>
                        <g>
                            <path class="cls-34"
                                  d="M55.49,349.21h79.04l.22,2c-10-.74-75.58,1.69-79.27.22-.95-.38-.18-1.66,0-2.22Z"/>
                            <path class="cls-14"
                                  d="M134.76,363.42c-10.12.46-74.67-1.28-78.38,0-.39.13-.18.96-.22,1.33-1.09-.39-1.9-2.61-.22-3.11,10.08,1.03,74.49-1.35,78.15,0,.59.22.84,1.22.67,1.78Z"/>
                            <path class="cls-14"
                                  d="M70.59,355.43c21.49-.59,43.12.3,64.61.67-.39.28-.87,1.03-1.11,1.11-3.74,1.2-68.23-.92-78.6,0-3.88-1.37,8.61-1.6,15.1-1.78Z"/>
                            <path class="cls-33"
                                  d="M134.76,363.42c-.27.85-2.16,1.22-2.89,1.33-7.56,1.18-60.87-.89-75.71,0,.04-.37-.17-1.2.22-1.33,3.71-1.28,68.26.46,78.38,0Z"/>
                            <path class="cls-2"
                                  d="M50.39,349.21c3.53,1.84-2.26,3.58-1.78.44.6-.05,1.19-.29,1.78-.44Z"/>
                            <path class="cls-34"
                                  d="M53.27,355.88c.86-.45,1.36,1.38.44,1.33-.98-.05-.87-1.11-.44-1.33Z"/>
                            <path class="cls-12" d="M53.49,350.55l-.44.44c-1.7-.65-1.27-2.11.44-.44Z"/>
                            <path class="cls-34" d="M136.31,355.43c.67-.24.98.65.44.89-.65.29-.98-.69-.44-.89Z"/>
                            <path class="cls-34" d="M136.31,361.65c.67-.24.98.65.44.89-.65.29-.98-.69-.44-.89Z"/>
                            <path class="cls-48" d="M53.05,350.99l.44-.44c.18.17,2.14,1.43-.44.44Z"/>
                            <path class="cls-33" d="M136.31,347.88h.44c1.62.2-.73,1-.44,0Z"/>
                            <path class="cls-34" d="M135.87,357.21h.44c1.62.2-.73,1-.44,0Z"/>
                        </g>
                    </g>
                </g>
                <g>
                    <path class="cls-36"
                          d="M309.72,301.26l4.44,2.66c.87,3.78-1.93,1.86-2.44,2.22-.71.49.93,1.26-1.11,2.89,5.97,3.62,4.44,5.15-2.22,4l5.33,3.11c-4.09,3.94,7.16,5.32-7.99,4.66-.22-1.05.44-2.55-.67-4-.65-.01-1.06,3.8-1.11,4.44-7.61-.43-8.89,2.42-6.22-5.11-.95-1.84-3.08,1.92-3.11,0-.01-.88,3.58-3.73,3.55-4-.14-1.39-4.63.21.89-4.88-5.91-1.3,6.62-9.2,7.33-9.1.3.04.65,1.49,3.33,3.11Z"/>
                    <path class="cls-11"
                          d="M305.72,320.79c.24,1.19.54,2.15,1.33,3.11-.16,0-.46.46-3.11.44.09-1-.08-2.15,0-3.11.05-.64.46-4.46,1.11-4.44,1.11,1.44.45,2.94.67,4Z"/>
                    <path class="cls-2" d="M314.16,303.92l-4.44-2.66c.24.14,3.92.43,4.44,2.66Z"/>
                </g>
                <g>
                    <path class="cls-31"
                          d="M375.88,99.65c1.16,12.33-2.91,91.78-.89,96.14.19.4.94.18,1.33.22-2.35,12.62-1.26,25.67-3.33,38.19-5.85-2.66-10.46-7.24-14.88-11.77.57-1.82.65-4.8.44-6.66-2.41-21.46-.47,1.17-.89,3.11-.05.25-.84,1.99-1.11,2-8.77-9.87-15.18-21.36-21.09-33.08,7.83,18.82,19.75,41.02,38.19,51.07l-.67,29.97c-7.41-1.46-5.79-10.29-12.43-18.21.38,2.25,7.33,13.18,5.33,14.65-15.59-9.21-29.3-20.93-42.41-33.3-.06-.06.22-1.25-1.11-1.33-.47.54,1.06,1.26,1.11,1.33,7.39,11.16,36.98,34.77,49.73,42.41.48,2.08-.47,4.48-.44,6.44-.79-.17-2.49-.94-3.11-1.33-7.11-4.55-18.99-15.18-26.64-16.87-1.71-.38-4.79-.32-6.66-.44-2.17-.14-1.32.46-1.78.44-9.97-.3-19.99.22-29.75-2.22-12.44-3.11-25.6-15.89-26.64-21.98-2.18-12.76,15.32-15.6,16.43-17.98,2.88-6.16-10.64-16.24.89-32.42,1.11-1.56,13.48-13.85,16.87-17.32.36-.37,2.51-1.13,3.55-2.44-6.6-21.6,10.01-36.91,30.2-38.86,3.21-.31,6.19.78,6.88.44,1.3-2.05,1.83-4.52,2.89-6.66,3.83-7.74,9.69-23.23,19.98-23.54Z"/>
                    <g>
                        <path class="cls-45"
                              d="M372.77,280.83c0,.15,0,.3,0,.44-2.51.91-3.96,6.36-6.22,8.66-4.73,4.81-11.71,4.13-17.98,4.22-1.66.4-2.61,4.3-10.88,4.44-.13-4.08-.47-8.13-.44-12.21.03-.1,1.43-.71,1.78-1.11,10.7,5.25,25.45,7.58,30.64-5.77.62.4,2.31,1.16,3.11,1.33Z"/>
                        <path class="cls-45"
                              d="M334.59,262.62c.03,5.3.37,17.24-3.33,8.88-.05-.04-.84.92-.89.89-4.7-3.2-7.13-5.47-.44.89.87.82,3.02,2.02,4.22,2.44.52,7.35-.71,14.68-.89,21.98-9.32-3.73-38.91-14.52-35.08-27.75.78-2.7,4.77-4.87,4.88-5.33.37-1.5-2.87-2.83,1.78-4.22,9.76,2.44,19.79,1.92,29.75,2.22Z"/>
                        <path class="cls-33"
                              d="M369.67,279.5c-5.19,13.35-19.94,11.03-30.64,5.77,1.68-1.95,12.6-11.1,10.66-14.21-.24-.39-4.9-3.63-5.77-3.11,0-.29.01-.6,0-.89-.07-1.64-1.24-2.7-.89-4.44,7.65,1.69,19.53,12.33,26.64,16.87Z"/>
                        <path class="cls-28"
                              d="M336.36,262.18l.44,21.54c1.17.97,5.64-3.39,6.66-4.44.25-1.28-.46-1.73-.44-2,.36.03.81-.05.89,0,2.15,1.51,4.09-4.29,5.77-6.22,1.94,3.11-8.98,12.26-10.66,14.21-.34.4-1.74,1.01-1.78,1.11-.02,4.09.32,8.13.44,12.21.27,8.59,1.2,17.19,1.78,25.76.32,4.81.44,9.68,1.33,14.43l-8.22.67c-1.16-.51.17-12.94.22-15.1.21-8.87.23-17.8.44-26.64.18-7.3,1.41-14.63.89-21.98-1.2-.42-3.35-1.62-4.22-2.44-6.69-6.36-4.26-4.09.44-.89.05.04.84-.92.89-.89,3.7,8.35,3.36-3.58,3.33-8.88.46.01-.4-.59,1.78-.44Z"/>
                        <path class="cls-33"
                              d="M343.02,262.62c-.35,1.74.82,2.8.89,4.44-1.62,2.51-.67,6.84-.89,10.21-.02.27.69.72.44,2-1.02,1.05-5.49,5.41-6.66,4.44l-.44-21.54c1.87.12,4.95.07,6.66.44Z"/>
                        <path class="cls-33"
                              d="M349.68,271.06c-1.68,1.93-3.62,7.72-5.77,6.22-1.01-3.72.05-6.39,0-9.33.87-.52,5.53,2.72,5.77,3.11Z"/>
                        <path class="cls-4"
                              d="M343.91,267.95c.05,2.93-1.01,5.61,0,9.33-.08-.05-.52.03-.89,0,.21-3.37-.73-7.7.89-10.21.01.29,0,.59,0,.89Z"/>
                    </g>
                </g>
                <g>
                    <g>
                        <path class="cls-19"
                              d="M398.09,317.24c-5.19,1.68-6.52-.29-7.99,6.66-2.63.04-6.01.88-8.88.44-.52-13.03-.99-26.03-1.33-39.08,4.68,1.11,9.16-.32,13.32-2.22,1.72-.78,3.38-1.51,4.88-2.66,0,12.28,0,24.58,0,36.86Z"/>
                        <path class="cls-13"
                              d="M262.2,191.57c-9.71,24.7-13.65,51.37-22.65,76.38-1.69-1.8-3.78-4.61-5.77-5.33-2.06-4.01-13.79-16.56-17.76-20.43-.14-.14.17-.92-2.44-3.11-5.59,7.23-10.95,15.01-17.1,21.76-4.03,4.43-9.11,8.15-12.88,12.88-1.94-2.22-3.85-4.41-5.77-6.66,3.31-8.13,5.64-16.75,7.55-25.31,8.47-7.03,50.55-50.38,59.95-60.84l6.44,11.1,5.77-7.55c2.55,4.13,1.93,8.68,4.66,7.1Z"/>
                        <path class="cls-7"
                              d="M312.38,170.7c-3.39,3.47-15.77,15.76-16.87,17.32-3.71-3-10.84-7.26-13.77-10.21-.3-.3-.67-.93-.89-1.33.83-1.48.57-30.73,0-33.97-.04-.24-.71-1.41-1.33-1.11.3-.63.53-1.32,1.11-1.78,10.69,10.22,21.53,20.37,31.75,31.08Z"/>
                        <path class="cls-21"
                              d="M279.52,142.28c-6.15,15.28-11.07,32.72-16.43,48.4l-.89.89c-2.74,1.57-2.12-2.97-4.66-7.1l-5.77,7.55-6.44-11.1c10.76-11.96,20.38-25.1,31.08-37.08,1.41-1.57,2.45-3.05,3.11-1.55Z"/>
                        <path class="cls-7"
                              d="M280.85,176.47c-6.19,4.23-10.89,11.13-17.76,14.21,5.36-15.68,10.28-33.13,16.43-48.4.08-.21-.08-.71,0-.89.62-.3,1.29.87,1.33,1.11.57,3.24.83,32.49,0,33.97Z"/>
                        <path class="cls-23"
                              d="M177.83,267.06c-3.58-4.19-6.72-8.7-10.21-12.88,5.68-4.39,12.24-7.85,17.76-12.43-1.91,8.56-4.24,17.18-7.55,25.31Z"/>
                        <path class="cls-19"
                              d="M372.77,281.27c.02,3.39.04,6.81,0,10.21-.14,10.95-.62,21.92-.89,32.86h-32.42c-.57-8.56-1.51-17.17-1.78-25.76,8.27-.14,9.22-4.04,10.88-4.44,6.28-.09,13.25.59,17.98-4.22,2.26-2.3,3.71-7.74,6.22-8.66Z"/>
                        <path class="cls-19"
                              d="M281.74,177.81c-.1.44-.88,1.89-.89,2-.38,10.21,1.21,20.81.44,31.08l13.32,9.55c-1.11,2.38-18.61,5.23-16.43,17.98,1.04,6.09,14.2,18.87,26.64,21.98-4.65,1.39-1.41,2.72-1.78,4.22-.11.45-4.1,2.63-4.88,5.33-3.83,13.24,25.77,24.02,35.08,27.75-.22,8.85-.24,17.78-.44,26.64-8.57.46-17.24-.44-25.76-.44-.79-.95-1.09-1.92-1.33-3.11,15.15.66,3.9-.72,7.99-4.66l-5.33-3.11c6.66,1.15,8.19-.38,2.22-4,2.04-1.62.4-2.39,1.11-2.89.52-.36,3.32,1.56,2.44-2.22-.52-2.23-4.21-2.52-4.44-2.66-2.68-1.62-3.03-3.07-3.33-3.11-.71-.09-13.24,7.81-7.33,9.1-5.52,5.09-1.02,3.5-.89,4.88.03.27-3.57,3.12-3.55,4,.03,1.92,2.16-1.84,3.11,0-2.67,7.52-1.4,4.68,6.22,5.11-.08.96.09,2.11,0,3.11-7.44-.03-14.77-.14-22.2-.44-.95-6.35,1.65-5.19.44-8.88l8.88-.67c-4.93-3.49-13.9-14.86-14.21-10.88-.01-.03-.1.12-.44-.44-.16-.26-.37-.58-.44-.89,1.74-2.24.72-.29,4.88-1.11-9.9-8.31-2.55-17.62-11.55-3.77-10.84-8.71-20.24-19.18-29.75-29.31,9-25.01,12.94-51.68,22.65-76.38l.89-.89c6.87-3.08,11.57-9.98,17.76-14.21.22.4.59,1.03.89,1.33Z"/>
                        <path class="cls-10"
                              d="M295.51,188.02c-11.53,16.17,1.99,26.25-.89,32.42l-13.32-9.55c.76-10.27-.82-20.88-.44-31.08,0-.11.79-1.56.89-2,2.93,2.96,10.06,7.22,13.77,10.21Z"/>
                        <path class="cls-19"
                              d="M196.48,260.85l23.31,17.76c1.98-1.28,5.43-10.39,7.33-9.77,2.84,7.38,8.85,12.78,13.32,19.09-4.25,2.6-14.83,8.95-2.66,8.22-.69,1.89-7.01,2.66-7.1,4-.11,1.48,3.15,1.51,3.11,2.22-.02.27-3.27,2.13-4,3.55-3.71,7.26,2.34,1.67,2.89,1.55,3.13-.64-3.87,5.59-1.78,12.43,3.33-1.92,7.04-2.25,10.88-2.22-.64,2.12-.8,4.59-1.78,6.66-2.8-.11-5.65.15-8.44,0-16.59-16.37-32.63-33.07-47.96-50.62,3.76-4.73,8.84-8.45,12.88-12.88Z"/>
                        <path class="cls-7"
                              d="M216.02,242.2c-.5-.03-1.04-.94-1.11-.89-1.27.99,10.16,23.11,10.88,26.42,1.59.22,1.89.88,2.66,1.55-.62.17-.85-.29-1.33-.44-1.9-.62-5.35,8.49-7.33,9.77l-23.31-17.76c6.15-6.75,11.51-14.53,17.1-21.76,2.61,2.19,2.3,2.97,2.44,3.11Z"/>
                        <path class="cls-10"
                              d="M239.56,267.95c9.51,10.13,18.92,20.59,29.75,29.31-.49.75-3.08,3.1-3.11,3.33-.26,2.31,6.1.15.89,7.33l-11.99-3.11c-2.73-5.68,1.19-1.8,1.33-4.22.04-.78-1.73-1.45-1.78-1.55-3.77-7.92,4.39-2.17,2.66-7.33-.61-1.81-7.41-2.67-7.77-2.89-.37-.22-2.6-4.33-3.55-4.44-.5-.06-2.31,1.71-2.44,1.78-1.06.57-2.08,1.15-3.11,1.78-4.47-6.31-10.48-11.71-13.32-19.09.49.16.71.61,1.33.44.94.83,9.62,7.13,10.21,5.99-2.09-3.61-3.09-9.18-4.88-12.66,1.99.72,4.08,3.53,5.77,5.33Z"/>
                        <path class="cls-7"
                              d="M216.02,242.2c3.98,3.87,15.7,16.42,17.76,20.43,1.79,3.48,2.79,9.04,4.88,12.66-.59,1.14-9.27-5.17-10.21-5.99-.77-.68-1.08-1.33-2.66-1.55-.72-3.31-12.15-25.43-10.88-26.42.07-.05.61.86,1.11.89Z"/>
                        <path class="cls-10"
                              d="M282.19,315.02c-.46-1.4-2.95-4.57-4-6.88-.36-.8-.63-3.09-1.33-4.66.31-3.99,9.28,7.39,14.21,10.88l-8.88.67Z"/>
                    </g>
                    <g>
                        <path class="cls-10"
                              d="M153.85,238.2c4.45,5.44,9.28,10.61,13.77,15.99,3.49,4.18,6.64,8.69,10.21,12.88,1.92,2.25,3.83,4.44,5.77,6.66,15.33,17.55,31.37,34.25,47.96,50.62-14.35-.75-28.75.09-43.07-.89v-3.55c4.33-1.25,3.25-12.48,0-17.32-.09-.14-.02-1.21-2-2.66-.45-.33-1.86-.66-2.44-.89-.07-.03.19-.65-1.33-.44-1.02-3.3-3.99-.28-4.88,1.55-.28.57-.4,3.82-.89,4.88-.32.71-2.54,3.42-2.66,3.77-4.82-3.24-7.59,3.4-7.99,7.1-2.68,1.15-.65-.55-1.33-4-.15-.74-.07-.63-.44-1.33-1.16-2.15-3.53-2.73-3.55-3.33-.03-1.01,4.49-2.14.44-4,1.49-3.96-2.44-1.98-3.33-8.66-3.12,5.25-8.05,11.53-3.77,11.1-.17.41.39,3.8-3.55,7.99-.75-.36-12.86-.89-14.65-.89,1.76-1.33,3.77-3.45,4.88-5.33,4.4-7.43,4.78-14.46,1.33-22.2-2.27-5.09-6.36-9.32-11.55-11.55,3.01-11.15,1.76-23.17,1.33-34.64.46-.54.96-1.17,1.33-1.78l18.87,12.43,1.55-11.55Z"/>
                        <path class="cls-7"
                              d="M153.85,238.2l-1.55,11.55-18.87-12.43-1.33-23.54v-.44c.67-.43.8-1.67,1.33-1.11,6.77,8.66,13.47,17.47,20.43,25.98Z"/>
                        <path class="cls-13"
                              d="M117.88,247.97c.01.44.48.49.44.89-1.48,6.96-4.81,13.61-7.99,19.98-.37-1.01-5.72-8.03-6.22-10.88-2.38-13.66,9.58-7.48,5.77-17.98-.18-.49-.41-1.27-.44-1.33,1.77-2.63,4.12-4.76,6.22-7.1.98,5.36,2.08,10.97,2.22,16.43Z"/>
                        <path class="cls-21"
                              d="M132.09,213.33v.44c-4.15,10.08-7.04,20.94-11.55,30.86-.44.96-1.55,3.5-2.66,3.33-.14-5.46-1.24-11.07-2.22-16.43,3.7-4.13,12.62-15.75,16.43-18.21Z"/>
                        <path class="cls-19"
                              d="M130.76,273.72c-2.05-.88-3.19-1.78-5.33-1.33-2.49.52-6.34,4.23-7.99,6.22l-6.66-2.22c.78-2.31.39-5.3-.44-7.55,3.18-6.38,6.51-13.02,7.99-19.98,2.42-1.2,13.22-9.12,13.77-9.77.43,11.46,1.67,23.49-1.33,34.64Z"/>
                        <path class="cls-19"
                              d="M136.09,312.8c1.79,0,13.91.53,14.65.89,3.27,1.56.95,7.86,3.33,4,.41.58,1.04.9,1.55,1.33.8.67,1.32,3.37,2.66,1.78,2.91-1.57,4.24.82,7.1,0v2.22c-13.17-.38-26.34-.64-39.52-.44-.31-7.19-1.34-8.95,2.66-9.77,1.12-.23,5.38,0,7.55,0Z"/>
                        <path class="cls-7"
                              d="M133.43,237.31c-.37.61-.88,1.23-1.33,1.78-.54.65-11.34,8.57-13.77,9.77.04-.4-.43-.45-.44-.89,1.12.17,2.23-2.37,2.66-3.33,4.51-9.93,7.39-20.78,11.55-30.86l1.33,23.54Z"/>
                        <path class="cls-19"
                              d="M174.28,308.8c-1.92,5.28,2.13,12.88,7.99,12.88-.03.59,0,1.19,0,1.78-5.17-.39-10.37-.27-15.54-.44v-2.66c.47-1.14-.47-4.22-.44-4.44.4-3.71,3.18-10.35,7.99-7.1Z"/>
                        <path class="cls-13"
                              d="M117.44,278.61c-7.83,9.42-13.86,27.35-3.33,36.86l10.44-.89c.06,2.66-.03,5.34,0,7.99-8.3.15-16.58-.34-24.87-.44-5.99-3.53-20.14-3.41-17.76-5.77,9.11.88,3.83-2.55,4.44-3.33.67-.86,3.46.86,3.55-.44.04-.51-3.99-4.14-4-4.44-.06-1.97,1.31-.76,1.78-1.11.77-.58.05-2.56-.44-3.11-.03-.14.03-.3,0-.44-.29-1.46-1.06-2.95-1.33-4.44.79-.27,9.12.54,5.11-2.22-.53-.37-6.86-1.68-7.55-2.22-1.85-1.44-.52-5.61-5.99-2.22-.08-2.65-.44-2.95-.44-3.11,2.86-1.24,8.14-.54,9.33-2.22,1.02-1.44-.01-3.92.67-4.44.51-.39,5.1,3.83,12.43,2.22,3.13-.69,10.27-5.31,11.32-8.44l6.66,2.22Z"/>
                    </g>
                </g>
                <g>
                    <path class="cls-34"
                          d="M130.76,273.72c5.19,2.22,9.28,6.45,11.55,11.55-1.82-.35-.95,2.64-2.66,5.11-2.23,3.21-7.21,5.22-7.55,5.55-.48.47-2.16,5.13-5.99,7.55-1.1-2.56-.57-5.32-.67-7.99-.26-7.65.2-15.41,0-23.09,2.14-.45,3.27.45,5.33,1.33Z"/>
                    <path class="cls-34"
                          d="M142.31,285.27c3.44,7.74,3.07,14.77-1.33,22.2-3.51.31-3.45,5.52-9.33,2.22,7.44-7.81-3.51,1.36-5.55,3.11-3.13-10.46,4.66-8.41,5.99-16.87.34-.33,5.32-2.34,7.55-5.55,1.71-2.47.84-5.45,2.66-5.11Z"/>
                    <path class="cls-33"
                          d="M140.97,307.47c-1.12,1.88-3.12,3.99-4.88,5.33-2.17,0-6.43-.23-7.55,0,.68-1.35,2.13-2.08,3.11-3.11,5.87,3.3,5.81-1.91,9.33-2.22Z"/>
                    <path class="cls-33"
                          d="M125.43,272.39c.2,7.68-.26,15.44,0,23.09-1.99-.19.08,4.74-1.55,5.33-5.12-4.49-4.74-1.98.67,1.55.06,4.07-.09,8.15,0,12.21l-10.44.89c-10.53-9.5-4.5-27.43,3.33-36.86,1.65-1.98,5.5-5.7,7.99-6.22Z"/>
                    <path class="cls-12"
                          d="M125.43,295.48c.09,2.67-.44,5.43.67,7.99,3.83-2.42,5.51-7.08,5.99-7.55-1.33,8.47-9.13,6.41-5.99,16.87,2.04-1.75,12.99-10.92,5.55-3.11-.98,1.03-2.43,1.76-3.11,3.11-4.01.82-2.98,2.58-2.66,9.77.08,1.76.35,3.53.44,5.33.06,1.11,1.35,5.79.22,6.22-3.35,1.27-1.91-2.44-2-6.22-.04-1.77.02-3.56,0-5.33-.03-2.66.06-5.34,0-7.99-.09-4.06.06-8.14,0-12.21-5.4-3.53-5.78-6.05-.67-1.55,1.63-.59-.43-5.51,1.55-5.33Z"/>
                </g>
                <g>
                    <path class="cls-36"
                          d="M184.05,299.04l4.44,3.55c3.25,4.84,4.33,16.07,0,17.32-1.52.44-3.76.04-5.33.89-.11-1.62.14-8.05-.89-3.11-6.4-.2,3.5-9.17.44-19.09,1.52-.21,1.27.42,1.33.44Z"/>
                    <path class="cls-47"
                          d="M182.72,298.59c3.06,9.92-6.84,18.89-.44,19.09-.18.84.06,2.65,0,4-5.87,0-9.91-7.6-7.99-12.88.13-.35,2.34-3.07,2.66-3.77.48-1.07.61-4.31.89-4.88.9-1.84,3.87-4.85,4.88-1.55Z"/>
                    <path class="cls-12"
                          d="M183.16,320.79c.1,1.51.4,2.1.44,2.66.11,1.43.37,3.08.44,4.44.61,11.43-1.1,11.13-1.78-.44-.08-1.31-.01-2.68,0-4,0-.59-.03-1.19,0-1.78.06-1.35-.18-3.16,0-4,1.03-4.94.78,1.48.89,3.11Z"/>
                </g>
                <g>
                    <path class="cls-47"
                          d="M243.55,286.16c1.25,2.04,2.55,2.69,2.66,2.89.47.81-2.61,2.51,5.11,3.77,4.53,3.41-9.01,7.21,3.33,6.22.05.11,1.82.77,1.78,1.55-.14,2.42-4.06-1.46-1.33,4.22,1.26,2.62,3.62,4.91,3.11,5.99-1.04,2.22-5.87-2.01,0,4.88-7.36.34,2.92,4.75-9.33,2-2.28-.51-4.12-1.82-6.44-2.22-.71.42-.35,1.15-.67,2.22-3.84-.03-7.55.3-10.88,2.22-2.09-6.84,4.9-13.08,1.78-12.43-.55.11-6.6,5.71-2.89-1.55.73-1.42,3.98-3.29,4-3.55.05-.71-3.22-.74-3.11-2.22.1-1.33,6.42-2.1,7.1-4-12.17.73-1.59-5.61,2.66-8.22,1.02-.63,2.05-1.21,3.11-1.78Z"/>
                    <path class="cls-15"
                          d="M248.88,317.69c-1.54-.35-1.07,3.96,0,6.66-.15,0-.3,0-.44,0-2.69.03-5.33-.12-7.99.44l-.44-.44c.98-2.07,1.14-4.54,1.78-6.66.32-1.07-.04-1.8.67-2.22,2.32.4,4.16,1.71,6.44,2.22Z"/>
                    <path class="cls-15"
                          d="M248.44,324.35c.28,2.29,2.09,2.92-.44,4-.28.12-5.71.98-5.99.89-.41-.13-1.31-1.7-1.55-2.22-.16-.33.1-1.55,0-2.22,2.66-.56,5.3-.41,7.99-.44Z"/>
                    <path class="cls-36"
                          d="M254.65,299.04c-12.34,1,1.2-2.8-3.33-6.22-7.72-1.26-4.64-2.96-5.11-3.77-.12-.2-1.42-.85-2.66-2.89.13-.07,1.94-1.83,2.44-1.78.95.11,3.18,4.22,3.55,4.44.36.21,7.16,1.07,7.77,2.89,1.72,5.16-6.44-.59-2.66,7.33Z"/>
                </g>
                <g>
                    <path class="cls-24"
                          d="M57.93,328.79c-.72,1.07-4.03,2.31-5.33,2.66-.11.03-.68-1.02-2.22-.22.47,5.6-.87,5.68-.89,5.99-7.61-.39-13.01.43-10.21-8.88.63-2.11,2.32-4.12,3.11-6.22,1.51-4,4.15-13.25,7.1-15.54,3,4.52,1.16,22.4,2.22,23.76l6.22-1.55Z"/>
                    <path class="cls-47"
                          d="M59.71,322.13c0,.15,0,.3,0,.44,0,.34-1.84,4.81-1.78,6.22l-6.22,1.55c-1.06-1.35.78-19.24-2.22-23.76.3-.23,1.09-1.49,2-1.33,3.38.59,6.97,13.49,7.33,16.65.04.37.89.18.89.22Z"/>
                    <path class="cls-12"
                          d="M52.61,331.45c-.64-.03-.43.63-.44,1.33-.08,4.02.13,7.99.44,11.99-4.23-.18-2.5-.46-2.66-.44.45-2.31-.47-6.75-.44-7.1.02-.31,1.36-.39.89-5.99,1.54-.8,2.11.25,2.22.22Z"/>
                    <path class="cls-47"
                          d="M61.04,324.79c-.85,2.43,1.75,8.49,4,9.1.57,2.19-11.56-.57-12.88-1.11.01-.7-.19-1.36.44-1.33,1.3-.36,4.61-1.59,5.33-2.66-.07-1.4,1.79-5.88,1.78-6.22.33.8.82,1.54,1.33,2.22Z"/>
                </g>
                <g>
                    <path class="cls-12"
                          d="M350.13,368.31c.01.1.68-.27.44,2-2.5.19-2.09,10.63-1.78,13.1.04.29-.06.66,0,.89-.24.07-.83.39-.89.44-.58-1.47-.41-2.91-.44-4.44-.07-2.88.05-5.78,0-8.66-.34-.48-2.02-.11-2.66-.22-2.33-.41-1.18.45-1.33.44-30.01-1.57-60.19.82-90.14,0-.6-.02-1.08.01-1.33,0-.11,0,.55-.54-2-.89-.35-.05-.18.9-.22.89-.07-.01-1.27-.4-1.33-.44-1.14-.77-1.6-.1-1.33-3.11h103.02Z"/>
                    <path class="cls-34"
                          d="M251.99,371.86l.44,11.99c-.89,0-1.79,0-2.66,0v-11.99s-.13-.94.22-.89c2.54.35,1.89.88,2,.89Z"/>
                    <path class="cls-34"
                          d="M347.46,380.3h-2.66c.19-2.93-.14-5.94,0-8.88.64.11,2.32-.26,2.66.22.05,2.88-.07,5.78,0,8.66Z"/>
                    <path class="cls-3"
                          d="M249.77,371.86v11.99c-1.73,0-1.26-.44-1.33-.44v-11.99c.06.04,1.26.43,1.33.44Z"/>
                    <path class="cls-26"
                          d="M344.8,371.42c-.14,2.94.19,5.95,0,8.88-.35,5.26-.89,5.72-1.33.44-.12-1.46.09-2.98,0-4.44v-4.44c.15,0-1-.85,1.33-.44Z"/>
                    <path class="cls-3"
                          d="M253.32,371.86c-.32,2.61.45,4.35.44,4.88,0,2.11-1.24,4.51,0,6.66-.35,0-.39.45-1.33.44l-.44-11.99c.25.01.73-.02,1.33,0Z"/>
                    <path class="cls-4"
                          d="M345.69,364.31c3.29.69,3.89.14,4.44,4h-103.02c.02-.22,1.07-.86,1.11-4,1.28.2,2.54.03,3.77,0,.95-.02,2.11,0,3.11,0,28.71-.21,57.63.25,86.37.44.36,0,.18-.89.22-.89.58,0,3.4.32,4,.44Z"/>
                    <path class="cls-4" d="M252.43,345.66c.66.83-.03,1.87-.44,3.55-5.83.34-5.86-4.7.44-3.55Z"/>
                    <path class="cls-4"
                          d="M341.25,356.76c.16,0-.18.8,3.11.22.21.96-1.79.66-2.22,1.33-.13.21.46,2.13,2.22,2.66-2.52-.35-2.53.65-2.66.67-11.38,1.58-71.66-1.74-86.59.44-.71-1.91.28-2.06,0-4.88,28.69.57,57.48-.57,86.15-.44Z"/>
                    <path class="cls-4"
                          d="M341.69,351.43c.2.04,2.05.59,1.78,1.11-2.06.31-.28.56-1.78,3.33h-86.59c-.01-.07-1.55.37-1.33-.67,1.65-1.19,1.19-3.29,1.33-3.77,14.08.72,82.11-.96,86.59,0Z"/>
                    <path class="cls-34"
                          d="M341.69,351.43c-4.48-.96-72.51.72-86.59,0,.23-.79-.58-2.34,1.55-2.22,12.14,1.75,80.09-.83,84.82.44.27.07.75,1.31.22,1.78Z"/>
                    <path class="cls-14"
                          d="M255.1,362.09c14.93-2.19,75.21,1.13,86.59-.44v1.78h-86.59c-4.39-2.01-1.33-1.14,0-1.33Z"/>
                    <path class="cls-14"
                          d="M341.69,355.88c-.11.2.26.92-.44.89-28.67-.12-57.45,1.02-86.15.44-.04-.43.07-.91,0-1.33h86.59Z"/>
                    <path class="cls-33"
                          d="M341.69,363.42v.44s.14.89-.22.89c-28.74-.19-57.66-.65-86.37-.44v-.89h86.59Z"/>
                    <g>
                        <path class="cls-25"
                              d="M350.13,345.66c1.03,5.82-1.76,2.69-4.66,3.55-.18.05.47.93-2.44,2,2.23.59,7.1-.98,7.55,2,.5,3.3-1.83,2.08-7.1,2.44,3.59,3.69,5.82.45,6.66,2.22,2.58,5.46-6.39,3.65-7.1,4.44-1.4,1.56,3.65-.34,2.66,2-.6-.13-3.41-.44-4-.44v-2.22c.14-.02.14-1.01,2.66-.67-1.76-.54-2.35-2.46-2.22-2.66.43-.67,2.43-.37,2.22-1.33-3.29.58-2.95-.22-3.11-.22.7.04.33-.68.44-.89,1.5-2.77-.28-3.02,1.78-3.33.27-.52-1.58-1.07-1.78-1.11.53-.47.05-1.7-.22-1.78-4.72-1.28-72.67,1.3-84.82-.44-2.13-.12-1.32,1.43-1.55,2.22-.14.49.32,2.58-1.33,3.77-.22,1.03,1.32.59,1.33.67.07.42-.04.9,0,1.33.28,2.82-.71,2.97,0,4.88-1.33.19-4.39-.67,0,1.33v.89c-.99,0-2.16-.02-3.11,0,.96-4.58-3.65-1.76-4.44-2.89-.12-.16-.12-3.83,0-4,.44-.62,3.39.07,4.22-.22,2.76-.97.12-1.86-4.88-1.33.68-.83.43-1.85.67-2.66.16-.56-.29-1.86.22-2.22.38-.27,3.96.28,4.44,0,.89-.51-.24-1.69-.22-1.78.41-1.68,1.1-2.72.44-3.55,32.55-.16,65.21.21,97.69,0Z"/>
                        <polygon class="cls-2"
                                 points="253.54 350.55 254.21 350.77 253.54 351.43 253.32 351.21 253.54 350.55"/>
                        <polygon class="cls-38"
                                 points="253.54 360.32 254.21 360.54 253.54 361.2 253.32 360.98 253.54 360.32"/>
                    </g>
                </g>
                <g>
                    <path class="cls-45"
                          d="M275.97,302.14c-.05.07-1.22-.5-.89,1.55l1.33-.67c.34.56.43.42.44.44.7,1.58.97,3.86,1.33,4.66,1.04,2.32,3.54,5.48,4,6.88,1.2,3.69-1.39,2.53-.44,8.88-2.47-.1-5.05.09-7.55,0,.31-2.66,1.87-2.58,4.66-3.11-.35-2.35-3.32.59-4.44,0-.39-.21-1.4-7.96-2,2.22-.97-3.77-12.12-.34-12.88-2.44,1.67-12.01,5.13-9.32,7.55-12.66,5.22-7.17-1.15-5.02-.89-7.33.03-.23,2.62-2.58,3.11-3.33,9-13.85,1.65-4.53,11.55,3.77-4.16.82-3.14-1.13-4.88,1.11Z"/>
                    <path class="cls-33" d="M275.97,302.14c.07.31.28.63.44.89l-1.33.67c-.33-2.05.83-1.48.89-1.55Z"/>
                    <path class="cls-12"
                          d="M274.19,323.9c-.44,3.82,2.38,8.57-1.78,7.1.04-2.36-.06-4.75,0-7.1,0-.29-.02-.6,0-.89.6-10.18,1.6-2.43,2-2.22,1.13.59,4.1-2.35,4.44,0-2.8.53-4.36.45-4.66,3.11Z"/>
                    <path class="cls-20" d="M265.53,316.8c.75-.51,4.23.95,3.77,1.55-3.74,1.05-5.05-.68-3.77-1.55Z"/>
                    <path class="cls-33" d="M276.64,309.69c.33-.02.34,1.34,0,1.33-.34,0-.34-1.31,0-1.33Z"/>
                </g>
                <g>
                    <path class="cls-36"
                          d="M71.7,302.59c.42,3.99-.44,8.07-.44,11.99-6.24,3.65-.22-4.67-.44-5.11-.42-.83-3.2,1.57-3.11-1.33.04-1.26,2.63-2.48,2.66-2.66.07-.46-4.71-2.17,1.33-2.89Z"/>
                    <path class="cls-36"
                          d="M85.91,299.04c-1.27.43-2.35,1.52-1.78,2.66.58,1.17.91.7,1.33.89.11.05.7-.07,1.78.89.03.14-.03.3,0,.44.16.86-.64,1.2.44,3.11-.47.35-1.83-.86-1.78,1.11,0,.3,4.03,3.93,4,4.44-.09,1.3-2.88-.42-3.55.44-.61.78,4.67,4.21-4.44,3.33-.88-.08-1.9-.72-3.55-.44-.26-7.84-.67-15.68-.89-23.54,5.47-3.39,4.15.78,5.99,2.22.69.54,7.02,1.85,7.55,2.22,4.01,2.76-4.31,1.95-5.11,2.22Z"/>
                    <path class="cls-44"
                          d="M87.24,303.48c-1.07-.96-1.67-.84-1.78-.89l-.67-1.78-.67.89c-.57-1.14.51-2.24,1.78-2.66.27,1.49,1.05,2.98,1.33,4.44Z"/>
                    <path class="cls-22" d="M85.47,302.59c-.43-.19-.75.28-1.33-.89l.67-.89.67,1.78Z"/>
                </g>
            </g>
        </g>
    </g>
</svg>