<?xml version="1.0" encoding="UTF-8"?>
<svg xmlns="http://www.w3.org/2000/svg" version="1.1" xmlns:xlink="http://www.w3.org/1999/xlink" viewBox="0 0 398 512">
    <defs>
        <style>
            .cls-1 {
            fill: #788aa2;
            }

            .cls-2 {
            fill: #93b393;
            }

            .cls-3 {
            fill: url(#Nameless_Gradient_185);
            }

            .cls-4 {
            fill: #185b48;
            }

            .cls-5 {
            fill: #4b5453;
            }

            .cls-6 {
            fill: #699ea4;
            }

            .cls-7 {
            fill: #7f7f7a;
            }

            .cls-8 {
            fill: #9c8b7c;
            }

            .cls-9 {
            fill: #dd5758;
            }

            .cls-10 {
            fill: #8a6b61;
            }

            .cls-11 {
            fill: #c4dfe6;
            }

            .cls-12 {
            fill: #77a399;
            }

            .cls-13 {
            fill: #e6d1cb;
            }

            .cls-14 {
            fill: #7daec0;
            }

            .cls-15 {
            fill: #83a37d;
            }

            .cls-16 {
            fill: #efeae4;
            }

            .cls-17 {
            fill: #cc3634;
            }

            .cls-18 {
            fill: #f9fbfc;
            }

            .cls-19 {
            fill: #e1726a;
            }

            .cls-20 {
            fill: #887f71;
            }

            .cls-21 {
            fill: url(#Nameless_Gradient_210);
            }

            .cls-22 {
            fill: #a3a09e;
            }

            .cls-23 {
            fill: #8eb6ad;
            }

            .cls-24 {
            fill: #801a20;
            }

            .cls-25 {
            fill: #58886b;
            }

            .cls-26 {
            fill: #d89664;
            }

            .cls-27 {
            fill: #44857c;
            }

            .cls-28 {
            fill: #c4d9d4;
            }

            .cls-29 {
            fill: #dff0f6;
            }

            .cls-30 {
            fill: #becdd0;
            }

            .cls-31 {
            fill: #6b9575;
            }

            .cls-32 {
            fill: #cfd9b1;
            }

            .cls-33 {
            fill: #dbe6dd;
            }

            .cls-34 {
            fill: #ba454a;
            }

            .cls-35 {
            fill: url(#Nameless_Gradient_224);
            }

            .cls-36 {
            fill: #d89271;
            }

            .cls-37 {
            fill: #b6bcbf;
            }

            .cls-38 {
            fill: #315970;
            }

            .cls-39 {
            fill: #e4a099;
            }

            .cls-40 {
            fill: #745a67;
            }

            .cls-41 {
            fill: #a7b8a4;
            }

            .cls-42 {
            fill: url(#Nameless_Gradient_185-2);
            }

            .cls-43 {
            fill: #3a302c;
            }

            .cls-44 {
            fill: #e5bdb6;
            }

            .cls-45 {
            fill: url(#Nameless_Gradient_228);
            }

            .cls-46 {
            fill: #a2cbd7;
            }

            .cls-47 {
            fill: #608e9f;
            }

            .cls-48 {
            fill: #996d5b;
            }

            .cls-49 {
            fill: #5e5e5d;
            }

            .cls-50 {
            fill: #7d5b44;
            }

            .cls-51 {
            fill: #dfdcc9;
            }

            .cls-52 {
            fill: #3b6981;
            }

            .cls-53 {
            fill: #8b9da0;
            }

            .cls-54 {
            fill: #5a9f9a;
            }

            .cls-55 {
            fill: #917462;
            }

            .cls-56 {
            fill: #619684;
            }

            .cls-57 {
            fill: url(#Nameless_Gradient_225);
            }

            .cls-58 {
            fill: #d9cfa2;
            }

            .cls-59 {
            fill: #347564;
            }

            .cls-60 {
            fill: #25241e;
            }

            .cls-61 {
            fill: #b2c69e;
            }

            .cls-62 {
            fill: #8e4331;
            }

            .cls-63 {
            fill: url(#Nameless_Gradient_226);
            }

            .cls-64 {
            fill: #a4cccc;
            }
        </style>
        <linearGradient id="Nameless_Gradient_185" data-name="Nameless Gradient 185" x1="201.2" y1="223.27" x2="197.11"
                        y2="507.44" gradientTransform="translate(0 -392.78) scale(1 1.77)"
                        gradientUnits="userSpaceOnUse">
            <stop offset="0" stop-color="#7fbcc4"/>
            <stop offset="1" stop-color="#c5ddcc"/>
        </linearGradient>
        <linearGradient id="Nameless_Gradient_185-2" data-name="Nameless Gradient 185" x1="201.05" y1="1.26" x2="196.96"
                        y2="285.42" gradientTransform="matrix(1,0,0,1,0,0)" xlink:href="#Nameless_Gradient_185"/>
        <linearGradient id="Nameless_Gradient_210" data-name="Nameless Gradient 210" x1="240.2" y1="438.55" x2="81.85"
                        y2="578.73" gradientUnits="userSpaceOnUse">
            <stop offset=".22" stop-color="#f7fafc"/>
            <stop offset="1" stop-color="#d4e8ed"/>
        </linearGradient>
        <linearGradient id="Nameless_Gradient_224" data-name="Nameless Gradient 224" x1="386.26" y1="430.86" x2="332.29"
                        y2="498.4" gradientUnits="userSpaceOnUse">
            <stop offset="0" stop-color="#508b78"/>
            <stop offset="1" stop-color="#236557"/>
        </linearGradient>
        <linearGradient id="Nameless_Gradient_228" data-name="Nameless Gradient 228" x1="305.16" y1="323.24" x2="304.69"
                        y2="408.81" gradientUnits="userSpaceOnUse">
            <stop offset="0" stop-color="#e6f2f5"/>
            <stop offset="1" stop-color="#97c3cc"/>
        </linearGradient>
        <linearGradient id="Nameless_Gradient_225" data-name="Nameless Gradient 225" x1="60.23" y1="398.64" x2="17.25"
                        y2="447.05" gradientUnits="userSpaceOnUse">
            <stop offset="0" stop-color="#4c8673"/>
            <stop offset="1" stop-color="#2f7061"/>
        </linearGradient>
        <linearGradient id="Nameless_Gradient_226" data-name="Nameless Gradient 226" x1="15.89" y1="353.04" x2="51.23"
                        y2="376.76" gradientUnits="userSpaceOnUse">
            <stop offset="0" stop-color="#417d69"/>
            <stop offset="1" stop-color="#5b8f77"/>
        </linearGradient>
    </defs>
    <!-- Generator: Adobe Illustrator 28.7.1, SVG Export Plug-In . SVG Version: 1.2.0 Build 142)  -->
    <g>
        <g id="Layer_1">
            <g id="Background">
                <rect class="cls-3" x=".48" y=".58" width="397.31" height="510.83"/>
                <path class="cls-42"
                      d="M.51,108.32c.03-35.9-.03-71.83,0-107.74h397.25c-.02,89.4.03,178.83,0,268.23-7.11-5.09-24.83-26.71-30.59-29.7l-34.36-34.14c-.82-.16-1.04.86-1.11.89-2.6,1.15-40.39,29.78-42.78,32.37-1.49,1.6-5.27,6.95-5.1,8.87-8.72,5.98-20.75,11.75-29.7,19.51-3.78-4.35-18.88-22.82-21.28-24.38-11.98-16.8-23.3-34.53-36.36-50.54-.79-.97-1.14-4.27-3.33-3.55-1.28.43-.07,1.8-.22,2-2.39,3.08-45.29,48.54-53.2,56.97-2.69,2.87-6.02,5.25-8.42,8.42-.31-.31-5.55-3.7-7.09-5.32-6.72-7.35-11.68-15.94-17.29-24.16-.53-.48-1.22,1.02-1.33,1.11-1.49,1.17-23.17,25.44-25.27,28.15-1.62,2.09-2.55,3.47-3.55,5.99-.36-.62-1.84-3.64-2.44-3.55-1.6,1.86-2.39,4.22-3.77,6.21-6.1,8.8-6.44,11.26-17.73,13.74-6.87-13.51-10.82-34.59-12.64-35.03-1.17-.04-.96,1.93-1.11,2.22-1.36,2.67-5.55,17.91-11.08,31.04-2.94-.95-5.59,3.29-7.54,6.43-.07.12,2.32.5-.44,1.55-6.76.98-13.05,3.65-19.51,5.76-.02-49.8-.03-99.62,0-149.41l67.17.44c.4-.44.9-.74,1.11-1.33,1.38-3.93-3.65-8.89-7.54-9.09.21-14-14.29-23.16-24.16-10.86-3.28-12.75-15.76-15.95-24.38-6.21-1.18.27-3.6-8.4-12.19-4.88Z"/>
                <path class="cls-46"
                      d="M178.74,511.33c-59.4-.03-118.83.02-178.23,0-.04-5.31.06-10.65,0-15.96,37.76-2.6,75.43,1.91,112.83,6.21l65.4,9.75Z"/>
                <path class="cls-18"
                      d="M68.78,139.36l-23.28.44c-2.95-15.22-15.28-20.55-25.27-7.09-2.24.53-6.43-6.32-15.52-4.88-1.01.16-2.94,1.69-4.21,1.77,0-7.09,0-14.19,0-21.28,8.59-3.53,11.01,5.14,12.19,4.88,8.62-9.74,21.1-6.54,24.38,6.21,9.87-12.29,24.37-3.14,24.16,10.86,3.88.2,8.92,5.16,7.54,9.09Z"/>
                <path class="cls-29"
                      d="M68.78,139.36c-.21.59-.71.89-1.11,1.33l-67.17-.44c0-3.54,0-7.1,0-10.64,1.27-.08,3.2-1.61,4.21-1.77,9.09-1.44,13.28,5.4,15.52,4.88,9.99-13.45,22.32-8.13,25.27,7.09l23.28-.44Z"/>
                <path class="cls-29"
                      d="M6.27,358.82c-1.67,3.24-2.97,8.3-5.76,10.64,0-3.1,0-6.21,0-9.31,1.85-.63,3.91-.79,5.76-1.33Z"/>
                <path class="cls-18" d="M5.83,349.51l-5.32,3.99c0-.88,0-1.78,0-2.66,1.86.13,3.66-.65,5.32-1.33Z"/>
                <path class="cls-18"
                      d="M268.74,134.92c-.62,3.88-5.03-.62-12.64,4.88-3.56,2.57-8.27,10.47-7.09,11.08h40.35c-.4-3.87-3.62-9.19-6.65-11.53-7.4-5.7-14.09-1.19-13.52-4.43,6.73-13.27,22.92-4.16,26.38,9.31,6.76-6.02,14.67,2.04,15.52,2.22.7.15,7.1-2.67,7.98,4.88-13.36-1.31-102.27,1.89-107.29,0-2.77-1.04.22-5.8,1.77-6.65,3.27-1.79,6.02-.06,6.43-1.11-1.72-8.86,6.28-19.27,13.52-9.98,11.73-28.17,36.65-7.46,35.25,1.33Z"/>
                <path class="cls-18"
                      d="M351.42,167.29c7.52-.62,14.78,6.54,14.41,13.97,8.63.5,8.9,9.28,7.32,9.98-10.84-1.24-79.36,1.21-83.35,0-3.14-.95-1.56-7.77,5.76-4.43,3.17-2.15,5.69-6.53,9.31-6.65,4.74-11.42,13.46-15.66,19.95-2.66,2.87-9.52,9.74-13.81,16.85-4.88,1.94-2.21,6.97-5.09,9.75-5.32Z"/>
                <path class="cls-18"
                      d="M117.55,71.97c-.3-5.04-5.81-10.96-9.31-4.21l-.44-7.76c6.83-9.88,11.45-3.6,12.19-3.55,1.05.08.39-3.89,7.09-1.33,7.86-15.64,27.93-14.31,29.7,4.88,4.32-10.12,14.95-4.23,16.85,4.43,4.71-.79,9.49,2.56,8.42,7.54-21.5-.06-43.01.09-64.51,0Z"/>
                <path class="cls-18"
                      d="M337.02,83.49c1.18-12.66-15.89-12.38-21.06-3.55-2.07-4.65-9.51-8.88-13.3-5.32-4.99-2.87-10.61,3.21-11.97,7.98-4.27-6.3-10.69-8.29-6.21-.89-4.27-3.51-4.41-3.63-9.98-2.22,1.53-2.81,4.44-3.28,7.32-2.22,2.26-10.19,11.3-15.16,19.06-6.65,4.42-14.75,24.47-15.15,28.82,0,.49.24,3.42-1.6,7.09,1.77,11.32-11.25,19.39,6.82,18.4,9.98-.97,3.11-14.83,1.06-18.18,1.11Z"/>
                <path class="cls-18"
                      d="M75.88,188.57c-.1.02-1.43,1.29-1.55,1.33-.34.11-2.03-2.33-5.54,2.66-1.39.02-1.51-.45-1.77-.44-3.07-8.83-17.97-6.11-20.84.89-1.71.02-1.26-.44-1.33-.44-3.22-5.22-6.14-6.02-11.97-5.32,1.05-8.36,8.72-9.1,15.74-6.65-2.28-10.89,22.06-12.56,20.84,1.77,5.04-4.83,6.1,2.01,6.43,6.21Z"/>
                <path class="cls-29"
                      d="M337.02,83.49c-7.83.1-58.92,1.43-61.85.44-2.01-.68-1.39-3.09-.67-4.43,5.56-1.41,5.71-1.29,9.98,2.22-4.49-7.41,1.94-5.41,6.21.89,1.36-4.77,6.98-10.85,11.97-7.98,3.79-3.56,11.23.67,13.3,5.32,5.17-8.83,22.24-9.11,21.06,3.55Z"/>
                <path class="cls-29"
                      d="M268.74,134.92h.44c-.57,3.25,6.13-1.27,13.52,4.43,3.03,2.34,6.25,7.66,6.65,11.53h-40.35c-1.18-.62,3.54-8.51,7.09-11.08,7.6-5.5,12.02-1,12.64-4.88Z"/>
                <path class="cls-29"
                      d="M107.8,59.99l.44,7.76c3.5-6.74,9.01-.83,9.31,4.21-3.13-.01-21.84,1-22.83.44-.28-.16-.59-.54-.67-.89,8.91-3.73,15.64-.97,10.42-4.43-.82-.54-3.19-1.32-4.21-1.33-.42-3.92,3.74-7.54,7.54-5.76Z"/>
                <path class="cls-29" d="M67.01,192.12c-6.93.17-13.88.79-20.84.89,2.87-6.99,17.77-9.72,20.84-.89Z"/>
                <path class="cls-29"
                      d="M44.84,192.56c-6.08.08-12.3.91-18.4.89-1.38-2.38,5.14-3.53,6.43-6.21,5.83-.7,8.75.1,11.97,5.32Z"/>
                <path class="cls-18"
                      d="M68.78,192.56c3.51-4.99,5.2-2.55,5.54-2.66.12-.04,1.45-1.31,1.55-1.33,8.53-1.93,8.1,3.43,7.32,3.99-.59.42-12.45-.03-14.41,0Z"/>
                <path class="cls-18"
                      d="M100.26,65.76c1.02.01,3.39.79,4.21,1.33,5.23,3.47-1.51.71-10.42,4.43-.49-2.18,2.6-5.8,6.21-5.76Z"/>
                <path class="cls-64" d="M230.83,88.81c3.4-.25,3.55,4.59.44,5.32-5.79,1.36-3.77-5.07-.44-5.32Z"/>
                <path class="cls-46" d="M335.02,32.51c3.35-1.3,7.16,4.32,2.66,4.88-3.17.39-5.25-3.87-2.66-4.88Z"/>
                <path class="cls-18" d="M144.38,216.5c1.75-.16,3.98,3.74,1.77,4.43-3.13.99-4.99-4.14-1.77-4.43Z"/>
                <path class="cls-18" d="M63.69,230.69c3.12-.49,2.32,5.3-.44,4.88-2.15-.33-1.51-4.57.44-4.88Z"/>
                <path class="cls-18" d="M176.74,123.84c4.66-.95,1.42,4.84-.44,4.43-1.72-.37-1.8-3.98.44-4.43Z"/>
                <path class="cls-18"
                      d="M237.92,185.91c2.38-1.07,4.96,2.28,2.66,3.55-2.87,1.59-4.39-2.77-2.66-3.55Z"/>
                <path class="cls-18" d="M263.64,236.89c2.58-.53,3.12,2.57,1.33,3.1-2.41.72-3.85-2.59-1.33-3.1Z"/>
                <path class="cls-18" d="M119.11,147.78c3.36-1.05,2.7,2.74,0,2.22-1.72-.34-.91-1.93,0-2.22Z"/>
                <path class="cls-18" d="M177.63,92.8c3.17-.82,1.99,3.24-.44,2.22-1.05-.44-.91-1.87.44-2.22Z"/>
                <path class="cls-46" d="M282.7,32.51c1.58-.24,1.66,2.4.44,2.66-1.41.31-2.02-2.42-.44-2.66Z"/>
                <path class="cls-18" d="M312.85,9.9c1.45-.05,1.46,2.3.44,2.66-1.36.48-1.99-2.61-.44-2.66Z"/>
                <path class="cls-18" d="M77.43,77.29c1.43-.54,2.22,1.72.89,2.22-1.43.54-2.22-1.72-.89-2.22Z"/>
                <path class="cls-18" d="M224.18,83.05c.9.12.9,2.54,0,2.66-1.17.15-1.16-2.82,0-2.66Z"/>
                <path class="cls-18" d="M173.19,198.32c2.7-.71,1.57,2.4-.44,1.33-.58-.31.09-1.24.44-1.33Z"/>
                <path class="cls-18" d="M250.34,223.15c1.87-.32,1.87,1.65,0,1.33-.69-.12-.69-1.21,0-1.33Z"/>
                <path class="cls-18" d="M88.96,126.94c1.31-.06.47,1.77,0,1.77-.73,0-.8-1.74,0-1.77Z"/>
                <path class="cls-18" d="M175.41,8.12c1.37-.7,1.27,1.29.44,1.33-.97.04-.84-1.13-.44-1.33Z"/>
                <path class="cls-18" d="M117.33,31.18c1.86-.59.69,1.46-.44.89-.43-.21.28-.84.44-.89Z"/>
                <path class="cls-18" d="M380.69,100.78c.67-.24.98.65.44.89-.65.29-.98-.69-.44-.89Z"/>
                <path class="cls-49"
                      d="M111.79,439.51c-.16,1.81.31,6.22,1.33,7.54-.28,0-3.52.88-3.77.89-3.95.12-6.36-.49-7.76-.44.07-1.02-.11-2.09,0-3.1.68-6.34.85-7.07,10.2-4.88Z"/>
                <path class="cls-18" d="M88.96,503.35c2.41-.78,4.66,2.6,2.22,3.55-3.64,1.4-4.32-2.86-2.22-3.55Z"/>
                <path class="cls-62"
                      d="M94.5,463.89c-.69.97,1.19,6.05-.89,5.32-.75-2.31.41-.87-1.33-3.1-2.22-2.85-7.76-6.05-11.53-5.99,5.88-4.13,4.81,3.25,5.99-3.77-.34,4.39,3.99,6.85,7.76,7.54Z"/>
                <path class="cls-29"
                      d="M157.23,62.65c5.13-.4,8.02,4.1,7.54,8.87l-14.41-.22c1.44-3.09,2.88-8.34,6.87-8.65Z"/>
                <path class="cls-5"
                      d="M101.15,451.92c1.13.41,10.97.73,11.97.44.86-.08.41.85.44.89-4.51,1.31-9.2.75-13.74,0,.52-.76.31-1.57,1.33-1.33Z"/>
            </g>
            <g>
                <path class="cls-46"
                      d="M397.76,493.15c-.05,6.05.04,12.13,0,18.18-7.68.04-15.38-.06-23.05,0v-24.83c2.99,1.98,5.9,4.55,9.09,6.21,11.89,6.2,4.05.62,1.55-6.43-.22-.61-1.25-3.94-.67-4.21,2.48,5.41,7.59,9.03,13.08,11.08Z"/>
                <path class="cls-29"
                      d="M18.24,303.84c1.52-.14,2.96.39,4.43,0-.61.55-1.16,1.67-1.77,2.22-2.67,2.39-6.19,4.63-9.31,6.43l5.76.67c-5.81,4.95-14.56,5.63-14.63,6.43,2.55,2.26,6.05,2.31,9.31,2,2.07-.2,3.54-2.08,3.99-1.11l-8.42,7.54c3.4.43,6.54.2,9.75-.89-4.79,6.09-9.83,12.55-16.85,16.18,0-11.67,0-23.36,0-35.03,5.71-1.6,11.79-3.9,17.73-4.43Z"/>
                <path class="cls-46"
                      d="M33.76,439.07c-.51,1.88-.44,11.84-.44,15.07l-32.81,1.77c0-3.98,0-7.99,0-11.97,5.21-1.89,9.21-5.93,13.08-9.75l-11.53,14.19c18.47-3.04,27.4-20.45,16.4-1.33l15.3-7.98Z"/>
                <path class="cls-11"
                      d="M397.76,288.77c0,10.93,0,21.88,0,32.81-5.11-1.81-8.9-7.21-12.41-9.75-1.03-3.03,1.11-1.88.89-3.77-.09-.73-3.18-3.98-6.65-13.08l18.18-6.21Z"/>
                <path class="cls-29"
                      d="M33.32,454.14v8.87c-4.47.08-27.31,1.45-29.48,2.22-.35.12-.22.6-.22.89H.51c-.01-3.39,0-6.8,0-10.2l32.81-1.77Z"/>
                <path class="cls-46"
                      d="M324.6,413.79c-.44.55-.92.87-1.33,1.33-30.87-1.25-102.03,4.22-128.8,15.07-5.35,2.17-16.3,9-20.62,13.3-1.74-.17-3.6.3-5.32-.22,25.23-26.22,93.66-28.42,129.46-30.37,8.82.64,17.79-.05,26.6.89Z"/>
                <path class="cls-31"
                      d="M265.63,495.37c0,3.42.42,7.42-.67,8.42-3.63-.23-7.25-.62-10.86-.89-.04-2.36.05-4.74,0-7.09l6.65-3.1c.37.59,4.61,3.25,4.88,2.66Z"/>
                <path class="cls-31"
                      d="M251.45,495.81v6.65c-2.7-.24-5.3-.59-7.98-.89v-4.88c.08-2.35-.11-4.75,0-7.09,2.53.28,5.18,4.5,7.98,6.21Z"/>
                <path class="cls-1"
                      d="M231.05,491.38c2.03,1.14,3.15-.11,5.76.89-1.45,3.75,1.64-.47,2.22.67.32.63-.59,3.07,2.22,3.77l-5.76,3.99c-.57-.07-1.2.08-1.77,0,.45-.74.57-3.77-.22-3.99-2.56-.7,2.5,5.18-5.99.44,0-.09-.73.19-.44-1.77,4.72,1.39,4.61-1.71.44-2.22,1.27-2.17,2.48-.66,3.1-2.22.17.15.42.43.44.44Z"/>
                <path class="cls-29"
                      d="M113.56,447.05c1.41,1.86,2.4,4.5-.44,5.32-1,.29-10.84-.03-11.97-.44-1.58-.57-5.87-4.22.44-4.43,1.4-.05,3.81.57,7.76.44.25,0,3.49-.89,3.77-.89.15,0,.3,0,.44,0Z"/>
                <path class="cls-15"
                      d="M263.42,486.95c.24,1.67-.45,1.22-.89,2.66-1.05,3.43.02,1.56.89,2.22.68.51,1.42,1,2.22,1.33.05.73,0,1.49,0,2.22-.27.59-4.5-2.07-4.88-2.66-2-3.17,2.22-5.62-7.09-6.21-.9-4.76-1.86-1.91-2.22,4.88-1.93.16-.2-5.03-1.11-5.76-.6-.48-5.01,2.41-5.99.89,1.04-.94,3.75-1.34,2.66-2.66,7.19,1.27,10.5,1.71,10.64-4.43l-.44,5.1c.27.83,4.38,1.3,6.21,2.44Z"/>
                <path class="cls-58"
                      d="M257.65,479.41c-.14,6.14-3.45,5.71-10.64,4.43l.22-4.88c5.35,1.59,9.98-.91,10.42.44Z"/>
                <path class="cls-26"
                      d="M253.66,486.5c.35,1.88.39,6.93.44,9.31.05,2.36-.04,4.74,0,7.09-2.13-.16-2.53-.43-2.66-.44v-6.65c.05-1.47-.08-2.97,0-4.43.36-6.78,1.32-9.64,2.22-4.88Z"/>
                <path class="cls-15"
                      d="M251.45,491.38c-.08,1.47.05,2.97,0,4.43-2.8-1.71-5.45-5.92-7.98-6.21.04-.9-1.69-.77.89-3.1.98,1.52,5.39-1.36,5.99-.89.91.73-.82,5.92,1.11,5.76Z"/>
                <path class="cls-31"
                      d="M243.47,496.7v4.88c-2.67-.3-5.31-.55-7.98-.89l5.76-3.99c.58.14,1.52-.1,2.22,0Z"/>
                <path class="cls-40"
                      d="M233.71,500.69c-2.19-.29-4.46-1.02-6.65-1.33.07-.87.5-1.17.44-2.22,8.48,4.74,3.43-1.14,5.99-.44.79.22.67,3.25.22,3.99Z"/>
                <path class="cls-2"
                      d="M265.63,493.15c-.8-.33-1.54-.82-2.22-1.33-.04-1.37.38-2.46-.89-2.22.44-1.44,1.13-.99.89-2.66.78.49,1.64.67,2.22,1.55.07,1.54-.1,3.12,0,4.66Z"/>
                <g>
                    <path class="cls-21"
                          d="M168.54,378.77c.39,4.57-.6,28.14,0,29.48,14.15,3.54,6.2-4.69,10.2-4.88-1.68,7.44,4.71,6.49,5.32,4.21,1.09.71,2.35.42,3.55.44.06,1.89-4.39-.36-2.66,3.1-.44-.02-.9.04-1.33,0-.05,0,.15-.85-.22-.89-5.14-.48-8.04,1.61.22,2.22,3.44.25,6.95-.17,10.42,0,1.24-.73.2-1.26.22-1.33.64-2.42-.09-2.3,0-3.1.58-4.94,2.55-14.76.44-14.85,2.54-9.76-.24-5.9-.67-5.99-.23-.05-.69-.87-.89-.89-2.8-.29-5.85.13-8.65.22.42,4.19-.22,8.18-.44,12.19.2-2.58-5.54-.6-6.21-1.55-.32-.45.24-9.43,0-11.08l17.96-.67.22,22.83c8.79,3.09,3.47-5.37,6.43-4.66,2.72.66-4.61,7,9.31,5.32,1.41-5.63-.16-25.2.22-26.82.08-.36.87-.81,1.33-.67.12,3.25-.59,26.93.67,27.49,2.18-.35,15.31.46,15.96,0,.67-.47-.4-4.12.89-4.43,2.26-.55.16,3.72,1.77,4.43,1.22.54,25.38.53,26.6,0,.62-.27,1.05-7.2,2.44-3.77,1.46,3.6-4.97,4.12,13.52,3.77,1.74-.77-.1-23.86.67-27.27.03-.14.61-.69.89-.67.02.14-.01.3,0,.44.66,7.68-.49,19.01,0,27.27,21.56,1.47,13.93-1.59,15.52-3.99,2.09-3.16,1.62,3.74,1.77,3.99.22.37,2.18.06,2.22.89.02.53-6.82,2.7,1.77,3.33-35.8,1.95-104.23,4.15-129.46,30.37,1.72.52,3.58.05,5.32.22,34.71,3.39,46.55,13,72.93,23.94,21.96,9.11,44.67,10.28,53.2,37.69,17.57,1.56,35.16,3.22,52.54,6.21-57.92.17-115.87.03-173.8,0l-65.4-9.75c-37.41-4.3-75.07-8.81-112.83-6.21-.06-5.61.02-11.24,0-16.85,29.59-1.78,59.29-.8,88.89-1.77,2.96-11.11,4.8,18.63,24.38,11.08,1.02-.39,5.87-4.52,6.43-5.32l.22,2.22c32.11,1.2,63.49,8.07,95.1,12.86,3.84.58,7.67,1.22,11.53,1.77,2.19.31,4.46,1.04,6.65,1.33.57.08,1.2-.07,1.77,0,2.67.34,5.31.59,7.98.89,2.68.3,5.28.65,7.98.89.13.01.53.29,2.66.44,3.62.27,7.24.66,10.86.89,1.09-1,.67-5.01.67-8.42,0-.73.05-1.49,0-2.22-.1-1.53.07-3.11,0-4.66-.58-.88-1.43-1.06-2.22-1.55-1.83-1.14-5.94-1.61-6.21-2.44l.44-5.1c-.44-1.35-5.06,1.15-10.42-.44l-.22,4.88c1.09,1.32-1.62,1.72-2.66,2.66-2.58,2.34-.84,2.2-.89,3.1-.11,2.35.08,4.74,0,7.09-.69-.1-1.64.14-2.22,0-2.81-.7-1.9-3.14-2.22-3.77-.57-1.13-3.67,3.09-2.22-.67.71-1.83,3.84-1.31-5.76-.89-.03-.02-.27-.29-.44-.44-1.94-1.76-14.76-25.08-39.68-32.81-2.27-.7-38.24-6.77-43.89-7.54-8.02-1.09-26.7-3.43-33.47-3.55-.15,0-.3,0-.44,0-1.02-1.32-1.49-5.73-1.33-7.54.52-5.84,11.84-19.16,17.07-22.17,7.02-4.04,16.44-4.77,24.38-4.43,1.44-.92-.26-8.04,1.33-8.42,2.78-.68-2.99,6.19,7.98,4.43,1.03-11.58,2.27,4.4,4.66-.67.62-1.31-.13-25.12,0-29.04.07-.01-.2-.65,1.33-.44Z"/>
                    <g>
                        <path class="cls-11"
                              d="M175.41,417.34c-9.1,8.41-21.72,13.07-30.15,22.61-1.36-2.51,6.61-9.34,9.75-11.53,5.06-3.52,14.87-7.32,20.39-11.08Z"/>
                        <path class="cls-13"
                              d="M232.6,410.25c1.25-.51,25.82-.57,27.04,0,.42.19-.01,1.26.67,1.55-3.51.08-26.46,1.25-27.71.67-.92-.43-.9-1.85,0-2.22Z"/>
                        <path class="cls-13"
                              d="M261.87,410.25c.63-.45,16.22-.76,13.97,2-.51.63-18.24,1.04-13.97-2Z"/>
                        <path class="cls-46"
                              d="M282.7,410.25c1.7-.11,11.67-.39,9.53,2.44-.46.61-17.04.33-13.52-2,.17-.11,3.43-.41,3.99-.44Z"/>
                        <path class="cls-44" d="M230.17,411.58c-1.89,1.23-16.87,1.85-16.4-.44l16.4.44Z"/>
                        <path class="cls-46" d="M162.55,410.25c5.79,2.45-11,3.3-6.65.44.28-.18,6.34-.57,6.65-.44Z"/>
                        <path class="cls-44"
                              d="M211.55,411.13c.43,2.14-7.68,1.52-8.2,1.33-.42-.15-.15-.96-.22-1.33h8.42Z"/>
                        <g>
                            <path class="cls-38"
                                  d="M179.85,392.07c4.25-1.9,4.44,3.8,3.55,4.43-3.35,2.38-6.04-3.32-3.55-4.43Z"/>
                            <path class="cls-39"
                                  d="M169.2,410.25c.35-.14,7.2-.16,7.54,0,6.5,3.03-14.24,2.74-7.54,0Z"/>
                            <path class="cls-38"
                                  d="M179.4,387.19c2.04-1.45,6.08,1.14,4.21,3.77-.22.31-4.04.34-4.21.22-.36-.26-.36-3.73,0-3.99Z"/>
                            <path class="cls-29"
                                  d="M184.94,411.13c3.08.15,6.22-.11,9.31,0-.02.07,1.02.6-.22,1.33-3.47-.17-6.98.25-10.42,0v-1.33c.43.04.89-.02,1.33,0Z"/>
                            <path class="cls-39" d="M230.17,411.58l-16.4-.44c.34-1.66,16.43-1.14,16.4.44Z"/>
                            <path class="cls-19"
                                  d="M196.69,410.25c.23-.16,5.51-.53,4.66,1.55-.73,1.78-7.39.39-4.66-1.55Z"/>
                            <path class="cls-39"
                                  d="M183.61,411.13v1.33c-8.26-.61-5.37-2.7-.22-2.22.37.03.18.88.22.89Z"/>
                            <path class="cls-39" d="M211.55,411.13h-8.42c-.28-1.37,8.13-1.45,8.42,0Z"/>
                        </g>
                        <path class="cls-39"
                              d="M236.82,492.27c-2.61-1-3.73.25-5.76-.89,9.61-.43,6.47-.95,5.76.89Z"/>
                        <path class="cls-11"
                              d="M166.54,410.25c1.72.52-.08,3.18-1.33,2.22-1.3-1,1.01-2.32,1.33-2.22Z"/>
                        <path class="cls-11"
                              d="M181.18,413.79c4.05-.68,3.72.89-1.77,1.33v-.89c1.42.24,1.68-.43,1.77-.44Z"/>
                    </g>
                </g>
                <g>
                    <path class="cls-46"
                          d="M323.27,415.12c-1.74,1.97-3.2,4.1-5.32,5.76-5.62,4.41-9.74,5.48-16.85,6.43,15.89,11.66,33.42-2.11,9.75,11.97l11.97.67c2.72-1.45-1.28,6.2-3.55,10.42-6.18,11.49-14.43,22.59-26.16,28.82.13,1.28,16.81,5.57,24.61-1.11-3.52,5.37-8.59,10-14.41,12.64,7.23,1.85,15.35-.7,21.5-4.66,3.15-2.02,8.01-8.38,2.88.22-2.14,3.59-5.29,6.63-7.76,9.98,8.45-2.52,15.06-5.36,21.5-11.53l.44.44c-3.17,4.29-6.28,8.53-10.2,12.19,8.96-2.16,18.51-5.78,23.72-13.97,2.51-.2-4.32,8.38-5.1,10.64-.01.04-.92.09-.22.89.79.13.63-.44.67-.44,5.5-.87,10.32-5.6,14.63-7.09v23.94c-4.28.02-8.58-.01-12.86,0-17.38-2.98-34.96-4.64-52.54-6.21-8.53-27.4-31.24-28.57-53.2-37.69-26.38-10.94-38.23-20.55-72.93-23.94,4.31-4.3,15.26-11.13,20.62-13.3,26.77-10.86,97.93-16.32,128.8-15.07Z"/>
                    <path class="cls-18"
                          d="M288.02,452.81c2.66-.16,4.35,3.6,2.22,4.43-4.31,1.69-6.33-4.18-2.22-4.43Z"/>
                    <path class="cls-4" d="M350.76,494.48s.12.58-.67.44c-.69-.79.21-.84.22-.89l.44.44Z"/>
                </g>
                <path class="cls-46"
                      d="M74.1,444.83l8.42-.89c4.47,1,7.16.48,11.53.44.38,0,3.44,1.12,7.54,0-.11,1.01.07,2.09,0,3.1-6.32.22-2.03,3.86-.44,4.43-1.02-.24-.81.57-1.33,1.33-.45.66-.71.28-.89.89l-55.86.44.44-15.52c.66-.25,6.18,4.25,7.32,4.88,16.74,9.25,2.47-1.48,2.22-9.31,3.52,9.64,23.29,14.67,24.16,13.52-1.16-.98-2.08-2.22-3.1-3.33Z"/>
                <path class="cls-29"
                      d="M98.93,454.14c-.85,2.88-.66,5.88.89,8.42-1.76-.26-4.26-.17-5.32,1.33-3.77-.69-8.09-3.14-7.76-7.54-1.18,7.02-.11-.36-5.99,3.77,3.77-.07,9.3,3.14,11.53,5.99-7.08.05-14.22-.07-21.28,0-6.89-1.34-21.22-3.36-27.93-3.55v-7.98l55.86-.44Z"/>
                <path class="cls-17"
                      d="M119.77,475.86c-.49-1.43-4.81-10.12-5.99-10.2-3.87,3.71-9.63,3.73-14.19,1.33-1.2.4-1.54,14.64-4.66,9.09-.17-.31-.17-3.32-1.33-6.87,2.08.73.2-4.35.89-5.32,1.06-1.5,3.56-1.59,5.32-1.33.43.06,3.9,2.57,8.2,2.22,1.17-.1,5.94-2.15,6.43-3.1.95.34,4.35,3.99,4.66,3.99.59,0,4.76-5.37,2.44-6.87.36-2.22,3.01,5.03,2-1.55,1.64,3.9,1.62.31,5.54,2-3.37-1.31-8.7,6.68-8.87,8.87-.09,1.17,2.46,5.9-.44,7.76Z"/>
                <path class="cls-30"
                      d="M71,466.11c-22.46.22-44.93.88-67.39,0,0-.29-.12-.76.22-.89,2.17-.76,25.01-2.14,29.48-2.22,3.13-.06,6.73-.53,9.75-.44,6.71.19,21.04,2.21,27.93,3.55Z"/>
                <path class="cls-11"
                      d="M99.38,335.32c-1.53,2.86-2.85,5.62-4.88,8.2-3.92,4.99-11.04,6.52,4.43,6.65-5.63,4.33-6.26,6.12,1.55,3.33,4.92-1.76,8.8-8.68,1.77,1.33,4.14-.17,8.31-.97,11.08-4.43l.67.67c-6.54,6.71,1.68,2.06,4.88.67.33,3.58-.45,9.49,0,12.41-6.51.11-22.23-.35-20.62,3.1,2.61.11,5.18.62,7.76.89,0,.3.11.81-.22.89-4.96,1.19-18.79.47-24.61,2.66-4.03-4.28-4.89-6.24-7.98-10.2-.36-.46-1.22-2.97-1.33-3.1,4.27.83,8.15.65,11.97-1.55.19-.58-6.97-5.92-7.98-6.43,2.09-.66,4.32-.55,6.43-1.33,6.92-2.58,1.19-1.08-9.53-9.31l26.6-4.43Z"/>
                <g>
                    <path class="cls-29"
                          d="M397.76,326.01c0,6.94,0,13.9,0,20.84-6.67-4.36-8.91-10.12-11.53-12.86l-1.77-1.77c-.75-11.1,1.09-.88,3.33-5.76l2.66.89-1.55-3.1c.82-.07-.73-1.18,1.11-.89.41.06,3.76,2.63,7.76,2.66Z"/>
                    <path class="cls-18" d="M394.87,335.32c1.55.19,1.15,3.57-.89,2.66-1.75-.78.25-2.74.89-2.66Z"/>
                </g>
                <path class="cls-11"
                      d="M278.05,332.66c1.35,1.26-14,7.4-14.85,7.54-.59.09-4.61-.54-7.32-.44-.46-2,.48-6.74.44-7.09,7.13-.21,14.62.5,21.72,0Z"/>
                <path class="cls-10"
                      d="M256.32,332.66c.03.35-.91,5.09-.44,7.09-.59.02-1.19-.02-1.77,0-.29,0-.59,0-.89,0,.16-1.26.36-6.75.44-7.09.12-.5.93-3.14,1.55-3.1.53.36,1.07,2.68,1.11,3.1Z"/>
                <g>
                    <path class="cls-35"
                          d="M370.71,411.58c.08,8.95-.1,29.03,5.1,7.54,1.5.72,2.28,3.42,4.43,5.32,11.35,9.98,4.62-8.9,7.09-9.31,2.57,4.21,4.54,9.89,10.42,8.87-.03,19.35.09,38.73,0,58.08l-2.66-2,2.66,3.77c-.02,3.1.03,6.21,0,9.31-5.49-2.05-10.6-5.68-13.08-11.08-.58.27.45,3.6.67,4.21,2.5,7.05,10.34,12.62-1.55,6.43-3.19-1.66-6.1-4.22-9.09-6.21-4.21,12.94-2.38-1.67-4.21-6.21l-5.1,7.09c-4.32,1.49-9.13,6.22-14.63,7.09l-.44-.44c.78-2.26,7.61-10.84,5.1-10.64-5.21,8.19-14.76,11.81-23.72,13.97,3.92-3.66,7.03-7.9,10.2-12.19.49-.66,2.76-2.5,3.55-4.66-1.64.65-2.67,2.95-3.99,4.21-6.45,6.17-13.05,9.01-21.5,11.53,2.46-3.35,5.62-6.38,7.76-9.98,5.13-8.6.27-2.24-2.88-.22-6.15,3.95-14.28,6.51-21.5,4.66,5.82-2.64,10.89-7.27,14.41-12.64-7.79,6.68-24.48,2.39-24.61,1.11,11.73-6.23,19.97-17.32,26.16-28.82,2.27-4.21,6.27-11.87,3.55-10.42.05,0-.15-.82.22-.89,15.1-2.62,10.04-6.49,19.29-9.53.36-7.12,1.78-14.42.89-21.5,18.63-8.83,14.06,7.47,27.49,3.55Z"/>
                    <path class="cls-31"
                          d="M397.76,391.18c0,10.93.02,21.88,0,32.81-5.87,1.02-7.85-4.65-10.42-8.87-2.47.41,4.26,19.3-7.09,9.31-2.16-1.9-2.94-4.6-4.43-5.32-5.2,21.5-5.02,1.41-5.1-7.54,0-1.17-.44-13.24.22-13.3,9.85,7.89,11.22-1.84,12.41-2.22,9.51,2.51,9.32,4.88,11.31,0,.07-.17,2.4.34.44-2.66-.25-.64-.8-4.22-.89-4.43l3.55,2.22Z"/>
                    <path class="cls-32"
                          d="M365.39,308.72c-1.6,5.98-1.37,7.72,1.11,1.77,1.87,9.09,1.42-1.5,6.43-1.11,2.4,10.49,1.57-5.8,4.43,3.99,7.25,3.01-1.04-8.08,7.98-1.55,3.51,2.54,7.3,7.95,12.41,9.75,0,1.47,0,2.96,0,4.43-4-.03-7.35-2.6-7.76-2.66-1.83-.29-.29.81-1.11.89-3.34.3-4.86-4.88-7.32-7.09-1.37,1.04,4.99,18.24-4.43,3.99-.32,2.65-.73,4.92.67,7.09l-.67.89c-.88-3.24-1.79-1.46-3.33-3.33l-2.44-5.1c-3.19,7.66-4.29,10.91-4.43,3.99-1.35,2.53-2.36,5.14-5.32,6.21-.71-1.79-.12-4.05-.22-4.43-1.66-6.14-6.78,7.22-2.44-7.54-.92,1.02-1.87,1.77-2.88,2.66l-.22-.89c-4.39,4.26-11.02,5.97-17.07,4.43-.14-.49,6.05-3.85,8.42-5.76,3.02-2.43,6.33-5.08,8.42-8.42,1.57-.18,1.48.47,1.55.44.29-.1,2.6-2.83,3.1-2.66,1.13.38.42,2.32.67,2.88.48,1.08,1.07-1.07,1.55-.67,1.74,1.46-1.14,4.56,2.88-2.22Z"/>
                    <path class="cls-2"
                          d="M397.76,362.81c0,9.45,0,18.92,0,28.37l-3.55-2.22c-1.77-4.31-4.39-5.56-7.32-9.31l1.11,8.2c.3,1.89-.85,1.89-.89,2-5.68-5.49-7.28-9.68-7.76-9.31l.22,10.64c-3.58-2.58-1.04-2.27-2.44,3.99-2.31-1.97-3.99-3.81-5.1-6.65-2.22-5.68-1.45-10.19-1.33-15.96,8.78.6,5.55-5.74,16.18-3.55l5.99-7.09c1.1.06,2.73.36,3.1-.89.26.35,1.33,1.48,1.77,1.77Z"/>
                    <path class="cls-2"
                          d="M397.76,346.85c0,2.65,0,5.33,0,7.98-11.25-5.57-13.16-13.27-9.98.44l-6.87-4.43c-.04-.06.22-.73-.67-1.33-1.41.11.77,5.51,1.33,8.87-2.87,1.72-7.09-9.52-6.87-4.21.02.53,3.89,5.22,2.88,8.2-7.73-6.12-5.8-10.21-7.98-4.43l-.22-.89v-15.3c1.27-1.33,2.77-1.52,4.21-.22,5.55-10.39,7.74,5.56,12.64-7.54,2.61,2.74,4.86,8.5,11.53,12.86Z"/>
                    <path class="cls-50"
                          d="M374.7,486.5v24.83c-3.1.02-6.21-.01-9.31,0v-23.94l5.1-7.09c1.83,4.54,0,19.15,4.21,6.21Z"/>
                    <path class="cls-2"
                          d="M397.76,354.83c0,1.47,0,2.96,0,4.43-1.09-.35-1.93-.49-3.1-.44-7.43.28-9.56-2.31-13.74-7.98l6.87,4.43c-3.19-13.71-1.27-6.01,9.98-.44Z"/>
                    <path class="cls-29"
                          d="M397.76,359.26c0,1.18,0,2.37,0,3.55-.44-.3-1.52-1.43-1.77-1.77-.41-.55-.68-1.49-1.33-2.22,1.17-.04,2.01.1,3.1.44Z"/>
                    <path class="cls-46" d="M397.76,482.07c0,.59,0,1.19,0,1.77l-2.66-3.77,2.66,2Z"/>
                    <path class="cls-25"
                          d="M379.58,391.18c1.84,1.33,3.39,2.75,5.99,2.66.67-3.69,1.49-3.79,1.55-3.99,3.11,3.01,5.3,3.56,6.65,5.32.19.24.35.92.89.89-1.99,4.88-1.8,2.51-11.31,0-1.2.37-2.57,10.11-12.41,2.22-.66.06-.23,12.13-.22,13.3-13.43,3.92-8.86-12.38-27.49-3.55-8.58,4.07-19.51,15.03-25.27,12.86,2.12-1.66,3.58-3.79,5.32-5.76.41-.46.89-.78,1.33-1.33,4.23-5.24,6.79-9.66,9.31-15.96.67-.14,8.29-3.91,10.2-4.88,3.13-1.59,2.79.09,5.99-3.99l-.44,6.21,6.65-5.32c-2.99,15.38,3.49,1.57,9.53.67-.04,8.25,2.11,5.15,6.21-2,1.11,2.84,2.79,4.68,5.1,6.65,1.4-6.26-1.14-6.57,2.44-3.99Z"/>
                    <path class="cls-59"
                          d="M343.22,408.03c.89,7.09-.52,14.38-.89,21.5-9.25,3.05-4.19,6.91-19.29,9.53-.38.07-.18.88-.22.89l-11.97-.67c23.67-14.09,6.14-.31-9.75-11.97,7.1-.95,11.23-2.02,16.85-6.43,5.76,2.17,16.7-8.79,25.27-12.86Z"/>
                    <path class="cls-46"
                          d="M341.89,485.17l-.44-.44c1.32-1.26,2.35-3.56,3.99-4.21-.79,2.15-3.06,3.99-3.55,4.66Z"/>
                    <path class="cls-2"
                          d="M379.58,294.97c3.47,9.1,6.56,12.35,6.65,13.08.23,1.89-1.92.74-.89,3.77-9.02-6.53-.73,4.57-7.98,1.55-2.86-9.79-2.03,6.5-4.43-3.99-5.01-.39-4.56,10.2-6.43,1.11-2.48,5.95-2.7,4.2-1.11-1.77,7.08-11.94,4.19-26.58,3.99-39.9.15-.26.58-1.34.67-1.33,4.21,8.72,6.08,18.44,9.53,27.49Z"/>
                    <path class="cls-15"
                          d="M365.39,308.72c-4.02,6.78-1.14,3.67-2.88,2.22-.48-.4-1.08,1.74-1.55.67-.25-.56.47-2.5-.67-2.88-.5-.17-2.82,2.56-3.1,2.66-.08.03.02-.62-1.55-.44-.14.02-.3,0-.44,0,1.48-3.42,3.51-6.74,4.88-10.2,2.98-7.54,8.15-29.99,9.31-31.92.2,13.33,3.09,27.97-3.99,39.9Z"/>
                    <path class="cls-31"
                          d="M394.21,388.97c.09.21.64,3.79.89,4.43l-1.33,1.77c-1.35-1.76-3.54-2.31-6.65-5.32.03-.1,1.18-.1.89-2l-1.11-8.2c2.92,3.75,5.54,5,7.32,9.31Z"/>
                    <path class="cls-33"
                          d="M394.65,396.06c-.54.03-.7-.64-.89-.89l1.33-1.77c1.96,3-.37,2.49-.44,2.66Z"/>
                    <path class="cls-31"
                          d="M377.8,328.23c.7,1.09,4.98,3.59,6.65,3.99l1.77,1.77c-4.9,13.1-7.09-2.85-12.64,7.54-1.44-1.3-2.94-1.1-4.21.22v15.3l-5.1,4.43c-.68-7.46,3.48-8.68-4.43-2.22-1-.13,1.05-9.65,1.11-10.86-6.48,4.86-10.01,11.34-7.32-2l-7.54,7.54v-4.88c-2.21,2.62-5.68,3.92-4.66,4.88-2.52.56-5.62,1.22-8.2.89-11.85-1.52,1.93-3.83,4.43-4.88,4.18-1.74,10.87-6.35,13.52-9.98,1.99-2.72,2.71-6.54,4.88-9.09,1.53-1.8,3.47-1.81,5.32-4.43.1.38-.49,2.64.22,4.43,2.96-1.07,3.97-3.67,5.32-6.21.14,6.92,1.25,3.67,4.43-3.99l2.44,5.1c1.53,1.86,2.44.08,3.33,3.33l.67-.89Z"/>
                    <path class="cls-61"
                          d="M388.89,324.24l1.55,3.1-2.66-.89c-2.24,4.89-4.08-5.34-3.33,5.76-1.67-.4-5.95-2.9-6.65-3.99-1.4-2.17-.99-4.44-.67-7.09,9.42,14.25,3.07-2.95,4.43-3.99,2.46,2.22,3.97,7.39,7.32,7.09Z"/>
                    <path class="cls-32"
                          d="M361.4,326.45c-1.85,2.63-3.79,2.64-5.32,4.43-3.2.24-5.98,2.23-9.31,1.11,2.95-1.9,4.41-5.3,6.65-7.76.86-.95,1.68-1.81,2.66-2.66,1.01-.89,1.96-1.64,2.88-2.66-4.34,14.76.77,1.4,2.44,7.54Z"/>
                    <path class="cls-2"
                          d="M356.08,321.58c-.98.85-1.8,1.71-2.66,2.66-2.69,1.46-13.5,4.92-14.63.89,6.05,1.53,12.68-.18,17.07-4.43l.22.89Z"/>
                    <path class="cls-31"
                          d="M369.38,357.04l.22.89c2.18-5.78.25-1.69,7.98,4.43,1-2.98-2.86-7.67-2.88-8.2-.22-5.31,4,5.93,6.87,4.21-.56-3.36-2.74-8.76-1.33-8.87.89.6.62,1.27.67,1.33,4.18,5.68,6.32,8.27,13.74,7.98.65.73.92,1.66,1.33,2.22-.38,1.24-2,.95-3.1.89-2.97-.17-2.77-.85-4.66-1.33-1.13.51.29,11.26-6.65,3.55-3.24,3.46-9.5-3.95-11.31.67-.57,1.47.46,6.95.44,7.76-.12,5.77-.89,10.28,1.33,15.96-4.09,7.14-6.24,10.24-6.21,2-6.04.91-12.53,14.72-9.53-.67l-6.65,5.32.44-6.21c-3.19,4.08-2.85,2.4-5.99,3.99,2.82-5.55,2.95-8.37,2.88-14.63-.6-.49-5.02,6.11-7.98,8.42-.93.72-5.88,4.04-5.54,2.44l2.44-5.1c-.25-.13-3.27,2.24-3.77,2.66-4.5,1.98-10.07,2.31-13.74-1.55,6.82-4.71,18.34-11.43,23.05-18.18,7.41-10.6-.19-3.71-7.54-4.88l9.75-8.87c-.24-.74-1.47.5-2.22.67-1.03-.96,2.44-2.26,4.66-4.88v4.88l7.54-7.54c-2.69,13.33.84,6.86,7.32,2-.06,1.21-2.11,10.73-1.11,10.86,7.92-6.47,3.76-5.24,4.43,2.22l5.1-4.43Z"/>
                    <path class="cls-2"
                          d="M392.88,361.92l-5.99,7.09c-10.63-2.19-7.4,4.14-16.18,3.55.02-.81-1.02-6.29-.44-7.76,1.8-4.62,8.07,2.79,11.31-.67,6.94,7.71,5.52-3.03,6.65-3.55,1.89.48,1.69,1.16,4.66,1.33Z"/>
                    <path class="cls-31"
                          d="M387.11,389.85c-.06.2-.88.3-1.55,3.99-2.6.09-4.15-1.33-5.99-2.66l-.22-10.64c.48-.37,2.08,3.82,7.76,9.31Z"/>
                    <path class="cls-25"
                          d="M344.11,392.96c-1.91.97-9.53,4.73-10.2,4.88-2.14.47-11.45,1.04-11.97-.67,3.05-2.85,7.32-7.98,10.2-10.42.5-.42,3.52-2.79,3.77-2.66l-2.44,5.1c-.34,1.61,4.62-1.72,5.54-2.44,2.96-2.31,7.38-8.91,7.98-8.42.07,6.26-.06,9.08-2.88,14.63Z"/>
                </g>
                <g>
                    <path class="cls-45"
                          d="M339.23,318.47c.98,4.25-.37,6.26,3.55,1.77,1.3.35,2.87-.19,3.99-.89h.44c-2.38,1.91-8.56,5.27-8.42,5.76,1.13,4.03,11.94.57,14.63-.89-2.24,2.46-3.71,5.86-6.65,7.76,3.33,1.12,6.11-.87,9.31-1.11-2.17,2.55-2.88,6.37-4.88,9.09-2.66,3.63-9.34,8.23-13.52,9.98-2.51,1.05-16.29,3.36-4.43,4.88,2.59.33,5.68-.33,8.2-.89.75-.17,1.97-1.41,2.22-.67l-9.75,8.87c7.35,1.17,14.94-5.72,7.54,4.88-4.71,6.75-16.23,13.46-23.05,18.18,3.67,3.87,9.24,3.53,13.74,1.55-2.88,2.43-7.15,7.57-10.2,10.42.52,1.7,9.83,1.13,11.97.67-2.52,6.3-5.08,10.72-9.31,15.96-8.81-.94-17.78-.25-26.6-.89-8.59-.62-1.75-2.8-1.77-3.33-.04-.82-1.99-.52-2.22-.89-.15-.25.32-7.15-1.77-3.99-1.59,2.4,6.04,5.46-15.52,3.99-.49-8.26.66-19.59,0-27.27,1.02-.46,0-2.66.67-3.1.58-.38,11.35,3.28,9.98-3.55-.48-2.37-29.14-30.91-33.25-35.03.59-.02,1.19.02,1.77,0,2.7-.09,6.73.54,7.32.44.85-.14,16.2-6.28,14.85-7.54,5.26-.37,4.83-.73,7.54-1.33,2.39-.53,4.75-1.52,7.09-2.22,3.22-.96,6.55-1.7,9.75-2.66,1.08-.32,2.56.1,2.22-1.77.74.27,1.63.51,2.44.44,3.29-1.02,6.59-2.02,9.98-2.66,1.74,1.83,2.73,2.27,3.55-.44,7.2-1.37,7.56-2.15,7.98-2.22,1.74-.3,1.66.24,3.55,0,.16-.02,1.43,1.04,2.44-1.33,1.46,2.51,2.74,1.16,4.66,0Z"/>
                    <g>
                        <path class="cls-18"
                              d="M299.11,370.79c3.72-.3,4.01,5.56.44,5.76-3.82.22-3.87-5.49-.44-5.76Z"/>
                        <path class="cls-12"
                              d="M342.78,320.25c-3.92,4.48-2.57,2.47-3.55-1.77,1-.61.76-.97,1.33-1.33-.03,1.07,1.23,2.83,2.22,3.1Z"/>
                        <path class="cls-18"
                              d="M333.03,342.86c-1.62-.97-1.39-.97-.44-2.22.34-.06,1.27-.82,2-.44,3.93,2.06-.87,2.43-1.55,2.66Z"/>
                        <path class="cls-11"
                              d="M332.58,340.64c-.94,1.25-1.18,1.24.44,2.22-.04.01.15.85-.22.89-3.41.38-3.21-2.59-.22-3.1Z"/>
                        <path class="cls-46"
                              d="M286.69,354.38c4.76-.79,5.97,1.52-1.77.89-.28-.32,1.68-.87,1.77-.89Z"/>
                    </g>
                </g>
                <path class="cls-46"
                      d="M118.88,364.14c.13.83-.34,1.58.67,2.22,1.25.04,2.52-.06,3.77,0,5.45.28,10.95-1.38,16.4-.89-5.91.79-6.93,2.16-7.32,2.22-8.15,1.1-18.2,1.3-26.38.44-2.58-.27-5.15-.77-7.76-.89-1.61-3.46,14.11-2.99,20.62-3.1Z"/>
                <path class="cls-46"
                      d="M171.64,361.03c-.54.62-1.3,1.22-1.77,1.77-2.63,1.41-1.52.03-2,0-1.88-.13-7.4-.13-9.31,0-.19.01-.7.87-.89.89-1.46.12-1.74-.49-2.22-.44-.19.02-.69.87-.89.89-3.8.37-7.77.8-11.75,1.33-.99.13-2.12-.13-3.1,0-5.46-.49-10.95,1.17-16.4.89.07-1.44.45-2.53.44-2.66,16.01.38,31.99-3.14,47.88-2.66Z"/>
                <path class="cls-46"
                      d="M169.87,362.81c-1.14,1.33-2.45,2.65-3.55,3.99-4.31-.75-22.14-.04-23.28-.44-.35-.12-.22-.6-.22-.89,3.97-.53,7.95-.96,11.75-1.33.19-.02.69-.87.89-.89.47-.05.76.56,2.22.44.19-.02.7-.87.89-.89,1.91-.13,7.43-.13,9.31,0,.48.03-.63,1.41,2,0Z"/>
                <g>
                    <path class="cls-46"
                          d="M139.72,365.47c.99-.13,2.12.13,3.1,0,0,.29-.12.77.22.89,1.14.4,18.97-.31,23.28.44-2.59,3.16-6.83,6.08-5.76,10.42,1.01,4.08,4.13-2.78,5.54-3.33,1.58-.6.46,1.07,1.11.89-1.12,2.15-5.52,5.4,0,4.43-.13,3.92.62,27.73,0,29.04-2.38,5.07-3.63-10.91-4.66.67-10.97,1.76-5.2-5.11-7.98-4.43-1.59.39.11,7.5-1.33,8.42-7.94-.34-17.36.4-24.38,4.43-5.23,3.01-16.55,16.32-17.07,22.17-9.34-2.19-9.52-1.46-10.2,4.88-4.1,1.12-7.16,0-7.54,0-5.19-2.85-8.89-7.47-12.86-11.75,8.05,4.56,18.45,6.2,26.6,1.33-2.83-2.5-6.79-5.03-9.31-7.76-7.24-7.84-14.3-22.17-19.51-31.7l.67-.67c1.38,1.66,14.03,1.73,14.41,1.11-3.41-2.28-6.89-4.45-10.2-6.87,6.2,1.35,12.37-.93,17.29-4.66-9.81-2.64-13.26-4.64-19.95-11.75,5.81-2.19,19.64-1.47,24.61-2.66.33-.08.23-.59.22-.89,8.18.86,18.23.66,26.38-.44.39-.05,1.4-1.42,7.32-2.22Z"/>
                    <path class="cls-53"
                          d="M168.1,377.44c.07.37.37.42.44,1.33-1.53-.21-1.26.43-1.33.44-5.52.97-1.12-2.28,0-4.43.15-.04.34.05.44,0,.07.88.27,1.79.44,2.66Z"/>
                    <path class="cls-18"
                          d="M148.37,370.34c3.33-1.1,5.32,3.3,3.33,5.54-3.75,4.22-6.61-4.46-3.33-5.54Z"/>
                </g>
                <g>
                    <path class="cls-11"
                          d="M215.54,497.59c-31.61-4.78-62.99-11.66-95.1-12.86l-.22-2.22c1.67-2.43.58-3.65-.44-6.65,2.9-1.86.35-6.59.44-7.76.17-2.18,5.5-10.18,8.87-8.87-3.92-1.69-3.9,1.91-5.54-2,1.02,6.58-1.64-.67-2,1.55,2.32,1.5-1.85,6.87-2.44,6.87-.31,0-3.7-3.65-4.66-3.99.53-1.04.42-5.73.44-7.54,6.26,1.06,22.69-2.42,50.32,4.88,20.97,5.54,42.86,16.76,50.32,38.57Z"/>
                    <path class="cls-18"
                          d="M159.01,466.55c5.55-1.84,6.15,7.56.44,6.21-2.63-.62-2.84-5.42-.44-6.21Z"/>
                </g>
                <g>
                    <path class="cls-46"
                          d="M230.61,490.94c-.63,1.55-1.84.05-3.1,2.22-.64,1.1-.3,1.25-.44,2.22-.29,1.96.44,1.68.44,1.77.06,1.05-.38,1.35-.44,2.22-3.86-.55-7.68-1.19-11.53-1.77-7.46-21.81-29.35-33.04-50.32-38.57-27.63-7.3-44.06-3.82-50.32-4.88-.43-.07-1.04-.51-1.33-.89-.03-.04.41-.97-.44-.89,2.84-.82,1.85-3.46.44-5.32,6.77.12,25.45,2.45,33.47,3.55,5.65.77,41.62,6.83,43.89,7.54,24.92,7.73,37.74,31.05,39.68,32.81Z"/>
                    <path class="cls-18"
                          d="M208.22,472.76c4.84-.81,5.87,6.04,1.33,6.65-5.37.72-4.94-6.05-1.33-6.65Z"/>
                </g>
                <path class="cls-22" d="M227.06,495.37c.14-.97-.2-1.12.44-2.22,4.17.51,4.27,3.6-.44,2.22Z"/>
                <path class="cls-15"
                      d="M260.76,492.71l-6.65,3.1c-.05-2.39-.09-7.43-.44-9.31,9.31.59,5.1,3.03,7.09,6.21Z"/>
                <path class="cls-16" d="M263.42,491.82c-.87-.66-1.94,1.21-.89-2.22,1.27-.24.85.84.89,2.22Z"/>
                <g>
                    <path class="cls-18"
                          d="M119.77,475.86c1.02,3,2.12,4.22.44,6.65-.55.8-5.41,4.93-6.43,5.32-19.59,7.54-21.42-22.19-24.38-11.08-29.61.97-59.3,0-88.89,1.77-.02-4.13.01-8.28,0-12.41h3.1c22.46.88,44.93.22,67.39,0,7.06-.07,14.2.05,21.28,0,1.74,2.23.58.8,1.33,3.1,1.16,3.56,1.16,6.57,1.33,6.87,3.12,5.55,3.46-8.69,4.66-9.09,4.55,2.4,10.32,2.38,14.19-1.33,1.18.07,5.5,8.77,5.99,10.2Z"/>
                    <path class="cls-43" d="M108.91,471.43c3.84-1.62.7,4.36-.44,3.99-.89-.29-.6-3.55.44-3.99Z"/>
                    <g>
                        <path class="cls-43"
                              d="M111.12,475.42c1.68-.78,3.29,4.4,1.33,4.88-2.55.62-2.35-4.41-1.33-4.88Z"/>
                        <path class="cls-8" d="M112.01,477.64c1.66-.24-.14,1.84-.67.67-.02-.04.62-.66.67-.67Z"/>
                    </g>
                </g>
                <g>
                    <path class="cls-57"
                          d="M38.64,368.57c1.67,11.74-3.31,24.78,10.2,29.93l-2.44-12.64c2.89,5.68,7.98,9.55,13.52,12.41-.03,1.31-.7,2.48,0,3.77l-1.11,1.11c-10.06-1.59-7.04,2.46-7.32,2.88-3.84,5.89-10.3-2.26-11.53-.44.23,10.04-.3,29.47,6.43,12.64.92-.22,3.56,9.51,8.87,6.65,3.57-1.92.75-10.47,3.1-9.75.62.19,2.85,6.57,6.87,10.86,13.31,14.2,3.26-7.19,4.66-8.2,6.43,5.85,13.39,12.14,22.17,14.19,17.41,4.06-3.31-3.31-8.42-12.86,4.98,2.16,9.61,6.1,14.85,7.09,2.52,2.73,6.48,5.26,9.31,7.76-8.15,4.87-18.55,3.23-26.6-1.33,3.96,4.28,7.66,8.9,12.86,11.75-4.37.04-7.06.55-11.53-.44-1.53-.34-7.53-2.73-9.09-3.55-4.9-2.57-13.96-11.34-6.43-2.44,2.11,2.5,4.88,4.5,7.09,6.87,1.03,1.1,1.94,2.34,3.1,3.33-.88,1.15-20.64-3.88-24.16-13.52.25,7.83,14.52,18.56-2.22,9.31-1.13-.63-6.66-5.13-7.32-4.88-2.09.79-1.19,3.68-2.44,5.32l-3.1-9.31c-.91-.41-3.82,2.54-4.21,3.99l-15.3,7.98c10.99-19.12,2.06-1.71-16.4,1.33l11.53-14.19c-3.87,3.82-7.87,7.86-13.08,9.75-.04-22.31.02-44.64,0-66.95,3.35-1.75,15.24-10.68,17.51-11.08.81-.15,5.95,1.61,7.09,2.22,4.43,2.34,5.02,8.28,13.52.44Z"/>
                    <path class="cls-31"
                          d="M39.08,323.35c.49,1.25,2.24,3.79,3.33,4.43,5.9,3.51-.72-5.34,1.55-5.32,1.3,1.68,2.5,2.97,4.66,3.55.89-.5-1.71-5.35-.67-7.09,5.67,7.53,10.45,6.1,12.86,6.65.05.8.5,1.56.89,2.22-13.22-3.06-4.15,3.94-8.2,5.32-1.37.47-3.69-1.05-4.88-1.77-2.79,1.88-8.23-1.8-9.53,2.88-.82,2.94-.91,19.72,5.1,18.84l.44-6.21c1.67,1.91,4.16,6.69,5.54,7.98-1.36.95-2.94-.55-3.77-1.77-.2,7.3-1,6.5-5.1,1.77-.24-.28.55-1.91-.89-.89-.16-2.4-1.24,1.64-4.66,3.55-2.02-12.13,2.02-4.07-13.3,2.66-2.29-1.87,2.74-6.24-1.11-4.88-1.33-1.93,4.03-12.37,1.55-11.97-.89.14-2.04,6.09-14.19,10.64,6.03-13.77,6.33-8.21-2.88-4.43-1.66.68-3.46,1.46-5.32,1.33,0-2.51,0-5.03,0-7.54,7.02-3.63,12.06-10.1,16.85-16.18-3.22,1.09-6.36,1.32-9.75.89l8.42-7.54c-.45-.97-1.92.91-3.99,1.11l6.87-5.76-2,5.54.67.22,7.09-6.21-.44,7.09,7.09-7.09c-1.75,6.61-4.27,16.68,3.55,5.76l-.44,7.09c1.72-1.43,3.31-3.11,4.66-4.88Z"/>
                    <path class="cls-25"
                          d="M21.34,355.27c-3.38,1.2-4.78,3.28-2.22-1.11-3.71,1.88-8.45,3.37-12.86,4.66-1.86.54-3.91.7-5.76,1.33,0-2.21,0-4.44,0-6.65l5.32-3.99c9.21-3.78,8.91-9.33,2.88,4.43,12.15-4.55,13.29-10.5,14.19-10.64,2.48-.4-2.88,10.04-1.55,11.97Z"/>
                    <path class="cls-2"
                          d="M52.82,277.68c.73,1.43,1.4,1.96,1.77,2.66-1.1,6.6-6.84-4.92-4.43,2.88-4.27,2.07-3.9-.65-6.43-3.77-1.3,7.04-.88,2.53-1.55,1.11-.63-1.31-1.57-.16-1.77-.22-.75-.22-1.02-1.35-1.77-.67-.45,4.56-3.64,6.54-3.1.67.03-.28,2.08-4.46,2.22-5.1,2.04-9.85,2.61-20.6,1.33-30.37.15-.28-.06-2.26,1.11-2.22,1.82.43,5.77,21.52,12.64,35.03Z"/>
                    <path class="cls-15"
                          d="M35.53,280.34c-1.28-2.56-2.17,2.67-3.33,2.66-1.21-.01,1.09-7.28-4.43,1.33l2-4.66c-2.33,2.05-3.39,1.87-3.55,2,.5-1.81,1.04-4.04,1.77-5.76,5.54-13.12,9.72-28.36,11.08-31.04,1.28,9.77.71,20.52-1.33,30.37-.13.64-2.19,4.82-2.22,5.1Z"/>
                    <path class="cls-23"
                          d="M28,275.91c-.73,1.73-1.27,3.95-1.77,5.76-.57.43-2.31,2.79-4.43,4.43l-1.77-2.22c2.76-1.06.37-1.44.44-1.55,1.94-3.14,4.6-7.38,7.54-6.43Z"/>
                    <path class="cls-56"
                          d="M83.86,388.08c3.31,2.43,6.79,4.59,10.2,6.87-.38.62-13.03.56-14.41-1.11l-.67.67c5.21,9.53,12.27,23.86,19.51,31.7-5.24-.99-9.87-4.94-14.85-7.09,5.11,9.54,25.83,16.92,8.42,12.86-8.77-2.05-15.74-8.34-22.17-14.19-1.4,1.01,8.66,22.4-4.66,8.2-4.03-4.29-6.26-10.68-6.87-10.86-2.36-.71.46,7.83-3.1,9.75-5.3,2.86-7.94-6.87-8.87-6.65-6.73,16.84-6.2-2.59-6.43-12.64,1.23-1.81,7.68,6.33,11.53.44.28-.43-2.74-4.47,7.32-2.88l1.11-1.11c-.7-1.29-.03-2.46,0-3.77.04-1.53-2.1-8.45-1.55-8.87,2.5,1.7,4.48,3.85,6.87,5.76.23.18,2.11,4.93,3.1-.44.57-3.09-2.24-7.7-1.11-7.98,19.08,12.22,4.28-3.93,7.09-6.21,3.29,2.38,6.26,5.14,9.53,7.54Z"/>
                    <path class="cls-31"
                          d="M81.2,371.67c6.69,7.11,10.14,9.11,19.95,11.75-4.92,3.73-11.1,6.01-17.29,4.66-3.27-2.4-6.24-5.16-9.53-7.54-2.82,2.28,11.98,18.42-7.09,6.21-1.13.28,1.68,4.89,1.11,7.98-1.36-.91-2-.41-3.1.44-2.39-1.92-4.37-4.06-6.87-5.76-.55.42,1.59,7.34,1.55,8.87-5.55-2.87-10.63-6.74-13.52-12.41l2.44,12.64c-13.51-5.15-8.53-18.19-10.2-29.93,9.42-3.97,7.69,10.14,20.62-.44,6.45-1.33,11.49,9.06,13.97-6.65,3.09,3.96,3.95,5.91,7.98,10.2Z"/>
                    <path class="cls-50"
                          d="M43.51,439.07l-.44,15.52v7.98c-3.02-.09-6.63.39-9.75.44v-8.87c0-3.23-.07-13.2.44-15.07.4-1.45,3.3-4.4,4.21-3.99l3.1,9.31c1.25-1.64.35-4.53,2.44-5.32Z"/>
                    <path class="cls-46"
                          d="M82.53,443.94l-8.42.89c-2.21-2.37-4.98-4.38-7.09-6.87-7.53-8.9,1.53-.13,6.43,2.44,1.56.82,7.55,3.21,9.09,3.55Z"/>
                    <path class="cls-2"
                          d="M61.69,327.78c3.03,5.09,6.45,8.41,11.08,11.97,10.72,8.23,16.46,6.73,9.53,9.31-2.11.78-4.33.67-6.43,1.33-.72-.36-1.21-1.38-2.22-.67,6.06,9.29-8.1.43-14.85-5.99-1.44,5.5,4.65,8.49,4.21,13.3-4.44-2.05-7.15-5.9-7.98-4.66,3.28,7.41-.23,6.8-4.88,2.44-1.38-1.29-3.87-6.07-5.54-7.98l-.44,6.21c-6.01.88-5.92-15.9-5.1-18.84,1.3-4.68,6.75-1,9.53-2.88,1.19.72,3.5,2.24,4.88,1.77,4.05-1.38-5.02-8.38,8.2-5.32Z"/>
                    <path class="cls-2"
                          d="M65.68,322.46c-3.8-.09-11.68-9.59-11.97-6.43-.03.34,1.84,5.2,2,6.43-4.96-1.11-6.29-6-7.76-3.55-1.05,1.74,1.55,6.6.67,7.09-2.16-.57-3.36-1.87-4.66-3.55-3.87-5.01-.02-5.52-4.88.89-1.54-3.96-1.24-9.14-.89-13.3,2.4-1.14,3.95-3.47,4.21-3.55,2.84-.8,6.11,8.19,10.86-3.55,5.28,8.95,13.26,14.48,23.5,16.18.43,1.48-10.03,3.35-11.08,3.33Z"/>
                    <path class="cls-2"
                          d="M38.19,310.05c-.36,4.16-.65,9.34.89,13.3-1.34,1.77-2.93,3.45-4.66,4.88l.44-7.09c-7.82,10.91-5.29.85-3.55-5.76l-7.09,7.09.44-7.09-7.09,6.21-.67-.22,2-5.54-6.87,5.76c-3.26.32-6.76.26-9.31-2,.07-.8,8.82-1.47,14.63-6.43.67-.57,2.83-2.22,3.1-2.88.16-.39-.02-3.1.44-4.21.61-.55,1.16-1.67,1.77-2.22.96-.86,1.73-1.77,2.66-2.66-.22,6.42,2.85-.42,5.54,9.31,5.77-6.8.01,3.01,7.32-.44Z"/>
                    <path class="cls-2"
                          d="M65.68,322.46c8.51,6.48,4.87,6.46-3.77,2.66-1.31-.19-1.05.46-1.11.44-2.41-.55-7.19.88-12.86-6.65,1.47-2.45,2.8,2.43,7.76,3.55-.15-1.23-2.03-6.09-2-6.43.29-3.16,8.17,6.34,11.97,6.43Z"/>
                    <path class="cls-2"
                          d="M43.96,322.46c-2.27-.02,4.35,8.83-1.55,5.32-1.08-.64-2.84-3.18-3.33-4.43,4.86-6.41,1-5.9,4.88-.89Z"/>
                    <path class="cls-15"
                          d="M75.88,350.39c1.01.51,8.17,5.85,7.98,6.43-3.82,2.2-7.71,2.38-11.97,1.55-2.38-2.9-6.11-4.38-8.2-7.54l-.67.22c-.48,1.27,12.77,11.88,0,5.99.44-4.81-5.65-7.8-4.21-13.3,6.75,6.42,20.91,15.28,14.85,5.99,1.01-.71,1.5.3,2.22.67Z"/>
                    <g>
                        <path class="cls-63"
                              d="M40.41,353.94l.89.89c4.1,4.73,4.9,5.53,5.1-1.77.83,1.23,2.41,2.72,3.77,1.77,4.65,4.36,8.16,4.98,4.88-2.44.83-1.25,3.54,2.61,7.98,4.66,12.77,5.89-.48-4.72,0-5.99l.67-.22c2.09,3.16,5.83,4.63,8.2,7.54.11.13.97,2.65,1.33,3.1-2.47,15.71-7.51,5.32-13.97,6.65-12.93,10.58-11.19-3.52-20.62.44-8.5,7.84-9.09,1.9-13.52-.44-1.14-.6-6.28-2.36-7.09-2.22-2.27.41-14.16,9.33-17.51,11.08,0-2.51,0-5.03,0-7.54,2.79-2.34,4.09-7.4,5.76-10.64,4.4-1.28,9.15-2.77,12.86-4.66-2.56,4.39-1.16,2.31,2.22,1.11,3.84-1.36-1.18,3.01,1.11,4.88,15.32-6.73,11.28-14.79,13.3-2.66,3.42-1.91,4.5-5.95,4.66-3.55Z"/>
                        <path class="cls-41" d="M41.3,354.83l-.89-.89c1.44-1.02.64.6.89.89Z"/>
                        <path class="cls-18" d="M47.72,359.26c.95-.69.54,1.57,0,1.33-.34-.15-.37-1.06,0-1.33Z"/>
                    </g>
                    <path class="cls-12"
                          d="M28,298.08c-.96.92-1.7,2.19-2.66,3.1-.93.89-1.7,1.8-2.66,2.66-1.48.39-2.92-.14-4.43,0,1.21-3.14-.97-.79-1.11-.89-.84-.59-.85-2.62,1.11-4.88,7.69,1.85,10.03-4.99,9.75,0Z"/>
                    <path class="cls-64"
                          d="M17.35,313.15l-5.76-.67c3.12-1.8,6.64-4.04,9.31-6.43-.46,1.11-.28,3.82-.44,4.21-.27.66-2.44,2.31-3.1,2.88Z"/>
                    <path class="cls-32"
                          d="M35.53,280.34c-.54,5.87,2.66,3.89,3.1-.67.75-.68,1.02.45,1.77.67l-1.77,7.32c.12,1.26.98-.09,1.33,1.55-2.39,2.93-5.97,13.27-6.87,3.55-2.2,5.74-4.8,5.04-5.1,5.32.27-4.99-2.07,1.85-9.75,0,.54-.63,7.77-5.7,5.99-6.65-3.54,2.88-8.78,4.47-12.64,1.55,3.98-1.52,6.92-4.33,10.2-6.87,2.12-1.64,3.87-4,4.43-4.43.16-.12,1.22.06,3.55-2l-2,4.66c5.52-8.61,3.22-1.34,4.43-1.33,1.16.01,2.04-5.22,3.33-2.66Z"/>
                    <path class="cls-32"
                          d="M54.6,280.34c2.73,5.11-1.8.68.44,4.66,1.62,2.86,6.55,4.89,8.87,6.43.25.16,1.84,1.88,4.88,3.33-2.29,1.73-4.9,1.09-7.54.67-1.72-.27-3.82-1.44-3.99-.44-1.77-1.47-3.39-.41-7.76-7.54l.22,7.98c-.38.2-.68-.13-1.33.89-4.78-7.96-3.27-6.85-4.88,0-.03-.03-.23.92-.67.44-2.05-2.24-2.27-4.68-2.88-7.54-.35-1.65-1.21-.29-1.33-1.55l1.77-7.32c.2.06,1.15-1.09,1.77.22.67,1.42.26,5.93,1.55-1.11,2.53,3.12,2.16,5.84,6.43,3.77-2.41-7.8,3.34,3.72,4.43-2.88Z"/>
                    <path class="cls-11"
                          d="M61.25,295.42l-1.33,2.22h-.44c-.08-1.12-1.39-1.97-2.22-2.66.17-.99,2.27.17,3.99.44Z"/>
                    <path class="cls-18" d="M68.34,394.73c-.99,5.37-2.88.62-3.1.44,1.1-.85,1.75-1.36,3.1-.44Z"/>
                    <path class="cls-31"
                          d="M39.97,289.21c.61,2.86.83,5.3,2.88,7.54.44.47.64-.47.67-.44,1.49,1.44,4.1,4.94,5.32,2.66,7.03,2.63,2.41.56,4.43,3.99-4.75,11.73-8.03,2.75-10.86,3.55-.26.07-1.81,2.41-4.21,3.55-7.3,3.46-1.54-6.36-7.32.44-2.69-9.74-5.76-2.89-5.54-9.31.96-.92,1.7-2.19,2.66-3.1.3-.28,2.9.42,5.1-5.32.9,9.72,4.48-.62,6.87-3.55Z"/>
                    <path class="cls-61"
                          d="M57.26,294.97c.83.69,2.13,1.54,2.22,2.66.48,6.53-8.06-3-8.65-3.1-.07-.01-.51.57-1.11.89l-.22-7.98c4.37,7.13,5.99,6.07,7.76,7.54Z"/>
                    <path class="cls-61"
                          d="M48.39,296.3c.17.29-.35,1.62.44,2.66-1.22,2.28-3.83-1.23-5.32-2.66,1.61-6.85.1-7.96,4.88,0Z"/>
                </g>
                <g>
                    <path class="cls-29"
                          d="M59.47,297.63h.44c5.22-.02,10.29.3,15.52,0-.67,8.23.8,9.99,1.77,3.99l5.99.89c.8-1.91.81-3.98-.22-5.76,1.16-.03,2.53-.44,2.66-.44,3.82-.12,7.91.43,11.97.44,2.55,0,5.02.07,7.54.44l.89,1.33c-2.52,2.38-.19,2.95,2.44,1.77-1.87,9.96-18.27,12.96-5.99,12.86-3.58,2.96-4.4,4.19.89,4.43-2.72,4.86-6.16,9.58-12.41,8.65-.11.62,5.55,3.33,6.87,3.33.49,0,8.01-3.71-2,2.44.17.28,4.29.37,4.88.22,1,.52-.91,2.32-1.33,3.1l-26.6,4.43c-4.63-3.56-8.05-6.88-11.08-11.97-.39-.66-.84-1.42-.89-2.22.06.01-.2-.64,1.11-.44,8.64,3.8,12.28,3.82,3.77-2.66,1.05.03,11.51-1.84,11.08-3.33-10.24-1.7-18.22-7.23-23.5-16.18-2.02-3.43,2.59-1.36-4.43-3.99-.8-1.04-.27-2.38-.44-2.66.65-1.02.95-.68,1.33-.89.6-.32,1.04-.9,1.11-.89.59.1,9.12,9.63,8.65,3.1Z"/>
                    <path class="cls-7"
                          d="M77.21,297.63c-.13,1.25.19,2.82,0,3.99-.98,6-2.45,4.24-1.77-3.99.63-.04,1.28.02,1.77,0Z"/>
                    <path class="cls-18" d="M73.88,329.11c1.92-.09.81,2.66,0,2.66-1.16,0-1.26-2.6,0-2.66Z"/>
                </g>
                <g>
                    <path class="cls-29"
                          d="M151.69,312.71c-.53,4.48,2.22,4.56,2.66,0,3.5.37,6.78,1.6,10.2,2.22-.49,2.63,1.93,2.37,1.77,0,7.35,1.45,14.68,3.04,21.95,4.88,1.97.5,4.19,2.15,4.43,2.22.2.05,0-1.24,1.33-.89,2.32.6,15.7,3.8,16.18,5.1-.36,7.01,1.24,7.03.89,0,1.06-1.49,20.6,6.05,23.72,6.43,4.63.57,13.39-.42,18.84,0-.08.35-.28,5.83-.44,7.09-16.08.39-32.24-.29-48.33,0-.08-1.54.05-3.11,0-4.66-.78-1.2-1.52-.28-3.55-.22,1.18-1.57.35-3.51-2.22-3.1-3.09-9.62-9.72-13.25-1.77-2.88.54,2.84-.98,1.58.89,3.33-3.64,2.05-1.69,2.13-1.77,3.55-.11,1.78-.16,4.96,0,6.65-2.2,1.19-5.65-.12-7.76.44-1.2.32-15.07,15.88-17.07,18.18-15.89-.48-31.88,3.04-47.88,2.66-.12-4.17-.32-8.24,0-12.41,2.31,1.03,4.42,2.41,6.87,3.1-4.53-11.05-1.95-.35,10.2.89l-4.43-6.21c3.77,2.95,8.67,5.06,13.52,4.21-10.9-7.95-2.47-1.89,5.1-4.21-4.59-4.29-10.78-10.6-11.75-16.4,3.14,1.01,7.23.84,1.77-2.88,13.38-1.05,5.16-1.34.22-5.1-3.02-2.3-10.67-11.21-1.77-8.87l-.22-3.1c2.68.19,5.63-.18,8.42,0Z"/>
                    <g>
                        <g>
                            <path class="cls-48"
                                  d="M154.35,312.71c-.44,4.56-3.19,4.48-2.66,0,.52.03.63-1.02,2-.89.7.51.61.88.67.89Z"/>
                            <path class="cls-55"
                                  d="M166.32,314.93c.15,2.37-2.26,2.63-1.77,0,.09.02.17-1.15,1.55-.89.38.07.18.88.22.89Z"/>
                        </g>
                        <path class="cls-18"
                              d="M201.35,334.88c-1.35.04-1.88.18-3.1.44-.54.12-1.04-.15-1.77.44.09-1.41-1.87-1.5,1.77-3.55.28-.15.58-.39.89-.44,2.57-.41,3.4,1.53,2.22,3.1Z"/>
                        <path class="cls-7"
                              d="M199.13,331.77c-.31.05-.61.29-.89.44-1.87-1.74-.34-.48-.89-3.33-7.95-10.37-1.32-6.74,1.77,2.88Z"/>
                        <path class="cls-18"
                              d="M169.65,332.66c1.67.04,1.43,5.47-.44,4.88-1.55-.5-1.11-4.91.44-4.88Z"/>
                    </g>
                </g>
                <g>
                    <path class="cls-46"
                          d="M20.01,283.89l1.77,2.22c-3.27,2.54-6.22,5.36-10.2,6.87,3.85,2.91,9.1,1.33,12.64-1.55,1.79.95-5.44,6.02-5.99,6.65-1.96,2.26-1.95,4.28-1.11,4.88.13.1,2.32-2.26,1.11.89-5.94.54-12.02,2.84-17.73,4.43,0-6.2,0-12.42,0-18.62,6.45-2.11,12.75-4.79,19.51-5.76Z"/>
                    <path class="cls-18"
                          d="M103.37,263.5c-.34.37-1.1,1.66-1.55,1.77-7.71,2.01,1.77-14-8.65-4.43-3.86-5.87-6.56-.34-6.65,4.21,3.65-.92-3.1,2.64-3.1,5.76,0,1.94,4.17-1.25.67,2-.34.32-.85-.48-.89-.44-.27,1.78-1.07,1.68-1.11,1.77-1.72-.03-3.23-4.18-1.77-5.54-1.34-1.22-3-4.05-1.77-5.32-.64-.65-1.31-1.19-1.77-2,.99-2.52,1.93-3.89,3.55-5.99,2.1-2.71,23.78-26.99,25.27-28.15.82,2.19-1.48,7.27-2.22,10.42.94,9.19-4.76,24.71,0,25.94Z"/>
                    <path class="cls-18"
                          d="M124.2,250.19c-3.01-.08-5.97.65-8.2-1.77-.93,3.96-3,7.72-4.21,11.53-6.65-5.97-4.33-.93-8.42,3.55-4.76-1.23.94-16.75,0-25.94.74-3.14,3.03-8.23,2.22-10.42.11-.09.8-1.59,1.33-1.11,5.61,8.23,10.57,16.82,17.29,24.16Z"/>
                    <path class="cls-46"
                          d="M63.91,291.43c-2.31-1.54-7.25-3.57-8.87-6.43-2.25-3.97,2.28.45-.44-4.66-.38-.7-1.05-1.23-1.77-2.66,11.29-2.48,11.63-4.95,17.73-13.74,3.47-.05-3.52,6.81-3.55,7.32,0,.09,1.43.57,1.33.89-.13.42-1.39.05-1.33.44.1.68,3.45-.84,0,2.22,4.79-.66-.91,2.89-.89,3.55.03.76,3.71.68-1.77,2.66.68,1.47,2.75.61.89,2.22,2.67-.56,2.24,4.3-.89,4.88,4.53.03-1.98,1.26-.44,3.33Z"/>
                    <path class="cls-54"
                          d="M353.86,302.07c3.33,5.32-1.1,2.9-1.77,3.77-.09.11,1.33.88,1.33,1.77,0,.15-1.28.41-1.33.89-.05.48,2.14.58,1.55,3.33.54.31.97-.85,1.55-.89.15,0,.3.02.44,0-2.1,3.34-5.4,6-8.42,8.42h-.44c-.89-3.73-3.03-4.21-6.21-2.22-.57.36-.33.72-1.33,1.33-1.91,1.16-3.19,2.51-4.66,0-1,2.37-2.28,1.31-2.44,1.33.94-3.02-1.16-1.17-1.77-2-.17-.23,4.08-3.59.89-4.43,2.62.02,5.36-7.42,2.66-6.87.04-.08-.88-.02.22-1.77-4.61,2.33.24-4.8,1.55-4.66-3.27-1.46,1.55-3.14.89-3.99-.37-.47-2.52.1-2.66-.89-.09-.64,3.99-3.28,3.99-3.55,0-.51-3.55.18,2.22-3.55-3.11-1.05,1.6-3.22-.44-6.21l3.77-6.43c4.65,7.52,2.75,7.75,2.88,8.2.28.99,4.02,4.07.44,4.43,1.06.72,6.27,6.56,6.21,7.09-.15,1.15-2.53.04-2.66,1.33-.05.46,2.61,1.96,2.66,2.22.18,1-1.3,1.14-1.33,1.33-.05.36,1.61,1.03,2.22,2Z"/>
                    <path class="cls-23"
                          d="M293.12,284.33c.87,2.83,3.06,6.64,2.22,9.09,3.2,1.91,1.4,7.23,3.55,2.88l3.1-.44c.55,2.5,1.8,4.57,2.22,7.09-2.28-.79-5.13.93-6.87-.89-.12,0-.59,1.32-.67,1.33-6.07,1.05-7-.08-7.76,1.33-1.64-1.56-5.31-.59-8.2-1.33,1.01-4.45,1.55-4.2,1.77-4.88.25-.74-.63-1.02-.44-1.55.59-1.68,2.58-3.77,3.1-5.32.02-.07-.47-1.26-.44-1.33.11-.31,1.14-1.22,2.66-5.99h5.76Z"/>
                    <g>
                        <path class="cls-46"
                              d="M367.16,239.11c5.76,3,23.48,24.62,30.59,29.7,0,6.64,0,13.31,0,19.95l-18.18,6.21c-3.46-9.05-5.32-18.77-9.53-27.49-.09,0-.51,1.08-.67,1.33-1.16,1.94-6.33,24.38-9.31,31.92l-6.21,1.33c-.61-.97-2.27-1.63-2.22-2,.03-.19,1.51-.33,1.33-1.33-.05-.26-2.71-1.75-2.66-2.22.13-1.29,2.51-.18,2.66-1.33.07-.53-5.15-6.38-6.21-7.09,3.58-.37-.16-3.45-.44-4.43-.13-.45,1.77-.68-2.88-8.2l-3.77,6.43c2.05,2.99-2.67,5.16.44,6.21-5.76,3.72-2.22,3.03-2.22,3.55,0,.27-4.08,2.9-3.99,3.55.14.99,2.29.42,2.66.89.67.85-4.16,2.53-.89,3.99-1.31-.14-6.17,6.99-1.55,4.66-1.11,1.75-.18,1.69-.22,1.77-.88,1.65-6.61,5.06-7.98,2.66,5.98-2.84-6.85-10.38.89-9.98-3.73-1.97-1.52-4.24-5.76-6.21,2.76-1.88-.62-2.22-.44-3.55.07-.49,1.3-.71,1.33-.89.06-.36-3.77-5.1-4.21-5.99-7.67,7.78-3.67,5.89-3.33,6.43.12.19-2.27,2.92-2.22,3.1.19.71,1.58-.71,1.77,0,.14.52-3.94,2.43-5.54,7.32,1.63.69,4.37-2.86-2,7.09-2.53-1.92.09-.25,0-1.11-.02-.16-2.06-2.38-2.22-2.44-.41-2.52-1.67-4.59-2.22-7.09-.07-.33-.71-1.05-.44-3.1,1.39-2.06,8.38-14.55,7.98-16.18-6.44-4.45-10.12-11.8-11.97-19.06l11.08-17.07c2.85-1.72,2.93-2.41,6.65-3.55,9.01-2.76,3.34-.39,5.1,18.62l11.97-12.86,17.73,7.09v-15.96c4.49,2.03,13.42,3.42,17.07,5.32Z"/>
                        <path class="cls-14"
                              d="M308.64,240.44l-11.08,17.07c1.85,7.26,5.53,14.61,11.97,19.06.4,1.63-6.59,14.13-7.98,16.18-.15.22.52-2.89-2.66,3.55-2.15,4.35-.35-.97-3.55-2.88.85-2.44-1.35-6.26-2.22-9.09-.88-2.87-.86-9.73-4.43-7.32-.19,2.33-.64,5.14-1.33,7.32-1.52,4.77-2.55,5.68-2.66,5.99-.02.07.47,1.26.44,1.33-.53,1.55-2.52,3.64-3.1,5.32-.19.53.69.81.44,1.55-10.55-9.62-19.05-21.19-28.37-31.92,8.96-7.75,20.98-13.53,29.7-19.51,20.16-13.82,20.58-22.29,11.75,2.66,4.47-2.92,8.51-6.55,13.08-9.31Z"/>
                        <path class="cls-18"
                              d="M367.16,239.11c-3.65-1.9-12.58-3.29-17.07-5.32v15.96l-17.73-7.09-11.97,12.86c-1.76-19.01,3.91-21.39-5.1-18.62-1.91,0,3.95-12.4,4.88-13.97,2.79-4.69,10.49-11.52,11.53-17.07.06-.03.29-1.05,1.11-.89l34.36,34.14Z"/>
                        <path class="cls-18"
                              d="M315.29,236.89c-3.72,1.14-3.8,1.82-6.65,3.55-4.57,2.76-8.61,6.39-13.08,9.31,8.83-24.95,8.41-16.48-11.75-2.66-.17-1.92,3.61-7.26,5.1-8.87,2.39-2.58,40.19-31.21,42.78-32.37-1.04,5.55-8.73,12.38-11.53,17.07-.93,1.56-6.78,13.96-4.88,13.97Z"/>
                        <path class="cls-46"
                              d="M332.14,319.8c-1.89.24-1.81-.3-3.55,0,2.12-3.01-.73-2.05-1.33-3.33-.03-.06.81-.61.44-1.33-.61-1.18-1.99-3.08-3.1-3.99,5.26.3.18-.09,1.33-2,1.37,2.4,7.1-1.01,7.98-2.66,2.7-.54-.04,6.89-2.66,6.87,3.2.84-1.06,4.2-.89,4.43.61.83,2.71-1.02,1.77,2Z"/>
                    </g>
                    <path class="cls-11"
                          d="M360.07,300.74c-1.36,3.46-3.4,6.78-4.88,10.2-.58.03-1.01,1.19-1.55.89.59-2.74-1.6-2.84-1.55-3.33.05-.47,1.33-.73,1.33-.89,0-.89-1.42-1.66-1.33-1.77.67-.87,5.1,1.55,1.77-3.77l6.21-1.33Z"/>
                    <path class="cls-28"
                          d="M301.55,292.76c-.27,2.06.37,2.78.44,3.1l-3.1.44c3.18-6.43,2.51-3.33,2.66-3.55Z"/>
                    <path class="cls-56"
                          d="M141.05,284.33c.63.99-.11,2.93,1.77,3.33.21.93-2.77,2.04,0,2.44-1.82,9.93.43,7.95.44,8.42.06,1.54-.35,6.76-.89,8.42-.77-.08-3.21-.03-3.55.89-3.34-2.46-5.43-5.11-5.76-5.32,1.89-1.63.68-1.37-.44-2.22.49-.93,2.97.05,4.66-.89,5.05-2.79-2.3-2.37-7.32-7.09,1.25-2.75.14-3.9.44-5.76,4.53.91.43-1.56.44-2,.01-.44,1.32-.74,1.33-.89.02-.43-3.3-2.54-5.32-6.87.13-.07.59.11.44-.89,1.18,2.11,3.64,4.27,4.66,6.65,5.28-1.05,1.02-4.78,3.33-4.21,1.49,1.42.31,6.68,1.55,7.32,1.71.88.86-6.6,4.21-1.33Z"/>
                    <path class="cls-23"
                          d="M296.67,303.4c2.47,2.01-1.28,1.91-2,5.76-16.83,3.86-9.61-2.55-15.3-2.44.54-1.03,1.08-2.2,1.33-3.33,2.9.74,6.56-.23,8.2,1.33.76-1.41,1.69-.28,7.76-1.33Z"/>
                    <path class="cls-6"
                          d="M301.99,322.46c.12.05.32-.05.44,0v3.99c-3.2.96-6.54,1.7-9.75,2.66l-.89-5.32c.13-.08,1.33-1.81,2-2.22,2.78,1.01,5.37-.32,8.2.89Z"/>
                    <path class="cls-48"
                          d="M291.79,323.79l.89,5.32c-2.34.7-4.7,1.69-7.09,2.22-.83-8.14,2.62-4.57,3.33-4.88.27-.12.36-1.86.89-2.22.52-.35,1.81-.33,2-.44Z"/>
                    <g>
                        <path class="cls-18"
                              d="M196.47,191.67c-.5-.21-1.67-1.56-2.22-.67-.91,1.51-3.27,30.31-3.99,35.03-1.06,6.94-2.52,13.97-3.99,20.84-.04.19-1.4-.31-.44,3.33-.34.33-.59,1.66-1.55,2.22-1.3-.28-3.59-15.7-4.43-15.96l-19.95,15.52,4.88-9.75c-8.43,1.16-16.42,6.75-25.05,4.88,7.91-8.43,50.81-53.89,53.2-56.97.15-.2-1.06-1.57.22-2,2.19-.72,2.54,2.58,3.33,3.55Z"/>
                        <path class="cls-18"
                              d="M196.47,191.67c13.05,16.01,24.37,33.74,36.36,50.54l-16.18-7.98,1.33,13.3-19.06-11.53c-4.6,4.51-8.47,9.69-13.08,14.19-.96-3.63.4-3.13.44-3.33,1.47-6.87,2.93-13.9,3.99-20.84.72-4.72,3.08-33.52,3.99-35.03.55-.9,1.72.46,2.22.67Z"/>
                        <g>
                            <path class="cls-6"
                                  d="M232.83,242.21c2.4,1.56,17.5,20.03,21.28,24.38,9.32,10.74,17.83,22.31,28.37,31.92-.22.67-.76.43-1.77,4.88-.25,1.12-.79,2.29-1.33,3.33,5.68-.11-1.53,6.3,15.3,2.44.71-3.86,4.47-3.75,2-5.76.07-.01.55-1.32.67-1.33,1.74,1.82,4.6.09,6.87.89.16.05,2.2,2.27,2.22,2.44.09.86-2.53-.81,0,1.11,3.34,2.53-1.42.91,2.22,2.88-.53.78-.5,3.6-.89,5.76,2,4.09,3.88,7.89-2,3.77-1.17,3.2-3.06-1.2-3.77,3.55-2.83-1.21-5.42.13-8.2-.89-.66.4-1.87,2.14-2,2.22-.18.11-1.48.1-2,.44-.53.35-.62,2.1-.89,2.22-.71.31-4.15-3.26-3.33,4.88-2.7.6-2.28.96-7.54,1.33-7.1.5-14.59-.21-21.72,0-.04-.42-.57-2.74-1.11-3.1-.62-.04-1.43,2.6-1.55,3.1-5.45-.42-14.21.57-18.84,0-3.12-.38-22.66-7.92-23.72-6.43.36,7.03-1.25,7.01-.89,0-.48-1.3-13.86-4.49-16.18-5.1-1.34-.35-1.13.94-1.33.89-.24-.06-2.46-1.72-4.43-2.22-7.26-1.84-14.59-3.43-21.95-4.88-.04,0,.15-.81-.22-.89-1.38-.27-1.46.9-1.55.89-3.42-.62-6.69-1.84-10.2-2.22-.06,0,.03-.38-.67-.89-1.36-.14-1.48.92-2,.89-2.79-.18-5.74.19-8.42,0-.73-.05-1.49.04-2.22,0-5.2-2.12,1.48.13,1.33-3.33-.17-.41-2.44-.73-3.55-1.55.33-.91,2.78-.97,3.55-.89.09,0,.7,1.21,1.11,1.33,1.52-1.3,7.08.37,9.31.44-1.05-4.95,3.58.36,6.65-.44,3.46-.9-.28-6.71-.67-8.87,2.14-.97.74-.72.89-1.33.02-.07.28.45.44-1.33.16-1.72-.48-3.16-.44-3.33.09-.4,2.55-2.8,2.66-7.54-10.82-9.64-20.8-20.13-31.04-30.37,2.4-3.17,5.73-5.55,8.42-8.42,8.62,1.88,16.62-3.72,25.05-4.88l-4.88,9.75,19.95-15.52c.85.26,3.13,15.68,4.43,15.96.96-.56,1.21-1.89,1.55-2.22,4.61-4.49,8.48-9.68,13.08-14.19l19.06,11.53-1.33-13.3,16.18,7.98Z"/>
                            <path class="cls-23"
                                  d="M164.33,283c.78-.08,1.57,2.72,1.55,2.88-.62,4.78-4.34-2.58-1.55-2.88Z"/>
                            <path class="cls-10"
                                  d="M273.39,324.68c3.73.52-3.19,7.85-1.11,1.11.02-.07,1.03-1.12,1.11-1.11Z"/>
                            <path class="cls-18"
                                  d="M202.9,292.31c1.07-.38,2.44,2.56.89,3.1-1.07.38-2.44-2.56-.89-3.1Z"/>
                            <path class="cls-18"
                                  d="M241.03,260.84c.56-.27,1.85.44,1.55,1.11-.31.7-1.87-.51-1.55-1.11Z"/>
                        </g>
                    </g>
                    <path class="cls-28"
                          d="M293.12,284.33h-5.76c.69-2.18,1.14-4.99,1.33-7.32,3.58-2.41,3.56,4.45,4.43,7.32Z"/>
                    <path class="cls-46"
                          d="M111.79,259.95c-.79,2.48-6.06,20.82-6.21,21.95-.29,2.2.44,1.89.44,2,.04.5-1.34,1.1.44,2.22-1.61.7-1.87,4.61-2.22,5.1-.95,1.36-1.59.06-1.77.22.06-1.14-2.69-4.39-2.66-4.66.18-1.62,1.93.34.44-1.55-.64-.82-1.05-.92-1.77-1.55.64-.75,3.2-2.06,3.1-2.22-.56-.89-2.09-.6-2.22-1.33-.2-1.16,2.63.13-1.77-3.55,4.77-1.24-2.79-.5.89-1.77-4.28-3.9-.33-1.49-.44-2.66-.13-1.4-6.8-8.16-3.55-7.09-3.7-2.15,1.09-.54-1.33-4.21,10.42-9.57.94,6.44,8.65,4.43.45-.12,1.21-1.4,1.55-1.77,4.1-4.48,1.78-9.52,8.42-3.55Z"/>
                    <g>
                        <path class="cls-12"
                              d="M158.79,299.41c.39,2.15,4.12,7.97.67,8.87-3.07.8-7.71-4.5-6.65.44-2.23-.08-7.79-1.75-9.31-.44-.4-.12-1.02-1.32-1.11-1.33.54-1.66.94-6.88.89-8.42.91-1.74,2.11-.06,2.88,0,3.76.31,7.76.03,11.53,0l1.11.89Z"/>
                        <path class="cls-64"
                              d="M142.82,290.1c-2.77-.4.21-1.51,0-2.44-1.89-.39-1.15-2.34-1.77-3.33,4.68-14.09,2.86-5.36,7.54,2.44.29,2-5.4.97-5.76,3.33Z"/>
                    </g>
                    <g>
                        <path class="cls-14"
                              d="M124.2,250.19c1.54,1.62,6.78,5.01,7.09,5.32,10.23,10.24,20.21,20.73,31.04,30.37-.11,4.74-2.57,7.14-2.66,7.54-.04.16.6,1.6.44,3.33l-.44,1.33c-.14.61,1.25.36-.89,1.33l-1.11-.89c-3.77.03-7.77.31-11.53,0-.77-.06-1.97-1.74-2.88,0-.02-.48-2.26,1.51-.44-8.42.36-2.36,6.06-1.32,5.76-3.33-4.68-7.8-2.86-16.53-7.54-2.44-3.35-5.27-2.5,2.21-4.21,1.33-1.24-.64-.06-5.89-1.55-7.32-2.31-.57,1.95,3.17-3.33,4.21-1.02-2.38-3.48-4.54-4.66-6.65-3.82-6.87-4.84-18.39-6.43-17.73-.19.64-.41,1.17-.67,1.77-1.9,4.45-3.05,12.69-5.76,17.73-1.6,1.61-2.72,4.19-4.88,5.32-.16.08-2.77.75-3.55.89,0-.1-.73.2-.44-2,.15-1.13,5.42-19.47,6.21-21.95,1.22-3.81,3.29-7.57,4.21-11.53,2.24,2.43,5.2,1.7,8.2,1.77Z"/>
                        <path class="cls-27" d="M159.67,298.08l.44-1.33c-.16,1.78-.43,1.26-.44,1.33Z"/>
                        <path class="cls-12"
                              d="M152.36,283c1.37,0,2.05,2.27,2,2.44-.25.76-2.54.87-2.66,1.33-.13.5,2.7,1.08,1.33,2.66-3.88,4.47-2.39-6.44-.67-6.43Z"/>
                    </g>
                    <g>
                        <path class="cls-54"
                              d="M76.76,261.28c.47.81,1.13,1.34,1.77,2-1.23,1.27.43,4.1,1.77,5.32-1.46,1.36.05,5.51,1.77,5.54-1.19,2.77,3.52,2.15-2.66,4.43-.5-.51-1.72-1.48-1.77-1.11.02,1.3-2.37,3.75-1.77,4.88.11.21,3.82-.72,4.43.67.29,1.02.56,2.09.89,3.1,1.26,3.85,2.07,3.4,2.22,3.77.13.33-.15,4.22,2.22,6.43-.13,0-1.5.41-2.66.44-6.7.19-5.45.87-5.76.89-.49.02-1.14-.04-1.77,0-5.22.3-10.29-.02-15.52,0l1.33-2.22c2.64.42,5.24,1.06,7.54-.67-3.04-1.45-4.63-3.16-4.88-3.33-1.54-2.06,4.97-3.3.44-3.33,3.13-.57,3.55-5.43.89-4.88,1.86-1.61-.21-.75-.89-2.22,5.48-1.98,1.8-1.9,1.77-2.66-.02-.65,5.68-4.21.89-3.55,3.45-3.06.1-1.54,0-2.22-.06-.39,1.2-.02,1.33-.44.1-.32-1.34-.79-1.33-.89.03-.5,7.01-7.37,3.55-7.32,1.37-1.98,2.17-4.35,3.77-6.21.6-.09,2.08,2.93,2.44,3.55Z"/>
                        <path class="cls-64"
                              d="M82.97,296.75c1.03,1.79,1.02,3.86.22,5.76l-5.99-.89c.19-1.17-.13-2.74,0-3.99.31-.02-.94-.7,5.76-.89Z"/>
                        <path class="cls-23"
                              d="M79.42,278.57c.12.12.43,1.74,1.77,2.88.06.83-.91,1.47-.89,1.55-.61-1.38-4.32-.46-4.43-.67-.6-1.13,1.8-3.57,1.77-4.88.06-.37,1.27.6,1.77,1.11Z"/>
                    </g>
                    <path class="cls-6"
                          d="M346.77,319.36c-1.12.69-2.69,1.24-3.99.89-.99-.27-2.24-2.04-2.22-3.1,3.18-2,5.32-1.51,6.21,2.22Z"/>
                    <path class="cls-48"
                          d="M304.65,324.68c.35,1.87-1.14,1.45-2.22,1.77v-3.99c.7.3,1.27,1.87,2.22,2.22Z"/>
                    <g>
                        <path class="cls-27"
                              d="M325.93,309.16c-1.15,1.9,3.93,2.29-1.33,2,1.12.91,2.5,2.81,3.1,3.99.37.72-.47,1.27-.44,1.33.6,1.28,3.45.31,1.33,3.33-.42.07-.78.85-7.98,2.22-.19.04-.21-.19-3.55.44-3.39.64-6.69,1.64-9.98,2.66-.81.07-1.7-.17-2.44-.44-.94-.35-1.52-1.91-2.22-2.22-.12-.05-.32.05-.44,0,.71-4.75,2.59-.35,3.77-3.55,5.88,4.12,3.99.32,2-3.77.38-2.17.35-4.99.89-5.76-3.63-1.97,1.12-.35-2.22-2.88,6.37-9.95,3.63-6.4,2-7.09,1.61-4.88,5.68-6.8,5.54-7.32-.19-.71-1.58.71-1.77,0-.05-.18,2.34-2.91,2.22-3.1-.35-.54-4.35,1.35,3.33-6.43.44.88,4.27,5.62,4.21,5.99-.03.18-1.26.39-1.33.89-.18,1.33,3.2,1.67.44,3.55,4.24,1.96,2.03,4.24,5.76,6.21-7.74-.4,5.09,7.14-.89,9.98Z"/>
                        <path class="cls-20"
                              d="M320.61,322.02c-.81,2.71-1.81,2.27-3.55.44,3.34-.63,3.36-.41,3.55-.44Z"/>
                        <path class="cls-30" d="M316.84,284.78c1.14-.61,1.28.79.44.89-.05,0-.9-.65-.44-.89Z"/>
                    </g>
                    <path class="cls-6"
                          d="M110.9,288.32c2.01-.67,1.81,2.08,1.33,3.1-.2.41-6.4,5.65-7.09,5.76-2.52-.37-4.99-.44-7.54-.44.37-2.04,1.46-1.84-.44-3.33.07-.37,8.92,1.73,3.99-.44,1.12-.23.95-1.22,1.33-1.55.19-.16.82,1.14,1.77-.22.34-.49.61-4.39,2.22-5.1,1.38.86,2.64.12,3.1.67.35.41-4.13,6.79,1.33,1.55Z"/>
                    <g>
                        <path class="cls-25"
                              d="M100.26,285.22c1.48,1.89-.26-.07-.44,1.55-.03.27,2.73,3.51,2.66,4.66-.38.33-.21,1.32-1.33,1.55,4.93,2.17-3.92.08-3.99.44,1.9,1.48.81,1.29.44,3.33-4.06-.01-8.15-.56-11.97-.44-2.37-2.21-2.09-6.1-2.22-6.43-.14-.37-.96.09-2.22-3.77,1.94-1.97,2.27.36,2.88.44,2.19.29,4.09-1.33,7.09.89-.66-3.07,6.44.15,9.09-2.22Z"/>
                        <g>
                            <path class="cls-31"
                                  d="M93.17,260.84c2.42,3.68-2.37,2.06,1.33,4.21-3.25-1.06,3.41,5.7,3.55,7.09.11,1.17-3.83-1.24.44,2.66-3.67,1.27,3.89.53-.89,1.77,4.4,3.68,1.58,2.39,1.77,3.55.13.73,1.66.44,2.22,1.33.1.16-2.46,1.47-3.1,2.22.72.63,1.13.73,1.77,1.55-2.64,2.36-9.75-.86-9.09,2.22-3-2.22-4.9-.59-7.09-.89-.61-.08-.94-2.41-2.88-.44-.33-1.01-.6-2.08-.89-3.1-.02-.09.95-.72.89-1.55-1.34-1.14-1.65-2.76-1.77-2.88,6.18-2.28,1.47-1.67,2.66-4.43.04-.1.84,0,1.11-1.77.03-.04.54.76.89.44,3.5-3.25-.67-.06-.67-2,0-3.12,6.75-6.68,3.1-5.76.09-4.55,2.79-10.08,6.65-4.21Z"/>
                            <path class="cls-51"
                                  d="M89.84,259.95c2.17-.37.17,1.57-.44,1.33-.62-.24.14-1.28.44-1.33Z"/>
                        </g>
                    </g>
                </g>
                <g>
                    <path class="cls-18"
                          d="M113.56,453.25c.29.38.9.81,1.33.89-.03,1.8.09,6.5-.44,7.54-.49.95-5.25,3.01-6.43,3.1-4.3.35-7.78-2.15-8.2-2.22-1.55-2.54-1.74-5.55-.89-8.42.18-.61.44-.23.89-.89,4.54.75,9.24,1.31,13.74,0Z"/>
                    <path class="cls-36" d="M105.8,457.69c2.9-.65,2.07,2.01,5.1,2.88-8.7,4.12-7.14-2.43-5.1-2.88Z"/>
                    <path class="cls-60" d="M109.79,455.03c1.68-.74,2.17,2.67.89,3.1-1.7.57-1.81-2.7-.89-3.1Z"/>
                    <path class="cls-60" d="M102.7,455.03c1.26-.85,1.5,2.19.89,2.66-.81.62-1.68-2.12-.89-2.66Z"/>
                </g>
                <g>
                    <path class="cls-37"
                          d="M287.36,374.78c1.37,6.82-9.39,3.17-9.98,3.55-.67.44.36,2.64-.67,3.1-.01-.15.02-.3,0-.44-.06-.46.1-1.08,0-1.33-.07-.19.22-.72-.67-1.33-2.96-1.05-53.15.85-62.74,0-.29-.03-.59.01-.89,0,.24-.79,1-3.31,1.55-3.55,3.38-1.41,64.08,1.09,73.38,0Z"/>
                    <path class="cls-47"
                          d="M194.25,408.03c-2.21-.03-4.44.04-6.65,0-1.2-.02-2.46.26-3.55-.44.3-1.13-.14-6.35,0-8.87.22-4.01.86-8,.44-12.19,2.79-.1,5.85-.51,8.65-.22.2.02.66.84.89.89.43.09,3.21-3.78.67,5.99,2.1.09.13,9.92-.44,14.85Z"/>
                    <path class="cls-13"
                          d="M194.25,408.03c-.09.81.64.68,0,3.1-3.09-.11-6.23.15-9.31,0-1.73-3.46,2.72-1.22,2.66-3.1,2.21.04,4.44-.03,6.65,0Z"/>
                    <path class="cls-18"
                          d="M253.22,339.75c.29,0,.59,0,.89,0,4.11,4.12,32.78,32.66,33.25,35.03-9.29,1.09-69.99-1.41-73.38,0-.56.23-1.32,2.75-1.55,3.55l-.67.44c-5.94-5.17-18.82-20.81-23.28-23.94-.08-.06-.67-1.44-1.55-1.33-3.16,2.31-18,20.63-19.29,21.28-.1.05-.29-.04-.44,0-.64.18.47-1.49-1.11-.89-1.42.54-4.54,7.41-5.54,3.33-1.07-4.33,3.18-7.26,5.76-10.42,1.1-1.34,2.4-2.67,3.55-3.99.47-.55,1.23-1.15,1.77-1.77,2-2.29,15.87-17.85,17.07-18.18,2.11-.57,5.56.75,7.76-.44.2,2.13.73,4.23.44,6.43l.89.67c8.57.56,6.75-1.14,7.09-1.33,4.89-2.76,11.08-7.67,0-5.32-.02-1.27.01-2.81,0-3.1,16.09-.29,32.24.39,48.33,0Z"/>
                    <path class="cls-24"
                          d="M276.72,379.66c-1.36-.29-.64,1.16-1.11,1.33-2.93,1.04-54.05-.8-62.29,0-.05-1.03-.94-1.52,0-2.66,9.59.85,59.78-1.05,62.74,0,.88.61.59,1.14.67,1.33Z"/>
                    <path class="cls-34"
                          d="M188.49,354.83c-2.87-1.29-3.62,4.07-5.76,6.87-3.28,4.29-10.55,11.58-14.63,15.74-.17-.87-.37-1.78-.44-2.66,1.28-.65,16.12-18.97,19.29-21.28.88-.11,1.47,1.27,1.55,1.33Z"/>
                    <path class="cls-34"
                          d="M204.89,339.75c.01.29-.02,1.83,0,3.1.03,1.77-.02,3.55,0,5.32-.34.19,1.48,1.89-7.09,1.33l.44-14.19c1.22-.26,1.75-.41,3.1-.44,2.03-.05,2.77-.98,3.55.22.05,1.55-.08,3.12,0,4.66Z"/>
                    <path class="cls-19"
                          d="M198.24,335.32l-.44,14.19-.89-.67c.29-2.2-.24-4.3-.44-6.43-.16-1.69-.11-4.87,0-6.65.74-.59,1.23-.33,1.77-.44Z"/>
                    <path class="cls-16" d="M204.89,348.18c-.02-1.77.03-3.55,0-5.32,11.08-2.35,4.89,2.56,0,5.32Z"/>
                    <g>
                        <path class="cls-34"
                              d="M276.72,379.66c.1.25-.06.87,0,1.33-.27-.02-.85.52-.89.67-.76,3.41,1.07,26.49-.67,27.27-18.49.36-12.06-.17-13.52-3.77-1.39-3.43-1.82,3.5-2.44,3.77-1.22.53-25.39.54-26.6,0-1.61-.71.48-4.98-1.77-4.43-1.29.31-.22,3.97-.89,4.43-.65.46-13.78-.35-15.96,0-1.26-.56-.55-24.24-.67-27.49,0-.15,0-.3,0-.44,8.25-.8,59.36,1.04,62.29,0,.47-.17-.25-1.62,1.11-1.33Z"/>
                        <path class="cls-18" d="M263.64,402.27c1.05.13.28,1.99-.44.89-.29-.44.39-.89.44-.89Z"/>
                        <g>
                            <polygon class="cls-18"
                                     points="237.48 389.41 248.34 389.63 248.12 401.82 237.26 401.6 237.48 389.41"/>
                            <path class="cls-38"
                                  d="M239.25,390.74c3.76-1.67,3.22,3.91,2.66,4.43-.12.11-3.22.42-3.33.22-.25-.45-.17-4.29.67-4.66Z"/>
                            <path class="cls-52"
                                  d="M238.81,396.06c3.18-2.26,4.3,3.58,3.1,4.43-3.18,2.26-4.3-3.58-3.1-4.43Z"/>
                            <path class="cls-52"
                                  d="M243.69,396.06c4.04-1.79,3.01,4.64,2.66,4.88-.14.09-3.23-.53-3.33-.67-.12-.17-.29-3.79.67-4.21Z"/>
                            <path class="cls-38"
                                  d="M243.69,390.74c3.86-1.71,3.13,4.1,2.66,4.43-3.11,2.21-4.62-3.57-2.66-4.43Z"/>
                        </g>
                        <g>
                            <polygon class="cls-18"
                                     points="256.1 389.41 266.08 389.63 265.86 401.82 255.88 401.6 256.1 389.41"/>
                            <path class="cls-38"
                                  d="M261.87,396.06c3.6-1.67,3.48,4.44,2.22,4.88-2.8.96-4.17-3.97-2.22-4.88Z"/>
                            <path class="cls-38"
                                  d="M261.87,390.74c3.47-1.61,3.32,3.96,2.66,4.43-3.09,2.19-4.63-3.52-2.66-4.43Z"/>
                            <path class="cls-38"
                                  d="M257.43,396.06c3.01-2.14,3.63,3.75,2.66,4.43-3.01,2.14-3.63-3.75-2.66-4.43Z"/>
                            <path class="cls-38"
                                  d="M257.88,390.74c3.38-1.56,2.62,4.15,2.22,4.43-2.9,2.06-3.95-3.63-2.22-4.43Z"/>
                        </g>
                        <g>
                            <path class="cls-18"
                                  d="M221.96,389.41c.23-.16,5.35-.05,5.54.22.35.5-.38,9.34.22,12.19l-6.43-.67c.15-1.45.19-11.41.67-11.75Z"/>
                            <path class="cls-38"
                                  d="M223.29,390.74c3.86-1.71,3.13,4.1,2.66,4.43-3.11,2.21-4.62-3.57-2.66-4.43Z"/>
                            <path class="cls-38"
                                  d="M223.29,396.06c3.86-1.71,3.13,4.1,2.66,4.43-3.03,2.15-4.51-3.61-2.66-4.43Z"/>
                        </g>
                    </g>
                    <g>
                        <path class="cls-9"
                              d="M188.49,354.83c4.46,3.14,17.34,18.77,23.28,23.94l.67-.44c.29.01.6-.03.89,0-.94,1.14-.05,1.63,0,2.66,0,.15,0,.3,0,.44-.46-.15-1.25.31-1.33.67-.38,1.62,1.19,21.2-.22,26.82-13.92,1.68-6.59-4.66-9.31-5.32-2.96-.72,2.36,7.74-6.43,4.66l-.22-22.83-17.96.67c.24,1.65-.32,10.63,0,11.08.67.95,6.41-1.02,6.21,1.55-.14,2.52.3,7.73,0,8.87-.61,2.28-7,3.22-5.32-4.21-3.99.19,3.95,8.41-10.2,4.88-.6-1.35.39-24.92,0-29.48-.08-.91-.37-.96-.44-1.33,4.08-4.16,11.35-11.45,14.63-15.74,2.14-2.8,2.9-8.17,5.76-6.87Z"/>
                        <g>
                            <path class="cls-18"
                                  d="M197.14,385.86c.24-.17,5.8-.05,5.99.22.33.46.14,10.87-.22,11.31-.46.56-5.55.59-5.99-.22-.27-.5-.24-10.98.22-11.31Z"/>
                            <path class="cls-38"
                                  d="M198.47,392.07c4.24-1.88,3.7,4.01,3.1,4.43-3.26,2.31-5.32-3.45-3.1-4.43Z"/>
                            <path class="cls-38"
                                  d="M198.47,387.19c4.17-1.85,3.76,3.88,3.1,4.43-.13.11-3.2-.12-3.33-.22-.16-.13-1.04-3.65.22-4.21Z"/>
                        </g>
                        <g>
                            <path class="cls-18"
                                  d="M188.71,359.7c4.9-.86,4.68,12.14-2.66,8.87-.56-.25-2.74-9.86,2.66-8.87Z"/>
                            <path class="cls-38"
                                  d="M186.94,364.14c2.59-1.84,4.61,2.48,3.1,3.55-2.59,1.84-4.61-2.48-3.1-3.55Z"/>
                            <path class="cls-52"
                                  d="M186.94,361.03c.86-.61,4.75.1,3.33,2-.95,1.26-5.53-.43-3.33-2Z"/>
                        </g>
                    </g>
                </g>
                <g>
                    <path class="cls-31"
                          d="M141.05,312.71c.73.04,1.49-.05,2.22,0l.22,3.1c-8.9-2.34-1.25,6.56,1.77,8.87,4.94,3.76,13.16,4.05-.22,5.1,5.45,3.72,1.37,3.9-1.77,2.88-1.44-.47-9.84-11.51-6.21-2.44-.97,1.6-6.59-4.88-7.32-5.99l-.67.22c.38,1.13.89,4.05.89,5.1-1.21.71-4.09-2.11-5.1-3.55-.97-.3-.66,1.44-.67,3.55,0,1.85.86,2.46,0,3.55-.4-.51-2.01-1.18-2.66-1.77-3.07-25.61,4.61-7.84,4.88-17.29.02-.72-.98-2.24-.22-3.99.35-.27,1.95,3.36,7.09,4.88,2.43-2.96,5.8,4.35,2.66-3.55.28-.13,4.45,2.98,5.54,2l-.44-.67Z"/>
                    <path class="cls-2"
                          d="M133.07,302.51c.33.21,2.43,2.86,5.76,5.32,1.11.82,3.38,1.15,3.55,1.55.15,3.45-6.53,1.2-1.33,3.33l.44.67c-1.09.99-5.26-2.13-5.54-2,3.14,7.9-.23.59-2.66,3.55-5.14-1.51-6.74-5.15-7.09-4.88-.76,1.75.24,3.27.22,3.99-5.55-4.46-1.68.61-3.77.89-.91.12-2.01-3.55-2.22-3.55-.42,0-1.99,5.69-2,0,0-13.27,8.73-7.5,9.53-7.54.77-.03,2.64-2.89,5.1-1.33Z"/>
                    <path class="cls-32"
                          d="M117.55,276.8c-.1,2.18,2.27-.45,2.44-.44.22,0,1.19,2.42,3.1.44,3.36,2.87,1.76.18,2.22,0,.07-.03.12.82,1.55,0,2.02,4.33,5.34,6.44,5.32,6.87,0,.15-1.32.45-1.33.89-.01.44,4.08,2.91-.44,2-2.55-.51-4.38-3.15-5.32-1.77-4.47-5.42-.59.69-3.99-.44,0-.13-.37-.55-.22-2.66-.61-.12-2.18,7.25-2.66.89-2.21,4.68-1.74,2.78-4.21,2.22-3.66-.84-4.9-.17-4.43-1.77,2.16-1.13,3.28-3.71,4.88-5.32,2.28-2.3.64-.49,1.55,0,.86.46.52-1.2.89-1.33.07-.02.4.6.67.44Z"/>
                    <path class="cls-2"
                          d="M127.31,275.91c.15,1-.32.81-.44.89-1.43.82-1.48-.03-1.55,0-.46.18,1.14,2.87-2.22,0-1.91,1.98-2.89-.43-3.1-.44-.17,0-2.54,2.63-2.44.44.45-.26,3.48-3.09,3.55-3.33.2-.68.45-13.5-.89-13.52.26-.6.48-1.14.67-1.77,1.59-.65,2.61,10.87,6.43,17.73Z"/>
                    <path class="cls-2"
                          d="M117.55,276.8c-.27.15-.6-.47-.67-.44-.37.13-.02,1.79-.89,1.33-.91-.49.73-2.3-1.55,0,2.71-5.04,3.86-13.29,5.76-17.73,1.34.02,1.09,12.84.89,13.52-.07.23-3.1,3.07-3.55,3.33Z"/>
                    <path class="cls-23"
                          d="M109.57,283c-.47,1.61.78.94,4.43,1.77.39.67-.81,1.35-3.1,3.55-5.46,5.24-.98-1.14-1.33-1.55-.46-.54-1.72.2-3.1-.67-1.78-1.11-.4-1.71-.44-2.22.78-.14,3.38-.8,3.55-.89Z"/>
                    <path class="cls-59"
                          d="M121.54,331.33c.65.59,2.26,1.26,2.66,1.77,5.06,6.51-2.03,4.21-2.66,5.1-.34.48.26,10.02,0,11.75-1.74-.43-1.98,1.48-2.66,1.77-3.2,1.39-11.42,6.04-4.88-.67l-.67-.67c-2.78,3.47-6.94,4.27-11.08,4.43,7.02-10.01,3.14-3.09-1.77-1.33-7.81,2.8-7.18,1-1.55-3.33-15.47-.13-8.35-1.66-4.43-6.65,2.02-2.58,3.35-5.34,4.88-8.2.42-.78,2.33-2.58,1.33-3.1,1.77-.44,4.62-5.85,6.21-3.33.22.35-.33,2.03.22,2.44.97.71,6.19-6.32,4.21.67,4.53-1.78,1.15.96,2.44,2,1.39,1.12,4.15-3.08,4.43-3.1,1.43-.12-.47,4.1,3.33.44Z"/>
                    <path class="cls-59"
                          d="M118.44,311.38c0,5.69,1.58,0,2,0,.21,0,1.31,3.67,2.22,3.55,2.09-.28-1.78-5.35,3.77-.89-.26,9.45-7.95-8.32-4.88,17.29-3.8,3.65-1.89-.56-3.33-.44-.28.02-3.04,4.22-4.43,3.1-1.29-1.04,2.09-3.77-2.44-2,1.98-6.99-3.24.05-4.21-.67-.55-.41,0-2.08-.22-2.44-1.59-2.53-4.43,2.88-6.21,3.33-.59.15-4.7.06-4.88-.22,10.01-6.15,2.48-2.44,2-2.44-1.32,0-6.99-2.7-6.87-3.33,6.25.93,9.69-3.79,12.41-8.65,1.37-1.94,3.79-2.22,5.76-3.1,2.23-1,2.92-4.42,3.33,1.33,5.33-9.33-2.48,4.04,5.99-4.43Z"/>
                    <path class="cls-2"
                          d="M126.86,288.77c.94,1.29,1.94,2.45,3.1,3.55,5.02,4.72,12.36,4.3,7.32,7.09-1.69.93-4.16-.04-4.66.89-1.47-1.11-3.76-.95-5.54-1.33-6.56-8.78,1.61,4.4-3.99,0,.38,5.93-3.85-3.11-3.99-3.99-2.19,1.85-3.41,2.9-6.21,3.55l.89-3.99c-1.8.72-7.44,3.69-7.76,3.99l-.89-1.33c.69-.11,6.9-5.35,7.09-5.76,3.55,2.36,3.96-.82,4.21-.89,2.1-.59,2.74.04,2.88,0,1.13,2.65,3.3-3,7.54-1.77Z"/>
                    <path class="cls-25"
                          d="M109.13,314.48c-1.97.89-4.39,1.17-5.76,3.1-5.29-.24-4.47-1.47-.89-4.43,3.17-2.63,1.12.19,1.55.44,1.59.91,7.7-4.52,5.1.89Z"/>
                    <path class="cls-50"
                          d="M121.54,349.95c2.51-.04,2.1,1.28,2.22,1.33-.32,4.18-.12,8.25,0,12.41,0,.13-.38,1.22-.44,2.66-1.25-.06-2.52.04-3.77,0-1-.63-.54-1.38-.67-2.22-.45-2.92.33-8.84,0-12.41.68-.3.92-2.2,2.66-1.77Z"/>
                    <path class="cls-25"
                          d="M143.27,332.66c.97,5.8,7.16,12.12,11.75,16.4-7.57,2.32-16-3.74-5.1,4.21-4.85.85-9.75-1.26-13.52-4.21l4.43,6.21c-12.15-1.23-14.72-11.94-10.2-.89-2.45-.69-4.56-2.07-6.87-3.1-.12-.05.3-1.37-2.22-1.33.26-1.73-.34-11.27,0-11.75.63-.88,7.72,1.41,2.66-5.1.86-1.09,0-1.69,0-3.55,2.73,2.96,5.74,5.84,5.76,0,0-1.05-.5-3.96-.89-5.1l.67-.22c.72,1.1,6.35,7.59,7.32,5.99-3.63-9.08,4.76,1.97,6.21,2.44Z"/>
                    <path class="cls-25"
                          d="M129.97,329.56c-.03,5.84-3.03,2.96-5.76,0,0-2.11-.3-3.84.67-3.55,1.01,1.43,3.89,4.26,5.1,3.55Z"/>
                    <path class="cls-31"
                          d="M130.41,286.55c-.31,1.86.81,3.01-.44,5.76-1.16-1.1-2.17-2.26-3.1-3.55-.16-.22,1.67.18-1.77-3.99.94-1.38,2.78,1.26,5.32,1.77Z"/>
                    <path class="cls-31"
                          d="M121.1,284.33c.14,2.52.41,5.54-1.77,6.21-.14.04-.78-.59-2.88,0-.25.07-.66,3.25-4.21.89.48-1.02.68-3.77-1.33-3.1,2.29-2.2,3.5-2.88,3.1-3.55,2.47.57,2.01,2.46,4.21-2.22.48,6.36,2.05-1,2.66-.89-.15,2.11.21,2.53.22,2.66Z"/>
                    <path class="cls-31"
                          d="M125.09,284.78c3.44,4.17,1.61,3.77,1.77,3.99-4.24-1.23-6.41,4.43-7.54,1.77,2.18-.67,1.91-3.68,1.77-6.21,3.4,1.13-.48-4.97,3.99.44Z"/>
                    <g>
                        <path class="cls-31"
                              d="M132.63,300.29c1.12.85,2.34.59.44,2.22-2.46-1.56-4.33,1.3-5.1,1.33-.8.03-9.54-5.73-9.53,7.54-8.47,8.47-.66-4.89-5.99,4.43-.41-5.75-1.09-2.33-3.33-1.33,2.6-5.41-3.51.02-5.1-.89-.44-.25,1.62-3.07-1.55-.44-12.28.1,4.11-2.9,5.99-12.86-2.63,1.18-4.96.61-2.44-1.77.32-.3,5.96-3.27,7.76-3.99l-.89,3.99c2.79-.64,4.02-1.7,6.21-3.55.14.88,4.37,9.92,3.99,3.99,5.6,4.4-2.57-8.78,3.99,0,1.78.38,4.07.22,5.54,1.33Z"/>
                        <path class="cls-2" d="M118.66,298.08c.55-.38.58,1.7,0,1.33-.34-.21-.38-1.07,0-1.33Z"/>
                    </g>
                </g>
            </g>
        </g>
    </g>
</svg>