<?xml version="1.0" encoding="utf-8"?>
<!-- Generator: Adobe Illustrator 27.0.1, SVG Export Plug-In . SVG Version: 6.00 Build 0)  -->
<svg version="1.1" id="Calque_1" xmlns="http://www.w3.org/2000/svg" xmlns:xlink="http://www.w3.org/1999/xlink" x="0px" y="0px"
	 viewBox="0 0 512 512" style="enable-background:new 0 0 512 512;" xml:space="preserve">
<style type="text/css">
	.st0{fill-rule:evenodd;clip-rule:evenodd;fill:#FFFFFF;}
	.st1{fill-rule:evenodd;clip-rule:evenodd;fill:#1FB35B;}
	.st2{fill-rule:evenodd;clip-rule:evenodd;fill:#198043;}
	.st3{fill-rule:evenodd;clip-rule:evenodd;fill:#AFBDC7;}
</style>
<g>
	<path class="st0" d="M95.9,295.6c109.2,18.9,218.4,18.3,327.6,0V143.8c0-1.7-0.6-3.4-1.6-4.8L350,43.1c-1.5-2-3.9-3.2-6.4-3.2
		H119.9c-6.4,0-12.5,2.5-16.9,7c-4.5,4.5-7,10.6-7,16.9v183.8c0,11.9-2.8,21.9-2.8,29.9C93.1,288.7,95.9,295.6,95.9,295.6
		L95.9,295.6z"/>
	<path class="st1" d="M47.9,274.9v172.5c0,6.4,2.5,12.5,7,16.9c4.5,4.5,10.6,7,16.9,7h367.5c6.4,0,12.5-2.5,16.9-7
		c4.5-4.5,7-10.6,7-16.9c0-30.6,0-97.2,0-127.8c0-6.4-2.5-12.5-7-16.9c-4.5-4.5-10.6-7-16.9-7H79.9
		C69.7,295.6,47.9,274.9,47.9,274.9L47.9,274.9z"/>
	<path class="st2" d="M71.9,295.6c-7.3,0-12.6-3-16.5-6.6c-3.7-3.4-7.4-9.5-7.4-17.4c0-5.1,2.5-12.5,7-16.9c4.5-4.5,10.6-7,16.9-7
		h24v47.9C95.9,295.6,97.9,295.6,71.9,295.6z"/>
	<path class="st3" d="M343.6,39.9v79.9c-0.3,12.9,11.1,24.2,24,24h55.9c0-1.7-0.6-3.4-1.6-4.8L350,43.1
		C348.5,41.1,346.1,39.9,343.6,39.9z"/>
	<path class="st1" d="M167.8,151.8h103.9c4.4,0,8-3.6,8-8s-3.6-8-8-8H167.8c-4.4,0-8,3.6-8,8S163.4,151.8,167.8,151.8L167.8,151.8z"
		/>
	<path class="st1" d="M167.8,199.8h183.8c4.4,0,8-3.6,8-8s-3.6-8-8-8H167.8c-4.4,0-8,3.6-8,8S163.4,199.8,167.8,199.8L167.8,199.8z"
		/>
	<path class="st1" d="M167.8,247.7h183.8c4.4,0,8-3.6,8-8s-3.6-8-8-8H167.8c-4.4,0-8,3.6-8,8S163.4,247.7,167.8,247.7L167.8,247.7z"
		/>
	<g>
		<path class="st0" d="M300.2,346.5l32,79.9c1.2,3,4.2,5,7.4,5c3.3,0,6.2-2,7.4-5l32-79.9c1.6-4.1-0.4-8.7-4.5-10.4
			c-4.1-1.6-8.7,0.4-10.4,4.5L339.6,402L315,340.6c-1.6-4.1-6.3-6.1-10.4-4.5C300.6,337.8,298.6,342.4,300.2,346.5L300.2,346.5z"/>
		<path class="st0" d="M176.3,335.6h-4.6c-22.1,0-39.9,17.9-39.9,39.9v16c0,22.1,17.9,39.9,39.9,39.9h4.6c14.3,0,27.2-8.3,33.1-21.3
			c0.8-1.8,1-2.1,1.5-3.3c2.1-4.6-0.4-8.9-3.4-10.4c-5-2.5-9.6,0.3-11.1,3.7c-0.5,1.1-1.5,3.3-1.5,3.3c-3.3,7.3-10.6,11.9-18.6,11.9
			h-4.6c-13.2,0-24-10.7-24-24v-16c0-13.2,10.7-24,24-24h4.6c8,0,15.3,4.7,18.6,11.9c0,0,1,2.2,1.5,3.3c2.4,5,8.1,5.7,11.7,3.4
			c2.5-1.6,4.9-5.6,2.9-10.1c-1.5-3.3-1.5-3.3-1.5-3.3C203.5,343.9,190.6,335.6,176.3,335.6L176.3,335.6z"/>
		<path class="st0" d="M223.7,403.5L223.7,403.5v4c0,6.4,2.5,12.4,7,16.9s10.6,7,16.9,7h18c6.4,0,12.4-2.5,16.9-7s7-10.6,7-16.9
			c0-1.1,0-2.1,0-3.2c0-9.8-6-18.6-15.1-22.3l-29.1-11.6c-3.5-1.4-5.8-4.8-5.8-8.6v-2.3c0-2.1,0.8-4.2,2.3-5.6
			c1.5-1.5,3.5-2.3,5.6-2.3h18c2.1,0,4.2,0.8,5.6,2.3c1.5,1.5,2.3,3.5,2.3,5.6v3.9c0,2.3,1,4.3,2,5.3c1.6,1.8,3.8,2.7,6,2.7
			c3.9,0,8-3,8-8v-3.9c0-6.4-2.5-12.5-7-16.9c-4.5-4.5-10.6-7-16.9-7h-18c-6.4,0-12.5,2.5-16.9,7c-4.5,4.5-7,10.6-7,16.9v2.3
			c0,10.3,6.3,19.6,15.9,23.4l29.1,11.6c3,1.2,5,4.2,5,7.4v3.2c0,2.1-0.8,4.1-2.3,5.6s-3.5,2.3-5.6,2.3h-18c-2.1,0-4.1-0.8-5.6-2.3
			s-2.3-3.5-2.3-5.6c0,0,0,0,0-4c0-5.3-4.3-8-7.9-8C228.5,395.5,223.7,398.1,223.7,403.5L223.7,403.5z"/>
	</g>
</g>
</svg>
