<?xml version="1.0" encoding="utf-8"?>
<!-- Generator: Adobe Illustrator 26.5.0, SVG Export Plug-In . SVG Version: 6.00 Build 0)  -->
<svg version="1.1" id="Capa_1" xmlns="http://www.w3.org/2000/svg" xmlns:xlink="http://www.w3.org/1999/xlink" x="0px" y="0px"
	 viewBox="0 0 512 512" style="enable-background:new 0 0 512 512;" xml:space="preserve">
<style type="text/css">
	.st0{fill:#AEE69C;}
	.st1{fill:#89DAA4;}
	.st2{fill:#FFE179;}
	.st3{fill:#FBD268;}
	.st4{fill:#FFFFFF;}
	.st5{fill:#3D6D93;}
	.st6{fill:#335E80;}
	.st7{fill:#EAF6FF;}
	.st8{fill:#D8ECFE;}
</style>
<g>
	<path class="st0" d="M0,137.6L241,3.9c9.3-5.2,20.6-5.2,30,0l241,133.7H0z"/>
	<path class="st1" d="M271,3.9c-9.3-5.2-20.6-5.2-30,0l-4.6,2.5l236.4,131.1H512L271,3.9z"/>
	<g>
		<ellipse class="st2" cx="256" cy="324.8" rx="80.8" ry="80.8"/>
		<path class="st3" d="M256,243.9c-5.3,0-10.4,0.5-15.5,1.5c37.2,7.2,65.4,40,65.4,79.4s-28.1,72.1-65.4,79.4c5,1,10.2,1.5,15.5,1.5
			c44.6,0,80.8-36.2,80.8-80.8S300.6,243.9,256,243.9L256,243.9z"/>
		<path class="st4" d="M265.4,317h-1.7v-26.8h1.7c3.4,0,6.4,3.7,6.4,8.1c0,4.3,3.5,7.7,7.7,7.7s7.7-3.5,7.7-7.7
			c0-13-9.8-23.6-21.8-23.6h-1.7v-4.3c0-4.3-3.5-7.7-7.7-7.7s-7.7,3.5-7.7,7.7v4.3h-1.7c-12,0-21.8,10.6-21.8,23.6v10.6
			c0,13,9.8,23.6,21.8,23.6h1.7v26.8h-1.7c-3.4,0-6.4-3.7-6.4-8.1c0-4.3-3.5-7.7-7.7-7.7s-7.7,3.5-7.7,7.7c0,13,9.8,23.6,21.8,23.6
			h1.7v4.3c0,4.3,3.5,7.7,7.7,7.7c4.3,0,7.7-3.5,7.7-7.7v-4.3h1.7c12,0,21.8-10.6,21.8-23.6v-10.6C287.2,327.6,277.4,317,265.4,317z
			 M246.6,317c-3.4,0-6.4-3.7-6.4-8.1v-10.6c0-4.4,2.9-8.1,6.4-8.1h1.7V317L246.6,317L246.6,317z M271.8,351.2
			c0,4.4-2.9,8.1-6.4,8.1h-1.7v-26.8h1.7c3.4,0,6.4,3.7,6.4,8.1L271.8,351.2z"/>
	</g>
	<ellipse class="st5" cx="256" cy="74.5" rx="27.8" ry="27.8"/>

	<path class="st6" d="M256,46.6c-5.7,0-11,1.7-15.5,4.7c7.5,5,12.4,13.5,12.4,23.1s-4.9,18.1-12.4,23.1c4.4,3,9.7,4.7,15.5,4.7
		c15.4,0,27.8-12.5,27.8-27.8S271.4,46.6,256,46.6z"/>
	<g>
		<path class="st0" d="M481.1,465.6H357.2l30.9-43.5h62.1L481.1,465.6z"/>
		<path class="st1" d="M450.2,422.1h-30.9l30.9,43.5h30.9L450.2,422.1z"/>
		<path class="st0" d="M481.1,183.9H357.2l30.9,43.5h62.1L481.1,183.9z"/>
		<path class="st1" d="M450.2,183.9l-30.9,43.5h30.9l30.9-43.5H450.2z"/>
		<path class="st7" d="M388.1,227.5h62.1v194.6h-62.1V227.5z"/>
		<path class="st8" d="M419.3,227.5h30.9v194.6h-30.9V227.5z"/>
	</g>
	
	
	
	
	
	
	
	<g>
		<path class="st0" d="M154.8,465.6H30.9l30.9-43.5h62.1L154.8,465.6z"/>
		<path class="st0" d="M154.8,183.9H30.9l30.9,43.5h62.1L154.8,183.9z"/>
		<path class="st7" d="M61.8,227.5h62.1v194.6H61.8L61.8,227.5z"/>
		<path class="st1" d="M123.9,422.1H93l30.9,43.5h30.9L123.9,422.1z"/>
		<path class="st1" d="M123.9,183.9L93,227.5h30.9l30.9-43.5H123.9z"/>
		<path class="st8" d="M93,227.5h30.9v194.6H93V227.5z"/>
	</g>
	<path class="st5" d="M0,137.6h512v23.2c0,12.8-10.4,23.2-23.2,23.2H23.2C10.4,183.9,0,173.6,0,160.7L0,137.6z"/>
	<path class="st6" d="M481.1,137.6v23.2c0,12.8-10.4,23.2-23.2,23.2h30.9c12.8,0,23.2-10.4,23.2-23.2v-23.2H481.1z"/>
	<path class="st5" d="M10.3,465.6h491.4c5.7,0,10.3,4.6,10.3,10.3v25.8c0,5.7-4.6,10.3-10.3,10.3H10.3C4.6,512,0,507.4,0,501.7
		v-25.8C0,470.2,4.6,465.6,10.3,465.6L10.3,465.6z"/>
	<path class="st6" d="M501.7,465.6h-30.9c5.7,0,10.3,4.6,10.3,10.3v25.8c0,5.7-4.6,10.3-10.3,10.3h30.9c5.7,0,10.3-4.6,10.3-10.3
		v-25.8C512,470.2,507.4,465.6,501.7,465.6L501.7,465.6z"/>
</g>
</svg>
